<?xml version="1.0" encoding="UTF-8"?>
<svg id="_图层_2" data-name="图层 2" xmlns="http://www.w3.org/2000/svg" viewBox="0 0 163.57 248.61">
  <g id="_图层_1-2" data-name="图层 1">
    <path d="m1,6.6c0-3.08,2.51-5.6,5.57-5.6h150.43c3.06,0,5.57,2.52,5.57,5.6v235.41c0,3.08-2.51,5.6-5.57,5.6H6.57c-3.06,0-5.57-2.52-5.57-5.6V6.6Z" style="fill: #fff; fill-rule: evenodd; stroke: #231815; stroke-miterlimit: 22.93; stroke-width: 2px;"/>
    <path d="m81.3,105.74c-.13-5.34-4.05-9.21-10.15-9.21-6.11,0-11.64,5.18-11.93,12.59-.3,7.41,3.26,14.92,9.34,23.08,6.08,8.16,13.49,19.87,13.23,19.87s7.15-11.71,13.23-19.87c6.08-8.16,9.64-15.66,9.34-23.08-.3-7.41-5.82-12.59-11.93-12.59-6.11,0-10.02,3.87-10.16,9.21,0,0,.03,1.47-.49,1.44-.57-.04-.47-1.07-.48-1.44Z" style="fill: #e60012; fill-rule: evenodd; stroke-width: 0px;"/>
    <path d="m154.11,197.64l-9.65,45.52h-7s-9.65-45.52-9.65-45.52h-4.16v-5.61h14v5.61h-3.97s1.61,7.6,1.61,7.6h11.33s1.61-7.6,1.61-7.6h-4.45v-5.61h14v5.61h-3.68Zm-17.63,13.21l4.47,21.09,4.47-21.09h-8.95Z" style="fill: #e60012; stroke-width: 0px;"/>
    <path d="m141.02,177.42c.08,3.32,2.52,5.73,6.32,5.73,3.8,0,7.24-3.22,7.43-7.84.18-4.62-2.03-9.29-5.81-14.37-3.78-5.08-8.4-12.37-8.24-12.37s-4.45,7.29-8.24,12.37c-3.78,5.08-6,9.75-5.81,14.37.18,4.62,3.63,7.84,7.43,7.84,3.8,0,6.24-2.41,6.32-5.73,0,0-.02-.92.31-.89.35.03.3.67.3.89Z" style="fill: #e60012; fill-rule: evenodd; stroke-width: 0px;"/>
    <path d="m47.11,62.82c0-1.61,1.08-2.93,2.39-2.93h64.57c1.32,0,2.39,1.32,2.39,2.93v122.97c0,1.61-1.08,2.93-2.39,2.93H49.5c-1.32,0-2.39-1.32-2.39-2.93V62.82Z" style="fill: none; fill-rule: evenodd; stroke: #231815; stroke-miterlimit: 22.93; stroke-width: 1.5px;"/>
    <path d="m8.52,52.26L18.18,6.74h7s9.65,45.52,9.65,45.52h4.16v5.61h-14v-5.61h3.97s-1.61-7.6-1.61-7.6h-11.33s-1.61,7.6-1.61,7.6h4.45v5.61H4.84v-5.61h3.68Zm17.63-13.21l-4.47-21.09-4.47,21.09h8.95Z" style="fill: #e60012; stroke-width: 0px;"/>
    <path d="m21.61,72.47c-.08-3.32-2.52-5.73-6.32-5.73s-7.24,3.22-7.43,7.84c-.18,4.62,2.03,9.29,5.81,14.37,3.78,5.08,8.4,12.37,8.24,12.37s4.45-7.29,8.24-12.37c3.78-5.08,6-9.75,5.81-14.37-.18-4.62-3.63-7.84-7.43-7.84s-6.24,2.41-6.32,5.73c0,0,.02.92-.31.89-.35-.03-.3-.67-.3-.89Z" style="fill: #e60012; fill-rule: evenodd; stroke-width: 0px;"/>
  </g>
</svg>