<?xml version="1.0" encoding="UTF-8"?>
<svg id="_图层_2" data-name="图层 2" xmlns="http://www.w3.org/2000/svg" viewBox="0 0 163.57 248.61">
  <g id="_图层_1-2" data-name="图层 1">
    <path d="m1,6.6c0-3.08,2.51-5.6,5.57-5.6h150.43c3.06,0,5.57,2.52,5.57,5.6v235.41c0,3.08-2.51,5.6-5.57,5.6H6.57c-3.06,0-5.57-2.52-5.57-5.6V6.6Z" style="fill: #fff; fill-rule: evenodd; stroke: #231815; stroke-miterlimit: 22.93; stroke-width: 2px;"/>
    <path d="m124.05,240.1c1.8,1.78,4.28,2.89,6.99,2.89,2.72,0,5.19-1.11,6.99-2.89,1.8-1.79,2.92-4.25,2.92-6.96v-31.73c0-2.71-1.12-5.17-2.92-6.96-1.8-1.78-4.28-2.89-6.99-2.89-2.72,0-5.19,1.11-6.99,2.89-1.8,1.79-2.92,4.25-2.92,6.96v31.73c0,2.71,1.12,5.17,2.92,6.96Zm2.69-38.68c0-1.16.48-2.22,1.25-2.99.78-.77,1.85-1.25,3.05-1.25,1.19,0,2.27.48,3.05,1.25.77.77,1.25,1.83,1.25,2.99v31.73c0,1.16-.48,2.22-1.25,2.99-.78.77-1.85,1.25-3.05,1.25-1.19,0-2.27-.48-3.05-1.25-.77-.77-1.25-1.82-1.25-2.99v-31.73Z" style="fill: #e60012; stroke-width: 0px;"/>
    <polygon points="146.14 242.55 151.76 242.55 157.74 237.38 157.74 234.37 151.76 235.59 151.76 196.65 157.06 196.65 157.06 191.87 151.76 191.87 151.76 191.87 146.14 191.87 146.14 191.87 141.37 191.87 141.37 196.65 146.14 196.65 146.14 242.55" style="fill: #e60012; stroke-width: 0px;"/>
    <path d="m139.64,177.47c.08,3.32,2.52,5.73,6.32,5.73s7.24-3.22,7.43-7.84c.18-4.62-2.03-9.29-5.81-14.37-3.79-5.08-8.4-12.37-8.24-12.37s-4.45,7.29-8.24,12.37c-3.78,5.08-6,9.75-5.81,14.37.19,4.62,3.63,7.84,7.43,7.84,3.8,0,6.24-2.41,6.32-5.73,0,0-.01-.92.31-.89.35.03.3.67.3.89Z" style="fill: #e60012; fill-rule: evenodd; stroke-width: 0px;"/>
    <path d="m81.61,93.14c-.05-1.92-1.45-3.3-3.64-3.3-2.19,0-4.18,1.86-4.28,4.52-.11,2.66,1.17,5.36,3.35,8.28s4.84,7.13,4.75,7.13,2.57-4.2,4.75-7.13c2.18-2.93,3.46-5.62,3.35-8.28-.11-2.66-2.09-4.52-4.28-4.52s-3.6,1.39-3.65,3.3c0,0,.01.53-.18.52-.2-.02-.17-.39-.17-.52h0Zm17.26-12.25c-.05-1.92-1.45-3.3-3.65-3.3-2.19,0-4.18,1.86-4.28,4.52-.11,2.66,1.17,5.36,3.35,8.28,2.18,2.93,4.84,7.13,4.75,7.13s2.57-4.2,4.75-7.13c2.18-2.93,3.46-5.62,3.35-8.28-.11-2.66-2.09-4.52-4.28-4.52s-3.6,1.39-3.64,3.3c0,0,0,.53-.18.52-.2-.02-.17-.39-.17-.52h0Zm0,24.5c-.05-1.92-1.45-3.3-3.65-3.3-2.19,0-4.18,1.86-4.28,4.52-.11,2.66,1.17,5.36,3.35,8.28,2.18,2.93,4.84,7.13,4.75,7.13s2.57-4.2,4.75-7.13c2.18-2.93,3.46-5.62,3.35-8.28-.11-2.66-2.09-4.52-4.28-4.52s-3.6,1.39-3.64,3.3c0,0,0,.53-.18.52-.2-.02-.17-.39-.17-.52h0Zm-34.51-24.5c-.05-1.92-1.45-3.3-3.65-3.3-2.19,0-4.18,1.86-4.28,4.52-.11,2.66,1.17,5.36,3.35,8.28,2.18,2.93,4.84,7.13,4.75,7.13s2.57-4.2,4.75-7.13c2.18-2.93,3.46-5.62,3.35-8.28-.11-2.66-2.09-4.52-4.28-4.52s-3.6,1.39-3.65,3.3c0,0,.01.53-.18.52-.2-.02-.17-.39-.17-.52h0Zm0,24.5c-.05-1.92-1.45-3.3-3.65-3.3-2.19,0-4.18,1.86-4.28,4.52-.11,2.66,1.17,5.36,3.35,8.28,2.18,2.93,4.84,7.13,4.75,7.13s2.57-4.2,4.75-7.13c2.18-2.93,3.46-5.62,3.35-8.28-.11-2.66-2.09-4.52-4.28-4.52s-3.6,1.39-3.65,3.3c0,0,.01.53-.18.52-.2-.02-.17-.39-.17-.52h0Zm17.6,50.08c.05,1.92,1.45,3.3,3.65,3.3s4.18-1.86,4.28-4.52c.11-2.66-1.17-5.36-3.35-8.28-2.18-2.93-4.84-7.13-4.75-7.13s-2.57,4.2-4.75,7.13c-2.18,2.93-3.46,5.62-3.35,8.28.11,2.66,2.09,4.52,4.28,4.52,2.19,0,3.6-1.39,3.64-3.3,0,0,0-.53.18-.51.2.02.17.39.17.51h0Zm-17.25-12.25c.05,1.92,1.45,3.3,3.64,3.3s4.18-1.86,4.28-4.52c.11-2.66-1.17-5.36-3.35-8.28-2.18-2.93-4.84-7.13-4.75-7.13s-2.57,4.2-4.75,7.13c-2.18,2.93-3.46,5.62-3.35,8.28.11,2.66,2.09,4.52,4.28,4.52,2.19,0,3.6-1.39,3.65-3.3,0,0-.01-.53.18-.52.2.02.17.39.17.52h0Zm34.51,0c.05,1.92,1.45,3.3,3.64,3.3s4.18-1.86,4.28-4.52c.11-2.66-1.17-5.36-3.35-8.28-2.18-2.93-4.84-7.13-4.75-7.13s-2.57,4.2-4.75,7.13c-2.18,2.93-3.46,5.62-3.35,8.28.11,2.66,2.09,4.52,4.28,4.52,2.19,0,3.6-1.39,3.64-3.3,0,0,0-.53.18-.52.2.02.17.39.17.52h0Zm0,24.5c.05,1.92,1.45,3.3,3.64,3.3s4.18-1.86,4.28-4.52-1.17-5.36-3.35-8.28c-2.18-2.93-4.84-7.13-4.75-7.13s-2.57,4.2-4.75,7.13c-2.18,2.93-3.46,5.62-3.35,8.28.11,2.66,2.09,4.52,4.28,4.52,2.19,0,3.6-1.39,3.64-3.3,0,0,0-.53.18-.52.2.02.17.39.17.52h0Zm-34.51,0c.05,1.92,1.45,3.3,3.64,3.3s4.18-1.86,4.28-4.52-1.17-5.36-3.35-8.28c-2.18-2.93-4.84-7.13-4.75-7.13s-2.57,4.2-4.75,7.13c-2.18,2.93-3.46,5.62-3.35,8.28s2.09,4.52,4.28,4.52c2.19,0,3.6-1.39,3.65-3.3,0,0-.01-.53.18-.52.2.02.17.39.17.52Z" style="fill: #e60012; fill-rule: evenodd; stroke-width: 0px;"/>
    <path d="m47.11,62.82c0-1.61,1.08-2.93,2.39-2.93h64.57c1.32,0,2.39,1.32,2.39,2.93v122.97c0,1.61-1.08,2.93-2.39,2.93H49.5c-1.32,0-2.39-1.32-2.39-2.93V62.82Z" style="fill: none; fill-rule: evenodd; stroke: #231815; stroke-miterlimit: 22.93; stroke-width: 1.5px;"/>
    <path d="m39.02,9.68c-1.8-1.78-4.28-2.89-6.99-2.89s-5.19,1.11-6.99,2.89c-1.8,1.79-2.92,4.25-2.92,6.96v31.73c0,2.71,1.12,5.17,2.92,6.96,1.8,1.78,4.28,2.89,6.99,2.89s5.19-1.11,6.99-2.89c1.8-1.79,2.92-4.25,2.92-6.96v-31.73c0-2.71-1.12-5.17-2.92-6.96Zm-2.69,38.68c0,1.16-.48,2.22-1.25,2.99-.78.77-1.85,1.25-3.05,1.25s-2.27-.48-3.05-1.25c-.77-.77-1.25-1.83-1.25-2.99v-31.73c0-1.16.48-2.22,1.25-2.99.78-.77,1.85-1.25,3.05-1.25s2.27.48,3.05,1.25c.77.77,1.25,1.82,1.25,2.99v31.73Z" style="fill: #e60012; stroke-width: 0px;"/>
    <polygon points="16.93 7.23 11.32 7.23 5.33 12.4 5.33 15.41 11.32 14.19 11.32 53.13 6.02 53.13 6.02 57.91 11.32 57.91 11.32 57.91 16.93 57.91 16.93 57.91 21.7 57.91 21.7 53.13 16.93 53.13 16.93 7.23" style="fill: #e60012; stroke-width: 0px;"/>
    <path d="m26.43,72.31c-.08-3.32-2.52-5.73-6.32-5.73s-7.24,3.22-7.43,7.84c-.18,4.62,2.03,9.29,5.81,14.37,3.79,5.08,8.4,12.37,8.24,12.37s4.45-7.29,8.24-12.37c3.78-5.08,6-9.75,5.81-14.37-.19-4.62-3.63-7.84-7.43-7.84s-6.24,2.41-6.32,5.73c0,0,.01.92-.31.89-.35-.03-.3-.67-.3-.89Z" style="fill: #e60012; fill-rule: evenodd; stroke-width: 0px;"/>
  </g>
</svg>