<?xml version="1.0" encoding="UTF-8"?>
<svg id="_图层_2" data-name="图层 2" xmlns="http://www.w3.org/2000/svg" viewBox="0 0 163.57 248.61">
  <g id="_图层_1-2" data-name="图层 1">
    <path d="m1,6.6c0-3.08,2.51-5.6,5.57-5.6h150.43c3.06,0,5.57,2.52,5.57,5.6v235.41c0,3.08-2.51,5.6-5.57,5.6H6.57c-3.06,0-5.57-2.52-5.57-5.6V6.6Z" style="fill: #fff; fill-rule: evenodd; stroke: #231815; stroke-miterlimit: 22.93; stroke-width: 2px;"/>
    <path d="m58.06,68.66c-.05-2.08-1.59-3.59-3.98-3.59-2.39,0-4.56,2.02-4.68,4.91-.12,2.89,1.28,5.81,3.66,8.99,2.38,3.18,5.29,7.74,5.19,7.74s2.8-4.56,5.19-7.74c2.38-3.18,3.78-6.11,3.66-8.99-.12-2.89-2.28-4.91-4.68-4.91-2.39,0-3.93,1.51-3.98,3.59,0,0,.01.57-.19.56-.22-.02-.19-.42-.19-.56Z" style="fill: #e60012; fill-rule: evenodd; stroke-width: 0px;"/>
    <path d="m105.51,179.95c.05,2.08,1.59,3.59,3.98,3.59,2.39,0,4.56-2.02,4.68-4.91.12-2.89-1.28-5.81-3.66-8.99-2.38-3.18-5.29-7.74-5.19-7.74s-2.8,4.56-5.19,7.74c-2.38,3.18-3.78,6.1-3.66,8.99.12,2.89,2.28,4.91,4.68,4.91,2.39,0,3.93-1.51,3.98-3.59,0,0-.01-.57.19-.56.22.02.18.42.19.56Z" style="fill: #e60012; fill-rule: evenodd; stroke-width: 0px;"/>
    <path d="m111.91,76v-3.76s-4.02-.86-4.83-7.56c0,0-3.59,4.23-3.54,8.99.05,4.76,1.05,7.37,3.45,10.89,0,0,.86-6.23,4.93-8.56Z" style="fill: #112343; fill-rule: evenodd; stroke-width: 0px;"/>
    <path d="m51.67,172.61v3.76s4.02.86,4.83,7.56c0,0,3.59-4.23,3.54-8.99-.05-4.76-1.05-7.37-3.45-10.89,0,0-.86,6.23-4.93,8.56Z" style="fill: #112343; fill-rule: evenodd; stroke-width: 0px;"/>
    <path d="m111.3,94.97v.17s-5.88-4.44-5.88-4.44c.72-.93,1.08-1.98.97-3.8-.12-1.82-1.44-2.66-2.83-2.74-1.39-.07-2.05,1.05-2.05,1.05-1.13.13-1.83-1.66-2.71-5.15-.88-3.49-1.46-9.76-1.46-9.76l6.84-10.39h-38.22s5.46,8.96,5.46,8.96l1.04,3.35s-2.12,4.93-2.74,7.01c0,0,.63,1.15,2.81,2.24,0,0-.34,1.53-.28,2.15.06.62.4.74.4.74,0,0,.04.54.06.72.02.18.9.68.98,1.18.08.5.02,1.14.02,1.14,0,0-.76-.62-1.92-.49-1.16.14-2.06.86-2.45,1.87-.4,1.02-.1,2.03.12,2.24,0,0-7.22,4.29-12.7,9.31,0,0-.76-4.84-4.06-4.51,0,0-.38-.06,0-.34.38-.28,1.25-1.08,2.96-1.16,1.71-.08,2.39.22,3.48.04,1.1-.18,2.11-1.16,2.79-2.27.68-1.12,1.04-3.19.96-3.52l-.38-.27s-.82,1.13-1.63,1.41c-.81.28-1.12.3-3.76.3s-5.26.82-6.02,4.02c0,0-.66-.27-1.42.05-.76.32-1.06.83-.96,1.72,0,0-1.97.28-.87,2.57,0,0-1.34,1.68-.42,2.75,0,0-.54,1.56.64,2.62,0,0-.53,1.99-.58,2.86l1.55.53.1-1.24,1.01.79s-1.99,2.01-3.05,3.39v73.75s5.17-3.84,5.17-3.84v-26.35s0-.17,0-.17l5.88,4.44c-.72.93-1.08,1.98-.97,3.8.12,1.82,1.44,2.66,2.83,2.74,1.39.07,2.05-1.05,2.05-1.05,1.13-.13,1.83,1.66,2.71,5.15.88,3.49,1.46,9.76,1.46,9.76l-6.84,10.39h38.22s-5.46-8.96-5.46-8.96l-1.04-3.36s2.12-4.93,2.74-7.01c0,0-.63-1.15-2.81-2.24,0,0,.34-1.53.28-2.15-.06-.62-.4-.74-.4-.74,0,0-.04-.54-.06-.72-.02-.18-.9-.68-.98-1.18-.08-.5-.02-1.14-.02-1.14,0,0,.76.62,1.92.49,1.16-.14,2.06-.86,2.45-1.87.4-1.02.1-2.03-.12-2.24,0,0,7.22-4.29,12.7-9.31,0,0,.77,4.84,4.05,4.51,0,0,.38.06,0,.34-.38.28-1.25,1.08-2.96,1.16-1.71.08-2.39-.22-3.48-.04-1.1.18-2.11,1.16-2.79,2.27-.68,1.12-1.04,3.19-.96,3.52l.38.27s.82-1.13,1.63-1.41c.81-.28,1.13-.3,3.76-.3s5.26-.82,6.02-4.02c0,0,.66.27,1.42-.05.76-.32,1.06-.83.96-1.72,0,0,1.97-.28.87-2.57,0,0,1.34-1.68.42-2.75,0,0,.54-1.56-.64-2.62,0,0,.53-1.99.58-2.86l-1.55-.52-.1,1.24-1.01-.8s1.99-2.01,3.05-3.4v-73.75s-5.17,3.84-5.17,3.84v26.35Z" style="fill: #112343; fill-rule: evenodd; stroke-width: 0px;"/>
    <path d="m108.86,104c.34.58.71,1.23,1.09,1.95l6.51,4.51v-1.09s-7.61-5.37-7.61-5.37h0Zm1.56,2.86l6.05,4.27v.91s-5.25-3.46-5.25-3.46c-.26-.61-.53-1.18-.8-1.72h0Zm1.15,2.58l4.9,3.32v1.12s-4.31-2.87-4.31-2.87c-.19-.54-.39-1.07-.59-1.57h0Zm.87,2.42c.15.47.29.96.43,1.46l3.6,2.39v-1.12s-4.03-2.73-4.03-2.73h0Zm.63,2.22l3.4,2.3v1.12s-3.09-2.06-3.09-2.06c-.09-.47-.2-.92-.31-1.37h0Zm.46,2.15c.06.31.11.63.16.95l1.86,1.21c.21-.14.42-.29.63-.43l-2.65-1.73h0Zm.26,1.69l1.33.77c-.4.29-.79.57-1.17.86-.04-.56-.1-1.1-.16-1.63Z" style="fill: #fff; fill-rule: evenodd; stroke-width: 0px;"/>
    <path d="m54.72,144.61c-.34-.57-.71-1.23-1.09-1.95l-6.51-4.51v1.09s7.61,5.37,7.61,5.37h0Zm-1.56-2.86l-6.05-4.27v-.91s5.25,3.46,5.25,3.46c.26.61.53,1.18.8,1.72h0Zm-1.15-2.58l-4.9-3.32v-1.12s4.31,2.87,4.31,2.87c.19.54.39,1.07.59,1.57h0Zm-.87-2.42c-.15-.47-.29-.96-.43-1.46l-3.6-2.39v1.12s4.03,2.73,4.03,2.73h0Zm-.63-2.22l-3.4-2.3v-1.12s3.09,2.06,3.09,2.06c.09.47.2.92.31,1.37h0Zm-.46-2.15c-.06-.31-.11-.63-.16-.95l-1.86-1.21c-.21.14-.42.29-.63.43l2.65,1.73h0Zm-.26-1.69l-1.33-.77c.4-.29.79-.57,1.17-.86.04.56.1,1.1.16,1.64Z" style="fill: #fff; fill-rule: evenodd; stroke-width: 0px;"/>
    <path d="m81.39,119.3h0s.79,13.85.79,13.85c1.76,14.26,9.87,24.77,9.87,24.77,7.22-4.24,10.96-7.06,15.61-11.1,3.91-3.4,7.69-7.77,8.8-9.08v-19.97c-15.64,10.2-16.84,25.85-16.84,25.85l-2.49-5.77c4.72-5.57,7.6-10.65,7.73-19.41.13-8.76-5.02-15.13-5.02-15.13l6.95-11.15-1.44-1.36c-1.45,1.42-4.09.88-5.18.4-.24-.1-.46-.23-.68-.38-.04-.03-.09-.06-.13-.09l-17.99,28.56Z" style="fill: #112343; fill-rule: evenodd; stroke-width: 0px;"/>
    <path d="m82.19,129.31h0s-.79-13.85-.79-13.85c-1.75-14.26-9.87-24.77-9.87-24.77-7.22,4.24-10.96,7.06-15.62,11.1-3.91,3.4-7.69,7.77-8.8,9.08v19.97c15.64-10.2,16.84-25.85,16.84-25.85l2.49,5.77c-4.72,5.57-7.6,10.65-7.73,19.41-.13,8.76,5.02,15.13,5.02,15.13l-6.95,11.15,1.44,1.36c1.45-1.42,4.09-.88,5.18-.4.24.1.46.23.68.38.04.03.09.06.13.09l17.99-28.57Z" style="fill: #112343; fill-rule: evenodd; stroke-width: 0px;"/>
    <path d="m102.65,98.82c.9,1.01,3.46,4.06,5.22,7.88,2.02,4.37,3.41,8.62,4.32,14.27-11.6,9.97-12.57,22.65-12.57,22.65l-2.49-5.77c4.72-5.57,7.6-10.65,7.73-19.41.13-8.76-5.02-15.13-5.02-15.13l2.8-4.49Z" style="fill: #e60012; fill-rule: evenodd; stroke-width: 0px;"/>
    <path d="m60.93,149.79c-.9-1.01-3.46-4.06-5.22-7.88-2.01-4.37-3.41-8.62-4.32-14.27,11.6-9.97,12.57-22.65,12.57-22.65l2.49,5.77c-4.72,5.57-7.6,10.65-7.73,19.41-.13,8.76,5.02,15.13,5.02,15.13l-2.8,4.49Z" style="fill: #e60012; fill-rule: evenodd; stroke-width: 0px;"/>
    <path d="m67.15,59.9l4.96,8.08s13.02-3.18,24.64,1.37l6.23-9.44h-35.82Z" style="fill: #e60012; fill-rule: evenodd; stroke-width: 0px;"/>
    <path d="m96.43,188.72l-4.96-8.08s-13.02,3.18-24.64-1.37l-6.23,9.44h35.83Z" style="fill: #e60012; fill-rule: evenodd; stroke-width: 0px;"/>
    <path d="m68.55,59.9l3.39,6.23s3.99-.86,5.92-1l-1.75-5.22h-1.75s1.25,3.7,1.25,3.7l-2.51.49-2.04-4.2h-2.49Zm9.95,0h2.01s.93,3.51.93,3.51l4.67.24.74-3.75h1.97s-1.41,5.55-1.41,5.55l-7.45-.43-1.48-5.12h0Zm12.64,0h1.8s-1.08,4.52-1.08,4.52l3.74,1.04,2.8-5.56h2.29s-4.56,7.54-4.56,7.54l-6.22-1.9,1.23-5.64Z" style="fill: #fff; fill-rule: evenodd; stroke-width: 0px;"/>
    <path d="m95.03,188.72l-3.39-6.23s-3.98.86-5.92,1l1.75,5.22h1.75s-1.25-3.7-1.25-3.7l2.51-.49,2.04,4.2h2.49Zm-9.95,0h-2.01s-.93-3.51-.93-3.51l-4.67-.24-.74,3.75h-1.97s1.41-5.55,1.41-5.55l7.45.43,1.48,5.12h0Zm-12.64,0h-1.8s1.08-4.52,1.08-4.52l-3.74-1.04-2.8,5.56h-2.29s4.56-7.54,4.56-7.54l6.22,1.9-1.23,5.64Z" style="fill: #fff; fill-rule: evenodd; stroke-width: 0px;"/>
    <path d="m72.24,69.96l.7,2.49s-1.83,3.91-2.69,6.81c0,0,.47.83,2.87,2.06l-.44,1.6s1.68.79,2.1.87c.42.09.83-.55.83-.55,0,0,.28,1.37,1.06,2.03,0,0-1.08-.77-1.67-.88-.58-.11-1.18-.16-1.63.71,0,0,.74.78.76.96.01.17.03,1.09.07,1.63.04.53.24.94,1.19,1.07.95.13,3.54-.37,5.38-1.57,1.84-1.2,3.42-2.78,4.91-5.98,0,0-1.27.01-1.65-.79-.39-.81-.21-1.89.42-2.21,0,0,0,.12-.19.64-.19.53-.13,1.43.57,1.48.7.05,1.51-.27,1.79-1.57.28-1.3.35-2.51.07-4.98-.23-1.97-.93-4.02-1.49-5.02-6.71-.36-11.81.9-12.97,1.22h0Zm1.76,12.37h-.14s.48-.97,1.1-.92c.62.05,1.38.4,2.1.82.71.42,1.22.48,1.77.19.55-.29.67-1.23.19-1.56-.48-.33-.77-.22-1.03-.37-.26-.15-.16-.32.27-.4.44-.08.96.07,1.32.79.36.73.16,1.85-.36,2.26-.52.41-1.12.44-1.84.23-.71-.21-1.48-.86-2.11-1.03-.63-.16-1.27-.03-1.27-.03h0Zm-1.32-2.62l-.19-.17s-.18.04-.44.18c-.26.14-.35.02-.37-.22-.02-.24.27-.59.72-.84.45-.25.46-.15.81.3.35.44.74.88,1.21.88s.8-.52.78-.93c-.02-.42-.42-.5-.58-.6-.16-.1.08-.28.48.05.4.33.53.66.54,1.37,0,.71-.74.88-1.19.86-.45-.02-1.2-.22-1.78-.87h0Zm1.87-9.28c.83.07,1.64.16,2.46.33,1.24.25,2.85,1.05,4.54,3.7,0,0-2.64-2.61-3.83-2.74-1.19-.13-2.76.02-3.38-.08-.62-.11-.98-.5-1.01-.85-.04-.35.14-.64.41-.62.26.02.25.23.81.26h0Zm-.58,2.4s.73.04,1.04-.09c.31-.13.88-.44,1.74-.4.86.04,1.46.25,2.58,1.04,1.12.79,1.56,1.41,1.56,1.53,0,.12-1.16-.81-2.03-1.42-.86-.61-3.19-1.01-3.83-.24,0,0,.88-.09,2.06.16,1.18.25,2.4,1.01,3.11,1.61.71.61.43.95.06.99-.37.05-1.03-.22-1.28-.47,0,0-.95.99-2.77.86,0,0,.49,1.1,1.97,1.18,0,0-1.82.35-3.02-1.51h-1.06s.4-.39.55-.96c.2-.75-.21-1.73-.69-2.29h0Zm2.55,1.68c.29.16-.02.85-.29.92-.23.06-.28-.12-.21-.23.07-.11.22-.31.28-.52.06-.21.21-.16.21-.16h0Zm.41,1.21c-.16-.1-.18-.24-.13-.45.05-.2.26-.44.6-.47.33-.03,1.01-.07.89.28-.12.35-.64.72-1.36.64Z" style="fill: #fff; fill-rule: evenodd; stroke-width: 0px;"/>
    <path d="m91.33,178.66l-.7-2.49s1.83-3.91,2.69-6.81c0,0-.47-.83-2.87-2.07l.44-1.6s-1.68-.79-2.1-.87c-.42-.09-.83.55-.83.55,0,0-.28-1.37-1.06-2.03,0,0,1.08.77,1.67.88.58.11,1.18.16,1.63-.71,0,0-.74-.78-.76-.96s-.03-1.09-.07-1.63c-.04-.53-.24-.94-1.19-1.07-.95-.13-3.54.37-5.38,1.57-1.84,1.2-3.42,2.78-4.91,5.98,0,0,1.27-.01,1.65.79.39.81.21,1.89-.42,2.21,0,0,0-.12.19-.64.19-.53.13-1.43-.57-1.48-.69-.05-1.51.27-1.79,1.57-.28,1.3-.35,2.51-.07,4.98.23,1.97.93,4.02,1.49,5.02,6.71.36,11.81-.9,12.97-1.22h0Zm-1.76-12.36h.14s-.48.97-1.1.92c-.62-.05-1.38-.4-2.1-.82-.71-.42-1.22-.48-1.77-.19-.55.29-.67,1.23-.19,1.56.48.33.77.22,1.03.37.26.15.16.32-.27.4-.44.08-.96-.07-1.32-.79-.36-.73-.17-1.85.36-2.26.52-.41,1.12-.44,1.84-.23.71.21,1.48.86,2.11,1.03.63.16,1.27.03,1.27.03h0Zm1.32,2.62l.19.17s.18-.04.44-.18c.26-.14.35-.02.37.22.02.24-.27.59-.72.84-.45.25-.46.15-.81-.3-.35-.44-.74-.88-1.21-.88s-.8.52-.78.93c.02.42.42.5.58.6.16.1-.08.28-.48-.05s-.53-.66-.54-1.37c0-.71.74-.88,1.19-.86.45.02,1.2.22,1.78.87h0Zm-1.87,9.28c-.83-.07-1.64-.16-2.46-.33-1.24-.25-2.85-1.05-4.53-3.7,0,0,2.64,2.61,3.83,2.74,1.19.13,2.76-.02,3.38.08.62.11.98.5,1.01.85.04.35-.14.64-.41.62-.26-.02-.25-.23-.81-.26h0Zm.58-2.4s-.73-.04-1.04.09c-.31.13-.88.44-1.74.4-.86-.04-1.46-.25-2.58-1.04-1.12-.79-1.56-1.41-1.56-1.53s1.16.81,2.02,1.42c.86.61,3.19,1.01,3.83.24,0,0-.88.09-2.06-.16-1.18-.25-2.4-1.01-3.11-1.61-.71-.61-.43-.95-.06-.99.37-.05,1.03.22,1.28.47,0,0,.95-.99,2.77-.86,0,0-.49-1.1-1.97-1.18,0,0,1.82-.35,3.02,1.51h1.06s-.4.39-.55.96c-.2.75.21,1.73.69,2.29h0Zm-2.55-1.68c-.29-.16.02-.85.28-.92.23-.06.28.12.21.23-.07.11-.22.31-.28.52s-.21.16-.21.16h0Zm-.41-1.21c.16.1.18.24.13.45-.05.2-.26.44-.6.47-.33.03-1.01.07-.89-.28.12-.35.64-.72,1.36-.64Z" style="fill: #fff; fill-rule: evenodd; stroke-width: 0px;"/>
    <path d="m92.15,69.69c.27,1.14.64,2.8.83,3.95.19,1.12.34,2.58.49,4.03.1,1.02.21,2.03.33,2.91.14,1.06.34,2.3.73,3.52.37,1.16.9,2.3,1.7,3.25h.55c-1.28-1.95-1.81-3.8-2.16-6.04-.38-2.42-.38-3.62-.75-6.46-.22-1.64-.64-3.61-.95-4.97-.26-.06-.52-.12-.77-.18h0Zm-1.11-.23c.23.04.47.09.7.14.27,1.14.66,2.9.87,4.09.19,1.11.34,2.56.49,4,.1,1.01.21,2.03.33,2.92.14,1.08.35,2.34.74,3.58.35,1.11.85,2.2,1.58,3.14h-.75c-1.15-1.58-1.43-2.99-1.75-4.57-.05-.25-.1-.51-.16-.79h0c-.42-1.95-.64-3.86-.86-5.74-.15-1.31-.31-2.62-.53-3.93-.18-1.09-.45-2.12-.66-2.84h0Zm-1.14-.2c.24.04.48.08.73.13.22.72.52,1.81.71,2.98.22,1.3.37,2.6.52,3.91.22,1.9.45,3.81.87,5.78h0c.06.26.11.53.16.79.31,1.55.59,2.94,1.66,4.5h-.86c-.79-1.52-1.32-3.38-1.7-5.28-.39-1.95-.61-3.95-.79-5.69-.27-2.57-.95-5.64-1.29-7.1h0Zm-1.08-.16c.23.03.46.06.69.1.33,1.39,1.05,4.56,1.32,7.21.18,1.75.41,3.77.8,5.73.37,1.86.88,3.69,1.65,5.21h-.42c-1.67-2.85-2.08-6.21-2.51-9.78-.24-2-.49-4.06-.97-6.14-.15-.66-.39-1.65-.55-2.32h0Zm-1.15-.14c.25.03.5.06.75.09.16.66.42,1.73.59,2.46.48,2.06.73,4.11.97,6.1.43,3.53.83,6.87,2.45,9.74h-.57c-1.81-2.71-2.17-6.4-2.52-9.87-.14-1.36-.27-2.68-.48-3.9-.28-1.6-.87-3.61-1.19-4.62h0Zm-.91-.09c.21.67.59,2.01.96,4,.26,1.41.41,2.82.57,4.25.38,3.41.76,6.88,2.52,10.23h.62c-1.74-2.76-2.11-6.41-2.45-9.83-.13-1.35-.27-2.66-.48-3.87-.29-1.66-.93-3.78-1.22-4.72-.17-.02-.34-.03-.51-.05h0Zm-1.19-.09c.17.33.55,1.18,1.02,2.94.3,1.11.8,3.39.48,6.04.18,1.06,1.31,7.67,2.52,9.59h.79c-1.71-3.36-2.09-6.8-2.47-10.19-.16-1.43-.31-2.84-.57-4.22-.39-2.13-.8-3.51-.99-4.1-.26-.02-.53-.04-.79-.06h0Zm1.32,10.1c-.1.47-.22.95-.38,1.44.21,1.07.91,4.52,1.87,7.03h.78c-.98-1.81-1.88-6.3-2.27-8.47h0Zm-.62,2.11c-.11.29-.24.59-.38.89.14.89.55,3.22,1.44,5.47h.66c-.8-2.16-1.42-4.93-1.72-6.36h0Zm-.67,1.44c.19,1.09.6,3.02,1.33,4.92h-.6s-1.23-4.07-1.23-4.07c.18-.28.35-.57.51-.85h0Zm-.77,1.25l1.11,3.67h-.54s-.95-3.15-.95-3.15c.13-.17.26-.35.38-.52h0Zm-.67.87c-.21.25-.44.5-.67.75l.64,2.05h.88s-.85-2.8-.85-2.8h0Zm-.97,1.05l.54,1.75h-.63s-.4-1.3-.4-1.3c.17-.15.33-.3.49-.46h0Zm-.79.72c-.11.09-.22.19-.34.28l.23.75h.43s-.32-1.03-.32-1.03h0Zm-.65.53c-.22.17-.45.34-.69.5h.85s-.16-.5-.16-.5h0Zm14.4-16.03c.25.09.5.17.75.26.16,1.37.74,5.93,1.63,9.83,1.06,4.65,2.62,4.77,2.62,4.77l-.35.97c-2.35-1.7-2.91-5.88-3.33-7.91-.38-1.81-1.16-6.88-1.32-7.92h0Zm-1.73-.54c.2.06.4.12.6.18.34,1.27.67,3.87,1.16,8.1.4,4.82,1.37,6.37,2.4,8.07,1.03,1.7,2.72,2.7,3.9,2.79,1.18.09,1.82-.79,1.78-1.55-.04-.77-.45-1.13-.92-1.13s-.92.26-.92.26c.32-.96.69-1.17,1.01-1.13.32.04,1.28.04,1.41,1.51.13,1.47-.36,2.58-1.58,2.85-1.22.28-3.75-.77-5.14-2.92-1.39-2.15-1.93-4.27-2.25-6.42-.31-2.15-.46-3.84-.69-5.95-.18-1.67-.59-3.83-.75-4.66h0Zm.88.26c.21.07.42.13.63.2.11.78.3,2.16.64,4.39.6,3.9.82,5.39,1.63,7.94.8,2.55,1.76,3.3,2.38,3.85.62.55,1.24.87,1.54.8.3-.07.41-.46.81-.58.41-.12.7.03.87.37.17.34.2,1.37-1.07,1.52-1.27.15-2.47-.98-2.47-.98-2.19-2.09-3.15-4.94-3.4-6.73-.25-1.78-.47-4.08-.78-6.24-.25-1.76-.65-3.84-.79-4.54h0Zm-2.06-.58c.25.06.49.13.74.19.81,2.33,1.15,7.53,1.45,10.48.32,3.11,1.13,5.17,2.56,7.06,1.43,1.88,3.08,2.81,4.28,2.88,1.2.07,1.83-.29,2.32-.87.49-.58.83-1.74.54-2.72-.29-.98-.85-1.5-1.71-1.54-.85-.04-1.22.78-1.32,1.34-.11.56-.31.51-.31.51-.53-.04-.65-.94-.04-1.87.62-.92,2.03-1.22,3.27-.36,1.23.85,1.45,3.08.38,5-1.07,1.92-4.41,1.72-6.42-.14-2.01-1.87-3.1-4.94-3.1-4.94-.91-2.15-1.19-5.08-1.54-9.08-.3-3.41-.93-5.43-1.11-5.94Z" style="fill: #ffe100; fill-rule: evenodd; stroke-width: 0px;"/>
    <path d="m71.43,178.93c-.27-1.14-.64-2.8-.83-3.94-.19-1.12-.34-2.58-.49-4.03-.1-1.02-.21-2.03-.33-2.91-.14-1.06-.34-2.3-.73-3.52-.37-1.16-.9-2.3-1.7-3.25h-.55c1.28,1.95,1.81,3.8,2.16,6.04.38,2.42.38,3.62.75,6.45.22,1.64.64,3.61.95,4.97.26.06.52.12.77.18h0Zm1.11.23c-.23-.04-.47-.09-.7-.14-.27-1.14-.66-2.9-.87-4.09-.19-1.11-.34-2.56-.49-4-.1-1.02-.21-2.03-.33-2.92-.14-1.08-.35-2.34-.74-3.58-.35-1.11-.85-2.2-1.58-3.14h.75c1.15,1.58,1.43,2.99,1.75,4.57.05.25.1.51.16.79h0c.42,1.95.64,3.86.86,5.74.16,1.31.31,2.62.53,3.93.18,1.09.45,2.12.66,2.84h0Zm1.14.2c-.24-.04-.48-.08-.73-.13-.22-.72-.51-1.81-.71-2.98-.21-1.3-.37-2.6-.52-3.91-.22-1.9-.45-3.81-.87-5.78h0c-.05-.26-.11-.53-.16-.79-.31-1.55-.59-2.94-1.66-4.5h.86c.79,1.52,1.32,3.38,1.7,5.28.39,1.95.61,3.95.79,5.69.27,2.57.95,5.64,1.29,7.1h0Zm1.08.16c-.23-.03-.46-.06-.69-.1-.33-1.39-1.05-4.56-1.32-7.21-.18-1.75-.41-3.77-.8-5.73-.37-1.86-.88-3.69-1.64-5.21h.42c1.67,2.85,2.08,6.21,2.51,9.78.24,2,.49,4.06.97,6.14.15.66.39,1.65.55,2.32h0Zm1.15.14c-.25-.03-.5-.06-.75-.09-.16-.66-.42-1.73-.59-2.46-.48-2.06-.73-4.11-.97-6.1-.43-3.53-.83-6.87-2.45-9.74h.57c1.81,2.71,2.18,6.4,2.52,9.87.13,1.36.27,2.68.48,3.9.28,1.6.87,3.61,1.19,4.62h0Zm.91.09c-.21-.67-.59-2.01-.96-4-.26-1.41-.41-2.82-.57-4.25-.38-3.41-.76-6.88-2.52-10.23h-.62c1.74,2.76,2.11,6.41,2.45,9.83.13,1.35.27,2.66.48,3.87.29,1.66.93,3.78,1.22,4.72.17.02.34.03.51.05h0Zm1.19.09c-.17-.33-.55-1.18-1.02-2.94-.3-1.11-.8-3.39-.48-6.04-.17-1.06-1.31-7.67-2.52-9.59h-.79c1.71,3.36,2.09,6.8,2.47,10.19.16,1.43.32,2.84.57,4.22.39,2.13.8,3.51.99,4.1.26.02.53.04.79.06h0Zm-1.32-10.1c.1-.47.22-.95.38-1.44-.21-1.07-.91-4.52-1.87-7.03h-.78c.98,1.81,1.88,6.3,2.27,8.47h0Zm.62-2.11c.11-.29.24-.59.38-.89-.14-.89-.55-3.22-1.44-5.47h-.66c.8,2.16,1.42,4.93,1.72,6.36h0Zm.67-1.44c-.19-1.09-.6-3.02-1.33-4.92h.6s1.23,4.07,1.23,4.07c-.18.28-.35.57-.51.85h0Zm.78-1.25l-1.11-3.67h.54s.95,3.15.95,3.15c-.13.17-.26.34-.38.52h0Zm.67-.87c.21-.25.44-.5.67-.75l-.64-2.05h-.88s.85,2.8.85,2.8h0Zm.97-1.05l-.54-1.75h.63s.4,1.3.4,1.3c-.17.15-.33.3-.49.46h0Zm.79-.72c.11-.09.22-.19.34-.28l-.23-.75h-.43s.32,1.03.32,1.03h0Zm.65-.53c.22-.17.45-.34.69-.5h-.85s.16.5.16.5h0Zm-14.4,16.03c-.25-.09-.5-.17-.75-.26-.16-1.37-.74-5.93-1.63-9.83-1.06-4.65-2.62-4.77-2.62-4.77l.35-.97c2.35,1.7,2.91,5.88,3.33,7.91.38,1.82,1.16,6.88,1.32,7.92h0Zm1.74.54c-.2-.06-.4-.12-.6-.18-.34-1.27-.67-3.87-1.16-8.1-.4-4.82-1.37-6.37-2.4-8.07-1.03-1.7-2.72-2.7-3.9-2.79-1.18-.09-1.82.79-1.78,1.55.04.77.45,1.13.92,1.13s.92-.26.92-.26c-.32.96-.69,1.17-1.01,1.13-.32-.04-1.28-.04-1.41-1.51-.13-1.47.36-2.58,1.58-2.85,1.22-.28,3.75.77,5.14,2.92,1.39,2.15,1.93,4.27,2.24,6.42.31,2.15.46,3.84.69,5.95.18,1.67.59,3.83.75,4.66h0Zm-.89-.26c-.21-.07-.42-.13-.63-.2-.11-.78-.3-2.16-.64-4.39-.6-3.9-.82-5.39-1.63-7.94-.8-2.55-1.76-3.3-2.38-3.85-.62-.54-1.24-.87-1.54-.8-.3.07-.41.46-.81.58-.41.12-.7-.03-.87-.37-.18-.34-.2-1.37,1.07-1.52,1.27-.15,2.47.98,2.47.98,2.19,2.09,3.15,4.95,3.4,6.73.25,1.78.47,4.08.78,6.24.26,1.76.65,3.84.79,4.54h0Zm2.06.58c-.24-.06-.49-.12-.74-.19-.81-2.33-1.15-7.53-1.45-10.48-.32-3.11-1.13-5.17-2.56-7.06-1.43-1.88-3.08-2.81-4.28-2.88-1.2-.07-1.83.29-2.32.87-.49.58-.83,1.74-.54,2.72.29.98.85,1.5,1.71,1.54.85.04,1.22-.78,1.32-1.34.11-.56.31-.51.31-.51.53.04.65.94.04,1.87s-2.03,1.22-3.27.36c-1.23-.85-1.45-3.08-.38-5,1.07-1.92,4.41-1.72,6.42.14,2.01,1.87,3.1,4.94,3.1,4.94.91,2.15,1.19,5.08,1.54,9.08.3,3.41.93,5.43,1.11,5.94Z" style="fill: #ffe100; fill-rule: evenodd; stroke-width: 0px;"/>
    <path d="m70.62,90.44l-.71.41s-.28-.43-.26-1.33c.02-.91.88-1.89,1.86-2.02.99-.13,2.4.02,2.7,1.15,0,0-.33.26-.71.28-.37.02-.58-.22-.8-.44-.22-.22-.28.28-.28.52s-.04.44-.04.44c0,0-.78-.55-1.15-.46-.37.09.26.87.26.87l-1.28-.02.41.61Z" style="fill: #fff; fill-rule: evenodd; stroke-width: 0px;"/>
    <path d="m92.95,158.18l.71-.41s.28.43.26,1.33c-.02.91-.87,1.89-1.86,2.02-.99.13-2.4-.02-2.7-1.15,0,0,.33-.26.71-.28.37-.02.58.22.8.44s.28-.28.28-.52c0-.24.04-.44.04-.44,0,0,.78.55,1.16.46.37-.09-.26-.87-.26-.87l1.28.02-.41-.61Z" style="fill: #fff; fill-rule: evenodd; stroke-width: 0px;"/>
    <path d="m74.5,94.64l-.61-.97h21.75s-.64.97-.64.97h-20.5Zm-.41-5.37l.56-.28s2.75.3,4.74-.7h17.91c.16.28.38.62.64.97h-23.85Z" style="fill: #e60012; fill-rule: evenodd; stroke-width: 0px;"/>
    <path d="m89.08,153.98l.61.97h-21.75s.64-.97.64-.97h20.5Zm.41,5.37l-.56.28s-2.75-.31-4.74.7h-17.91c-.16-.28-.38-.62-.64-.97h23.84Z" style="fill: #e60012; fill-rule: evenodd; stroke-width: 0px;"/>
    <path d="m73.89,93.67l-2.07-3.26,2.27-1.14h23.85c.1.14.21.28.33.41l-2.63,3.99h-21.75Zm5.49-5.37c.34-.17.66-.38.94-.64h16.63s.12.26.34.64h-17.91Z" style="fill: #112343; fill-rule: evenodd; stroke-width: 0px;"/>
    <path d="m89.69,154.94l2.07,3.26-2.27,1.14h-23.84c-.1-.14-.21-.28-.33-.41l2.63-3.99h21.75Zm-5.49,5.37c-.34.17-.66.38-.94.64h-16.63s-.12-.26-.34-.64h17.91Z" style="fill: #112343; fill-rule: evenodd; stroke-width: 0px;"/>
    <path d="m92,89.69h2.99v3.3h-2.99v-3.3h0Zm-18.55,3.3l-.48-.76c.17.11.38.18.6.18.59,0,1.08-.48,1.08-1.07s-.49-1.07-1.08-1.07-1.08.48-1.08,1.07c0,.05,0,.1.01.15l-.43-.67v-.55s1.17-.58,1.17-.58h1.82v3.3h-1.61Zm24.09-2.21l-.98,1.49c-.34-.13-.58-.46-.58-.85,0-.5.41-.91.92-.91.25,0,.48.1.65.27h0Zm-4.04-.52c-.59,0-1.08.48-1.08,1.07s.48,1.07,1.08,1.07,1.08-.48,1.08-1.07-.48-1.07-1.08-1.07h0Zm0,.28c-.44,0-.8.36-.8.8s.36.79.8.79.8-.36.8-.79-.36-.8-.8-.8h0Zm-19.93,0c-.44,0-.8.36-.8.8s.36.79.8.79.8-.36.8-.79-.36-.8-.8-.8h0Zm3.39-.03c.51,0,.92.41.92.91s-.41.91-.92.91-.92-.41-.92-.91.41-.91.92-.91h0Zm1.75-.82h2.99v3.3h-2.99v-3.3h0Zm1.5.58c-.59,0-1.08.48-1.08,1.07s.48,1.07,1.08,1.07,1.08-.48,1.08-1.07-.48-1.07-1.08-1.07h0Zm0,.28c-.44,0-.8.36-.8.8s.36.79.8.79.8-.36.8-.79-.36-.8-.8-.8h0Zm3.39-.03c.51,0,.92.41.92.91s-.41.91-.92.91-.92-.41-.92-.91.41-.91.92-.91h0Zm1.75-.82h2.99v3.3h-2.99v-3.3h0Zm1.5.58c-.59,0-1.08.48-1.08,1.07s.49,1.07,1.08,1.07,1.08-.48,1.08-1.07-.48-1.07-1.08-1.07h0Zm0,.28c-.44,0-.8.36-.8.8s.36.79.8.79.8-.36.8-.79-.36-.8-.8-.8h0Zm3.39-.03c.51,0,.92.41.92.91s-.41.91-.92.91-.92-.41-.92-.91.41-.91.92-.91Z" style="fill: #ffe100; fill-rule: evenodd; stroke-width: 0px;"/>
    <path d="m71.57,158.92h-2.99v-3.3h2.99v3.3h0Zm18.55-3.3l.48.76c-.17-.11-.38-.18-.6-.18-.59,0-1.08.48-1.08,1.07s.49,1.07,1.08,1.07,1.08-.48,1.08-1.07c0-.05,0-.1-.01-.16l.43.67v.55s-1.17.58-1.17.58h-1.82v-3.3h1.61Zm-24.08,2.21l.99-1.49c.34.13.58.46.58.85,0,.5-.41.91-.92.91-.25,0-.48-.1-.65-.27h0Zm4.04.52c.59,0,1.08-.48,1.08-1.07s-.49-1.07-1.08-1.07-1.08.48-1.08,1.07.49,1.07,1.08,1.07h0Zm0-.28c.44,0,.8-.36.8-.79s-.36-.8-.8-.8-.8.36-.8.8.36.79.8.79h0Zm19.93,0c.44,0,.8-.36.8-.79s-.36-.8-.8-.8-.8.36-.8.8.36.79.8.79h0Zm-3.39.03c-.5,0-.92-.41-.92-.91s.41-.91.92-.91.92.41.92.91-.41.91-.92.91h0Zm-1.75.82h-2.99v-3.3h2.99v3.3h0Zm-1.49-.58c.59,0,1.08-.48,1.08-1.07s-.48-1.07-1.08-1.07-1.08.48-1.08,1.07.48,1.07,1.08,1.07h0Zm0-.28c.44,0,.8-.36.8-.79s-.36-.8-.8-.8-.8.36-.8.8.36.79.8.79h0Zm-3.39.03c-.51,0-.92-.41-.92-.91s.41-.91.92-.91.92.41.92.91-.41.91-.92.91h0Zm-1.75.82h-2.99v-3.3h2.99v3.3h0Zm-1.5-.58c.59,0,1.08-.48,1.08-1.07s-.48-1.07-1.08-1.07-1.08.48-1.08,1.07.48,1.07,1.08,1.07h0Zm0-.28c.44,0,.8-.36.8-.79s-.36-.8-.8-.8-.8.36-.8.8.36.79.8.79h0Zm-3.39.03c-.51,0-.92-.41-.92-.91s.41-.91.92-.91.92.41.92.91-.41.91-.92.91Z" style="fill: #ffe100; fill-rule: evenodd; stroke-width: 0px;"/>
    <path d="m81.29,117.67l.09,1.63,17.99-28.56c-.28-.2-.53-.42-.76-.66l-17.32,27.6Z" style="fill: #e60012; fill-rule: evenodd; stroke-width: 0px;"/>
    <path d="m82.28,130.94l-.09-1.63-17.99,28.57c.27.2.53.42.76.66l17.32-27.6Z" style="fill: #e60012; fill-rule: evenodd; stroke-width: 0px;"/>
    <path d="m90.02,108.42c.51,0,.92.45.92,1s-.41,1-.92,1-.92-.45-.92-1,.41-1,.92-1h0Zm13.92-16.85c-.37.1-.76.14-1.15.14-.01.55-.05,1.44-.11,1.81-.1.54-.13,1.28-1.21,1.85-1.09.57-2.6.83-2.6.83-1.41.42-1.98,1.45-2.03,2.91-.05,1.46.17,1.64-.02,3.12-.19,1.48-1.92,1.41-3.22,1.86-1.29.45-1.73,1.58-1.76,2.71-.03,1.13,0,1.99-.07,3.1-.08,1.12-.88,1.56-1.37,1.6-.49.05-1.24-.03-2.44.86-1.2.9-1.52,2.57-1.52,2.57l.97.35s.27-.43,1.34-1.47c1.06-1.04,2.07-1.08,3.24-1.88,1.17-.8,1.02-2.65,1.05-4.01.03-1.36.05-1.79.68-2.52.63-.73,1.57-.5,2.82-.88,1.26-.38,1.68-1.66,1.64-2.88-.03-1.22-.13-2.82.48-3.75.61-.93,2.18-1.08,3.2-1.32,1.03-.25,1.42-1.23,1.7-2.53.2-.94.31-1.96.36-2.46h0Zm-9.35,14.69c.51,0,.92.45.92,1s-.41,1-.92,1-.92-.45-.92-1,.41-1,.92-1h0Zm.4-5.58c.54,0,.98.45.98,1s-.44,1-.98,1-.98-.45-.98-1,.44-1,.98-1h0Zm5.25-2.42c.48,0,.87.45.87,1,0,.55-.39,1-.87,1s-.87-.45-.87-1,.39-1,.87-1h0Zm.41-5.58c.41,0,.74.46.74,1.02s-.33,1.02-.74,1.02-.74-.46-.74-1.02.33-1.02.74-1.02Z" style="fill: #ffe100; fill-rule: evenodd; stroke-width: 0px;"/>
    <path d="m73.55,140.19c-.51,0-.92-.45-.92-1s.41-1,.92-1,.92.45.92,1-.41,1-.92,1h0Zm-13.92,16.85c.37-.1.76-.14,1.15-.14.01-.55.05-1.44.11-1.81.1-.54.13-1.28,1.21-1.85,1.09-.57,2.6-.83,2.6-.83,1.41-.42,1.98-1.45,2.03-2.91.05-1.46-.17-1.64.02-3.12.19-1.48,1.92-1.41,3.22-1.86,1.29-.45,1.73-1.58,1.76-2.71.03-1.13,0-1.99.07-3.1.08-1.12.88-1.56,1.37-1.6.49-.05,1.24.03,2.44-.86,1.2-.9,1.52-2.57,1.52-2.57l-.97-.35s-.27.43-1.34,1.47c-1.06,1.04-2.07,1.08-3.24,1.88-1.16.8-1.02,2.65-1.05,4.01-.02,1.36-.05,1.79-.68,2.52-.63.73-1.57.5-2.82.88-1.26.38-1.68,1.66-1.64,2.88.03,1.22.13,2.82-.48,3.74-.61.93-2.18,1.08-3.2,1.32-1.03.25-1.42,1.23-1.7,2.53-.2.94-.32,1.96-.36,2.46h0Zm9.35-14.69c-.51,0-.92-.45-.92-1s.41-1,.92-1,.92.45.92,1-.41,1-.92,1h0Zm-.41,5.58c-.54,0-.98-.45-.98-1s.44-1,.98-1,.98.45.98,1-.44,1-.98,1h0Zm-5.25,2.42c-.48,0-.87-.45-.87-1s.39-1,.87-1,.87.45.87,1-.39,1-.87,1h0Zm-.42,5.59c-.4,0-.74-.46-.74-1.02s.33-1.02.74-1.02.74.46.74,1.02-.33,1.02-.74,1.02Z" style="fill: #ffe100; fill-rule: evenodd; stroke-width: 0px;"/>
    <path d="m108.7,145.89c3.52-3.23,6.75-6.96,7.76-8.15v-.13c-3.49.23-6.75,3.53-7.29,4.1-.26,1.29-.43,2.68-.47,4.17h0Zm7.76-8.74c-3.05.19-5.89,2.57-7.1,3.72.36-1.46.84-2.79,1.38-3.98.48-.24,3.85-1.82,5.72-.19v.45h0Zm0-1.03v-.72c-1.29-1.78-3.41-1.61-4.05-1.51-.47.71-.93,1.49-1.36,2.36,1.13-.47,3.67-1.3,5.41-.13h0Zm0-1.44c-1.21-1.26-2.83-1.35-3.71-1.29.39-.55.78-1.05,1.15-1.49.41.18,1.75.83,2.55,2.02v.76h0Zm0-1.51v-2.05s-1-.88-1-.88c-.37.35-.79.78-1.24,1.29.47.22,1.46.75,2.24,1.63h0Zm0-2.66l-.66-.58c.26-.24.49-.43.66-.56v1.14Z" style="fill: #e60012; fill-rule: evenodd; stroke-width: 0px;"/>
    <path d="m54.87,102.72c-3.52,3.23-6.75,6.96-7.76,8.15v.13c3.49-.23,6.75-3.53,7.29-4.11.26-1.29.43-2.68.47-4.17h0Zm-7.76,8.74c3.05-.19,5.89-2.57,7.1-3.72-.36,1.46-.84,2.79-1.39,3.98-.49.24-3.86,1.82-5.72.19v-.45h0Zm0,1.03v.72c1.29,1.78,3.41,1.61,4.05,1.51.47-.71.93-1.49,1.36-2.36-1.13.47-3.67,1.3-5.41.13h0Zm0,1.44c1.21,1.26,2.83,1.35,3.71,1.29-.39.55-.78,1.05-1.15,1.49-.42-.18-1.75-.83-2.56-2.02v-.76h0Zm0,1.51v2.05s1,.88,1,.88c.37-.35.79-.78,1.24-1.29-.47-.22-1.46-.75-2.24-1.63h0Zm0,2.66l.66.58c-.26.24-.49.42-.66.56v-1.14Z" style="fill: #e60012; fill-rule: evenodd; stroke-width: 0px;"/>
    <path d="m106.99,147.4c.03-1.24.24-4.87,1.47-8.75,1.44-4.53,4.38-8.87,8-10.95v.99c-1.91,1.42-7.73,6.6-8.35,17.73-.15.13-.3.27-.45.4-.23.2-.45.39-.67.58h0Zm-3.79,1.45l-.17.17.8,1.01c.88-.7,1.75-1.42,2.65-2.18.02-.27,0-.64-.25-.71-.4-.11-1.84.38-3.02,1.71h0Zm13.27-23.31v-.81c-.39-.35-.98-.83-1.35-.9-.61-.11-1.11.33-.97,1.32.15.99.97,2.66.97,2.66l.69-.39s-1.1-2.38-.82-2.51c.2-.09.95.26,1.49.64h0Zm0-2.19v-1.07c-.82-.46-1.98-.69-2.5-.71-.64-.02-1.59.34-1.67,1.74-.08,1.41.25,3.76.25,3.76-.63-.27-2.04-.71-2.6-.72-.55-.02-2.23.19-2.26,2.23-.03,2.05.77,3.71.77,3.71,0,0-1.9,0-2.62.02-.72.02-2.07.12-1.92,1.92.16,1.81,1.65,4.17,1.65,4.17-1.31,0-4.53.64-4.33,2.51.2,1.86,2.92,4.53,2.92,4.53-.58.34-2.21,1.79-2.21,1.79l.45.6.19-.2c1.26-1.17,2.32-1.21,3.1-1.46.78-.24.8-.85.8-.85-3.11-1.12-3.91-3.22-4.09-4.1-.18-.88.91-1.3,2.18-1.48,1.27-.17,2.94-.05,2.94-.05l.23-.79s-2.07-1.83-2.64-3.22c-.57-1.39-.24-2.4,1.26-2.34,1.5.06,3.47.67,3.47.67l.53-.66c-2.83-4.11-2.13-6.12-.53-6.1,1.59.02,4,1.82,4,1.82l.56-.36c-.64-1.17-1.12-3.03-1.2-4.24-.08-1.21.16-2.36,1.08-2.14.61.15,1.6.67,2.19,1.01h0Zm0-1.45c-.52-.32-1.38-.79-2.05-.79h-.3s.28-.42,1.01-.42c.51,0,1,.17,1.35.37v.83h0Zm-13.03,23.33l-1.98,1.58-.57-.63,1.17-1.25-1.27-1.82.34-.93,2.31,3.05h0Zm.07-3.76c1.14,2.55,3.21,2.65,3.21,2.65l.05-.78c-2.08-1.04-2.34-1.85-2.34-1.85.6-.36,2.46.16,2.46.16l.33-.81c-1.56-.72-3.79.38-3.79.38l.08.26h0Zm1.37-3.64l-2.81,1.16v-.83s1.76-.62,1.76-.62l-.89-1.7.44-1.02,1.5,3.01h0Zm4.53-3.01c-2.65-1.29-3.66-.41-3.62-.1.36,2.57,2.47,3.29,2.47,3.29l.19-.78s-2.13-2.06-1.66-2.32c.47-.25,2.27.75,2.27.75l.47-.74-.11-.11h0Zm-2.99-5.36l.47,1.53-1.39.13-.41.82,2.88-.15c-.56-1.25-.7-3.4-.7-3.4l-.85,1.06h0Zm2.9-.92c-.25.9,1.15,2.82,1.77,3.53,0,0,.26-.09.28-.32.02-.22-1.09-2.26-.81-2.3.28-.04,1.05.41,1.47.67.41.26.86.28.92.07.06-.21-.19-.95-1.15-1.33-.96-.37-2.48-.34-2.48-.34h0Zm2.63-2.26l-2.76-.35.5-.68h1.59s0-1.76,0-1.76l.69-.61-.02,3.4h0Zm-12.12,18.05l.57.06s.38-4.13,2.44-8.95c2.03-4.74,6.16-11.52,13.64-16.33v-.75c-.62.41-2.49,1.67-4.54,3.49-1.56,1.38-3.23,3.14-4.53,4.89-3.06,4.13-6.42,9.53-7.58,17.6Z" style="fill: #ffe100; fill-rule: evenodd; stroke-width: 0px;"/>
    <path d="m56.59,101.21c-.03,1.24-.24,4.87-1.47,8.75-1.44,4.53-4.38,8.87-8,10.95v-.99c1.91-1.41,7.73-6.6,8.35-17.73.15-.13.3-.27.45-.4.23-.2.45-.39.67-.58h0Zm3.79-1.45l.17-.17-.79-1.01c-.88.7-1.76,1.42-2.65,2.18-.02.27,0,.64.25.71.4.11,1.84-.38,3.02-1.71h0Zm-13.27,23.31v.81c.39.35.98.83,1.35.9.61.11,1.11-.33.97-1.32-.15-.99-.97-2.66-.97-2.66l-.69.39s1.1,2.38.82,2.51c-.2.09-.95-.26-1.48-.64h0Zm0,2.19v1.07c.82.46,1.98.69,2.5.71.64.02,1.59-.34,1.67-1.74.08-1.41-.25-3.76-.25-3.76.63.27,2.04.71,2.6.72.55.02,2.23-.19,2.26-2.23.03-2.05-.77-3.71-.77-3.71,0,0,1.9,0,2.62-.02.72-.02,2.07-.12,1.92-1.92-.16-1.81-1.66-4.17-1.66-4.17,1.31,0,4.53-.64,4.33-2.51-.2-1.86-2.92-4.53-2.92-4.53.59-.34,2.21-1.79,2.21-1.79l-.45-.6-.2.2c-1.25,1.17-2.32,1.21-3.1,1.46-.78.24-.8.85-.8.85,3.11,1.12,3.91,3.22,4.09,4.1.18.88-.91,1.3-2.18,1.48-1.27.17-2.94.05-2.94.05l-.22.79s2.07,1.84,2.64,3.22c.57,1.39.24,2.4-1.26,2.34-1.5-.06-3.47-.68-3.47-.68l-.53.66c2.83,4.11,2.13,6.12.53,6.1-1.59-.02-4-1.82-4-1.82l-.56.36c.64,1.17,1.12,3.03,1.2,4.24.08,1.21-.16,2.36-1.08,2.14-.61-.15-1.6-.67-2.19-1.01h0Zm0,1.45c.52.32,1.38.79,2.05.79h.3s-.28.42-1.01.42c-.51,0-1-.17-1.35-.37v-.83h0Zm13.03-23.33l1.98-1.58.57.63-1.17,1.25,1.27,1.82-.33.93-2.31-3.05h0Zm-.07,3.76c-1.14-2.55-3.21-2.65-3.21-2.65l-.05.78c2.08,1.04,2.34,1.85,2.34,1.85-.6.36-2.46-.16-2.46-.16l-.33.81c1.56.72,3.79-.38,3.79-.38l-.08-.26h0Zm-1.37,3.64l2.81-1.16v.83s-1.76.63-1.76.63l.89,1.7-.44,1.02-1.5-3.01h0Zm-4.53,3.01c2.65,1.29,3.66.41,3.62.1-.36-2.57-2.47-3.3-2.47-3.3l-.19.78s2.13,2.06,1.66,2.32c-.47.25-2.27-.75-2.27-.75l-.47.74.11.11h0Zm2.99,5.36l-.47-1.53,1.39-.13.41-.82-2.88.15c.56,1.25.7,3.4.7,3.4l.85-1.06h0Zm-2.9.92c.25-.9-1.15-2.82-1.77-3.53,0,0-.26.09-.28.32-.02.23,1.09,2.26.81,2.3-.28.04-1.05-.41-1.47-.67-.41-.26-.87-.28-.92-.07-.06.21.19.95,1.15,1.33.96.37,2.48.34,2.48.34h0Zm-2.63,2.26l2.76.35-.5.68h-1.59s0,1.76,0,1.76l-.68.61.02-3.4h0Zm12.12-18.05l-.57-.06s-.38,4.13-2.44,8.95c-2.03,4.74-6.16,11.52-13.64,16.33v.75c.62-.41,2.49-1.67,4.54-3.49,1.56-1.38,3.23-3.14,4.53-4.89,3.06-4.13,6.42-9.53,7.58-17.6Z" style="fill: #ffe100; fill-rule: evenodd; stroke-width: 0px;"/>
    <polygon points="116.47 101.05 116.47 99.69 106.66 92.39 106.01 93.43 116.47 101.05" style="fill: #ffe100; fill-rule: evenodd; stroke-width: 0px;"/>
    <polygon points="47.11 147.56 47.11 148.92 56.92 156.22 57.57 155.18 47.11 147.56" style="fill: #ffe100; fill-rule: evenodd; stroke-width: 0px;"/>
    <path d="m116.47,107.36l-.34-.26.06,1.37.28.2v-1.32h0Zm-1.85-1.38l-1.6-1.19c.05.61.1,1.17.15,1.57l1.64,1.15c-.06-.31-.12-.87-.18-1.52h0Zm-2.96-2.21l-1.27-.94c.05.23.09.4.12.48.16.36.29.78-.08.8-.36.03-1.15-.57-1.43-1.5-.06-.19-.14-.55-.22-.98l-1.12-.84c.03.54.05,1.03.07,1.37.01.02.03.04.04.07.11.18.23.37.37.58l3.81,2.68c-.15-.54-.24-1.12-.29-1.72h0Zm-5.47-4.08l-2.78-2.07-.02.03c.74.6,1.82,1.54,2.79,2.59v-.54h0Zm-2.14-3.09l2.14,1.58v.88s-2.5-1.88-2.5-1.88l.35-.57h0Zm3.53,2.59l.95.69c.04.35.09.7.14,1.03l-1.03-.78c-.02-.31-.04-.63-.06-.94h0Zm2.53,1.86l1.48,1.09c0,.33.02.67.03,1.01l-1.35-1.02c-.06-.34-.11-.71-.17-1.08h0Zm2.81,2.06l1.56,1.14c.03.37.06.74.09,1.11l-1.59-1.2c-.02-.35-.04-.7-.06-1.05h0Zm3.14,2.31l.42.31v1.08s-.37-.28-.37-.28l-.05-1.1h0Zm.42-2.45l-3.8-2.7c-.19-.56-.5-.64-.73-.64-.05,0-.09.01-.13.03l-2.27-1.61c-.18-.32-.44-.53-.8-.58,0,0,0,0-.01,0l-1.49-1.06c-.2-.59-.48-.74-.79-.75-.08,0-.13.02-.18.07l-1.17-.83.61-.97,10.76,7.88v1.17h0Zm0,2.05v-1.35s-.51-.36-.51-.36l.06,1.39.45.33h0Zm-2.16-2.89l-1.5-1.07c0,.1.01.2.02.31.01.3.03.65.04,1.02l1.54,1.12c-.05-.63-.08-1.15-.1-1.39h0Zm-2.75-1.95c-.02.17-.03.37-.02.59.01.22.02.45.02.68l-1.57-1.14c-.05-.37-.09-.7-.11-.94-.01-.14-.03-.28-.06-.42l1.73,1.23h0Zm-3.11-2.22l-1.04-.74c.01.08.02.16.03.25.03.28.06.63.09,1.03l.93.67c-.03-.47-.04-.9,0-1.21h0Zm-2.3-1.63l-1.35-.96-.49.79,1.87,1.37v-.86s-.03-.15-.03-.33Z" style="fill: #fff; fill-rule: evenodd; stroke-width: 0px;"/>
    <path d="m47.11,141.26l.34.26-.06-1.37-.28-.2v1.32h0Zm1.85,1.38l1.6,1.19c-.05-.61-.1-1.17-.15-1.56l-1.64-1.15c.06.31.12.87.18,1.52h0Zm2.96,2.21l1.27.94c-.05-.23-.09-.4-.12-.48-.16-.36-.29-.78.08-.8.36-.03,1.15.57,1.43,1.5.06.19.14.55.22.98l1.12.84c-.03-.54-.05-1.03-.07-1.37-.01-.02-.03-.04-.04-.07-.11-.18-.23-.37-.36-.58l-3.81-2.68c.15.54.24,1.12.29,1.72h0Zm5.47,4.08l2.78,2.07.02-.03c-.74-.6-1.82-1.54-2.79-2.59v.54h0Zm2.14,3.09l-2.14-1.57v-.87s2.5,1.88,2.5,1.88l-.35.57h0Zm-3.53-2.59l-.95-.7c-.04-.35-.09-.7-.14-1.03l1.03.78c.02.31.04.63.06.94h0Zm-2.53-1.86l-1.48-1.09c0-.33-.02-.67-.03-1.01l1.35,1.02c.06.34.11.71.17,1.08h0Zm-2.81-2.06l-1.56-1.14c-.03-.36-.06-.74-.09-1.11l1.59,1.2c.02.35.04.71.06,1.06h0Zm-3.14-2.3l-.42-.31v-1.08s.37.28.37.28l.05,1.11h0Zm-.42,2.44l3.8,2.7c.19.56.5.64.73.64.05,0,.09-.01.13-.03l2.27,1.61c.18.32.44.53.8.58,0,0,0,0,.01,0l1.49,1.06c.2.59.48.74.79.76.08,0,.13-.02.18-.07l1.17.83-.61.97-10.76-7.88v-1.17h0Zm0-2.05v1.35s.51.36.51.36l-.06-1.39-.45-.33h0Zm2.16,2.89l1.5,1.07c0-.1-.01-.2-.02-.31-.01-.3-.02-.65-.04-1.02l-1.54-1.12c.05.63.08,1.15.1,1.39h0Zm2.75,1.95c.02-.17.03-.38.02-.59,0-.22-.02-.45-.02-.68l1.57,1.14c.05.37.09.7.11.94.01.14.03.28.06.42l-1.73-1.23h0Zm3.11,2.22l1.04.74c-.01-.08-.02-.16-.03-.25-.03-.28-.06-.63-.09-1.03l-.93-.67c.04.48.04.9,0,1.21h0Zm2.3,1.63l1.35.96.49-.79-1.87-1.37v.86s.03.15.03.33Z" style="fill: #fff; fill-rule: evenodd; stroke-width: 0px;"/>
    <path d="m104.21,71.59l-.13.82-.07.84c0,.4,0,.8.01,1.19l2.13-1.91.28-6.17c-.46.71-.86,1.45-1.22,2.22-.16.35-.3.7-.44,1.06-.14.38-.26.76-.37,1.15l-.19.8h0Zm-.18,3.13c0,.2.02.41.03.61.04.5.09.99.16,1.49.07.45.15.9.25,1.36.1.43.22.84.35,1.26.14.41.29.81.46,1.2l.27.59c.23.47.47.93.74,1.38l.13-5.67-2.39-2.22Z" style="fill: #fff; fill-rule: evenodd; stroke-width: 0px;"/>
    <path d="m59.37,177.03l.13-.82.07-.84c0-.4,0-.8-.01-1.19l-2.13,1.91-.28,6.17c.46-.71.86-1.45,1.22-2.22.16-.35.3-.7.44-1.06.14-.38.26-.76.37-1.15l.19-.8h0Zm.18-3.14c0-.2-.02-.41-.03-.61-.04-.5-.09-.99-.16-1.49-.07-.46-.15-.9-.25-1.36-.1-.43-.22-.84-.35-1.26-.14-.41-.29-.81-.46-1.2l-.27-.59c-.23-.47-.47-.93-.74-1.38l-.13,5.67,2.39,2.22Z" style="fill: #fff; fill-rule: evenodd; stroke-width: 0px;"/>
    <path d="m106.65,83.2c.03.05.07.11.1.16.06-.26.13-.51.2-.76h-.29s-.01.61-.01.61h0Zm.4-.94c.04-.15.09-.3.14-.44h-.51s-.01.44-.01.44h.38Zm.25-.77c.02-.05.03-.1.05-.15.03-.09.07-.18.11-.27h-.76s0,.42,0,.42h.61Zm.29-.76c.06-.16.13-.31.2-.47.02-.05.04-.09.06-.14h-1.14s-.01.61-.01.61h.89Zm.43-.94c.11-.22.22-.43.33-.64l.1-.17h-1.71s-.02.81-.02.81h1.29Zm.64-1.15l.14-.23.18-.26h-2.22s-.01.49-.01.49h1.9Zm.57-.82l.09-.12.28-.34.23-.26h-3.04s-.02.73-.02.73h2.45Zm.93-1.06l.06-.06.34-.3c.1-.08.18-.16.25-.23h-4.66s.64.6.64.6h3.37Zm1-.93s.08-.05.12-.08v-.9s-6.55,0-6.55,0l1.05.98h5.38Zm.12-1.31v-1s-5.67,0-5.67,0l-1.11,1h6.78Zm0-1.33v-.61s0,0,0,0h-4.74s0,.12,0,.12l-.55.49h5.3Zm-.68-.94c-.13-.08-.27-.16-.4-.25-.2-.15-.38-.29-.57-.45h-3.06s-.03.7-.03.7h4.05Zm-1.3-1.04l-.13-.13-.33-.4h-2.21s-.02.53-.02.53h2.7Zm-.71-.86l-.27-.38-.26-.46h-1.39s-.04.84-.04.84h1.95Zm-.71-1.17l-.15-.3-.13-.31h-.88s-.03.61-.03.61h1.19Zm-.41-.94l-.08-.22-.05-.14h-.58s-.02.36-.02.36h.73Zm-.25-.7c-.04-.15-.09-.29-.13-.44h-.3s-.02.44-.02.44h.45Zm-.22-.77c-.06-.24-.12-.48-.17-.72l-.03.72h.2Z" style="fill: #ffe100; fill-rule: evenodd; stroke-width: 0px;"/>
    <path d="m56.93,165.41c-.03-.05-.07-.11-.1-.16-.06.26-.13.51-.2.76h.29s.01-.61.01-.61h0Zm-.4.94c-.05.15-.09.3-.14.44h.51s.01-.44.01-.44h-.38Zm-.25.77c-.02.05-.04.1-.05.15-.03.09-.07.18-.11.27h.76s.01-.43.01-.43h-.61Zm-.29.76c-.06.16-.13.31-.2.47-.02.05-.04.09-.06.14h1.14s.01-.61.01-.61h-.89Zm-.42.94c-.11.21-.22.43-.33.64l-.1.17h1.71s.02-.81.02-.81h-1.29Zm-.64,1.14l-.14.23-.19.26h2.22s.01-.49.01-.49h-1.9Zm-.57.82l-.09.12-.28.34-.23.26h3.04s.02-.73.02-.73h-2.45Zm-.93,1.06l-.06.06-.34.3c-.1.08-.18.16-.25.23h4.66s-.64-.6-.64-.6h-3.37Zm-1,.93s-.08.06-.12.08v.9s6.55,0,6.55,0l-1.05-.98h-5.38Zm-.12,1.31v1s5.67,0,5.67,0l1.11-1h-6.78Zm0,1.33v.61s0,0,0,0h4.74s0-.12,0-.12l.55-.49h-5.3Zm.68.94c.13.08.27.16.4.25.2.15.38.29.57.45h3.06s.03-.7.03-.7h-4.05Zm1.3,1.04l.13.13.33.4h2.22s.02-.53.02-.53h-2.7Zm.71.86l.27.38.26.46h1.39s.04-.84.04-.84h-1.95Zm.71,1.17l.15.3.13.31h.88s.03-.61.03-.61h-1.19Zm.41.94l.08.22.05.15h.58s.02-.36.02-.36h-.73Zm.25.7c.04.14.09.29.13.44h.3s.02-.44.02-.44h-.45Zm.22.77c.06.24.12.48.17.72l.03-.72h-.2Z" style="fill: #ffe100; fill-rule: evenodd; stroke-width: 0px;"/>
    <polygon points="116.47 65.41 111.69 68.86 111.69 95.52 112.8 96.36 112.8 69.43 116.47 66.78 116.47 65.41" style="fill: #ffe100; fill-rule: evenodd; stroke-width: 0px;"/>
    <polygon points="47.11 183.21 51.89 179.75 51.89 153.1 50.77 152.26 50.77 179.19 47.11 181.84 47.11 183.21" style="fill: #ffe100; fill-rule: evenodd; stroke-width: 0px;"/>
    <path d="m116.47,97.78l-.94.63.94.7v-1.33h0Zm0-.56l-1.33.89-.62-.47,1.95-1.31v.88h0Zm0-1.44v-.88s-2.96,1.99-2.96,1.99l.62.47,2.34-1.57h0Zm0-1.44v-.88s-3.31,2.23-3.31,2.23v.88s3.31-2.23,3.31-2.23h0Zm0-1.44l-3.31,2.23v-.88s3.31-2.22,3.31-2.22v.88h0Zm0-1.44l-3.31,2.23v-.89s3.31-2.22,3.31-2.22v.88h0Zm0-1.44v-.88s-3.31,2.22-3.31,2.22v.89s3.31-2.23,3.31-2.23h0Zm0-1.44v-.88s-3.31,2.23-3.31,2.23v.88s3.31-2.23,3.31-2.23h0Zm0-1.44l-3.31,2.23v-.88s3.31-2.23,3.31-2.23v.88h0Zm0-1.44l-3.31,2.23v-.88s3.31-2.23,3.31-2.23v.88h0Zm0-1.44v-.88s-3.31,2.23-3.31,2.23v.88s3.31-2.23,3.31-2.23h0Zm0-1.44v-.88s-3.31,2.23-3.31,2.23v.88s3.31-2.23,3.31-2.23h0Zm0-1.44l-3.31,2.22v-.88s3.31-2.23,3.31-2.23v.89h0Zm0-1.44l-3.31,2.23v-.88s3.31-2.23,3.31-2.23v.88h0Zm0-1.44v-.88s-3.31,2.22-3.31,2.22v.88s3.31-2.23,3.31-2.23h0Zm0-1.44v-.88s-3.31,2.22-3.31,2.22v.89s3.31-2.23,3.31-2.23h0Zm0-1.44l-3.31,2.22v-.88s3.31-2.23,3.31-2.23v.88h0Zm0-1.44l-3.31,2.23v-.88s3.31-2.23,3.31-2.23v.88h0Zm0-1.44v-.88s-3.31,2.22-3.31,2.22v.88s3.31-2.23,3.31-2.23h0Zm0-1.44v-.88s-3.31,2.23-3.31,2.23v.88s3.31-2.23,3.31-2.23h0Zm0-1.44l-3.31,2.23v-.88s3.31-2.22,3.31-2.22v.88h0Zm0-1.44l-3.31,2.23v-1.04s3.31-2.4,3.31-2.4v1.21Z" style="fill: #e60012; fill-rule: evenodd; stroke-width: 0px;"/>
    <path d="m47.11,150.83l.94-.63-.94-.7v1.34h0Zm0,.56l1.33-.89.62.47-1.95,1.31v-.88h0Zm0,1.44v.88s2.96-1.99,2.96-1.99l-.62-.47-2.34,1.57h0Zm0,1.44v.88s3.31-2.22,3.31-2.22v-.89s-3.31,2.23-3.31,2.23h0Zm0,1.44l3.31-2.23v.88s-3.31,2.23-3.31,2.23v-.88h0Zm0,1.44l3.31-2.23v.88s-3.31,2.23-3.31,2.23v-.88h0Zm0,1.44v.88s3.31-2.22,3.31-2.22v-.89s-3.31,2.23-3.31,2.23h0Zm0,1.44v.88s3.31-2.23,3.31-2.23v-.88s-3.31,2.23-3.31,2.23h0Zm0,1.44l3.31-2.23v.88s-3.31,2.23-3.31,2.23v-.88h0Zm0,1.44l3.31-2.23v.88s-3.31,2.23-3.31,2.23v-.88h0Zm0,1.44v.88s3.31-2.23,3.31-2.23v-.88s-3.31,2.23-3.31,2.23h0Zm0,1.44v.88s3.31-2.23,3.31-2.23v-.88s-3.31,2.23-3.31,2.23h0Zm0,1.44l3.31-2.23v.88s-3.31,2.23-3.31,2.23v-.88h0Zm0,1.44l3.31-2.23v.88s-3.31,2.23-3.31,2.23v-.88h0Zm0,1.44v.88s3.31-2.22,3.31-2.22v-.88s-3.31,2.23-3.31,2.23h0Zm0,1.44v.88s3.31-2.22,3.31-2.22v-.89s-3.31,2.23-3.31,2.23h0Zm0,1.44l3.31-2.23v.89s-3.31,2.22-3.31,2.22v-.88h0Zm0,1.44l3.31-2.23v.88s-3.31,2.23-3.31,2.23v-.88h0Zm0,1.44v.88s3.31-2.23,3.31-2.23v-.88s-3.31,2.23-3.31,2.23h0Zm0,1.44v.88s3.31-2.23,3.31-2.23v-.88s-3.31,2.23-3.31,2.23h0Zm0,1.44l3.31-2.23v.88s-3.31,2.22-3.31,2.22v-.88h0Zm0,1.44l3.31-2.23v1.04s-3.31,2.4-3.31,2.4v-1.21Z" style="fill: #e60012; fill-rule: evenodd; stroke-width: 0px;"/>
    <path d="m103.33,97.74c.85.91,4.59,5.02,6.35,8.85,1.94,4.24,3.22,7.9,3.79,13.32-.27.21-.53.42-.79.64-.19-.96-.85-4.17-1.41-6.15-.67-2.36-2.27-6.55-3.99-9.79-1.46-2.74-3.69-5.47-4.35-6.25l.39-.63Z" style="fill: #ffe100; fill-rule: evenodd; stroke-width: 0px;"/>
    <path d="m60.25,150.87c-.85-.91-4.59-5.02-6.35-8.85-1.94-4.24-3.22-7.9-3.79-13.32.27-.21.53-.42.79-.64.19.96.85,4.16,1.41,6.15.67,2.36,2.27,6.55,3.99,9.79,1.46,2.74,3.69,5.47,4.35,6.25l-.39.63Z" style="fill: #ffe100; fill-rule: evenodd; stroke-width: 0px;"/>
    <path d="m100.45,105.07h-1.13s.3-1.24.3-1.24c.17.23.47.64.83,1.24h0Zm.22.37l-.2,1.36.92-.02c-.25-.51-.5-.95-.72-1.34h0Zm1.01,1.95l-.62,1.16,1.11-.04c-.16-.4-.33-.78-.49-1.13h0Zm.82,1.99l-.75.99,1.18.26c-.14-.44-.28-.86-.42-1.25h0Zm.61,1.88l-.81.95,1.19.53c-.12-.52-.24-1.01-.38-1.49h0Zm.53,2.23l-.99.82,1.21.48c-.07-.44-.14-.87-.22-1.29h0Zm.32,2.01l-.91.69,1.05.73c-.04-.49-.08-.96-.14-1.42h0Zm.17,2.07l-1.14.66,1.18.82c0-.23,0-.46,0-.69,0-.27-.02-.53-.03-.78h0Zm.02,2.21l-1.26.57,1.2.57c.03-.37.05-.75.06-1.14h0Zm-.14,2.05l-1.18.33,1.04.79c.06-.37.1-.74.14-1.12h0Zm-.3,2.03l-1.27.41,1.04.7c.08-.36.16-.73.23-1.11h0Zm-.49,2.14l-1.38.06,1.08.98c.11-.34.21-.68.3-1.04h0Zm-.61,1.93l-1.36.08.89,1.13c.16-.39.32-.8.47-1.21h0Zm-.76,1.88l-1.36.04.74,1.25c.21-.42.42-.85.62-1.29h0Zm-.97,1.94l-1.35-.11.67,1.27c.23-.37.46-.76.67-1.15h0Zm-.98,1.63l-1.42-.14.7,1.18c.24-.33.48-.68.72-1.05h0Zm-1.09,1.54l-1.24-.07.4,1.1c.28-.33.56-.67.84-1.04h0Zm-1.35,1.61l-.84-.18.31.74c.18-.18.36-.37.54-.56Z" style="fill: #fff; fill-rule: evenodd; stroke-width: 0px;"/>
    <path d="m63.13,143.54h1.13s-.3,1.24-.3,1.24c-.17-.23-.47-.64-.83-1.24h0Zm-.22-.37l.2-1.36-.92.02c.25.51.5.96.72,1.34h0Zm-1.01-1.95l.62-1.16-1.11.04c.16.4.33.77.49,1.13h0Zm-.82-1.99l.75-.99-1.18-.26c.13.44.28.85.42,1.25h0Zm-.61-1.88l.81-.95-1.19-.53c.12.52.24,1.01.38,1.49h0Zm-.53-2.23l.99-.82-1.21-.48c.06.44.14.87.22,1.29h0Zm-.32-2.01l.91-.69-1.05-.73c.03.49.08.96.13,1.42h0Zm-.17-2.07l1.14-.66-1.18-.82c0,.23,0,.46,0,.69,0,.27.02.53.03.78h0Zm-.02-2.21l1.26-.57-1.2-.57c-.03.37-.05.75-.06,1.14h0Zm.14-2.05l1.18-.33-1.03-.79c-.06.37-.1.74-.14,1.12h0Zm.29-2.03l1.27-.41-1.04-.7c-.08.36-.16.73-.23,1.11h0Zm.49-2.14l1.38-.06-1.08-.98c-.11.34-.21.68-.31,1.04h0Zm.61-1.93l1.36-.08-.89-1.13c-.16.39-.32.8-.47,1.21h0Zm.76-1.88l1.36-.04-.74-1.25c-.21.42-.42.85-.62,1.29h0Zm.97-1.94l1.35.11-.67-1.27c-.23.37-.45.75-.68,1.15h0Zm.98-1.63l1.42.14-.7-1.19c-.24.33-.48.68-.72,1.05h0Zm1.09-1.54l1.24.07-.4-1.1c-.28.33-.56.67-.84,1.04h0Zm1.36-1.61l.84.18-.31-.74c-.18.18-.36.37-.54.56Z" style="fill: #fff; fill-rule: evenodd; stroke-width: 0px;"/>
    <path d="m76.56,116.21h14.42s-.38.75-.38.75h-1.27s-2.14,4.7-2.14,4.7h-10.63c0-1.82,0-3.63,0-5.45Z" style="fill: #fff; fill-rule: evenodd; stroke-width: 0px;"/>
    <path d="m88.05,119.8l-.64,1.4h-2.17s1.42-3.07,1.42-3.07h-1.21s-1.29,2.84-1.29,2.84h-3.47s1.17-2.84,1.17-2.84h-1.05s-1.13,2.92-1.13,2.92h-3.12v-1.25s.91-1.67.91-1.67h-.91v-1.46h2.66s-1.42,3-1.42,3h1.15s1.46-2.84,1.46-2.84h3.24s-1.4,2.96-1.4,2.96h1.32s1.48-2.96,1.48-2.96h3.28s-1.42,2.96-1.42,2.96h1.13Z" style="fill: #112343; fill-rule: evenodd; stroke-width: 0px;"/>
    <path d="m87.01,132.4h-14.42s.38-.75.38-.75h1.27s2.14-4.7,2.14-4.7h10.63v5.45Z" style="fill: #fff; fill-rule: evenodd; stroke-width: 0px;"/>
    <path d="m75.53,128.82l.64-1.4h2.17s-1.42,3.07-1.42,3.07h1.21s1.29-2.84,1.29-2.84h3.47s-1.17,2.84-1.17,2.84h1.05s1.13-2.92,1.13-2.92h3.12v1.25s-.91,1.67-.91,1.67h.91v1.46h-2.66s1.42-3,1.42-3h-1.15s-1.46,2.84-1.46,2.84h-3.24s1.4-2.96,1.4-2.96h-1.32s-1.48,2.96-1.48,2.96h-3.28s1.42-2.96,1.42-2.96h-1.13Z" style="fill: #112343; fill-rule: evenodd; stroke-width: 0px;"/>
    <path d="m87.2,121.66l-.19.41v2.17h0v2.73h-10.63s.19-.41.19-.41v-4.89h10.63Z" style="fill: #112343; fill-rule: evenodd; stroke-width: 0px;"/>
    <rect x="79.77" y="122.12" width="3.63" height="4.41" style="fill: #ffe100; stroke-width: 0px;"/>
    <path d="m87.01,122.12v2.11h0v2.3h-3.18v-4.41h3.18Zm-10.45,0h2.77v4.41h-2.77v-4.41Z" style="fill: #e60012; fill-rule: evenodd; stroke-width: 0px;"/>
    <path d="m101.26,159.46s.17-2.13,1.56-3.61c1.39-1.48,2.52-1.05,3.81-1.05,1.3,0,3.24.13,4.6-1.37l1.03,1.05s-.41,1.99-2.24,3.04c-1.83,1.04-3.85.72-4.96.74-1.65.02-2.75.34-3.8,1.21h0Zm13.65-17.25l.61.02s-.16,1.99-.43,2.46l-.45-.27.27-2.21Z" style="fill: #ffe100; fill-rule: evenodd; stroke-width: 0px;"/>
    <path d="m62.32,89.16s-.17,2.13-1.56,3.61c-1.39,1.48-2.52,1.05-3.81,1.05-1.3,0-3.24-.13-4.6,1.37l-1.03-1.04s.41-1.99,2.24-3.04c1.83-1.04,3.85-.72,4.97-.74,1.65-.03,2.75-.34,3.8-1.21h0Zm-13.65,17.25h-.61s.16-2,.43-2.48l.45.27-.27,2.21Z" style="fill: #ffe100; fill-rule: evenodd; stroke-width: 0px;"/>
    <path d="m111.68,153.88l.3.3c-.14.23-.38.62-.72,1.1-.54.76-1.3,1.42-1.49,1.47-.19.05-.22-.3-.49-.3s-.27.49-.42.52c-.15.03-.15-.3-.39-.4-.24-.1-.51.14-.98.62,0,0,0-.57-.08-.57s-.69.62-1.02.62-.24-.56-.24-.56c0,0-.48.57-.71.57s-.17-.62-.3-.61c-.14.02-.46.52-.61.59-.15.07-.19-.42-.44-.4-.25.02-.59.54-.71.64,0,0-.02-.47-.24-.47-.27,0-.63.21-.88.34,0,0,.73-1.13,2.19-1.43,1.46-.3,3.29-.05,4.37-.24,1.04-.18,2.35-.74,2.88-1.79Z" style="fill: #d09515; fill-rule: evenodd; stroke-width: 0px;"/>
    <path d="m51.9,94.73l-.3-.3c.14-.23.38-.62.72-1.1.54-.76,1.3-1.41,1.49-1.47.19-.05.22.3.49.3s.27-.49.42-.52c.15-.03.15.3.39.4.24.1.51-.13.98-.62,0,0,0,.57.08.57s.7-.62,1.02-.62.24.56.24.56c0,0,.47-.57.71-.57s.17.62.3.61c.13-.02.46-.52.61-.59.15-.07.19.42.44.4.25-.02.59-.54.71-.64,0,0,.02.47.24.47.27,0,.63-.21.88-.34,0,0-.73,1.13-2.19,1.43-1.46.3-3.29.05-4.37.24-1.04.18-2.35.74-2.88,1.79Z" style="fill: #d09515; fill-rule: evenodd; stroke-width: 0px;"/>
    <path d="m114.41,146.33l-.15.02s-.38.04-.75-.43c-.38-.47-.41-1.32.02-1.36.43-.04,1.28.4,1.28.77,0,.38-.08.92-.4,1h0Zm-3.23,2.12c.4-.35.93-.64,1.47-.62,0,0-.53-.7-.24-1.19.29-.5.92-.51.92-.51-.68-.59-.66-1.5-.26-1.78.4-.28,1.27-.11,1.27-.11.13-.94-.71-1.66-1.17-1.97-.91,1-1.99,2.07-3,3.03,1.44.75,1.02,3.16,1.02,3.16h0Zm1.41,3.04l-.08.04s-.19-.48-.19-.78c0-.31.32-.88.65-.88s.5.24.34.66c-.16.42-.5.84-.73.96h0Zm.95-3.62h-.17s-.66-.26-.68-.73c-.02-.47.26-.58.79-.58s.6.36.55.62c-.06.26-.28.66-.49.7h0Zm-.4,3.65c-.61.74-1.72,1.29-1.72,1.29.32.61,1.06,1.49,1.67,1.49s1.09-.19,1.21-.45c.11-.26.11-.96-.24-1.33-.35-.37-.81-1.09-.81-1.09l-.1.1h0Zm-6.07-3.44c.58-.51,1.69-1.48,2.91-2.62,1.24,1.02.81,3.19.81,3.19-.66.45-.8,1.06-.8,1.06.88-.15,1.1.93,1.1.93l1.02-1.25.29.26c-.04.1-.46.66-.43,1.1.03.44.28.84.27.95-.01.1-.47.66-1.21.71-.73.04-2.18.16-2.95-1.64-.44-1.01-.79-2-1-2.67h0Zm8.25-2.5c-.21.49-.63,1-.63,1l1.02.67c.2-.79-.31-1.82-.31-1.82l-.08.15h0Zm-3.11,3.23l.13-.13s-.26-.07-.54-.05c-.28.02-.39.29-.4.4,0,.11.26.13.82-.22h0Zm1.4,2.65c.45.69.87,1.09,1.22,1.09s.64-.58.63-1.08c-.02-.5-.08-1-.48-1.35-.4-.35-1.69-1.56-1.69-1.56-.26.55.66,1.8.66,1.8-.35.18-.56.84-.56.84l.22.26h0Zm.87-4.36l.05-.24s1.23.78,1.38,1.2c.15.42-.14,1.79-.51,1.81-.37.02-1.25-1.06-1.51-1.29-.25-.22-.24-.37-.02-.55.22-.18.5-.39.61-.94Z" style="fill: #fff; fill-rule: evenodd; stroke-width: 0px;"/>
    <path d="m49.16,102.29l.15-.02s.38-.04.75.43c.38.47.41,1.32-.02,1.36-.43.04-1.28-.4-1.28-.77,0-.38.08-.92.4-1h0Zm3.23-2.12c-.4.35-.93.64-1.47.62,0,0,.53.7.24,1.19-.29.5-.92.51-.92.51.68.59.66,1.5.26,1.78-.4.27-1.26.11-1.26.11-.14.94.71,1.66,1.17,1.97.91-1,1.99-2.07,3-3.03-1.44-.75-1.02-3.16-1.02-3.16h0Zm-1.41-3.04l.08-.04s.19.48.19.78-.32.88-.65.88-.5-.24-.34-.66c.16-.42.5-.84.73-.96h0Zm-.96,3.62h.17s.66.26.68.73c.02.47-.26.58-.79.58s-.6-.36-.55-.62c.06-.26.28-.66.49-.7h0Zm.4-3.65c.61-.74,1.72-1.29,1.72-1.29-.32-.61-1.06-1.49-1.67-1.49s-1.09.19-1.21.45c-.11.26-.11.96.24,1.33.35.37.81,1.09.81,1.09l.1-.1h0Zm6.07,3.44c-.58.51-1.69,1.48-2.91,2.62-1.24-1.01-.81-3.19-.81-3.19.66-.45.81-1.06.81-1.06-.88.15-1.1-.93-1.1-.93l-1.02,1.25-.29-.26c.04-.1.46-.66.43-1.1-.03-.43-.28-.84-.27-.94.01-.1.47-.66,1.21-.71.73-.05,2.18-.16,2.95,1.64.44,1.01.78,2,1,2.67h0Zm-8.25,2.5c.21-.49.63-1,.63-1l-1.02-.67c-.2.79.31,1.82.31,1.82l.08-.15h0Zm3.11-3.23l-.13.13s.26.07.54.05c.28-.02.39-.29.4-.4,0-.11-.26-.13-.82.22h0Zm-1.4-2.65c-.45-.69-.87-1.09-1.22-1.09s-.64.58-.63,1.08c.02.5.08,1,.48,1.35.4.35,1.69,1.56,1.69,1.56.26-.55-.66-1.8-.66-1.8.35-.18.56-.84.56-.84l-.23-.26h0Zm-.87,4.36l-.05.24s-1.23-.78-1.38-1.2c-.15-.42.14-1.79.51-1.82.37-.02,1.25,1.06,1.51,1.29.25.22.24.37.02.55-.22.18-.5.39-.6.94Z" style="fill: #fff; fill-rule: evenodd; stroke-width: 0px;"/>
    <path d="m91.41,116.5l.66-.8s.5,3.69-.03,6c-.53,2.31-2.29,5.63-4.14,6.36v-.96s4.67-3.69,3.51-10.61h0Zm2.43,40.35c.43-.26.85-.52,1.26-.77.04-1.03-.11-2.36-.11-2.36-.32-1.38-1.43-2.34-2.82-2.87-1.39-.53-1.88-1.36-2.02-2.15-.14-.79-.09-1.67-.04-3.05.04-1.38-.2-1.83-.2-1.83-.57-1.48-1.91-1.86-2.86-2.65-.95-.79-.85-1.14-.47-2.98.37-1.83.15-4.85.15-4.85h-1.06s.31,1.03.28,2.15c-.03,1.12-.36,2.23-.59,2.79-.21.51-.35,1.25-.26,1.87.14,1.59,1.26,2.09,2.12,2.66.86.57,1.46,1.13,1.63,2.28.17,1.15-.23,2.84.26,4.56.49,1.72,2.12,1.97,3.3,2.53,1.18.55,1.34,1.51,1.45,2.43.08.66.01,1.7-.04,2.23h0Zm3.36-2.1c-1.79-2.04-2.97-4.01-5.25-8.5-2.35-4.63-3.23-8.47-3.23-8.47l.72-.24c3.01,9.76,7.45,15.87,8.24,16.9-.16.1-.32.21-.48.31h0Zm5.39-3.78c-5.44-5.48-8.49-17.29-8.49-17.29,5.58-5.39,6.29-12.88,5.53-18.29-.76-5.42-2.6-7.84-2.6-7.84l.62-.51.27.54c1.48,3.13,3.25,7.51,2.88,14.13-.37,6.62-5.19,11.82-5.19,11.82,1.54,8.87,6.83,15.54,7.86,16.77-.29.23-.58.45-.87.68h0Zm-7.66-34.37c-1.72-.23-2.15-1.55-2.4-1.55s-.2.13-.2.13c.82,4.1,0,7.1,0,7.1-1.37,4.69-4.48,6.58-4.48,6.58l-.05.43s1.06.68,1.62.91c.56.23.38.55.38.55-.94-.13-1.29.28-1.34.75-.05.48.08,1.38.84,1.31.76-.08,1.01-.96,1.01-.96.08.9.48,1.28.89,1.26.41-.03,1.11-.2,1.11-1.06s-1.01-1.16-1.01-1.16c1.32-.93.93-2.03.08-2.05-.85-.02-1.07,1.52-1.07,1.52,0,0-.89-.76-.49-2.04.4-1.28,1.39-1.63,2.04-1.75.65-.13,1.16.34,1.16.34,0,0-.89.33-.91,1.1-.02.78.31,1.18.98.98.67-.2.69-1.18.69-1.18.22.47.65.83.98.78.33-.05.92-.54.89-1.25-.04-.7-1.32-.56-1.32-.56.81-.83.71-1.97-.2-2.04-.9-.07-.8,1.63-.8,1.63-1.43-.89-.76-2.93-.13-3.65.63-.71,1.51-.54,1.51-.54-.97.99,0,1.86.63,1.81.63-.04.48-1.36.48-1.36.37.34,1.84.71,1.86-.32.02-1.04-1.28-1.02-1.28-1.02,0,0,.26-1.66-.89-1.66s-.45,1.94-.45,1.94c-2.16-.86-1.81-3.05-1.23-3.74.58-.68,1.33-.52,1.33-.52,0,0-.44.26-.18,1.05.26.78,1.05.74,1.05.74.78-.16.42-1.63.42-1.63,1,.26,1.45-.48,1.47-.8.02-.32-.02-1.12-.68-1.17-.66-.04-1.15.36-1.15.36.39-1.77-1.58-2.1-1.61-.9-.02.84.76,1.63.76,1.63h-.3Zm.57-7l-2.31,3.91s1.02.33,1.16-.9c0,0,.59.76,1.07.67.48-.09.96-.39.99-1.15.03-.76-.99-.68-.99-.68.51-.63.8-1.29.07-1.85h0Zm1.3-1.69l-.72.94s3.33,5.31,2.32,14.52c0,0-1.26,9.18-10.16,12.89l.48.95s5.76-2.96,8.42-8.18c2.65-5.23,2.6-9.16,2.45-11.96-.19-3.56-1.62-6.67-2.78-9.17h0Zm-5.9,28.76l-.38.08s1-1.18,2.19-1.2c1.19-.01,2.17.95,2.22,2.28.04,1.33-.22,2.6-3.35,4.02l-.41-.69s3.07-1.29,3.24-2.25c.17-.96-.27-2.08-.86-2.5-.59-.42-1.88-.09-2.65.26h0Zm.04,4.22l-.93-2.04s.89-.98,1.64-1.55c.76-.58,1.82-.41,2.1.24.28.65-.06,1.17-.52,1.66-.46.49-2.29,1.7-2.29,1.7h0Zm.1-1.42l-.07-.1s-.15-.32-.03-.74c.12-.41,1.12-.78,1.58-.81.46-.03.56.43.43.72-.13.3-1.39,1-1.64,1.05-.25.04-.27-.12-.27-.12h0Zm.93-.35l-.19.09s-.16.18-.43.19c-.27.02-.36-.49.13-.83.49-.34.84-.61,1.02-.55.18.06.27.28.09.58-.18.3-.62.52-.62.52h0Zm-7.5-4.52c.5,0,.91.41.91.9s-.41.9-.91.9-.91-.4-.91-.9c0-.5.41-.9.91-.9h0Zm3.01,4.09c.5,0,.91.41.91.9s-.41.9-.91.9-.91-.41-.91-.9.41-.9.91-.9h0Zm.13,5.63c.5,0,.91.41.91.9,0,.5-.41.9-.91.9s-.91-.41-.91-.9.41-.9.91-.9h0Zm4.01,3.58c.5,0,.91.41.91.9s-.41.9-.91.9-.91-.41-.91-.9.41-.9.91-.9h0Zm.82,5.82c.5,0,.91.41.91.9s-.41.9-.91.9-.91-.41-.91-.9.41-.9.91-.9h0Zm5.74-5.65l-.41.08s-1.2.43-1.78.79c-.58.35-.69.33-.81.16-.12-.17-.07-.42.33-.64.4-.22,2.47-1.24,3.33-1.26.86-.03,1.78,1.06,1.92,2.02.13.96-.03,2.89-3.15,4.41l-.61-.61s2.57-1.45,2.86-2.65c.29-1.2-.09-2.59-1.68-2.3h0Zm-.05,1.64c-.16.03-.4.15-.82.52-.43.37-.27.72-.08.7.2-.02,1.05-.75,1.08-.95.02-.2-.08-.25-.08-.25l-.1-.02h0Zm-1.08,1.6c.6,0,1.55-.65,1.77-1.18.21-.49-.34-1.05-1.09-.68-.74.36-1.2.78-1.2,1.28s.51.59.51.59h0Zm-.27.99s2.42-1.24,2.61-2.34c.19-1.1-.55-1.52-1.47-1.18-.91.34-2.04,1.71-2.04,1.71l.89,1.81h0Zm-1.77-9.91l-.41.08s-1.2.43-1.78.79c-.58.35-.69.33-.81.16-.12-.17-.07-.42.33-.64.4-.22,2.47-1.24,3.33-1.26.86-.03,1.78,1.06,1.92,2.02.13.96-.03,2.89-3.15,4.41l-.61-.61s2.57-1.45,2.86-2.65c.29-1.2-.1-2.59-1.68-2.3h0Zm-.05,1.64l.1.02s.1.05.08.25c-.02.2-.88.93-1.08.95-.2.02-.35-.33.08-.7.43-.37.66-.49.82-.52h0Zm-1.08,1.6s-.52-.1-.52-.59.46-.92,1.2-1.28c.74-.36,1.29.19,1.09.68-.23.53-1.17,1.18-1.77,1.18h0Zm-.27.99l-.9-1.81s1.12-1.37,2.04-1.71c.91-.34,1.66.07,1.47,1.18-.19,1.1-2.61,2.34-2.61,2.34Z" style="fill: #ffe100; fill-rule: evenodd; stroke-width: 0px;"/>
    <path d="m72.16,132.11l-.66.8s-.5-3.69.03-6c.53-2.31,2.29-5.63,4.14-6.36v.96s-4.67,3.69-3.51,10.61h0Zm-2.43-40.35c-.43.26-.85.51-1.26.77-.04,1.04.11,2.36.11,2.36.32,1.38,1.43,2.34,2.82,2.87,1.39.53,1.88,1.36,2.02,2.15.14.79.09,1.67.05,3.05-.05,1.38.2,1.83.2,1.83.57,1.48,1.91,1.86,2.86,2.65.95.79.85,1.14.47,2.98-.37,1.83-.15,4.85-.15,4.85h1.06s-.31-1.03-.28-2.15c.03-1.12.36-2.23.59-2.79.21-.51.35-1.25.26-1.87-.14-1.58-1.26-2.09-2.12-2.66-.86-.57-1.46-1.13-1.63-2.28-.17-1.15.23-2.84-.26-4.56-.48-1.72-2.12-1.97-3.3-2.53-1.18-.55-1.34-1.51-1.46-2.43-.08-.66,0-1.7.04-2.23h0Zm-3.36,2.09c1.79,2.04,2.97,4.01,5.25,8.5,2.35,4.63,3.23,8.47,3.23,8.47l-.72.24c-3.01-9.76-7.45-15.87-8.24-16.9.16-.1.32-.21.48-.31h0Zm-5.39,3.78c5.44,5.48,8.5,17.29,8.5,17.29-5.58,5.39-6.29,12.88-5.54,18.29.76,5.42,2.6,7.84,2.6,7.84l-.62.51-.27-.54c-1.48-3.13-3.25-7.51-2.88-14.13.37-6.62,5.19-11.82,5.19-11.82-1.54-8.87-6.83-15.54-7.86-16.77.29-.23.58-.45.87-.68h0Zm7.66,34.37c1.72.23,2.15,1.55,2.4,1.55s.2-.13.2-.13c-.82-4.1,0-7.1,0-7.1,1.37-4.69,4.48-6.58,4.48-6.58l.05-.43s-1.06-.68-1.62-.91c-.56-.23-.38-.55-.38-.55.94.13,1.29-.28,1.34-.75.05-.48-.08-1.38-.84-1.31-.76.08-1.01.96-1.01.96-.08-.91-.48-1.28-.89-1.26-.41.02-1.11.2-1.11,1.06s1.01,1.16,1.01,1.16c-1.32.93-.93,2.03-.08,2.05.85.02,1.07-1.52,1.07-1.52,0,0,.89.76.49,2.04-.4,1.28-1.39,1.63-2.04,1.75-.65.13-1.16-.34-1.16-.34,0,0,.89-.33.9-1.1.02-.78-.31-1.17-.98-.98-.67.2-.69,1.17-.69,1.17-.22-.47-.65-.83-.98-.78-.33.05-.92.54-.89,1.25.04.7,1.32.56,1.32.56-.81.83-.71,1.97.2,2.04.9.07.8-1.63.8-1.63,1.43.89.76,2.93.13,3.65-.63.71-1.51.54-1.51.54.97-.99,0-1.86-.63-1.81-.63.04-.48,1.36-.48,1.36-.37-.34-1.84-.71-1.86.32-.02,1.04,1.28,1.02,1.28,1.02,0,0-.26,1.66.89,1.66s.45-1.94.45-1.94c2.16.86,1.81,3.05,1.23,3.74-.58.68-1.33.52-1.33.52,0,0,.44-.26.18-1.04-.26-.78-1.05-.74-1.05-.74-.79.16-.42,1.63-.42,1.63-1.01-.26-1.45.48-1.47.8-.02.32.02,1.12.68,1.17.66.04,1.15-.36,1.15-.36-.39,1.77,1.58,2.1,1.61.9.02-.84-.76-1.63-.76-1.63h.3Zm-.57,7l2.31-3.91s-1.02-.33-1.16.9c0,0-.59-.76-1.07-.67-.48.09-.96.39-.99,1.15-.03.76.99.68.99.68-.51.62-.8,1.29-.07,1.85h0Zm-1.3,1.69l.72-.94s-3.33-5.31-2.32-14.52c0,0,1.26-9.18,10.16-12.89l-.48-.95s-5.76,2.96-8.42,8.18c-2.65,5.23-2.6,9.16-2.45,11.96.19,3.56,1.62,6.67,2.78,9.17h0Zm5.9-28.76l.38-.08s-1,1.18-2.19,1.2c-1.19.01-2.17-.95-2.22-2.28-.04-1.33.22-2.6,3.35-4.02l.41.69s-3.07,1.29-3.24,2.25c-.17.96.27,2.08.86,2.5.59.42,1.88.09,2.65-.26h0Zm-.04-4.22l.93,2.04s-.89.98-1.64,1.55c-.75.58-1.82.41-2.1-.24-.28-.65.06-1.17.52-1.66.46-.49,2.29-1.7,2.29-1.7h0Zm-.1,1.42l.07.1s.15.32.03.74c-.12.41-1.12.78-1.58.81-.46.03-.56-.43-.43-.72.13-.3,1.39-1,1.64-1.05.25-.04.27.12.27.12h0Zm-.93.35l.19-.09s.16-.18.43-.19c.27-.02.36.49-.13.83-.49.34-.84.61-1.02.55-.18-.06-.27-.28-.09-.58.18-.3.62-.52.62-.52h0Zm7.5,4.52c-.5,0-.91-.41-.91-.9s.41-.9.91-.9.91.4.91.9-.41.9-.91.9h0Zm-3.01-4.09c-.5,0-.91-.41-.91-.9s.41-.9.91-.9.91.41.91.9-.41.9-.91.9h0Zm-.13-5.63c-.5,0-.91-.41-.91-.9s.41-.9.91-.9.91.41.91.9c0,.5-.41.9-.91.9h0Zm-4.01-3.58c-.5,0-.91-.41-.91-.9s.41-.9.91-.9.91.41.91.9c0,.5-.41.9-.91.9h0Zm-.82-5.82c-.5,0-.91-.41-.91-.9s.41-.9.91-.9.91.41.91.9-.41.9-.91.9h0Zm-5.74,5.65l.4-.08s1.2-.43,1.78-.79c.58-.35.69-.33.81-.16.12.17.07.42-.33.64-.4.22-2.47,1.24-3.33,1.26-.86.03-1.78-1.06-1.92-2.02-.13-.96.03-2.89,3.15-4.41l.61.61s-2.57,1.45-2.86,2.65c-.29,1.2.1,2.59,1.68,2.3h0Zm.04-1.64c.16-.03.4-.15.82-.52.43-.37.28-.72.08-.7-.2.02-1.05.75-1.08.95-.02.2.08.25.08.25l.1.02h0Zm1.08-1.6c-.6,0-1.55.64-1.77,1.18-.21.49.34,1.05,1.08.68.74-.36,1.2-.78,1.2-1.28s-.51-.59-.51-.59h0Zm.27-.99s-2.42,1.24-2.61,2.34c-.19,1.1.55,1.52,1.47,1.18.91-.34,2.04-1.71,2.04-1.71l-.89-1.81h0Zm1.77,9.9l.4-.08s1.2-.43,1.78-.79c.58-.35.69-.33.81-.16.12.17.07.42-.33.64-.4.22-2.47,1.24-3.33,1.26-.86.03-1.78-1.06-1.92-2.02-.13-.96.03-2.89,3.15-4.41l.61.61s-2.57,1.45-2.86,2.65c-.29,1.2.1,2.59,1.68,2.3h0Zm.05-1.64l-.1-.02s-.1-.05-.08-.25c.02-.2.88-.93,1.08-.95.2-.02.35.33-.08.7-.43.37-.66.49-.82.52h0Zm1.08-1.6s.51.09.51.59-.46.92-1.2,1.28c-.74.36-1.3-.19-1.09-.68.23-.53,1.17-1.18,1.77-1.18h0Zm.27-.99l.9,1.81s-1.12,1.37-2.04,1.71c-.91.34-1.66-.08-1.47-1.18.19-1.1,2.61-2.34,2.61-2.34Z" style="fill: #ffe100; fill-rule: evenodd; stroke-width: 0px;"/>
    <path d="m141.59,177.42c.08,3.32,2.52,5.73,6.32,5.73,3.8,0,7.24-3.22,7.43-7.84.18-4.62-2.03-9.29-5.81-14.37-3.78-5.08-8.4-12.37-8.24-12.37s-4.45,7.29-8.24,12.37c-3.78,5.08-6,9.75-5.81,14.37.18,4.62,3.63,7.84,7.43,7.84s6.24-2.41,6.32-5.73c0,0-.02-.92.31-.89.35.03.29.67.3.89Z" style="fill: #e60012; fill-rule: evenodd; stroke-width: 0px;"/>
    <path d="m146.05,243.16h-19.6v-5.61h5.69s0-32.62,0-32.62c0-3.48,1.32-6.65,3.44-8.96,2.18-2.37,5.21-3.85,8.55-3.85.47,0,.86.01,1.15.04,7.69.68,11.38,7.7,10.77,14.6l-5.61-.49c.36-4.05-1.57-8.15-5.64-8.51-.29-.02-.52-.04-.67-.04-1.71,0-3.28.78-4.43,2.03-1.21,1.31-1.95,3.14-1.95,5.17v32.62s8.29,0,8.29,0v5.61Z" style="fill: #e60012; stroke-width: 0px;"/>
    <path d="m47.11,62.82c0-1.61,1.08-2.93,2.39-2.93h64.57c1.32,0,2.39,1.32,2.39,2.93v122.97c0,1.61-1.08,2.93-2.39,2.93H49.5c-1.32,0-2.39-1.32-2.39-2.93V62.82Z" style="fill: none; fill-rule: evenodd; stroke: #231815; stroke-miterlimit: 22.93; stroke-width: 1.5px;"/>
    <path d="m22.18,72.47c-.08-3.32-2.52-5.73-6.32-5.73-3.8,0-7.24,3.22-7.43,7.84-.18,4.62,2.03,9.29,5.81,14.37,3.78,5.08,8.4,12.37,8.24,12.37s4.45-7.29,8.24-12.37c3.78-5.08,6-9.75,5.81-14.37-.18-4.62-3.63-7.84-7.43-7.84-3.8,0-6.24,2.41-6.32,5.73,0,0,.02.92-.31.89-.35-.03-.29-.67-.3-.89Z" style="fill: #e60012; fill-rule: evenodd; stroke-width: 0px;"/>
    <path d="m17.72,6.74h19.6v5.61h-5.69s0,32.62,0,32.62c0,3.48-1.32,6.65-3.44,8.96-2.18,2.37-5.21,3.85-8.55,3.85-.47,0-.86-.01-1.15-.04-7.69-.68-11.38-7.7-10.77-14.6l5.61.49c-.36,4.05,1.57,8.15,5.64,8.51.29.02.52.04.67.04,1.71,0,3.28-.78,4.43-2.03,1.21-1.31,1.95-3.14,1.95-5.17V12.35s-8.29,0-8.29,0v-5.61Z" style="fill: #e60012; stroke-width: 0px;"/>
  </g>
</svg>