<?xml version="1.0" encoding="UTF-8"?>
<svg id="_图层_2" data-name="图层 2" xmlns="http://www.w3.org/2000/svg" xmlns:xlink="http://www.w3.org/1999/xlink" viewBox="0 0 163.58 248.61">
  <defs>
    <clipPath id="clippath">
      <path d="m72.02,117.45c1.05-.04,3.66-.05,5.41.68,2.23.93,3.28,2.25,4.8,3.3,1.44.99,4.54,3.78,8.12,3.79,0,.45.03.9.08,1.37.18,1.82.61,3.35,1.16,4.62-.93-.04-2.38-.16-3.84-.54-2.46-.63-4.12-1.86-7.39-4.26-2.99-2.2-5.09-2.88-7.21-2.76,0-.59-.02-1.2-.08-1.82-.17-1.71-.56-3.16-1.06-4.38Z" style="clip-rule: evenodd; fill: #112343; stroke-width: 0px;"/>
    </clipPath>
  </defs>
  <g id="_图层_1-2" data-name="图层 1">
    <path d="m1,6.6c0-3.08,2.51-5.6,5.57-5.6h150.43c3.06,0,5.57,2.52,5.57,5.6v235.41c0,3.08-2.51,5.6-5.57,5.6H6.57c-3.06,0-5.57-2.52-5.57-5.6V6.6Z" style="fill: #fff; fill-rule: evenodd; stroke: #231815; stroke-miterlimit: 22.93; stroke-width: 2px;"/>
    <path d="m50.8,121.91l-.52-.57-.52-.57.49-.57.49-.57.52.57.52.57-.49.57-.49.57h0Zm4.55-15.57l1.06.97,1-1.29-1.07-.92-.98,1.24Z" style="fill: #e60012; fill-rule: evenodd; stroke-width: 0px;"/>
    <path d="m62.14,103.61v-.46h1.86s.04-.88.04-.88h-1.9v-1.6c.03.1.05.21.05.32v.83s2.2,0,2.2,0v1.79h-2.25Zm0-2.93v1.6h-.49c.07-.88-.21-1.49-.46-1.56-.25-.07-.63,0-.58.51.05.51.16.95.19,1.2.04.25-.16.33-.44.72-.28.39-.07,1.07.6,1.11.67.03.56-1.09.56-1.09h.62v.46h-.14s.09.09,0,.74c-.07.51-.91.78-1.37.68-.35-.08-.63-.32-.8-.66v-1.55c.14-.33.31-.52.31-.52,0,0-.28-.39-.21-1.25.07-.86.81-1.13,1.27-1.13.37,0,.79.33.93.76h0Zm-2.3,5.73v-.23l.16.11-.16.11Zm-4.39,25.51l.27.08s.24-1.02-.39-1.94c0,0,.16-.5.16-1,0-.28-.12-.64-.36-.92v3.6c.11.05.22.11.33.18h0Zm4.39-29.1v1.55c-.11-.23-.17-.5-.16-.79,0-.31.08-.57.16-.77h0Zm0,3.37l-1.43-1.02v-1.32s-1.19,0-1.19,0l-.92-1.97-.98,1.97h-.2s0,2.36,0,2.36l1.2-1.52,1.47,1.27-1.37,1.77-1.3-1.19v2.05s.06,0,.06,0l.89,1.61,1.24-1.61h1.09s0-1.16,0-1.16l1.43-1.01v-.23h0Zm-4.72,10.33v-.74c.78.39,1.58.6,1.82.45.31-.2-.53-1.06-.53-1.06l.15-.12c.64-.59.69-1.14.39-1.48-.31-.33-.81-.31-.93.14-.12.45-.23.86-.66.89-.07,0-.16,0-.24-.01v-.9c.15-.23.73-1.01,1.47-1.04.87-.03.94.61,1.03,1.13.09.51-.09,1.06-.23,1.33v.12s.27.75.25,1.31c-.01.56-.31.82-.63.81-.31-.01-.94-.6-1.19-.71-.09-.04-.36-.06-.7-.13Zm0,11.63c-.19-.22-.45-.38-.78-.42-.75-.08-1.54,1.13-1.54,1.13,0,0-.24.08-.3-.48-.06-.56-.12-1.87-.12-1.87h-.83s0,1.45,0,1.45c.03-.17.04-.34.03-.51h.37s-.02,1.98.58,2.11c.6.13.99-.89,1.4-.95s.65.21.65.8c0,.6.04,1.02.37,1.36l.13.24s-1.03.08-1.59.04c-.56-.04-1.32-.5-1.68-1.27,0,0-.1.11-.27.26v.73s.07-.05.07-.05c0,0,.46.62,1.34.75.76.1,1.43-.04,2.16.28v-3.6h0Zm0-24.29v2.36s-.15.19-.15.19l.15.14v2.05h-1.07v-1.32s-1.45-1.1-1.45-1.1l1.45-1.07v-1.26h1.07Zm0,9.84v.9c-.4-.06-.89-.33-1.13-1.09-.3-.92.11-2.03.11-2.03l-.36-.36s-.89,1.2-1.8,1.29c-.14.01-.27.02-.39.01v-.6c.64.05,1.6-.2,2.07-1.54l1.18.82s-.41,1.23-.26,1.95c.15.72.54.72.54.72,0,0,.01-.02.04-.06h0Zm0,2.08c-.28-.14-.56-.3-.8-.47-.94-.66-1.23-1.71-1.34-2.59,0,0-.58.42-1.43.49v.69c.42-.02.78-.06.78-.06,0,0,.05.69.95,1.71.56.62,1.3.85,1.84.96v-.74h0Zm-3.57,7.99v-2.29s.59-.69.59-.69l-.59-.64v-2.72s.57.71.57.71h.84v1.05s1.19,1.49,1.19,1.49l-1.19,1.41v1.26h-1.06s-.35.42-.35.42h0Zm0-13.61v-1.53c.09.12.17.26.22.43.13.44,0,.81-.22,1.1Zm0,16.35h-.32s0,1.05,0,1.35c0,.3-.66,1.02-.81,1.03,0,0,.23-1.29-1.23-1.56,0,0-.18-1.09-.91-1.16-.73-.07-.95.66-.93.87.03.21.18.21.24.39.06.18.03.19.01.64-.01.44.08,1.27.72,2.31.64,1.04,1.16,1.02,1.64,1.02s.93-.22,1.59-.63v-.73c-.36.33-1.04.83-1.65.78-.9-.07-1.45-1.12-1.83-2.7,0,0-.19-1.08.15-1.16.34-.07.52.39.75.67.22.28.93.3,1.04.95.11.65-.13,1.27.19,1.3.27.03,1.18-.86,1.35-1.93v-1.45h0Zm0-17.88v1.53c-.26.37-.64.62-.76.76-.21.26-.17.66.4.83.1.03.22.05.36.06v.6c-.66-.02-1-.27-1-.27-.97-.74-.71-1.93-.71-1.93.67.07,1.21-.09,1.25-.68.04-.6-1.28-.79-1.28-.79,0,0,.1-.21-.04-.93-.14-.72-.72-.72-.91-.61-.19.1-.09.37-.03.75.05.39.02,1.32.02,1.32,0,2.58.89,3.78,2.07,3.94.23.03.44.03.64.02v.69c-.3.02-.63.02-.88,0-.59-.04-2.4-1.24-2.42-3.01-.02-1.77.21-2.33.15-2.8-.06-.48-.28-.43-.28-.88s.35-.74.79-.83c.44-.09.72.04,1.08.51.37.47.35,1.14.35,1.14,0,0,.76.02,1.2.59h0Zm0,8.8v2.72s-.12-.13-.12-.13l-.71-.77-.66.77-.66.77.71.77.71.77.66-.77.07-.08v2.29s-.86,1.02-.86,1.02l-1.16-1.44h-.85v-1.06s-1.29-1.61-1.29-1.61l1.29-1.54v-1h.84s1.33-1.58,1.33-1.58l.7.87Z" style="fill: #ffe100; fill-rule: evenodd; stroke-width: 0px;"/>
    <path d="m112.77,126.7l.52.57.52.57-.49.57-.49.57-.52-.57-.52-.57.49-.57.49-.57h0Zm-4.55,15.57l-1.06-.97-1,1.29,1.07.92.98-1.24Z" style="fill: #e60012; fill-rule: evenodd; stroke-width: 0px;"/>
    <path d="m112.03,122.12h.31s0-1.05,0-1.35.66-1.02.82-1.03c0,0-.23,1.29,1.23,1.56,0,0,.18,1.09.91,1.16.73.07.96-.66.93-.87-.03-.21-.18-.21-.24-.39-.06-.18-.03-.19-.01-.64.01-.44-.08-1.27-.72-2.31-.64-1.04-1.16-1.02-1.64-1.02s-.93.22-1.59.63v.73c.36-.33,1.04-.84,1.65-.78.9.08,1.46,1.12,1.83,2.7,0,0,.19,1.08-.15,1.16-.34.07-.52-.39-.75-.67-.22-.28-.93-.3-1.04-.95-.11-.65.13-1.27-.19-1.3-.28-.03-1.18.86-1.36,1.93v1.45h0Zm0,17.88v-1.53c.26-.36.64-.62.76-.76.21-.26.17-.66-.4-.83-.1-.03-.22-.05-.36-.06v-.6c.66.03,1,.27,1,.27.97.74.71,1.93.71,1.93-.67-.07-1.21.09-1.25.68-.04.6,1.28.79,1.28.79,0,0-.11.21.04.93.14.72.72.72.91.61s.09-.37.04-.75c-.05-.39-.02-1.31-.02-1.31,0-2.58-.89-3.78-2.06-3.94-.23-.03-.44-.03-.64-.01v-.69c.3-.02.63-.02.88,0,.59.04,2.4,1.24,2.42,3.01s-.21,2.33-.15,2.8c.06.48.28.43.28.88s-.35.74-.79.83c-.44.09-.72-.04-1.08-.51-.37-.47-.35-1.14-.35-1.14,0,0-.76-.02-1.2-.59h0Zm0-8.8v-2.72s.12.13.12.13l.71.77.66-.77.66-.77-.71-.77-.71-.77-.66.77-.07.08v-2.29s.86-1.02.86-1.02l1.16,1.44h.85v1.06s1.29,1.61,1.29,1.61l-1.29,1.54v1h-.84s-1.33,1.58-1.33,1.58l-.7-.87Zm-3.57-10.72c.19.22.45.38.78.41.75.08,1.54-1.13,1.54-1.13,0,0,.23-.08.3.49.06.56.13,1.87.13,1.87h.83s0-1.45,0-1.45c-.03.17-.04.34-.03.51h-.37s.02-1.98-.58-2.11c-.6-.13-.99.9-1.4.95-.41.06-.65-.2-.65-.8,0-.6-.04-1.03-.37-1.36l-.13-.24s1.03-.07,1.59-.04c.56.04,1.32.5,1.68,1.27,0,0,.1-.11.27-.26v-.73s-.07.05-.07.05c0,0-.46-.62-1.34-.74-.76-.1-1.43.04-2.16-.28v3.6h0Zm3.57,4.38v2.29s-.59.69-.59.69l.59.64v2.72s-.57-.71-.57-.71h-.84v-1.05s-1.19-1.49-1.19-1.49l1.19-1.41v-1.26h1.06s.35-.42.35-.42h0Zm0,9.86v.69c-.84.07-1.43.49-1.43.49-.12-.87-.4-1.93-1.34-2.59-.25-.17-.52-.33-.8-.47v-.74c.55.11,1.29.33,1.84.96.91,1.02.95,1.71.95,1.71,0,0,.36-.04.78-.06h0Zm0,1.49c-.12,0-.25,0-.39.01-.91.09-1.8,1.29-1.8,1.29l-.36-.36s.41-1.11.11-2.03c-.24-.76-.73-1.04-1.13-1.09v.9s.04-.06.04-.06c0,0,.39,0,.54.72.15.72-.26,1.95-.26,1.95l1.18.82c.47-1.34,1.43-1.59,2.07-1.54v-.6h0Zm0,2.26v1.53c-.09-.12-.17-.26-.22-.43-.13-.44,0-.81.22-1.1h0Zm-3.57,6.3v-2.36s.15-.19.15-.19l-.15-.14v-2.05h1.08v1.32s1.45,1.1,1.45,1.1l-1.45,1.07v1.26h-1.08Zm-.33-28.07l-.27-.08s-.24,1.02.39,1.94c0,0-.16.5-.16,1,0,.28.12.64.36.92v-3.6c-.11-.05-.22-.11-.33-.18h0Zm.33,15.41v.74c-.78-.39-1.58-.6-1.81-.45-.32.2.53,1.05.53,1.05l-.15.12c-.64.59-.69,1.14-.39,1.48.31.33.81.31.93-.14.12-.45.23-.86.66-.89.08,0,.16,0,.24.01v.9c-.15.23-.73,1.01-1.47,1.04-.87.03-.93-.61-1.03-1.13-.09-.51.09-1.06.23-1.33v-.12s-.27-.75-.25-1.31c.01-.57.31-.82.63-.81.31.01.94.6,1.19.71.09.04.36.06.7.13h0Zm0,7.92v2.05s-1.3-1.19-1.3-1.19l-1.37,1.77,1.47,1.27,1.2-1.52v2.36h-.2s-.98,1.97-.98,1.97l-.92-1.97h-1.19v-1.32s-1.43-1.02-1.43-1.02v-.23s1.43-1.01,1.43-1.01v-1.16h1.09s1.24-1.61,1.24-1.61l.89,1.61h.06Zm-4.72,5.77c.08-.2.15-.46.16-.77,0-.29-.05-.56-.16-.79v1.55Zm0-3.6v.23l-.16-.11.16-.12h0Zm0,2.04v1.55c-.14.33-.31.52-.31.52,0,0,.28.39.21,1.25-.07.86-.81,1.13-1.27,1.13-.37,0-.79-.32-.93-.76v-1.6h.49c-.07.88.21,1.49.46,1.56.25.07.63,0,.58-.51-.05-.51-.16-.95-.19-1.2s.16-.33.44-.72c.28-.39.07-1.07-.6-1.11-.67-.03-.56,1.09-.56,1.09h-.62v-.46h.14s-.09-.09,0-.74c.07-.51.91-.78,1.37-.68.35.08.63.32.8.66Zm-2.3.75v.46h-1.86s-.04.88-.04.88h1.9v1.6c-.03-.1-.05-.21-.05-.31v-.83s-2.2,0-2.2,0v-1.79h2.25Z" style="fill: #ffe100; fill-rule: evenodd; stroke-width: 0px;"/>
    <g>
      <path d="m72.02,117.45c1.05-.04,3.66-.05,5.41.68,2.23.93,3.28,2.25,4.8,3.3,1.44.99,4.54,3.78,8.12,3.79,0,.45.03.9.08,1.37.18,1.82.61,3.35,1.16,4.62-.93-.04-2.38-.16-3.84-.54-2.46-.63-4.12-1.86-7.39-4.26-2.99-2.2-5.09-2.88-7.21-2.76,0-.59-.02-1.2-.08-1.82-.17-1.71-.56-3.16-1.06-4.38Z" style="fill: #112343; fill-rule: evenodd;"/>
      <g style="clip-path: url(#clippath);">
        <g>
          <path d="m90.7,128.34c.08.4.17.77.28,1.13h-.23s0,.99,0,.99c0,0-1.86-1.13-2.46-1.65l-.2.77-1.88-1.67-.44.55-2.17-1.85-.2.77-2.08-2.18-.31.75-2.13-2.44-.16.8-2.14-1.91-.32.67-2.31-1.62-.82.94c-.01-.18-.03-.36-.04-.55-.06-.6-.15-1.17-.26-1.71l1.27-.42s1.48,1.26,2.1,1.22v-.76s2.08,1.79,2.08,1.79l.51-.62,1.92,1.95s.12-.9.6-.99l1.85,2.38.66-.53,1.51,2.07.62-.92,1.8,1.94.55-.73,2.41,1.84Z" style="fill: none; fill-rule: evenodd; stroke: #112343; stroke-linecap: round; stroke-linejoin: round; stroke-width: .38px;"/>
          <path d="m90.7,128.34c.08.4.17.77.28,1.13h-.23s0,.99,0,.99c0,0-1.86-1.13-2.46-1.65l-.2.77-1.88-1.67-.44.55-2.17-1.85-.2.77-2.08-2.18-.31.75-2.13-2.44-.16.8-2.14-1.91-.32.67-2.31-1.62-.82.94c-.01-.18-.03-.36-.04-.55-.06-.6-.15-1.17-.26-1.71l1.27-.42s1.48,1.26,2.1,1.22v-.76s2.08,1.79,2.08,1.79l.51-.62,1.92,1.95s.12-.9.6-.99l1.85,2.38.66-.53,1.51,2.07.62-.92,1.8,1.94.55-.73,2.41,1.84Z" style="fill: #ffe100; fill-rule: evenodd; stroke-width: 0px;"/>
        </g>
      </g>
    </g>
    <path d="m58.06,68.66c-.05-2.08-1.59-3.59-3.98-3.59-2.39,0-4.56,2.02-4.68,4.91-.12,2.89,1.28,5.81,3.66,8.99,2.38,3.18,5.29,7.74,5.19,7.74s2.8-4.56,5.19-7.74c2.38-3.18,3.78-6.1,3.66-8.99-.12-2.89-2.28-4.91-4.68-4.91-2.39,0-3.93,1.51-3.98,3.59,0,0,.01.58-.19.56-.22-.02-.19-.42-.19-.56Z" style="fill: #e60012; fill-rule: evenodd; stroke-width: 0px;"/>
    <path d="m105.51,179.95c.05,2.08,1.59,3.59,3.98,3.59,2.39,0,4.56-2.02,4.68-4.91.12-2.89-1.28-5.82-3.66-8.99-2.38-3.18-5.29-7.74-5.19-7.74s-2.8,4.56-5.19,7.74c-2.38,3.18-3.78,6.1-3.66,8.99.12,2.89,2.28,4.91,4.68,4.91,2.39,0,3.93-1.51,3.98-3.59,0,0-.01-.57.19-.56.22.02.18.42.19.56Z" style="fill: #e60012; fill-rule: evenodd; stroke-width: 0px;"/>
    <path d="m47.11,140.73l.39.37c0,.95.38,1.35.73,1.56.35.22.83.25.83.25-.53,1.07.51,1.63.51,1.63-1.86,1.18-2.34,3.19-2.46,5.07v3.42c.08.98.25.81.25.81,1.06-.64,3.45-4.27,3.45-4.27v4.72c-.98.37-1.14,1.44-1.14,1.44l-1.17-.28.1,1.17c-1.3.15-1.38,1.47-1.3,2.72.09,1.24,1.56,1.64,1.56,1.64l-.41,1.82,1.06-.46c-.06.86.71,1.88,2.07,1.94,1.36.06,2.07-1.63,2.07-1.63.18-.03,1.19.33,1.19.33,0,0-.08-.57-.35-1.17-.27-.6-.19-.8-.19-.8.68-.04,1.79-.7,1.63-2.34-.16-1.65-1.61-1.92-1.61-1.92,0,0,.68-1.22.42-1.27-.26-.05-1.44.21-1.44.21.05-1.13-1.24-1.7-1.24-1.7v-6.32c.88.78,2.8,2.07,3.62,2.6.82.53.88.47.88.47.28-.91-.98-3.5-.98-3.5.5.47,1.97,2.48,2.47,3.54.5,1.06,2.72,5.74,2.72,5.74,2.31.18,2.72,3,2.72,3.47s.35,3.44-2.92,5.03c-3.27,1.59-8.23,1.85-8.23,1.85,3.92,6.26,2.38,19.71,2.1,21.86h32.6c.05-1.58.24-9.58-.71-15.04,0,0,4.78-5.17,4.78-10.99,0,0,7.51-3.52,13.71-8.79,5.11-4.34,10.05-8.71,11.62-10.12v-35.91s-.39-.37-.39-.37c0-.95-.37-1.35-.73-1.56-.35-.22-.84-.25-.84-.25.53-1.07-.51-1.63-.51-1.63,1.87-1.19,2.34-3.2,2.46-5.08v-3.39c-.08-.99-.25-.82-.25-.82-1.06.64-3.45,4.27-3.45,4.27v-4.72c.97-.37,1.14-1.44,1.14-1.44l1.17.28-.1-1.17c1.3-.15,1.39-1.47,1.29-2.72-.09-1.24-1.56-1.64-1.56-1.64l.41-1.82-1.06.46c.06-.86-.71-1.88-2.07-1.94-1.36-.06-2.07,1.63-2.07,1.63-.18.03-1.19-.33-1.19-.33,0,0,.08.57.35,1.17.27.6.19.8.19.8-.68.04-1.79.7-1.63,2.34.16,1.65,1.61,1.92,1.61,1.92,0,0-.68,1.22-.42,1.27.26.05,1.44-.21,1.44-.21-.05,1.13,1.24,1.7,1.24,1.7v6.33c-.88-.78-2.8-2.07-3.62-2.6-.82-.53-.88-.47-.88-.47-.28.91.97,3.5.97,3.5-.5-.47-1.97-2.48-2.47-3.54-.5-1.06-2.72-5.74-2.72-5.74-2.31-.18-2.72-3-2.72-3.47s-.35-3.44,2.92-5.03c3.27-1.59,8.23-1.85,8.23-1.85-3.92-6.26-2.38-19.71-2.1-21.86h-32.6c-.05,1.58-.23,9.57.71,15.04,0,0-4.78,5.17-4.78,10.99,0,0-7.51,3.52-13.71,8.78-5.1,4.33-10.04,8.71-11.63,10.12v35.91Z" style="fill: #112343; fill-rule: evenodd; stroke-width: 0px;"/>
    <path d="m97.38,90.13c.03.17.07.35.12.52.04.14.08.28.12.41-1.98,1.01-6.87,3-14.23,2.64-7.46-.36-12.66-4.75-13.67-5.66.08-.05.17-.1.25-.14.19-.11.39-.22.59-.33.16.15.33.29.5.44,1.47,1.23,3.25,2.25,5.21,3.04,2.51,1,5.31,1.61,8.13,1.75,2.55.13,5.21-.19,7.71-.81,1.52-.38,2.99-.87,4.34-1.45.31-.13.62-.27.93-.42h0Zm6.99,6.27c-11.18,7.67-22.14,5.81-22.14,5.81-11.12-1.66-18.22-8.55-19.41-9.77-.26.18-.52.37-.78.55,3.8,3.75,12.14,10.3,23.24,10.52,11.48.29,20.25-6.81,20.25-6.81l-.05-.08c-.38-.07-.75-.14-1.1-.22Z" style="fill: #ffe100; fill-rule: evenodd; stroke-width: 0px;"/>
    <path d="m92.81,70.24c-.31.81-.94,2.71-.96,4.77-.03,2.63.8,6.01,5.98,6.68-.22-.49-.44-.99-.65-1.49-1-.1-2.62-.52-3.66-2.17,0,0-1.81-2.8-.17-6.56-.18-.42-.36-.83-.54-1.24h0Zm1.85,4.22c.5,1.15,1.01,2.31,1.52,3.47-1.26-.46-1.8-1.56-1.8-2.36,0-.4.13-.79.28-1.12h0Zm-1.11-2.54c.28.63.56,1.27.84,1.92-.31.53-.53,1.33-.2,2.44.41,1.34,1.45,1.93,2.23,2.2.18.41.36.81.54,1.22-3.55-.4-3.9-3.62-3.88-5.06.01-.98.28-2.07.47-2.71Z" style="fill: #fff; fill-rule: evenodd; stroke-width: 0px;"/>
    <path d="m98.51,83.23c-.3.84-.8,2.5-.93,4.47-.18,2.74.79,6.89,6.47,8.1-.14-.31-.29-.66-.46-1.03-1.23-.3-3.16-1.08-4.31-3.05-1.48-2.54-.96-5.84-.21-7.2-.19-.42-.37-.85-.56-1.28h0Zm.72,1.65c.23.53.46,1.05.68,1.56-.41,1.2-.22,3.03-.22,3.03.5,2,1.91,2.87,2.99,3.25.24.55.47,1.07.68,1.55-1.05-.28-2.63-1.02-3.57-2.48-1.26-1.95-1.08-4.09-.81-5.56.11-.65.19-1.08.24-1.35h0Zm1.01,2.29c.8,1.83,1.55,3.52,2.2,4.99-1.64-.44-2.45-2.41-2.41-3.61.02-.54.11-1.02.21-1.38Z" style="fill: #fff; fill-rule: evenodd; stroke-width: 0px;"/>
    <path d="m97.19,88.45c.02.43.05.86.12,1.29-1.6.77-3.4,1.42-5.29,1.89-2.47.61-5.09.92-7.6.8-2.79-.14-5.54-.74-8.01-1.73-2.1-.84-4-1.96-5.51-3.31.44-.24.88-.47,1.33-.7,3.08,2.9,7.23,4.43,11.59,4.73,4.58.31,9.38-.74,13.38-2.97Z" style="fill: #ffe100; fill-rule: evenodd; stroke-width: 0px;"/>
    <path d="m74.84,85.42c.89.63,4.93,3.27,10.53,3.27s10.37-2.45,12.11-3.51c-.17.83-.29,1.75-.29,2.74v.1c-3.98,2.26-8.77,3.33-13.35,3.02-4.23-.29-8.26-1.75-11.26-4.54.75-.38,1.51-.74,2.27-1.09Z" style="fill: #ffe100; fill-rule: evenodd; stroke-width: 0px;"/>
    <path d="m75.27,85.23c.98.71,4.54,3.01,9.4,3.01,4.74,0,8.54-1.18,12.91-3.49.27-1.11.62-2.02.87-2.6-2.16-.13-3.68-.72-4.73-1.54-.13.23-2.08,3.59-5.43,5.45-3.47,1.94-5.19,1.6-5.19,1.6-1.56-.32-2.75-1.99-3.64-4.06-1.4.46-2.8,1.01-4.2,1.62Z" style="fill: #fff; fill-rule: evenodd; stroke-width: 0px;"/>
    <path d="m81.41,68.92l.3.07s-.72-.96-1.91-1.11c-1.2-.15-1.95.07-2.26.35-.32.28.05.65.23.65s.86-.46,1.51-.46,1.56.35,2.13.52h0Zm-4.5-9.02h.71c-.17.2-.41.43-.74.7,0-.3.02-.53.03-.7h0Zm1.3,0c-.23.32-.64.78-1.34,1.3,0,.29,0,.63,0,1,.92-.52,1.83-1.56,2.4-2.3h-1.06Zm1.64,0c-.61.82-1.78,2.24-2.98,2.82,0,.29,0,.59.01.92,1.76-.72,3.13-2.56,3.87-3.74h-.9Zm1.44,0c-.74,1.24-2.32,3.46-4.4,4.23,0,.37.02.76.04,1.17,2.87-1.64,4.34-4.08,4.96-5.39h-.6Zm1.11,0h.28c1.07,1.84,3.89,5.85,8.78,7.22.33.75.67,1.53,1.02,2.34-.45,1.41-.97,3.35-1.04,4.94-.07,1.78.13,4.28,1.99,5.96-4.75,7.2-9.97,6.92-9.97,6.92-2.92-.4-5.24-5.86-6.04-14.65-.01-.12-.02-.25-.03-.37.28-.29.51-.21.89-.05.41.17,1.17.32,1.72.32s.83-.25,1.12-.42c.29-.17.46-.01.46-.01.05.23-1.03,1.36-1.15,1.63-.12.27-.11.61.16.61s1.08-1.4,1.24-1.4-.16,1.84-.36,2.62c-.2.78-.37,1.56-.32,1.94.05.38.35.68.85,1.1.5.43.75.76,1.04.73.3-.03.35-.31.17-.58-.19-.27-.19-.57.09-.6.28-.04.47.05.84.24.37.19.84.54,1.48.27.64-.27.76-1.16.64-1.73-.11-.57-.69-1.1-.96-1.05-.26.04-.25.54-.07.67.18.13.44.36.43.79-.01.43-.46.58-1.04.39-.58-.19-.6-.44-1.15-.44-.56,0-.69.46-1.11.46s-.89-.54-.75-1.51c.14-.97.62-2.32.62-2.32.82-2.4.55-3.87.55-3.87-.19-2.61-1.98-3.69-3.54-3.59-1.1.07-1.87.54-2.22.81-.03-.51-.05-.98-.07-1.44,3.26-1.78,4.84-4.56,5.45-5.91h0Zm.81,0c1.09,1.82,3.68,5.3,8,6.67-.21-.47-.4-.93-.6-1.37-3.22-.77-5.21-3.76-6.05-5.3h-1.35Zm1.88,0c.82,1.46,2.58,3.95,5.28,4.76-.16-.38-.32-.74-.48-1.09-1.92-.72-3.27-2.5-3.98-3.67h-.83Zm1.37,0c.64,1.01,1.71,2.36,3.17,3.06-.21-.47-.4-.92-.58-1.32-.71-.54-1.35-1.2-1.81-1.73h-.77Zm1.39,0c.23.25.49.52.78.78-.13-.29-.24-.55-.34-.78h-.43Zm-4.52,23.12c.33.1.89.12,1.17.12s.68-.28.71-.44c.03-.17-.07-.35-.35-.32-.28.03-.38.22-.88.25-.5.03-.76-.12-.98-.12s-.32.14-.21.28c.11.13.36.2.36.2l.18.04h0Zm-.89,1.88c.48-.48.84-.65,1.58-.63.56,0,.96.44,1.15.55.18.11.49.29.51-.08.02-.36-.08-.51-.39-.75-.32-.24-1.24-.42-1.95-.38-.71.04-1.27.47-1.27.63,0,.16.38.66.38.66h0Zm-3.7-14.15s-.05.32.07.73c.12.41.35.56.87.56s.93-.41.95-.78c.01-.37-.02-.49-.02-.49,0,0-.32.76-.7.86-.7.18-.97-.53-1.16-.88h0Zm2.21.6c.13.07.55.02.54-.15,0-.12-.15-.43-.21-.31-.07.12-.32.45-.32.45h0Zm-2.69-.37c-.24-.09-.47-.07-.48.29,0,.29.18.28.36.28s.31-.41.12-.57h0Zm2.91,11c.14,0,.27-.04.56-.24.3-.19.46-.33.74-.29.28.04.39.38.71.38s.72.07,1.21-.14c.49-.21.58-.24.87-.24s.49.11.72.27c.23.15.37.21.53.19.16-.02.25-.27.13-.48-.11-.21-.35-.52-.38-.81-.03-.29-.2-.52-.22-.42-.01.1-.39.28-.67.24-.28-.04-.56-.35-.88-.35s-.32.33-.61.39c-.29.06-.62-.1-.75-.28-.13-.18-.45-.19-.63,0-.18.2-.46.31-.58.2-.13-.11-.38-.39-.49-.39s-.25.09-.25.34.01,1.52.01,1.52v.1h-.01Zm-3.28-12.28s.54-.88,1.57-.84c1.03.03,1.99.3,2.61,1.18,0,0-.84-.44-2.02-.57-1-.11-1.44-.06-2.16.23h0Zm8.4-2.02c.87-.2,1.89,0,2.67.4,1.17.58,2.14,1.17,2.37,1.17s-.09-.77-.68-1.21c-.59-.44-1.95-1.49-3.68-1.61-1.74-.12-2.56.44-2.91,1.05-.35.61.09,1.03.56.82.47-.21.96-.42,1.67-.61h0Zm-1.95,2.1c.09.16.63.39.63.86s-.3.89-.4,1.12c-.09.23.09.54.7.86.61.33,2.51,1.66,2.6,1.44.09-.21-1.78-1.68-1.78-1.68,0,0,.84.19,2.06.14,1.22-.05,1.53-.47,1.67-.7.14-.23.26-.26.66-.26s.91.14.94-.09c.02-.23-.33-.56-.99-.98-.66-.42-1.83-1.26-3.07-1.26-1.24,0-1.88.61-1.83.42.05-.19.52-.7,1.34-.75.82-.05,1.62.07,2.7.54,1.08.47,1.5,1.1,1.62.82.12-.28-.28-.58-.82-.84-.54-.26-1.95-1.07-3.31-1.07s-1.88,1.1-1.88,1.1l-.91.12.07.21h0Zm1.51,1.6c0,.11,0,.17.17.17s.28.04.26-.15c-.02-.19-.37-.13-.37-.13l-.06.11h0Zm2.18-.11c-.11.19-.28.28-.65.28s-.5-.21-.65-.47c-.15-.26-.26-.09-.26-.09-.07.82.63,1.05,1.12,1.03.5-.02.93-.43.99-.75.06-.32.04-.43-.15-.43s-.28.24-.28.24l-.13.19h0Zm1.1-.17c-.22.09.06.47.06.47,0,0,.28,0,.28-.21s-.15-.24-.15-.24l-.19-.02Z" style="fill: #fff; fill-rule: evenodd; stroke-width: 0px;"/>
    <path d="m88.28,59.9c2.74,6.26,15.6,35.65,16.62,37.79l4.68-1.7-18.07-36.09h-3.23Z" style="fill: #112343; fill-rule: evenodd; stroke-width: 0px;"/>
    <path d="m92.84,59.9l11.53,22.34c-.59.16-1.09.32-1.45.43l-11.41-22.78h1.33Z" style="fill: #e60012; fill-rule: evenodd; stroke-width: 0px;"/>
    <path d="m93.39,59.9c3.77,7.42,7.63,14.8,11.32,22.25,1.43-.38,3.3-.81,5.14-.97-.69-1.82-1.77-5.22-1.93-8.95-.21-5.06-.27-8.48.34-12.33h-14.88Z" style="fill: #ffe100; fill-rule: evenodd; stroke-width: 0px;"/>
    <path d="m95.21,63.46c.12.23.23.46.35.69.3.44.71.82,1.13.96.89.28,1.77-.12,2.06-.94.29-.81.16-1.34.16-1.34,0,0-.41,1.29-1.39,1.47-.98.18-1.59-.8-1.56-1.7.03-.9.72-1.21.9-1.21s0,1.06.45,1.05c.45-.01.57-.61.77-.91.19-.28.74-.72.74-1.63h-.54c-.06.3-.19.75-.44.89-.34.19-.72-.24-.89-.89h-.47c-.2.32-.57.81-1.01.84-.48.03-.83-.42-1.08-.84h-.75c.4.41,1.28,1.25,1.93,1.3,0,0-.41.66-.49,1.48-.02.23.02.51.12.79h0Zm4.18,8.16c-.02-.08-.02-.15-.02-.23,0-.85.3-1.99.3-1.99-1.87-.4-2.52-1.97-2.36-3.08.16-1.11,1.17-1.43,2.05-1.43s1.19.72,1.19.72h-.37c-1.32-.03-1.88.34-1.97,1.17-.08.83.38,1.6.8,1.89.42.29.9.2,1.28-.03.38-.23.35-.62.23-.63-.12-.01-.6-.34-.61-.6-.01-.26.23-.46.53-.46s.76.51.76.51c.24-.27.58-.45.99-.41.41.04.94.58.82,1.39-.12.8-.91,1.17-.93,1.31-.02.14-.36.85-.6.85s-.28-1.05-.28-1.05c-.46,0-1.03.34-1.07,1.13-.04.79.24,1.77,1.41,1.73,1.17-.04,1.55-1.41,1.55-1.41,0,2.36-1.39,2.44-2.07,2.23-.4-.12-.9-.44-1.25-.85-.13-.25-.25-.5-.38-.74h0Zm2.41-4.06c-.35,0-.64.29-.64.64s.29.64.64.64.64-.29.64-.64-.29-.64-.64-.64h0Zm2.69,5.99h.37s-.3-.72-1.19-.72-1.89.32-2.06,1.43c-.16,1.11.48,2.68,2.36,3.08,0,0-.3,1.15-.3,1.99,0,.85.97,1.63,1.65,1.83.69.2,2.07.12,2.07-2.23,0,0-.38,1.37-1.55,1.41-1.17.04-1.45-.95-1.41-1.73.04-.79.6-1.13,1.07-1.13,0,0,.04,1.05.28,1.05s.58-.7.6-.85c.02-.14.81-.5.93-1.31.12-.81-.41-1.35-.82-1.39-.41-.04-.75.14-.99.41,0,0-.46-.51-.76-.51s-.54.2-.53.46c.01.26.5.59.61.6.12.01.15.4-.23.63-.38.23-.86.33-1.28.03-.42-.29-.88-1.06-.8-1.89.08-.83.65-1.2,1.97-1.17h0Zm1.62,1.95c.35,0,.64.29.64.64s-.29.64-.64.64-.64-.29-.64-.64.29-.64.64-.64Z" style="fill: #d09515; fill-rule: evenodd; stroke-width: 0px;"/>
    <path d="m76.58,68.49c-1.57,1.35-7.89,7.51-9.28,20.22,2.97-1.76,5.14-2.78,5.14-2.78,0-5.82,4.78-10.99,4.78-10.99-.34-1.96-.53-4.25-.64-6.45Z" style="fill: #112343; fill-rule: evenodd; stroke-width: 0px;"/>
    <path d="m77.31,75.44c-1.21,1.59-4.23,5.94-4.45,10.24.3-.14.6-.28.91-.42.02-1.7.52-5.15,3.75-8.57-.08-.46-.15-.89-.21-1.26h0Zm.28,1.61c.08.44.18.91.29,1.4-2.59,2.64-2.84,5.08-2.78,6.23-.34.14-.67.29-1,.43-.14-3.31,2.62-7,3.49-8.06h0Zm.79,3.41c.09.33.19.67.29,1-.56.81-.76,1.58-.82,2.16-.31.11-.62.23-.93.34.17-1.84,1.06-3.04,1.46-3.5h0Zm-.44-1.73c.11.48.23.98.37,1.49-1.29,1.27-1.65,2.81-1.72,3.87-.37.14-.74.29-1.1.44-.13-2.63,1.75-5.01,2.45-5.79h0Zm.86,3.13c-.18.31-.46.88-.55,1.61.33-.12.67-.23,1.01-.34-.17-.41-.32-.84-.46-1.27Z" style="fill: #fff; fill-rule: evenodd; stroke-width: 0px;"/>
    <path d="m97.32,86.07l-.7.35c-.16.09-.33.17-.49.25l.42.97.66-.36c.02-.42.06-.82.12-1.21h0Zm-1.63.81c-.35.17-.7.33-1.06.48l.45,1.02c.34-.15.67-.31.99-.48l-.38-1.02h0Zm-1.45.64l.39,1.06c-.33.14-.67.28-1.01.4l-.44-1.06c.36-.13.71-.26,1.06-.4h0Zm-1.46.54c-.34.11-.69.22-1.03.32l.39,1.09c.34-.1.67-.21,1-.32l-.36-1.09h0Zm-1.45.44c-.33.09-.66.17-.99.25l.08,1.16c.39-.09.79-.18,1.17-.28l-.27-1.13h0Zm-1.59.38c-.38.08-.75.14-1.13.2l.11,1.13c.38-.05.76-.11,1.13-.18l-.11-1.15h0Zm-1.67.27c-.37.05-.74.09-1.11.11v1.12c.39-.03.78-.06,1.16-.1l-.05-1.14h0Zm-1.7.15c-.39.02-.77.03-1.16.03l-.04,1.11c.39,0,.78,0,1.17-.02l.03-1.12h0Zm-1.81.02c-.26,0-.52-.02-.79-.04-.11-.01-.22-.02-.33-.03l-.04,1.12s.06,0,.09,0c.36.03.71.05,1.07.06v-1.11h0Zm-1.77-.16c-.37-.06-.74-.12-1.11-.19l-.08,1.15c.12.02.25.05.37.07.26.04.53.07.79.11l.03-1.13h0Zm-1.54-.28c-.35-.08-.7-.16-1.05-.26l-.29,1.12c.38.1.76.19,1.15.27l.19-1.14h0Zm-1.66-.44c-.35-.11-.69-.22-1.03-.35l-.35,1.1c.33.12.66.24,1,.34l.39-1.09h0Zm-1.49-.53c-.34-.14-.67-.28-1-.43l-.48,1.03c.35.17.71.33,1.07.48l.42-1.08h0Zm-1.59-.72c-.3-.16-.6-.32-.89-.49l-.59.9c.3.2.61.38.93.56l.56-.97h0Zm-1.49-.86c-.08-.05-.16-.11-.24-.16,0,0-.33-.23-.61-.43-.33.16-.67.32-1,.48l.56.45c.17.14.35.27.52.41l.76-.74Z" style="fill: #d09515; fill-rule: evenodd; stroke-width: 0px;"/>
    <path d="m97.61,91.06c.61,1.9,1.97,3.67,4.86,4.76.57.22,1.2.41,1.9.57-11.18,7.67-22.14,5.81-22.14,5.81-11.12-1.66-18.22-8.55-19.41-9.77.08-.06.16-.11.24-.17,2.12-1.47,4.35-2.91,6.65-4.22,1.01.91,6.21,5.3,13.67,5.66,7.36.35,12.25-1.63,14.23-2.64Z" style="fill: #112343; fill-rule: evenodd; stroke-width: 0px;"/>
    <path d="m66.57,89.94l1.23,1.06-2.04,3.07-2.51-1.93c.38-.26.77-.53,1.16-.79.07.54.54.96,1.1.96.61,0,1.11-.5,1.11-1.11,0-.4-.22-.76-.54-.95.16-.1.33-.21.49-.31h0Zm-1.8,1.17s0,.06,0,.1c0,.41.33.74.74.74s.74-.33.74-.74c0-.34-.23-.62-.54-.71-.31.2-.63.41-.94.61h0Zm7.18-.64l-2.5-1.84-1.58,2.97,2.91,1.56,1.17-2.69h0Zm-1.83-.81c.54,0,.99.44.99.98,0,.54-.44.98-.99.98s-.99-.44-.99-.98.44-.98.99-.98h0Zm0,.33c.36,0,.66.29.66.65,0,.36-.3.65-.66.65s-.66-.29-.66-.65c0-.36.3-.65.66-.65h0Zm3.39,5.02l-2.75-1.83-1.99,3.13,3.16,1.83,1.57-3.13h0Zm-2.18-.59c.58,0,1.06.47,1.06,1.05s-.47,1.05-1.06,1.05-1.06-.47-1.06-1.05c0-.58.48-1.05,1.06-1.05h0Zm0,.32c.4,0,.74.33.74.73s-.33.73-.74.73-.74-.33-.74-.73c0-.4.33-.73.74-.73h0Zm6.15-1.4l-.84,3.16-3.14-1.22,1.19-3.12,2.79,1.17h0Zm-1.83-.2c-.53,0-.96.43-.96.96s.43.96.96.96.96-.43.96-.96c0-.53-.43-.96-.96-.96h0Zm0,.35c-.34,0-.61.27-.61.61s.28.61.61.61.61-.27.61-.61c0-.34-.28-.61-.61-.61h0Zm3.54,7.4l.69-3.45-3.16-1.06-1.05,3.36,3.51,1.15h0Zm-1.33-3.55c.61,0,1.1.49,1.1,1.09s-.49,1.09-1.1,1.09-1.1-.49-1.1-1.09.49-1.09,1.1-1.09h0Zm0,.35c.41,0,.74.33.74.74s-.33.74-.74.74-.74-.33-.74-.74c0-.41.33-.74.74-.74h0Zm5.55-2.94l-2.98-.49-.36,3.29,3.3.43.05-3.23h0Zm-1.62.16c.56,0,1.01.45,1.01,1.01s-.46,1.01-1.01,1.01-1.01-.45-1.01-1.01c0-.55.46-1.01,1.01-1.01h0Zm0,.38c.35,0,.63.28.63.63,0,.35-.28.63-.63.63s-.64-.28-.64-.63c0-.35.29-.63.64-.63h0Zm4.78,2.9l-3.38-.2-.03,3.62,3.57.11-.16-3.53h0Zm-1.78.31c.61,0,1.1.51,1.1,1.13,0,.62-.49,1.13-1.1,1.13s-1.1-.51-1.1-1.13c0-.62.49-1.13,1.1-1.13h0Zm0,.39c.4,0,.72.33.72.74,0,.41-.32.74-.72.74s-.72-.33-.72-.74c0-.41.32-.74.72-.74h0Zm4.88-4.2l.4,3.36h-3.31s-.22-3.31-.22-3.31l3.13-.05h0Zm-1.5.53c-.53,0-.96.43-.96.96,0,.53.43.96.96.96s.96-.43.96-.96c0-.53-.43-.96-.96-.96h0Zm0,.33c-.35,0-.63.28-.63.62,0,.34.28.62.63.62s.63-.28.63-.62-.28-.62-.63-.62h0Zm5.16,1.94l-3.27.37.3,3.49,3.58-.78-.61-3.08h0Zm-1.43.61c.59,0,1.07.48,1.07,1.06,0,.59-.48,1.06-1.07,1.06s-1.07-.48-1.07-1.06c0-.59.48-1.06,1.07-1.06h0Zm0,.35c.4,0,.72.32.72.71,0,.39-.32.71-.72.71s-.72-.32-.72-.71c0-.39.32-.71.72-.71h0Zm1.63-1.33l-1.07-3.31,2.96-.63,1.26,3.01-3.16.93h0Zm.95-3.15c-.52,0-.95.42-.95.94,0,.52.42.94.95.94s.95-.42.95-.94c0-.52-.43-.94-.95-.94h0Zm0,.31c-.35,0-.63.28-.63.63,0,.35.28.63.63.63s.63-.28.63-.63-.28-.63-.63-.63h0Zm5.12.75l-2.84.98,1,3.22,2.98-1.42-1.14-2.78h0Zm-1,.84c.56,0,1.02.45,1.02,1.01s-.46,1.01-1.02,1.01-1.02-.45-1.02-1.01.46-1.01,1.02-1.01h0Zm0,.31c.39,0,.7.31.7.7,0,.39-.31.7-.7.7s-.7-.31-.7-.7c0-.38.32-.7.7-.7Z" style="fill: #ffe100; fill-rule: evenodd; stroke-width: 0px;"/>
    <path d="m95.67,102.27v12.86c1.25-.89,2.71-1.68,4.4-2.37,1.61-6.43,4.77-11.57,5.87-13.23-.92-1.24-1.04-1.84-1.04-1.84-3.28,2.09-6.36,3.58-9.22,4.59Z" style="fill: #112343; fill-rule: evenodd; stroke-width: 0px;"/>
    <path d="m81.96,103.86l1.21.76v-.63c-.41-.04-.81-.08-1.21-.13h0Zm-2.37-.43c.14.03.29.06.43.09l3.14,2v1.2s-3.38-2.04-3.38-2.04l-.19-1.25h0Zm.3,1.92l.22,1.44,3.05,1.81v-1.11s-3.28-2.14-3.28-2.14h0Zm.33,2.12l2.95,1.91v1.21s-2.7-1.55-2.7-1.55l-.24-1.57h0Zm.35,2.25l.2,1.29,2.4,1.46v-1.22s-2.6-1.52-2.6-1.52h0Zm.29,1.89l2.3,1.41v1.21s-2.09-1.22-2.09-1.22l-.22-1.39h0Zm.34,2.21l.2,1.27,1.76,1.06v-1.19s-1.96-1.13-1.96-1.13h0Zm.28,1.84l1.67,1.09v1.08s-1.48-.92-1.48-.92l-.19-1.26h0Zm.33,2.15l.2,1.32c.22.16.45.32.68.49.15.11.3.22.45.33v-1.27s-1.34-.88-1.34-.88Z" style="fill: #fff; fill-rule: evenodd; stroke-width: 0px;"/>
    <path d="m83.98,104.05v16.49c.67.45,1.28.84,1.85,1.16v-17.61c-.63,0-1.25,0-1.85-.04Z" style="fill: #ffe100; fill-rule: evenodd; stroke-width: 0px;"/>
    <path d="m84.39,104.32h.98v.64h-.98v-.64h0Zm0,1.56h.98v.64h-.98v-.64h0Zm0,1.56h.98v.64h-.98v-.64h0Zm0,1.56h.98v.64h-.98v-.64h0Zm0,1.56h.98v.64h-.98v-.64h0Zm0,1.56h.98v.64h-.98v-.64h0Zm0,1.56h.98v.64h-.98v-.64h0Zm0,1.56h.98v.64h-.98v-.64h0Zm0,1.56h.98v.64h-.98v-.64h0Zm0,1.56h.98v.64h-.98v-.64h0Zm0,1.56h.98v.64h-.98v-.64Z" style="fill: #d09515; fill-rule: evenodd; stroke-width: 0px;"/>
    <path d="m86.82,104.06v.71s.97-.78.97-.78c-.33.03-.65.05-.97.06h0Zm-.01,1.51l2.82-1.79c.16-.02.33-.05.5-.08l-.16,1.19-3.16,1.92v-1.24h0Zm-.01,1.93v1.23s2.88-1.75,2.88-1.75l.19-1.42-3.08,1.93h0Zm-.01,1.89l2.8-1.72-.19,1.42-2.62,1.56v-1.25h0Zm-.01,1.85v1.3s2.34-1.38,2.34-1.38l.19-1.38-2.53,1.47h0Zm-.01,1.87l2.27-1.35-.17,1.25-2.11,1.18v-1.08h0Zm-.01,1.94v1.22s1.83-1.14,1.83-1.14l.18-1.34-2.01,1.26h0Zm-.01,1.68l1.76-1.06-.17,1.28-1.6.99v-1.21h0Zm-.01,2.1v1s1.33-.85,1.33-.85l.14-1.01-1.46.87h0Zm-.01,1.72v.93s1.08-.58,1.08-.58l.14-1.02-1.22.67h0Zm-.01,1.53v.09c.3.15.59.29.86.4l.15-1.09-1.01.59Z" style="fill: #fff; fill-rule: evenodd; stroke-width: 0px;"/>
    <path d="m93.45,106.27l-3.42,17.41.46-.02c.35-3.29,1.89-5.97,4.6-8.11v-9.61s-1.64.31-1.64.31Z" style="fill: #e60012; fill-rule: evenodd; stroke-width: 0px;"/>
    <polygon points="93.86 104.17 93.59 105.57 95.09 105.26 95.09 103.91 93.86 104.17" style="fill: #fff; fill-rule: evenodd; stroke-width: 0px;"/>
    <path d="m94.14,102.77l-.18.89,1.13-.27v-.93c-.32.11-.64.21-.96.3Z" style="fill: #e60012; fill-rule: evenodd; stroke-width: 0px;"/>
    <path d="m52.68,160.5c.09.13.46.65.55,1.43.11.9-.8,1.92-1.63,1.91-.83-.01-1.6-.44-1.71-1.46-.11-1.02.18-1.81.18-1.81,0,0-1.03-.02-1.5-.13-.46-.11-.91-1.09-.93-1.94-.02-.84.52-1.47,1.1-1.52.57-.05.99.23,1.31.15.32-.08.12-.63.12-1.23-.02-.68.28-.97.98-1.44v-10.09s.47-.3.47-.3v10.36s.93-.09,1.13.9c.2.99-.08,2.23-.28,2.26v.02s-.98-.95-.98-.95l-2.56,2.48,2.56,2.48,1.18-1.14h0Zm.12-2.57l1.26,1.23-1.11,1.08c.24.2.67.48,1.22.45.86-.04,1.39-.95,1.42-1.64s-.33-1.68-1.32-1.95c0,0-.82-.18-1.47.83Z" style="fill: #ffe100; fill-rule: evenodd; stroke-width: 0px;"/>
    <path d="m53.54,159.16l-2.04,1.98-2.04-1.98,2.04-1.98,2.04,1.98h0Zm-.66,0l-1.38-1.34-1.38,1.34,1.38,1.34,1.38-1.34h0Zm-.61,0l-.76-.74-.76.74.76.74.76-.74Z" style="fill: #e60012; fill-rule: evenodd; stroke-width: 0px;"/>
    <path d="m47.46,150.88l-.06,2.21s2.01-1.64,3.41-4.65v-4.03s-3.3.41-3.35,6.47Z" style="fill: #ffe100; fill-rule: evenodd; stroke-width: 0px;"/>
    <path d="m52.07,147.13l4.06,3.11s.03-3.84-4.06-6.06v2.96Z" style="fill: #ffe100; fill-rule: evenodd; stroke-width: 0px;"/>
    <path d="m50.73,145.98l.09-.09v-1.02s-.09.07-.09.07c-.37.35-2.4,2.44-2.35,5.63v.73s.19-3.16,2.35-5.33Z" style="fill: #112343; fill-rule: evenodd; stroke-width: 0px;"/>
    <path d="m52.07,144.94v.91c1.64,1.21,3.12,2.78,3.12,2.78,0,0-.43-1.63-3.12-3.7Z" style="fill: #112343; fill-rule: evenodd; stroke-width: 0px;"/>
    <path d="m47.36,138.8c-.03-.09-.08-.17-.18-.17-.02,0-.05,0-.07.01v.45c.08-.1.16-.2.25-.29h0Zm-.25-3.59c.26-.57.66-1.26,1.22-1.74,1.12-.95,2.98-1.07,4.76-.85,1.78.22,2.32.95,2.39,2.66.07,1.71-.76,4.19-1.9,5.98,0,0-1.09,1.74-2.09,1.9,0,0-.64-1.61-2.56-.51,0,0,2.11-1.46,3.29-3.07,0,0,.08-.64,0-1.22-.08-.57-.15-.86-.07-1.34.08-.48,1-1.62,1-1.62,0,0-1.04.71-1.46,1.8,0,0-.25-.55-.79-.56,0,0,.29-1.41-1.04-1.55,0,0,.16-1.34-.6-1.59-.76-.25-1.36.73-1.26,1.18.1.45.46.74.46.74,0,0-.77.31-1.33,1.11v-1.32h0Zm0,3.03c.08.11.18.14.31.17.1.02.18.02.24.01.05,0,.06-.01.09-.05.9-.87,1.68-1.14,1.68-1.14l-.23-.25c-.5-.61-.48-1.2-.48-1.2-.62.21-1.22.77-1.62,1.25v1.21h0Zm3.79,1.53c.24,0,.44-.17.44-.38,0-.21-.2-.38-.44-.38s-.44.17-.44.38.2.38.44.38h0Zm.1-2.69c-1.42.22-1.33.5-1.33.5.04.36.63.66.95.63.32-.04.57-1.17.57-1.17l-.2.04h0Zm-1.8-1.06c.02.59.45.84.97.81.52-.04.29-.97.29-.97-.46-.76-1.32-.48-1.26.16h0Zm.25-1.31c-.09-.33-.07-.97-.5-.91-.3.04-.68.47-.63.9.05.43.45.7.79.63.34-.07.34-.61.34-.61h0Zm1.3,5.58c-.59-.25-1.17-.88-1.17-.88-.21.14-.99.88-1.26,1.23-.27.35-.43.73-.37.98.06.26.46.66.77.62.31-.04,2.25-1.84,2.25-1.84l-.22-.12h0Zm-.86-1.86l.18.15s-1.36.97-2.36,2.24c0,0-.38-.21-.45-.77-.07-.56.36-1.32,1.87-2.26,0,0,.25.32.76.65h0Zm-.24,4.26c-.16.14-.33.36-.36.9-.03.54.59.69.71.56.11-.13.48-.35.78-.52.3-.17.6-.45.12-.79-.48-.35-1.13-.21-1.13-.21l-.12.07Z" style="fill: #fff; fill-rule: evenodd; stroke-width: 0px;"/>
    <path d="m57.19,148.53c.57-.9,3.13-4.98,4.68-9.19,1.76-4.76,1.89-9.12,2.05-12.08.16-2.95.15-6.63,1.67-10.56,1.43-3.7,4.47-8.42,10.67-10.18-.31-.08-.81-.23-1.48-.46-5.39,3.01-5.63,3.8-7.81,6.48-2.25,2.77-3.55,9.02-3.66,12.2-.11,3.17-.51,7.84-1.24,11.13-.73,3.29-2.48,7.27-3.63,9.31-.72,1.27-1.36,2.22-1.75,2.76.18.21.35.41.5.59Z" style="fill: #fff; fill-rule: evenodd; stroke-width: 0px;"/>
    <path d="m74.16,105.83c-.82.47-3.36,1.99-4.93,3.46-1.88,1.77-3.77,4.45-4.8,7.39-1.03,2.93-1.25,5.79-1.53,8.9-.28,3.11-.3,7.46-2.14,13.32-1.45,4.62-3.26,7.56-4.25,8.81-.18-.21-.37-.42-.58-.64.82-1.3,2.2-3.53,2.72-4.58l-2.55-1.39,1.06-2.75.81.19-.47,1.48,1.84,1.17,1.57-4.81-3.02-1.24.74-3.45.58.1-.46,2.28,2.38.41.81-5.6-2.92-.42.31-2.82h.52l-.07,1.87,2.34-.05.19-4.9-2.72-.69.36-3.43.91.05-.32,2.34,2.14.21s.67-3.33,1.26-4.58l-2.86-1.77,1.48-3.3.63.34-.73,1.78,2.13,1.18s1.14-2.65,1.79-3.46l-2.13-2.41,2.12-2.69.68.66-1.35,1.3,1.87,1.7s1.33-1.28,3.26-2.84l-1.33-2.5s.95-.38,2.78,1.94l1.1-.86c.27.11.53.21.77.3h0Zm-5.03-2.39c-.51-.29-1.03-.6-1.57-.94-5.07,4.43-7.06,8.19-8.23,11.14-1.2,3.03-1.51,8.95-1.63,11.7-.12,2.75-1.26,11.98-3.08,15.02-1.23,2.06-2.21,2.76-2.72,2.99.31.25.61.5.89.74.49-.39.92-.85,1.31-1.35l2.1,1.34-1.26,1.97c.15.15.3.29.44.44l2.19-3.64-2.57-1.48c.72-1.3,1.23-2.78,1.62-4.2l2.43.77-.59,1.83.45.16.99-3.08-2.91-1.14c.17-.75.32-1.46.45-2.11.17-.83.34-1.78.48-2.76l2.31.04-.38,2.59.61.07.59-3.97-2.9-.3c.21-1.59.37-3.19.48-4.53l2.16.23-.06,1.64.56.02.11-3.37-2.64-.68c.1-1.96.35-4.34.43-5.14l2.67.28-.35,2.4.51.05.85-3.41-2.81-1.64,2.03-4.97,2.12,1.21-.74,1.86.74.36,1.14-2.3-2.19-2.35,3.19-4.01,1.93,1.89-1.41,1.3.61.58,2.32-1.92-1.99-3.61,1.3.31h0Zm-14.89,40.12l1.22.81-1,1.21c-.34-.32-.7-.65-1.09-1l.88-1.02Z" style="fill: #fff; fill-rule: evenodd; stroke-width: 0px;"/>
    <path d="m67.21,102.27c-1.7,1.41-4.83,4.42-6.81,7.98-2.29,4.12-2.85,8.43-2.93,10.63-.08,2.2-.22,5.77-.53,8.26-.31,2.49-1.03,5.46-1.03,5.46,0,0-.52-1.57-1.55-2.03-1.04-.47-3.62-.33-4.71-.18-1.06.15-2.15,1.35-2.54,2.13v-28.34h0s4.9-5.09,12-10.61c2.81,2.91,5.6,5.08,8.1,6.69Z" style="fill: #112343; fill-rule: evenodd; stroke-width: 0px;"/>
    <path d="m55.45,131.91l.27.08s.24-1.02-.39-1.94c0,0,.16-.5.16-1,0-.5-.39-1.25-1.15-1.33-.75-.08-1.54,1.13-1.54,1.13,0,0-.24.08-.3-.48-.06-.56-.12-1.87-.12-1.87h-1.15s0,1.05,0,1.35c0,.3-.66,1.02-.81,1.03,0,0,.23-1.29-1.23-1.56,0,0-.18-1.09-.91-1.16-.73-.07-.95.66-.93.87.03.21.18.21.24.39.06.18.03.19.01.64-.01.44.08,1.27.72,2.31.64,1.04,1.16,1.02,1.64,1.02s.97-.23,1.66-.67c0,0,.46.62,1.34.75.88.12,1.63-.09,2.49.46h0Zm-.5-1.16l.13.24s-1.03.08-1.59.04c-.56-.04-1.32-.5-1.68-1.27,0,0-1.03,1.12-1.92,1.04-.9-.07-1.45-1.12-1.83-2.7,0,0-.19-1.08.15-1.16.34-.07.52.39.75.67.22.28.93.3,1.04.95.11.65-.13,1.27.19,1.3.32.04,1.47-1.16,1.38-2.44h.37s-.02,1.98.58,2.11c.6.13.99-.89,1.4-.95s.65.21.65.8c0,.6.04,1.02.37,1.36h0Zm2.43-15.65v.12s.27.75.25,1.31c-.01.56-.31.82-.63.81-.31-.01-.94-.6-1.19-.71-.24-.11-1.64-.07-2.54-1.09-.9-1.02-.95-1.71-.95-1.71,0,0-1.07.1-1.66.06-.59-.04-2.4-1.24-2.42-3.01-.02-1.77.21-2.33.15-2.8-.06-.48-.28-.43-.28-.88s.35-.74.79-.83c.44-.09.72.04,1.08.51.37.47.35,1.14.35,1.14,0,0,1.11.03,1.41,1.02.3.98-.77,1.61-.98,1.87-.21.26-.17.66.4.83.57.17,1.85.14,2.43-1.48l1.18.82s-.41,1.23-.26,1.95c.15.72.54.72.54.72,0,0,.64-1.07,1.51-1.1.87-.03.94.61,1.03,1.13.09.51-.09,1.06-.23,1.33h0Zm-.83-.06l-.15.12s.85.86.53,1.06c-.32.2-1.67-.26-2.62-.92-.94-.66-1.23-1.71-1.34-2.59,0,0-.89.64-2.07.48-1.18-.16-2.07-1.37-2.07-3.94,0,0,.04-.93-.02-1.32-.05-.39-.16-.65.03-.75.19-.11.77-.11.91.61.14.72.04.93.04.93,0,0,1.32.19,1.28.79-.04.6-.58.75-1.25.68,0,0-.27,1.19.71,1.93,0,0,.49.35,1.4.26.91-.09,1.8-1.29,1.8-1.29l.36.36s-.41,1.11-.11,2.03c.3.92.95,1.13,1.38,1.1.42-.03.54-.44.66-.89.12-.45.62-.48.93-.14.31.33.26.89-.39,1.48h0Zm-5.74,7.28l-.71-.77-.71-.77.66-.77.66-.77.71.77.71.77-.66.77-.66.77h0Zm-.13,2.46l-1.16-1.44h-.85v-1.06s-1.29-1.61-1.29-1.61l1.29-1.54v-1h.84s1.33-1.58,1.33-1.58l1.27,1.58h.84v1.05s1.19,1.49,1.19,1.49l-1.19,1.41v1.26h-1.06s-1.22,1.44-1.22,1.44h0Zm11.32-21.17h2.39s0-1.79,0-1.79h-2.2v-.83c0-.58-.53-1.07-.99-1.07s-1.2.26-1.27,1.13c-.07.86.21,1.25.21,1.25,0,0-.46.47-.47,1.28-.02.73.37,1.32.96,1.45.46.1,1.3-.16,1.37-.68.09-.65,0-.74,0-.74h0Zm2.04-1.34l-.04.88h-2.48s.11,1.12-.56,1.09c-.67-.04-.88-.72-.6-1.11.28-.39.47-.48.44-.72-.04-.25-.14-.69-.19-1.2-.05-.51.33-.58.58-.51.25.07.53.69.46,1.56h2.39Zm-8.86,6.31l.89,1.61,1.24-1.61h1.09s0-1.16,0-1.16l1.59-1.13-1.59-1.13v-1.32s-1.19,0-1.19,0l-.92-1.97-.98,1.97h-1.28s0,1.26,0,1.26l-1.45,1.07,1.45,1.1v1.32s1.14,0,1.14,0h0Zm-.21-2.19l1.45,1.33,1.37-1.77-1.47-1.27-1.35,1.71Z" style="fill: none; fill-rule: evenodd; stroke: #112343; stroke-linecap: round; stroke-linejoin: round; stroke-width: .38px;"/>
    <path d="m50.8,121.91l-.52-.57-.52-.57.49-.57.49-.57.52.57.52.57-.49.57-.49.57h0Zm4.55-15.57l1.06.97,1-1.29-1.07-.92-.98,1.24Z" style="fill: none; fill-rule: evenodd; stroke: #112343; stroke-linecap: round; stroke-linejoin: round; stroke-width: .38px;"/>
    <path d="m76.13,103.61l-.45-1.55c-6.57-2.38-11.55-6.5-13.79-8.58-.35.26-.71.52-1.05.77,5.58,5.67,13.2,8.62,15.29,9.35Z" style="fill: #e60012; fill-rule: evenodd; stroke-width: 0px;"/>
    <path d="m76.91,106.33c-1.71-.52-10.56-3.5-17.52-10.98.36-.28.73-.55,1.09-.83,1.09,1.03,2.89,2.6,5.44,4.37,4.25,2.96,7.92,4.4,10.33,5.21l.65,2.23Z" style="fill: #fff; fill-rule: evenodd; stroke-width: 0px;"/>
    <path d="m64.52,128.06c.34.5,1.08,1.85,1.45,2.75.43,1.05-.29,2.28-1.6-.16.02-.28.04-.56.06-.84.03-.59.06-1.18.09-1.75h0Zm.73.09c.13.35.36.89.94,1.78.58.9,1.03,1.02,1.48.72.45-.3.06-.93.06-.93-.56-.93-1.82-2.25-1.82-2.25l-.12.76-.65-.28.13.2h0Zm.99-.98c.82.81,1.35,1.86,2.56,1.86.45,0,.81-.4.18-1.16-.63-.76-1.9-1.67-1.9-1.67l-.12.79-.72.17h0Zm1.6-1.74l-.21-.51s.39.01,1.69.73c1.84,1.02,1.11,2.37,0,1.7-.83-.51-2.04-1.69-2.04-1.69l.55-.23h0Zm.35-1.56l-.56.5s1.33.56,2.17.74c.84.17,1.18-.21,1.23-.63.05-.42-.2-1.13-3.23-1.13l.4.54h0Zm.04-1.59l-.49.58s1.43.09,2.19.03c.76-.06,1.14-.09,1.21-.73s-.42-.84-1.5-.76c-1.08.09-1.95.34-1.95.34l.55.54h0Zm-.43-1.86l-.26.83s1.42-.19,2.2-.53c.78-.34.99-.66.99-.95,0-.28-.17-.91-.97-.91s-2.83,1.35-2.83,1.35l.87.21h0Zm-.99-.79l.09-.91-.87-.07s.89-.74,1.54-1.24c.65-.5,1.31-.74,1.78-.48.48.26.44,1.02-.34,1.52-.65.41-1.44.99-2.21,1.17h0Zm-.98-1.34c.31-.18,1.04-.84,1.86-1.55,1.02-.89.66-1.65.08-1.61-.32.02-.66.21-.97.49-.39.85-.71,1.74-.97,2.67Z" style="fill: #fff; fill-rule: evenodd; stroke-width: 0px;"/>
    <path d="m65.63,119.02c1,.71,1.7,2.32,1.7,4.18,0,2.49-1.25,4.52-2.79,4.57.02-.39.05-.77.07-1.14.95-.64,1.6-1.98,1.6-3.53,0-1.1-.33-2.1-.86-2.81.09-.43.18-.85.28-1.26Z" style="fill: #fff; fill-rule: evenodd; stroke-width: 0px;"/>
    <path d="m65.24,120.88c.47.57.68,1.38.68,2.21,0,1.14-.45,2.1-1.25,2.67.13-1.7.3-3.33.57-4.88Z" style="fill: #e60012; fill-rule: evenodd; stroke-width: 0px;"/>
    <path d="m81.76,128.66c-.82-.57-1.59-1.14-2.26-1.63-2.16-1.61-3.97-2.23-6.38-2.44.07-.88.06-1.79-.04-2.76-.22-2.18-.79-3.94-1.49-5.33,1.07-.05,4.9-.06,8.08,1.9.84.52,1.52.97,2.09,1.36.82.57,1.59,1.13,2.26,1.63,2.16,1.61,3.97,2.23,6.38,2.44-.07.88-.06,1.79.04,2.76.22,2.18.79,3.94,1.49,5.33-1.07.05-4.9.06-8.08-1.9-.84-.52-1.52-.97-2.09-1.36Z" style="fill: #fff; fill-rule: evenodd; stroke-width: 0px;"/>
    <path d="m66.2,158.49c-.03-.17-.07-.35-.12-.52-.04-.14-.08-.28-.12-.41,1.98-1.01,6.87-3,14.23-2.64,7.46.36,12.66,4.74,13.67,5.66-.08.05-.17.09-.25.14-.2.11-.39.22-.59.33-.16-.15-.33-.29-.5-.44-1.47-1.23-3.25-2.25-5.21-3.03-2.51-1-5.31-1.61-8.13-1.75-2.55-.12-5.21.19-7.71.81-1.52.38-2.99.87-4.34,1.45-.32.13-.63.27-.93.42h0Zm-6.99-6.27c11.18-7.67,22.14-5.81,22.14-5.81,11.12,1.66,18.22,8.55,19.41,9.77.26-.18.52-.37.78-.55-3.8-3.75-12.14-10.3-23.24-10.52-11.48-.29-20.25,6.81-20.25,6.81l.05.08c.39.07.75.14,1.1.22Z" style="fill: #ffe100; fill-rule: evenodd; stroke-width: 0px;"/>
    <path d="m70.77,178.37c.31-.81.94-2.71.96-4.77.03-2.63-.8-6.01-5.98-6.68.22.5.44.99.65,1.49,1,.1,2.62.52,3.66,2.17,0,0,1.81,2.8.17,6.56.18.42.36.83.54,1.23h0Zm-1.85-4.22c-.5-1.14-1.01-2.31-1.52-3.47,1.26.46,1.8,1.56,1.8,2.36,0,.39-.13.79-.28,1.11h0Zm1.11,2.54c-.28-.63-.56-1.27-.84-1.92.31-.53.53-1.33.2-2.44-.41-1.34-1.45-1.94-2.23-2.2-.18-.41-.36-.82-.54-1.22,3.55.4,3.9,3.62,3.88,5.06-.02.98-.28,2.07-.47,2.71Z" style="fill: #fff; fill-rule: evenodd; stroke-width: 0px;"/>
    <path d="m65.07,165.38c.3-.83.8-2.5.93-4.47.18-2.74-.78-6.89-6.47-8.1.14.31.29.66.46,1.03,1.23.3,3.16,1.08,4.31,3.05,1.48,2.54.96,5.84.21,7.2.19.42.37.85.56,1.28h0Zm-.72-1.65c-.23-.53-.46-1.04-.68-1.56.41-1.2.23-3.03.23-3.03-.5-2-1.91-2.87-2.99-3.25-.24-.55-.47-1.07-.68-1.55,1.05.28,2.63,1.02,3.57,2.48,1.26,1.95,1.08,4.09.81,5.56-.11.65-.19,1.08-.24,1.35h0Zm-1.01-2.29c-.8-1.83-1.55-3.52-2.2-4.99,1.64.44,2.45,2.41,2.41,3.61-.02.54-.11,1.02-.21,1.38Z" style="fill: #fff; fill-rule: evenodd; stroke-width: 0px;"/>
    <path d="m66.39,160.16c-.02-.43-.05-.86-.12-1.3,1.6-.77,3.4-1.42,5.29-1.89,2.47-.61,5.09-.92,7.61-.8,2.78.14,5.54.74,8.01,1.73,2.1.84,4,1.97,5.51,3.32-.44.24-.88.47-1.32.7-3.08-2.91-7.24-4.43-11.59-4.73-4.58-.31-9.38.74-13.38,2.97Z" style="fill: #ffe100; fill-rule: evenodd; stroke-width: 0px;"/>
    <path d="m88.74,163.19c-.89-.63-4.93-3.27-10.52-3.27-5.58,0-10.37,2.45-12.11,3.51.17-.83.29-1.75.29-2.73,0-.03,0-.07,0-.1,3.98-2.26,8.78-3.33,13.35-3.02,4.23.29,8.26,1.75,11.26,4.54-.75.38-1.51.74-2.27,1.09Z" style="fill: #ffe100; fill-rule: evenodd; stroke-width: 0px;"/>
    <path d="m88.31,163.38c-.98-.71-4.54-3.01-9.4-3.01s-8.55,1.18-12.91,3.49c-.27,1.11-.62,2.02-.87,2.6,2.16.14,3.68.72,4.73,1.54.13-.23,2.08-3.59,5.43-5.46,3.47-1.93,5.19-1.6,5.19-1.6,1.56.32,2.75,1.99,3.64,4.06,1.4-.46,2.8-1.01,4.2-1.62Z" style="fill: #fff; fill-rule: evenodd; stroke-width: 0px;"/>
    <path d="m82.17,179.7l-.3-.07s.71.96,1.91,1.11c1.2.15,1.95-.07,2.26-.35.32-.28-.05-.65-.23-.65s-.86.47-1.51.47-1.56-.35-2.13-.52h0Zm4.5,9.02h-.71c.17-.2.41-.43.74-.7,0,.3-.02.53-.03.7h0Zm-1.3,0c.23-.33.64-.78,1.34-1.3,0-.29,0-.63,0-1-.92.52-1.83,1.56-2.4,2.3h1.06Zm-1.64,0c.61-.82,1.78-2.25,2.98-2.82,0-.29,0-.59-.01-.92-1.76.72-3.13,2.56-3.87,3.74h.9Zm-1.44,0c.75-1.24,2.32-3.46,4.4-4.23,0-.37-.02-.76-.04-1.17-2.87,1.64-4.34,4.08-4.96,5.39h.6Zm-1.1,0h-.28c-1.07-1.84-3.89-5.85-8.77-7.22-.33-.75-.67-1.53-1.02-2.34.45-1.41.98-3.35,1.04-4.94.07-1.78-.13-4.28-1.99-5.96,4.76-7.2,9.97-6.92,9.97-6.92,2.93.4,5.24,5.86,6.04,14.65.01.12.02.25.03.37-.28.29-.51.21-.89.05-.41-.17-1.17-.32-1.72-.32s-.83.25-1.12.43c-.29.17-.46.01-.46.01-.05-.23,1.02-1.37,1.15-1.63.12-.27.11-.61-.16-.61s-1.08,1.4-1.24,1.4.16-1.84.36-2.62c.2-.78.37-1.55.32-1.94-.05-.38-.35-.68-.85-1.1-.5-.43-.75-.76-1.04-.73-.3.02-.35.31-.17.58.19.27.19.57-.1.6-.28.04-.47-.05-.84-.24-.37-.19-.84-.54-1.48-.27-.64.27-.76,1.16-.65,1.73.11.57.69,1.1.96,1.05.26-.04.25-.54.07-.67-.18-.12-.44-.36-.43-.79.01-.43.46-.58,1.04-.39.58.19.6.44,1.15.44s.69-.46,1.11-.46.89.54.75,1.51c-.14.97-.62,2.32-.62,2.32-.81,2.4-.55,3.87-.55,3.87.2,2.61,1.98,3.69,3.54,3.59,1.1-.07,1.87-.54,2.22-.81.03.5.05.98.07,1.44-3.26,1.78-4.84,4.56-5.45,5.91h0Zm-.81,0c-1.09-1.82-3.68-5.3-8-6.67.21.47.4.93.6,1.37,3.22.76,5.21,3.77,6.05,5.3h1.35Zm-1.88,0c-.82-1.46-2.57-3.95-5.28-4.76.16.38.32.74.48,1.09,1.92.72,3.27,2.5,3.98,3.67h.82Zm-1.37,0c-.64-1.01-1.71-2.36-3.17-3.06.21.48.4.92.58,1.32.71.54,1.35,1.2,1.81,1.73h.77Zm-1.39,0c-.23-.25-.49-.52-.78-.78.13.29.24.55.34.78h.43Zm4.52-23.12c-.33-.1-.9-.12-1.17-.12s-.68.28-.71.44c-.03.16.07.35.35.32.28-.03.38-.22.88-.25.5-.03.76.12.98.12s.32-.14.21-.28c-.11-.13-.36-.2-.36-.2l-.18-.04h0Zm.89-1.88c-.48.48-.85.65-1.59.63-.56,0-.96-.44-1.14-.55-.18-.11-.49-.29-.51.08-.02.36.08.51.39.75.32.24,1.24.42,1.95.39.71-.04,1.27-.47,1.27-.63,0-.16-.38-.66-.38-.66h0Zm3.7,14.15s.05-.33-.07-.73c-.12-.41-.35-.56-.87-.56s-.93.41-.94.78c-.01.37.02.49.02.49,0,0,.32-.76.69-.86.71-.18.97.53,1.16.88h0Zm-2.21-.6c-.13-.07-.55-.02-.54.15,0,.12.15.43.21.31.07-.12.32-.46.32-.46h0Zm2.69.37c.24.09.47.07.48-.29,0-.29-.18-.28-.36-.28s-.31.41-.12.57h0Zm-2.91-10.99c-.14,0-.27.04-.56.23-.3.2-.46.33-.74.29-.28-.04-.39-.38-.71-.38s-.72-.07-1.21.14c-.49.21-.58.24-.87.24s-.49-.11-.72-.27c-.23-.15-.37-.21-.53-.19-.16.02-.25.27-.13.48.11.21.36.52.38.81s.2.51.22.42c.01-.1.39-.28.67-.24.28.04.56.35.88.35s.32-.33.61-.39c.29-.06.62.1.76.28.14.18.46.19.63-.01.18-.2.46-.31.58-.2.13.11.38.39.49.39s.25-.09.25-.34,0-1.52,0-1.52v-.1h.01Zm3.28,12.28s-.54.88-1.57.85c-1.03-.03-1.99-.3-2.61-1.18,0,0,.84.44,2.02.57,1,.11,1.44.06,2.16-.23h0Zm-8.4,2.02c-.87.2-1.89,0-2.67-.4-1.17-.58-2.13-1.17-2.37-1.17s.09.77.68,1.21c.59.44,1.95,1.49,3.68,1.61,1.74.12,2.56-.44,2.91-1.05.35-.6-.09-1.02-.56-.82-.47.21-.96.42-1.67.61h0Zm1.95-2.1c-.09-.16-.63-.4-.63-.86s.3-.89.4-1.12c.09-.23-.09-.54-.7-.86-.61-.33-2.51-1.66-2.6-1.45-.09.21,1.78,1.68,1.78,1.68,0,0-.84-.19-2.06-.14-1.22.05-1.52.47-1.67.7-.14.23-.26.26-.66.26s-.91-.14-.94.09c-.02.23.33.56.99.98.66.42,1.83,1.26,3.07,1.26,1.24,0,1.88-.61,1.83-.42-.05.19-.52.7-1.34.75-.82.05-1.62-.07-2.7-.54-1.08-.47-1.5-1.09-1.62-.82-.12.28.28.58.82.84.54.26,1.95,1.07,3.31,1.07s1.88-1.1,1.88-1.1l.91-.12-.07-.21h0Zm-1.51-1.6c0-.11,0-.17-.17-.17s-.28-.04-.26.15c.02.19.37.13.37.13l.06-.11h0Zm-2.18.11c.11-.19.28-.28.65-.28s.5.22.65.47c.15.26.26.09.26.09.06-.82-.63-1.05-1.12-1.03-.5.02-.93.43-.99.75-.06.32-.04.43.15.43s.28-.24.28-.24l.13-.19h0Zm-1.1.17c.22-.08-.06-.47-.06-.47,0,0-.28,0-.28.21,0,.21.15.24.15.24l.19.02Z" style="fill: #fff; fill-rule: evenodd; stroke-width: 0px;"/>
    <path d="m75.3,188.72c-2.74-6.26-15.6-35.65-16.62-37.79l-4.68,1.7,18.07,36.09h3.23Z" style="fill: #112343; fill-rule: evenodd; stroke-width: 0px;"/>
    <path d="m70.74,188.72l-11.53-22.34c.59-.16,1.09-.32,1.45-.43l11.41,22.78h-1.33Z" style="fill: #e60012; fill-rule: evenodd; stroke-width: 0px;"/>
    <path d="m70.19,188.72c-3.77-7.42-7.63-14.8-11.31-22.25-1.43.38-3.3.81-5.14.97.69,1.82,1.77,5.22,1.92,8.95.21,5.06.27,8.47-.34,12.33h14.87Z" style="fill: #ffe100; fill-rule: evenodd; stroke-width: 0px;"/>
    <path d="m68.37,185.15c-.12-.23-.23-.46-.35-.69-.3-.44-.71-.82-1.13-.96-.89-.29-1.77.12-2.06.94-.29.81-.16,1.34-.16,1.34,0,0,.41-1.29,1.39-1.47.98-.18,1.59.8,1.56,1.7-.03.9-.71,1.21-.9,1.21s0-1.06-.45-1.05c-.45.01-.57.61-.77.91-.19.27-.74.72-.73,1.63h.54c.06-.3.19-.75.44-.89.34-.19.72.24.89.89h.47c.2-.32.57-.81,1.01-.84.48-.03.83.42,1.08.84h.75c-.4-.42-1.28-1.25-1.93-1.3,0,0,.41-.66.49-1.48.02-.23-.02-.51-.12-.79h0Zm-4.18-8.16c.02.08.02.15.02.23,0,.85-.3,1.99-.3,1.99,1.87.4,2.52,1.97,2.36,3.08-.16,1.11-1.17,1.43-2.05,1.43s-1.19-.72-1.19-.72h.37c1.32.03,1.88-.34,1.97-1.17.09-.83-.38-1.6-.8-1.89-.42-.29-.91-.2-1.28.03-.38.23-.35.62-.23.63.12.01.6.34.61.6.01.26-.23.46-.53.46s-.76-.51-.76-.51c-.24.27-.58.45-.99.41-.41-.04-.94-.58-.82-1.39.12-.8.91-1.17.93-1.31.02-.14.36-.85.6-.85s.28,1.05.28,1.05c.46,0,1.03-.34,1.07-1.13.04-.79-.24-1.77-1.41-1.73-1.17.04-1.55,1.41-1.55,1.41,0-2.36,1.39-2.44,2.07-2.23.4.12.9.44,1.25.85.13.25.25.5.38.75h0Zm-2.41,4.06c.35,0,.64-.29.64-.64s-.29-.64-.64-.64-.64.29-.64.64c0,.35.29.64.64.64h0Zm-2.69-5.99h-.37s.3.73,1.19.73,1.89-.32,2.06-1.43c.16-1.11-.48-2.68-2.36-3.08,0,0,.3-1.15.3-1.99,0-.85-.97-1.63-1.65-1.83-.69-.2-2.08-.12-2.08,2.23,0,0,.38-1.37,1.55-1.41,1.17-.04,1.45.95,1.41,1.73-.04.79-.6,1.13-1.07,1.13,0,0-.04-1.05-.28-1.05s-.58.7-.6.85c-.02.14-.81.5-.93,1.31-.12.8.41,1.35.82,1.39.41.04.75-.14.99-.41,0,0,.46.51.76.51s.54-.2.53-.46c-.01-.26-.49-.59-.61-.6-.12,0-.15-.4.23-.63.38-.23.86-.32,1.28-.03.42.29.88,1.06.8,1.89-.08.83-.65,1.2-1.97,1.17h0Zm-1.62-1.95c-.35,0-.64-.29-.64-.64,0-.35.29-.64.64-.64s.64.29.64.64c0,.35-.29.64-.64.64Z" style="fill: #d09515; fill-rule: evenodd; stroke-width: 0px;"/>
    <path d="m87,180.13c1.57-1.35,7.89-7.51,9.28-20.22-2.97,1.76-5.14,2.78-5.14,2.78,0,5.82-4.78,10.99-4.78,10.99.34,1.96.53,4.25.64,6.45Z" style="fill: #112343; fill-rule: evenodd; stroke-width: 0px;"/>
    <path d="m86.26,173.17c1.22-1.59,4.23-5.94,4.45-10.24-.3.14-.6.28-.91.42-.02,1.7-.53,5.15-3.76,8.57.08.46.15.89.21,1.26h0Zm-.28-1.61c-.08-.44-.18-.91-.29-1.41,2.59-2.64,2.84-5.08,2.77-6.23.34-.14.67-.28,1-.43.14,3.31-2.63,7-3.49,8.07h0Zm-.79-3.41c-.09-.33-.19-.67-.3-1,.56-.81.76-1.58.82-2.16.31-.11.62-.22.93-.34-.17,1.84-1.06,3.04-1.46,3.5h0Zm.44,1.73c-.11-.48-.23-.98-.37-1.49,1.29-1.27,1.65-2.81,1.72-3.87.37-.14.74-.29,1.1-.44.13,2.63-1.75,5.01-2.45,5.79h0Zm-.86-3.13c.18-.31.46-.88.55-1.61-.33.11-.67.23-1.01.34.17.42.32.84.46,1.28Z" style="fill: #fff; fill-rule: evenodd; stroke-width: 0px;"/>
    <path d="m66.26,162.55l.7-.35c.16-.09.33-.17.49-.25l-.42-.98-.66.37c-.02.42-.06.82-.12,1.21h0Zm1.63-.81c.35-.17.7-.32,1.06-.48l-.45-1.02c-.33.15-.67.32-.99.49l.38,1.02h0Zm1.46-.64l-.39-1.06c.33-.14.67-.28,1.01-.4l.44,1.06c-.36.13-.71.26-1.06.4h0Zm1.46-.54c.34-.12.69-.22,1.03-.32l-.39-1.09c-.34.1-.67.21-1,.32l.36,1.1h0Zm1.45-.44c.33-.09.66-.17.99-.25l-.08-1.16c-.39.08-.78.18-1.17.28l.27,1.13h0Zm1.59-.38c.38-.08.76-.14,1.14-.2l-.12-1.13c-.38.05-.76.11-1.13.19l.11,1.15h0Zm1.67-.28c.37-.05.74-.08,1.11-.11v-1.12c-.39.03-.78.06-1.16.1l.05,1.14h0Zm1.7-.15c.39-.02.77-.03,1.16-.03l.04-1.11c-.39,0-.78,0-1.17.02l-.03,1.12h0Zm1.81-.02c.26,0,.52.02.79.04.11.01.22.02.33.04l.04-1.12s-.06,0-.09,0c-.35-.03-.71-.05-1.07-.06v1.11h0Zm1.77.16c.37.05.74.12,1.11.19l.08-1.15c-.12-.02-.25-.05-.37-.07-.26-.04-.52-.08-.79-.11l-.03,1.14h0Zm1.54.28c.35.08.7.16,1.05.26l.29-1.12c-.38-.1-.76-.19-1.15-.27l-.19,1.14h0Zm1.66.44c.35.11.69.22,1.03.35l.35-1.1c-.33-.12-.66-.24-.99-.34l-.39,1.09h0Zm1.49.53c.34.14.67.28,1,.43l.48-1.03c-.35-.17-.71-.33-1.07-.48l-.41,1.08h0Zm1.59.72c.3.15.6.32.89.49l.59-.9c-.3-.2-.61-.38-.93-.56l-.56.97h0Zm1.49.86c.08.05.16.11.24.16,0,0,.33.23.61.43.33-.16.67-.32,1-.48l-.56-.45c-.17-.14-.35-.27-.52-.41l-.76.74Z" style="fill: #d09515; fill-rule: evenodd; stroke-width: 0px;"/>
    <path d="m65.96,157.55c-.6-1.9-1.97-3.67-4.86-4.76-.57-.22-1.2-.41-1.9-.57,11.18-7.67,22.14-5.81,22.14-5.81,11.12,1.66,18.22,8.55,19.41,9.77-.08.06-.16.11-.24.17-2.12,1.47-4.35,2.91-6.65,4.22-1.01-.91-6.21-5.3-13.67-5.66-7.36-.35-12.25,1.63-14.23,2.64Z" style="fill: #112343; fill-rule: evenodd; stroke-width: 0px;"/>
    <path d="m97.01,158.68l-1.23-1.06,2.04-3.07,2.51,1.93c-.38.27-.77.53-1.16.79-.07-.54-.54-.96-1.1-.96-.61,0-1.11.5-1.11,1.11,0,.4.22.76.54.95-.16.1-.33.21-.49.31h0Zm1.8-1.17s0-.06,0-.1c0-.41-.33-.74-.74-.74s-.74.33-.74.74c0,.34.23.62.54.71.31-.2.63-.41.94-.61h0Zm-7.18.64l2.5,1.84,1.58-2.97-2.91-1.56-1.17,2.69h0Zm1.83.81c-.54,0-.99-.44-.99-.98,0-.54.44-.98.99-.98s.99.44.99.98-.44.98-.99.98h0Zm0-.33c-.36,0-.66-.29-.66-.65,0-.36.3-.65.66-.65s.66.29.66.65c0,.36-.3.65-.66.65h0Zm-3.39-5.02l2.75,1.83,1.99-3.13-3.16-1.83-1.57,3.13h0Zm2.18.58c-.58,0-1.06-.47-1.06-1.05,0-.58.47-1.05,1.06-1.05s1.06.47,1.06,1.05c0,.58-.48,1.05-1.06,1.05h0Zm0-.32c-.4,0-.74-.33-.74-.73,0-.4.33-.73.74-.73s.74.33.74.73-.33.73-.74.73h0Zm-6.15,1.4l.84-3.16,3.14,1.22-1.19,3.12-2.79-1.17h0Zm1.83.19c.53,0,.96-.43.96-.96s-.43-.96-.96-.96-.96.43-.96.96.43.96.96.96h0Zm0-.35c.34,0,.61-.27.61-.61s-.28-.61-.61-.61-.62.27-.62.61c0,.34.28.61.62.61h0Zm-3.55-7.4l-.69,3.44,3.16,1.06,1.05-3.36-3.51-1.15h0Zm1.33,3.55c-.6,0-1.1-.49-1.1-1.09,0-.6.49-1.09,1.1-1.09s1.1.49,1.1,1.09c0,.6-.49,1.09-1.1,1.09h0Zm0-.35c-.41,0-.74-.33-.74-.74s.33-.74.74-.74.74.33.74.74-.33.74-.74.74h0Zm-5.55,2.95l2.98.49.36-3.29-3.3-.43-.05,3.23h0Zm1.62-.16c-.56,0-1.01-.45-1.01-1.01s.46-1.01,1.01-1.01,1.01.45,1.01,1.01-.46,1.01-1.01,1.01h0Zm0-.38c-.35,0-.63-.28-.63-.63s.29-.63.63-.63.63.28.63.63-.28.63-.63.63h0Zm-4.78-2.9l3.38.2.03-3.62-3.57-.11.16,3.53h0Zm1.78-.31c-.61,0-1.1-.51-1.1-1.13,0-.62.49-1.13,1.1-1.13s1.1.51,1.1,1.13c0,.62-.49,1.13-1.1,1.13h0Zm0-.39c-.4,0-.72-.33-.72-.74,0-.41.32-.74.72-.74s.72.33.72.74c0,.41-.32.74-.72.74h0Zm-4.88,4.2l-.4-3.36h3.31s.22,3.31.22,3.31l-3.13.05h0Zm1.5-.53c.53,0,.96-.43.96-.96s-.43-.96-.96-.96-.96.43-.96.96c0,.53.43.96.96.96h0Zm0-.33c.35,0,.63-.28.63-.62s-.28-.62-.63-.62-.63.28-.63.62.28.62.63.62h0Zm-5.16-1.94l3.27-.37-.3-3.49-3.58.78.61,3.08h0Zm1.43-.61c-.59,0-1.07-.48-1.07-1.06,0-.59.48-1.06,1.07-1.06s1.07.48,1.07,1.06-.48,1.06-1.07,1.06h0Zm0-.35c-.4,0-.72-.32-.72-.71,0-.39.32-.71.72-.71s.72.32.72.71c0,.39-.32.71-.72.71h0Zm-1.63,1.33l1.07,3.31-2.96.63-1.26-3.01,3.16-.93h0Zm-.95,3.15c.52,0,.95-.42.95-.94,0-.52-.43-.94-.95-.94s-.95.42-.95.94c0,.52.42.94.95.94h0Zm0-.31c.35,0,.63-.28.63-.63s-.28-.63-.63-.63-.63.28-.63.63c0,.35.28.63.63.63h0Zm-5.12-.76l2.84-.98-1-3.22-2.98,1.42,1.14,2.79h0Zm1-.84c-.56,0-1.02-.45-1.02-1.01,0-.56.46-1.01,1.02-1.01s1.02.45,1.02,1.01-.46,1.01-1.02,1.01h0Zm0-.31c-.39,0-.7-.31-.7-.7,0-.38.31-.7.7-.7s.7.31.7.7c0,.38-.32.7-.7.7Z" style="fill: #ffe100; fill-rule: evenodd; stroke-width: 0px;"/>
    <path d="m67.9,146.35v-12.86c-1.25.89-2.72,1.68-4.4,2.37-1.61,6.43-4.77,11.57-5.87,13.23.92,1.24,1.04,1.84,1.04,1.84,3.28-2.09,6.35-3.58,9.22-4.59Z" style="fill: #112343; fill-rule: evenodd; stroke-width: 0px;"/>
    <path d="m81.62,144.76l-1.21-.76v.63c.41.04.81.08,1.21.13h0Zm2.37.43c-.14-.03-.29-.06-.43-.09l-3.15-2v-1.2s3.38,2.03,3.38,2.03l.19,1.25h0Zm-.3-1.92l-.22-1.44-3.05-1.81v1.11s3.28,2.14,3.28,2.14h0Zm-.33-2.12l-2.95-1.91v-1.21s2.7,1.55,2.7,1.55l.24,1.57h0Zm-.35-2.25l-.2-1.29-2.4-1.46v1.22s2.6,1.52,2.6,1.52h0Zm-.29-1.89l-2.3-1.41v-1.21s2.09,1.23,2.09,1.23l.22,1.39h0Zm-.34-2.2l-.2-1.27-1.76-1.06v1.19s1.96,1.13,1.96,1.13h0Zm-.28-1.84l-1.67-1.09v-1.09s1.48.92,1.48.92l.19,1.25h0Zm-.33-2.15l-.2-1.32c-.22-.16-.45-.32-.68-.49-.15-.11-.3-.22-.45-.33v1.27s1.33.88,1.33.88Z" style="fill: #fff; fill-rule: evenodd; stroke-width: 0px;"/>
    <path d="m79.59,144.56v-16.49c-.67-.45-1.28-.84-1.85-1.16v17.61c.63,0,1.25,0,1.85.04Z" style="fill: #ffe100; fill-rule: evenodd; stroke-width: 0px;"/>
    <path d="m79.19,144.29h-.98v-.64h.98v.64h0Zm0-1.56h-.98v-.64h.98v.64h0Zm0-1.56h-.98v-.64h.98v.64h0Zm0-1.56h-.98v-.64h.98v.64h0Zm0-1.56h-.98v-.64h.98v.64h0Zm0-1.56h-.98v-.64h.98v.64h0Zm0-1.56h-.98v-.64h.98v.64h0Zm0-1.56h-.98v-.64h.98v.64h0Zm0-1.56h-.98v-.64h.98v.64h0Zm0-1.56h-.98v-.64h.98v.64h0Zm0-1.56h-.98v-.64h.98v.64Z" style="fill: #d09515; fill-rule: evenodd; stroke-width: 0px;"/>
    <path d="m76.76,144.55v-.71s-.97.78-.97.78c.33-.03.65-.05.97-.06h0Zm0-1.51l-2.82,1.79c-.16.03-.33.05-.49.08l.16-1.19,3.17-1.92v1.24h0Zm.01-1.93v-1.23s-2.89,1.75-2.89,1.75l-.19,1.42,3.08-1.93h0Zm.01-1.89l-2.8,1.72.19-1.42,2.62-1.56v1.25h0Zm.01-1.85v-1.3s-2.34,1.38-2.34,1.38l-.19,1.38,2.53-1.47h0Zm.01-1.87l-2.27,1.35.17-1.25,2.11-1.18v1.08h0Zm.01-1.94v-1.22s-1.83,1.14-1.83,1.14l-.18,1.34,2.01-1.26h0Zm.01-1.68l-1.76,1.06.17-1.28,1.6-.99v1.21h0Zm.01-2.1v-1s-1.33.85-1.33.85l-.14,1.01,1.46-.86h0Zm.01-1.72v-.93s-1.08.58-1.08.58l-.14,1.02,1.22-.67h0Zm0-1.53v-.09c-.3-.15-.59-.29-.86-.4l-.15,1.09,1.01-.59Z" style="fill: #fff; fill-rule: evenodd; stroke-width: 0px;"/>
    <path d="m70.13,142.35l3.42-17.41-.46.02c-.35,3.29-1.89,5.97-4.6,8.11v9.61s1.64-.31,1.64-.31Z" style="fill: #e60012; fill-rule: evenodd; stroke-width: 0px;"/>
    <polygon points="69.71 144.45 69.99 143.04 68.48 143.35 68.48 144.7 69.71 144.45" style="fill: #fff; fill-rule: evenodd; stroke-width: 0px;"/>
    <path d="m69.44,145.85l.18-.9-1.13.27v.92c.32-.11.64-.21.96-.3Z" style="fill: #e60012; fill-rule: evenodd; stroke-width: 0px;"/>
    <path d="m110.9,88.12c-.09-.13-.46-.65-.55-1.43-.11-.9.8-1.92,1.63-1.91.83.01,1.6.44,1.71,1.46.11,1.02-.18,1.8-.18,1.8,0,0,1.03.02,1.5.12.46.11.91,1.09.93,1.94.02.84-.52,1.48-1.1,1.52-.57.05-.99-.23-1.31-.15-.32.08-.12.63-.12,1.23.02.68-.28.97-.98,1.44v10.09s-.47.3-.47.3v-10.35s-.93.09-1.13-.9c-.2-.99.08-2.23.28-2.26v-.02s.98.95.98.95l2.56-2.48-2.56-2.49-1.18,1.14h0Zm-.12,2.57l-1.26-1.23,1.11-1.08c-.24-.21-.67-.48-1.22-.46-.86.04-1.39.95-1.42,1.64-.03.69.33,1.68,1.32,1.95,0,0,.82.18,1.47-.83Z" style="fill: #ffe100; fill-rule: evenodd; stroke-width: 0px;"/>
    <path d="m110.04,89.46l2.04-1.98,2.04,1.98-2.04,1.98-2.04-1.98h0Zm.66,0l1.38,1.34,1.38-1.34-1.38-1.34-1.38,1.34h0Zm.61,0l.76.74.76-.74-.76-.74-.76.74Z" style="fill: #e60012; fill-rule: evenodd; stroke-width: 0px;"/>
    <path d="m116.12,97.73l.06-2.21s-2.01,1.64-3.41,4.65v4.03s3.31-.41,3.35-6.47Z" style="fill: #ffe100; fill-rule: evenodd; stroke-width: 0px;"/>
    <path d="m111.5,101.48l-4.06-3.11s-.03,3.84,4.06,6.06v-2.96Z" style="fill: #ffe100; fill-rule: evenodd; stroke-width: 0px;"/>
    <path d="m112.85,102.63l-.09.09v1.02s.09-.07.09-.07c.37-.35,2.4-2.44,2.35-5.63v-.74s-.19,3.16-2.35,5.33Z" style="fill: #d09515; fill-rule: evenodd; stroke-width: 0px;"/>
    <path d="m111.5,103.67v-.91c-1.64-1.21-3.12-2.79-3.12-2.79,0,0,.43,1.63,3.12,3.69Z" style="fill: #d09515; fill-rule: evenodd; stroke-width: 0px;"/>
    <path d="m116.22,109.81c.03.09.08.17.18.17.02,0,.05,0,.07-.01v-.45c-.08.1-.16.2-.25.29h0Zm.25,3.58c-.26.57-.65,1.26-1.22,1.75-1.12.95-2.98,1.07-4.76.85-1.78-.22-2.32-.95-2.39-2.66-.07-1.71.76-4.2,1.9-5.98,0,0,1.09-1.74,2.09-1.9,0,0,.64,1.61,2.56.51,0,0-2.11,1.46-3.29,3.07,0,0-.08.64,0,1.22.08.57.15.86.07,1.34-.08.48-1,1.62-1,1.62,0,0,1.04-.71,1.46-1.8,0,0,.25.55.79.56,0,0-.29,1.41,1.04,1.55,0,0-.16,1.34.6,1.59.76.25,1.36-.72,1.26-1.17-.1-.45-.46-.74-.46-.74,0,0,.77-.31,1.33-1.11v1.32h0Zm0-3.03c-.08-.11-.18-.14-.31-.17-.1-.02-.18-.02-.24-.01-.05,0-.06.01-.09.05-.9.87-1.68,1.14-1.68,1.14l.23.25c.5.61.48,1.2.48,1.2.62-.21,1.22-.77,1.62-1.25v-1.21h0Zm-3.78-1.53c-.24,0-.44.17-.44.38s.2.38.44.38.44-.17.44-.38-.2-.38-.44-.38h0Zm-.1,2.69c1.42-.22,1.33-.5,1.33-.5-.04-.36-.63-.66-.95-.63-.32.04-.57,1.17-.57,1.17l.2-.04h0Zm1.8,1.06c-.02-.59-.45-.84-.97-.81-.52.04-.29.97-.29.97.46.76,1.32.48,1.26-.16h0Zm-.25,1.31c.09.33.07.97.5.92.3-.04.68-.47.63-.9-.05-.43-.45-.7-.79-.63-.34.07-.34.61-.34.61h0Zm-1.3-5.58c.59.25,1.17.88,1.17.88.21-.14.99-.88,1.26-1.23.27-.35.43-.73.37-.98-.07-.26-.46-.66-.77-.62-.31.04-2.25,1.84-2.25,1.84l.22.12h0Zm.86,1.86l-.19-.15s1.37-.97,2.36-2.24c0,0,.38.21.45.77.07.56-.36,1.32-1.87,2.26,0,0-.25-.32-.76-.65h0Zm.24-4.26c.16-.14.33-.36.36-.9.03-.54-.59-.69-.71-.56-.11.13-.48.34-.78.52-.3.17-.6.45-.12.79.48.35,1.13.21,1.13.21l.12-.07Z" style="fill: #fff; fill-rule: evenodd; stroke-width: 0px;"/>
    <path d="m106.38,100.09c-.57.9-3.13,4.98-4.68,9.19-1.76,4.76-1.89,9.13-2.04,12.08-.16,2.95-.15,6.63-1.67,10.56-1.43,3.7-4.47,8.42-10.67,10.18.31.08.81.23,1.48.46,5.39-3.01,5.63-3.81,7.81-6.48,2.25-2.77,3.56-9.02,3.66-12.2.11-3.18.51-7.84,1.24-11.13.73-3.29,2.48-7.28,3.63-9.31.72-1.27,1.36-2.22,1.75-2.75-.18-.21-.35-.41-.5-.59Z" style="fill: #fff; fill-rule: evenodd; stroke-width: 0px;"/>
    <path d="m89.42,142.79c.82-.47,3.36-1.99,4.93-3.46,1.88-1.77,3.77-4.45,4.8-7.39,1.03-2.93,1.25-5.79,1.53-8.9.28-3.12.3-7.46,2.14-13.32,1.45-4.62,3.26-7.56,4.25-8.81.18.21.37.42.58.64-.82,1.3-2.2,3.53-2.71,4.58l2.55,1.39-1.06,2.75-.81-.18.47-1.48-1.83-1.18-1.57,4.81,3.02,1.24-.74,3.45-.58-.1.46-2.28-2.38-.41-.81,5.6,2.92.42-.31,2.82h-.52l.07-1.87-2.34.05-.19,4.9,2.72.69-.36,3.44-.91-.05.32-2.34-2.14-.21s-.67,3.33-1.26,4.58l2.86,1.77-1.48,3.29-.63-.34.73-1.78-2.13-1.18s-1.14,2.65-1.79,3.46l2.13,2.41-2.12,2.69-.68-.66,1.35-1.3-1.87-1.7s-1.33,1.28-3.26,2.84l1.33,2.5s-.95.38-2.78-1.94l-1.1.86c-.27-.11-.53-.21-.77-.3h0Zm5.03,2.39c.51.29,1.03.6,1.57.94,5.07-4.43,7.06-8.19,8.23-11.14,1.2-3.02,1.51-8.95,1.63-11.7.12-2.75,1.26-11.98,3.08-15.02,1.23-2.06,2.21-2.75,2.72-2.99-.31-.25-.61-.5-.89-.74-.49.39-.92.85-1.31,1.35l-2.1-1.34,1.26-1.97c-.15-.15-.3-.29-.44-.44l-2.19,3.64,2.57,1.48c-.72,1.3-1.23,2.77-1.62,4.2l-2.43-.77.59-1.83-.45-.16-.99,3.08,2.91,1.14c-.17.75-.32,1.46-.45,2.11-.17.83-.33,1.78-.48,2.77l-2.31-.04.38-2.59-.61-.07-.59,3.97,2.9.3c-.21,1.59-.37,3.2-.48,4.53l-2.16-.23.06-1.64-.56-.02-.11,3.37,2.64.68c-.1,1.96-.35,4.34-.43,5.14l-2.67-.28.35-2.4-.51-.05-.85,3.41,2.81,1.64-2.03,4.97-2.12-1.21.74-1.86-.74-.35-1.14,2.3,2.19,2.35-3.19,4-1.93-1.89,1.4-1.3-.61-.59-2.32,1.93,1.98,3.61-1.3-.31h0Zm14.89-40.12l-1.22-.81,1-1.21c.34.32.7.65,1.09,1l-.88,1.02Z" style="fill: #fff; fill-rule: evenodd; stroke-width: 0px;"/>
    <path d="m96.37,146.35c1.7-1.41,4.83-4.42,6.81-7.98,2.29-4.12,2.85-8.43,2.92-10.63.07-2.2.22-5.77.53-8.26.31-2.49,1.03-5.46,1.03-5.46,0,0,.52,1.57,1.55,2.03,1.04.47,3.62.33,4.71.17,1.06-.15,2.15-1.35,2.54-2.13v28.34h0s-4.9,5.09-12,10.61c-2.81-2.91-5.6-5.08-8.09-6.69Z" style="fill: #112343; fill-rule: evenodd; stroke-width: 0px;"/>
    <path d="m108.12,116.7l-.27-.08s-.24,1.02.39,1.94c0,0-.16.5-.16,1s.39,1.25,1.14,1.33c.75.08,1.54-1.13,1.54-1.13,0,0,.23-.08.3.49.06.56.13,1.87.13,1.87h1.14s0-1.05,0-1.35.66-1.02.82-1.03c0,0-.23,1.29,1.23,1.56,0,0,.18,1.09.91,1.16.73.07.96-.66.93-.87-.03-.21-.18-.21-.24-.39-.06-.18-.03-.19-.01-.64.01-.44-.08-1.27-.72-2.31-.64-1.04-1.16-1.02-1.64-1.02s-.97.23-1.66.67c0,0-.46-.62-1.34-.74-.88-.12-1.63.09-2.49-.46h0Zm.5,1.16l-.13-.24s1.03-.07,1.59-.04c.56.04,1.32.5,1.68,1.27,0,0,1.03-1.12,1.92-1.04.9.08,1.46,1.12,1.83,2.7,0,0,.19,1.08-.15,1.16-.34.07-.52-.39-.75-.67-.22-.28-.93-.3-1.04-.95-.11-.65.13-1.27-.19-1.3-.32-.04-1.47,1.16-1.38,2.44h-.37s.02-1.98-.58-2.11c-.6-.13-.99.9-1.4.95-.41.06-.65-.2-.65-.8,0-.6-.04-1.03-.37-1.36h0Zm-2.43,15.65v-.12s-.27-.75-.25-1.31c.01-.57.31-.82.63-.81.31.01.94.6,1.19.71.24.11,1.64.07,2.54,1.09.91,1.02.95,1.71.95,1.71,0,0,1.07-.11,1.66-.06.59.04,2.4,1.24,2.42,3.01s-.21,2.33-.15,2.8c.06.48.28.43.28.88s-.35.74-.79.83c-.44.09-.72-.04-1.08-.51-.37-.47-.35-1.14-.35-1.14,0,0-1.11-.03-1.41-1.02-.3-.98.77-1.61.98-1.87.21-.26.17-.66-.4-.83-.57-.17-1.85-.14-2.43,1.48l-1.18-.82s.41-1.23.26-1.95c-.15-.72-.54-.72-.54-.72,0,0-.64,1.06-1.51,1.1-.87.03-.93-.61-1.03-1.13-.09-.51.09-1.06.23-1.33h0Zm.83.06l.15-.12s-.85-.86-.53-1.05c.31-.2,1.67.26,2.62.92.94.66,1.23,1.71,1.34,2.59,0,0,.89-.64,2.07-.48,1.18.17,2.06,1.37,2.06,3.94,0,0-.04.93.02,1.31.05.39.16.65-.04.75s-.77.1-.91-.61c-.14-.72-.04-.93-.04-.93,0,0-1.32-.19-1.28-.79.04-.6.58-.75,1.25-.68,0,0,.27-1.19-.71-1.93,0,0-.49-.35-1.4-.26-.91.09-1.8,1.29-1.8,1.29l-.36-.36s.41-1.11.11-2.03c-.3-.92-.95-1.13-1.38-1.1-.42.03-.54.44-.66.89-.12.45-.62.47-.93.14-.31-.33-.26-.89.39-1.48h0Zm5.74-7.28l.71.77.71.77-.66.77-.66.77-.71-.77-.71-.77.66-.77.66-.77h0Zm.13-2.46l1.16,1.44h.85v1.06s1.29,1.61,1.29,1.61l-1.29,1.54v1h-.84s-1.33,1.58-1.33,1.58l-1.27-1.58h-.84v-1.05s-1.19-1.49-1.19-1.49l1.19-1.41v-1.26h1.06s1.22-1.44,1.22-1.44h0Zm-11.31,21.17h-2.39s0,1.79,0,1.79h2.2v.83c0,.58.53,1.07.99,1.07s1.2-.26,1.27-1.13c.07-.86-.21-1.25-.21-1.25,0,0,.46-.47.48-1.28.02-.73-.37-1.32-.96-1.45-.46-.1-1.3.16-1.37.68-.09.65,0,.74,0,.74h0Zm-2.04,1.34l.04-.88h2.48s-.11-1.13.56-1.09c.67.04.88.72.6,1.11-.28.39-.48.48-.44.72s.14.69.19,1.2c.05.51-.33.58-.58.51-.25-.07-.53-.69-.46-1.56h-2.39Zm8.86-6.31l-.89-1.61-1.24,1.61h-1.09s0,1.16,0,1.16l-1.59,1.13,1.59,1.13v1.32s1.19,0,1.19,0l.92,1.97.98-1.97h1.28s0-1.26,0-1.26l1.45-1.07-1.45-1.1v-1.32s-1.14,0-1.14,0h0Zm.22,2.19l-1.45-1.33-1.37,1.77,1.47,1.27,1.35-1.71Z" style="fill: none; fill-rule: evenodd; stroke: #112343; stroke-linecap: round; stroke-linejoin: round; stroke-width: .38px;"/>
    <path d="m112.77,126.7l.52.57.52.57-.49.57-.49.57-.52-.57-.52-.57.49-.57.49-.57h0Zm-4.55,15.57l-1.06-.97-1,1.29,1.07.92.98-1.24Z" style="fill: none; fill-rule: evenodd; stroke: #112343; stroke-linecap: round; stroke-linejoin: round; stroke-width: .38px;"/>
    <path d="m87.45,145.01l.45,1.55c6.57,2.38,11.56,6.51,13.79,8.58.36-.26.71-.52,1.05-.77-5.58-5.67-13.2-8.62-15.29-9.35Z" style="fill: #e60012; fill-rule: evenodd; stroke-width: 0px;"/>
    <path d="m86.66,142.29c1.71.52,10.56,3.5,17.52,10.97-.36.28-.72.55-1.09.83-1.09-1.03-2.9-2.59-5.44-4.37-4.25-2.96-7.92-4.4-10.33-5.21l-.65-2.23Z" style="fill: #fff; fill-rule: evenodd; stroke-width: 0px;"/>
    <path d="m99.05,120.55c-.34-.5-1.08-1.85-1.45-2.75-.43-1.05.29-2.28,1.6.16-.02.28-.04.56-.06.84-.03.59-.06,1.18-.09,1.75h0Zm-.73-.09c-.13-.35-.36-.89-.94-1.78-.58-.9-1.03-1.02-1.48-.72-.45.3-.06.93-.06.93.56.93,1.82,2.25,1.82,2.25l.12-.76.65.28-.13-.2h0Zm-.99.98c-.82-.81-1.35-1.86-2.56-1.86-.45,0-.81.4-.18,1.16.63.76,1.9,1.67,1.9,1.67l.12-.79.72-.17h0Zm-1.6,1.74l.21.51s-.39-.01-1.69-.73c-1.84-1.02-1.11-2.37,0-1.7.83.51,2.04,1.69,2.04,1.69l-.55.23h0Zm-.35,1.56l.57-.5s-1.33-.56-2.17-.73c-.84-.17-1.18.21-1.23.63-.05.43.2,1.14,3.23,1.14l-.4-.54h0Zm-.04,1.59l.49-.57s-1.43-.09-2.19-.03c-.76.06-1.14.09-1.21.73-.07.64.42.84,1.5.76,1.08-.08,1.95-.34,1.95-.34l-.55-.54h0Zm.43,1.86l.26-.83s-1.42.19-2.2.53c-.78.34-.99.67-.99.95,0,.28.17.91.97.91s2.83-1.35,2.83-1.35l-.87-.21h0Zm.99.79l-.09.91.87.07s-.89.74-1.54,1.24c-.65.5-1.31.74-1.78.48-.48-.26-.44-1.02.34-1.52.65-.42,1.44-.99,2.21-1.17h0Zm.98,1.34c-.31.18-1.04.84-1.86,1.55-1.02.89-.66,1.65-.08,1.6.32-.02.66-.21.97-.49.39-.85.71-1.74.97-2.67Z" style="fill: #fff; fill-rule: evenodd; stroke-width: 0px;"/>
    <path d="m97.95,129.6c-1-.71-1.7-2.32-1.7-4.18,0-2.49,1.25-4.52,2.79-4.57-.02.39-.05.76-.07,1.14-.95.64-1.6,1.98-1.6,3.53,0,1.1.33,2.09.86,2.81-.09.43-.18.85-.28,1.26Z" style="fill: #fff; fill-rule: evenodd; stroke-width: 0px;"/>
    <path d="m98.34,127.73c-.47-.57-.68-1.38-.68-2.22,0-1.14.45-2.1,1.25-2.67-.13,1.7-.3,3.33-.57,4.88Z" style="fill: #e60012; fill-rule: evenodd; stroke-width: 0px;"/>
    <path d="m141.59,177.42c.08,3.32,2.52,5.73,6.32,5.73s7.24-3.22,7.43-7.84c.18-4.62-2.03-9.29-5.81-14.37-3.78-5.08-8.4-12.37-8.24-12.37s-4.45,7.29-8.24,12.37c-3.78,5.08-6,9.75-5.81,14.37.18,4.62,3.63,7.84,7.43,7.84s6.24-2.41,6.32-5.73c0,0-.02-.92.31-.9.35.03.29.67.3.9Z" style="fill: #e60012; fill-rule: evenodd; stroke-width: 0px;"/>
    <path d="m140.55,243.16c-6.94,0-12.62-5.68-12.62-12.62v-25.6c0-1.53.28-3,.78-4.36-.85-.61-1.73-.87-2.86-.81l-.26-5.61c2.8-.13,4.67.38,6.34,1.6,2.26-2.13,5.3-3.44,8.63-3.44,6.94,0,12.62,5.68,12.62,12.62v7.52c2.02.17,3.41.05,3.42.05l.4,5.61s-1.53.13-3.82-.04v12.46c0,6.94-5.68,12.62-12.62,12.62h0Zm0-5.61c3.86,0,7.01-3.15,7.01-7.01v-13.41c-3.88-1.05-8.2-3.13-11.34-7.19-1.15-1.49-1.98-2.61-2.68-3.56v24.16c0,3.86,3.16,7.01,7.01,7.01h0Zm7.01-26.26v-6.35c0-3.86-3.16-7.01-7.01-7.01-1.87,0-3.57.74-4.83,1.94.53.7,1.08,1.46,1.69,2.3,1.02,1.4,2.19,3.01,3.24,4.36,1.88,2.43,4.42,3.9,6.91,4.77Z" style="fill: #e60012; stroke-width: 0px;"/>
    <path d="m47.11,62.82c0-1.61,1.08-2.93,2.39-2.93h64.57c1.32,0,2.39,1.32,2.39,2.93v122.97c0,1.61-1.08,2.93-2.39,2.93H49.5c-1.32,0-2.39-1.32-2.39-2.93V62.82Z" style="fill: none; fill-rule: evenodd; stroke: #231815; stroke-miterlimit: 22.93; stroke-width: 1.5px;"/>
    <path d="m22.18,72.47c-.08-3.32-2.52-5.73-6.32-5.73s-7.24,3.22-7.43,7.84c-.18,4.62,2.03,9.29,5.81,14.37,3.78,5.08,8.4,12.37,8.24,12.37s4.45-7.29,8.24-12.37c3.78-5.08,6-9.75,5.81-14.37-.18-4.62-3.63-7.84-7.43-7.84s-6.24,2.41-6.32,5.73c0,0,.02.92-.31.9-.35-.03-.29-.67-.3-.9Z" style="fill: #e60012; fill-rule: evenodd; stroke-width: 0px;"/>
    <path d="m23.22,6.74c6.94,0,12.62,5.68,12.62,12.62v25.6c0,1.53-.28,3-.78,4.36.85.61,1.73.87,2.86.81l.26,5.61c-2.8.13-4.67-.38-6.34-1.6-2.26,2.13-5.3,3.44-8.63,3.44-6.94,0-12.62-5.68-12.62-12.62v-7.52c-2.02-.17-3.41-.05-3.42-.05l-.4-5.61s1.53-.13,3.82.04v-12.46c0-6.94,5.68-12.62,12.62-12.62h0Zm0,5.61c-3.86,0-7.01,3.15-7.01,7.01v13.41c3.88,1.05,8.2,3.13,11.34,7.19,1.15,1.49,1.98,2.61,2.68,3.56v-24.16c0-3.86-3.16-7.01-7.01-7.01h0Zm-7.01,26.26v6.35c0,3.86,3.16,7.01,7.01,7.01,1.87,0,3.57-.74,4.83-1.94-.53-.7-1.08-1.46-1.69-2.3-1.02-1.4-2.19-3.01-3.24-4.36-1.88-2.43-4.42-3.9-6.91-4.77Z" style="fill: #e60012; stroke-width: 0px;"/>
  </g>
</svg>