<?xml version="1.0" encoding="UTF-8"?>
<svg id="_图层_2" data-name="图层 2" xmlns="http://www.w3.org/2000/svg" viewBox="0 0 163.57 248.61">
  <g id="_图层_1-2" data-name="图层 1">
    <path d="m1,6.6c0-3.08,2.51-5.6,5.57-5.6h150.43c3.06,0,5.57,2.52,5.57,5.6v235.41c0,3.08-2.51,5.6-5.57,5.6H6.57c-3.06,0-5.57-2.52-5.57-5.6V6.6Z" style="fill: #fff; fill-rule: evenodd; stroke: #231815; stroke-miterlimit: 22.93; stroke-width: 2px;"/>
    <path d="m58.06,68.66c-.05-2.08-1.59-3.59-3.98-3.59-2.39,0-4.56,2.02-4.68,4.91-.12,2.89,1.28,5.81,3.66,8.99,2.38,3.18,5.29,7.74,5.19,7.74s2.8-4.56,5.19-7.74c2.38-3.18,3.78-6.1,3.66-8.99-.12-2.89-2.28-4.91-4.68-4.91-2.39,0-3.93,1.51-3.98,3.59,0,0,.01.58-.19.56-.22-.02-.18-.42-.19-.56Z" style="fill: #e60012; fill-rule: evenodd; stroke-width: 0px;"/>
    <path d="m105.51,179.95c.05,2.08,1.59,3.59,3.98,3.59,2.39,0,4.56-2.02,4.68-4.91.12-2.89-1.28-5.82-3.66-8.99-2.38-3.18-5.29-7.74-5.19-7.74s-2.8,4.56-5.19,7.74c-2.38,3.18-3.78,6.1-3.66,8.99.12,2.89,2.28,4.91,4.68,4.91,2.39,0,3.93-1.51,3.98-3.59,0,0-.01-.57.19-.56.22.02.19.42.19.56Z" style="fill: #e60012; fill-rule: evenodd; stroke-width: 0px;"/>
    <path d="m47.11,158c2.17,1.45,3.68,8.2,3.68,8.2-.58.58-.77,1.1-.74,2.04.04.94,1.03,1.79,1.03,1.79-1.13.8.07,1.73.07,1.73-1.03,1.27-1.23,3.46-1.23,3.46-.73-.62-1.77-.59-2.32.21-.21.3-.37.57-.48.77v2.37c.71.88,2.15.97,2.28.94.14-.03.13-.09.55.27.42.36.94.41.94.5s.2.44.2.44c.44.82,1.13.85,1.26.8.13-.05.31-.23.47-.11.16.13.44.47.86.49.42.02.52-.14.82-.23.3-.09.36.09.48.09s.47,0,1.06.04l.31.09c.55.96,1.2,2.42,2.17,2.44.98.02,1.73-1.16,1.73-1.16.9-1.34.82-3.15.82-3.15h4.35s-6.18,8.7-6.18,8.7h38.39s-6.97-10.07-6.97-10.07v-2.47s.56-3.07,1-4.02c0,0,.32-.76.93-.8.61-.04,1.52-.38,1.55-1.33.02-.95-.74-1.58-1.27-1.64-.54-.07-1.3.3-1.8.98,0,0,.74-3.66,1.15-4.35,0,0,.48,1.07,1.47,1.13,1,.06,3.07-1.08,1.41-5.33,0,0,10.21-2.52,21.37-13.23v-56.98c-2.18-1.45-3.68-8.2-3.68-8.2.58-.58.77-1.1.74-2.04-.04-.94-1.03-1.79-1.03-1.79,1.13-.8-.07-1.73-.07-1.73,1.03-1.27,1.23-3.46,1.23-3.46.73.62,1.77.59,2.32-.21.21-.3.37-.57.48-.77v-2.37c-.71-.88-2.15-.97-2.28-.94-.14.03-.13.09-.55-.27-.42-.36-.94-.41-.94-.5s-.2-.44-.2-.44c-.44-.82-1.13-.85-1.26-.8-.13.05-.31.23-.47.11-.16-.13-.44-.47-.86-.49-.42-.02-.52.14-.82.23-.3.09-.36-.09-.47-.09s-.47,0-1.06-.04l-.31-.09c-.55-.96-1.2-2.42-2.17-2.44-.97-.01-1.73,1.16-1.73,1.16-.9,1.34-.81,3.15-.81,3.15h-4.35s6.18-8.7,6.18-8.7h-38.39s6.97,10.07,6.97,10.07v2.47s-.56,3.07-1,4.02c0,0-.32.76-.93.8-.61.04-1.52.38-1.55,1.33-.02.95.74,1.58,1.27,1.64.54.07,1.3-.3,1.8-.98,0,0-.74,3.66-1.15,4.35,0,0-.48-1.07-1.47-1.13-1-.06-3.07,1.08-1.41,5.33,0,0-10.21,2.52-21.37,13.23v56.98h0Zm51.47-79.36l-1.42-3.92h5.64v.87s-1.12.1-1.5,1.32c-.39,1.22.67,2.25,1.62,2.23.95-.02,1.77-.79,2.27-3.28,0,0,.14.53.49.85,0,0-1.06.71-.71,1.89,0,0-1.46,1.7-.57,3.25,0,0-1.48,5.5-4.12,8.58h-.44s.97-1.3.99-3.6c.03-2.29-1.56-6.15-2.26-8.18h0Zm-33.58,91.34l1.42,3.92h-5.65v-.87s1.12-.1,1.5-1.32c.39-1.22-.67-2.25-1.63-2.23-.95.02-1.77.79-2.27,3.29,0,0-.14-.53-.49-.85,0,0,1.06-.71.71-1.89,0,0,1.46-1.7.57-3.24,0,0,1.48-5.5,4.12-8.58h.44s-.97,1.3-.99,3.6c-.03,2.29,1.56,6.15,2.26,8.18Z" style="fill: #112343; fill-rule: evenodd; stroke-width: 0px;"/>
    <path d="m88.7,103.14l-10.87,11.91c.16,1.36.28,2.76.36,4.2h7.36c.43-5.05,1.41-10.44,3.16-16.11Z" style="fill: #e60012; fill-rule: evenodd; stroke-width: 0px;"/>
    <path d="m78.18,119.25h7.36c-.03.33-.06.66-.08.99h0c-.22,3.19-.23,6.24-.07,9.12h-7.36c.03-.33.05-.66.08-.99h0c.23-3.19.23-6.24.07-9.12Z" style="fill: #112343; fill-rule: evenodd; stroke-width: 0px;"/>
    <path d="m116.46,133.25c-8.62,10.06-15.74,13.69-18.1,14.7,1.37,2.55,3.23,5.3,5.61,7.36.13-.07.26-.14.38-.21,4.57-2.58,6.71-4.52,9.13-6.64,1.03-.9,2.09-1.81,2.97-2.56v-12.65Z" style="fill: #ffe100; fill-rule: evenodd; stroke-width: 0px;"/>
    <path d="m98.89,148.9c.4.7.84,1.4,1.32,2.1,7.05-3.14,12.96-8.63,16.25-12.1v-3.72c-9.62,9.82-15.32,12.83-17.57,13.72h0Zm2.24,3.36c1.15-.58,5.46-2.84,9.07-5.96,2.74-2.37,5.01-4.7,6.27-6.04v3.89c-2.28,2.12-8,7.16-13.71,10-.58-.6-1.12-1.23-1.62-1.89Z" style="fill: #112343; fill-rule: evenodd; stroke-width: 0px;"/>
    <path d="m67.19,59.9l6.2,9.38s13.83-.26,22.24,1.5l7.68-10.88h-36.12Z" style="fill: #ffe100; fill-rule: evenodd; stroke-width: 0px;"/>
    <path d="m71.5,92.92l-.44-.97c.41.01,1.27.02,1.94-.11.9-.17,1.96-.81,2.6-2.38.64-1.58.44-2.27.27-2.27s-.24.2-.23.35c0,0-.15,1.46-.6,2.35-.43.86-1.54,1.99-4.18,1.63l-.44-.96c1.29.08,2.13-.07,3.17-.82,1.12-.8,1.42-2.33,1.44-2.81.03-.47.02-.75-.15-.73-.16.01-.23.15-.24.34-.01.19-.01,1.11-.49,1.99-.48.88-1.56,1.61-2.6,1.68-.71.05-1.15-.06-1.37-.13l-.49-1.08s.79.52,1.98.3c1.19-.21,2.44-1.37,2.35-3.25-.05-.93-.22-4.98-.38-8.83.44.38,1.11.71,1.73.66.75-.06,1.92-.5,1.92-.5,0,0-1.09,1.33-1.4,1.96-.31.62-.07.75-.07.75l1.64-1.98s-.49,2.5-.52,3.09c-.03.59.06.77.06.77.38.69,1.83,1.04,1.83,1.04l-1.6-1.49c.39-1.97,1.13-5.13.95-7.02-.18-1.9-1.63-2.55-2.91-2.44-.83.07-1.48.28-1.83.42-.05-1.1-.08-1.97-.1-2.45.9,0,8.01.04,14.8.64.16.58.57,2.11.84,2.86.34.94,1.5,5.13,2.31,7.7.81,2.57,1.12,5.03,1.14,5.69.02.66-.41,1.5-.41,1.5,0,0-.06-.83-.67-1.39.19-.72.34-1.8-.31-3.64-.71-2.03-1.28-3.09-1.28-3.09l-.4.17.17.23s1.35,2.61,1.54,4.04c.14,1.07.02,1.78-.05,2.06-.12-.07-.25-.13-.4-.17-.06-.02-.11-.03-.17-.04-.09-1.83-.69-3.2-1.04-3.82-.36-.63-.61-.96-.71-.94-.11.01-.34.23,0,.59s.95,1.57,1.15,2.41c.16.67.18,1.41.18,1.69-.23-.02-.43,0-.62.05,0-.28-.04-1.14-.08-1.69-.05-.67-.87-1.69-.87-1.69,0,0-.41.25-.32.33.09.08.65.79.79,1.33.14.55.04,1.59.04,1.59l-1.54-1.98-.35.3,1.71,2.14c-.32.27-.52.66-.62,1.09-.51-.38-1.08-1.21-1.4-1.72-.35-.57-.38-.73-.67-.69s-.15.38.53,1.31c.55.76,1.24,1.36,1.48,1.56-.05,1.03.44,2.13,1.42,2.37,0,0-.46.52-1.05,1.14.06-.86-.14-1.95-1.22-2.58-.02-.01-.05-.03-.07-.04-.27-.49-.9-1.65-1.12-2.07-.29-.55-.36-.8-.59-.76-.23.04-.02.46-.02.46l1.05,2.17c-.15-.01-.29,0-.43.02-.43-.34-1.22-1.28-1.47-1.62-.29-.39-.38-.49-.52-.35-.14.14.13.5.13.5.32.42,1.19,1.34,1.46,1.62-.27.15-.5.39-.65.7-.41-.17-1.02-.84-1.29-1.28-.29-.47-.29-.66-.56-.64-.27.02-.12.56.63,1.34.49.51.88.8,1.08.93-.03.09-.05.19-.06.29-.03.21-.05.39-.05.56-1.19-.28-1.85-1.82-2.02-2.34-.18-.55-.2-.66-.44-.59-.24.07.09.84.09.84,0,0,.87,2.13,2.39,2.5.08.62.32.91.32.91-2.66-.34-3.51-3.27-3.58-3.67-.07-.4-.63-.16-.49.09.13.25.4.83.4.83,0,0,.52,1.7,2.21,2.71,1.69,1.01,3.02.54,3.36.02.34-.51.47-1.48-.13-1.75-.61-.27-.99.04-1.04.18-.05.13.54.09.77.09s.34.25.27.72c-.07.47-.23.76-.72.81-.5.05-1.1-.58-.95-1.72.16-1.14.86-1.3,1.28-1.3s1.37.6,1.51,1.59c.09.62.02,1.1-.07,1.43-.57.59-1.17,1.16-1.52,1.4-.86.59-2.33.63-3.54-.63-1.21-1.27-1.52-2.25-2.04-3.56-.53-1.31-.86-1.35-1.12-1.33-.26.02-.57.13-.89,1.5-.32,1.36-.8,1.5-1.15,1.5,0,0,.71-1.95.76-2.41,0,0,.09-.43-.14-.41-.23.02-.32.44-.53,1.42-.21.97-.99,2.94-2.64,2.55,0,0,1.65-1.68,1.97-3.86,0,0,.02-.37-.12-.37s-.23.14-.44.96c-.21.81-.96,2.51-1.97,3.19-1.01.67-2.62.53-3.05.48h0Zm1.53-15.35v-3.57s-.15,2.38-1.27,3.31c.21.49.46,1.17.14,1.14-.3-.03-.45-.68-.49-.91-.08.04-.16.07-.25.09,0,0-.92-.07-1.16.65-.24.72.23,1.46.94,1.48.72.02,1.93-1.32,2.07-2.19h0Zm.4-3.41s.72-.25,1.29-.38c.57-.12,1.21-.23,1.6-.08.39.15.87.08.87.08-.5-.6-1.1-1.13-2.3-.96-1.2.17-1.42,1.19-1.42,1.19l-.04.15h0Zm.47.79c.88-.14,3.09-.4,3.66.46-.04-1.62-3.58-1.72-3.82-.44l.16-.02h0Zm-.24,1.34c-.1,0-.19.09-.19.19s.09.19.19.19.19-.09.19-.19-.08-.19-.19-.19h0Zm3.38.25c-.11,0-.19.09-.19.19s.09.19.19.19.19-.09.19-.19-.08-.19-.19-.19h0Zm-2.86-.52c.14.74.38,1.5,1.3,1.46.72-.03,1.04-1.3,1.04-1.3h-.41s-.19.93-.82.85c-.63-.08-.77-1-.77-1h-.35Zm-1.02,2.94l-.04-.52s-.38,2.51-.82,3.95c-.44,1.44-1.07,2.66-1.72,2.85-.65.19-1.5.06-1.6-.36-.1-.42.21-.46.38-.46s.44.24.86.23c.42,0,.53-.43.46-.79-.06-.36-.65-.68-1-.67-.35.01-.98.39-1.08,1.41-.11,1.02.71,1.74,1.45,1.79.75.05,1.6-.18,2.11-1.4.51-1.22,1.29-3.15,1-6.02h0Zm-4.1,7.4l-.31-.21s0,1.54,2.07,1.54c2.07,0,2.81-3.59,2.62-5.32,0,0-.56,2.44-1.45,3.57-.89,1.13-2.31.9-2.93.41h0Zm.19,1.33c.17,1.86,3.21,1.53,3.95.19.46-.82.41-2.79.41-2.79-.6,2.08-1.69,2.94-2.5,3.02-.81.08-1.86-.41-1.86-.41h0Zm7.07-3.83l-.13-.1-.12,1.98s.49-.4.98-.54c.49-.13,1.01.14,1.43.34.42.2.84.2,1.16.15.32-.05.72-.64,1.09-.67.37-.03,1.23.54,1.23.54v-1.68s-.15.39-.61.42c-.45.03-.49,0-.71,0s-.59-.24-.59-.24c0,0-.37.2-.64.24h-.47c-.19,0-.4-.35-.52-.35s-.74.32-1.01.34c-.27.02-.67.03-1.09-.42h0Zm1.31,2.55c.35.31.92.86,1.63.76.72-.1,1.15-.74,1.15-.74-1.71.64-2.72-.19-2.72-.19l-.06.18h0Zm.52-4.62s.28-.1.51-.06c.23.04,1.01.58,1.37.85.36.28,1.15.47,1.53.13.37-.34.63-1.04.51-1.63-.12-.59-.77-1.11-.77-1.11l-.33.35s.69.43.66,1.07c-.02.64-.79,1.04-1.36.68-.57-.36-1.21-1.13-1.5-1.14-.29-.01-.71.89-.71.89l.1-.04h0Zm10.11-8.13c-2.07-2.21-5.6-2.22-6.33-1.89s-1.63.99-1.32,1.3c.31.31.94.05.94.05.75-.52,1.9-.72,3.17-.5,1.27.22,2.67,1.02,2.99,1.22.32.2.7.03.7.03l-.16-.2h0Zm-6.39,3.96c.49.71,1.07,1.43,1.61,1.7.54.27.68-.16.68-.16l-1.67-1.64h1.78c1.48,0,2-.92,2-.92l1.8-.02.14-.21c-.71-.7-2.48-1.84-4.04-1.99-1.56-.14-2.62.29-2.62.29,1.07-.86,2.23-1.24,3.66-.79,1.43.44,2.94,1.84,2.94,1.84l.27-.13c-1.75-1.97-4.12-2.65-5.5-2.27-1.38.38-1.7,1.19-1.88,1.35-.17.16-.65-.19-.65-.19l-.43.38,1.91,2.75h0Zm.24-1.66c-.11,0-.19.09-.19.19,0,.11.09.19.19.19s.19-.09.19-.19c0-.11-.09-.19-.19-.19h0Zm3.39.3c-.11,0-.19.09-.19.19s.09.19.19.19.19-.09.19-.19-.09-.19-.19-.19h0Zm-.47-.42h-.41c-.13.4-.41.93-.93.93-.46,0-.69-.55-.79-.93h-.34s.2,1.3,1.14,1.3,1.26-1,1.34-1.3h0Zm5.33,13.63c.18-.03.51-.14.89-.33.39-.19.35-.61.35-.61-.02-1.2-.94-1.88-1.8-1.76-.86.12-1.52,1.01-1.19,2.42.33,1.41,1.57,1.6,2.2,1.53.63-.07,2.33-.57,2.64-1.77.31-1.2.4-3.16-.28-5.37-.68-2.21-1.1-3.63-1.88-6.23-.69-2.3-1.79-5.81-2.03-6.58-.26-.03-.52-.05-.77-.07.4,1.29,2.39,7.62,3.21,10.64.92,3.37,1.25,5.63.95,6.71-.31,1.08-1.8,1.82-2.36,1.8-.57-.02-.89-.76-.91-1.18-.02-.42.13-.42.28-.42s.15.15.19.64c.05.5.32.58.32.58h.19Zm-.8-18.68c.31.95,2.06,6.22,3.03,9.51,1.07,3.63,1.65,5.38,1.51,7.41-.14,2.03-1.23,2.8-2.01,3.08,0,0,2.15.42,2.82-1.91.67-2.33-.71-6.48-1.75-9.69-.92-2.84-2.21-6.95-2.9-8.32-.24-.03-.47-.05-.71-.07h0Zm1.11.12c.29.76,1.15,3.02,1.77,4.86.76,2.26,2.01,5.99,2.61,8.45.6,2.46.48,5.43-.54,6.17,0,0,.97.32,1.63-.83.67-1.15.19-4.27-.58-6.67-.71-2.21-3.68-10.6-4.13-11.9-.25-.03-.5-.06-.75-.09h0Zm1.14.14c.42,1.1,2.67,7.07,3.77,10.8,1.22,4.12,1.08,4.44,1.16,5.73.08,1.3-.23,2.32-.72,2.8h.83s1.24-1.86.71-4.87c-.48-2.74-4.12-12.38-5.11-14.39-.21-.03-.43-.06-.65-.08h0Zm1.08.15c.39.06.78.12,1.16.18.46,1.16,2.02,5.12,2.87,7.77,1.01,3.14,2.08,5.43,2.13,7.78.05,2.34-.98,3.5-.98,3.5h-.8c.93-1.18.83-4.06.75-4.99-.08-.93-.76-3.06-2.11-6.66-1.12-3-2.57-6.49-3.02-7.57h0Zm1.63.26c.32.06.64.11.95.18.63,1.67,3.1,8.28,3.73,10.23.72,2.23,1.18,2.99,1.08,5.21-.1,2.22-1.03,3.29-1.03,3.29h-.58c.89-1.48.77-4.11.67-4.89-.1-.79-.91-3.24-2.07-6.64-1.04-3.07-2.48-6.68-2.76-7.37Z" style="fill: #fff; fill-rule: evenodd; stroke-width: 0px;"/>
    <path d="m71.15,65.89c.33-.01,1.16-.12,1.62-.89,0,0,.56.63,1.32.58.76-.06,1.08-.85,1.22-1.27,0,0-1.36.18-1.55-.84-.2-1.02.61-1.64,1.21-1.6,0,0-.19-1.68,1.1-1.85,0,0,1.07-.09,1.15,1.7,0,0,1.49.42,1.46,1.43-.04,1.01-.93,1.12-1.35,1.12.24,1.14,2.2,1.12,2.72.31,0,0,2.05,1.55,3.25.19,0,0-.94-.21-1.47-1.05-.53-.84.37-1.79,1.29-1.83,0,0-.5-1.87,1.05-1.96,1.55-.1,1.24,2,1.24,2,0,0,1.67-.02,1.59,1.16-.09,1.18-1,1.41-1.77,1.36,0,0,.5,1.08,1.47,1.19.97.12,1.56-.79,1.56-.79,0,0,.78.96,1.8.94,1.02-.01,1.31-.94,1.31-.94,0,0-1.41-.52-1.31-1.46.09-.94,1.09-1.05,1.61-1.05,0,0-.11-1.83,1.13-1.73,1.23.1,1.51,1.03,1.22,2.25,0,0,1.54.38,1.43,1.35-.11.98-.91,1.26-2.12.94,0,0,1.01,1.67,2.54.56,0,0,1.15,1.42,2.41.39,0,0-.99-.34-1.12-1.1-.13-.76.79-1.69,1.78-1.3,0,0,.28-1.13,1.05-1.36.54-.15,1.03.26,1.28.53l-2.93,4.14c-.27.15-.62.28-1.04.33-1.14.13-2.47.12-3.34-.46-.87-.58-1.33-1.54-1.3-2.07.03-.53.55-1.03.52-1.47-.03-.44-.19-.64-.64-.64,0,0-.54-.02-.57.61-.03.63.12,1.43-.53,2.27-.65.84-1.41,1.32-2.63,1.32-1.22,0-2.26-.28-3.16-1.08-.89-.79-.95-1.56-.92-2.23.03-.67.14-1.18-.38-1.26-.52-.08-.58.23-.5.91.09.68.28,1.3-.36,2.15-.64.85-2,1.41-3.06,1.5-1.06.09-2.67-.52-3.65-2.21,0,0-.36-.7-.4-1.13-.04-.43.24-.42.24-.88,0-.46-.19-.43-.58-.46-.39-.03-.72.16-.69.43.03.27.37.7.42,1.31.05.61-.07,1.9-1.56,2.46-.98.37-1.99.26-2.57.14l-.43-.66h0Zm-3.12-4.72l2.49,3.77c.87-.58.82-1.37.82-1.37-.09-1.07-1.78-.87-1.78-.87.13-1.18-.31-1.7-.9-1.7-.3,0-.5.09-.63.18h0Zm4.32,6.54l1.04,1.58s13.83-.26,22.24,1.5l2.14-3.04c-.66.47-1.64.97-2.68.76-1.81-.36-2.73-3.18-2.73-3.18,0,0-2.24,2.87-4.44,2.86-2.2-.01-3.61-3.46-3.61-3.46-1.47,2.69-3.23,3.74-4.95,3.07-1.71-.67-3.33-2.82-3.33-2.82,0,0-.52,1.78-1.56,2.36-.8.44-1.74.41-2.13.38Z" style="fill: #112343; fill-rule: evenodd; stroke-width: 0px;"/>
    <path d="m96.55,73.5h2.21v.65h-1.93s-.27-.65-.27-.65h0Zm-.46-1.11h2.67v.65h-2.4s-.27-.65-.27-.65h0Zm.06-1.1h2.61v.65h-2.85s-.08-.19-.08-.19l.32-.46h0Zm.86-1.23h1.75v.78h-2.3s.54-.78.54-.78h0Zm.77-1.1h.99v.78h-1.53s.54-.78.54-.78h0Zm1.57,0h3.19v.79h-2.36s0,3.57,0,3.57h2.49v.8h-3.32v-5.16h0Zm2.22,2.11c-.29,0-.53.25-.53.56s.24.56.53.56.53-.25.53-.56c0-.31-.24-.56-.53-.56Z" style="fill: #fff; fill-rule: evenodd; stroke-width: 0px;"/>
    <path d="m103.28,76.01l.19-.02s-.21-2.86-.35-5.61c-.15-2.75.65-5.43,1.85-5.47,1.2-.03,1.23,1.85,1.23,2.1,0,.25-.6.37-1.18.53-.58.17-.73.35-.73.35l.83.67s-.54,4.31-.11,6.12l-.25.07s.03,1.94-1.02,3.29c0,0-.4.47-.87.49-.47.03-.92-.42-.97-1.19-.04-.77.59-1.18,1.38-1.33Z" style="fill: #ffe100; fill-rule: evenodd; stroke-width: 0px;"/>
    <path d="m109.69,71.62c.33,0,.59.26.59.59,0,.32-.27.59-.59.59s-.59-.26-.59-.59.26-.59.59-.59h0Zm-1.7-.6c.33,0,.59.26.59.59s-.27.59-.59.59-.59-.26-.59-.59.27-.59.59-.59h0Zm5.24.42l-.8-.02v.94s.8.45.8.45v-1.36h0Zm.18-2.02l-1-.48.1,2.06h.87s.04-1.58.04-1.58h0Zm-7.91-1.25l-.44-.27s.45-.04.67-.1c.23-.06.45-.38.76-.46.31-.07.44.07.45.36.01.29-.29.93-.66,1.07-.37.14-.84.06-.79-.59h0Zm2.01-.44l-.17-.39s1.58-.08,1.64.84c.07.92-.31,2.47-.31,2.47l-1.04.03s.14-1.79-.12-2.94h0Zm1.88,1.13v-.29s.08-.31-.04-.56c-.11-.25-.08-.58.29-.63.37-.06.69.1.71.83.02.73.08,3.21.08,3.21,0,0-.19-.27-.56-.25s-.67.14-.67.14c0,0-.06-.75.06-1.4.12-.65.13-1.04.13-1.04h0Zm1.52,2.36l-.04-2.1s-.08-.6-.08-.94.15-.41.46-.44c.31-.04.67.25.73.85.06.6.04,2.9.04,2.9,0,0-.44-.31-1.12-.27h0Zm-4.52-2.09h-1.04s-.24,2.77-.12,4.49c.12,1.71.44,3.23,1.73,3.55,1.29.32,4.86-.4,4.86-.4,0,0,1.27-2.36,1.07-3.39,0,0-.58-.08-1.15.1-.57.18-1.63.73-2.18.6,0,0,.14-.28.52-.34.38-.06.51-.36.51-.75,0,0-.36,0-.52.18-.16.18-.85.18-1.17-.14,0,0,0,.49.06,1.11.06.62.04,1.39-.12,1.51,0,0,.5-1.86-1.84-3.15,0,0-.04-1.05.06-1.65.1-.6.24-1.73.15-2.65,0,0-.33.8-.82.92h0Zm5.07,2.46c.33,0,.59.26.59.59s-.26.59-.59.59-.59-.26-.59-.59c0-.32.26-.59.59-.59Z" style="fill: #fff; fill-rule: evenodd; stroke-width: 0px;"/>
    <path d="m114.83,72.54l-.71-.04s-.62-.01-.63-.67c-.01-.65.49-.91.49-.91,0,0,.25-.89.61-.89s1.08.3,1.16.8c.08.5-.15,1.46-.93,1.71Z" style="fill: #d09515; fill-rule: evenodd; stroke-width: 0px;"/>
    <path d="m114.81,70.21h-.23s.39.33.4.92c.02.59-.16.65-.35.65s-.78-.3-.85-.59c-.06-.29,0-1.43,0-1.43,0,0,.99-.11,1.7.22.7.33.82.7.82,1.08s-.32,1.05-.64,1.56c-.32.51-.45.53-.74.56-.29.03-1.01-.19-1.17-.38-.16-.19-.16-.56.29-.52.45.03.9-.06,1.19-.29.29-.22.22-.81.21-1.13-.01-.32-.38-.57-.62-.65Z" style="fill: #ffe100; fill-rule: evenodd; stroke-width: 0px;"/>
    <path d="m112.07,79.4c.22,0,.4.46.4,1.02s-.18,1.02-.4,1.02-.4-.46-.4-1.02c0-.56.18-1.02.4-1.02h0Zm-2.6,3.33c-.35,1.75-.91,2.68-.91,2.68-.36-.42-.88-1.85-1.17-2.7-.38-.03-.72-.07-1.02-.11.35,1.24,1.42,4.82,2.19,5.22,0,0,1.13-.92,1.43-5.11-.18.01-.35.02-.52.03h0Zm-.77-2.67c.3,0,.55.43.55.96s-.25.97-.55.97-.55-.43-.55-.97c0-.53.25-.96.55-.96h0Zm-6.5,9.77l-.53.23s2.82-2.46,4.33-6.74c0,0,1.44,4.73,2.54,5.03,0,0,1.48-.13,1.94-5.08,0,0,1.79,4.35,3.6,5.98l-3.47-2.19-1.91,3.12s-2.24-3.24-2.49-3.42c-.25-.18-.53.3-1.11.83-.58.53-2.09,1.76-2.89,2.24h0Zm2.59-7.67c-.34,1.16-1.44,4.77-2.48,6.33,0,0,2.54-2.33,3.51-6-.48-.11-.81-.23-1.03-.33h0Zm6.02.49c.43,1.07,1.76,4.17,3.4,6,0,0-1.2-3.08-1.98-6.15-.5.06-.98.11-1.42.15h0Zm-.38-2.93c.3,0,.55.5.55,1.12,0,.62-.24,1.12-.55,1.12s-.55-.5-.55-1.12c0-.62.25-1.12.55-1.12h0Zm-5.01-.88c-.64.35-1,1.64-.79,2.44.16.62,1.9,1.07,3.2,1.07,1.3,0,3.78-.14,4.42-.29.64-.14.74-1.58.68-2.05-.06-.47-.68-1.05-1.12-.99-.43.06-1.14.25-3.14.35-2.01.1-3.26-.53-3.26-.53h0Zm1.56.9c.3,0,.55.47.55,1.04,0,.57-.25,1.04-.55,1.04s-.55-.47-.55-1.04c0-.57.25-1.04.55-1.04h0Zm-1.59-.29c.26,0,.46.39.46.87s-.21.87-.46.87-.47-.39-.47-.87c0-.48.21-.87.47-.87h0Zm1.59-1.9c.96.14,1.85.08,2.82-.08,1.22-.2,1.64-.3,1.93-.26.28.04.55.26.57.56.02.3-.37.67-.87.85-.51.18-2.03.36-3.1.36-1.08,0-2.62-.4-2.92-.56-.3-.16.08-1.11.39-1.11s.73.2,1.2.24h0Zm.41,5.16c.58.04,1.27.06,2.08.03-.35,1.75-.91,2.68-.91,2.68-.36-.42-.88-1.85-1.17-2.7Z" style="fill: #ffe100; fill-rule: evenodd; stroke-width: 0px;"/>
    <path d="m114.38,90.15l-3.73-2.22-1.34,2.22h5.07Zm-6.36.05l-2.03-2.77s-1.51,1.86-3.32,2.77h5.35Z" style="fill: #e60012; fill-rule: evenodd; stroke-width: 0px;"/>
    <path d="m71.86,93.73c.82.02,2.1-.09,2.91-.64,0,0,1.05.54,1.84-.09.79-.62.85-.76,1.3-.85.45-.09,1.27-.68,1.5-1.53.23-.85.34-1.61.34-1.61,0,0,1.93,5.8,5.24,5.97l-9.11,9.86c-1.23-4.61-2.74-8.37-4.03-11.12Z" style="fill: #e60012; fill-rule: evenodd; stroke-width: 0px;"/>
    <path d="m77.4,111.98l.44-.55-.6-.43c.06.32.11.65.16.97h0Zm13.44-20.98h-1.07s-13.72,14.47-13.72,14.47c.1.41.21.82.31,1.24l14.49-15.71h0Zm1.5,0l-1.11,1.9-.08.14.11.13.66.74-.28.8-1.05-.94-.17-.15-.16.16-1.9,2-.16.16.16.16,1.88,1.88-1.82,2.06-.84-.87.79-.91.13-.15-.12-.15-.81-.99-.16-.2-.18.18-2.16,2.11-.15.15.14.16,1.81,2.14-1.53,1.64-.54-.55.71-.92.12-.15-.13-.14-.96-1.04-.16-.18-.17.17-2.2,2.21-.15.15.14.16,1.63,1.9-1.42,1.65-.51-.47.58-.64.13-.15-.13-.16-1.05-1.28-.18-.22-.18.21-1.94,2.28-.12.15.12.15,1.68,2.03-1.28,1.47-.73-.65.78-.8.14-.15-.13-.16-.9-1.09-.15-.19-.18.16-1.43,1.27c-.07-.32-.14-.64-.21-.95l14.99-16.25h.87Zm-2.15,7.74c-.25.69-.5,1.37-.73,2.06l-11.84,12.61c-.04-.27-.08-.54-.12-.81l.86-1.07.15-.19-.2-.14-1.19-.84c-.1-.55-.21-1.1-.32-1.63l1.45-1.29.61.74-.8.83-.17.17.18.16,1.09.96.18.15.15-.18,1.56-1.8.13-.15-.12-.15-1.68-2.03,1.63-1.92.74.91-.6.66-.15.17.17.16.86.79.18.16.16-.18,1.7-1.98.13-.15-.13-.15-1.62-1.89,1.88-1.88.66.72-.71.92-.12.16.14.14.86.87.17.17.17-.18,1.83-1.97.14-.15-.13-.16-1.8-2.13,1.82-1.78.52.65-.8.92-.14.16.15.15,1.16,1.21.17.18.17-.19,1.6-1.81h0Zm1.37-3.47c-.34.81-.67,1.62-.98,2.42l-1.75-1.75,1.59-1.68,1.13,1h0Zm1.93-4.27h-.79s.14.08.14.08l-1.12,1.91.56.63c.38-.87.79-1.74,1.21-2.61Z" style="fill: #ffe100; fill-rule: evenodd; stroke-width: 0px;"/>
    <path d="m96.66,93.43c.32,0,.58.26.58.58,0,.32-.26.58-.58.58s-.58-.26-.58-.58c0-.32.26-.58.58-.58h0Zm-2.61-2.21c-17.6,34.83-1.14,64.52.91,67.99.61-.21,1.76-.61,3.17-1.18l-1.23-.91.96-.07-.04-1.16.88.49.45-.9.48,1.93c1.12-.48,2.32-1.03,3.51-1.65-3.49-3.83-4.72-6.14-5.77-8.29-1.12-2.27-2.78-6.41-2.78-6.41l-2.8-.16-.35,2.1-2.16-2.88.96-.05c.1-.53.32-1.16.32-1.16-.62-.05-1.61-.44-1.66-.99-.05-.54.36-.84.36-.84,0,0-.8-.48-.75-1.34.05-.86,1.09-1.18,1.09-1.18-.47-1.18.17-2.08,1.4-1.98.15-.72.97-.94.97-.94-1.1-5.23-1.09-11.15-.34-16.49-.08.21-.29.35-.53.35-.31,0-.57-.25-.57-.56s.25-.56.57-.56c.29,0,.53.22.56.51.53-3.64,1.39-7.01,2.48-9.7,2.77-6.86,9.06-13.96,9.06-13.96h-4.34s-.45,2.17-.45,2.17l-.69-.69-.74.44v-.82s-1.03,0-1.03,0l1.04-1.11h-2.94Zm-.64,8.32c.31,0,.57.25.57.56s-.25.56-.57.56-.57-.25-.57-.56.25-.56.57-.56h0Zm-3.12,4.76l2.69-3.23-.11,4.2-.69-.74-.93.88v-1.31s-.95.2-.95.2h0Zm5.34,42.58c.31,0,.57.25.57.56,0,.31-.25.56-.57.56s-.57-.25-.57-.56c0-.31.25-.56.57-.56h0Zm1.14,7.65l-2.89-2.35,1.03-.1v-1.22s.93.49.93.49l.8-.54.14,3.73h0Zm.39.08c.31,0,.57.25.57.56,0,.31-.25.56-.57.56s-.57-.25-.57-.56.25-.56.57-.56h0Zm-2.88-60.96c.32,0,.58.26.58.58,0,.32-.26.58-.58.58s-.58-.26-.58-.58c0-.32.26-.58.58-.58h0Zm-1.9,14.27c.31,0,.57.25.57.56,0,.31-.25.56-.57.56s-.57-.25-.57-.56.25-.56.57-.56h0Zm-.19,40.8c.31,0,.57.25.57.56,0,.31-.25.56-.57.56s-.57-.25-.57-.56.25-.56.57-.56h0Zm2.54-47.05c.31,0,.57.25.57.56s-.25.56-.57.56-.57-.25-.57-.56.25-.56.57-.56h0Zm-3.59,4.03c.31,0,.57.25.57.56,0,.31-.25.56-.57.56s-.57-.25-.57-.56.25-.56.57-.56h0Zm-2.53,13.11c.31,0,.57.25.57.56s-.25.56-.57.56-.57-.25-.57-.56c0-.31.25-.56.57-.56h0Zm-1.52,10.77c.31,0,.57.25.57.56,0,.31-.25.56-.57.56s-.57-.25-.57-.56.25-.56.57-.56h0Zm2.76,12.93c.31,0,.57.25.57.57,0,.31-.25.56-.57.56s-.57-.25-.57-.56c0-.31.25-.57.57-.57h0Zm-.23-30.2c.31,0,.57.25.57.56,0,.31-.25.56-.57.56s-.57-.25-.57-.56c0-.31.25-.56.57-.56h0Zm.28,5.86l-.62-.54-.71.74-.05-.83-1.12.24,2.19-3.99.31,4.38h0Zm2.02,25.11c.31,0,.57.25.57.56,0,.31-.25.56-.57.56s-.57-.25-.57-.56.25-.56.57-.56h0Zm2.22,5.42l-2.85-2.64,1-.07-.02-1.36.93.58.81-.73.15,4.22h0Zm1.22-48.97l-.64-.86-1.14.42.09-1.02-1.03-.19,3.53-3.23-.8,4.87h0Zm-4.15-.39c.31,0,.57.25.57.56,0,.31-.25.56-.57.56s-.57-.25-.57-.56c0-.31.25-.56.57-.56h0Zm-4.31,21.34c.31,0,.57.25.57.56,0,.31-.25.56-.57.56s-.57-.25-.57-.56c0-.31.25-.56.57-.56h0Zm4.22-8.98l-.73-.63-.85.9-.17-1.2-.96.28,2.26-3.53.45,4.19h0Zm3.92,43.46c.31,0,.57.25.57.56,0,.31-.25.56-.57.56s-.57-.25-.57-.56c0-.31.26-.56.57-.56h0Zm2.62-59.25c.32,0,.58.26.58.58,0,.32-.26.58-.58.58s-.58-.26-.58-.58.26-.58.58-.58h0Zm-10,17.33c.31,0,.57.25.57.56,0,.31-.25.56-.57.56s-.57-.25-.57-.56c0-.31.25-.56.57-.56h0Zm1.03,11.81c.31,0,.57.25.57.56s-.25.56-.57.56-.57-.25-.57-.56c0-.31.25-.56.57-.56h0Zm-.51,11.71c.31,0,.57.25.57.56s-.25.56-.57.56-.57-.25-.57-.56.25-.56.57-.56h0Zm2.45-7.36c.31,0,.57.25.57.56s-.25.56-.57.56-.57-.25-.57-.56.25-.56.57-.56h0Zm3.18,12.06c.31,0,.57.25.57.56,0,.31-.25.56-.57.56s-.57-.25-.57-.56c0-.31.25-.56.57-.56h0Zm-3.3-20.91c.31,0,.57.25.57.56,0,.31-.25.56-.57.56s-.57-.25-.57-.56.25-.56.57-.56h0Zm-2.27,7.04l.44-1.2.73.84.97-.41-1.33,4.04-1.74-3.37.94.1h0Zm10.3,24.54c.31,0,.57.25.57.56,0,.31-.25.56-.57.56s-.57-.25-.57-.56c0-.31.26-.56.57-.56h0Zm-9.47-45.67c.31,0,.57.25.57.56s-.25.56-.57.56-.57-.25-.57-.56.25-.56.57-.56h0Zm.88,18.27l-1.01-.51-.2.58-.7-.66-.81.86,1.45-4.66,1.26,4.39h0Zm4.5,24.8c.31,0,.57.25.57.56,0,.31-.25.56-.57.56s-.57-.25-.57-.56c0-.31.25-.56.57-.56h0Zm-5.36-18.4c.31,0,.57.25.57.56s-.25.56-.57.56-.57-.25-.57-.56c0-.31.25-.56.57-.56Z" style="fill: #fff; fill-rule: evenodd; stroke-width: 0px;"/>
    <path d="m101.1,94.75c.5.45,1.86,1.74,2.79,3.15,1.15,1.74,2.99,5.3,2.81,12.36-.19,6.97-3.79,16.42-14.37,20.16-.04-.34-.1-.76-.15-1.26,6.96-2.98,11.94-8.98,13.03-16.04,1.11-7.22-1-12.08-2.28-14.29-1-1.72-2.2-2.6-2.69-2.9.3-.41.58-.81.86-1.18Z" style="fill: #ffe100; fill-rule: evenodd; stroke-width: 0px;"/>
    <path d="m92.17,129.17c-.4-3.61-.86-11.18.93-18.68,1.32-5.54,4.48-10.83,7.14-14.55.49.3,1.69,1.19,2.69,2.9,1.28,2.21,3.39,7.06,2.28,14.29-1.09,7.06-6.07,13.07-13.03,16.04Z" style="fill: #112343; fill-rule: evenodd; stroke-width: 0px;"/>
    <path d="m94.37,106.49c.22.35.55,1.03.69,2.16.21,1.73.74,5.89-3.02,8.5-.04.47-.08.94-.11,1.4.63-.4,2.47-1.75,3.48-4.16,1.2-2.84,1.14-6.81-.52-9.17-.18.42-.36.85-.52,1.27h0Zm-2.36,20.93c-.03-.38-.06-.79-.08-1.21.56-.41.38-1.46.38-1.46l1.8-.81c1.19,1.25,1.92.82,2.16.17.24-.65.26-2.38.26-2.38l1.67-1.57s.61.28,1.22.19c.61-.09,1.04-.7,1.04-1.34,0-.64-.52-1.43-.52-1.43l.84-2.92s.14-.01.77-.31c.63-.29.93-.79.86-1.57-.07-.79-.96-1.28-.96-1.28l-.02-2.85c.42-.11,1.12-.72,1.06-1.72-.06-1-1.85-1.5-1.85-1.5l-.64-2.35c.66-.64.74-1.58.7-2.12-.04-.54-.48-.85-.9-.87-.42-.01-1.04.29-1.04.29l-.86-.9c.12-.2.25-.41.37-.6l.51.58c.69-.04,2.33-.18,2.62,1.29.28,1.47-.51,2.24-.51,2.24l.51,1.77c.57.32,1.87,1.02,1.87,2.36s-1.44,2.32-1.44,2.32l.04,1.44c1.68.49,1.47,2.12,1.47,2.12-.06,2.18-2.31,2.56-2.31,2.56l-.56,1.55c.57.3,1.16,1.79.46,3.04-.7,1.24-2.45.95-2.45.95l-1.15,1.06c.35,2.48-.39,2.96-1.57,3.19-1.18.23-1.85-.51-1.85-.51l-.99.44c-.25,1.36-.68,1.93-.91,2.15h0Zm-.19-3.71c0-.42-.01-.86-.01-1.3,5.17-2.21,6.67-5.75,7.16-9.25.5-3.55.28-6.02-.33-8.22-.51-1.83-1.53-3.15-1.87-3.54.15-.28.31-.55.47-.82,3.04,3.26,3.12,6.63,2.83,11-.29,4.44-2.17,7.53-4.1,9.41-1.61,1.57-3.55,2.47-4.14,2.72h0Zm5.16-7.73l-1.66,1.33.27-2.4,1.39-1.12v2.19h0Zm.8-10.54l-.23,1.88-1.37-1,.09-2.19,1.51,1.31h0Zm.77,5.58l-1.06,1.47-.98-2.14,1.11-1.4.94,2.08h0Zm-4.57,9.59l-1.87-.36.83-1.8,2.27.24-1.24,1.92Z" style="fill: #ffe100; fill-rule: evenodd; stroke-width: 0px;"/>
    <path d="m89.46,100.79l-11.84,12.61c.13.92.24,1.86.33,2.81l10.28-11.51c.37-1.29.78-2.6,1.23-3.92Z" style="fill: #112343; fill-rule: evenodd; stroke-width: 0px;"/>
    <path d="m101.94,124.31v7.41s3.44-3.73,3.44-3.73h3.84s0-22.2,0-22.2l-2.95-3.58c.13.48.25.98.34,1.49,1.04,5.87.91,14.17-4.67,20.61Z" style="fill: #e60012; fill-rule: evenodd; stroke: #e4007f; stroke-miterlimit: 22.93; stroke-width: 0px;"/>
    <path d="m116.46,114.05l-9.36-11.57h1.29s8.06,8.92,8.06,8.92v2.65h0Zm0-11.9v-1.11c-2.26-.05-4.66-2.44-4.66-2.44-2.25,2.11-5.6,1.51-6.38,1.33.29.64.56,1.34.78,2.08,4.21.29,5.47-1.7,5.47-1.7,1.01,1.18,3.79,1.69,4.78,1.84Z" style="fill: #ffe100; fill-rule: evenodd; stroke-width: 0px;"/>
    <path d="m111.07,108.03v19.96h-1.06v-21.24s1.06,1.28,1.06,1.28h0Zm5.4,19.96v-13.41s-.56-.67-.56-.67v.42h-2.98v-1.23h2.31s-.76-.92-.76-.92h-1.56v-1.23h.54s-1.66-2.02-1.66-2.02v19.06s4.66,0,4.66,0h0Zm-3.53-2h2.98v1.23h-2.98v-1.23h0Zm0-2.15h2.98v1.23h-2.98v-1.23h0Zm0-2.15h2.98v1.23h-2.98v-1.23h0Zm0-2.15h2.98v1.23h-2.98v-1.23h0Zm0-2.15h2.98v1.23h-2.98v-1.23h0Zm0-2.15h2.98v1.23h-2.98v-1.23Z" style="fill: #fff; fill-rule: evenodd; stroke-width: 0px;"/>
    <path d="m92.93,140.08l-.02.13c-.55-.08-1.03-.18-1.32-.31,0,0,.03-.85.3-1.07.28-.22.93.31,1.04,1.25h0Zm-1.77-1.11l-.25.33s-.25-.19-.23-.37c.01-.18.48-.11.48.04h0Zm4.09-5.65s-2.32-.05-3.67-.08c.3.57.04,1.22-.11,1.52h3.12v.43h-4.01c.38.5.41,1.09.4,1.4,1.33,0,3.95,0,3.95,0v.43s-2.52-.07-3.81-.04c-.02.73.16,1.1.34,1.29,1.41.19,4.29.57,4.29.57v.33l-2.73-.19.37,1.28c1.43.16,3.16.16,3.68.04.8-.19,2.22-1.58,2.22-1.58l.18-5.44c0-.47-.87-1.32-2.19-1.52-.89-.13-2.79-.07-4.22.31l.05.89,2.13.07.02.29h0Zm-2.55-.38l-1.26-.05c.23-.29.64-.51,1.15-.69.07.11.16.33.11.74h0Zm-1.88,1.82h-.08c-.39,0-.62-.41-.65-.86-.04-.45.33-.67.56-.67,0,0,.01,0,.02,0,.25.06.64.2.7.52.07.36-.24.79-.55,1.02h0Zm-.42,1.83h-.14s-.8.02-1-.56c-.19-.57.3-.84.56-.84h.09c.15.06.35.2.48.49.17.39.11.71,0,.9h0Zm.42,1.59s-.04,0-.06,0c-.58-.09-1.11-.2-1.18-.43,0,0,.22-.6.83-.71.12.05.25.15.32.35.13.34.12.57.09.81Z" style="fill: #fff; fill-rule: evenodd; stroke-width: 0px;"/>
    <path d="m99.86,138.54l.15-5.69s.54-.25.86-.27c.32-.02.69.56.76,1.69.07,1.12-.25,4.37-.57,4.49-.32.12-1.13.05-1.2-.22h0Zm1.8-5.73c.07.19.17.49.25.86l1.82.25s.68-1.09,1.09-2.56c.41-1.47.39-2.13.39-2.13-.74,1.49-3.53,3.57-3.53,3.57h-.02Zm.33,1.25c.58.02,1.5.1,2.13.37.99.42,1.74.94,1.69,1.43-.04.46-1.07,1.23-3.98,1.65.05-.25.1-.52.14-.8,1.83-.48,2.11-.93,2.1-1.16-.01-.25-.54-.75-1.2-.81-.25-.02-.55-.04-.81-.05-.02-.22-.04-.43-.07-.62h0Zm.09,1.02c0,.43-.02.85-.06,1.27,1-.23,1.66-.53,1.66-.76,0-.28-.59-.46-.98-.49-.14-.01-.37-.02-.62-.02h0Zm1.14,2.49c.53-.09,1.12-.23,1.66-.43,2.51-.93.8-2.7-.75-3.13,0,0,1.34-2.86,1.49-4.51,0,0,.13.2.17,1.82.04,1.62-.3,2.49-.3,2.49,0,0,2.31.9,2.28,1.89-.03.99-2.05,2.26-2.55,2.44,0,0,.1,1.53-.11,2.72-.79-2.05-1.13-2.41-1.89-3.3h0Zm-.25.04c-.54.09-.98.12-1.18.14-.06.25-.12.48-.18.68l3.33,3.66c-.24-1.89-1.42-3.72-1.96-4.47Z" style="fill: #ffe100; fill-rule: evenodd; stroke-width: 0px;"/>
    <path d="m95.42,140.97h2.04s1.97-1.13,2.08-1.64h2.08s3.44,3.95,3.44,3.95c-3.18,2.28-5.64,3.48-7.03,4.05-1.6-3.12-2.45-5.82-2.61-6.36h0Zm10.23.21l3.83-1.44-.39.34c-1.2,1.04-2.35,1.95-3.41,2.74l-.02-1.65Z" style="fill: #e60012; fill-rule: evenodd; stroke: #e4007f; stroke-miterlimit: 22.93; stroke-width: 0px;"/>
    <path d="m107.7,136.68c1.02-.48,5.48-2.7,8.77-6.62v2.07c-2.1,2.05-6.9,6.3-10.85,6.63v-.48c.7-.25,1.59-.88,2.08-1.61h0Zm8.77-7.28v-.92s-1.11.08-1.11.08c0,0-3.41,4.48-7.57,6.28.13.19.23.41.26.63.03.21,0,.42-.06.63,3.24-1.33,6.81-4.67,7.75-5.79.29-.34.53-.65.73-.91h0Zm-10.84,9.83l.02,1.2,4.7-1.46c1.84-1.68,3.8-3.66,5.86-6-1.59,1.36-5.19,4.18-7.19,5.15-1.68.83-2.95,1.05-3.39,1.11h0Zm-.08,3.69h0s0,0,0,0h0Zm.75-9.32c.29.16.82.48,1.22.9,1.53-.43,3.31-1.78,4.76-3.09,1.51-1.37,2.68-2.82,2.68-2.82l-1.91-.08c-2.56,2.94-6.1,4.76-6.74,5.08h0Zm-.13-1.72c0,.42-.03.88-.07,1.38,4.22-2.05,6.45-4.7,6.45-4.7l-1.93-.02c-1.72,2.11-3.85,3.09-4.46,3.34h0Zm-.09-1.76c.37-.31,1.16-1,1.73-1.63h-2.11s.02.03.02.03c0,0,.23.53.36,1.6h0Zm4.14-1.51l-2-.03s-.77,1.05-2.1,1.92c.03.31.05.66.05,1.05.54-.23,2.28-1.08,4.04-2.95Z" style="fill: #ffe100; fill-rule: evenodd; stroke-width: 0px;"/>
    <path d="m116.46,90.99h-12.31c-.5.56-1.53,1.76-2.79,3.42.33.28,1.27,1.13,2.29,2.51h12.81s0-5.93,0-5.93Z" style="fill: #112343; fill-rule: evenodd; stroke-width: 0px;"/>
    <path d="m115.9,136.72c.3,0,.54.24.54.54,0,.3-.24.54-.54.54s-.54-.24-.54-.54c0-.3.24-.54.54-.54h0Zm.56,5.91v-.99c-.07-.03-.14-.05-.22-.05-.3,0-.54.24-.54.54s.24.54.54.54c.08,0,.15-.02.22-.05h0Zm-2.05-4.24c.3,0,.54.24.54.54,0,.3-.24.54-.54.54s-.54-.24-.54-.54.24-.54.54-.54h0Zm-1.45,1.47c.3,0,.54.24.54.54,0,.3-.24.54-.54.54s-.54-.24-.54-.54c0-.3.24-.54.54-.54h0Zm-1.55,1.7c.3,0,.54.24.54.54,0,.3-.24.54-.54.54s-.54-.24-.54-.54.24-.54.54-.54h0Zm-1.85,1.46c.3,0,.54.24.54.54s-.24.54-.54.54-.54-.24-.54-.54c0-.3.24-.54.54-.54h0Zm-1.75,1.12c.3,0,.54.24.54.54,0,.3-.24.54-.54.54s-.54-.24-.54-.54c0-.3.24-.54.54-.54h0Zm-1.75,1.46c.3,0,.54.24.54.54,0,.3-.24.54-.54.54s-.54-.24-.54-.54.24-.54.54-.54h0Zm-1.89,1.2c.3,0,.54.24.54.54s-.24.54-.54.54-.54-.24-.54-.54c0-.3.24-.54.54-.54h0Zm-1.95,1.19c.3,0,.54.24.54.54,0,.3-.24.54-.54.54s-.54-.24-.54-.54c0-.3.24-.54.54-.54h0Zm-1.83,1.11c.3,0,.54.24.54.54,0,.3-.24.54-.54.54s-.54-.24-.54-.54c0-.3.24-.54.54-.54h0Zm2.47,3.37c.3,0,.54.24.54.54,0,.3-.24.54-.54.54s-.54-.24-.54-.54.24-.54.54-.54h0Zm1.9-1.28c.3,0,.54.24.54.54s-.24.54-.54.54-.54-.24-.54-.54.24-.54.54-.54h0Zm1.95-1.15c.3,0,.54.24.54.54,0,.3-.24.54-.54.54s-.54-.24-.54-.54c0-.3.24-.54.54-.54h0Zm1.67-1.35c.3,0,.54.24.54.54,0,.3-.24.54-.54.54s-.54-.24-.54-.54c0-.3.24-.54.54-.54h0Zm1.57-1.23c.3,0,.54.24.54.54,0,.3-.24.54-.54.54s-.54-.24-.54-.54c0-.3.24-.54.54-.54h0Zm1.73-1.47c.3,0,.54.24.54.54s-.24.54-.54.54-.54-.24-.54-.54c0-.3.24-.54.54-.54h0Zm1.73-1.45c.3,0,.54.24.54.54,0,.3-.24.54-.54.54s-.54-.24-.54-.54c0-.3.25-.54.54-.54h0Zm1.57-1.47c.3,0,.54.24.54.54,0,.3-.24.54-.54.54s-.54-.24-.54-.54.24-.54.54-.54Z" style="fill: #ffe100; fill-rule: evenodd; stroke-width: 0px;"/>
    <path d="m83.09,123.25h2.23c-.03.72-.04,1.43-.05,2.13h-2.18v-2.13h0Zm-4.83,2.13c.02-.72.02-1.43.02-2.13h2.16v2.13h-2.18Zm2.38.84h2.28v2.13h-2.28v-2.13h0Zm-.02-5.98h2.28v2.13h-2.28v-2.13Z" style="fill: #ffe100; fill-rule: evenodd; stroke-width: 0px;"/>
    <path d="m74.88,145.48l10.88-11.91c-.16-1.36-.28-2.76-.36-4.2h-7.36c-.43,5.05-1.41,10.44-3.16,16.11Z" style="fill: #e60012; fill-rule: evenodd; stroke-width: 0px;"/>
    <path d="m47.11,115.37c8.62-10.07,15.74-13.7,18.1-14.7-1.37-2.55-3.23-5.3-5.61-7.36-.13.07-.26.14-.38.21-4.57,2.58-6.71,4.52-9.13,6.64-1.03.9-2.09,1.81-2.97,2.56v12.65Z" style="fill: #ffe100; fill-rule: evenodd; stroke-width: 0px;"/>
    <path d="m64.68,99.71c-.4-.7-.84-1.4-1.32-2.1-7.05,3.14-12.96,8.63-16.25,12.1v3.72c9.62-9.82,15.32-12.83,17.57-13.72h0Zm-2.24-3.36c-1.15.58-5.46,2.84-9.07,5.96-2.74,2.37-5.01,4.7-6.27,6.04v-3.89c2.28-2.12,8-7.16,13.71-10,.58.6,1.12,1.23,1.62,1.89Z" style="fill: #112343; fill-rule: evenodd; stroke-width: 0px;"/>
    <path d="m96.38,188.72l-6.2-9.38s-13.82.26-22.24-1.5l-7.68,10.88h36.12Z" style="fill: #ffe100; fill-rule: evenodd; stroke-width: 0px;"/>
    <path d="m92.08,155.69l.44.97c-.41-.01-1.27-.02-1.94.11-.9.17-1.96.81-2.6,2.38-.63,1.58-.44,2.27-.27,2.27s.24-.2.23-.35c0,0,.15-1.46.6-2.35.43-.86,1.54-1.99,4.18-1.63l.44.96c-1.29-.08-2.13.07-3.17.82-1.12.8-1.42,2.33-1.44,2.81-.03.47-.02.75.15.73.16-.01.23-.15.24-.34.01-.19.01-1.11.49-1.99.48-.88,1.56-1.61,2.6-1.68.71-.05,1.15.06,1.36.13l.5,1.08s-.79-.52-1.99-.3c-1.19.21-2.44,1.37-2.35,3.25.05.93.22,4.98.38,8.83-.44-.38-1.11-.71-1.73-.66-.75.06-1.92.5-1.92.5,0,0,1.09-1.33,1.4-1.96.31-.62.08-.76.08-.76l-1.64,1.98s.49-2.5.52-3.09c.03-.59-.06-.77-.06-.77-.38-.69-1.83-1.04-1.83-1.04l1.6,1.49c-.39,1.97-1.13,5.13-.95,7.02.18,1.9,1.63,2.55,2.91,2.44.83-.07,1.48-.29,1.83-.42.05,1.1.08,1.97.1,2.45-.9,0-8.01-.04-14.8-.64-.16-.58-.57-2.11-.84-2.86-.34-.94-1.5-5.13-2.31-7.7-.81-2.57-1.12-5.03-1.14-5.69-.02-.66.41-1.5.41-1.5,0,0,.06.83.67,1.39-.19.72-.34,1.8.31,3.64.72,2.03,1.28,3.1,1.28,3.1l.4-.17-.17-.23s-1.35-2.61-1.54-4.04c-.14-1.07-.02-1.78.05-2.06.12.07.25.13.4.17.06.02.11.03.17.05.09,1.83.69,3.2,1.04,3.82.37.63.61.96.71.94.11-.01.34-.23,0-.59-.34-.36-.95-1.57-1.15-2.41-.16-.67-.18-1.41-.18-1.69.23.02.43,0,.62-.05,0,.28.04,1.14.08,1.69.05.67.87,1.69.87,1.69,0,0,.41-.25.32-.33-.09-.08-.65-.79-.79-1.33-.14-.55-.04-1.59-.04-1.59l1.54,1.98.35-.3-1.71-2.14c.32-.27.52-.66.62-1.09.51.38,1.08,1.21,1.4,1.72.35.57.38.73.67.69.29-.04.15-.38-.53-1.31-.55-.76-1.24-1.36-1.48-1.56.05-1.03-.44-2.13-1.42-2.37,0,0,.46-.52,1.05-1.14-.05.86.14,1.95,1.22,2.58.02.01.05.03.07.04.27.49.9,1.65,1.12,2.07.29.55.36.8.59.76.23-.04.02-.46.02-.46l-1.05-2.17c.15.01.29,0,.43-.02.43.34,1.22,1.28,1.47,1.62.29.39.38.49.52.35.14-.14-.13-.5-.13-.5-.32-.42-1.19-1.34-1.46-1.62.27-.15.5-.39.65-.7.41.17,1.02.84,1.29,1.28.29.47.29.67.56.64.27-.02.12-.56-.63-1.34-.49-.51-.87-.8-1.08-.93.03-.09.05-.19.06-.29.03-.21.05-.39.05-.56,1.19.28,1.85,1.82,2.02,2.34.18.55.2.66.44.6.24-.07-.09-.84-.09-.84,0,0-.87-2.13-2.39-2.5-.08-.62-.32-.91-.32-.91,2.66.34,3.51,3.27,3.58,3.67.07.4.63.16.5-.09-.13-.25-.41-.83-.41-.83,0,0-.52-1.7-2.21-2.71-1.69-1.01-3.02-.54-3.36-.02-.34.51-.47,1.48.13,1.75.61.27.99-.05,1.04-.18.05-.13-.54-.09-.77-.09s-.34-.25-.27-.72c.07-.47.23-.76.72-.81.5-.04,1.1.58.95,1.72s-.86,1.3-1.28,1.3-1.37-.6-1.51-1.59c-.09-.62-.02-1.1.07-1.43.57-.59,1.17-1.16,1.52-1.4.86-.59,2.33-.63,3.54.63,1.21,1.27,1.52,2.25,2.04,3.56.53,1.31.86,1.35,1.12,1.33.26-.02.57-.13.89-1.5.32-1.36.8-1.5,1.15-1.5,0,0-.71,1.95-.76,2.41,0,0-.09.43.14.41.23-.02.32-.44.53-1.42.21-.97.99-2.94,2.64-2.55,0,0-1.65,1.68-1.97,3.86,0,0-.02.37.12.37s.23-.14.44-.96c.21-.81.96-2.51,1.97-3.19,1.01-.67,2.62-.53,3.05-.48h0Zm-1.53,15.35v3.57s.15-2.38,1.26-3.31c-.21-.49-.46-1.17-.14-1.14.3.03.45.68.49.92.08-.04.16-.07.25-.09,0,0,.92.07,1.16-.66.24-.72-.23-1.46-.94-1.48-.72-.02-1.93,1.32-2.07,2.19h0Zm-.4,3.41s-.71.25-1.29.38c-.57.12-1.21.23-1.6.09-.39-.15-.87-.09-.87-.09.5.6,1.1,1.13,2.3.96,1.2-.17,1.42-1.19,1.42-1.19l.04-.15h0Zm-.47-.79c-.88.14-3.09.4-3.66-.46.04,1.62,3.58,1.72,3.82.44l-.16.02h0Zm.24-1.34c.11,0,.19-.08.19-.19s-.08-.19-.19-.19-.19.09-.19.19.08.19.19.19h0Zm-3.38-.25c.11,0,.19-.08.19-.19s-.08-.19-.19-.19-.19.09-.19.19c0,.1.09.19.19.19h0Zm2.86.52c-.14-.74-.38-1.5-1.3-1.46-.72.03-1.04,1.3-1.04,1.3h.41s.19-.93.82-.85c.63.08.77,1,.77,1h.35Zm1.02-2.94l.04.52s.38-2.51.82-3.95c.44-1.44,1.07-2.66,1.72-2.85.65-.19,1.5-.06,1.6.36.1.42-.21.46-.38.46s-.44-.24-.86-.23c-.42,0-.53.43-.46.79.06.36.65.68,1,.67.35-.01.98-.39,1.08-1.41.11-1.02-.71-1.74-1.45-1.79-.75-.05-1.6.18-2.11,1.4-.51,1.22-1.29,3.15-1,6.02h0Zm4.1-7.4l.31.21s0-1.54-2.07-1.54-2.81,3.59-2.63,5.32c0,0,.56-2.44,1.45-3.57.89-1.13,2.31-.9,2.93-.41h0Zm-.19-1.34c-.17-1.86-3.21-1.53-3.95-.19-.45.82-.41,2.79-.41,2.79.6-2.08,1.69-2.94,2.5-3.02.81-.08,1.86.41,1.86.41h0Zm-7.07,3.83l.13.1.12-1.98s-.49.4-.98.54c-.49.13-1.01-.13-1.43-.34-.42-.2-.84-.2-1.16-.15-.32.05-.72.64-1.09.67-.37.03-1.23-.54-1.23-.54v1.68s.15-.39.61-.42c.45-.03.49,0,.71,0s.59.24.59.24c0,0,.37-.2.64-.24h.47c.19,0,.4.35.52.35s.74-.32,1.01-.34c.27-.02.67-.03,1.09.42h0Zm-1.31-2.55c-.35-.31-.92-.86-1.64-.76-.72.1-1.15.74-1.15.74,1.71-.64,2.73.19,2.73.19l.06-.18h0Zm-.52,4.62s-.28.1-.5.06c-.23-.04-1.01-.58-1.37-.85-.36-.28-1.15-.47-1.53-.13-.37.34-.63,1.04-.5,1.63.12.59.77,1.11.77,1.11l.33-.35s-.69-.43-.66-1.07c.02-.64.79-1.04,1.36-.68.57.36,1.21,1.13,1.5,1.14.29.01.71-.89.71-.89l-.1.04h0Zm-10.11,8.12c2.07,2.21,5.6,2.22,6.33,1.89.73-.32,1.63-.99,1.32-1.3-.31-.31-.94-.05-.94-.05-.75.52-1.9.72-3.17.5-1.27-.22-2.67-1.02-2.99-1.22-.32-.2-.7-.02-.7-.02l.15.2h0Zm6.39-3.96c-.49-.71-1.07-1.43-1.61-1.7-.54-.27-.68.16-.68.16l1.67,1.64h-1.78c-1.48,0-2,.92-2,.92l-1.8.02-.14.21c.72.7,2.48,1.84,4.04,1.99,1.56.14,2.62-.29,2.62-.29-1.07.86-2.23,1.24-3.66.79-1.43-.45-2.94-1.84-2.94-1.84l-.27.13c1.75,1.97,4.12,2.65,5.5,2.27,1.38-.38,1.7-1.19,1.88-1.35.17-.16.65.19.65.19l.43-.38-1.91-2.75h0Zm-.24,1.66c.11,0,.19-.09.19-.19s-.09-.19-.19-.19-.19.09-.19.19.09.19.19.19h0Zm-3.39-.29c.11,0,.19-.09.19-.19,0-.11-.09-.19-.19-.19s-.19.09-.19.19c0,.1.09.19.19.19h0Zm.47.42h.41c.13-.4.41-.93.93-.93.46,0,.69.55.79.93h.34s-.2-1.3-1.13-1.3c-.94,0-1.26,1-1.34,1.3h0Zm-5.33-13.63c-.18.04-.51.14-.89.33-.38.19-.35.61-.35.61.02,1.2.95,1.88,1.8,1.76.86-.12,1.52-1.01,1.19-2.42-.33-1.41-1.57-1.6-2.21-1.53-.63.07-2.33.57-2.64,1.78-.32,1.2-.4,3.16.28,5.37.68,2.21,1.1,3.63,1.88,6.23.69,2.3,1.79,5.81,2.03,6.58.26.02.51.05.77.07-.4-1.29-2.39-7.62-3.21-10.64-.92-3.37-1.25-5.63-.95-6.71.31-1.08,1.8-1.82,2.36-1.8.57.02.89.76.91,1.18.02.42-.13.42-.27.42s-.15-.15-.19-.64c-.05-.5-.32-.58-.32-.58h-.19Zm.8,18.68c-.31-.95-2.06-6.22-3.03-9.51-1.07-3.63-1.65-5.38-1.51-7.41.14-2.03,1.23-2.8,2.01-3.08,0,0-2.15-.42-2.82,1.92-.67,2.33.71,6.48,1.75,9.69.92,2.84,2.21,6.95,2.9,8.32.24.03.47.05.71.07h0Zm-1.11-.12c-.29-.76-1.15-3.02-1.77-4.86-.76-2.26-2.01-5.99-2.61-8.45-.6-2.46-.48-5.43.54-6.17,0,0-.97-.32-1.63.83-.66,1.15-.19,4.27.59,6.67.71,2.21,3.68,10.6,4.13,11.9.25.03.5.06.75.09h0Zm-1.14-.14c-.42-1.1-2.67-7.07-3.77-10.8-1.21-4.12-1.08-4.44-1.16-5.73-.07-1.3.23-2.31.72-2.8h-.83s-1.24,1.86-.72,4.87c.48,2.74,4.12,12.38,5.11,14.39.21.03.43.06.65.09h0Zm-1.08-.15c-.4-.06-.78-.12-1.16-.18-.46-1.16-2.02-5.12-2.87-7.77-1.01-3.14-2.08-5.43-2.13-7.78-.05-2.34.98-3.5.98-3.5h.8c-.93,1.18-.83,4.06-.75,4.99.08.93.76,3.06,2.11,6.66,1.12,3,2.57,6.49,3.02,7.57h0Zm-1.63-.26c-.32-.06-.64-.11-.95-.18-.63-1.67-3.1-8.28-3.73-10.23-.72-2.23-1.18-2.99-1.08-5.21.1-2.22,1.03-3.29,1.03-3.29h.58c-.89,1.48-.77,4.11-.67,4.89.1.79.91,3.24,2.07,6.64,1.04,3.07,2.48,6.68,2.76,7.37Z" style="fill: #fff; fill-rule: evenodd; stroke-width: 0px;"/>
    <path d="m92.43,182.73c-.33.01-1.16.12-1.62.89,0,0-.56-.63-1.32-.58-.76.06-1.08.85-1.22,1.27,0,0,1.36-.18,1.55.84.2,1.02-.61,1.64-1.21,1.6,0,0,.2,1.68-1.1,1.85,0,0-1.07.09-1.15-1.71,0,0-1.49-.42-1.46-1.43.04-1.01.93-1.12,1.35-1.12-.24-1.14-2.2-1.12-2.72-.31,0,0-2.06-1.55-3.25-.19,0,0,.94.21,1.47,1.05.53.84-.36,1.79-1.29,1.83,0,0,.5,1.87-1.04,1.96-1.55.1-1.24-2-1.24-2,0,0-1.67.02-1.59-1.16.09-1.18,1-1.41,1.77-1.36,0,0-.5-1.08-1.47-1.19-.97-.12-1.56.79-1.56.79,0,0-.78-.96-1.8-.94-1.02.01-1.31.94-1.31.94,0,0,1.41.52,1.31,1.46-.1.94-1.09,1.05-1.61,1.05,0,0,.11,1.83-1.13,1.73-1.23-.1-1.51-1.03-1.22-2.25,0,0-1.54-.38-1.43-1.35.11-.98.91-1.26,2.12-.94,0,0-1.01-1.67-2.54-.56,0,0-1.15-1.42-2.41-.39,0,0,.99.34,1.12,1.1.13.76-.79,1.69-1.78,1.3,0,0-.28,1.13-1.05,1.36-.54.15-1.03-.26-1.28-.52l2.93-4.14c.27-.15.62-.28,1.04-.33,1.14-.13,2.47-.12,3.34.46.87.58,1.33,1.54,1.3,2.07-.03.53-.55,1.03-.52,1.47.03.44.19.64.64.64,0,0,.54.02.57-.61.03-.63-.12-1.43.53-2.27.65-.84,1.41-1.32,2.63-1.32s2.26.28,3.16,1.07c.89.79.95,1.56.92,2.23-.03.67-.14,1.18.38,1.26.52.08.58-.23.5-.91-.09-.68-.28-1.3.36-2.15.64-.85,2-1.41,3.06-1.5,1.06-.09,2.67.52,3.65,2.2,0,0,.36.7.4,1.13.04.43-.24.42-.24.88s.19.43.58.46c.39.03.72-.16.69-.43-.03-.27-.37-.7-.42-1.31-.04-.61.07-1.9,1.56-2.46.98-.37,1.99-.26,2.57-.14l.43.66h0Zm3.12,4.72l-2.49-3.77c-.87.58-.82,1.37-.82,1.37.09,1.07,1.78.87,1.78.87-.13,1.18.31,1.7.9,1.7.3,0,.5-.09.63-.18h0Zm-4.32-6.54l-1.04-1.58s-13.82.26-22.24-1.5l-2.14,3.04c.66-.47,1.64-.97,2.68-.76,1.8.36,2.73,3.18,2.73,3.18,0,0,2.24-2.87,4.44-2.86,2.2.01,3.61,3.46,3.61,3.46,1.47-2.69,3.23-3.74,4.95-3.07s3.33,2.82,3.33,2.82c0,0,.51-1.78,1.56-2.36.8-.44,1.74-.41,2.13-.38Z" style="fill: #112343; fill-rule: evenodd; stroke-width: 0px;"/>
    <path d="m67.02,175.11h-2.21v-.65h1.93s.27.65.27.65h0Zm.46,1.11h-2.67v-.65h2.4s.27.65.27.65h0Zm-.06,1.1h-2.61v-.65h2.85s.08.19.08.19l-.32.46h0Zm-.86,1.22h-1.75v-.78h2.3s-.54.78-.54.78h0Zm-.77,1.1h-.99v-.78h1.53s-.54.78-.54.78h0Zm-1.58,0h-3.19v-.79h2.36s0-3.57,0-3.57h-2.49v-.8h3.31v5.16h0Zm-2.22-2.11c.29,0,.53-.25.53-.56s-.24-.56-.53-.56-.53.25-.53.56c0,.31.24.56.53.56Z" style="fill: #fff; fill-rule: evenodd; stroke-width: 0px;"/>
    <path d="m60.29,172.6l-.19.02s.21,2.86.35,5.61c.15,2.75-.65,5.43-1.85,5.47-1.2.03-1.23-1.85-1.23-2.1,0-.25.6-.37,1.18-.53.58-.17.73-.35.73-.35l-.83-.67s.54-4.31.11-6.12l.25-.07s-.03-1.94,1.02-3.29c0,0,.4-.46.87-.49.47-.03.92.42.96,1.19.04.77-.59,1.18-1.38,1.33Z" style="fill: #ffe100; fill-rule: evenodd; stroke-width: 0px;"/>
    <path d="m53.88,177c-.33,0-.59-.26-.59-.59s.26-.59.59-.59.59.26.59.59-.27.59-.59.59h0Zm1.69.6c-.33,0-.59-.26-.59-.59,0-.32.27-.59.59-.59s.59.26.59.59-.26.59-.59.59h0Zm-5.24-.42l.8.02v-.94s-.8-.45-.8-.45v1.36h0Zm-.18,2.02l1,.48-.1-2.06h-.87s-.04,1.58-.04,1.58h0Zm7.91,1.25l.44.27s-.45.04-.67.1c-.23.06-.45.38-.76.46-.31.07-.44-.07-.45-.36-.01-.29.29-.93.66-1.07.37-.14.84-.06.79.6h0Zm-2,.44l.17.39s-1.58.08-1.64-.84c-.07-.92.31-2.47.31-2.47l1.05-.03s-.14,1.79.12,2.95h0Zm-1.88-1.13v.29s-.08.31.04.56c.12.25.08.58-.29.64-.37.06-.69-.1-.71-.83-.02-.73-.08-3.21-.08-3.21,0,0,.19.27.56.25.37-.02.67-.13.67-.13,0,0,.06.75-.06,1.4-.12.65-.13,1.04-.13,1.04h0Zm-1.52-2.36l.04,2.1s.08.6.08.94-.15.4-.46.44c-.31.04-.67-.25-.73-.85-.06-.6-.04-2.9-.04-2.9,0,0,.44.31,1.12.27h0Zm4.52,2.09h1.04s.24-2.77.12-4.49c-.12-1.71-.44-3.23-1.74-3.55-1.29-.32-4.86.4-4.86.4,0,0-1.27,2.36-1.07,3.39,0,0,.58.08,1.15-.1.56-.18,1.63-.73,2.18-.6,0,0-.14.28-.52.34-.38.06-.5.36-.5.74,0,0,.36,0,.52-.18.16-.18.85-.18,1.17.14,0,0,0-.49-.06-1.11-.06-.62-.04-1.39.12-1.51,0,0-.5,1.85,1.84,3.14,0,0,.04,1.05-.06,1.65-.1.61-.24,1.73-.15,2.65,0,0,.33-.79.82-.92h0Zm-5.07-2.46c-.33,0-.59-.26-.59-.59s.27-.59.59-.59.59.26.59.59c0,.32-.27.59-.59.59Z" style="fill: #fff; fill-rule: evenodd; stroke-width: 0px;"/>
    <path d="m48.74,176.07l.71.04s.62.01.63.67c.01.65-.49.91-.49.91,0,0-.25.89-.61.89s-1.08-.3-1.16-.8c-.08-.5.15-1.46.93-1.7Z" style="fill: #d09515; fill-rule: evenodd; stroke-width: 0px;"/>
    <path d="m48.76,178.41l.23-.02s-.38-.32-.4-.91c-.02-.59.16-.65.35-.65s.79.3.85.59c.06.29,0,1.43,0,1.43,0,0-.99.11-1.7-.22-.7-.33-.82-.7-.82-1.08s.32-1.05.64-1.56c.32-.51.45-.52.74-.56.29-.03,1.01.19,1.17.38.16.19.16.56-.29.52-.45-.03-.9.06-1.18.29-.29.22-.22.81-.21,1.13.02.32.38.57.62.65Z" style="fill: #ffe100; fill-rule: evenodd; stroke-width: 0px;"/>
    <path d="m51.5,169.22c-.22,0-.4-.46-.4-1.02s.18-1.02.4-1.02.4.46.4,1.02-.18,1.02-.4,1.02h0Zm2.6-3.33c.35-1.75.91-2.68.91-2.68.36.42.88,1.85,1.17,2.7.38.03.72.07,1.02.11-.35-1.24-1.42-4.82-2.19-5.22,0,0-1.13.92-1.43,5.11.18,0,.35-.02.52-.03h0Zm.77,2.67c-.3,0-.55-.43-.55-.96s.25-.97.55-.97.55.43.55.97-.25.96-.55.96h0Zm6.5-9.77l.53-.23s-2.82,2.46-4.33,6.74c0,0-1.43-4.73-2.54-5.03,0,0-1.48.13-1.94,5.08,0,0-1.79-4.35-3.6-5.98l3.47,2.19,1.91-3.12s2.24,3.24,2.49,3.42c.25.18.53-.3,1.11-.83.58-.53,2.09-1.76,2.89-2.24h0Zm-2.59,7.67c.34-1.16,1.44-4.77,2.48-6.33,0,0-2.54,2.33-3.51,6,.48.11.81.23,1.03.33h0Zm-6.02-.49c-.43-1.07-1.76-4.17-3.4-6,0,0,1.2,3.08,1.98,6.15.5-.06.97-.11,1.42-.15h0Zm.38,2.93c-.3,0-.55-.5-.55-1.12,0-.62.25-1.12.55-1.12s.55.5.55,1.12c0,.62-.25,1.12-.55,1.12h0Zm5.01.88c.64-.35,1-1.64.79-2.44-.17-.62-1.9-1.07-3.2-1.07s-3.78.14-4.42.29c-.64.14-.74,1.58-.68,2.05.06.47.68,1.05,1.12.99.43-.06,1.14-.25,3.14-.35,2-.1,3.26.53,3.26.53h0Zm-1.56-.9c-.3,0-.55-.47-.55-1.04s.25-1.04.55-1.04.55.46.55,1.04-.25,1.04-.55,1.04h0Zm1.59.29c-.26,0-.47-.39-.47-.87,0-.48.21-.87.47-.87s.46.39.46.87-.21.87-.46.87h0Zm-1.59,1.9c-.96-.14-1.85-.08-2.82.08-1.22.2-1.64.3-1.93.26-.28-.04-.55-.26-.57-.56-.02-.3.36-.67.87-.85.51-.18,2.03-.36,3.11-.36s2.62.4,2.92.56c.3.16-.08,1.11-.39,1.11s-.73-.2-1.2-.24h0Zm-.41-5.16c-.58-.04-1.27-.06-2.08-.03.35-1.75.91-2.68.91-2.68.36.42.88,1.85,1.17,2.7Z" style="fill: #ffe100; fill-rule: evenodd; stroke-width: 0px;"/>
    <path d="m49.2,158.47l3.73,2.22,1.34-2.22h-5.07Zm6.36-.05l2.03,2.77s1.51-1.86,3.32-2.77h-5.34Z" style="fill: #e60012; fill-rule: evenodd; stroke-width: 0px;"/>
    <path d="m91.71,154.88c-.81-.02-2.1.09-2.91.64,0,0-1.05-.54-1.84.09-.79.62-.85.76-1.3.85-.45.09-1.27.68-1.5,1.53-.23.85-.34,1.61-.34,1.61,0,0-1.92-5.8-5.24-5.97l9.11-9.86c1.23,4.61,2.74,8.37,4.03,11.12Z" style="fill: #e60012; fill-rule: evenodd; stroke-width: 0px;"/>
    <path d="m86.17,136.64l-.44.55.6.43c-.06-.32-.11-.65-.16-.97h0Zm-13.44,20.98h1.07s13.72-14.47,13.72-14.47c-.1-.41-.21-.82-.31-1.24l-14.49,15.71h0Zm-1.5,0l1.11-1.9.09-.14-.11-.13-.66-.74.28-.8,1.05.94.17.15.16-.16,1.9-2,.15-.16-.16-.16-1.88-1.88,1.82-2.06.84.87-.79.91-.13.15.12.15.81.99.16.2.18-.18,2.16-2.11.15-.15-.14-.16-1.8-2.14,1.53-1.64.54.55-.71.92-.12.15.13.14.96,1.04.16.18.17-.17,2.2-2.2.15-.15-.14-.16-1.63-1.9,1.42-1.65.51.47-.58.64-.13.15.13.15,1.05,1.28.18.22.18-.21,1.94-2.28.13-.15-.12-.15-1.68-2.03,1.28-1.47.74.65-.78.8-.14.15.13.16.9,1.09.15.19.18-.16,1.43-1.27c.07.32.14.64.21.95l-14.99,16.25h-.87Zm2.15-7.74c.26-.69.5-1.37.73-2.06l11.84-12.61c.04.27.08.54.12.81l-.86,1.07-.15.19.2.14,1.19.84c.1.55.21,1.1.32,1.63l-1.45,1.29-.61-.74.8-.83.17-.17-.18-.16-1.09-.96-.18-.16-.15.18-1.56,1.8-.13.15.12.15,1.68,2.03-1.63,1.92-.74-.91.6-.66.16-.17-.17-.16-.86-.79-.18-.16-.16.18-1.7,1.98-.13.15.13.15,1.62,1.89-1.88,1.88-.66-.72.71-.92.12-.16-.14-.14-.86-.87-.17-.17-.17.18-1.83,1.97-.14.15.13.16,1.8,2.13-1.82,1.78-.52-.65.8-.92.14-.16-.15-.15-1.16-1.21-.18-.18-.17.19-1.6,1.81h0Zm-1.37,3.47c.34-.81.67-1.62.98-2.42l1.75,1.74-1.59,1.68-1.13-1h0Zm-1.93,4.27h.79s-.13-.08-.13-.08l1.12-1.91-.56-.63c-.38.87-.79,1.74-1.21,2.61Z" style="fill: #ffe100; fill-rule: evenodd; stroke-width: 0px;"/>
    <path d="m66.91,155.19c-.32,0-.58-.26-.58-.58,0-.32.26-.58.58-.58s.58.26.58.58c0,.32-.26.58-.58.58h0Zm2.61,2.21c17.6-34.83,1.14-64.52-.91-67.99-.61.21-1.76.61-3.17,1.18l1.23.91-.96.07.04,1.16-.88-.49-.45.9-.48-1.93c-1.11.48-2.32,1.03-3.51,1.65,3.49,3.83,4.72,6.14,5.77,8.29,1.12,2.27,2.78,6.41,2.78,6.41l2.8.16.35-2.1,2.16,2.88-.96.05c-.1.53-.32,1.16-.32,1.16.62.05,1.61.44,1.66.99.05.54-.36.84-.36.84,0,0,.8.48.75,1.34-.05.86-1.08,1.18-1.08,1.18.47,1.18-.17,2.08-1.4,1.98-.15.72-.97.94-.97.94,1.1,5.23,1.09,11.15.34,16.49.08-.21.29-.35.53-.35.31,0,.57.25.57.56,0,.31-.25.56-.57.56-.29,0-.53-.22-.56-.5-.53,3.64-1.39,7.01-2.48,9.69-2.77,6.86-9.06,13.96-9.06,13.96h4.34s.45-2.17.45-2.17l.69.69.74-.44v.82s1.03,0,1.03,0l-1.04,1.11h2.94Zm.64-8.32c-.31,0-.57-.25-.57-.56s.25-.56.57-.56.57.25.57.56-.25.56-.57.56h0Zm3.12-4.76l-2.69,3.23.11-4.2.69.74.93-.88v1.31s.95-.2.95-.2h0Zm-5.34-42.58c-.31,0-.57-.25-.57-.56s.25-.56.57-.56.57.25.57.56-.25.56-.57.56h0Zm-1.14-7.65l2.89,2.35-1.03.1v1.22s-.93-.49-.93-.49l-.8.54-.14-3.73h0Zm-.39-.08c-.31,0-.57-.25-.57-.56s.26-.56.57-.56.57.25.57.56c0,.31-.26.56-.57.56h0Zm2.88,60.97c-.32,0-.58-.26-.58-.58s.26-.58.58-.58.58.26.58.58c0,.32-.26.58-.58.58h0Zm1.9-14.27c-.31,0-.57-.25-.57-.56s.25-.56.57-.56.57.25.57.56-.25.56-.57.56h0Zm.19-40.8c-.31,0-.57-.25-.57-.56s.25-.56.57-.56.57.25.57.56-.26.56-.57.56h0Zm-2.54,47.05c-.31,0-.57-.25-.57-.56,0-.31.25-.56.57-.56s.57.25.57.56c0,.31-.26.56-.57.56h0Zm3.59-4.03c-.31,0-.57-.25-.57-.56s.25-.56.57-.56.57.25.57.56c0,.31-.25.56-.57.56h0Zm2.53-13.11c-.31,0-.57-.25-.57-.56s.25-.56.57-.56.57.25.57.56-.25.56-.57.56h0Zm1.52-10.77c-.31,0-.57-.25-.57-.56,0-.31.26-.56.57-.56s.57.25.57.56-.25.56-.57.56h0Zm-2.76-12.93c-.31,0-.57-.25-.57-.56s.25-.56.57-.56.57.25.57.56c0,.31-.25.56-.57.56h0Zm.23,30.2c-.31,0-.57-.25-.57-.56,0-.31.25-.56.57-.56s.57.25.57.56c0,.31-.25.56-.57.56h0Zm-.28-5.86l.63.54.72-.74.04.83,1.12-.25-2.19,4-.31-4.38h0Zm-2.02-25.11c-.31,0-.57-.25-.57-.56,0-.31.25-.56.57-.56s.57.25.57.56c0,.31-.26.56-.57.56h0Zm-2.21-5.42l2.85,2.64-1,.07.02,1.36-.93-.58-.81.73-.15-4.22h0Zm-1.22,48.97l.64.86,1.14-.42-.09,1.02,1.03.19-3.53,3.23.8-4.87h0Zm4.15.39c-.31,0-.57-.25-.57-.56s.25-.56.57-.56.57.25.57.56-.25.56-.57.56h0Zm4.31-21.34c-.31,0-.57-.25-.57-.56,0-.31.25-.56.57-.56s.57.25.57.56-.25.56-.57.56h0Zm-4.22,8.98l.73.63.85-.9.17,1.2.96-.28-2.26,3.53-.45-4.19h0Zm-3.92-43.46c-.31,0-.57-.25-.57-.56,0-.31.25-.56.57-.56s.57.25.57.56c0,.31-.25.56-.57.56h0Zm-2.62,59.25c-.32,0-.58-.26-.58-.58s.26-.58.58-.58.58.26.58.58-.26.58-.58.58h0Zm10-17.33c-.31,0-.57-.25-.57-.56,0-.31.25-.56.57-.56s.57.25.57.56c0,.31-.25.56-.57.56h0Zm-1.03-11.81c-.31,0-.57-.25-.57-.56s.25-.56.57-.56.57.25.57.56c0,.31-.25.56-.57.56h0Zm.51-11.71c-.31,0-.57-.25-.57-.56s.25-.56.57-.56.57.25.57.56c0,.31-.25.56-.57.56h0Zm-2.45,7.36c-.31,0-.57-.25-.57-.56s.25-.56.57-.56.57.25.57.56-.25.56-.57.56h0Zm-3.18-12.06c-.31,0-.57-.25-.57-.56,0-.31.25-.56.57-.56s.57.25.57.56-.25.56-.57.56h0Zm3.3,20.91c-.31,0-.57-.25-.57-.56,0-.31.25-.56.57-.56s.57.25.57.56c0,.31-.25.56-.57.56h0Zm2.27-7.04l-.44,1.2-.73-.84-.97.41,1.33-4.04,1.74,3.37-.94-.1h0Zm-10.3-24.54c-.31,0-.57-.25-.57-.56,0-.31.25-.56.57-.56s.57.25.57.56c0,.31-.25.56-.57.56h0Zm9.47,45.67c-.31,0-.57-.25-.57-.56,0-.31.25-.56.57-.56s.57.25.57.56-.25.56-.57.56h0Zm-.88-18.27l1.01.51.2-.58.7.66.81-.86-1.44,4.66-1.26-4.39h0Zm-4.5-24.8c-.31,0-.57-.25-.57-.56,0-.31.25-.56.57-.56s.57.25.57.56c0,.31-.26.56-.57.56h0Zm5.36,18.4c-.31,0-.57-.25-.57-.56,0-.31.25-.56.57-.56s.57.25.57.56c0,.31-.25.56-.57.56Z" style="fill: #fff; fill-rule: evenodd; stroke-width: 0px;"/>
    <path d="m62.47,153.86c-.5-.45-1.87-1.74-2.79-3.15-1.15-1.74-2.99-5.3-2.8-12.36.19-6.97,3.79-16.42,14.37-20.16.05.34.1.76.15,1.26-6.96,2.98-11.95,8.98-13.03,16.04-1.11,7.22,1,12.08,2.28,14.29,1,1.72,2.2,2.6,2.69,2.9-.3.41-.58.81-.86,1.18Z" style="fill: #ffe100; fill-rule: evenodd; stroke-width: 0px;"/>
    <path d="m71.4,119.45c.39,3.61.86,11.18-.93,18.68-1.32,5.54-4.48,10.83-7.14,14.55-.49-.3-1.69-1.18-2.69-2.9-1.28-2.21-3.39-7.06-2.28-14.29,1.09-7.06,6.07-13.07,13.03-16.04Z" style="fill: #112343; fill-rule: evenodd; stroke-width: 0px;"/>
    <path d="m69.21,142.12c-.22-.35-.55-1.03-.69-2.16-.21-1.73-.74-5.89,3.02-8.5.04-.47.08-.94.11-1.4-.63.4-2.47,1.75-3.48,4.16-1.2,2.84-1.14,6.81.52,9.17.18-.42.36-.85.52-1.27h0Zm2.36-20.93c.03.38.06.79.08,1.21-.56.41-.38,1.46-.38,1.46l-1.8.81c-1.19-1.25-1.92-.82-2.16-.17-.24.65-.26,2.38-.26,2.38l-1.67,1.57s-.61-.28-1.22-.19c-.61.09-1.04.7-1.04,1.34,0,.64.52,1.43.52,1.43l-.84,2.92s-.14.01-.77.31c-.63.3-.93.79-.86,1.57.07.79.96,1.28.96,1.28l.02,2.85c-.42.11-1.12.72-1.06,1.72.06,1,1.85,1.5,1.85,1.5l.64,2.35c-.66.64-.74,1.58-.7,2.12.04.54.48.85.9.87.42.01,1.04-.29,1.04-.29l.86.9c-.12.2-.25.41-.37.6l-.5-.58c-.69.04-2.33.18-2.62-1.29-.28-1.47.51-2.24.51-2.24l-.51-1.77c-.57-.32-1.87-1.02-1.87-2.36s1.44-2.32,1.44-2.32l-.04-1.44c-1.68-.49-1.47-2.12-1.47-2.12.06-2.18,2.31-2.57,2.31-2.57l.56-1.55c-.57-.3-1.16-1.79-.46-3.04.7-1.24,2.45-.95,2.45-.95l1.15-1.06c-.35-2.48.39-2.96,1.57-3.19,1.18-.23,1.85.51,1.85.51l.99-.44c.25-1.35.68-1.93.91-2.15h0Zm.19,3.71c0,.42.01.86.01,1.3-5.17,2.21-6.67,5.75-7.16,9.25-.5,3.55-.28,6.02.33,8.22.5,1.83,1.53,3.15,1.86,3.54-.15.28-.31.55-.47.83-3.04-3.26-3.11-6.63-2.83-11,.29-4.44,2.17-7.53,4.1-9.41,1.61-1.57,3.55-2.47,4.15-2.72h0Zm-5.16,7.73l1.66-1.33-.27,2.4-1.39,1.12v-2.19h0Zm-.8,10.54l.23-1.88,1.37,1-.09,2.18-1.51-1.31h0Zm-.77-5.58l1.06-1.47.98,2.14-1.11,1.4-.94-2.08h0Zm4.57-9.59l1.87.36-.83,1.8-2.27-.24,1.24-1.92Z" style="fill: #ffe100; fill-rule: evenodd; stroke-width: 0px;"/>
    <path d="m74.12,147.82l11.84-12.61c-.13-.92-.24-1.86-.33-2.81l-10.28,11.51c-.37,1.29-.78,2.6-1.23,3.92Z" style="fill: #112343; fill-rule: evenodd; stroke-width: 0px;"/>
    <path d="m61.64,124.31v-7.41s-3.44,3.73-3.44,3.73h-3.84s0,22.2,0,22.2l2.95,3.58c-.13-.48-.25-.98-.34-1.49-1.04-5.87-.91-14.17,4.67-20.61Z" style="fill: #e60012; fill-rule: evenodd; stroke: #e4007f; stroke-miterlimit: 22.93; stroke-width: 0px;"/>
    <path d="m47.11,134.56l9.36,11.57h-1.29s-8.06-8.92-8.06-8.92v-2.65h0Zm0,11.9v1.11c2.26.06,4.66,2.44,4.66,2.44,2.25-2.11,5.6-1.51,6.38-1.33-.29-.64-.56-1.34-.78-2.08-4.21-.29-5.47,1.7-5.47,1.7-1.01-1.18-3.79-1.69-4.78-1.84Z" style="fill: #ffe100; fill-rule: evenodd; stroke-width: 0px;"/>
    <path d="m52.51,140.58v-19.96h1.06v21.24s-1.06-1.28-1.06-1.28h0Zm-5.4-19.96v13.41s.55.67.55.67v-.42h2.98v1.23h-2.31s.76.92.76.92h1.56v1.23h-.54s1.67,2.02,1.67,2.02v-19.06s-4.66,0-4.66,0h0Zm3.53,2h-2.98v-1.23h2.98v1.23h0Zm0,2.15h-2.98v-1.23h2.98v1.23h0Zm0,2.15h-2.98v-1.23h2.98v1.23h0Zm0,2.15h-2.98v-1.23h2.98v1.23h0Zm0,2.15h-2.98v-1.23h2.98v1.23h0Zm0,2.15h-2.98v-1.23h2.98v1.23Z" style="fill: #fff; fill-rule: evenodd; stroke-width: 0px;"/>
    <path d="m70.65,108.53l.02-.13c.55.08,1.03.18,1.32.32,0,0-.03.85-.3,1.07-.28.22-.93-.31-1.04-1.25h0Zm1.77,1.11l.25-.33s.25.19.23.37c-.01.18-.48.11-.48-.04h0Zm-4.09,5.65s2.32.05,3.67.08c-.29-.57-.04-1.22.11-1.52h-3.12v-.43h4.01c-.38-.5-.41-1.09-.4-1.4h-3.95v-.43s2.52.07,3.81.04c.02-.73-.16-1.1-.34-1.29-1.41-.19-4.29-.57-4.29-.57v-.33l2.73.19-.37-1.28c-1.43-.16-3.16-.16-3.68-.04-.8.19-2.22,1.59-2.22,1.59l-.18,5.44c0,.47.87,1.32,2.2,1.52.88.13,2.78.07,4.22-.31l-.05-.89-2.13-.08-.02-.29h0Zm2.55.38l1.26.05c-.23.29-.64.51-1.15.69-.07-.11-.16-.33-.11-.74h0Zm1.88-1.82h.08c.39,0,.62.41.65.86.04.45-.33.67-.56.67,0,0-.01,0-.02,0-.25-.06-.64-.2-.7-.52-.07-.36.24-.79.55-1.02h0Zm.42-1.83h.14s.8-.02,1,.56c.19.58-.3.84-.56.84h-.09c-.15-.06-.35-.2-.47-.49-.17-.39-.11-.71,0-.9h0Zm-.42-1.59s.04,0,.06,0c.58.09,1.11.2,1.18.43,0,0-.22.6-.83.71-.12-.05-.25-.15-.32-.35-.13-.34-.12-.57-.09-.81Z" style="fill: #fff; fill-rule: evenodd; stroke-width: 0px;"/>
    <path d="m63.72,110.08l-.15,5.69s-.54.25-.86.27c-.32.02-.69-.56-.76-1.69-.07-1.12.25-4.37.57-4.49.32-.12,1.13-.05,1.2.22h0Zm-1.8,5.73c-.07-.19-.17-.49-.25-.86l-1.82-.25s-.68,1.08-1.09,2.56c-.41,1.47-.39,2.13-.39,2.13.74-1.49,3.53-3.57,3.53-3.57h.02Zm-.33-1.25c-.58-.02-1.5-.1-2.13-.37-.99-.42-1.74-.94-1.69-1.43.04-.46,1.07-1.23,3.98-1.65-.05.25-.1.52-.14.8-1.83.48-2.11.93-2.1,1.16.01.25.54.75,1.2.81.25.02.54.04.81.05.02.22.04.43.07.62h0Zm-.09-1.02c0-.43.02-.85.06-1.27-1,.23-1.66.53-1.66.76,0,.28.59.46.98.49.14.01.37.02.62.02h0Zm-1.14-2.49c-.53.09-1.12.23-1.66.43-2.51.93-.8,2.7.75,3.13,0,0-1.34,2.86-1.49,4.51,0,0-.13-.2-.17-1.82-.04-1.62.3-2.49.3-2.49,0,0-2.31-.9-2.28-1.89.03-.99,2.05-2.26,2.55-2.44,0,0-.1-1.53.11-2.72.8,2.05,1.13,2.41,1.89,3.3h0Zm.26-.04c.54-.09.97-.12,1.18-.14.06-.25.12-.48.18-.68l-3.33-3.66c.24,1.89,1.42,3.72,1.96,4.47Z" style="fill: #ffe100; fill-rule: evenodd; stroke-width: 0px;"/>
    <path d="m68.16,107.65h-2.04s-1.97,1.13-2.08,1.64h-2.08s-3.44-3.95-3.44-3.95c3.18-2.28,5.64-3.48,7.03-4.05,1.6,3.12,2.45,5.81,2.61,6.35h0Zm-10.23-.21l-3.83,1.43.39-.34c1.2-1.04,2.35-1.95,3.41-2.74l.02,1.65Z" style="fill: #e60012; fill-rule: evenodd; stroke: #e4007f; stroke-miterlimit: 22.93; stroke-width: 0px;"/>
    <path d="m55.88,111.93c-1.02.48-5.48,2.7-8.77,6.62v-2.07c2.1-2.05,6.9-6.3,10.85-6.63v.48c-.7.25-1.59.88-2.08,1.61h0Zm-8.77,7.28v.92s1.11-.08,1.11-.08c0,0,3.4-4.48,7.57-6.27-.13-.2-.23-.41-.26-.63-.03-.21,0-.42.06-.63-3.23,1.33-6.81,4.67-7.75,5.79-.29.34-.53.65-.73.91h0Zm10.84-9.83l-.02-1.2-4.7,1.46c-1.84,1.68-3.8,3.66-5.86,6,1.59-1.36,5.19-4.18,7.19-5.15,1.68-.83,2.95-1.05,3.39-1.11h0Zm.08-3.69h0s0,0,0,0h0Zm-.75,9.32c-.29-.16-.82-.48-1.22-.9-1.53.43-3.31,1.78-4.76,3.09-1.51,1.37-2.68,2.82-2.68,2.82l1.91.08c2.55-2.94,6.1-4.76,6.74-5.08h0Zm.13,1.72c0-.42.02-.88.07-1.37-4.22,2.05-6.45,4.7-6.45,4.7l1.93.02c1.72-2.11,3.85-3.09,4.46-3.34h0Zm.09,1.76c-.37.31-1.16,1-1.73,1.63h2.11s-.02-.03-.02-.03c0,0-.23-.53-.36-1.6h0Zm-4.13,1.51l2,.03s.76-1.05,2.1-1.92c-.03-.31-.05-.66-.05-1.05-.54.23-2.28,1.08-4.04,2.95Z" style="fill: #ffe100; fill-rule: evenodd; stroke-width: 0px;"/>
    <path d="m47.11,157.62h12.31c.5-.56,1.53-1.76,2.79-3.42-.33-.28-1.27-1.13-2.29-2.51h-12.81s0,5.93,0,5.93Z" style="fill: #112343; fill-rule: evenodd; stroke-width: 0px;"/>
    <path d="m47.67,111.89c-.3,0-.54-.24-.54-.54,0-.3.24-.54.54-.54s.54.24.54.54c0,.3-.24.54-.54.54h0Zm-.56-5.91v.99c.07.03.14.05.22.05.3,0,.54-.24.54-.54s-.24-.54-.54-.54c-.08,0-.15.02-.22.05h0Zm2.05,4.24c-.3,0-.54-.24-.54-.54s.24-.54.54-.54.54.24.54.54c0,.3-.24.54-.54.54h0Zm1.45-1.47c-.3,0-.54-.24-.54-.54,0-.3.24-.54.54-.54s.54.24.54.54c0,.3-.24.54-.54.54h0Zm1.55-1.7c-.3,0-.54-.24-.54-.54,0-.3.24-.54.54-.54s.54.24.54.54c0,.3-.25.54-.54.54h0Zm1.85-1.46c-.3,0-.54-.24-.54-.54,0-.3.24-.54.54-.54s.54.24.54.54c0,.3-.24.54-.54.54h0Zm1.75-1.12c-.3,0-.54-.24-.54-.54,0-.3.24-.54.54-.54s.54.24.54.54-.24.54-.54.54h0Zm1.75-1.46c-.3,0-.54-.24-.54-.54,0-.3.24-.54.54-.54s.54.24.54.54c0,.3-.24.54-.54.54h0Zm1.89-1.2c-.3,0-.54-.24-.54-.54s.24-.54.54-.54.54.24.54.54-.24.54-.54.54h0Zm1.95-1.19c-.3,0-.54-.24-.54-.54,0-.3.24-.54.54-.54s.54.24.54.54c0,.3-.24.54-.54.54h0Zm1.82-1.11c-.3,0-.54-.24-.54-.54s.24-.54.54-.54.54.24.54.54c0,.3-.24.54-.54.54h0Zm-2.47-3.37c-.3,0-.54-.24-.54-.54s.24-.54.54-.54.54.24.54.54c0,.3-.24.54-.54.54h0Zm-1.9,1.28c-.3,0-.54-.24-.54-.54,0-.3.24-.54.54-.54s.54.24.54.54c0,.3-.24.54-.54.54h0Zm-1.95,1.15c-.3,0-.54-.24-.54-.54,0-.3.24-.54.54-.54s.54.24.54.54c0,.3-.24.54-.54.54h0Zm-1.67,1.35c-.3,0-.54-.24-.54-.54,0-.3.24-.54.54-.54s.54.24.54.54c0,.3-.24.54-.54.54h0Zm-1.57,1.23c-.3,0-.54-.24-.54-.54,0-.3.24-.54.54-.54s.54.24.54.54c0,.3-.24.54-.54.54h0Zm-1.73,1.47c-.3,0-.54-.24-.54-.54,0-.3.25-.54.54-.54s.54.24.54.54-.24.54-.54.54h0Zm-1.73,1.45c-.3,0-.54-.24-.54-.54,0-.3.24-.54.54-.54s.54.24.54.54-.24.54-.54.54h0Zm-1.57,1.47c-.3,0-.54-.24-.54-.54,0-.3.24-.54.54-.54s.54.24.54.54-.24.54-.54.54Z" style="fill: #ffe100; fill-rule: evenodd; stroke-width: 0px;"/>
    <path d="m141.59,177.42c.08,3.32,2.52,5.73,6.32,5.73,3.8,0,7.24-3.22,7.43-7.84.19-4.62-2.03-9.29-5.81-14.37-3.78-5.08-8.4-12.37-8.24-12.37s-4.45,7.29-8.24,12.37c-3.78,5.08-6,9.75-5.82,14.37.18,4.62,3.63,7.84,7.43,7.84,3.8,0,6.24-2.41,6.32-5.73,0,0-.02-.92.31-.9.35.03.3.67.3.9Z" style="fill: #e60012; fill-rule: evenodd; stroke-width: 0px;"/>
    <polygon points="157.1 243.16 143.24 243.16 143.24 237.54 147.4 237.54 147.4 218.91 135.81 237.54 139.32 237.54 139.32 243.16 125.47 243.16 125.47 237.54 129.21 237.54 139.12 221.61 127.96 197.75 125.74 197.75 125.74 192.13 139.2 192.13 139.2 197.75 134.14 197.75 142.65 215.95 147.4 208.31 147.4 197.75 142.74 197.75 142.74 192.13 156.2 192.13 156.2 197.75 153.02 197.75 153.02 237.54 157.1 237.54 157.1 243.16" style="fill: #e60012; stroke-width: 0px;"/>
    <path d="m47.11,62.82c0-1.61,1.08-2.93,2.39-2.93h64.57c1.32,0,2.39,1.32,2.39,2.93v122.97c0,1.61-1.08,2.93-2.39,2.93H49.5c-1.32,0-2.39-1.32-2.39-2.93V62.82Z" style="fill: none; fill-rule: evenodd; stroke: #231815; stroke-miterlimit: 22.93; stroke-width: 1.5px;"/>
    <path d="m22.18,72.47c-.08-3.32-2.52-5.73-6.32-5.73-3.8,0-7.24,3.22-7.43,7.84-.19,4.62,2.03,9.29,5.81,14.37,3.78,5.08,8.4,12.37,8.24,12.37s4.45-7.29,8.24-12.37c3.78-5.08,6-9.75,5.82-14.37-.18-4.62-3.63-7.84-7.43-7.84s-6.24,2.41-6.32,5.73c0,0,.02.92-.31.9-.35-.03-.3-.67-.3-.9Z" style="fill: #e60012; fill-rule: evenodd; stroke-width: 0px;"/>
    <polygon points="6.67 6.74 20.52 6.74 20.52 12.35 16.37 12.35 16.37 30.98 27.96 12.35 24.44 12.35 24.44 6.74 38.3 6.74 38.3 12.35 34.56 12.35 24.65 28.28 35.81 52.15 38.03 52.15 38.03 57.76 24.57 57.76 24.57 52.15 29.63 52.15 21.12 33.95 16.37 41.59 16.37 52.15 21.03 52.15 21.03 57.76 7.57 57.76 7.57 52.15 10.75 52.15 10.75 12.35 6.67 12.35 6.67 6.74" style="fill: #e60012; stroke-width: 0px;"/>
  </g>
</svg>