<?xml version="1.0" encoding="UTF-8"?>
<svg id="_图层_2" data-name="图层 2" xmlns="http://www.w3.org/2000/svg" viewBox="0 0 163.57 248.61">
  <g id="_图层_1-2" data-name="图层 1">
    <path d="m1,6.6c0-3.08,2.51-5.6,5.57-5.6h150.43c3.06,0,5.57,2.52,5.57,5.6v235.41c0,3.08-2.51,5.6-5.57,5.6H6.57c-3.06,0-5.57-2.52-5.57-5.6V6.6Z" style="fill: #fff; fill-rule: evenodd; stroke: #231815; stroke-miterlimit: 22.93; stroke-width: 2px;"/>
    <path d="m154.74,227.34c1.58,6.08-.56,10.49-4.27,13.13-2.3,1.63-5.19,2.53-8.12,2.66-2.89.13-5.88-.47-8.43-1.83-4.45-2.36-7.55-6.86-6.66-13.54.88-6.6,4.96-9.56,10.56-13.61,0,0,0,0,0,0t0,0s0,0,0,0c0,0,0,0,0,0,0,0,0,0,.01,0,.08-.06.35-.26,1.05-.77,2.74-1.99,5.86-5.5,8.16-9.32,1.27-2.12,2.27-4.3,2.77-6.32h-17.44s0,6.7,0,6.7h-5.61v-12.32h28.95s.06,2.75.06,2.75c.08,3.77-1.54,8.08-3.92,12.05-2.68,4.46-6.38,8.6-9.67,10.99-1.13.82-.01,0-1.08.77-4.48,3.24-7.75,5.6-8.31,9.81-.52,3.93,1.21,6.53,3.72,7.86,1.64.87,3.62,1.26,5.58,1.17,1.91-.09,3.73-.63,5.11-1.61,1.92-1.36,2.99-3.75,2.1-7.17l5.42-1.4Z" style="fill: #e60012; stroke-width: 0px;"/>
    <path d="m141.59,177.42c.08,3.32,2.52,5.73,6.32,5.73,3.8,0,7.24-3.22,7.43-7.84.18-4.62-2.03-9.29-5.82-14.37-3.78-5.08-8.4-12.37-8.24-12.37s-4.45,7.29-8.24,12.37c-3.78,5.08-6,9.75-5.82,14.37.19,4.62,3.63,7.84,7.43,7.84s6.24-2.41,6.32-5.73c0,0-.02-.92.31-.89.35.03.3.67.3.89Z" style="fill: #e60012; fill-rule: evenodd; stroke-width: 0px;"/>
    <path d="m81.96,167.49c.05,1.92,1.45,3.3,3.64,3.3s4.18-1.86,4.28-4.52c.11-2.66-1.17-5.36-3.35-8.28-2.18-2.93-4.84-7.13-4.75-7.13s-2.57,4.2-4.75,7.13c-2.18,2.93-3.46,5.62-3.35,8.28.11,2.66,2.09,4.52,4.28,4.52,2.19,0,3.6-1.39,3.64-3.3,0,0-.01-.53.18-.52.2.02.17.39.17.52h0Zm-.35-86.36c-.05-1.92-1.45-3.3-3.64-3.3-2.19,0-4.18,1.86-4.28,4.52-.11,2.66,1.17,5.36,3.35,8.28,2.18,2.93,4.84,7.13,4.75,7.13s2.57-4.2,4.75-7.13c2.18-2.93,3.46-5.62,3.35-8.28-.11-2.66-2.09-4.52-4.28-4.52s-3.6,1.39-3.65,3.3c0,0,.01.53-.18.52-.2-.02-.17-.39-.17-.52Z" style="fill: #e60012; fill-rule: evenodd; stroke-width: 0px;"/>
    <path d="m47.11,62.82c0-1.61,1.08-2.93,2.39-2.93h64.57c1.32,0,2.39,1.32,2.39,2.93v122.97c0,1.61-1.08,2.93-2.39,2.93H49.5c-1.32,0-2.39-1.32-2.39-2.93V62.82Z" style="fill: none; fill-rule: evenodd; stroke: #231815; stroke-miterlimit: 22.93; stroke-width: 1.5px;"/>
    <path d="m9.03,22.55c-1.58-6.08.56-10.49,4.27-13.13,2.3-1.63,5.19-2.53,8.12-2.66,2.89-.13,5.88.47,8.43,1.83,4.45,2.36,7.55,6.86,6.66,13.54-.88,6.6-4.96,9.56-10.56,13.61,0,0,0,0,0,0t0,0s0,0,0,0c0,0,0,0,0,0,0,0,0,0-.01,0-.08.06-.35.26-1.05.77-2.74,1.99-5.86,5.5-8.16,9.32-1.27,2.12-2.27,4.3-2.77,6.32h17.44s0-6.7,0-6.7h5.61v12.32H8.04s-.06-2.75-.06-2.75c-.08-3.77,1.54-8.08,3.92-12.05,2.68-4.46,6.38-8.6,9.67-10.99,1.13-.82.01,0,1.08-.77,4.48-3.24,7.75-5.6,8.31-9.81.52-3.93-1.21-6.53-3.72-7.86-1.64-.87-3.62-1.26-5.58-1.17-1.91.09-3.73.63-5.11,1.61-1.92,1.36-2.99,3.75-2.1,7.17l-5.42,1.4Z" style="fill: #e60012; stroke-width: 0px;"/>
    <path d="m22.18,72.47c-.08-3.32-2.52-5.73-6.32-5.73-3.8,0-7.24,3.22-7.43,7.84-.18,4.62,2.03,9.29,5.82,14.37,3.78,5.08,8.4,12.37,8.24,12.37s4.45-7.29,8.24-12.37c3.78-5.08,6-9.75,5.82-14.37-.19-4.62-3.63-7.84-7.43-7.84-3.8,0-6.24,2.41-6.32,5.73,0,0,.02.92-.31.89-.35-.03-.3-.67-.3-.89Z" style="fill: #e60012; fill-rule: evenodd; stroke-width: 0px;"/>
  </g>
</svg>