<?xml version="1.0" encoding="UTF-8"?>
<svg id="_图层_2" data-name="图层 2" xmlns="http://www.w3.org/2000/svg" viewBox="0 0 163.58 248.61">
  <g id="_图层_1-2" data-name="图层 1">
    <path d="m1,6.6c0-3.08,2.51-5.6,5.57-5.6h150.43c3.06,0,5.57,2.52,5.57,5.6v235.41c0,3.08-2.51,5.6-5.57,5.6H6.57c-3.06,0-5.57-2.52-5.57-5.6V6.6Z" style="fill: #fff; fill-rule: evenodd; stroke: #231815; stroke-miterlimit: 22.93; stroke-width: 2px;"/>
    <path d="m126.95,243.16v-5.86s11.17-10.2,11.17-10.2c-.96-.15-1.9-.4-2.8-.73-2.36-.87-4.51-2.35-6.23-4.33-1.96-2.25-3.38-5.14-3.98-8.54-1.06-6.04,1.13-11.46,4.89-15.2,1.95-1.94,4.34-3.42,6.92-4.29,2.61-.88,5.43-1.14,8.2-.61,4.86.93,9.52,4.22,12.61,10.68l-5.07,2.41c-2.22-4.65-5.38-6.98-8.6-7.59-1.8-.34-3.65-.17-5.37.41-1.76.59-3.4,1.62-4.75,2.96-2.54,2.53-4.03,6.2-3.31,10.27.41,2.34,1.37,4.31,2.68,5.82,1.11,1.27,2.46,2.21,3.93,2.75,1.46.54,3.06.7,4.65.42,1.73-.3,3.48-1.13,5.12-2.55l3.73,4.19-.05.04h0s-.06.05-.09.08l-15.61,14.25h16.1s0-6.84,0-6.84h5.61v12.45h-29.75Z" style="fill: #e60012; stroke-width: 0px;"/>
    <path d="m141.59,177.42c.08,3.32,2.52,5.73,6.32,5.73s7.24-3.22,7.43-7.84c.18-4.62-2.03-9.29-5.81-14.37-3.78-5.08-8.4-12.37-8.24-12.37s-4.45,7.29-8.24,12.37c-3.78,5.08-6,9.75-5.81,14.37.18,4.62,3.63,7.84,7.43,7.84s6.24-2.41,6.32-5.73c0,0-.02-.92.31-.89.35.03.29.67.3.89Z" style="fill: #e60012; fill-rule: evenodd; stroke-width: 0px;"/>
    <path d="m81.96,167.49c.05,1.92,1.45,3.3,3.64,3.3s4.18-1.86,4.28-4.52c.11-2.66-1.17-5.36-3.35-8.28-2.18-2.93-4.84-7.13-4.75-7.13s-2.57,4.2-4.75,7.13c-2.18,2.93-3.46,5.62-3.35,8.28.11,2.66,2.09,4.52,4.28,4.52,2.19,0,3.6-1.39,3.64-3.3,0,0,0-.53.18-.52.2.02.17.39.17.52h0Zm-.35-86.36c-.05-1.92-1.45-3.3-3.65-3.3-2.19,0-4.18,1.86-4.28,4.52-.11,2.66,1.17,5.36,3.35,8.28,2.18,2.93,4.84,7.13,4.75,7.13s2.57-4.2,4.75-7.13c2.18-2.93,3.46-5.62,3.35-8.28-.11-2.66-2.09-4.52-4.28-4.52s-3.6,1.39-3.65,3.3c0,0,0,.53-.18.52-.2-.02-.17-.39-.17-.52h0Zm0,36.52c-.05-1.92-1.45-3.3-3.65-3.3-2.19,0-4.18,1.86-4.28,4.52-.11,2.66,1.17,5.36,3.35,8.28,2.18,2.93,4.84,7.13,4.75,7.13s2.57-4.2,4.75-7.13c2.18-2.93,3.46-5.62,3.35-8.28-.11-2.66-2.09-4.52-4.28-4.52s-3.6,1.39-3.65,3.3c0,0,0,.53-.18.52-.2-.02-.17-.39-.17-.52Z" style="fill: #e60012; fill-rule: evenodd; stroke-width: 0px;"/>
    <path d="m47.11,62.82c0-1.61,1.08-2.93,2.39-2.93h64.57c1.32,0,2.39,1.32,2.39,2.93v122.97c0,1.61-1.08,2.93-2.39,2.93H49.5c-1.32,0-2.39-1.32-2.39-2.93V62.82Z" style="fill: none; fill-rule: evenodd; stroke: #231815; stroke-miterlimit: 22.93; stroke-width: 1.5px;"/>
    <path d="m36.82,6.74v5.86s-11.17,10.2-11.17,10.2c.96.15,1.9.4,2.8.73,2.36.87,4.51,2.35,6.23,4.33,1.96,2.25,3.38,5.14,3.98,8.54,1.06,6.04-1.13,11.46-4.89,15.2-1.95,1.94-4.34,3.42-6.92,4.29-2.61.88-5.43,1.14-8.2.61-4.86-.93-9.52-4.22-12.61-10.68l5.07-2.41c2.22,4.65,5.38,6.98,8.6,7.59,1.8.34,3.65.17,5.37-.41,1.76-.59,3.4-1.62,4.75-2.96,2.54-2.53,4.03-6.2,3.31-10.27-.41-2.34-1.37-4.31-2.68-5.82-1.11-1.27-2.46-2.21-3.93-2.75-1.46-.54-3.06-.7-4.65-.42-1.73.3-3.48,1.13-5.12,2.55l-3.73-4.19.05-.04h0s.06-.05.09-.08l15.61-14.25H12.67s0,6.84,0,6.84h-5.61V6.74h29.75Z" style="fill: #e60012; stroke-width: 0px;"/>
    <path d="m22.18,72.47c-.08-3.32-2.52-5.73-6.32-5.73-3.8,0-7.24,3.22-7.43,7.84-.18,4.62,2.03,9.29,5.81,14.37,3.78,5.08,8.4,12.37,8.24,12.37s4.45-7.29,8.24-12.37c3.78-5.08,6-9.75,5.81-14.37-.18-4.62-3.63-7.84-7.43-7.84s-6.24,2.41-6.32,5.73c0,0,.02.92-.31.89-.35-.03-.29-.67-.3-.89Z" style="fill: #e60012; fill-rule: evenodd; stroke-width: 0px;"/>
  </g>
</svg>