<?xml version="1.0" encoding="UTF-8"?>
<svg id="_图层_2" data-name="图层 2" xmlns="http://www.w3.org/2000/svg" viewBox="0 0 163.57 248.61">
  <g id="_图层_1-2" data-name="图层 1">
    <path d="m1,6.6c0-3.08,2.51-5.6,5.57-5.6h150.43c3.06,0,5.57,2.52,5.57,5.6v235.41c0,3.08-2.51,5.6-5.57,5.6H6.57c-3.06,0-5.57-2.52-5.57-5.6V6.6Z" style="fill: #fff; fill-rule: evenodd; stroke: #231815; stroke-miterlimit: 22.93; stroke-width: 2px;"/>
    <g>
      <path d="m156.47,204.29v4.91s-20.81,33.95-20.81,33.95h-4.2v-33.25s-5.36,0-5.36,0v-5.61h5.36s0-7.41,0-7.41h-3.66v-5.61h13.07v5.61h-3.8s0,7.41,0,7.41h19.39Zm-7.47,5.61h-11.93s0,19.87,0,19.87l11.93-19.87Z" style="fill: #e60012; stroke-width: 0px;"/>
      <path d="m141.59,177.42c.08,3.32,2.52,5.73,6.32,5.73s7.24-3.22,7.43-7.84c.19-4.62-2.03-9.29-5.81-14.37-3.78-5.08-8.4-12.37-8.24-12.37s-4.45,7.29-8.24,12.37c-3.78,5.08-6,9.75-5.82,14.37.18,4.62,3.63,7.84,7.43,7.84s6.24-2.41,6.32-5.73c0,0-.02-.92.31-.89.35.03.3.67.3.89Z" style="fill: #e60012; fill-rule: evenodd; stroke-width: 0px;"/>
    </g>
    <path d="m64.71,167.73c.05,1.92,1.45,3.3,3.65,3.3s4.18-1.86,4.28-4.52c.11-2.66-1.17-5.36-3.35-8.28-2.18-2.93-4.84-7.13-4.75-7.13s-2.57,4.2-4.75,7.13c-2.18,2.93-3.46,5.62-3.35,8.28s2.09,4.52,4.28,4.52c2.19,0,3.6-1.39,3.64-3.3,0,0,0-.53.18-.52.2.02.17.39.17.52h0Zm34.51,0c.05,1.92,1.45,3.3,3.64,3.3s4.18-1.86,4.28-4.52-1.17-5.36-3.35-8.28c-2.18-2.93-4.84-7.13-4.75-7.13s-2.57,4.2-4.75,7.13c-2.18,2.93-3.46,5.62-3.35,8.28.11,2.66,2.09,4.52,4.28,4.52,2.19,0,3.6-1.39,3.65-3.3,0,0,0-.53.18-.52.2.02.17.39.17.52h0Zm-.35-86.84c-.05-1.92-1.45-3.3-3.65-3.3s-4.18,1.86-4.28,4.52c-.11,2.66,1.17,5.36,3.35,8.28,2.18,2.93,4.84,7.13,4.75,7.13s2.57-4.2,4.75-7.13c2.18-2.93,3.46-5.62,3.35-8.28-.11-2.66-2.09-4.52-4.28-4.52s-3.6,1.39-3.64,3.3c0,0,0,.53-.18.52-.2-.02-.17-.39-.17-.52h0Zm-34.51,0c-.05-1.92-1.45-3.3-3.64-3.3-2.19,0-4.18,1.86-4.28,4.52-.11,2.66,1.17,5.36,3.35,8.28,2.18,2.93,4.84,7.13,4.75,7.13s2.57-4.2,4.75-7.13c2.18-2.93,3.46-5.62,3.35-8.28-.11-2.66-2.09-4.52-4.28-4.52s-3.6,1.39-3.65,3.3c0,0,.01.53-.18.52-.2-.02-.17-.39-.17-.52Z" style="fill: #e60012; fill-rule: evenodd; stroke-width: 0px;"/>
    <path d="m47.11,62.82c0-1.61,1.08-2.93,2.39-2.93h64.57c1.32,0,2.39,1.32,2.39,2.93v122.97c0,1.61-1.08,2.93-2.39,2.93H49.5c-1.32,0-2.39-1.32-2.39-2.93V62.82Z" style="fill: none; fill-rule: evenodd; stroke: #231815; stroke-miterlimit: 22.93; stroke-width: 1.5px;"/>
    <g>
      <path d="m7.3,45.6v-4.91S28.11,6.74,28.11,6.74h4.2v33.25s5.36,0,5.36,0v5.61h-5.36s0,7.41,0,7.41h3.66v5.61h-13.07v-5.61h3.8s0-7.41,0-7.41H7.3Zm7.47-5.61h11.93s0-19.87,0-19.87l-11.93,19.87Z" style="fill: #e60012; stroke-width: 0px;"/>
      <path d="m22.18,72.47c-.08-3.32-2.52-5.73-6.32-5.73-3.8,0-7.24,3.22-7.43,7.84-.19,4.62,2.03,9.29,5.81,14.37,3.78,5.08,8.4,12.37,8.24,12.37s4.45-7.29,8.24-12.37c3.78-5.08,6-9.75,5.82-14.37-.18-4.62-3.63-7.84-7.43-7.84-3.8,0-6.24,2.41-6.32,5.73,0,0,.02.92-.31.89-.35-.03-.3-.67-.3-.89Z" style="fill: #e60012; fill-rule: evenodd; stroke-width: 0px;"/>
    </g>
  </g>
</svg>