<?xml version="1.0" encoding="UTF-8"?>
<svg id="_图层_2" data-name="图层 2" xmlns="http://www.w3.org/2000/svg" viewBox="0 0 163.58 248.61">
  <g id="_图层_1-2" data-name="图层 1">
    <path d="m1,6.6c0-3.08,2.51-5.6,5.57-5.6h150.43c3.07,0,5.57,2.52,5.57,5.6v235.41c0,3.08-2.51,5.6-5.57,5.6H6.57c-3.06,0-5.57-2.52-5.57-5.6V6.6Z" style="fill: #fff; fill-rule: evenodd; stroke: #231815; stroke-miterlimit: 22.93; stroke-width: 2px;"/>
    <g>
      <path d="m129.89,237.54h19.16s.16-9.37.16-9.37c-2.91,1.05-6.99,1.83-11.57.7-.92-.23-1.79-.54-2.59-.92-4.15-1.97-6.86-5.81-8.22-10.27-1.3-4.23-1.39-9.07-.35-13.29.34-1.39.81-2.72,1.39-3.95,2-4.22,5.31-6.95,9.02-8.2,1.86-.63,3.8-.88,5.7-.76,1.91.12,3.82.61,5.62,1.46,3.75,1.78,6.95,5.13,8.6,10.04l-5.31,1.78c-1.12-3.33-3.24-5.58-5.69-6.75-1.12-.53-2.33-.84-3.56-.91-1.24-.08-2.46.08-3.6.46-2.33.78-4.42,2.54-5.73,5.28-.42.89-.76,1.87-1.02,2.9-.81,3.28-.74,7.03.27,10.3.94,3.04,2.68,5.63,5.27,6.85.48.23,1,.41,1.54.55,6.63,1.63,10.39-1.12,14.58-4.7l1.77,1.11-.71,20.55-.05,2.76h-24.68v-5.61Z" style="fill: #e60012; stroke-width: 0px;"/>
      <path d="m141.59,177.42c.08,3.32,2.52,5.73,6.32,5.73,3.8,0,7.24-3.22,7.43-7.84.18-4.62-2.03-9.29-5.82-14.37-3.78-5.08-8.4-12.37-8.24-12.37s-4.45,7.29-8.24,12.37c-3.78,5.08-6,9.75-5.81,14.37.18,4.62,3.63,7.84,7.43,7.84s6.24-2.41,6.32-5.73c0,0-.02-.92.31-.89.35.03.29.67.3.89Z" style="fill: #e60012; fill-rule: evenodd; stroke-width: 0px;"/>
    </g>
    <path d="m81.61,117.64c-.05-1.92-1.45-3.3-3.64-3.3s-4.18,1.86-4.28,4.52c-.11,2.66,1.17,5.36,3.35,8.28,2.18,2.93,4.84,7.13,4.75,7.13s2.57-4.2,4.75-7.13c2.18-2.93,3.46-5.62,3.35-8.28-.11-2.66-2.09-4.52-4.28-4.52-2.19,0-3.6,1.39-3.65,3.3,0,0,.01.53-.18.52-.2-.02-.17-.39-.17-.52h0Zm-16.91,50.08c.05,1.92,1.45,3.3,3.64,3.3,2.19,0,4.18-1.86,4.28-4.52.11-2.66-1.17-5.36-3.35-8.28-2.18-2.93-4.84-7.13-4.75-7.13s-2.57,4.2-4.75,7.13c-2.18,2.93-3.46,5.62-3.35,8.28.11,2.66,2.09,4.52,4.28,4.52s3.6-1.39,3.65-3.3c0,0-.01-.53.18-.52.2.02.17.39.17.52h0Zm34.51,0c.05,1.92,1.45,3.3,3.64,3.3,2.19,0,4.18-1.86,4.28-4.52.11-2.66-1.17-5.36-3.35-8.28-2.18-2.93-4.84-7.13-4.75-7.13s-2.57,4.2-4.75,7.13c-2.18,2.93-3.46,5.62-3.35,8.28.11,2.66,2.09,4.52,4.28,4.52s3.6-1.39,3.65-3.3c0,0-.01-.53.18-.52.2.02.17.39.17.52h0Zm-.35-86.84c-.05-1.92-1.45-3.3-3.64-3.3s-4.18,1.86-4.28,4.52c-.11,2.66,1.17,5.36,3.35,8.28,2.18,2.93,4.84,7.13,4.75,7.13s2.57-4.2,4.75-7.13c2.18-2.93,3.46-5.62,3.35-8.28-.11-2.66-2.09-4.52-4.28-4.52-2.19,0-3.6,1.39-3.65,3.3,0,0,.01.53-.18.52-.2-.02-.17-.39-.17-.52h0Zm-34.51,0c-.05-1.92-1.45-3.3-3.65-3.3s-4.18,1.86-4.28,4.52c-.11,2.66,1.17,5.36,3.35,8.28,2.18,2.93,4.84,7.13,4.75,7.13s2.57-4.2,4.75-7.13c2.18-2.93,3.46-5.62,3.35-8.28-.11-2.66-2.09-4.52-4.28-4.52-2.19,0-3.6,1.39-3.64,3.3,0,0,0,.53-.18.52-.2-.02-.17-.39-.17-.52Z" style="fill: #e60012; fill-rule: evenodd; stroke-width: 0px;"/>
    <path d="m47.11,62.82c0-1.61,1.08-2.93,2.39-2.93h64.57c1.32,0,2.39,1.32,2.39,2.93v122.97c0,1.61-1.08,2.93-2.39,2.93H49.5c-1.32,0-2.39-1.32-2.39-2.93V62.82Z" style="fill: none; fill-rule: evenodd; stroke: #231815; stroke-miterlimit: 22.93; stroke-width: 1.5px;"/>
    <g>
      <path d="m33.88,12.35H14.71s-.16,9.37-.16,9.37c2.91-1.05,6.99-1.83,11.57-.7.92.23,1.79.54,2.59.92,4.15,1.97,6.86,5.81,8.22,10.27,1.3,4.23,1.39,9.07.35,13.29-.34,1.39-.81,2.72-1.39,3.95-2,4.22-5.31,6.95-9.02,8.2-1.86.63-3.8.88-5.7.76-1.91-.12-3.82-.61-5.62-1.46-3.75-1.78-6.95-5.13-8.6-10.04l5.31-1.78c1.12,3.33,3.24,5.58,5.69,6.75,1.12.53,2.33.84,3.56.91,1.24.08,2.46-.08,3.6-.46,2.33-.78,4.42-2.54,5.73-5.28.42-.89.76-1.87,1.02-2.9.81-3.28.74-7.03-.27-10.3-.94-3.04-2.68-5.63-5.27-6.85-.48-.23-1-.41-1.54-.55-6.63-1.63-10.39,1.12-14.58,4.7l-1.77-1.11.71-20.55.05-2.76h24.68v5.61Z" style="fill: #e60012; stroke-width: 0px;"/>
      <path d="m22.18,72.47c-.08-3.32-2.52-5.73-6.32-5.73-3.8,0-7.24,3.22-7.43,7.84-.18,4.62,2.03,9.29,5.82,14.37,3.78,5.08,8.4,12.37,8.24,12.37s4.45-7.29,8.24-12.37c3.78-5.08,6-9.75,5.81-14.37-.18-4.62-3.63-7.84-7.43-7.84-3.8,0-6.24,2.41-6.32,5.73,0,0,.02.92-.31.89-.35-.03-.29-.67-.3-.89Z" style="fill: #e60012; fill-rule: evenodd; stroke-width: 0px;"/>
    </g>
  </g>
</svg>