<?xml version="1.0" encoding="UTF-8"?>
<svg id="_图层_2" data-name="图层 2" xmlns="http://www.w3.org/2000/svg" viewBox="0 0 163.58 248.61">
  <g id="_图层_1-2" data-name="图层 1">
    <path d="m1,6.6c0-3.08,2.51-5.6,5.57-5.6h150.43c3.06,0,5.57,2.52,5.57,5.6v235.41c0,3.08-2.51,5.6-5.57,5.6H6.57c-3.06,0-5.57-2.52-5.57-5.6V6.6Z" style="fill: #fff; fill-rule: evenodd; stroke: #231815; stroke-miterlimit: 22.93; stroke-width: 2px;"/>
    <g>
      <path d="m133.87,218.59c-1.46-.66-2.8-1.52-3.97-2.52-3.05-2.63-4.94-6.29-4.94-10.34s1.89-7.72,4.94-10.34c2.94-2.53,6.98-4.11,11.38-4.11,4.41,0,8.44,1.57,11.39,4.11,3.05,2.63,4.94,6.29,4.94,10.34s-1.89,7.71-4.94,10.34c-1.17,1-2.5,1.86-3.97,2.52,1.02.54,1.96,1.19,2.8,1.93,2.74,2.4,4.45,5.74,4.45,9.44s-1.7,7.04-4.45,9.44c-2.64,2.31-6.26,3.75-10.22,3.75-3.96,0-7.58-1.44-10.22-3.75-2.74-2.4-4.45-5.74-4.45-9.44s1.7-7.04,4.45-9.44c.84-.74,1.78-1.39,2.8-1.93h0Zm7.42-4.03c3.04,0,5.77-1.04,7.72-2.73,1.85-1.59,2.99-3.75,2.99-6.11s-1.15-4.52-2.99-6.11c-1.95-1.68-4.69-2.73-7.72-2.73-3.04,0-5.77,1.04-7.72,2.73-1.85,1.59-2.99,3.76-2.99,6.11s1.15,4.52,2.99,6.11c1.95,1.68,4.68,2.73,7.72,2.73h0Zm0,22.98c2.57,0,4.88-.9,6.54-2.35,1.55-1.36,2.52-3.22,2.52-5.23s-.96-3.87-2.52-5.23c-1.65-1.45-3.97-2.35-6.54-2.35s-4.88.9-6.54,2.35c-1.55,1.36-2.52,3.21-2.52,5.23s.96,3.87,2.52,5.23c1.65,1.45,3.97,2.35,6.54,2.35Z" style="fill: #e60012; stroke-width: 0px;"/>
      <path d="m141.59,177.42c.08,3.32,2.52,5.73,6.32,5.73s7.24-3.22,7.43-7.84c.18-4.62-2.03-9.29-5.81-14.37-3.78-5.08-8.4-12.37-8.24-12.37s-4.45,7.29-8.24,12.37c-3.78,5.08-6,9.75-5.81,14.37.18,4.62,3.63,7.84,7.43,7.84s6.24-2.41,6.32-5.73c0,0-.02-.92.31-.89.35.03.29.67.3.89Z" style="fill: #e60012; fill-rule: evenodd; stroke-width: 0px;"/>
    </g>
    <path d="m81.96,149.35c.05,1.92,1.45,3.3,3.64,3.3s4.18-1.86,4.28-4.52c.11-2.66-1.17-5.36-3.35-8.28-2.18-2.93-4.84-7.13-4.75-7.13s-2.57,4.2-4.75,7.13c-2.18,2.93-3.46,5.62-3.35,8.28.11,2.66,2.09,4.52,4.28,4.52,2.19,0,3.6-1.39,3.65-3.3,0,0,0-.53.18-.52.2.02.17.39.17.52h0Zm16.91-31.7c-.05-1.92-1.45-3.3-3.64-3.3-2.19,0-4.18,1.86-4.28,4.52-.11,2.66,1.17,5.36,3.35,8.28,2.18,2.93,4.84,7.13,4.75,7.13s2.57-4.2,4.75-7.13c2.18-2.93,3.46-5.62,3.35-8.28-.11-2.66-2.09-4.52-4.28-4.52-2.19,0-3.6,1.39-3.65,3.3,0,0,.01.53-.18.52-.2-.02-.17-.39-.17-.52h0Zm-34.51,0c-.05-1.92-1.45-3.3-3.64-3.3-2.19,0-4.18,1.86-4.28,4.52-.11,2.66,1.17,5.36,3.35,8.28,2.18,2.93,4.84,7.13,4.75,7.13s2.57-4.2,4.75-7.13c2.18-2.93,3.46-5.62,3.35-8.28-.11-2.66-2.09-4.52-4.28-4.52s-3.6,1.39-3.65,3.3c0,0,.01.53-.18.52-.2-.02-.17-.39-.17-.52h0Zm17.26-18.38c-.05-1.92-1.45-3.3-3.65-3.3-2.19,0-4.18,1.86-4.28,4.52s1.17,5.36,3.35,8.28c2.18,2.93,4.84,7.13,4.75,7.13s2.57-4.2,4.75-7.13c2.18-2.93,3.46-5.62,3.35-8.28s-2.09-4.52-4.28-4.52-3.6,1.39-3.65,3.3c0,0,.01.53-.18.52-.2-.02-.17-.39-.17-.52h0Zm17.25-18.38c-.05-1.92-1.45-3.3-3.64-3.3-2.19,0-4.18,1.86-4.28,4.52-.11,2.66,1.17,5.36,3.35,8.28,2.18,2.93,4.84,7.13,4.75,7.13s2.57-4.2,4.75-7.13c2.18-2.93,3.46-5.62,3.35-8.28-.11-2.66-2.09-4.52-4.28-4.52-2.19,0-3.6,1.39-3.65,3.3,0,0,.01.53-.18.52-.2-.02-.17-.39-.17-.52h0Zm-34.51,0c-.05-1.92-1.45-3.3-3.64-3.3-2.19,0-4.18,1.86-4.28,4.52-.11,2.66,1.17,5.36,3.35,8.28,2.18,2.93,4.84,7.13,4.75,7.13s2.57-4.2,4.75-7.13c2.18-2.93,3.46-5.62,3.35-8.28-.11-2.66-2.09-4.52-4.28-4.52s-3.6,1.39-3.65,3.3c0,0,.01.53-.18.52-.2-.02-.17-.39-.17-.52h0Zm.35,86.84c.05,1.92,1.45,3.3,3.64,3.3s4.18-1.86,4.28-4.52c.11-2.66-1.17-5.36-3.35-8.28-2.18-2.93-4.84-7.13-4.75-7.13s-2.57,4.2-4.75,7.13c-2.18,2.93-3.46,5.62-3.35,8.28.11,2.66,2.09,4.52,4.28,4.52,2.19,0,3.6-1.39,3.65-3.3,0,0,0-.53.18-.52.2.02.17.39.17.52h0Zm34.51,0c.05,1.92,1.45,3.3,3.65,3.3,2.19,0,4.18-1.86,4.28-4.52s-1.17-5.36-3.35-8.28c-2.18-2.93-4.84-7.13-4.75-7.13s-2.57,4.2-4.75,7.13c-2.18,2.93-3.46,5.62-3.35,8.28.11,2.66,2.09,4.52,4.28,4.52,2.19,0,3.6-1.39,3.64-3.3,0,0,0-.53.18-.51.2.02.17.39.17.52Z" style="fill: #e60012; fill-rule: evenodd; stroke-width: 0px;"/>
    <path d="m47.11,62.82c0-1.61,1.08-2.93,2.39-2.93h64.57c1.32,0,2.39,1.32,2.39,2.93v122.97c0,1.61-1.08,2.93-2.39,2.93H49.5c-1.32,0-2.39-1.32-2.39-2.93V62.82Z" style="fill: none; fill-rule: evenodd; stroke: #231815; stroke-miterlimit: 22.93; stroke-width: 1.5px;"/>
    <g>
      <path d="m29.9,31.3c1.46.66,2.8,1.52,3.97,2.52,3.05,2.63,4.94,6.29,4.94,10.34s-1.89,7.72-4.94,10.34c-2.94,2.53-6.98,4.11-11.38,4.11s-8.44-1.57-11.39-4.11c-3.05-2.63-4.94-6.29-4.94-10.34s1.89-7.71,4.94-10.34c1.17-1,2.5-1.86,3.97-2.52-1.02-.54-1.96-1.19-2.8-1.93-2.74-2.4-4.45-5.74-4.45-9.44s1.7-7.04,4.45-9.44c2.64-2.31,6.26-3.75,10.22-3.75s7.58,1.44,10.22,3.75c2.74,2.4,4.45,5.74,4.45,9.44s-1.7,7.04-4.45,9.44c-.84.74-1.78,1.39-2.8,1.93h0Zm-7.42,4.03c-3.04,0-5.77,1.04-7.72,2.73-1.85,1.59-2.99,3.75-2.99,6.11s1.15,4.52,2.99,6.11c1.95,1.68,4.69,2.73,7.72,2.73s5.77-1.04,7.72-2.73c1.85-1.59,2.99-3.76,2.99-6.11s-1.15-4.52-2.99-6.11c-1.95-1.68-4.68-2.73-7.72-2.73h0Zm0-22.98c-2.57,0-4.88.9-6.54,2.35-1.55,1.36-2.52,3.22-2.52,5.23s.96,3.87,2.52,5.23c1.65,1.45,3.97,2.35,6.54,2.35s4.88-.9,6.54-2.35c1.55-1.36,2.52-3.21,2.52-5.23s-.96-3.87-2.52-5.23c-1.65-1.45-3.97-2.35-6.54-2.35Z" style="fill: #e60012; stroke-width: 0px;"/>
      <path d="m22.18,72.47c-.08-3.32-2.52-5.73-6.32-5.73-3.8,0-7.24,3.22-7.43,7.84-.18,4.62,2.03,9.29,5.81,14.37,3.78,5.08,8.4,12.37,8.24,12.37s4.45-7.29,8.24-12.37c3.78-5.08,6-9.75,5.81-14.37-.18-4.62-3.63-7.84-7.43-7.84-3.8,0-6.24,2.41-6.32,5.73,0,0,.02.92-.31.89-.35-.03-.29-.67-.3-.89Z" style="fill: #e60012; fill-rule: evenodd; stroke-width: 0px;"/>
    </g>
  </g>
</svg>