<?xml version="1.0" encoding="UTF-8"?>
<svg id="_图层_2" data-name="图层 2" xmlns="http://www.w3.org/2000/svg" viewBox="0 0 163.57 248.61">
  <g id="_图层_1-2" data-name="图层 1">
    <path d="m1,6.6c0-3.08,2.51-5.6,5.57-5.6h150.43c3.06,0,5.57,2.52,5.57,5.6v235.41c0,3.08-2.51,5.6-5.57,5.6H6.57c-3.06,0-5.57-2.52-5.57-5.6V6.6Z" style="fill: #fff; fill-rule: evenodd; stroke: #231815; stroke-miterlimit: 22.93; stroke-width: 2px;"/>
    <g>
      <path d="m151.53,203.37s-2.7-6.11-10.28-5.48l.07-.02c-3.08.33-5.12,2.12-6.5,4.76-1.3,2.48-2.09,5.7-2.63,9.25.38-.33.77-.63,1.17-.91,2.25-1.57,4.77-2.39,7.31-2.51,2.52-.12,5.06.46,7.37,1.7,3.71,2,6.77,5.7,8.06,10.92,1.98,8.02-.9,14.68-5.52,18.51-2.53,2.1-5.59,3.35-8.69,3.54-3.19.19-6.41-.73-9.16-3.01-3.49-2.88-6.16-7.99-6.77-15.81h0c-.23-3.03-.16-6.46.3-10.32.61-5.23,1.6-10.13,3.59-13.95,2.24-4.28,5.63-7.18,10.88-7.74l.07-.02c11.53-.96,15.85,8.81,15.87,8.83l-5.13,2.26h0Zm-19.94,21.25c.54,5.65,2.36,9.24,4.71,11.19,1.57,1.3,3.42,1.82,5.26,1.71,1.92-.11,3.84-.91,5.45-2.24,3.13-2.59,5.06-7.21,3.66-12.86-.88-3.56-2.88-6.04-5.28-7.33-1.39-.75-2.92-1.09-4.45-1.02-1.5.07-3.01.57-4.35,1.5-2.33,1.63-4.23,4.6-5,9.05Z" style="fill: #e60012; stroke-width: 0px;"/>
      <path d="m141.59,177.42c.08,3.32,2.52,5.73,6.32,5.73s7.24-3.22,7.43-7.84c.19-4.62-2.03-9.29-5.81-14.37-3.78-5.08-8.4-12.37-8.24-12.37s-4.45,7.29-8.24,12.37c-3.78,5.08-6,9.75-5.81,14.37.18,4.62,3.62,7.84,7.43,7.84s6.24-2.41,6.32-5.73c0,0-.02-.92.31-.89.35.03.3.67.3.89Z" style="fill: #e60012; fill-rule: evenodd; stroke-width: 0px;"/>
    </g>
    <path d="m81.61,117.64c-.05-1.92-1.45-3.3-3.64-3.3-2.19,0-4.18,1.86-4.28,4.52-.11,2.66,1.17,5.36,3.35,8.28,2.18,2.93,4.84,7.13,4.75,7.13s2.57-4.2,4.75-7.13c2.18-2.93,3.46-5.62,3.35-8.28-.11-2.66-2.09-4.52-4.28-4.52s-3.6,1.39-3.64,3.3c0,0,0,.53-.18.52-.2-.02-.17-.39-.17-.52h0Zm-17.26-12.25c-.05-1.92-1.45-3.3-3.64-3.3-2.19,0-4.18,1.86-4.28,4.52-.11,2.66,1.17,5.36,3.35,8.28,2.18,2.93,4.84,7.13,4.75,7.13s2.57-4.2,4.75-7.13c2.18-2.93,3.46-5.62,3.35-8.28-.11-2.66-2.09-4.52-4.28-4.52s-3.6,1.39-3.65,3.3c0,0,.01.53-.18.52-.2-.02-.17-.39-.17-.52h0Zm34.51,0c-.05-1.92-1.45-3.3-3.65-3.3-2.19,0-4.18,1.86-4.28,4.52-.11,2.66,1.17,5.36,3.35,8.28,2.18,2.93,4.84,7.13,4.75,7.13s2.57-4.2,4.75-7.13c2.18-2.93,3.46-5.62,3.35-8.28-.11-2.66-2.09-4.52-4.28-4.52s-3.6,1.39-3.64,3.3c0,0,0,.53-.18.52-.2-.02-.17-.39-.17-.52h0Zm.35,37.83c.05,1.92,1.45,3.3,3.64,3.3s4.18-1.86,4.28-4.52c.11-2.66-1.17-5.36-3.35-8.28-2.18-2.93-4.84-7.13-4.75-7.13s-2.57,4.2-4.75,7.13c-2.18,2.93-3.46,5.62-3.35,8.28.11,2.66,2.09,4.52,4.28,4.52,2.19,0,3.6-1.39,3.65-3.3,0,0-.01-.53.18-.52.2.02.17.39.17.52h0Zm-34.51,0c.05,1.92,1.45,3.3,3.65,3.3s4.18-1.86,4.28-4.52c.11-2.66-1.17-5.36-3.35-8.28-2.18-2.93-4.84-7.13-4.75-7.13s-2.57,4.2-4.75,7.13c-2.18,2.93-3.46,5.62-3.35,8.28.11,2.66,2.09,4.52,4.28,4.52,2.19,0,3.6-1.39,3.64-3.3,0,0,0-.53.18-.52.2.02.17.39.17.52h0Zm-.35-62.33c-.05-1.92-1.45-3.3-3.64-3.3-2.19,0-4.18,1.86-4.28,4.52-.11,2.66,1.17,5.36,3.35,8.28,2.18,2.93,4.84,7.13,4.75,7.13s2.57-4.2,4.75-7.13c2.18-2.93,3.46-5.62,3.35-8.28-.11-2.66-2.09-4.52-4.28-4.52s-3.6,1.39-3.65,3.3c0,0,.01.53-.18.52-.2-.02-.17-.39-.17-.52h0Zm34.51,0c-.05-1.92-1.45-3.3-3.65-3.3-2.19,0-4.18,1.86-4.28,4.52-.11,2.66,1.17,5.36,3.35,8.28,2.18,2.93,4.84,7.13,4.75,7.13s2.57-4.2,4.75-7.13c2.18-2.93,3.46-5.62,3.35-8.28-.11-2.66-2.09-4.52-4.28-4.52-2.19,0-3.6,1.39-3.64,3.3,0,0,0,.53-.18.52-.2-.02-.17-.39-.17-.52h0Zm.35,86.84c.05,1.92,1.45,3.3,3.64,3.3s4.18-1.86,4.28-4.52-1.17-5.36-3.35-8.28-4.84-7.13-4.75-7.13-2.57,4.2-4.75,7.13c-2.18,2.93-3.46,5.62-3.35,8.28s2.09,4.52,4.28,4.52c2.19,0,3.6-1.39,3.65-3.3,0,0-.01-.53.18-.52.2.02.17.39.17.52h0Zm-34.51,0c.05,1.92,1.45,3.3,3.65,3.3s4.18-1.86,4.28-4.52-1.17-5.36-3.35-8.28c-2.18-2.93-4.84-7.13-4.75-7.13s-2.57,4.2-4.75,7.13c-2.18,2.93-3.46,5.62-3.35,8.28s2.09,4.52,4.28,4.52c2.19,0,3.6-1.39,3.64-3.3,0,0,0-.53.18-.52.2.02.17.39.17.52Z" style="fill: #e60012; fill-rule: evenodd; stroke-width: 0px;"/>
    <path d="m47.11,62.82c0-1.61,1.08-2.93,2.39-2.93h64.57c1.32,0,2.39,1.32,2.39,2.93v122.97c0,1.61-1.08,2.93-2.39,2.93H49.5c-1.32,0-2.39-1.32-2.39-2.93V62.82Z" style="fill: none; fill-rule: evenodd; stroke: #231815; stroke-miterlimit: 22.93; stroke-width: 1.5px;"/>
    <g>
      <path d="m12.24,46.53s2.7,6.11,10.28,5.48l-.07.02c3.08-.33,5.12-2.12,6.5-4.76,1.3-2.48,2.09-5.7,2.63-9.25-.38.33-.77.63-1.17.91-2.25,1.57-4.77,2.39-7.31,2.51-2.52.12-5.06-.46-7.37-1.7-3.71-2-6.77-5.7-8.06-10.92-1.98-8.02.9-14.68,5.52-18.51,2.53-2.1,5.59-3.35,8.69-3.54,3.19-.19,6.41.73,9.16,3.01,3.49,2.88,6.16,7.99,6.77,15.81h0c.23,3.03.16,6.46-.3,10.32-.61,5.23-1.6,10.13-3.59,13.95-2.24,4.28-5.63,7.18-10.88,7.74l-.07.02c-11.53.96-15.85-8.81-15.87-8.83l5.13-2.26h0Zm19.94-21.25c-.54-5.65-2.36-9.24-4.71-11.19-1.57-1.3-3.42-1.82-5.26-1.71-1.92.11-3.84.91-5.45,2.24-3.13,2.59-5.06,7.21-3.66,12.86.88,3.56,2.88,6.04,5.28,7.33,1.39.75,2.92,1.09,4.45,1.02,1.5-.07,3.01-.57,4.35-1.5,2.33-1.63,4.23-4.6,5-9.05Z" style="fill: #e60012; stroke-width: 0px;"/>
      <path d="m22.18,72.47c-.08-3.32-2.52-5.73-6.32-5.73s-7.24,3.22-7.43,7.84c-.19,4.62,2.03,9.29,5.81,14.37,3.78,5.08,8.4,12.37,8.24,12.37s4.45-7.29,8.24-12.37c3.78-5.08,6-9.75,5.81-14.37-.18-4.62-3.62-7.84-7.43-7.84s-6.24,2.41-6.32,5.73c0,0,.02.92-.31.89-.35-.03-.3-.67-.3-.89Z" style="fill: #e60012; fill-rule: evenodd; stroke-width: 0px;"/>
    </g>
  </g>
</svg>