<?xml version="1.0" encoding="UTF-8"?>
<svg id="_图层_2" data-name="图层 2" xmlns="http://www.w3.org/2000/svg" viewBox="0 0 163.57 248.61">
  <g id="_图层_1-2" data-name="图层 1">
    <path d="m1,6.6c0-3.08,2.51-5.6,5.57-5.6h150.43c3.06,0,5.57,2.52,5.57,5.6v235.4c0,3.08-2.51,5.61-5.57,5.61H6.57c-3.06,0-5.57-2.52-5.57-5.61V6.6Z" style="fill: #fff; fill-rule: evenodd; stroke: #231815; stroke-miterlimit: 22.93; stroke-width: 2px;"/>
    <path d="m154.11,197.6l-9.65,45.52h-7.01s-9.65-45.52-9.65-45.52h-4.16v-5.61h14v5.61h-3.97s1.61,7.6,1.61,7.6h11.33s1.61-7.6,1.61-7.6h-4.44v-5.61h14v5.61h-3.68Zm-17.63,13.22l4.47,21.09,4.48-21.09h-8.95Z" style="fill: #231815; stroke-width: 0px;"/>
    <path d="m140.79,182.98c.25,0,2.55-5.23,5.21-8.76,2.66-3.53,5.31-6.61,6.6-9.91,1.3-3.3,1.1-5.8-.08-7.61-1.18-1.81-3.19-2.8-5.51-2.58-2.32.22-3.74,2.08-4.27,4.44,0,0-.17.9-.51.94-.34.05-.65-.28-.27-3.14.39-2.85,1.22-6,3.05-7.66h-8.74c1.79,1.67,2.61,4.81,2.99,7.66.38,2.85.07,3.19-.26,3.14-.33-.05-.5-.94-.5-.94-.52-2.37-1.92-4.23-4.19-4.44-2.28-.22-4.25.77-5.41,2.58-1.16,1.81-1.36,4.31-.08,7.61,1.27,3.3,3.87,6.38,6.48,9.91,2.62,3.53,5.26,8.76,5.5,8.76Z" style="fill: #231815; fill-rule: evenodd; stroke-width: 0px;"/>
    <g>
      <path d="m80.82,93c-7.18,11.3-13.93,18.51-17.69,23.18-3.76,4.67-9.57,12.04-8.29,20.07,1.28,8.03,7.89,11.09,13.68,10.65,5.55-.42,9.53-5.82,9.53-5.82-.94,9.71-8.14,17.21-8.14,17.21,3.29-1.27,8.87-1.38,10.92-1.38,2.05,0,7.63.1,10.92,1.38,0,0-7.2-7.5-8.14-17.21,0,0,3.98,5.4,9.53,5.82,5.78.44,12.39-2.62,13.68-10.65,1.28-8.03-4.53-15.4-8.29-20.07-3.76-4.67-10.51-11.88-17.69-23.18Z" style="fill: none; fill-rule: evenodd; stroke: #fff; stroke-linecap: round; stroke-linejoin: round; stroke-width: .82px;"/>
      <path d="m80.82,93c-7.18,11.3-13.93,18.51-17.69,23.18-3.76,4.67-9.57,12.04-8.29,20.07,1.28,8.03,7.89,11.09,13.68,10.65,5.55-.42,9.53-5.82,9.53-5.82-.94,9.71-8.14,17.21-8.14,17.21,3.29-1.27,8.87-1.38,10.92-1.38,2.05,0,7.63.1,10.92,1.38,0,0-7.2-7.5-8.14-17.21,0,0,3.98,5.4,9.53,5.82,5.78.44,12.39-2.62,13.68-10.65,1.28-8.03-4.53-15.4-8.29-20.07-3.76-4.67-10.51-11.88-17.69-23.18Z" style="fill: #231815; fill-rule: evenodd; stroke-width: 0px;"/>
    </g>
    <g>
      <g>
        <polygon points="80.75 110.48 94.73 117.56 94.79 131.69 80.68 138.67 66.62 131.69 66.77 117.59 80.75 110.48" style="fill: #fff; stroke: #231815; stroke-miterlimit: 10; stroke-width: .39px;"/>
        <polygon points="68.69 118.13 80.58 112.05 83.67 113.84 74.87 118.27 80.77 121.28 86.8 118.25 85.26 117.35 80.75 119.87 77.86 118.17 85.25 114.4 92.5 118.31 80.7 124.37 68.69 118.13" style="fill: #231815; stroke: #231815; stroke-miterlimit: 10; stroke-width: .39px;"/>
        <polygon points="68.3 118.99 80.24 125.01 80.12 132.57 75.79 130.23 75.81 131.87 79.98 134.01 80.12 136.99 72.68 133.29 72.82 128.53 71.14 127.99 71.08 132.56 68.05 130.98 68.3 118.99" style="fill: #231815; stroke-width: 0px;"/>
        <polyline points="93.16 128.1 84.5 132.63 84.5 130.92 93.24 126.47 93.24 123.53 84.77 127.96 84.24 127.92 84.24 126.48 93.4 121.9 93.4 118.99 81.33 125.05 81.33 137.13 93.4 130.88 93.29 128.06" style="fill: #231815; stroke-width: 0px;"/>
      </g>
      <polygon points="71.16 123.53 71.16 125.12 77.05 127.99 77.13 126.36 71.16 123.53" style="fill: #fff; stroke-width: 0px;"/>
    </g>
    <path d="m47.14,62.86c0-1.61,1.08-2.93,2.39-2.93h64.57c1.32,0,2.39,1.32,2.39,2.93v122.97c0,1.61-1.08,2.93-2.39,2.93H49.54c-1.32,0-2.39-1.32-2.39-2.93V62.86Z" style="fill: none; fill-rule: evenodd; stroke: #231815; stroke-miterlimit: 22.93; stroke-width: 1.5px;"/>
    <path d="m8.53,52.37L18.18,6.85h7.01s9.65,45.52,9.65,45.52h4.16v5.61h-14v-5.61h3.97s-1.61-7.6-1.61-7.6h-11.33s-1.61,7.6-1.61,7.6h4.44v5.61H4.85v-5.61h3.68Zm17.63-13.22l-4.47-21.09-4.48,21.09h8.95Z" style="fill: #231815; stroke-width: 0px;"/>
    <path d="m21.84,67c-.25,0-2.55,5.23-5.21,8.76-2.66,3.53-5.31,6.61-6.6,9.91-1.3,3.3-1.1,5.8.08,7.61,1.18,1.81,3.19,2.8,5.51,2.58,2.32-.22,3.74-2.08,4.27-4.44,0,0,.17-.9.51-.94.34-.05.65.28.27,3.14-.39,2.85-1.22,6-3.05,7.66h8.74c-1.79-1.67-2.61-4.81-2.99-7.66-.38-2.85-.07-3.19.26-3.14.33.05.5.94.5.94.52,2.37,1.92,4.23,4.19,4.44,2.28.22,4.25-.77,5.41-2.58,1.16-1.81,1.36-4.31.08-7.61-1.27-3.3-3.87-6.38-6.48-9.91-2.62-3.53-5.26-8.76-5.5-8.76Z" style="fill: #231815; fill-rule: evenodd; stroke-width: 0px;"/>
  </g>
</svg>