<?xml version="1.0" encoding="UTF-8"?>
<svg id="_图层_2" data-name="图层 2" xmlns="http://www.w3.org/2000/svg" viewBox="0 0 163.57 248.61">
  <g id="_图层_1-2" data-name="图层 1">
    <path d="m1,6.6c0-3.08,2.51-5.6,5.57-5.6h150.43c3.06,0,5.57,2.52,5.57,5.6v235.41c0,3.08-2.51,5.6-5.57,5.6H6.57c-3.07,0-5.57-2.52-5.57-5.6V6.6Z" style="fill: #fff; fill-rule: evenodd; stroke: #231815; stroke-miterlimit: 22.93; stroke-width: 2px;"/>
    <path d="m71.49,131.06v-.32c0,.05.01.11.01.16,0,.05,0,.11-.01.16h0Zm0-1.32c.14,1.42,1.52,2.14,2.59,2.32-.01-.37-.02-.73-.04-1.09-.66-2.35-2.42-2.38-2.42-2.38-.07.23-.11.45-.13.65v.5Zm0-.5v.5c-.02-.16-.02-.33,0-.5h0Zm0,1.5v.32c-.08.47-.49.84-.99.84-.55,0-1-.45-1-1s.45-1,1-1c.5,0,.91.36.99.84h0Zm-3.9-1.53c.39.27,2.37,1.49,3.57-1.01l.02-.22s-2.53-1.04-3.6,1.04v.19h0Zm0-1.07v-1.39c.09.45.09.93,0,1.39Zm0-1.39v1.39c-.08.43-.24.86-.47,1.24-.98-.85-1.39-1.63-1.51-2.3,0,.5-.36.92-.84,1v-2.01c.39.07.71.37.81.75-.09-1.17.7-1.93.7-1.93.74.44,1.15,1.11,1.31,1.85h0Zm0,2.27s-.05.09-.07.14c0,0,.02.02.07.05v-.19h0Zm-2.81-3.58c.5-.19.94-.52,1.22-.9-.43-.39-.84-.63-1.22-.76v1.66Zm0-1.66v1.66c-.76.3-1.66.29-2.31-.34v-.92c.46-.35,1.28-.76,2.31-.4h0Zm0,2.3v2.01c-.06.01-.12.02-.19.02-.57,0-1.03-.46-1.03-1.02s.46-1.02,1.03-1.02c.06,0,.13,0,.19.02h0Zm-2.31-2.1c.57-1,.52-2.36,0-3.31v3.31Zm-1.31-5.05c.16.17.31.37.44.62-.14.11-.29.2-.44.28v-.9h0Zm1.31,1.74v3.31c-.17.29-.39.56-.66.77-.27-.31-.48-.61-.64-.9v-3.13c.31-.52.66-.81.66-.81.26.19.48.46.65.76h0Zm0,3.51c-.26.2-.41.38-.41.38.12.21.26.39.41.54v-.92Zm-1.75-5.62c.15.1.3.22.44.37v.9c-.14.07-.29.14-.44.19v-1.46h0Zm.44,2.16v3.13c-.3-.54-.42-1.04-.44-1.49v-.18c.02-.58.22-1.07.44-1.45h0Zm-.44.87s0-.04,0-.06,0-.04,0-.06v.13Zm-2.18-3.21c.59-.18,1.44-.29,2.18.19v1.46c-.75.26-1.56.21-2.18-.28v-1.38h0Zm2.18,3.09v.13c-.03.54-.48.96-1.03.96s-1.03-.46-1.03-1.03.46-1.03,1.03-1.03,1,.43,1.03.96h0Zm0,.71c0,.06,0,.12,0,.18v-.18h0Zm-2.18-4.66v-3.52c.17-.09.29-.13.29-.13.77,1.24.5,2.61-.29,3.66h0Zm0-4.04v-.57c.16.31.21.55.21.55h-.18s-.04.02-.04.02Zm-.75,5.21s.3-.18.75-.32v1.38c-.3-.24-.57-.59-.75-1.06h0Zm.75-5.79v.57c-1.92.51-2.71-.39-3.04-1.14v-.88c1.85-.29,2.69.76,3.04,1.45h0Zm0,1.09c-.29.15-.73.44-1.06.91,0-.03,0-.07,0-.1,0-.58-.48-1.05-1.06-1.05-.4,0-.74.22-.92.54v1.03c.18.32.53.54.92.54.28,0,.53-.11.72-.28-.22.69-.18,1.62.47,2.86.35-.26.67-.57.93-.92v-3.52h0Zm-3.04-2.83c1.42-.59,2.26-2.3,1.94-3.79,0,0-1.24.11-1.94,1.25v2.55h0Zm0-2.89v-1.71c.28.19.46.5.46.86,0,.36-.18.67-.46.86h0Zm0-2.02c.36.29.88.52,1.63.64.27-1.34-.34-2.87-1.63-3.27v2.64h0Zm0-3.2v-2.14c.92-.72,2.09-.69,2.09-.69.02,1.38-.92,2.4-2.09,2.84h0Zm0-2.45c.47-.13.82-.56.82-1.08,0-.13-.02-.26-.07-.38.31.27.74.49,1.37.58.13-.48.02-1.01-.23-1.47-.61-.46-1.17-.86-1.68-1.21-.04,0-.08,0-.12,0,0,0-.16.82.24,1.56-.1-.07-.21-.12-.33-.15v2.15Zm0-2.15v2.15c-.1.03-.2.04-.3.04-.62,0-1.12-.5-1.12-1.12s.5-1.12,1.12-1.12c.1,0,.21.01.3.04h0Zm0,2.46v2.14c-.35.13-.72.21-1.1.23.05-1.19.53-1.92,1.1-2.37h0Zm0,2.71v2.64c-1.27-1.01-.56-2.73-.56-2.73.2.01.38.04.56.1h0Zm0,2.94v1.71c-.16.11-.36.17-.57.17-.57,0-1.03-.46-1.03-1.03s.47-1.03,1.03-1.03c.21,0,.41.06.57.17h0Zm0,2.06v2.55c-.13.05-.27.1-.41.13-.16-1.24.05-2.09.41-2.68h0Zm0,2.84v.88c-.2-.45-.22-.84-.22-.84.08-.02.15-.03.22-.04h0Zm0,2.84v1.03c-.09-.15-.13-.33-.13-.51,0-.19.05-.36.13-.51Z" style="fill: #e60012; fill-rule: evenodd; stroke-width: 0px;"/>
    <path d="m108.08,150.17v-2.15c.1-.03.2-.04.3-.04.62,0,1.12.5,1.12,1.12s-.5,1.12-1.12,1.12c-.1,0-.21-.01-.3-.04h0Zm0-2.46v-2.14c.35-.13.72-.21,1.1-.23-.05,1.2-.53,1.93-1.1,2.37h0Zm0-2.71v-2.64c1.27,1.01.56,2.73.56,2.73-.2,0-.38-.04-.56-.1h0Zm0-2.94v-1.71c.16-.11.36-.17.57-.17.57,0,1.03.46,1.03,1.03s-.46,1.03-1.03,1.03c-.21,0-.41-.06-.57-.17h0Zm0-2.06v-2.54c.13-.05.27-.1.41-.13.16,1.24-.05,2.1-.41,2.68h0Zm0-2.84v-.89c.2.45.22.84.22.84-.08.02-.15.03-.22.04h0Zm0-2.84v-1.03c.09.15.13.33.13.51,0,.19-.05.36-.13.51Zm-2.29-4.4s-.3.18-.75.31v-1.38c.31.24.57.59.75,1.06h0Zm2.29,3.37c-.18-.32-.53-.54-.92-.54-.28,0-.53.11-.72.28.22-.69.18-1.62-.47-2.86-.35.26-.67.57-.93.92v3.53c.29-.15.73-.44,1.06-.92,0,.03,0,.07,0,.1,0,.58.48,1.05,1.06,1.05.4,0,.74-.22.92-.54v-1.03h0Zm0,2.98v.89c-1.85.29-2.69-.76-3.04-1.45v-.57c1.92-.51,2.71.39,3.04,1.14h0Zm0,1.18c-1.42.59-2.26,2.3-1.94,3.79,0,0,1.24-.11,1.94-1.25v-2.54h0Zm0,2.89v1.71c-.28-.18-.47-.5-.47-.86,0-.36.19-.67.47-.86h0Zm0,2.02c-.36-.29-.88-.52-1.63-.64-.27,1.34.34,2.88,1.63,3.27v-2.64h0Zm0,3.2v2.14c-.92.72-2.09.69-2.09.69-.02-1.38.92-2.4,2.09-2.84h0Zm0,2.45c-.47.13-.82.56-.82,1.08,0,.13.02.26.07.38-.31-.27-.74-.49-1.36-.58-.13.48-.02,1.01.23,1.47.61.46,1.17.86,1.68,1.21.04,0,.08,0,.12,0,0,0,.16-.82-.24-1.56.1.07.21.12.33.15v-2.15Zm-3.04-17.78c-.59.18-1.44.29-2.18-.19v-1.46c.75-.26,1.56-.21,2.18.28v1.38h0Zm0,.86v3.53c-.17.09-.29.13-.29.13-.77-1.24-.5-2.61.29-3.66h0Zm0,4.04v.57c-.16-.31-.21-.55-.21-.55l.18-.02h.04Zm-2.18-7.99v-.12c.03-.54.48-.97,1.03-.97s1.03.46,1.03,1.03-.46,1.03-1.03,1.03-1-.43-1.03-.97h0Zm0-.7c0-.06,0-.13,0-.2v.2Zm0,3.6c-.15-.1-.3-.22-.44-.37v-.9c.14-.08.29-.14.44-.19v1.46h0Zm0-3.8v.2c-.02.58-.22,1.07-.44,1.45v-3.13c.3.54.42,1.04.44,1.49h0Zm0,.78s0,.04,0,.06,0,.04,0,.06v-.12Zm-.44,2.65c-.16-.17-.31-.37-.44-.62.14-.1.29-.2.44-.28v.9h0Zm0-4.92v3.13c-.31.52-.66.81-.66.81-.26-.19-.48-.46-.65-.76v-3.31c.17-.29.39-.56.66-.77.27.31.48.61.64.9h0Zm-1.31-.33c.26-.2.41-.38.41-.38-.12-.22-.26-.39-.41-.54v.92Zm0-.92v.92c-.46.35-1.28.76-2.31.4v-1.66c.76-.3,1.66-.29,2.31.34h0Zm0,1.12c-.57,1-.52,2.36,0,3.31v-3.31h0Zm-2.31-2.11v-2.01c.06-.01.12-.02.19-.02.57,0,1.03.46,1.03,1.02s-.46,1.02-1.03,1.02c-.06,0-.13,0-.19-.02Zm0-2.01v2.01c-.39-.07-.71-.37-.81-.75.09,1.17-.7,1.93-.7,1.93-.74-.44-1.15-1.11-1.31-1.85v-1.39c.08-.43.24-.86.47-1.24.98.85,1.39,1.63,1.51,2.3,0-.5.36-.92.84-1h0Zm0,2.65c-.5.2-.94.52-1.22.9.43.39.84.63,1.22.76v-1.66h0Zm-2.81-3.58s.05-.09.07-.14c0,0-.02-.02-.07-.05v.2Zm0-.2v.2c-1.06,2.07-3.59,1.04-3.59,1.04l.02-.22c1.2-2.5,3.18-1.29,3.57-1.01h0Zm0,1.07c-.09.47-.09.94,0,1.39v-1.39h0Zm-3.9-1.09v-.51c.02.16.02.33,0,.51h0Zm0-1.5c.08.47.49.84.99.84.55,0,1-.45,1-1s-.45-1-1-1c-.5,0-.91.36-.99.84v.32Zm0-.32v.32c0-.05-.01-.11-.01-.16s0-.11.01-.16h0Zm0,1.32c-.14-1.42-1.52-2.14-2.59-2.32.01.37.02.73.04,1.1.65,2.35,2.42,2.38,2.42,2.38.07-.23.11-.45.13-.65v-.51Z" style="fill: #e60012; fill-rule: evenodd; stroke-width: 0px;"/>
    <path d="m57.75,63.33c-.17,0-1.76,3.6-3.6,6.02-1.84,2.42-3.67,4.54-4.57,6.81-.9,2.27-.76,3.99.06,5.24.82,1.25,2.21,1.93,3.81,1.78,1.6-.15,2.59-1.43,2.96-3.06,0,0,.12-.61.35-.65.23-.03.45.2.18,2.16-.27,1.96-.84,4.12-2.11,5.27h6.05c-1.24-1.15-1.81-3.31-2.07-5.27-.26-1.96-.05-2.19.18-2.16.23.03.34.65.34.65.36,1.63,1.33,2.91,2.9,3.06,1.57.15,2.94-.53,3.74-1.78.8-1.25.94-2.96.06-5.24-.88-2.27-2.68-4.39-4.48-6.81-1.81-2.43-3.63-6.02-3.81-6.02Z" style="fill: #231815; fill-rule: evenodd; stroke-width: 0px;"/>
    <path d="m105.83,185.28c.17,0,1.76-3.6,3.6-6.02,1.84-2.42,3.67-4.54,4.57-6.81.9-2.27.76-3.99-.06-5.24s-2.21-1.93-3.81-1.78c-1.6.15-2.59,1.43-2.96,3.06,0,0-.12.61-.35.65-.23.03-.45-.2-.18-2.16.27-1.96.84-4.12,2.11-5.27h-6.05c1.24,1.15,1.81,3.31,2.07,5.27.26,1.96.05,2.19-.18,2.16-.23-.03-.34-.65-.34-.65-.36-1.63-1.33-2.91-2.9-3.06-1.58-.15-2.94.53-3.74,1.78-.8,1.25-.94,2.96-.06,5.24.88,2.27,2.68,4.39,4.48,6.81,1.81,2.43,3.63,6.02,3.81,6.02Z" style="fill: #231815; fill-rule: evenodd; stroke-width: 0px;"/>
    <path d="m59.26,151.22l-6.99-5.12s-.89.53-.84,1.14c-1.61-.09-2.59,1-1.82,2.48,0,0-1.3.89-.39,2.27,0,0-.6.6-.54,1.3.05.69.76.94.76.94,0,0-.46.56-.33,1.41.13.85,1.18.84,1.18.84,0,0-1.14,1.54.98,1.67v.44s-2.17.66-2.66,3.32c-.49,2.65,2.29,5.91,2.29,5.91l-2.4,3.37,2.47,3.71s-1.95,1.99-2.31,4.9c-.35,2.91,2.08,4.56,3.59,4.4,1.51-.15,3.43-1.28,3.32-4.34,0,0,.11-2.04-2.25-4.91l2.37-3.75-2.33-3.35s2.35-3.06,2.4-4.94c.05-1.89-.79-3.35-2.58-4.25v-.52c3.76-.59,5.05-3.14,5.96-6.53l.11-.37Z" style="fill: #112343; fill-rule: evenodd; stroke-width: 0px;"/>
    <path d="m51.47,147.76s-.05.76.23,1.24c0,0-.67-.07-1.79.41-.38-1.02.3-1.84,1.56-1.65h0Zm.2,1.56c-1.25,0-2.73.82-2.22,2.36,1.4-1.08,2.56-.8,2.56-.8-.49-.66-.34-1.55-.34-1.55h0Zm-.02,1.87s-.34,1.03.49,1.55c0,0-1.54.23-2.37,1.2,0,0-.49-.31-.49-.89-.02-1.14,1.43-1.78,2.38-1.86h0Zm-.06,2.1c-.86.27-2.19.98-1.97,2.09.11.55.84.71.84.71l1.69-1.43c-.59-.59-.56-1.37-.56-1.37h0Zm.34-5.59s.62.21.66.77c.04.56-.19.52-.35.52-.29,0-.29-1.02-.31-1.28h0Zm.41,1.62s.47-.07.52.43c.04.5-.07,1.05-.27,1.12-.25.1-.86-1.61-.25-1.55h0Zm-.02,1.85c.23,0,.66.05.79.37.19.45.08,1.12-.18,1.19-.67.2-1.17-1.56-.61-1.56h0Zm-.28,2.67c.14,1.03,1.66.71,1.66-.03,0-.32-.64-.74-1.03-.71-.39.03-.7.25-.63.74h0Zm.6,3.96c-.23.02-.47.03-.69.02-1.26-.07-1.74-.47-1.31-1.2.74-.45,2.18-.37,2,1.18h0Zm-.34-10.33c.25.12.52.38.58.74.06.37,0,.73.14.96.14.22.2.21.2.64s-.14,1.09.08,1.34c.22.25.23.76.23,1.42s.48.87.48.87c-.36-2.9,1.02-4.14,1.02-4.14-.66,2.12-.54,5.53-.54,5.53-2.35.08-2.71.65-2.71.65-.2.16-.38.31-.53.45,1.17-.09,1.82.68,1.88,1.81,1.53-.28,3.12-1.19,3.78-2.17.84-1.23,1.95-4.28,1.95-4.28,0,0-5.47-4.07-5.84-4.36-.36-.29-.6-.35-.85-.14-.25.21-.24.48-.24.48l.36.2Z" style="fill: #fff; fill-rule: evenodd; stroke-width: 0px;"/>
    <path d="m49.13,171.19l2.34-3.34s-1.92-2.39-2.38-4.32c-.47-1.93.82-4.65,3.18-4.63,2.35.03,3.04,2.8,2.96,4.3-.08,1.5-2.13,4.22-2.46,4.65l2.42,3.37-2.38,3.76s2.26,2.71,2.32,5.19c.06,2.48-1.69,3.56-2.87,3.56s-3.07-1-3.04-3.51c.03-2.51,1.75-4.76,2.26-5.33l-2.35-3.71Z" style="fill: #ffe100; fill-rule: evenodd; stroke-width: 0px;"/>
    <path d="m52.16,168.6l.31.47.63.95.63.95.14.2-.14.2-.63.95-.63.95-.31.47-.31-.47-.63-.95-.63-.95-.13-.2.13-.2.63-.95.63-.95.31-.47h0Zm0,1.35l-.32.48-.49.75.49.75.32.48.32-.48.49-.75-.49-.75-.32-.48h0Zm.04,6.74c-.35.42-.68.9-.96,1.38-.3.52-.52,1.02-.6,1.41-.19.95.1,1.59.57,1.93.38.28.88.36,1.32.24.44-.12.83-.44,1-.96.27-.83.02-2.15-1.33-4h0Zm-.16-.52l.19-.21.17.23c1.62,2.12,1.91,3.67,1.58,4.66-.23.69-.74,1.11-1.32,1.26-.58.16-1.22.05-1.72-.31-.6-.44-.98-1.24-.75-2.39.09-.44.33-.99.65-1.55.34-.59.77-1.19,1.2-1.68h0Zm.19-9.52l-.19-.21c-.43-.49-.86-1.09-1.2-1.68-.32-.56-.56-1.11-.65-1.55-.23-1.15.15-1.96.75-2.39.5-.36,1.14-.47,1.72-.31.58.16,1.1.58,1.32,1.26.33.99.04,2.54-1.58,4.66l-.17.23h0Zm-.03-.74c1.36-1.85,1.61-3.18,1.34-4-.17-.52-.56-.84-1-.96-.45-.12-.94-.04-1.32.24-.47.34-.76.98-.57,1.93.08.39.3.9.6,1.41.28.48.61.97.96,1.39Z" style="fill: #112343; stroke-width: 0px;"/>
    <path d="m104.32,97.4l6.99,5.12s.89-.53.84-1.14c1.61.09,2.59-1,1.82-2.48,0,0,1.3-.89.39-2.27,0,0,.6-.6.54-1.3-.05-.7-.76-.94-.76-.94,0,0,.46-.56.33-1.41-.13-.85-1.18-.84-1.18-.84,0,0,1.14-1.54-.98-1.67v-.44s2.17-.66,2.66-3.31c.49-2.65-2.29-5.91-2.29-5.91l2.4-3.37-2.47-3.71s1.95-1.99,2.31-4.9c.35-2.91-2.08-4.56-3.59-4.4s-3.43,1.28-3.32,4.34c0,0-.11,2.04,2.25,4.91l-2.38,3.75,2.33,3.35s-2.35,3.05-2.4,4.94c-.05,1.89.79,3.35,2.58,4.25v.52c-3.76.59-5.05,3.14-5.96,6.53l-.11.37Z" style="fill: #112343; fill-rule: evenodd; stroke-width: 0px;"/>
    <path d="m112.11,100.85s.05-.76-.23-1.24c0,0,.67.07,1.79-.41.38,1.02-.3,1.84-1.56,1.65h0Zm-.2-1.57c1.25,0,2.73-.82,2.22-2.35-1.4,1.08-2.56.8-2.56.8.49.66.34,1.55.34,1.55h0Zm.02-1.87s.35-1.03-.49-1.55c0,0,1.54-.23,2.37-1.2,0,0,.49.31.5.89.02,1.14-1.43,1.78-2.38,1.86h0Zm.06-2.1c.86-.27,2.19-.98,1.97-2.09-.11-.55-.84-.71-.84-.71l-1.69,1.43c.59.59.56,1.37.56,1.37h0Zm-.34,5.59s-.62-.21-.66-.77c-.04-.56.19-.52.35-.52.29,0,.29,1.02.31,1.28h0Zm-.41-1.62s-.47.07-.52-.43c-.04-.5.07-1.05.27-1.12.25-.09.86,1.61.25,1.55h0Zm.02-1.85c-.23,0-.66-.05-.79-.37-.19-.45-.08-1.12.18-1.19.67-.2,1.16,1.57.61,1.56h0Zm.28-2.67c-.14-1.03-1.66-.71-1.66.03,0,.32.64.74,1.03.71.39-.03.7-.25.63-.74h0Zm-.6-3.96c.23-.02.46-.03.69-.02,1.26.07,1.74.47,1.31,1.2-.74.45-2.18.37-2-1.18h0Zm.34,10.33c-.25-.12-.52-.38-.58-.74-.06-.37,0-.73-.14-.96-.14-.23-.2-.21-.2-.64s.14-1.08-.08-1.34c-.22-.25-.22-.76-.22-1.42s-.48-.87-.48-.87c.36,2.9-1.02,4.14-1.02,4.14.66-2.12.54-5.53.54-5.53,2.35-.08,2.7-.65,2.7-.65.2-.16.38-.31.53-.45-1.17.09-1.82-.68-1.88-1.82-1.54.28-3.12,1.19-3.78,2.17-.84,1.23-1.95,4.28-1.95,4.28,0,0,5.47,4.07,5.84,4.36.36.29.6.35.85.14.25-.21.24-.48.24-.48l-.36-.2Z" style="fill: #fff; fill-rule: evenodd; stroke-width: 0px;"/>
    <path d="m114.44,77.42l-2.34,3.34s1.92,2.39,2.38,4.32c.47,1.93-.82,4.65-3.17,4.62-2.35-.03-3.04-2.8-2.96-4.3.08-1.5,2.13-4.22,2.46-4.65l-2.42-3.37,2.38-3.76s-2.26-2.71-2.32-5.19c-.06-2.48,1.69-3.56,2.87-3.56,1.18,0,3.07,1,3.04,3.51-.03,2.51-1.75,4.76-2.27,5.33l2.35,3.71Z" style="fill: #ffe100; fill-rule: evenodd; stroke-width: 0px;"/>
    <path d="m111.35,81.97l.19.21c.43.49.86,1.09,1.2,1.68.32.56.56,1.11.65,1.55.23,1.15-.15,1.96-.75,2.39-.5.36-1.14.47-1.72.31-.58-.16-1.1-.58-1.32-1.26-.33-.99-.04-2.54,1.58-4.66l.17-.23h0Zm.03.74c-1.36,1.85-1.61,3.18-1.34,4,.17.52.56.84,1,.96.45.12.94.04,1.32-.24.47-.34.76-.98.57-1.93-.08-.39-.3-.9-.6-1.41-.28-.48-.61-.97-.96-1.38h0Zm0-10.78c.34-.42.68-.9.96-1.39.3-.52.52-1.02.6-1.41.19-.95-.1-1.59-.57-1.93-.38-.28-.88-.36-1.32-.24-.44.12-.83.44-1,.96-.27.83-.02,2.15,1.34,4h0Zm.16.52l-.19.21-.17-.23c-1.62-2.12-1.91-3.67-1.58-4.66.23-.69.74-1.11,1.32-1.27.58-.16,1.22-.05,1.72.31.6.44.98,1.24.75,2.39-.09.44-.33.99-.65,1.55-.34.59-.77,1.19-1.2,1.68h0Zm-.12,7.56l-.31-.47-.63-.95-.63-.95-.13-.2.13-.2.63-.95.63-.95.31-.47.31.47.63.95.63.95.14.2-.14.2-.63.95-.63.95-.31.47h0Zm0-1.35l.32-.48.49-.75-.49-.75-.32-.48-.32.48-.49.75.49.75.32.48Z" style="fill: #112343; stroke-width: 0px;"/>
    <path d="m47.11,142.47l21.44,15.98c-.45.41-.44.88-.3,1.28.13.4.28.84-.06,1.18-.33.33-.4.73-.33,1.11.07.38.19.6-.03.76-.22.15-.46.33-.46.72s.36.4.31,1.29c-.05.89-.75,1.38-1.51,2.02-.76.64-.84,1.07-.72,1.43.12.36,1.54,3.14,2.16,4.56.62,1.42.24,1.95-.24,2.93-.47.98-.08,2.96-.08,2.96l-5.9,10.05h34.57s-5.13-10.49-5.13-10.49c0,0,.23-2.09,2.44-6.07,2.21-3.99,2.02-4.86,1.35-6.84l1.13-1.54s3.44.21,2.78-4.28c0,0,6.53-2.8,10.17-6.5,0,0,5.19,3.08,7.76,3.88v-50.72s-21.45-15.97-21.45-15.97c.45-.41.44-.88.3-1.28-.13-.4-.28-.84.06-1.18.34-.33.4-.73.34-1.11-.07-.38-.19-.6.03-.76.22-.15.46-.33.46-.71s-.36-.4-.31-1.29c.05-.89.75-1.38,1.51-2.02.76-.64.84-1.07.72-1.43-.12-.36-1.54-3.14-2.16-4.56-.62-1.42-.24-1.95.24-2.93.47-.98.09-2.96.09-2.96l5.89-10.05h-34.57s5.13,10.49,5.13,10.49c0,0-.23,2.09-2.44,6.07-2.21,3.99-2.02,4.86-1.35,6.84l-1.13,1.54s-3.44-.21-2.78,4.28c0,0-6.53,2.8-10.17,6.5,0,0-5.19-3.08-7.76-3.88v50.72Z" style="fill: #112343; fill-rule: evenodd; stroke-width: 0px;"/>
    <path d="m47.11,114.98c.7.43,2.62,1.64,4.49,3.1,2.34,1.84,11.01,10.08,12.21,23.1l4.59-8.14c.54.28,1.1.56,1.66.8l-7.18,12.01-.22-.15s-.14-7.53-2.55-13.43c-2.37-5.79-6.56-11.89-13.01-15.55v-1.76h0Zm0,7.33v2.24c1.31.95,7.61,6.04,9.44,16.79l1.61,1.16c-.53-12.13-9.53-19.09-11.05-20.19h0Zm5.75,16.39l1.28.92c.1-.46.23-1.22.17-1.61-.09-.6-.68-1-1.47-.95-.5.03-1.07.37-1.42.61l.93.67c.28-.06.61.07.51.37h0Zm-5.75-4.53c1-.96,2.3-1.76,2.56-1.76.29,0,.86.29.16,1.12-.48.57-1.46,1.18-2.05,1.52l.77.56c.96-.74,2.59-2.15,2.85-2.5.35-.46.42-1.08.2-1.5s-1.08-1.06-1.64-.84c-.44.17-2.14,1.64-2.84,2.25v1.15h0Zm0-1.42c1.4-.92,2.82-2.18,2.78-3.19-.04-1.06-1.04-1.78-1.66-1.63-.37.09-.82.45-1.12.72v1.28c.3,0,.71.01.98-.01.49-.05.4.13.4.13.04.31-.82,1.25-1.38,1.82v.88h0Zm1.47,2.88l.76.55c.85-.76,1.4-.98,1.87-.98.5,0,.7.1.65.31-.03.17-1.14,1.05-1.54,1.37l1.08.78.86-.72c1.09-1.05,1.55-1.76,1.24-2.36-.31-.6-1.45-1.19-2.23-.85-.64.28-2.14,1.47-2.68,1.9Z" style="fill: #ffe100; fill-rule: evenodd; stroke-width: 0px;"/>
    <path d="m116.46,133.63c-.7-.43-2.62-1.64-4.49-3.11-2.34-1.84-11.02-10.08-12.21-23.1l-4.59,8.14c-.54-.28-1.1-.56-1.66-.8l7.18-12.01.22.15s.14,7.53,2.55,13.43c2.37,5.79,6.56,11.89,13.01,15.55v1.76h0Zm0-7.33v-2.24c-1.31-.95-7.61-6.04-9.44-16.79l-1.61-1.16c.53,12.13,9.53,19.09,11.05,20.19h0Zm-5.75-16.39l-1.28-.92c-.1.46-.23,1.22-.17,1.61.09.6.69,1,1.47.95.5-.03,1.07-.37,1.42-.61l-.93-.67c-.28.07-.61-.07-.51-.37h0Zm5.75,4.53c-1,.96-2.3,1.76-2.56,1.76-.29,0-.86-.29-.16-1.12.48-.57,1.46-1.18,2.05-1.52l-.78-.56c-.96.74-2.59,2.15-2.85,2.5-.35.46-.42,1.08-.2,1.5.22.42,1.09,1.06,1.64.84.44-.17,2.14-1.64,2.84-2.25v-1.15h0Zm0,1.42c-1.4.92-2.82,2.18-2.78,3.19.04,1.06,1.04,1.78,1.66,1.63.37-.09.82-.45,1.12-.72v-1.28c-.3,0-.71-.01-.98.01-.49.04-.4-.13-.4-.13-.04-.31.82-1.25,1.38-1.82v-.89h0Zm-1.47-2.88l-.76-.55c-.85.76-1.39.98-1.87.98-.5,0-.69-.1-.65-.31.03-.17,1.14-1.05,1.54-1.37l-1.08-.78-.86.72c-1.09,1.05-1.55,1.76-1.23,2.35.31.6,1.45,1.19,2.23.85.64-.28,2.15-1.47,2.69-1.9Z" style="fill: #ffe100; fill-rule: evenodd; stroke-width: 0px;"/>
    <path d="m58.85,99.42c-.16.72-.46,2.23-.54,3.98-.1,2.36.27,19.89,15.47,23.88-.03-.28-.06-.56-.09-.85-.21-1.81-.56-3.59-.98-5.4-.96-4.04-2.52-8.2-5.74-12.86-1.81-2.62-3.86-4.78-5.66-6.54-.85-.83-1.67-1.56-2.45-2.21Z" style="fill: #112343; fill-rule: evenodd; stroke-width: 0px;"/>
    <path d="m104.72,149.19c.16-.72.46-2.23.54-3.98.1-2.36-.27-19.89-15.47-23.88.03.28.06.56.09.85.21,1.8.55,3.59.98,5.4.96,4.04,2.52,8.2,5.74,12.86,1.81,2.62,3.86,4.78,5.66,6.54.85.83,1.67,1.56,2.45,2.22Z" style="fill: #112343; fill-rule: evenodd; stroke-width: 0px;"/>
    <path d="m61.35,91.54c.06-.03.11-.06.17-.1.39-.22.78-.43,1.15-.61v11.14c-.44-.44-.88-.87-1.3-1.26,0,0-.01-.01-.02-.01v-9.16h0Zm6.03,13.58v-13.76c.25,0,.8,0,1.41-.21v13.68c-.31.04-.86.12-1.41.29h0Zm-3.13-14.38v-.42s-.7.6-.99.6c0,0-.06,2.02.78,3.63.84,1.61,1.69,2.89,1.79,3.6.1.72.2,1.67-.56,3.31l.64.6s.8-.96.88-2.91c.08-1.95-.64-2.89-1.5-4.29-.86-1.4-1.01-2.98-1.04-4.12h0Zm1.34-.34c.35.33.69.66,1.17.81,0,1.08.05,2.44-.57,3.23-.15.18-.31.39-.46.61l-.65-.8c.34-.57.58-1.07.62-1.48.08-.81-.11-2.37-.11-2.37h0Zm-1.54,5.44l.75.72c-.11.23-.19.45-.23.63-.16.74-.59,1.95.24,4.08.74,1.88,1.84,3.63,2.09,4.03-.28.12-.56.26-.79.44-.27-.5-1.6-2.96-2.13-3.95-.6-1.11-.94-4.36-.07-5.71.05-.08.1-.15.15-.23Z" style="fill: #fff; fill-rule: evenodd; stroke-width: 0px;"/>
    <path d="m102.22,157.07c-.06.03-.11.06-.17.1-.39.22-.78.43-1.15.61v-11.14c.44.44.88.87,1.3,1.26,0,0,.01,0,.02.01v9.16h0Zm-6.03-13.58v13.76c-.25,0-.79,0-1.41.21v-13.68c.31-.04.86-.12,1.41-.29h0Zm3.13,14.38v.42s.7-.6.99-.6c0,0,.06-2.02-.78-3.63-.84-1.61-1.69-2.88-1.79-3.6-.1-.72-.2-1.67.56-3.31l-.64-.6s-.8.96-.88,2.91c-.08,1.95.64,2.89,1.5,4.29.86,1.4,1.01,2.98,1.03,4.12h0Zm-1.34.34c-.35-.33-.7-.66-1.18-.81,0-1.08-.05-2.44.57-3.22.15-.19.31-.39.46-.62l.65.8c-.34.57-.58,1.07-.62,1.48-.08.81.11,2.37.11,2.37h0Zm1.54-5.44l-.75-.72c.11-.23.19-.45.23-.63.16-.74.59-1.95-.24-4.08-.74-1.87-1.84-3.63-2.09-4.03.28-.12.56-.26.79-.44.27.51,1.6,2.96,2.13,3.95.6,1.11.94,4.36.07,5.71-.05.08-.1.15-.15.23Z" style="fill: #fff; fill-rule: evenodd; stroke-width: 0px;"/>
    <path d="m94.28,138.03c.99,1.74,2.09,3.35,3.25,4.81-1.04.86-3.03.98-3.03.98,0,0-1.33.36-1.75-.23-.42-.59-.91-.83-1.23-.52-.33.31-1.3.61-2.15.54-.85-.07-1.89-.57-2.2-.89-.31-.31-.65-.35-1.13-.24-.48.11-1.2.42-2.22.28-1.02-.15-1.51-.55-2.22-1.49-.71-.94-1.39-1.12-1.71-1.12s-.59.59-.59.59l-8.31,16.34s-1.19-.02-1.95.86l-.84-.58-.13-.09,9.59-17.48h0c.2.13.37.24.48.3.42.23.88.42,1.12.11.23-.31-.25-.68-.89-.92-.64-.24-3.28-1.68-3.45-4.85-.11-2.13-.21-4.79-.48-7.57-.57-5.96-2.16-10.98-5.16-16.25-.99-1.74-2.09-3.35-3.25-4.81,1.04-.85,3.03-.97,3.03-.97,0,0,1.33-.36,1.75.23.42.59.91.83,1.23.52.33-.31,1.3-.61,2.15-.54.85.07,1.89.57,2.2.89.31.31.65.35,1.13.24.48-.11,1.2-.42,2.22-.28,1.02.15,1.51.55,2.22,1.49.71.94,1.39,1.12,1.71,1.12s.59-.6.59-.6l8.31-16.34s1.19.02,1.96-.86l.98.67-9.59,17.48c-.2-.13-.37-.24-.49-.3-.42-.23-.88-.42-1.12-.11-.23.31.25.68.89.92.64.24,3.28,1.68,3.45,4.85.2,3.81.33,7.13.82,10.29.69,4.47,2.05,8.65,4.82,13.54Z" style="fill: #112343; fill-rule: evenodd; stroke-width: 0px;"/>
    <path d="m69.19,59.9l4.41,9.15s11.34-3.72,22.06-.61l4.83-8.54h-31.3Z" style="fill: #e60012; fill-rule: evenodd; stroke-width: 0px;"/>
    <path d="m94.38,188.72l-4.41-9.15s-11.34,3.72-22.06.61l-4.83,8.54h31.29Z" style="fill: #e60012; fill-rule: evenodd; stroke-width: 0px;"/>
    <path d="m72.39,59.9l2.44,5.76,3.09-.77-.97-4.99h1.23s1.03,5.32,1.03,5.32l.11.56-.55.14-4.15,1.04-.5.13-.2-.48-2.84-6.7h1.31Zm7.42,0h1.22s.63,4.42.63,4.42l5.28-.14.84-4.28h1.23s-.98,4.98-.98,4.98l-.09.47h-.48s-6.3.19-6.3.19h-.54s-.08-.52-.08-.52l-.73-5.12h0Zm10.65,0h1.22s-.78,4.56-.78,4.56l3.67.44,2.3-5.01h1.33s-2.71,5.9-2.71,5.9l-.18.4-.44-.05-4.74-.57-.63-.08.1-.62.85-4.99Z" style="fill: #112343; stroke-width: 0px;"/>
    <path d="m91.18,188.72l-2.44-5.76-3.09.77.97,4.99h-1.23s-1.03-5.32-1.03-5.32l-.11-.56.55-.14,4.15-1.04.5-.12.2.47,2.84,6.7h-1.31Zm-7.42,0h-1.22s-.63-4.42-.63-4.42l-5.28.15-.84,4.28h-1.23s.98-4.98.98-4.98l.09-.47h.48s6.3-.19,6.3-.19h.54s.08.52.08.52l.73,5.12h0Zm-10.65,0h-1.22s.78-4.56.78-4.56l-3.67-.44-2.3,5.01h-1.33s2.71-5.9,2.71-5.9l.18-.4.44.05,4.74.57.63.08-.11.62-.85,4.99Z" style="fill: #231815; stroke-width: 0px;"/>
    <path d="m70.28,84.34c-.31.55-.62,1.1-1.02,1.68.25.34.47.75.57,1.24.37-.55,1-1.57,1.39-2.61-.15-.02-.3-.05-.45-.1-.18-.06-.35-.13-.5-.22h0Zm-2.06.69l1.05-1.57c.11.15.36.44.74.7l-1.02,1.52c-.3-.32-.59-.54-.76-.66h0Zm3.37-.36c.4-.01.76-.13,1.05-.29-.16.57-.48,1.58-1.01,2.92-.85,2.13-2.45,3.65-4.09,3.65s-2.17-2-2.15-3.01c.02-1.01.69-2.59,1.87-2.66,1.18-.07,1.87.76,2.08,1.56.21.8,0,1.33-.46,1.79-.46.46-.9.85-1.58.66-.68-.18-.84-1.03-.57-1.81.28-.78,1.02-.9,1.18-.48.16.41-.02.85-.18,1.01-.16.16-.23.53,0,.51.23-.02.6-.64.6-1.17s-.35-1.01-.92-.96c-.58.05-1.18.99-1.18,1.84s.65,1.51,1.45,1.49,1.71-.8,2.54-2.25c.56-.97,1.08-2.13,1.37-2.78h0Zm4.45-.1l-.66,1.52c.27.31.46.7.57,1.04l1.1-2.55c-.34.06-.69.06-1-.01h0Zm-1.24-.66c.28.21.58.4.85.53l-.52,1.42c-.21-.17-.46-.3-.75-.34-.04,0-.08-.01-.12-.01.16-.64.37-1.21.54-1.6h0Zm-.92-.74c-.31.39-.92,1.29-1.34,2.8.27-.18.72-.42,1.28-.46.18-.47.45-1.14.76-1.76-.28-.21-.52-.43-.7-.58h0Zm1.03,5.19c-.1.36-.35.23-.36-.06-.02-.29-.1-.88-.61-.88s-.58.59-.58.92.21,1.11,1,1.11,1.15-.8,1.15-1.51-.08-1.85-1.25-2.08c-1.17-.23-2.21.59-2.42,2-.21,1.41.75,3.03,2.26,3.03,1.51,0,2.19-.76,2.95-2.92.66-1.85,1.03-3.52,1.13-3.97-.23.23-.52.4-.85.5-.2.63-.82,2.51-1.37,3.73-.67,1.48-1.33,1.56-1.97,1.51-.64-.05-1.01-.64-1.01-1.51s.64-1.27,1.04-1.27c.61,0,1.03.86.89,1.39h0Zm3.76-5.09c.09.35.33.98.92,1.51-.18,1.99-1.01,3.88-1.32,4.65-.35.85-.5.93-1,.98-.5.05-.83-.23-.75-.4.08-.18.5-.98.5-.98,1.19-2.68,1.57-5.09,1.66-5.76h0Zm1.2,1.74c-.11.79-.46,2.45-1.58,5.3l1.11-.05s1.53-2.57,1.56-4.74c-.44-.13-.8-.31-1.09-.52Z" style="fill: #ffe100; fill-rule: evenodd; stroke-width: 0px;"/>
    <path d="m93.3,164.27c.31-.55.62-1.1,1.02-1.68-.25-.34-.47-.75-.57-1.24-.37.55-1,1.57-1.39,2.61.14.02.3.05.45.1.18.06.35.13.5.22h0Zm2.06-.69l-1.05,1.57c-.11-.15-.36-.44-.74-.7l1.02-1.52c.3.32.59.54.76.66h0Zm-3.37.36c-.4.01-.76.13-1.05.29.16-.57.48-1.58,1.01-2.92.86-2.13,2.45-3.65,4.09-3.65s2.17,2,2.15,3.01c-.02,1.01-.69,2.59-1.87,2.66-1.18.07-1.87-.76-2.08-1.56-.21-.8,0-1.33.46-1.79.46-.46.9-.85,1.58-.67.68.18.84,1.03.57,1.81-.28.78-1.02.89-1.18.48-.16-.41.02-.85.18-1.01s.23-.53,0-.5c-.23.02-.6.64-.6,1.17s.35,1.01.92.96c.58-.05,1.18-.99,1.18-1.83s-.64-1.51-1.45-1.49c-.81.02-1.71.8-2.54,2.25-.56.97-1.08,2.13-1.37,2.78h0Zm-4.45.1l.66-1.53c-.27-.31-.46-.7-.57-1.04l-1.1,2.55c.34-.06.69-.06,1,.01h0Zm1.24.66c-.28-.21-.58-.4-.85-.53l.52-1.42c.21.17.46.29.75.34.04,0,.08.01.12.02-.16.64-.37,1.2-.54,1.6h0Zm.92.74c.31-.39.92-1.29,1.34-2.8-.27.18-.72.42-1.28.47-.18.47-.45,1.14-.76,1.76.28.21.52.43.7.58h0Zm-1.03-5.19c.1-.36.35-.23.36.06.02.29.1.88.61.88s.57-.59.57-.92-.21-1.11-1-1.11-1.15.8-1.15,1.51.08,1.85,1.25,2.08c1.17.23,2.21-.59,2.42-2,.21-1.41-.75-3.03-2.26-3.03-1.51,0-2.19.76-2.95,2.92-.66,1.85-1.03,3.52-1.13,3.97.23-.23.52-.4.85-.5.2-.63.82-2.51,1.37-3.73.67-1.48,1.33-1.56,1.97-1.51.64.05,1.01.64,1.01,1.51s-.64,1.27-1.04,1.27c-.61,0-1.03-.86-.89-1.39h0Zm-3.76,5.09c-.09-.35-.33-.98-.92-1.51.18-1.99,1.01-3.88,1.33-4.65.35-.85.5-.93,1-.98.5-.05.83.23.75.4-.08.18-.5.98-.5.98-1.19,2.68-1.57,5.09-1.66,5.76h0Zm-1.21-1.74c.11-.79.46-2.45,1.58-5.3l-1.1.05s-1.53,2.57-1.57,4.74c.44.13.8.31,1.09.52Z" style="fill: #ffe100; fill-rule: evenodd; stroke-width: 0px;"/>
    <path d="m73.11,70.64c-.09.73-.44,2.11-1.64,4.53-2.04,4.13-2.39,4.47-2.44,6.1-.05,1.64.93,3.1,2.53,3.1s2.38-1.73,2.38-2.64-.47-1.98-1.33-2.15c-.86-.17-1.99.46-2.04,1.29-.05.83.47,1.91,1.25,1.91s.88-1.08.29-1.42c-.59-.34-.47-.59-.22-.61.25-.02.83.51.93.95.1.44-.05,1.37-.84,1.42-.79.05-1.79-.66-1.79-2s.62-2.27,1.18-3.52c.52-1.16,2.98-5.72,3.44-7.49-.77.21-1.36.4-1.73.52h0Zm2.03-.6c.36-.1.76-.2,1.18-.3-.27.68-1.06,2.67-1.92,4.72-1.06,2.54-1.84,4.56-1.84,4.56l-1.76.74s2.02-4.45,3.15-6.69c.78-1.53,1.07-2.55,1.18-3.04h0Zm1.55-.39c.36-.08.73-.17,1.12-.25-1.04,3.6-4.16,10.22-4.16,10.22l-.87-.42s2.06-5.02,2.77-6.63c.49-1.12.91-2.3,1.12-2.93h0Zm1.55-.33c.4-.08.83-.16,1.26-.23-.84,2.62-3.87,9.51-4.16,10.18-.3.7-.46.9-.46,2.04s1.52,2.26,2.45,1.88c.93-.37.87-1.53.77-2.02-.1-.49-.61-1.04-1.01-1.04s-.81.02-.83.84c-.02.82.28,1.33.45,1.18.18-.16-.22-.71-.22-.94s.12-.73.51-.73.77.33.77,1.06-.33,1.37-.85,1.37-1.72-.76-1.72-1.98,1.07-2.02,1.91-2c.85.02,2.05,1.57,1.8,3.24-.26,1.67-1.56,2.1-2.65,2.02-1.08-.08-2.27-1.31-2.27-1.31.71-1.53-.11-2.99-.11-2.99,2.51-4.79,3.95-9.31,4.33-10.57h0Zm1.62-.29c-.31.92-1.09,3.18-1.99,5.3-1.16,2.76-1.83,4.58-1.83,4.58,0,0,.67-.25,1.06-.34l4-9.72c-.42.06-.84.12-1.24.18h0Zm1.55-.22l-3.98,9.8s.82.52,1.06.86c0,0,.81-2.76,1.91-5.55.83-2.11,1.8-4.3,2.21-5.24-.41.04-.81.08-1.2.13h0Zm1.55-.16c-.33.87-1.09,2.81-1.93,4.69-1.13,2.52-2.22,6.48-2.22,6.48,0,0,.85.99.19,3.11,0,0,.61,2.05,2.06,2.3,1.45.26,2.75-.62,3.01-2.25.26-1.63-.33-3.23-1.66-3.23s-2.2.89-2.2,2.03.83,1.74,1.44,1.75c.61.02,1.07-.43,1.07-1.27s-.33-.98-.52-.98-.5.48-.93.48.12-.67.74-.79c.62-.12,1,.46,1,1.17s-.26,1.62-1.28,1.7c-1.02.09-1.82-.83-1.94-2.03-.12-1.2-.19-2.43,1.3-6.04,1.15-2.79,2.42-5.93,2.93-7.2-.36.02-.71.04-1.06.07h0Zm1.41-.09c.31-.01.62-.03.94-.03-.21,1.67-2.12,6.04-2.78,7.64-.68,1.65-1.13,3.3-1.13,3.3-.8.4-1.26,1.05-1.26,1.05-.2-1.25,1.26-4.55,2.44-7.32.92-2.15,1.55-3.94,1.79-4.63Z" style="fill: #ffe100; fill-rule: evenodd; stroke-width: 0px;"/>
    <path d="m90.46,177.98c.09-.73.44-2.1,1.64-4.53,2.04-4.13,2.39-4.47,2.44-6.1.05-1.64-.93-3.1-2.53-3.1-1.6,0-2.38,1.73-2.38,2.64s.47,1.98,1.33,2.15c.86.17,1.99-.46,2.04-1.3.05-.83-.47-1.91-1.25-1.91-.79,0-.88,1.08-.29,1.42.59.34.47.59.22.61-.25.02-.84-.51-.93-.95-.1-.44.05-1.37.84-1.42.79-.05,1.79.66,1.79,2s-.61,2.27-1.18,3.52c-.52,1.16-2.98,5.72-3.44,7.49.77-.21,1.36-.4,1.73-.52h0Zm-2.02.6c-.36.1-.76.2-1.18.3.27-.68,1.06-2.67,1.92-4.72,1.06-2.53,1.84-4.56,1.84-4.56l1.76-.74s-2.02,4.45-3.15,6.69c-.78,1.53-1.07,2.55-1.18,3.04h0Zm-1.55.39c-.36.08-.73.17-1.12.25,1.04-3.6,4.16-10.22,4.16-10.22l.87.42s-2.06,5.02-2.77,6.63c-.49,1.12-.91,2.31-1.12,2.93h0Zm-1.55.33c-.41.08-.83.16-1.26.23.84-2.63,3.87-9.51,4.16-10.18.3-.7.46-.9.46-2.04s-1.52-2.26-2.45-1.88c-.93.37-.87,1.53-.77,2.02.1.49.61,1.04,1.01,1.04s.81-.02.83-.84c.02-.82-.28-1.33-.45-1.18-.18.16.22.71.22.94,0,.24-.12.73-.51.73s-.77-.33-.77-1.06.34-1.37.85-1.37,1.72.76,1.72,1.98-1.07,2.02-1.91,2c-.85-.02-2.05-1.57-1.8-3.24.26-1.67,1.56-2.1,2.64-2.02,1.09.08,2.27,1.31,2.27,1.31-.71,1.53.11,2.99.11,2.99-2.51,4.79-3.95,9.31-4.33,10.57h0Zm-1.61.29c.31-.92,1.09-3.18,1.99-5.3,1.16-2.76,1.83-4.58,1.83-4.58,0,0-.67.25-1.06.34l-4,9.72c.42-.06.84-.12,1.24-.18h0Zm-1.55.22l3.98-9.8s-.82-.52-1.06-.86c0,0-.81,2.76-1.91,5.55-.83,2.11-1.8,4.3-2.21,5.24.41-.04.81-.08,1.2-.13h0Zm-1.55.16c.33-.87,1.09-2.81,1.93-4.69,1.13-2.52,2.22-6.48,2.22-6.48,0,0-.85-.99-.19-3.11,0,0-.61-2.05-2.06-2.31-1.46-.26-2.75.62-3.01,2.26-.26,1.64.33,3.24,1.66,3.24s2.2-.9,2.2-2.03-.83-1.74-1.44-1.75c-.61-.02-1.07.43-1.07,1.27s.33.98.52.98.5-.48.93-.48-.12.67-.74.79c-.62.12-1-.46-1-1.17s.26-1.62,1.28-1.7c1.02-.09,1.82.83,1.94,2.03.12,1.2.19,2.43-1.3,6.04-1.15,2.79-2.41,5.93-2.93,7.2.36-.02.71-.05,1.06-.08h0Zm-1.41.09c-.31.01-.62.03-.94.03.21-1.67,2.12-6.04,2.78-7.64.68-1.65,1.13-3.3,1.13-3.3.8-.4,1.26-1.05,1.26-1.05.2,1.25-1.26,4.55-2.44,7.32-.92,2.15-1.55,3.94-1.79,4.63Z" style="fill: #ffe100; fill-rule: evenodd; stroke-width: 0px;"/>
    <path d="m85.74,68.52c-.09.46-.4,1.74-1.5,4.44-1.46,3.56-2.14,4.54-2.35,6.48,0,0,1.54-.33,2.28,1.17.73,1.5.23,3.36-.35,4-.58.64-1.74,1.08-2.45,1.06,0,0,1.7,3.49,5.83,4.94,4.13,1.46,7.64.43,7.77-1.21,0,0-.02-.3-.18-.54-.15-.23-.23-.99.12-1.27.34-.29.38-.66.38-1.12,0-.47-.87-.39-1.35-.31-.49.08-1.87.2-2.19.2s-.3-.22-.11-.47c.19-.25.19-.64.19-.64,0,0,.57.31.99.31s1.21-.5,1.53-.74c.32-.23.38-.32.67-.37.29-.06.5-.17.5-.54,0-.37,0-.44.11-.79.11-.35.58-.91,1.33-1.5.75-.59.73-.92.72-1.11-.02-.19-.11-.32-.59-1.26-.48-.94-1.55-2.98-1.75-3.82-.21-.84-.19-1.34.24-2.22.41-.85.53-1.67.15-3.4-1.49-.47-4.77-1.27-9.76-1.27h-.21Zm-4.59,17.76c.86,1.22,2.13,2.94,4.37,3.92h-5.69c.94-1.6,1.32-3.92,1.32-3.92Z" style="fill: #fff; fill-rule: evenodd; stroke-width: 0px;"/>
    <path d="m77.83,180.09c.09-.46.4-1.74,1.5-4.44,1.46-3.56,2.14-4.54,2.35-6.48,0,0-1.54.33-2.28-1.17-.73-1.5-.23-3.36.35-4,.58-.64,1.74-1.08,2.45-1.06,0,0-1.7-3.49-5.83-4.94-4.13-1.46-7.64-.43-7.77,1.21,0,0,.02.3.18.54.15.23.22.99-.12,1.27-.34.29-.38.65-.38,1.12s.87.39,1.36.31c.48-.08,1.87-.2,2.19-.2s.3.22.11.47c-.19.25-.19.64-.19.64,0,0-.57-.3-.99-.3s-1.21.5-1.53.73c-.32.24-.37.32-.67.37-.29.05-.5.17-.5.54,0,.38,0,.44-.11.79-.11.35-.58.91-1.33,1.5-.75.59-.73.92-.72,1.11.02.19.11.32.59,1.26.48.94,1.55,2.99,1.75,3.82.21.84.19,1.34-.24,2.22-.42.85-.53,1.67-.15,3.4,1.49.47,4.77,1.27,9.76,1.27.07,0,.14,0,.21,0h0Zm4.59-17.76c-.86-1.22-2.13-2.94-4.37-3.92h5.69c-.94,1.6-1.32,3.92-1.32,3.92Z" style="fill: #fff; fill-rule: evenodd; stroke-width: 0px;"/>
    <path d="m88.92,72.11c-.81.47-1.19.91-1.57,1.13-.38.21-.58.09-.65-.11-.06-.19.01-.25.27-.55.26-.3,2.11-1.79,3.76-2.24,1.65-.45,2.85.07,3.31.42.47.34.54.6.54.84s-.16.24-.3.24-.49-.4-1.12-.55c-1.52-.35-3.42.35-4.24.82h0Zm.3,2.35l-.16.12s-.24.14-.27.03c-.03-.11.16-.34.59-.7.44-.37,1.57-.99,1.97-1.17.4-.18.75-.2,1.05-.1.3.1.37.2.47.15.1-.04-.16-.48-.72-.53-.57-.06-1.43.15-2.26.69-.83.53-2.04,1.76-2.32,2.05-.28.29-.1.79.01,1.01.11.23.38.07.75-.1.37-.17,1.34,0,1.51.31.17.31.75.35,1.27.35s.99.03.99.13-.47.69-1.09,1.14c-.62.45-.57.54-.57.71s.23.2.58.07c.35-.12.47-.4.8-.66.33-.26.85-.99,1.15-1.27.3-.29.43-.49.39-.65-.04-.15-.51-.52-.5-.98,0-.46.12-.85.44-1.12.32-.28.58-.55.6-.82.02-.27-.14-.32-.34-.29s-.57.4-1.07.47c-.5.07-1.51.17-1.98.31-.47.14-1.07.69-1.3.85h0Zm.53,1.11c-.19-.12-.08-.33.14-.42.22-.09.33-.22.49-.28.17-.07.44.09.55.25.11.17.17.66,0,.76-.31.18-.94-.15-1.18-.3h0Zm2.04.17c-.18-.11-.3-.27-.37-.48-.08-.25,0-.64.15-.64s.32.19.33.47c0,.28.03.6-.11.65h0Zm1.88,4.13c.08-.15,0-.36-.2-.36s-.83.25-.87,1.14c-.04.89.28,1.68,1.11,1.81.83.13.77-.2,1.45-.33.69-.13,1.29-.09,1.35-.64.05-.55-.4-.88-.86-.83-.46.05-.91.59-1.34.85-.42.26-.94.08-1.12-.37-.28-.68.21-.8.48-1.29h0Zm-3.88,3.55c-.2-.29-.54-.54-1.01-.36-.47.19-.59,1.13.01,1.53.6.4,1.6.38,2.57-.4.97-.78,1.55-1.3,2.36-1.32.81-.01,1.31.54,1.27.87-.04.34-.25.37-.87.44-.62.07-1.38.26-2.09.66-.71.4-1.31,1.04-2.36,1.04s-1.82-1.17-1.82-2.04.67-1.4,1.2-1.43c.53-.03.97.26,1.02.57.05.31-.21.59-.21.59l-.08-.16Z" style="fill: #112343; fill-rule: evenodd; stroke-width: 0px;"/>
    <path d="m74.66,176.5c.81-.47,1.19-.91,1.57-1.13.38-.22.58-.09.65.11.06.19-.01.25-.27.55-.26.3-2.11,1.79-3.76,2.24-1.65.45-2.85-.07-3.31-.42-.46-.34-.54-.6-.54-.84s.16-.25.31-.25.49.4,1.12.55c1.52.35,3.42-.35,4.23-.82h0Zm-.3-2.35l.16-.12s.24-.14.27-.03c.03.11-.16.34-.59.7-.44.37-1.57.98-1.97,1.17-.4.18-.75.2-1.05.1-.3-.1-.37-.2-.47-.15-.1.04.16.48.72.53.57.06,1.43-.16,2.26-.69.84-.53,2.04-1.76,2.32-2.05.28-.3.1-.79-.01-1.01-.11-.23-.38-.07-.75.1-.37.17-1.34,0-1.51-.31-.17-.31-.75-.35-1.27-.35s-.99-.03-.99-.13.47-.69,1.09-1.14c.62-.45.57-.54.57-.71s-.23-.2-.58-.07c-.35.12-.47.4-.8.66-.33.26-.85.99-1.15,1.27-.3.29-.43.49-.39.65.04.15.52.52.51.98-.01.46-.12.85-.44,1.13-.32.28-.58.55-.6.82-.02.27.14.32.34.29.2-.03.57-.4,1.07-.47.5-.07,1.51-.17,1.98-.31.47-.14,1.07-.69,1.3-.85h0Zm-.53-1.11c.19.12.08.33-.14.42-.22.09-.33.22-.49.29-.17.07-.44-.09-.55-.26-.11-.17-.17-.66,0-.76.31-.18.94.15,1.18.31h0Zm-2.04-.17c.18.11.3.27.37.48.08.24,0,.64-.15.64s-.32-.19-.33-.47c0-.28-.03-.6.11-.65h0Zm-1.88-4.13c-.08.14,0,.35.2.35s.83-.25.87-1.14c.04-.89-.28-1.68-1.11-1.81-.83-.13-.77.2-1.45.33-.69.13-1.3.09-1.35.64-.05.55.4.88.86.83.46-.05.91-.59,1.34-.85.42-.26.94-.08,1.12.37.28.68-.21.8-.47,1.29h0Zm3.88-3.55c.2.29.54.54,1.01.36.47-.19.59-1.13-.01-1.53-.6-.4-1.6-.38-2.57.4-.97.78-1.55,1.3-2.36,1.32-.81.01-1.31-.54-1.27-.87.04-.34.25-.37.87-.44.62-.07,1.38-.26,2.09-.66.71-.4,1.31-1.04,2.36-1.04s1.81,1.17,1.81,2.04-.67,1.4-1.2,1.43c-.53.03-.96-.26-1.02-.56-.05-.31.21-.59.21-.59l.08.16Z" style="fill: #112343; fill-rule: evenodd; stroke-width: 0px;"/>
    <path d="m59.06,92.97c.06-.04.12-.08.17-.11.69-.46,1.41-.91,2.12-1.31v9.16c-.8-.74-1.56-1.41-2.27-1.99,0,0-.01-.01-.02-.02v-5.72Z" style="fill: #112343; fill-rule: evenodd; stroke-width: 0px;"/>
    <path d="m104.51,155.64c-.06.04-.12.08-.17.12-.69.46-1.41.91-2.12,1.31v-9.16c.8.74,1.56,1.41,2.27,1.99,0,0,.02.01.02.02v5.72Z" style="fill: #112343; fill-rule: evenodd; stroke-width: 0px;"/>
    <path d="m55.15,95.8c.39-.31,2.02-1.57,3.91-2.83v5.72c-1.85-1.52-3.31-2.5-3.91-2.89Z" style="fill: #e60012; fill-rule: evenodd; stroke-width: 0px;"/>
    <path d="m108.43,152.81c-.39.31-2.02,1.57-3.91,2.83v-5.72c1.85,1.52,3.31,2.5,3.91,2.89Z" style="fill: #e60012; fill-rule: evenodd; stroke-width: 0px;"/>
    <path d="m71.02,97.74h18.42s-5.17,10.16-5.17,10.16c0,0-.27.6-.59.6s-1-.18-1.71-1.12c-.71-.94-1.2-1.34-2.22-1.49-1.02-.15-1.74.17-2.22.28-.48.11-.81.07-1.13-.24-.31-.31-1.35-.81-2.2-.89-.85-.07-1.83.23-2.15.54-.28.27-.67.13-1.04-.28v-7.55Z" style="fill: #e60012; fill-rule: evenodd; stroke-width: 0px;"/>
    <path d="m79.69,100.69v.67s.27,0,.27,0c.17-.32.51-.54.9-.54.56,0,1.01.45,1.01,1.01s-.46,1.01-1.01,1.01c-.3,0-.57-.13-.75-.34h-.41s0,.95,0,.95c.21.18.35.46.35.76,0,.55-.46,1.01-1.01,1.01s-1.01-.45-1.01-1.01c0-.4.24-.75.58-.91v-.8s-.58,0-.58,0c-.19.21-.45.34-.75.34-.56,0-1.01-.45-1.01-1.01s.46-1.01,1.01-1.01c.39,0,.73.22.9.54h.44s0-.51,0-.51c-.34-.16-.58-.51-.58-.91,0-.55.45-1.01,1.01-1.01s1.01.45,1.01,1.01c0,.3-.13.57-.35.76Z" style="fill: #fff; fill-rule: evenodd; stroke-width: 0px;"/>
    <path d="m92.56,150.88h-18.42s5.16-10.16,5.16-10.16c0,0,.27-.59.59-.59s1,.18,1.71,1.12c.71.94,1.2,1.34,2.22,1.49,1.02.15,1.74-.17,2.22-.28.48-.11.81-.07,1.13.24.31.31,1.35.81,2.2.89.85.07,1.83-.23,2.15-.54.28-.26.67-.13,1.04.28v7.55Z" style="fill: #e60012; fill-rule: evenodd; stroke-width: 0px;"/>
    <path d="m83.88,147.92v-.67s-.27,0-.27,0c-.17.32-.51.54-.9.54-.56,0-1.01-.45-1.01-1.01s.45-1.01,1.01-1.01c.3,0,.57.13.75.34h.41s0-.95,0-.95c-.21-.18-.35-.46-.35-.76,0-.55.45-1.01,1.01-1.01s1.01.45,1.01,1.01c0,.4-.24.75-.58.91v.8s.58,0,.58,0c.18-.21.45-.34.75-.34.56,0,1.01.45,1.01,1.01s-.45,1.01-1.01,1.01c-.39,0-.73-.22-.9-.54h-.44s0,.51,0,.51c.34.16.58.51.58.91,0,.55-.45,1.01-1.01,1.01s-1.01-.45-1.01-1.01c0-.3.13-.57.35-.76Z" style="fill: #fff; fill-rule: evenodd; stroke-width: 0px;"/>
    <path d="m71.02,96.47h19.06s-.42.83-.42.83h-18.63v-.83h0Zm0-4.07h21.13s-.42.83-.42.83h-20.7v-.83h0Zm18.82,1.35h1.13v.97s-.59,1.17-.59,1.17h-.53v-2.14h0Zm-3.69,0h1.25v2.14h-1.25v-2.14h0Zm-3.76,0h1.36v2.14h-1.36v-2.14h0Zm-3.71,0h1.36v2.14h-1.36v-2.14h0Zm-3.63,0h1.36v2.14h-1.36v-2.14h0Zm-3.71,0h1.36v2.14h-1.36v-2.14Z" style="fill: #ffe100; fill-rule: evenodd; stroke-width: 0px;"/>
    <path d="m92.56,152.14h-19.06s.42-.83.42-.83h18.63v.83h0Zm0,4.07h-21.13s.42-.83.42-.83h20.7v.83h0Zm-18.82-1.35h-1.13v-.97s.59-1.17.59-1.17h.53v2.14h0Zm3.69,0h-1.25v-2.14h1.25v2.14h0Zm3.76,0h-1.36v-2.14h1.36v2.14h0Zm3.71,0h-1.36v-2.14h1.36v2.14h0Zm3.63,0h-1.36v-2.14h1.36v2.14h0Zm3.71,0h-1.36v-2.14h1.36v2.14Z" style="fill: #ffe100; fill-rule: evenodd; stroke-width: 0px;"/>
    <path d="m58.91,141.12l2.68-.06v1.3l-2.68.04v-1.28h0Zm-11.8-19.97v-3.32s1.62,1.01,1.62,1.01l-1.62,2.31h0Zm13.75,16.2l-2.67.95.42,1.18,2.63-.84-.38-1.3h0Zm-3.03-1l-.45-1.18,2.53-1.14.52,1.22-2.6,1.1h0Zm.74-5.38l-2.37,1.41.67,1.03,2.39-1.26-.68-1.18h0Zm-3.95-1.31l2.17-1.74.84.96-2.08,1.81-.92-1.03h0Zm-1.7-2.57l.86,1.03,2.15-2.03-.91-1.01-2.11,2.01h0Zm-2.09-2.49l2.01-2.14,1.03.96-2.01,2.14-1.03-.96h0Zm-2.25-2.06l1.19.84,1.67-2.4-1.22-.83-1.64,2.39Z" style="fill: #fff; fill-rule: evenodd; stroke-width: 0px;"/>
    <path d="m104.67,107.49l-2.68.06v-1.3l2.68-.04v1.28h0Zm11.8,19.97v3.32s-1.62-1.01-1.62-1.01l1.62-2.31h0Zm-13.75-16.2l2.66-.95-.42-1.18-2.63.84.38,1.3h0Zm3.03.99l.45,1.18-2.53,1.14-.52-1.22,2.6-1.1h0Zm-.74,5.38l2.37-1.41-.67-1.03-2.39,1.26.69,1.18h0Zm3.95,1.31l-2.17,1.74-.83-.96,2.08-1.81.92,1.03h0Zm1.7,2.57l-.86-1.03-2.15,2.03.91,1.01,2.11-2.01h0Zm2.09,2.49l-2.01,2.14-1.02-.96,2.01-2.14,1.03.96h0Zm2.25,2.06l-1.19-.84-1.67,2.4,1.22.83,1.64-2.39Z" style="fill: #fff; fill-rule: evenodd; stroke-width: 0px;"/>
    <polygon points="47.11 140.42 64.76 152.85 66.09 150.49 47.11 136.52 47.11 140.42" style="fill: #112343; fill-rule: evenodd; stroke-width: 0px;"/>
    <polygon points="116.46 108.19 98.81 95.76 97.48 98.12 116.46 112.09 116.46 108.19" style="fill: #112343; fill-rule: evenodd; stroke-width: 0px;"/>
    <path d="m47.11,135.41l19.64,13.91-.66,1.17-18.98-13.97v-1.11h0Zm17.65,17.44l-17.65-12.43v1.4s16.88,12.41,16.88,12.41l.78-1.38Z" style="fill: #e60012; fill-rule: evenodd; stroke-width: 0px;"/>
    <path d="m116.46,113.21l-19.64-13.91.66-1.17,18.98,13.97v1.11h0Zm-17.65-17.44l17.65,12.43v-1.4s-16.88-12.41-16.88-12.41l-.78,1.38Z" style="fill: #e60012; fill-rule: evenodd; stroke-width: 0px;"/>
    <path d="m74.79,136.85l-.09-.16-10.3,17.91,1.15.89,9.8-17.88s-.3-.35-.55-.76Z" style="fill: #f6ab00; fill-rule: evenodd; stroke: #fff100; stroke-miterlimit: 22.93; stroke-width: 0px;"/>
    <path d="m88.78,111.76l.09.16,10.3-17.91-1.15-.89-9.8,17.88s.3.35.55.76Z" style="fill: #f6ab00; fill-rule: evenodd; stroke: #fff100; stroke-miterlimit: 22.93; stroke-width: 0px;"/>
    <path d="m66.22,148.08l7.46-13.16.89,1.13-7.36,12.71-.99-.68h0Zm-1.61-1.08c.15.25.8.46,1.05.46.52,0,1.22-.61,1.22-.61,0,0-.55-.56-1.16-.52-.61.05-1.11.67-1.11.67h0Zm1.79-.79c.03-1.13-.91-1.88-1.84-1.74.16,1.52,1.84,1.74,1.84,1.74h0Zm.42-2.56s-.94,1.18.21,2.57c.76-.62.1-2.25-.21-2.57h0Zm-.08-.85c.16.28.87.5,1.14.5.56,0,1.32-.66,1.32-.66,0,0-.6-.61-1.26-.56-.66.05-1.2.72-1.2.72h0Zm1.94-.86c.03-1.22-.98-2.03-1.99-1.89.17,1.65,1.99,1.89,1.99,1.89h0Zm.46-2.77s-1.02,1.28.22,2.78c.82-.67.1-2.43-.22-2.78h0Zm.06-.82c.16.28.87.5,1.14.5.56,0,1.32-.66,1.32-.66,0,0-.6-.61-1.25-.56-.66.05-1.21.72-1.21.72h0Zm1.94-.86c.03-1.22-.98-2.03-1.99-1.89.17,1.65,1.99,1.89,1.99,1.89h0Zm.46-2.77s-1.02,1.28.22,2.78c.82-.67.1-2.44-.22-2.78Z" style="fill: #fff; fill-rule: evenodd; stroke-width: 0px;"/>
    <path d="m97.36,100.53l-7.46,13.16-.89-1.13,7.36-12.71.99.68h0Zm1.61,1.08c-.15-.25-.8-.46-1.06-.46-.52,0-1.22.61-1.22.61,0,0,.55.56,1.16.52.61-.05,1.11-.67,1.11-.67h0Zm-1.79.79c-.03,1.13.91,1.88,1.84,1.74-.16-1.53-1.84-1.74-1.84-1.74h0Zm-.42,2.56s.94-1.18-.21-2.57c-.76.62-.1,2.25.21,2.57h0Zm.08.85c-.17-.28-.87-.5-1.14-.5-.56,0-1.32.66-1.32.66,0,0,.6.61,1.26.56.66-.05,1.21-.72,1.21-.72h0Zm-1.94.86c-.03,1.22.98,2.03,1.99,1.89-.17-1.65-1.99-1.89-1.99-1.89h0Zm-.46,2.77s1.02-1.28-.22-2.78c-.82.67-.1,2.44.22,2.78h0Zm-.06.82c-.17-.28-.87-.5-1.14-.5-.56,0-1.32.66-1.32.66,0,0,.6.61,1.25.56.66-.05,1.21-.72,1.21-.72h0Zm-1.94.86c-.03,1.22.99,2.03,1.99,1.89-.17-1.65-1.99-1.89-1.99-1.89h0Zm-.46,2.77s1.02-1.28-.22-2.78c-.82.67-.11,2.44.22,2.78Z" style="fill: #fff; fill-rule: evenodd; stroke-width: 0px;"/>
    <path d="m83.58,111.83h.21c1.25,0,2.26,1.01,2.26,2.25v6.13h-4.53v-6.34c0-1.12.92-2.04,2.05-2.04h0Zm-10.3,8.38c-.4-1.5-.88-2.96-1.47-4.42v-5.64c0-1.12.92-2.04,2.05-2.04h.21c1.25,0,2.26,1.01,2.26,2.25v9.84h-3.06Zm-1.84-5.3c-.37-.85-.77-1.7-1.21-2.56.21-.93.08-1.99-.17-2.45-.25-.47-.87-.93-1.53-.58-.23-.37-.47-.74-.71-1.1.32-.19.75-.34,1.14-.34h.21c1.25,0,2.26,1.01,2.26,2.25v4.76h0Zm6.95-6.11h.47c1.25,0,2.26,1.01,2.26,2.25v9.16h-4.53v-9.63c0-.98.81-1.78,1.79-1.78h0Zm5.31,9.73c-.3-1.02.17-1.53.54-2.08.38-.54.64-1.24.56-1.99-.08-.74-.51-1.13-1.13-1.13s-.97.84-.75,1.43c.21.58,1.01.73,1.01,1.24s-.51,1-.57,1.59c-.06.59.32,1.07.32,1.07l.02-.14h0Zm-5.17-1.37c-.03-1.75.81-2.94,1.29-3.8.48-.86.3-1.8.03-2.24-.27-.44-1.04-.84-1.58-.21-.55.64-.38,1.53.03,1.69.42.16.72.41.61.91-.11.49-.54,1.35-.62,2.4-.08,1.05.24,1.5.24,1.5v-.24h0Zm-4.32-.38s-.09-1.66,0-2.53c.09-.87.97-1.67,1.08-2.48.11-.81-.02-2.19-1.02-2.22-1.01-.04-1.15.98-1.06,1.5.14.76.78.47.73,1.85-.02.46-.11,1.05-.24,1.75-.12.64-.03,1.42.52,2.14Z" style="fill: #e60012; fill-rule: evenodd; stroke-width: 0px;"/>
    <path d="m79.99,136.78h-.21c-1.25,0-2.26-1.01-2.26-2.25v-6.13h4.53v6.34c0,1.12-.92,2.04-2.05,2.04h0Zm10.3-8.38c.4,1.5.88,2.96,1.47,4.41v5.64c0,1.12-.92,2.04-2.05,2.04h-.21c-1.25,0-2.26-1.01-2.26-2.25v-9.84h3.06Zm1.84,5.3c.37.85.77,1.7,1.2,2.56-.21.93-.08,1.99.17,2.45.25.47.87.93,1.53.58.23.37.47.74.71,1.1-.32.19-.75.34-1.14.34h-.21c-1.25,0-2.26-1.01-2.26-2.25v-4.76h0Zm-6.95,6.11h-.47c-1.25,0-2.26-1.01-2.26-2.25v-9.16h4.53v9.63c0,.98-.81,1.78-1.79,1.78h0Zm-5.32-9.73c.29,1.02-.17,1.53-.54,2.08-.37.54-.64,1.24-.56,1.99.08.74.51,1.13,1.13,1.13s.97-.84.75-1.42c-.21-.58-1.01-.73-1.01-1.25s.51-1,.57-1.59c.06-.59-.32-1.07-.32-1.07l-.02.14h0Zm5.17,1.37c.03,1.75-.81,2.94-1.29,3.8-.48.86-.3,1.8-.03,2.24.27.45,1.04.84,1.58.21.54-.64.38-1.53-.03-1.69-.42-.16-.72-.41-.61-.91.11-.49.54-1.35.62-2.4.08-1.05-.24-1.5-.24-1.5v.24h0Zm4.32.38s.09,1.67,0,2.53c-.09.87-.97,1.67-1.08,2.48-.11.81.02,2.18,1.02,2.22,1,.04,1.15-.98,1.06-1.5-.14-.76-.78-.47-.73-1.85.02-.46.11-1.05.24-1.75.12-.64.03-1.42-.52-2.14Z" style="fill: #e60012; fill-rule: evenodd; stroke-width: 0px;"/>
    <path d="m79.99,136.78h-.21c-1.25,0-2.26-1.01-2.26-2.25v-6.13h4.53v6.34c0,1.12-.92,2.04-2.05,2.04h0Zm10.28-8.38c.38,1.47.87,2.94,1.48,4.45v5.6c0,1.12-.92,2.04-2.05,2.04h-.21c-1.25,0-2.26-1.01-2.26-2.25v-9.84h3.05Zm1.85,5.33h0c.36.83.76,1.67,1.2,2.53-.21.93-.08,1.98.17,2.45.25.47.87.93,1.53.58l.71,1.1c-.32.19-.75.34-1.14.34h-.21c-1.25,0-2.26-1.01-2.26-2.25v-4.74h0Zm-6.95,6.08h-.47c-1.25,0-2.26-1.01-2.26-2.25v-9.16h4.53v9.63c0,.98-.81,1.78-1.79,1.78h0Zm-5.32-9.73c.29,1.02-.17,1.53-.54,2.08-.37.54-.64,1.24-.56,1.99.08.74.51,1.13,1.13,1.13s.97-.84.75-1.42c-.21-.58-1.01-.73-1.01-1.25s.51-1,.57-1.59c.06-.59-.32-1.07-.32-1.07l-.02.14h0Zm5.17,1.37c.03,1.75-.81,2.94-1.29,3.8-.48.86-.3,1.8-.03,2.24.27.45,1.04.84,1.58.21.54-.64.38-1.53-.03-1.69-.42-.16-.72-.41-.61-.91.11-.49.54-1.35.62-2.4.08-1.05-.24-1.5-.24-1.5v.24h0Zm4.32.38s.09,1.67,0,2.53c-.09.87-.97,1.67-1.08,2.48-.11.81.02,2.18,1.02,2.22,1,.04,1.15-.98,1.06-1.5-.14-.76-.78-.47-.73-1.85.02-.46.11-1.05.24-1.75.12-.64.03-1.42-.52-2.14Z" style="fill: #e60012; fill-rule: evenodd; stroke-width: 0px;"/>
    <path d="m83.58,111.83h.21c1.25,0,2.26,1.01,2.26,2.25v6.13h-4.53v-6.34c0-1.12.92-2.04,2.05-2.04h0Zm-10.28,8.38c-.39-1.47-.87-2.94-1.48-4.45v-5.6c0-1.12.92-2.04,2.05-2.04h.21c1.25,0,2.26,1.01,2.26,2.25v9.84h-3.05Zm-1.85-5.33h0c-.36-.83-.76-1.67-1.21-2.53.21-.93.08-1.98-.17-2.44-.25-.47-.87-.93-1.53-.58l-.71-1.1c.32-.19.75-.34,1.14-.34h.21c1.25,0,2.26,1.01,2.26,2.25v4.74h0Zm6.95-6.08h.47c1.25,0,2.26,1.01,2.26,2.25v9.16h-4.53v-9.63c0-.98.81-1.78,1.79-1.78h0Zm5.31,9.73c-.3-1.02.17-1.53.54-2.08.38-.54.64-1.24.56-1.99-.08-.74-.51-1.13-1.13-1.13s-.97.84-.75,1.43c.21.58,1.01.73,1.01,1.24s-.51,1-.57,1.59c-.06.59.32,1.07.32,1.07l.02-.14h0Zm-5.17-1.37c-.03-1.75.81-2.94,1.29-3.8.48-.86.3-1.8.03-2.24-.27-.44-1.04-.84-1.58-.21-.55.64-.38,1.53.03,1.69.42.16.72.41.61.91-.11.49-.54,1.35-.62,2.4-.08,1.05.24,1.5.24,1.5v-.24h0Zm-4.32-.38s-.09-1.66,0-2.53c.09-.87.97-1.67,1.08-2.48.11-.81-.02-2.19-1.02-2.22-1.01-.04-1.15.98-1.06,1.5.14.76.78.47.73,1.85-.02.46-.11,1.05-.24,1.75-.12.64-.03,1.42.52,2.14Z" style="fill: #e60012; fill-rule: evenodd; stroke-width: 0px;"/>
    <path d="m78.7,121.85h6.18c.29,0,.52.23.52.52v1.11s.56,0,.56,0l.26-.18,1.4-.99v3.98s-1.4-.99-1.4-.99l-.26-.18h-.56s0,1.11,0,1.11c0,.29-.24.52-.52.52h-6.18c-.29,0-.52-.23-.52-.52v-1.11s-.56,0-.56,0l-.26.18-1.4.99v-3.98s1.4.99,1.4.99l.26.18h.56s0-1.11,0-1.11c0-.29.24-.52.52-.52Z" style="fill: #004ea2; fill-rule: evenodd; stroke-width: 0px;"/>
    <path d="m84.88,126.76h-6.18c-.29,0-.52-.23-.52-.52v-1.11s-.56,0-.56,0l-.26.18-1.4.99v-3.98s1.4.99,1.4.99l.26.18h.56s0-1.11,0-1.11c0-.29.24-.52.52-.52h6.18c.29,0,.52.23.52.52v1.11s.56,0,.56,0l.26-.18,1.4-.99v3.98s-1.4-.99-1.4-.99l-.26-.18h-.56s0,1.11,0,1.11c0,.29-.24.52-.52.52Z" style="fill: #004ea2; fill-rule: evenodd; stroke-width: 0px;"/>
    <path d="m78.7,121.85h6.18c.29,0,.52.23.52.52v1.11s.56,0,.56,0l.26-.18,1.4-.99v3.98s-1.4-.99-1.4-.99l-.26-.18h-.56s0,1.11,0,1.11c0,.29-.24.52-.52.52h-6.18c-.29,0-.52-.23-.52-.52v-1.11s-.56,0-.56,0l-.26.18-1.4.99v-3.98s1.4.99,1.4.99l.26.18h.56s0-1.11,0-1.11c0-.29.24-.52.52-.52Z" style="fill: #ffe100; fill-rule: evenodd; stroke-width: 0px;"/>
    <path d="m71.02,89.31v15.97c-.07-.07-.13-.15-.19-.24-.42-.59-1.75-.23-1.75-.23,0,0-.1,0-.27.03v-13.68c.06-.02.12-.04.18-.07.71-.29,1.49-.81,2.04-1.77Z" style="fill: #112343; fill-rule: evenodd; stroke-width: 0px;"/>
    <path d="m92.56,159.3v-15.97c.06.07.13.15.19.24.42.59,1.75.23,1.75.23,0,0,.1,0,.27-.03v13.68c-.06.02-.12.04-.18.07-.71.29-1.49.81-2.04,1.77Z" style="fill: #112343; fill-rule: evenodd; stroke-width: 0px;"/>
    <path d="m95.51,91.36l.13.09,1.46,1-9.94,17.24s-.7-.49-1.24-.84c0,0,0,0,0,0l9.59-17.48Z" style="fill: #ffe100; fill-rule: evenodd; stroke-width: 0px;"/>
    <path d="m68.07,157.25l-.13-.09-1.46-1,9.94-17.24s.7.49,1.24.84c0,0,0,0,0,0l-9.59,17.48Z" style="fill: #ffe100; fill-rule: evenodd; stroke-width: 0px;"/>
    <path d="m68.07,157.25l-.13-.09-1.46-1,9.94-17.24s.7.49,1.24.84c0,0,0,0,0,0l-9.59,17.48Z" style="fill: #ffe100; fill-rule: evenodd; stroke-width: 0px;"/>
    <path d="m95.51,91.36l.13.09,1.46,1-9.94,17.24s-.7-.49-1.24-.84c0,0,0,0,0,0l9.59-17.48Z" style="fill: #ffe100; fill-rule: evenodd; stroke-width: 0px;"/>
    <path d="m57.78,118.69s2.53-1.5,3.81.87c-1.25.94-3.09.96-3.81-.87h0Zm.79-5.22h.18s-.6-2.57-3.47-1.97c0,0,.19,2.82,3.3,1.97h0Zm.25.39s-.82.29-1.35,1.05c0-.03,0-.07,0-.1,0-.58-.48-1.05-1.06-1.05s-1.06.47-1.06,1.05.47,1.05,1.06,1.05c.28,0,.53-.11.72-.28-.22.69-.18,1.62.47,2.86,1.43-1.07,2.24-2.92,1.22-4.58h0Zm2.99,6.05s-2.47,2.05-.02,4.84c1.53-1.16,1.32-3.88.02-4.84h0Zm-6.89-13.52c.57,0,1.03.46,1.03,1.03s-.46,1.03-1.03,1.03-1.03-.46-1.03-1.03.47-1.03,1.03-1.03h0Zm2.51.98s-2.83.25-2.35,3.93c1.66-.4,2.69-2.29,2.35-3.93h0Zm2.25,13.13c.57,0,1.03.46,1.03,1.03s-.46,1.03-1.03,1.03-1.03-.46-1.03-1.03.46-1.03,1.03-1.03h0Zm-2.1-20.29s-3.05-.07-3.18,3.06c1.6-.08,3.21-1.26,3.18-3.06h0Zm14.04,28.38s1.76.03,2.42,2.38c.02.36.03.73.04,1.09-1.33-.22-3.13-1.29-2.46-3.48h0Zm-16.68-25.07s-1.18,2.84,2.19,3.37c.3-1.52-.51-3.29-2.19-3.37h0Zm11.34,21.39s-.79.76-.7,1.93c-.11-.44-.52-.77-1-.77-.57,0-1.03.46-1.03,1.02s.46,1.02,1.03,1.02,1.03-.46,1.03-1.02c.12.67.53,1.45,1.51,2.3.85-1.46.77-3.52-.84-4.48h0Zm-11.08-26.51c.23,0,.45.07.63.19-.39-.74-.24-1.56-.24-1.56.04,0,.08,0,.12,0,.51.35,1.08.75,1.68,1.21.25.46.36.99.23,1.47-.62-.09-1.06-.31-1.37-.58.04.12.07.25.07.38,0,.62-.5,1.12-1.12,1.12s-1.12-.5-1.12-1.12.5-1.12,1.12-1.12h0Zm15.3,31.5c.55,0,1,.45,1,1s-.45,1-1,1-1-.45-1-1,.45-1,1-1h0Zm-8.44-5.35s1.66-2.06,3.93-.02c-.82,1.09-2.96,1.77-3.93.02h0Zm9.1,3.65l.02-.22s-2.65-1.08-3.66,1.18c0,0,2.3,1.82,3.64-.96Z" style="fill: none; fill-rule: evenodd; stroke: #112343; stroke-linecap: round; stroke-linejoin: round; stroke-width: .38px;"/>
    <path d="m105.79,129.93s-2.53,1.5-3.81-.87c1.25-.94,3.09-.96,3.81.87h0Zm-.79,5.22l-.18.02s.6,2.56,3.47,1.96c0,0-.19-2.82-3.3-1.97h0Zm-.25-.39s.82-.29,1.35-1.05c0,.03,0,.07,0,.1,0,.58.48,1.05,1.06,1.05s1.06-.47,1.06-1.05-.48-1.05-1.06-1.05c-.28,0-.53.11-.72.28.22-.69.18-1.62-.47-2.86-1.43,1.06-2.24,2.92-1.22,4.58h0Zm-2.99-6.05s2.47-2.05.02-4.84c-1.52,1.16-1.32,3.88-.02,4.84h0Zm6.89,13.52c-.57,0-1.04-.46-1.04-1.03s.47-1.03,1.04-1.03,1.03.46,1.03,1.03-.46,1.03-1.03,1.03h0Zm-2.51-.98s2.83-.25,2.35-3.93c-1.66.4-2.69,2.29-2.35,3.93h0Zm-2.25-13.13c-.57,0-1.03-.46-1.03-1.03s.46-1.03,1.03-1.03,1.03.46,1.03,1.03-.46,1.03-1.03,1.03h0Zm2.1,20.29s3.04.07,3.18-3.06c-1.6.08-3.21,1.26-3.18,3.06h0Zm-14.04-28.38s-1.76-.03-2.42-2.38c-.02-.36-.03-.73-.04-1.1,1.33.22,3.13,1.29,2.46,3.48h0Zm16.68,25.07s1.18-2.84-2.19-3.37c-.3,1.52.51,3.29,2.19,3.37h0Zm-11.34-21.39s.79-.76.7-1.93c.11.44.52.77,1,.77.57,0,1.03-.46,1.03-1.02s-.46-1.02-1.03-1.02-1.03.46-1.03,1.02c-.12-.67-.53-1.45-1.51-2.3-.85,1.46-.77,3.52.84,4.48h0Zm11.08,26.51c-.23,0-.45-.07-.63-.19.39.74.24,1.56.24,1.56-.04,0-.08,0-.12,0-.51-.35-1.08-.75-1.68-1.21-.25-.46-.36-.99-.23-1.47.62.09,1.06.31,1.36.58-.04-.12-.07-.25-.07-.38,0-.61.5-1.12,1.12-1.12s1.12.5,1.12,1.12-.5,1.12-1.12,1.12h0Zm-15.31-31.5c-.55,0-1-.45-1-1s.45-1,1-1,1,.45,1,1-.45,1-1,1h0Zm8.44,5.34s-1.66,2.06-3.93.02c.81-1.09,2.96-1.77,3.93-.02h0Zm-9.1-3.65l-.02.22s2.65,1.08,3.66-1.18c0,0-2.3-1.82-3.64.96Z" style="fill: none; fill-rule: evenodd; stroke: #112343; stroke-linecap: round; stroke-linejoin: round; stroke-width: .38px;"/>
    <path d="m52.91,95.36s-.02.07-.02.09c-2.85,11.82.84,27.78,11.19,34.94,1.88,1.3,6.43,4.31,9.97,4.6.02,0,.04,0,.06,0,0-.24,0-.49,0-.73,0-.28,0-.46,0-.46,0-.1,0-.19,0-.29-.2-.05-.54-.13-.98-.25-1.85-.51-5.53-1.75-8.5-4.1-4.14-3.29-7.78-7.46-10.28-16.92,0,0-1.8-6.39-.34-14.69.08-.43.16-.87.25-1.31,0,0,0-.02,0-.04,0-.02,0-.05.01-.08-.63-.38-1.11-.63-1.38-.77Z" style="fill: #fff; fill-rule: evenodd; stroke-width: 0px;"/>
    <path d="m110.66,153.25s.02-.07.02-.09c2.85-11.82-.84-27.78-11.2-34.94-1.88-1.3-6.43-4.31-9.97-4.6-.02,0-.04,0-.06,0,0,.24,0,.49,0,.73,0,.28,0,.46,0,.46,0,.1,0,.2,0,.29.2.04.54.13.98.25,1.85.51,5.53,1.75,8.5,4.1,4.14,3.29,7.78,7.46,10.28,16.92,0,0,1.8,6.39.34,14.69-.08.43-.16.87-.25,1.31,0,0,0,.02,0,.04,0,.02,0,.05-.01.08.63.38,1.11.63,1.37.77Z" style="fill: #fff; fill-rule: evenodd; stroke-width: 0px;"/>
    <path d="m62.21,102.53c-.24.43-.71.72-1.24.72-.78,0-1.42-.63-1.42-1.41,0-.51.28-.96.69-1.21.12.11.25.22.37.34-.34.14-.59.48-.59.87,0,.52.42.94.95.94.4,0,.75-.25.88-.61.12.12.24.23.35.35h0Zm-1.24-1.13c-.25,0-.45.2-.45.45,0,.25.2.45.45.45s.45-.2.45-.45c0-.04,0-.07-.01-.11-.03-.03-.07-.06-.1-.1-.08-.08-.16-.15-.24-.23-.03,0-.06-.01-.1-.01h0Zm7.14,18.4c.78,0,1.42.63,1.42,1.41s-.64,1.41-1.42,1.41-1.42-.63-1.42-1.41.64-1.41,1.42-1.41h0Zm0,.47c-.52,0-.95.42-.95.94s.42.94.95.94.94-.42.94-.94-.42-.94-.94-.94h0Zm0,.49c-.25,0-.45.2-.45.45,0,.25.2.45.45.45s.45-.2.45-.45c0-.25-.2-.45-.45-.45h0Zm-4.46-6.22c.78,0,1.42.63,1.42,1.41s-.64,1.41-1.42,1.41-1.42-.63-1.42-1.41.64-1.41,1.42-1.41h0Zm0,.47c-.52,0-.95.42-.95.94s.42.94.95.94.95-.42.95-.94-.42-.94-.95-.94h0Zm0,.49c-.25,0-.45.2-.45.45s.2.45.45.45.45-.2.45-.45-.2-.45-.45-.45h0Zm2.04,1.86c-.78,0-1.42.63-1.42,1.41s.64,1.41,1.42,1.41,1.42-.63,1.42-1.41-.64-1.41-1.42-1.41h0Zm0,.47c.52,0,.94.42.94.94s-.42.94-.94.94-.95-.42-.95-.94.42-.94.95-.94h0Zm0,.49c.25,0,.45.2.45.45s-.2.45-.45.45-.45-.2-.45-.45.2-.45.45-.45h0Zm-4.76-14.24c.78,0,1.42.63,1.42,1.41s-.64,1.41-1.42,1.41-1.42-.63-1.42-1.41.64-1.41,1.42-1.41h0Zm0,.47c-.52,0-.95.42-.95.94s.42.94.95.94.94-.42.94-.94-.42-.94-.94-.94h0Zm0,.49c-.25,0-.45.2-.45.45,0,.25.2.45.45.45s.45-.2.45-.45c0-.25-.2-.45-.45-.45h0Zm.33,2.62c.78,0,1.42.63,1.42,1.41s-.64,1.41-1.42,1.41-1.42-.63-1.42-1.41.64-1.41,1.42-1.41h0Zm0,.47c-.52,0-.95.42-.95.94s.42.94.95.94.94-.42.94-.94-.42-.94-.94-.94h0Zm0,.49c-.25,0-.45.2-.45.45s.2.45.45.45.45-.2.45-.45-.2-.45-.45-.45h0Zm.9,2.59c.78,0,1.42.63,1.42,1.41s-.64,1.41-1.42,1.41-1.42-.63-1.42-1.41.64-1.41,1.42-1.41h0Zm0,.47c-.52,0-.95.42-.95.94s.42.94.95.94.94-.42.94-.94-.42-.94-.94-.94h0Zm0,.49c-.25,0-.45.2-.45.45s.2.45.45.45.45-.2.45-.45-.2-.45-.45-.45h0Zm8.48,9.54c-.78,0-1.42.63-1.42,1.41s.64,1.41,1.42,1.41,1.42-.63,1.42-1.41-.64-1.41-1.42-1.41h0Zm0,.47c.52,0,.95.42.95.94s-.42.94-.95.94-.95-.42-.95-.94.42-.94.95-.94h0Zm0,.49c.25,0,.45.2.45.45,0,.25-.2.45-.45.45s-.45-.2-.45-.45.2-.45.45-.45h0Zm2.99,3.27c-.74-.05-1.32-.66-1.32-1.41,0-.59.36-1.09.88-1.3.03.16.06.32.09.48-.29.16-.49.47-.49.83,0,.46.34.85.78.92.02.16.04.32.07.48h0Zm-.15-1.03c-.03-.22-.07-.43-.11-.65-.06.08-.1.17-.1.28,0,.16.08.29.2.37h0Zm-14.97-25.62c-.23.77-.69,2.67-.73,5.3-.01,1.06.05,2.23.22,3.49.62,4.59,2.84,13.44,11.41,18.23,1.33.74,2.81,1.38,4.45,1.9-.04-.44-.08-.88-.13-1.32-1.19-.43-3.34-1.32-5.56-2.87-1.56-1.09-3.15-2.5-4.46-4.31-2.67-3.68-4.14-7.92-4.57-12.55-.22-2.33-.17-4.76.11-7.26,0-.02,0-.04,0-.06,0-.02,0-.04.01-.06-.25-.21-.5-.42-.74-.62-.02.05-.03.1-.04.12h0Zm4.37,3.92c-.16,2.01-.64,13.87,10.03,18.7-.06-.3-.13-.59-.2-.89-.03-.12-.06-.24-.09-.35-2.45-1.36-9.2-6.1-8.97-16.63-.26-.29-.52-.56-.78-.83h0Zm2.62,3.08l.04-.03c.14.17.27.34.4.52l-.05.04c-.18.13-.41.12-.52-.02h0c-.11-.14-.05-.37.12-.5h0Zm.42,1.17l.35-.26c.23.31.47.64.69.97.13.19.26.38.38.57l-.3.22c-.49.37-1.15.33-1.46-.08h0c-.31-.41-.16-1.05.33-1.42h0Zm.86,2.18l.78-.58c.35.54.68,1.07,1,1.6l-.64.48c-.49.37-1.15.33-1.46-.08h0c-.31-.41-.17-1.05.33-1.41h0Zm.87,2.21l1.12-.84c.35.6.67,1.2.97,1.79l-.87.65c-.49.37-1.17.31-1.5-.13h0c-.33-.44-.2-1.1.29-1.47h0Zm1.54,2.04l.79-.6c.29.59.55,1.17.79,1.75l-.45.34c-.49.37-1.15.33-1.46-.08h0c-.31-.41-.16-1.05.33-1.42h0Zm1.61,1.81l.19-.14c.24.6.47,1.2.67,1.8-.47.17-.94.09-1.18-.24h0c-.31-.41-.16-1.05.33-1.41h0Zm1.09,2.45c-.19.05-.37,0-.42-.13h0c-.05-.14.06-.31.25-.39.01,0,.02,0,.03-.01.06.18.12.35.17.53-.01,0-.02,0-.02,0h0Zm-7.8-13.63c0,2.34.47,11.66,8.29,15.24-.1-.35-.2-.71-.3-1.06-1.49-.69-2.96-2.05-3.91-3.3-1.34-1.77-2.61-4.8-2.94-7-.15-1-.22-2.02-.26-2.85-.29-.35-.59-.7-.89-1.03Z" style="fill: #ffe100; fill-rule: evenodd; stroke-width: 0px;"/>
    <path d="m101.37,146.09c.24-.43.71-.72,1.24-.72.78,0,1.42.63,1.42,1.41,0,.51-.28.96-.69,1.21-.12-.11-.25-.22-.37-.34.34-.14.59-.48.59-.87,0-.52-.42-.94-.95-.94-.4,0-.75.25-.88.61-.12-.12-.23-.24-.35-.36h0Zm1.24,1.14c.25,0,.45-.2.45-.45,0-.25-.2-.45-.45-.45s-.45.2-.45.45c0,.04,0,.07.01.11.04.03.07.07.1.1.08.08.16.16.24.23.03,0,.06.01.1.01h0Zm-7.14-18.4c-.78,0-1.42-.63-1.42-1.41s.64-1.41,1.42-1.41c.78,0,1.42.63,1.42,1.41s-.64,1.41-1.42,1.41h0Zm0-.47c.52,0,.95-.42.95-.94s-.42-.94-.95-.94-.94.42-.94.94.42.94.94.94h0Zm0-.49c.25,0,.45-.2.45-.45,0-.25-.2-.45-.45-.45s-.45.2-.45.45.2.45.45.45h0Zm4.46,6.22c-.78,0-1.42-.63-1.42-1.41s.64-1.41,1.42-1.41,1.42.63,1.42,1.41-.64,1.41-1.42,1.41h0Zm0-.47c.52,0,.94-.42.94-.94s-.42-.94-.94-.94-.95.42-.95.94.42.94.95.94h0Zm0-.49c.25,0,.45-.2.45-.45s-.2-.45-.45-.45-.45.2-.45.45.2.45.45.45h0Zm-2.04-1.86c.78,0,1.42-.63,1.42-1.41s-.64-1.41-1.42-1.41-1.42.63-1.42,1.41.64,1.41,1.42,1.41h0Zm0-.47c-.52,0-.95-.42-.95-.94s.42-.94.95-.94.94.42.94.94-.42.94-.94.94h0Zm0-.49c-.25,0-.45-.2-.45-.45s.2-.45.45-.45.45.2.45.45-.2.45-.45.45h0Zm4.76,14.24c-.78,0-1.42-.63-1.42-1.41s.64-1.41,1.42-1.41,1.42.63,1.42,1.41-.64,1.41-1.42,1.41h0Zm0-.47c.52,0,.95-.42.95-.94s-.42-.94-.95-.94-.94.42-.94.94.42.94.94.94h0Zm0-.49c.25,0,.45-.2.45-.45,0-.25-.2-.45-.45-.45s-.45.2-.45.45c0,.25.2.45.45.45h0Zm-.34-2.62c-.78,0-1.42-.63-1.42-1.41s.64-1.41,1.42-1.41,1.42.63,1.42,1.41-.64,1.41-1.42,1.41h0Zm0-.47c.52,0,.95-.42.95-.94s-.42-.94-.95-.94-.94.42-.94.94.42.94.94.94h0Zm0-.49c.25,0,.45-.2.45-.45s-.2-.45-.45-.45-.45.2-.45.45.2.45.45.45h0Zm-.9-2.59c-.78,0-1.42-.63-1.42-1.41s.64-1.41,1.42-1.41,1.42.63,1.42,1.41-.64,1.41-1.42,1.41h0Zm0-.47c.52,0,.95-.42.95-.94s-.42-.94-.95-.94-.94.42-.94.94.42.94.94.94h0Zm0-.49c.25,0,.45-.2.45-.45,0-.25-.2-.45-.45-.45s-.45.2-.45.45c0,.25.2.45.45.45h0Zm-8.48-9.54c.78,0,1.42-.63,1.42-1.41s-.64-1.41-1.42-1.41-1.42.63-1.42,1.41.64,1.41,1.42,1.41h0Zm0-.47c-.52,0-.95-.42-.95-.94s.42-.94.95-.94.95.42.95.94-.42.94-.95.94h0Zm0-.49c-.25,0-.45-.2-.45-.45s.2-.45.45-.45.45.2.45.45-.2.45-.45.45h0Zm-2.99-3.27c.74.05,1.32.66,1.32,1.41,0,.59-.36,1.09-.88,1.3-.03-.16-.06-.32-.09-.48.29-.16.49-.47.49-.83,0-.46-.34-.85-.78-.92-.02-.16-.04-.32-.07-.48h0Zm.15,1.03c.03.22.07.43.11.65.06-.08.1-.17.1-.28,0-.16-.08-.29-.2-.37h0Zm14.97,25.62c.23-.77.69-2.67.73-5.3.01-1.06-.05-2.23-.22-3.49-.63-4.59-2.84-13.44-11.41-18.23-1.33-.74-2.81-1.38-4.45-1.9.04.44.08.88.13,1.32,1.19.43,3.34,1.32,5.55,2.87,1.56,1.09,3.15,2.5,4.46,4.31,2.68,3.68,4.14,7.92,4.57,12.55.22,2.33.17,4.76-.11,7.26,0,.02,0,.04,0,.06,0,.02,0,.04-.01.06.25.21.49.42.74.62.02-.05.03-.1.04-.12h0Zm-4.36-3.92c.16-2.01.64-13.87-10.04-18.71.07.3.13.59.2.89.03.12.06.24.09.35,2.45,1.36,9.2,6.1,8.96,16.63.26.29.52.56.78.84h0Zm-2.63-3.08l-.05.03c-.13-.17-.27-.34-.4-.52l.05-.04c.18-.13.41-.12.52.02h0c.11.14.05.37-.12.5h0Zm-.42-1.17l-.35.27c-.23-.32-.47-.64-.69-.97-.13-.19-.26-.38-.38-.57l.3-.22c.49-.37,1.15-.33,1.46.08h0c.31.41.17,1.05-.33,1.42h0Zm-.86-2.18l-.78.58c-.35-.54-.68-1.07-1-1.6l.64-.48c.49-.37,1.15-.33,1.46.08h0c.31.41.17,1.05-.33,1.42h0Zm-.87-2.22l-1.12.84c-.35-.6-.67-1.2-.97-1.79l.87-.65c.49-.37,1.17-.31,1.5.13h0c.33.44.21,1.1-.29,1.47h0Zm-1.54-2.04l-.8.59c-.29-.59-.55-1.17-.79-1.75l.46-.34c.49-.37,1.15-.33,1.46.08h0c.31.41.17,1.05-.33,1.42h0Zm-1.61-1.81l-.19.14c-.24-.61-.47-1.2-.67-1.8.47-.17.94-.09,1.18.24h0c.31.41.17,1.05-.33,1.42h0Zm-1.09-2.45c.19-.05.37,0,.42.14h0c.05.13-.06.31-.25.39-.01,0-.02,0-.03.01-.06-.18-.12-.35-.17-.53.01,0,.02,0,.02,0h0Zm7.8,13.63c0-2.34-.47-11.66-8.29-15.24.09.35.2.71.3,1.06,1.49.69,2.96,2.05,3.91,3.3,1.34,1.77,2.61,4.8,2.94,7,.15,1,.22,2.02.26,2.85.29.35.59.7.89,1.03Z" style="fill: #ffe100; fill-rule: evenodd; stroke-width: 0px;"/>
    <path d="m141.36,182.98c.25,0,2.55-5.23,5.21-8.76,2.66-3.53,5.31-6.6,6.6-9.91,1.3-3.3,1.1-5.8-.09-7.61-1.18-1.81-3.19-2.8-5.51-2.58-2.32.22-3.74,2.08-4.28,4.45,0,0-.17.89-.51.94-.34.05-.65-.29-.27-3.14.39-2.85,1.22-6,3.05-7.66h-8.74c1.79,1.67,2.61,4.81,2.99,7.66.38,2.85.07,3.19-.26,3.14-.33-.05-.5-.94-.5-.94-.52-2.37-1.92-4.23-4.2-4.45-2.28-.22-4.25.77-5.41,2.58-1.16,1.81-1.36,4.31-.08,7.61,1.27,3.3,3.87,6.38,6.48,9.91,2.61,3.53,5.25,8.76,5.5,8.76Z" style="fill: #231815; fill-rule: evenodd; stroke-width: 0px;"/>
    <path d="m146.05,243.12h-19.6v-5.61h5.69s0-32.62,0-32.62c0-3.48,1.32-6.65,3.45-8.96,2.18-2.37,5.21-3.85,8.55-3.85.47,0,.85.01,1.15.04,7.68.68,11.38,7.7,10.77,14.6l-5.61-.48c.36-4.05-1.57-8.15-5.64-8.51-.29-.03-.52-.04-.67-.04-1.71,0-3.28.78-4.43,2.03-1.21,1.31-1.95,3.14-1.95,5.17v32.62s8.29,0,8.29,0v5.61Z" style="fill: #231815; stroke-width: 0px;"/>
    <path d="m47.11,62.82c0-1.61,1.08-2.93,2.39-2.93h64.57c1.32,0,2.39,1.32,2.39,2.93v122.97c0,1.61-1.08,2.93-2.39,2.93H49.5c-1.32,0-2.39-1.32-2.39-2.93V62.82Z" style="fill: none; fill-rule: evenodd; stroke: #231815; stroke-miterlimit: 22.93; stroke-width: 1.5px;"/>
    <path d="m22.41,67c-.25,0-2.55,5.23-5.21,8.76-2.66,3.53-5.31,6.6-6.6,9.91-1.3,3.3-1.1,5.8.09,7.61,1.18,1.81,3.19,2.8,5.51,2.58,2.32-.22,3.74-2.08,4.28-4.45,0,0,.17-.89.51-.94.34-.05.65.29.27,3.14-.39,2.85-1.22,6-3.05,7.66h8.74c-1.79-1.67-2.61-4.81-2.99-7.66-.38-2.85-.07-3.19.26-3.14.33.05.5.94.5.94.52,2.37,1.92,4.23,4.2,4.45,2.28.22,4.25-.77,5.41-2.58,1.16-1.81,1.36-4.31.08-7.61-1.27-3.3-3.87-6.38-6.48-9.91-2.61-3.53-5.25-8.76-5.5-8.76Z" style="fill: #231815; fill-rule: evenodd; stroke-width: 0px;"/>
    <path d="m17.72,6.85h19.6v5.61h-5.69s0,32.62,0,32.62c0,3.48-1.32,6.65-3.45,8.96-2.18,2.37-5.21,3.85-8.55,3.85-.47,0-.85-.01-1.15-.04-7.68-.68-11.38-7.7-10.77-14.6l5.61.48c-.36,4.05,1.57,8.15,5.64,8.51.29.03.52.04.67.04,1.71,0,3.28-.78,4.43-2.03,1.21-1.31,1.95-3.14,1.95-5.17V12.47s-8.29,0-8.29,0v-5.61Z" style="fill: #231815; stroke-width: 0px;"/>
  </g>
</svg>