<?xml version="1.0" encoding="UTF-8"?>
<svg id="_图层_2" data-name="图层 2" xmlns="http://www.w3.org/2000/svg" viewBox="0 0 163.57 248.61">
  <g id="_图层_1-2" data-name="图层 1">
    <path d="m1,6.6c0-3.08,2.51-5.6,5.57-5.6h150.43c3.06,0,5.57,2.52,5.57,5.6v235.41c0,3.08-2.51,5.6-5.57,5.6H6.57c-3.06,0-5.57-2.52-5.57-5.6V6.6Z" style="fill: #fff; fill-rule: evenodd; stroke: #231815; stroke-miterlimit: 22.93; stroke-width: 2px;"/>
    <path d="m57.77,63.33c-.17,0-1.76,3.6-3.6,6.02-1.84,2.42-3.67,4.54-4.56,6.81-.9,2.27-.76,3.99.06,5.24.82,1.25,2.2,1.93,3.81,1.78,1.6-.15,2.59-1.43,2.96-3.06,0,0,.12-.61.35-.65.23-.03.45.2.18,2.16-.27,1.96-.84,4.12-2.11,5.27h6.04c-1.24-1.15-1.81-3.31-2.07-5.27-.26-1.96-.05-2.19.18-2.16.23.03.34.65.34.65.36,1.63,1.33,2.91,2.9,3.06,1.57.15,2.93-.53,3.74-1.78.8-1.25.94-2.96.06-5.24-.88-2.27-2.68-4.39-4.48-6.81-1.81-2.43-3.63-6.02-3.8-6.02Z" style="fill: #231815; fill-rule: evenodd; stroke-width: 0px;"/>
    <path d="m105.81,185.28c.17,0,1.76-3.6,3.6-6.02,1.84-2.42,3.67-4.54,4.56-6.81.9-2.27.76-3.99-.06-5.24-.82-1.25-2.2-1.93-3.81-1.78-1.6.15-2.59,1.43-2.95,3.06,0,0-.12.61-.35.65s-.45-.2-.18-2.16c.27-1.96.84-4.12,2.11-5.27h-6.04c1.24,1.15,1.81,3.31,2.07,5.27.26,1.96.05,2.19-.18,2.16s-.34-.65-.34-.65c-.36-1.63-1.33-2.91-2.9-3.06-1.57-.15-2.93.53-3.74,1.78-.8,1.25-.94,2.97-.06,5.24.88,2.27,2.68,4.39,4.48,6.81,1.81,2.43,3.63,6.02,3.8,6.02Z" style="fill: #231815; fill-rule: evenodd; stroke-width: 0px;"/>
    <path d="m47.14,147.28l2.41,2.05c-.53.87-.46,2.72-.16,5.53.33,3.19,1.46,11.07,1.56,11.77-.32-.28-.72-.44-1.15-.44-1.01,0-1.84.9-1.84,2s.83,2,1.84,2c.27,0,.53-.06.77-.18l-1.88,3.4,2.5,4.66,2.63-4.66-1.83-3.68c.33.34.77.55,1.26.55,1.01,0,1.84-.9,1.84-2s-.83-2-1.84-2c-.52,0-1,.24-1.34.63.21-1.47,1.09-7.51,1.37-9.65.22-1.72.48-3.4.61-4.24l2.63,2.23c-.32,7.79,1.01,18.42,3.53,25.07v8.41s33.57,0,33.57,0c-.44-1.94-2.3-11.18.05-19.25l-.3-.51s-4.01-.66-6.92-2.87c0,0,1.28-2.87,7.11-10,0,0,4.99-6.79,13.81-11.81,0,0,1.12.91,1.05,1.73l-.66.61-1.33-.76-.3.28.46,2.37s-1.38.53-1.38,1.76,1.24,1.73,1.24,1.73c0,0-.6,2.35-1.08,2.78l.3.43s1.12-.91,2.27-1.11c.87,1.32,2.51,1.02,3.2,0,0,0,1.92.7,2.31,1.06l.41-.37s-.64-1.72-.84-3.02c1.04-.63,1.03-2.31.06-3,0,0,.09-1.57.58-2.62l-.42-.31-1.91.82-.73-.63s.59-2.33-1.42-3.52l1.9-1.43,5.37,3.27v-43.02s-2.41-2.05-2.41-2.05c.53-.87.46-2.72.16-5.53-.33-3.19-1.46-11.06-1.56-11.77.32.28.72.44,1.15.44,1.01,0,1.84-.9,1.84-2s-.83-2-1.84-2c-.27,0-.54.07-.77.18l1.88-3.4-2.5-4.66-2.63,4.66,1.83,3.68c-.33-.34-.77-.55-1.26-.55-1.01,0-1.84.9-1.84,2s.83,2,1.84,2c.53,0,1-.24,1.34-.63-.21,1.47-1.09,7.51-1.36,9.65-.22,1.72-.48,3.4-.61,4.24l-2.63-2.23c.32-7.79-1.01-18.42-3.53-25.07v-8.41s-33.57,0-33.57,0c.44,1.94,2.3,11.18-.05,19.25l.3.51s4.01.66,6.92,2.87c0,0-1.28,2.87-7.11,10,0,0-4.99,6.79-13.81,11.81,0,0-1.12-.91-1.05-1.73l.66-.61,1.33.76.3-.28-.46-2.37s1.38-.53,1.38-1.76-1.24-1.73-1.24-1.73c0,0,.6-2.35,1.08-2.78l-.3-.43s-1.11.91-2.27,1.11c-.87-1.32-2.51-1.02-3.2,0,0,0-1.92-.7-2.31-1.06l-.41.37s.64,1.72.85,3.02c-1.04.63-1.03,2.31-.06,3,0,0-.09,1.57-.59,2.62l.43.31,1.91-.82.73.63s-.59,2.33,1.42,3.52l-1.9,1.43-5.37-3.27v43.02Z" style="fill: #112343; fill-rule: evenodd; stroke-width: 0px;"/>
    <path d="m99.53,120c1.52-.39,2.69-2.33,2.69-4.66,0-.58-.07-1.13-.2-1.64l4.32-20.3,3.23,2.8c.01.51.04,1.37.08,2.01.05.9.96,2.04,1.96,2.22-1.07.24-1.88,1.22-1.88,2.4,0,1.08.68,2,1.62,2.32v.69s-1.41.39-1.24,2.46c.15,1.79.88,8.84,1.08,10.74l-6.51-4.87-3.84,5.82h-1.3Zm14.25-20.13l2.66,2.31v20.82s-2.95-2.21-2.95-2.21c.16-2.16.8-10.67.95-12.48.18-2.07-1.24-2.46-1.24-2.46v-.85c.74-.41,1.25-1.23,1.25-2.16,0-1.22-.86-2.23-1.99-2.42.47-.08.89-.26,1.31-.55Z" style="fill: #e60012; fill-rule: evenodd; stroke-width: 0px;"/>
    <path d="m71.79,91.27s0,0,0,0l23.96,24.51c.13,2.13,1.25,3.86,2.68,4.22h-8.21s-10.99-11.48-10.99-11.48h-3.55c-.3-2.53-1.44-4.94-1.44-4.94-2.54-4.59-5.38-7.08-6.27-7.79,1.33-1.42,2.6-2.94,3.83-4.52Z" style="fill: #e60012; fill-rule: evenodd; stroke-width: 0px;"/>
    <path d="m98.98,120.07c1.79,0,3.25-2.12,3.25-4.73,0-2.6-1.46-4.73-3.25-4.73s-3.25,2.12-3.25,4.73c0,2.6,1.46,4.73,3.25,4.73Z" style="fill: #112343; fill-rule: evenodd; stroke-width: 0px;"/>
    <path d="m101.92,59.9c.24.35.62.8,1.15,1.11,0-.48.01-.85.02-1.11h-1.17Zm1.07,5.34c0,.34-.01.68-.02,1.03-4.28-1.76-5.03-5.26-5.17-6.37h.67c.19.99,1.02,3.6,4.51,5.34h0Zm.03-1.53c0,.35-.01.71-.02,1.09-3.02-1.23-3.99-3.91-4.26-4.9h.73c.2.88.95,3.07,3.55,3.81h0Zm.02-1.04c0,.21,0,.43-.01.65-2.22-.63-2.95-2.58-3.18-3.43h.57c.81,1.7,1.86,2.45,2.62,2.77h0Zm.02-1.25c0,.24,0,.51-.01.79-1.24-.48-1.89-1.61-2.19-2.31h.69c.41.83,1,1.28,1.52,1.52h0Zm-5.49-1.52h-.73c-.26,1.28-1.28,4.45-5.02,5.18-.13.27-.26.55-.39.84.51-.03,1.73-.19,2.99-1.1,1.56-1.13,2.92-3.17,3.16-4.93h0Zm-1.02,0c-.29,1.26-1.16,2.75-2.26,3.65-.83.69-1.75.99-2.28,1.12.19-.41.37-.8.54-1.17,2.36-.99,3-2.87,3.16-3.6h.84Zm-1.2,0c-.67,2.1-2,2.91-2.6,3.17.26-.56.49-1.07.69-1.52.73-.58,1.09-1.23,1.25-1.65h.66Zm-3.58,12.66l-.23-.1c-.07-.05-.33-.3-.17-.47.17-.16.56,0,.6.2.04.19,0,.34-.21.37h0Zm3.1,6.17l.46-.49s.11-.12.08-.35c-.03-.23-.2-.34-.32-.34s-.93.61-.94,1.32c-.02.71.29,1.7,1.31,1.77,1.02.06.8-.28,1.48-.35.68-.08.91-.35.94-.72.03-.37-.34-.69-.68-.74-.34-.05-.71.28-1.58.69-.86.41-.91-.58-.76-.78h0Zm.55,5.65l.07-.14s.5.02.72.26c.22.24,1.03.02,1.39-.1.36-.12.79-.34.96-.31.17.02.31.19.1.38-.22.19-.41.38-.41.38l.53.48s-.19-.02-.6-.17c-.41-.14-1.03-.1-1.54.22-.5.31-.58.34-.89.41-.31.07-.36-.12-.26-.29.1-.17.46-.29.67-.36.22-.07-.74-.5-.74-.77h0Zm-1.09-14.23l.23-.08s-.21-.7-1.13-.8c-.92-.1-2.89.91-4.01,2.06,0,0-.86.71-.86,1.05s.27.4.8.29c.54-.11,1.13-.08,1.49.11.36.19.73.59,1.74.61,1.02.02,2.07,0,2.07,0,0,0-1.63,1.56-1.84,1.73-.21.17-.13.4.34.34.48-.06,1.02-.69,1.55-1.28.54-.59.92-1.53.94-1.83.02-.31-.23-.29-.34-.72-.12-.44-.02-.86.54-1.35,0,0,.08-.21-.1-.21s-.4.17-.75.36c-.34.19-.63.19-1.24.21-.61.02-.59,0-1.15.04-.55.04-.69.04-1.21.34,0,0-.25.13-.25-.11s.52-.74,1.25-.88c.73-.13,1.44,0,1.92.11h0Zm.29,1.83c.32-.01.33.09.33.3s-.21.36-.38.33c-.14-.02-.23-.52.05-.63h0Zm4.72-1.13l-.36.15s.21-1.08,1.55-1.05c1.23.02,2.09.38,2.34,1.05,0,.05,0,.09,0,.14-.18-.11-.79-.45-1.45-.45-.78,0-1.36-.13-2.08.17h0Zm-.23,1.43c-.04.23.19.41.35.38.15-.03.33-.37.2-.61-.16-.29-.51,0-.55.22h0Zm.89-.15l.11-.17s.55.59.83.55c.28-.04.78-.7.78-.7,0,0,.17.34-.08.74-.25.4-.42.42-.74.42s-.83-.36-.89-.84h0Zm-5.32,10.34l-.22-.14s-.31.07-.34.34c-.02.26.02.86-.14,1.06-.17.19-.02.41.24.36.27-.05.46-.17.89-.34.43-.17.94-.31,1.32,0,.38.31.91.26,1.2.22.29-.05.67-.34.89-.46.22-.12.79-.14.91-.02.12.12.36-.05.36-.29s-.12-1.11-.24-1.15c-.12-.05-.1.02-.58.17-.48.14-.96-.02-.96-.02,0,0-.38.31-.55.36-.17.05-.67-.02-.89-.26-.22-.24-.77.34-1.15.34s-.6-.02-.75-.14h0Zm7.86-10.55l-.19-.08s-.19.55-.15.65c.04.11.34-.06.34-.57h0Zm-5.78-2.39c-.23,0-.32-.25-.73-.5-.4-.25-1.65-.44-3.37-.32-1.72.11-1.44.4-1.95.53-.52.13-.82-.23-.15-.78.67-.55,3.03-1.43,4.46-.9,1.44.53,1.97,1.73,1.97,1.73l-.23.23h0Zm-4.17,2.21c.03.63.36.84.74.76s.6-.64.66-.46c.06.18-.11.69-.36.73-.26.05-.65.15-1.01-.21-.36-.36-.38-.85-.38-.85l.35.03h0Zm5.22-10.46l-.09-.26s-1.81,4.93-6.53,5.4c-1.54,3.27-3.51,7.37-5.65,11.56.45,1.41,2.19,6.08,5.9,8.04,4.4,2.32,7.35,2.41,8.74-.19,1.39-2.61,2.01-4.67,2.27-6.31.11-.68.23-3,.34-5.48.01-.41.02-.84.03-1.28-.33.54-1.11.7-1.77.69-.71-.02-1.62-.22-1.62-.22.1.57.87,1.13,1.09,1.37.22.24.11.36.11.36-.44.04-1.07-.53-1.29-.82-.22-.3-.27-.2-.27-.2-.04.48.06,1.65.39,2.59.33.95.38,1.7.35,2.17-.03.47-.49.97-.91,1.21-.42.24-.67.37-.99.82-.32.45-.32.24-.32.24-.03-.45.18-1.04.59-1.48.4-.44.89-.73.95-1.05.06-.32-.19-1.22-.19-1.22-.39-1.33-1.31-4.26-.44-6.81.87-2.55,2.44-2.64,3.11-2.66.44-.01.99.25,1.31.43,0-.49.02-.98.03-1.46-.61-.26-4.05-1.86-5.15-5.45h0Zm2.92,8.2c1.18-.05,1.91.42,2.15.61,0-.15,0-.3.01-.46-.23-.56-.88-.76-1.55-.81-.85-.06-1.23.7-1.23.7l.62-.04Z" style="fill: #fff; fill-rule: evenodd; stroke-width: 0px;"/>
    <path d="m85.56,59.9h-14.84c.49,2.41,2.32,12.57,0,19.02,0,0,2.21.46,4.91,1.75l9.93-20.77Z" style="fill: #ffe100; fill-rule: evenodd; stroke-width: 0px;"/>
    <path d="m88.72,59.9c-1.1,2.92-4.88,12.45-10.66,22.11-.65-.41-1.3-.78-1.93-1.1-.01,0-.02-.01-.04-.02l10.04-20.99h2.58Z" style="fill: #e60012; fill-rule: evenodd; stroke-width: 0px;"/>
    <path d="m101.23,117.41l-3.02.89-26.43-27.03c9.3-12,15.47-27.51,16.93-31.38h5.47c-1.3,2.91-8.74,19.34-15.25,30.14l19.53,20.34,4.51-20.84,3.55,3-5.29,24.88Z" style="fill: #112343; fill-rule: evenodd; stroke-width: 0px;"/>
    <path d="m80.26,92.9l-.17-.03s.11,1.51.03,2.29c-.08.78-.42,1.04-.88,1.35-.45.31-.27,1.48.31,1.57.58.09,1.3-.45,1.36-2.02.06-1.57-.12-2.88-.66-3.16h0Zm3.93,4.38l-.28-.19s.19,1.36.11,2.22c-.07.86-.24.97-.64,1.23-.4.26-.47,1.14.15,1.4.62.26,1.35-.28,1.41-1.57.06-1.29-.19-2.52-.75-3.1h0Zm3.63,3.58l-.14-.19s.14,1.53.1,2.21c-.04.68-.17.93-.74,1.14-.56.21-.46,1.37.27,1.53.74.15,1.43-.7,1.24-2.32-.19-1.63-.74-2.36-.74-2.36h0Zm3.64,3.55l-.27-.17s.11,1.47.11,2.18c0,.71-.21,1.01-.61,1.17-.39.15-.65.56-.24,1.1.41.55,1.44.27,1.54-.88.11-1.15.11-2.97-.53-3.4h0Zm3.25,3.8l-.37-.18s.37.81.37,1.53-.04,1.48-.6,2.04c-.57.56-.34,1.2.3,1.25.64.05.99-.98,1.01-2.13.02-1.14-.05-2-.71-2.51h0Zm9.29-16.17s-.04.66.16.99c.24.38,1.03.56,1.03-.13,0-.37-.85-.8-1.2-.86h0Zm-1.23,3.93s.38.89.65,1.24c.27.36.37.57.37.8s-.19.43-.42.46c-.77.1-.98-2.07-.6-2.5h0Zm-1,4.17l.09-.09s.19,1.25.66,1.8c.47.55.43.72.24.86-.19.13-.94-.14-1.12-1.02-.18-.87.07-1.44.13-1.55h0Zm-1.08,4.81s.07,1.02.54,1.31c.47.29.61.87.24,1.05-.95.47-1.3-1.75-.78-2.36h0Zm-21.69-13.2c.59.25.88,1.62.83,2.2-.08.88-.59,1.21-.94,1.05-.36-.16-.41-.81-.23-1s.41-.41.44-.82c.03-.4-.1-1.43-.1-1.43h0Zm3.79,3.86c.54.28.96,1.36.96,2.24,0,.88-.47,1.36-.96,1.31-.49-.06-.69-.8-.36-1.06.34-.26.47-.54.43-1.07-.04-.52-.3-1.49-.3-1.49l.23.07h0Zm3.94,3.99c.66.35.68,1.28.68,2.19,0,.91-.39,1.32-.7,1.26s-.48-.23-.35-.7c.13-.46.35-.48.41-1.12.06-.64-.19-1.66-.19-1.66l.15.04h0Zm3.29,3.64c.57.46.77,1.09.83,1.88.08.89-.33,1.36-.64,1.37-.31.02-.66-.72-.44-1.03.21-.31.31-.31.35-.77.04-.46-.1-1.45-.1-1.45h0Zm3.54,3.45c.54.38.67,1.32.67,2.06,0,.74-.23,1.23-.62,1.21-.39-.01-.55-.7-.29-.92.26-.23.21-.63.2-1.06-.01-.42-.15-1.33-.15-1.33l.2.05h0Zm5.38,4.24c1.55,0,2.81,1.93,2.81,4.29,0,2.36-1.26,4.29-2.81,4.29s-2.81-1.93-2.81-4.29c0-2.36,1.26-4.29,2.81-4.29h0Zm.03,1.11c-1.16,0-2.06,1.51-2.01,3.35.05,1.85,1.03,3.35,2.19,3.35,1.16,0,2.06-1.51,2.01-3.35-.05-1.85-1.03-3.35-2.19-3.35h0Zm0,3.03c.32-.37.44-.98.47-1.26.09-.79-.42-1.1-.64-1.11-.22-.01-.7.21-.71.96-.01.74.88,1.42.88,1.42h0Zm1.05-.44c-.32,0-.58.26-.58.58,0,.32.26.58.58.58s.58-.26.58-.58c0-.32-.26-.58-.58-.58h0Zm-1.93.32c-.32,0-.58.26-.58.58,0,.32.26.58.58.58s.58-.26.58-.58-.26-.58-.58-.58h0Zm1.06.74c-.32.37-.44.98-.47,1.26-.09.79.42,1.1.64,1.11.22,0,.7-.21.71-.96.01-.74-.88-1.42-.88-1.42h0Zm3.94-22.08c-.25.12-.25,1.4-.04,2.28.21.88.64,1.71,1.18,1.68.54-.02.83-.35.85-.68.02-.33-.04-.72-.43-.78-.39-.06-.66-.12-.95-.72-.29-.6-.45-1.81-.45-1.81l-.14.02h0Zm-1.1,4.8c-.27.68.29,3.67,1.28,3.72.42.02.84-.27.82-.65-.02-.38-.33-.84-.54-.85-.21,0-.57,0-.9-.46-.33-.45-.65-1.76-.65-1.76h0Zm-1.01,4.82c-.45,2.23,1,3.3,1.29,3.24.29-.05.63-.2.62-.72-.02-.53-.34-.42-.94-.94-.6-.53-.85-1.69-.85-1.69l-.11.11h0Zm-1.15,5.07c-.11.98.12,2.5.7,2.95.58.45,1.27.21,1.41-.17.14-.38.11-.8-.3-1.03-.4-.22-.58,0-1.03-.29-.45-.29-.67-1.75-.67-1.75l-.1.28h0Zm-21.65-17.28c.21,0,.51.46.57,1.14.06.67-.08,1.35-.54,1.63-.46.28-.77-.24-.73-.6.04-.36.45-.53.51-.87.03-.19-.12-1.3.19-1.3h0Zm3.51,3.43l-.23-.08s.23,1.01.16,1.51c-.08.5-.13.76-.31,1.03-.19.26,0,.93.41.89.41-.05.81-.31.72-1.27-.09-.96-.2-1.59-.73-2.07h0Zm3.41,3.76c.8.17,1.18,1.33,1.24,2.22.06.77-.17,1.31-.75,1.38-.58.07-.64-.52-.43-.86.21-.34.3-.32.3-1.03,0-.71-.36-1.72-.36-1.72h0Zm3.81,3.63c.7.41.83,1.12.85,2.03.02.91-.37,1.24-.74,1.24s-.41-.56-.27-.77c.14-.21.21-.46.21-1.1s-.33-1.43-.33-1.43l.27.04h0Zm3.52,3.68c.64.48.82,1.79.8,2.51-.01.54-.24.77-.62.76-.38-.02-.55-.26-.51-.51.03-.26.26-.39.3-.73.04-.33.03-2.03.03-2.03h0Zm3.43,3.75h-.18s.27.97.23,1.55c-.03.58-.12.67-.25.97-.12.3.12.63.41.63s1.06-.56.74-1.6c-.32-1.04-.57-1.25-.95-1.55h0Zm7.55-16.46l.1-.44s.13.78.67,1.08c.53.3.68.35.69.66.01.31-.19.58-.56.59-.37.01-1.02-.52-.9-1.89h0Zm-1.14,4.77c0,1.87.58,2.17.88,2.15.3-.02.36-.24.29-.47-.06-.23-.4-.43-.64-.77-.24-.34-.51-1.17-.51-1.17l-.02.25h0Zm-.88,4.03c-.58.41-.08,2.38.63,2.37.51,0,.59-.47.56-.64-.03-.16-.28-.23-.63-.63-.35-.4-.56-1.1-.56-1.1h0Zm-1.25,5.11c-.16,1.65.48,2.29.93,2.34.45.05.64-.18.57-.58-.08-.4-.61-.57-.93-.93-.32-.36-.48-1.14-.48-1.14l-.09.31h0Zm-23.8-14.69c.1.22.33.51.57.47.25-.04.51-.29.57-.53.06-.25-.18-.51-.59-.45-.41.06-.77.14-.55.51Z" style="fill: #ffe100; fill-rule: evenodd; stroke-width: 0px;"/>
    <path d="m85.05,78.94l1.09,6.06.73.17-.74-4.66c-.31-.6-.61-1.26-.89-1.96-.07.13-.13.26-.2.39h0Zm-.92,1.77c.17-.32.33-.64.5-.96l.92,5.12-.65-.15-.77-4.01h0Zm-1.19,2.24l.47,1.42.89.21-.59-3.08c-.26.49-.51.97-.77,1.45h0Zm-.63,1.17l.46.11-.2-.6c-.09.16-.18.33-.27.49h0Zm5.14,1.2l.66.15-.38-2.41c-.28-.37-.55-.76-.82-1.19l.55,3.45h0Zm1.24.29l.7.16-.15-.97c-.26-.26-.53-.55-.81-.88l.27,1.68h0Zm1.29.3l.71.16c-.22-.17-.49-.38-.79-.64l.08.48Z" style="fill: #fff; fill-rule: evenodd; stroke-width: 0px;"/>
    <path d="m97.89,106.57l-13.28-13.57s9.32,1.65,15.74.44l-2.46,13.13h0Zm-9.16-11.48l-.2.36,8.6,8.71.32-.12,1.24-8.95h-9.96Zm9.29.43h-1.26s-1.45,1.29-1.45,1.29l-.11.1-.14-.06-3.12-1.33h-2.01s5.46,2.34,5.46,2.34l2.62-2.34h0Zm-1.95,0h-2.94s1.99.85,1.99.85l.95-.85h0Zm-6.63.29l1.66,1.7,4.59,1.96,2.38-2.12.22-1.45-2.68,2.4-.11.1-.14-.06-5.91-2.53h0Zm2.5,2.56l1.3,1.33,2.64,1.13,1.93-1.73.16-1.04-2.07,1.85-.11.1-.14-.06-3.7-1.58h0Zm2.14,2.19l1.08,1.11,1.13.48,1.22-1.09.19-1.25-1.63,1.45-.11.1-.14-.06-1.75-.75h0Zm1.93,1.98l1.11,1.14.29-1.89-.91.81-.11.1-.14-.06-.24-.1h0Zm1.42,4.06c.46.56.76.86.89.24.13-.62,2.26-12.62,2.36-13.12.1-.5-.1-.63-.38-.6-.28.03-2.05.25-6.58.33-4.53.08-9.51-1.05-9.74-1.1-.23-.05-.49.05-.25.35.23.3,1.52,1.57,1.52,1.57l12.18,12.34h0Zm5.03-14.68c-11.37,2.33-20.94-.82-23.39-1.75l19.4,20.2,3.99-18.46Z" style="fill: #ffe100; fill-rule: evenodd; stroke-width: 0px;"/>
    <path d="m80.99,86.51c2.43.93,10.36,3.5,19.41,1.72l2.41,2.09-.26,1.19c-2.21.45-5.64.97-9.38.87-5.45-.14-10.85-1.19-14.04-2.67.61-1.03,1.24-2.1,1.86-3.21h0Zm.2-.35c1.79.71,9.62,3.49,18.85,1.76l-.61-.53c-2.34,1.74-6-.03-6-.03-5.55,0-10.53-1.78-11.68-2.22-.19.34-.38.68-.57,1.02Z" style="fill: #ffe100; fill-rule: evenodd; stroke-width: 0px;"/>
    <path d="m114.4,75.2l-2.09-3.75-2.01,3.6,1.86,4.08,2.24-3.93h0Zm-.76.08l-1.4,2.16-1.2-2.28,1.35-2.05,1.25,2.18Z" style="fill: #ffe100; fill-rule: evenodd; stroke-width: 0px;"/>
    <polygon points="113.18 75.32 112.44 73.88 111.47 75.2 112.28 76.64 113.18 75.32" style="fill: #e60012; fill-rule: evenodd; stroke-width: 0px;"/>
    <path d="m110.39,78.87c.75,0,1.36.66,1.36,1.47s-.61,1.47-1.36,1.47-1.36-.66-1.36-1.47c0-.81.61-1.47,1.36-1.47h0Zm3.41.1c.75,0,1.36.66,1.36,1.47s-.61,1.47-1.36,1.47-1.36-.66-1.36-1.47c0-.81.61-1.47,1.36-1.47Z" style="fill: #ffe100; fill-rule: evenodd; stroke-width: 0px;"/>
    <path d="m112.54,87.37s.67,6.82.73,7.88c0,.18.03.36.05.56.15,1.39.39,3.58-1.52,3.84-.14.02-.28.04-.31-.24-.04-.27.1-.29.24-.31,1.37-.19,1.17-2.06,1.04-3.24-.03-.23-.05-.44-.06-.59-.07-1.18-.73-7.84-.73-7.86-.01-.14-.03-.28.25-.3.28-.03.29.11.3.25h0Zm-.5-5.5s-1.7,12.48-2.01,14.7c-.31,2.22.67,3.46,1.7,3.46,1.03,0,2.19-.09,2.23-2.89.04-2.75-1.57-13.27-1.92-15.28Z" style="fill: #ffe100; stroke-width: 0px;"/>
    <path d="m89.68,120h-.34s-1.12,0-1.12,0l-3.55-3.7-6.01-6.27h-1.9s-1.03,0-1.03,0c.01-.27.01-.54,0-.82,0-.08,0-.15-.01-.23h3.41s10.56,11.03,10.56,11.03h0Zm-2.96,0l-2.55-2.69-5.42-5.71-.4-.42h-.13s-1.78,0-1.78,0h-.83c-.03.23-.07.45-.12.66-.04.2-.09.4-.14.6h.88s1.72,0,1.72,0l6.44,6.53,1.02,1.03h.27s1.03,0,1.03,0h0Zm-1.85,0l-3.4-3.38-3.69-3.66h-.89s-1.69,0-1.69,0c-.02.05-.03.1-.05.15-.06.17-.12.33-.19.5-.04.09-.07.17-.11.26h.45s.83,0,.83,0h1.23s3.55,3.71,3.55,3.71l1.94,2.03.38.39h.81s.83,0,.83,0h0Zm-3.09,0l-4.25-4.44-.51-.53h-.19s-1.68,0-1.68,0h-.91c-.1.15-.2.31-.31.46-.04.05-.08.1-.12.16h.31s1.81,0,1.81,0h.53s1.77,1.83,1.77,1.83l2.45,2.53h.74s.37,0,.37,0Z" style="fill: #ffe100; fill-rule: evenodd; stroke-width: 0px;"/>
    <path d="m90.21,120h-.53s-10.56-11.03-10.56-11.03h-3.41c0-.11-.02-.22-.03-.34,0-.04,0-.08-.01-.12h3.55s10.99,11.48,10.99,11.48h0Zm-1.99,0l-3.55-3.7-6.01-6.27h-1.9s-1.03,0-1.03,0c0,.15-.02.3-.04.45,0,.04,0,.07-.01.11-.02.2-.05.4-.08.59h.83s1.78,0,1.78,0h.13l.4.42,5.42,5.71,2.55,2.69h.84s.66,0,.66,0h0Zm-2.8,0l-1.02-1.03-6.44-6.53h-1.72s-.88,0-.88,0c-.05.18-.1.35-.15.52h1.69s.89,0,.89,0l3.69,3.66,3.4,3.38h.55Zm-2.19,0l-.38-.39-1.94-2.03-3.55-3.71h-1.23s-.83,0-.83,0h-.45c-.1.22-.21.45-.33.67-.09.16-.19.33-.29.49h.91s1.68,0,1.68,0h.19l.51.53,4.25,4.44h1.46Z" style="fill: #112343; fill-rule: evenodd; stroke-width: 0px;"/>
    <path d="m72.55,95.99c.04.25-.1.77-.79.83-.7.06-1.72-.58-1.88-1.73-.15-1.15.77-2.27,1.95-2.44,1.18-.17,2.01.77,2.63,2.42.62,1.66.63,3.46,1,5.6.37,2.13.9,3.86,2.11,4.86,1.21,1,3.48.07,3.58-1.57.1-1.63-.5-2.46-1.47-2.63-.97-.17-1.54.4-1.67,2.13,0,0-.84-.2-.77-1.27.07-1.07.84-1.73.84-1.73,0,0-2.34-1.1-2.64-2.5-.3-1.4.33-2.03.7-2,.37.03.47.4.37,1.03-.1.63,0,1.4,1.17,2.07,1.17.67,2.55.97,3.48,1.97.94,1,.97,2.4.1,4.66,0,0,1.61-.08,2.96,0,0,0,2.81.46,3.14,2.29.34,1.83.23,4.29.34,5.61.11,1.32.66,2.55,2.02,2.81,1.36.26,2.26-.66,2.49-1.55.23-.89-.53-2.01-1.13-2.02-.6-.01-.99.19-1.42.92,0,0-.19-.3-.1-.83.09-.53.82-1.05,1.68-.92.86.13,2.45,1.2,1.51,3.72,0,0,1.47-.07,2.15.32.69.39,1.03.94.94,2.06-.09,1.12-1.03,1.65-1.63,1.67-.6.02-1.05-.43-1.17-.98-.12-.55.48-.5.64-.16.16.34.64.57,1.1.23.46-.34.53-1.33,0-1.76-.53-.44-1.35-.55-2.18-.39-.82.16-1.17.57-1.97.66-.8.09-4.29.29-4.27-5.53,0,0-1.02.78-1.88.66-.87-.12-1.83-.96-1.85-2.29-.02-1.33,1.16-1.86,1.36-1.86s.32.27.28.41c-.04.14-.79.57-.73,1.61.06,1.04.73,1.31,1.4,1.28.67-.04,1.6-.71,1.66-1.85.06-1.14-.33-2.12-1.47-2.81-1.14-.69-2.99-.49-4.98-.22-1.99.27-3.81-.13-5.1-4-1.3-3.87-.99-6.72-1.36-7.79-.37-1.08-1.08-1.5-1.64-1.48-.56.02-1.01.42-1.18,1.17-.36,1.54,1.6.84,1.68,1.35h0Zm.16,1.71c-.36,0-.65.29-.65.65,0,.35.29.64.65.64s.65-.29.65-.64-.29-.65-.65-.65h0Zm8.64,9.71c-.35,0-.64.28-.64.63s.29.63.64.63.64-.28.64-.63c0-.35-.29-.63-.64-.63h0Zm1.77-4.27c-.35,0-.64.28-.64.63s.29.63.64.63.64-.28.64-.63-.29-.63-.64-.63h0Zm6.32,6.81c-.35,0-.64.28-.64.63s.29.63.64.63.64-.28.64-.63-.29-.63-.64-.63Z" style="fill: #fff; fill-rule: evenodd; stroke-width: 0px;"/>
    <path d="m108.64,95.41c-.35.23-1.16.87-1.98,2.12-1.08,1.65-1.08,3.56-.63,5.32.45,1.76.75,2.98.16,3.44-.59.45-.91.05-1.15.21-.24.16-.03,1.04.64,1.04s1.31-.85,1.31-1.39c0,0,.42,2.07.34,3.37-.08,1.31-.72,2.02-1.63,2.2-.92.18-1.23-.85-1.06-1.31.18-.46.38-.71.4-.83.02-.12-.1-.35-.56-.3-.46.06-.86.67-.72,1.92.14,1.25,1.23,1.56,1.85,1.54s.92-.36.92-.36c0,0,.06.06.04.46-.02.4-.08,1,.38,1.68.46.68,1.56.64,1.85.27.29-.37-1.17-.58-1.12-1.47.04-.89.13-1.74.56-3.34.44-1.6-.19-3.86-1.14-6.87,0,0,1.23.11,1.75-.29.53-.39.85-1.49.02-1.53,0,0-.11.71-.9.86-.79.15-1.15-.47-1.24-1.83-.09-1.34.91-3.36,2.68-4.24l-.79-.69Z" style="fill: #fff; fill-rule: evenodd; stroke-width: 0px;"/>
    <path d="m112.09,104.83c1.01,0,1.84-.91,1.84-2.02s-.83-2.03-1.84-2.03-1.84.91-1.84,2.03.83,2.02,1.84,2.02Z" style="fill: #ffe100; fill-rule: evenodd; stroke-width: 0px;"/>
    <path d="m112.49,101.25l-.27-.1c1.17.83.51,2.2-.78,2.86,0,0,.59.17,1.1.07.51-.1,1.02-.9,1.02-1.43,0-.53-.29-.97-1.07-1.41Z" style="fill: #d09515; fill-rule: evenodd; stroke-width: 0px;"/>
    <path d="m111.65,119.41c-.19-2.13-.78-8.62-.93-10.01-.17-1.67-.2-3.32,1.59-3.39,0,0,1.69.07,1.69,1.46,0,1.23-.65,10.94-.8,13.11l-1.55-1.16Z" style="fill: #ffe100; fill-rule: evenodd; stroke-width: 0px;"/>
    <path d="m112.4,119.97c.06-1.13.28-5.25.46-7.47.21-2.59.32-5.24-.33-5.68,0,0-.28-.29-.11-.43.18-.13.93.06,1.06.85.12.79-.51,7.05-.48,7.73.02.57-.23,4.15-.3,5.23l-.3-.23Z" style="fill: #d09515; fill-rule: evenodd; stroke-width: 0px;"/>
    <path d="m66.4,97.39c.5.44,1.96,1.75,3.39,3.46,1.76,2.1,2.89,3.3,3.8,6.23.91,2.93.08,5.94-1.08,7.63-1.16,1.69-3.17,3.18-4.36,4.2-1.19,1.02-3.67,4.01-5.49,6.76-1.82,2.75-4.14,6.23-4.14,6.23l-9.8-7.67-1.6.83,11.71,8.96c2.23-3.3,5.34-8.2,7.05-10.36,1.51-1.91,2.92-3.63,4.93-5.23,1.4-1.25,2.15-2.2,2.15-2.2,2.28-2.71,2.45-5.72,2.28-7.51-.17-1.79-.77-4.56-2.76-7.39-1.75-2.49-4.18-4.78-4.75-5.3-.44.46-.88.92-1.33,1.36Z" style="fill: #ffe100; fill-rule: evenodd; stroke-width: 0px;"/>
    <path d="m67.61,113.78l2.49-1.25s.48-.27.62-.27.33.26.14.89c-.19.63-1.41,3.74-1.63,3.79-.22.05-.7-1.05-.7-1.05,0,0-.41.41-.75.46-.34.05-.51-.53.05-1.06,0,0,.14-.31-.27-.31s-1.03-.07-1.03-.33.02-.38,1.1-.88h0Zm-3.32,4.2c.2,0,.35.17.34.36,0,.19-.17.35-.36.34-.2,0-.35-.17-.34-.36,0-.19.17-.35.36-.34h0Zm1.37,1.55c.2,0,.35.17.34.36,0,.19-.17.35-.36.34-.19,0-.35-.17-.34-.36,0-.19.17-.35.36-.34h0Zm-2.53-.1c-1.15.47-2.1.87-2.11,1.14,0,.28.52.42.95.43.43.01.34.34.26.54-.08.2-.15.6.08.76.22.16.62-.28.84-.28.23,0,.4,1.02.58,1,.18-.02.34-.29.44-1.07.1-.78,1.09-2.38,1.25-2.83.17-.45.17-.57-.13-.56-.3.02-1.12.39-1.12.39l-1.03.47h0Zm9.33-13.29c.2,0,.35.16.35.35s-.16.35-.35.35-.35-.16-.35-.35c0-.19.16-.35.35-.35h0Zm-13.37,18.37c.2,0,.36.15.37.35,0,.2-.15.36-.35.37-.2,0-.36-.15-.37-.35,0-.2.15-.36.35-.37h0Zm1.49,1.48c.2,0,.37.15.37.34,0,.2-.15.36-.35.37-.2,0-.36-.15-.37-.34,0-.2.15-.36.35-.37h0Zm-2.57.06c-1.14.55-2.07,1.02-2.06,1.3,0,.28.55.39.99.38.44-.02.37.32.3.53-.07.21-.11.62.13.76.24.14.61-.33.84-.34.23,0,.47,1.01.65.98.18-.03.32-.32.37-1.11.05-.8.94-2.48,1.08-2.95.14-.46.13-.59-.17-.56-.31.04-1.11.47-1.11.47l-1.01.54h0Zm9.52-17.57c.19,0,.35.16.35.35,0,.19-.16.35-.35.35s-.35-.16-.35-.35c0-.19.16-.35.35-.35h0Zm-7,4.06l.14.06s1.2.84,2.28.91c1.08.07,1.39-.31,1.39-.74s-.36-1.43-1.99-2.22c-1.63-.79-3.79-.89-4.42-.74,0,0-1.1.93-1.57,3.88-.47,2.95.1,5.68.1,5.68,0,0,3.61.12,4.51.12,0,0,.92,0,1.02-.57.11-.57-.13-.89-.68-1-.55-.12-1.98-.37-2.42-.56-.44-.2-.04-.6.29-.46.33.14,1.67.52,2.62.61.95.09,1.64-.2,1.68-1.1,0,0-1.86-.22-2.85-.47-.99-.25-.93-.48-.93-.64,0-.16.21-.22.73-.01.52.21,1.81.55,2.48.56.66.01,1.34-.1,1.37-1,.03-.9-.48-.89-1.06-.9-.58-.01-2.13-.24-3.01-.98,0,0-.15-.18.01-.38.17-.2.31-.04.31-.04h0Zm10.51-7.8c.2,0,.35.16.35.35,0,.19-.16.35-.35.35s-.35-.16-.35-.35c0-.19.16-.35.35-.35h0Zm-1.37,7.06c-.19,0-.35.16-.35.35,0,.19.16.35.35.35s.35-.16.35-.35-.16-.35-.35-.35h0Zm-4.09.19c-.09.55-.27,1.06.03,1.06s.76-.34.76-.34c.46.77.62,1.01.84.34.22-.67,1.29-2.95,1.44-3.47.15-.51-.09-.58-.24-.53-.15.05-1.15.55-2.16,1.06-1.01.51-1.73.75-1.73,1.15,0,.4,1.13.4,1.13.4l-.07.33h0Zm-9.95,9.21c.2,0,.36.16.36.36s-.16.36-.36.36-.36-.16-.36-.36.16-.36.36-.36h0Zm1.44,1.53c.2,0,.36.16.36.36,0,.2-.16.36-.36.36s-.36-.16-.36-.36c0-.2.16-.36.36-.36h0Zm-2.57-.03l1.03-.51s.82-.41,1.13-.44c.31-.03.31.1.15.56-.15.46-1.1,2.12-1.18,2.91s-.23,1.07-.41,1.1c-.18.03-.38-1-.62-1s-.62.46-.85.31c-.23-.15-.18-.56-.1-.77.08-.2.15-.54-.28-.54s-.98-.13-.98-.41.95-.71,2.11-1.23h0Zm9.09-12.07c.48.55,1.02,1.02,1.25,1.91.17.64-.48,1.22-.48,1.22,0,0,.36.45.34,1.22-.02.76-.84,1.29-.84,1.29.53,1.5-1.53,1.69-1.53,1.69.42,2.11-1.09,2.04-2.69,2.04s-3.25-.18-3.25-.18c-.18.91-1.94.63-1.94.63l-5.41,3.55,9.44,7.28s3.58-5.52,4.92-7.36c1.35-1.84,3.16-4.12,4.24-5.15,1.09-1.03,1.97-1.42,3.95-3.54,1.97-2.12,2.16-4.69,1.77-7.14-.39-2.45-2.33-5.12-2.33-5.12l-7.44,7.66h0Zm7.59,2.64c-.2,0-.35.16-.35.35s.16.35.35.35.35-.16.35-.35c0-.19-.16-.35-.35-.35h0Zm-1.69-5.59s-.35.5-.45.78c-.09.28.04.58.3.41s.39-.41.64-.3c.24.11.2.97.6.84.39-.13,1.46-3.23,1.57-3.6.11-.37.06-.62-.21-.6s-2.39,1.2-2.86,1.42c-.47.22-.88.43-.62.69.26.26.99.21.99.21l.04.15h0Zm-.68,2.45c.19,0,.35.16.35.35s-.16.35-.35.35-.35-.16-.35-.35.16-.35.35-.35Z" style="fill: #fff; fill-rule: evenodd; stroke-width: 0px;"/>
    <path d="m61.99,101.73s-.79,4.62-.56,8.08c.1.03.2.06.3.09.56-.56,1.8-1.98,2.04-3.85.19-1.5-.13-3.7-1.78-4.32h0Zm-.87,7.99c-.19-.57-.64-1.64-1.7-2.83-1.52-1.73-3.88-1.33-4.69-4.01-.48.19-.94.17-1.47,0,.02.61.17,2.34,1.34,2.92,1.36.68,3.56.88,5.14,3.64.4.05.85.14,1.37.28h0Zm-6.23-3.41c1.99.4,4.12,2.32,4.59,3.09-1.11-.11-1.73.07-2.02.19-2.91-1.31-2.57-3.28-2.57-3.28Z" style="fill: #ffe100; fill-rule: evenodd; stroke-width: 0px;"/>
    <path d="m56.65,100.14h-1.08s.35.39.28,1.5l.94.41-.14-1.92h0Zm-4.13-.07l-1.53.09-.33,1.83,1.46-.5c.02-.47.13-1.02.39-1.42h0Zm-.22-5.14l-1.82-.75.53,2.35h1.38s-.42-1.27-.09-1.6h0Zm4.42,1.52l-1.07.15s.26-.62.16-1.61l1.38-.67-.48,2.13Z" style="fill: #e60012; fill-rule: evenodd; stroke-width: 0px;"/>
    <path d="m51.7,96.9h.7v1.18h-.65c-.13,0-.23.11-.23.23h0c0,.13.11.23.23.23h.65v1.24h-.7c-.8,0-1.45-.65-1.45-1.45h0c0-.8.65-1.44,1.45-1.44h0Zm3.86,0h.88c.8,0,1.45.65,1.45,1.44h0c0,.8-.65,1.45-1.45,1.45h-.88v-1.24h.43c.13,0,.23-.1.23-.23h0c0-.13-.11-.23-.23-.23h-.43v-1.18h0Zm-.93,2.94c.5.23.86.73.86,1.32,0,.8-.65,1.44-1.45,1.44s-1.45-.65-1.45-1.44c0-.53.29-1,.72-1.25.11-.06.13-.07.24,0,.09.06.19.17.25.37v.59s.47,0,.47,0v-.85c.04-.06.1-.13.17-.17.09-.06.1-.04.19,0h0Zm-.6-5.8c.8,0,1.45.65,1.45,1.44,0,.59-.36,1.1-.88,1.33-.1.04-.1.03-.19-.04-.06-.05-.11-.1-.15-.17v-.91s-.47,0-.47,0v.63c-.03.14-.09.29-.19.4-.12.13-.14.1-.28.02-.44-.25-.74-.72-.74-1.26,0-.8.65-1.44,1.45-1.44h0Zm-.06,2.85l.72.72.72.72-.72.72-.72.72-.72-.72-.72-.72.72-.72.72-.72Z" style="fill: #ffe100; fill-rule: evenodd; stroke-width: 0px;"/>
    <path d="m55.96,113.45l-.05.23s-.15,1.12-.04,2.98c.12,1.86.12,2.09.17,2.64.06.54-.23.66-.52.77s-.66.09-.75-.37c-.09-.46-.29-2.9-.29-4.36,0-1.46.51-3.5.9-4.46.39-.96.76-1.38,1.22-1.35.46.04.68.3.41.83-.28.54-.77,1.5-1.05,3.09Z" style="fill: #ffe100; fill-rule: evenodd; stroke-width: 0px;"/>
    <path d="m50.73,106.87c.34.92,1.17,2.99,2.14,4.59l-2.05,2.15s-.42.15,1.82,2.91c0,0-1.38,2.31-1.77,5.93.65-.41,1.26-.82,1.78-1.18.01-.59.09-1.51.41-2.34.53-1.36.76-1.87.86-2.41.1-.53-.04-1.01-.52-1.56-.48-.55-.82-1.34-.82-1.34,0,0,1.05-.56,1.86-.9.11-.51.22-.94.35-1.32-.39-.43-1.38-1.65-1.77-3.21l-2.29-1.33Z" style="fill: #112343; fill-rule: evenodd; stroke-width: 0px;"/>
    <path d="m54.79,111.41c.39-1.19.8-1.71.8-1.71l-2.57-1.5c.39,1.55,1.38,2.78,1.77,3.21h0Zm-2.14,9.86c1.01-.68,1.69-1.18,1.69-1.18-.42-3.32-.24-5.72.1-7.37-.81.34-1.86.9-1.86.9,0,0,.34.79.82,1.34.48.55.62,1.03.52,1.56-.1.53-.33,1.05-.86,2.41-.32.83-.4,1.75-.41,2.34h0Zm-5.51-16.49l3.59,2.09c.34.92,1.17,2.99,2.14,4.59l-2.05,2.15s-.42.15,1.82,2.91c0,0-1.38,2.31-1.77,5.93-1.17.75-2.45,1.53-3.54,2.06l3.56-7.14.07-.13-.09-.11-2.42-2.97,2.17-2.76.09-.12-.08-.13-3.5-6.13v-.24Z" style="fill: #ffe100; fill-rule: evenodd; stroke-width: 0px;"/>
    <polygon points="47.14 105.95 50.16 111.24 47.97 114.02 47.85 114.16 47.97 114.31 50.41 117.31 47.14 123.86 47.14 105.95" style="fill: #e60012; fill-rule: evenodd; stroke-width: 0px;"/>
    <path d="m68.81,120.68h19.26s12.25,0,12.25,0c-2.8,4.24-4.78,6.44-5.56,7.25h-19.26s-12.25,0-12.25,0c2.8-4.24,4.78-6.44,5.56-7.25Z" style="fill: #fff; fill-rule: evenodd; stroke-width: 0px;"/>
    <path d="m99.47,121.95c-1.48,2.16-2.69,3.69-3.56,4.71h-31.8c1.48-2.16,2.69-3.69,3.56-4.71h31.8Z" style="fill: #112343; fill-rule: evenodd; stroke-width: 0px;"/>
    <path d="m75.99,73.32c-.39.13-.62-.57-.66-.86-.07-.49.55-.91.87-.92.33-.01.41.65.41.9s.08.68-.62.89h0Zm8.51-13.42h-.49c-.14,1.12-.45,1.89-1.04,2.34-.68.51-1.17.54-1.17.54l-.06-.72c.74-.02,1.23-.88,1.38-1.58.05-.24.07-.43.07-.58h-2.47s0,.04,0,.06c.04.41.03.79-.13.76-.12-.02-.53-.58-.98-.82h-.8c-.51.25-1.03.89-1,1.76.04,1.08,1.18,1.67,1.18,1.67-.41.11-1.14,1.1-.7,2.08.43.99,1.39,1.02,1.7.97.31-.05.79-.23.88-1.01.09-.77.09-1.58.09-1.58l.33-.2c.31.32.78,2.14.02,2.78-.76.65-1.3.7-1.97.81-.67.11-.94.38-.96.66-.02.28.18.34.54.66.36.32.56,1.2,0,2.59-.56,1.39-1.71,1.69-1.87,1.67-.16-.02-.12-1.07-.12-1.07.7,0,1.57-.72,1.57-1.59s-.64-1.67-1.77-1.51c-1.13.16-.92,1.08-.97,1.77-.04.68-.22.72-.48.36-.26-.36-.68-.96-1.31-.96s-1.31.58-1.31,1.77c0,1.19,1.1,1.29,1.47,1.29s.28.16.28.16c-.26.12-1.17.94-1.11,1.93.06.99.94,1.27,1.65,1.17.7-.1,1.12-.64,1.19-1.09.06-.44-.06-1.35-.06-1.35l.32-.18c.24.08.45.95.4,1.9-.04.95-1.08,1.46-1.59,1.52-.51.06-1.44.02-1.44.02l-.23.65c.32.3.59.78.68,1.43.05.41.06.82.07,1.06.1.04.2.09.31.13.05-.34.13-.94.13-1.3s-.75-1.38-.75-1.38l.06-.26s2.13.29,2.91-1.03c.39-.69.26-1.85.12-2.5-.12-.57-.11-.59-.11-.59,2.52-.5,2.81-2.92,2.71-3.84s-.82-1.2-.84-1.4c-.02-.2.14-.2.14-.2,0,0,1.11.12,2.31-.72,1.2-.84.8-2.41.67-2.86-.13-.44-.39-.69-.16-.87.24-.18.51-.17.93-.36.42-.19.74-.54.74-.54.62-.66.92-1.83,1.04-2.45h0Zm-3.16,2.46c.09.5.12.97-.61,1.2,0,0-.2-.04-.46-.38-.74-.95.9-1.75,1.07-.82Z" style="fill: #112343; fill-rule: evenodd; stroke-width: 0px;"/>
    <path d="m64.04,128.62c-1.53.39-2.69,2.33-2.69,4.66,0,.58.07,1.13.2,1.64l-4.32,20.3-3.22-2.8c-.01-.52-.04-1.37-.08-2.01-.05-.9-.96-2.04-1.95-2.22,1.07-.24,1.88-1.22,1.88-2.4s-.68-2-1.61-2.32v-.69s1.41-.39,1.24-2.46c-.15-1.79-.88-8.84-1.08-10.74l6.51,4.87,3.84-5.82h1.3Zm-14.25,20.13l-2.66-2.31v-20.82s2.95,2.21,2.95,2.21c-.16,2.16-.8,10.67-.95,12.47-.18,2.07,1.24,2.46,1.24,2.46v.85c-.74.41-1.25,1.23-1.25,2.16,0,1.22.87,2.23,1.99,2.42-.47.08-.89.26-1.31.55Z" style="fill: #e60012; fill-rule: evenodd; stroke-width: 0px;"/>
    <path d="m91.79,157.34s0,0,0,0l-23.96-24.5c-.13-2.13-1.25-3.86-2.68-4.22h8.21s10.99,11.48,10.99,11.48h3.55c.3,2.53,1.44,4.94,1.44,4.94,2.54,4.59,5.38,7.08,6.27,7.79-1.33,1.42-2.6,2.94-3.83,4.52Z" style="fill: #e60012; fill-rule: evenodd; stroke-width: 0px;"/>
    <ellipse cx="64.6" cy="133.27" rx="3.25" ry="4.73" style="fill: #112343; stroke-width: 0px;"/>
    <path d="m61.66,188.72c-.24-.35-.61-.8-1.15-1.11,0,.47-.01.85-.02,1.11h1.17Zm-1.07-5.34c0-.34.01-.68.02-1.03,4.28,1.76,5.03,5.26,5.17,6.37h-.67c-.19-.99-1.02-3.6-4.51-5.34h0Zm-.03,1.53c0-.35.01-.71.02-1.09,3.02,1.23,3.99,3.91,4.26,4.9h-.72c-.2-.88-.95-3.07-3.55-3.81h0Zm-.02,1.04c0-.21,0-.43.01-.65,2.22.63,2.96,2.58,3.18,3.43h-.56c-.81-1.7-1.86-2.45-2.62-2.77h0Zm-.02,1.25c0-.24,0-.51.01-.79,1.24.48,1.89,1.61,2.19,2.31h-.69c-.41-.83-1-1.28-1.52-1.52h0Zm5.5,1.52h.73c.26-1.28,1.28-4.45,5.02-5.18.13-.27.26-.55.39-.84-.51.03-1.73.19-2.98,1.1-1.56,1.13-2.92,3.17-3.16,4.93h0Zm1.02,0c.29-1.26,1.16-2.75,2.26-3.65.83-.69,1.75-.99,2.28-1.12-.19.41-.37.8-.54,1.17-2.36.99-3,2.87-3.16,3.61h-.84Zm1.2,0c.67-2.1,2-2.91,2.6-3.17-.26.56-.49,1.07-.69,1.52-.73.58-1.09,1.23-1.25,1.65h-.66Zm3.58-12.66l.23.1c.08.05.33.3.17.47-.17.16-.56,0-.6-.2-.05-.19,0-.34.21-.37h0Zm-3.1-6.17l-.46.49s-.11.12-.08.35c.03.23.2.34.32.34s.93-.61.94-1.32c.02-.71-.29-1.7-1.31-1.77-1.02-.06-.8.28-1.48.35-.68.08-.91.35-.94.72-.03.37.34.69.68.74.34.05.71-.28,1.57-.69.86-.41.91.58.76.78h0Zm-.55-5.65l-.07.14s-.51-.02-.72-.26c-.22-.24-1.03-.02-1.39.1-.36.12-.79.34-.96.31-.17-.02-.31-.19-.1-.38.22-.19.41-.38.41-.38l-.53-.48s.19.02.6.17c.41.14,1.03.1,1.54-.22.5-.31.58-.34.89-.41.31-.07.36.12.27.29-.1.17-.46.29-.67.36-.22.07.74.5.74.77h0Zm1.09,14.23l-.23.08s.21.7,1.13.8c.92.1,2.89-.91,4.01-2.06,0,0,.86-.71.86-1.05,0-.34-.27-.4-.8-.29-.54.11-1.13.08-1.49-.11-.36-.19-.73-.59-1.74-.61-1.02-.02-2.07,0-2.07,0,0,0,1.63-1.56,1.84-1.73.21-.17.13-.4-.35-.34-.48.06-1.02.69-1.55,1.28-.54.59-.92,1.52-.94,1.83-.02.31.23.29.34.73.11.44.02.86-.54,1.35,0,0-.08.21.1.21s.4-.17.75-.36c.34-.19.63-.19,1.25-.21.61-.02.59,0,1.15-.04.56-.04.69-.04,1.21-.34,0,0,.25-.13.25.12s-.52.74-1.24.88c-.73.13-1.44,0-1.92-.11h0Zm-.29-1.83c-.32.01-.33-.09-.33-.3s.21-.36.38-.33c.14.02.23.52-.05.63h0Zm-4.72,1.13l.36-.15s-.21,1.08-1.55,1.05c-1.23-.02-2.08-.38-2.34-1.05,0-.05,0-.09,0-.14.18.11.79.45,1.45.45.79,0,1.36.13,2.08-.17h0Zm.23-1.43c.04-.23-.19-.41-.35-.38-.15.03-.33.38-.2.61.16.29.51,0,.55-.22h0Zm-.89.15l-.11.17s-.55-.59-.83-.55c-.28.04-.78.7-.78.7,0,0-.17-.34.08-.74.26-.4.42-.42.74-.42s.83.36.89.84h0Zm5.32-10.34l.22.14s.31-.07.34-.34c.02-.26-.02-.86.14-1.06.17-.19.02-.41-.24-.36-.26.05-.46.17-.89.34-.43.17-.94.31-1.32,0-.39-.31-.91-.26-1.2-.22-.29.05-.67.34-.89.46-.22.12-.79.14-.91.02-.12-.12-.36.05-.36.29s.12,1.11.24,1.15c.12.05.1-.02.58-.17.48-.14.96.02.96.02,0,0,.38-.31.55-.36.17-.05.67.02.89.26.22.24.77-.34,1.15-.34s.6.02.75.14h0Zm-7.86,10.55l.19.08s.19-.55.15-.65c-.04-.11-.34.06-.34.57h0Zm5.78,2.39c.23,0,.33.25.73.5.4.25,1.65.44,3.37.32,1.72-.11,1.44-.4,1.95-.53.52-.13.82.23.15.78-.67.55-3.03,1.43-4.46.9-1.44-.53-1.97-1.74-1.97-1.74l.23-.23h0Zm4.17-2.21c-.03-.63-.36-.84-.74-.76-.38.07-.6.65-.66.46-.06-.18.11-.69.36-.73.26-.05.65-.15,1.01.21.36.36.38.85.38.85l-.35-.03h0Zm-5.22,10.46l.09.26s1.81-4.94,6.53-5.4c1.54-3.27,3.51-7.37,5.65-11.56-.45-1.41-2.19-6.08-5.9-8.04-4.4-2.32-7.35-2.41-8.74.19-1.39,2.61-2.01,4.67-2.27,6.31-.11.68-.23,3-.34,5.48-.01.41-.03.84-.04,1.28.33-.54,1.11-.7,1.77-.69.71.02,1.62.22,1.62.22-.1-.57-.87-1.13-1.09-1.37-.22-.24-.11-.36-.11-.36.43-.04,1.07.53,1.29.82.22.3.27.2.27.2.04-.48-.06-1.65-.39-2.59-.33-.95-.38-1.7-.35-2.17.03-.47.49-.97.91-1.21.42-.24.67-.37.99-.82.32-.45.32-.24.32-.24.03.45-.18,1.04-.59,1.48-.4.44-.89.73-.95,1.05-.06.32.19,1.22.19,1.22.39,1.33,1.31,4.26.44,6.81-.87,2.55-2.44,2.64-3.11,2.66-.44.01-.99-.25-1.31-.43-.01.49-.02.98-.03,1.46.61.26,4.05,1.86,5.15,5.45h0Zm-2.92-8.2c-1.18.05-1.91-.42-2.15-.61,0,.15,0,.3-.01.46.23.56.88.76,1.55.81.85.06,1.23-.7,1.23-.7l-.62.04Z" style="fill: #fff; fill-rule: evenodd; stroke-width: 0px;"/>
    <path d="m78.01,188.72h14.84c-.49-2.41-2.32-12.57,0-19.02,0,0-2.21-.46-4.91-1.75l-9.93,20.77Z" style="fill: #ffe100; fill-rule: evenodd; stroke-width: 0px;"/>
    <path d="m74.86,188.72c1.1-2.92,4.88-12.45,10.66-22.11.65.41,1.3.78,1.93,1.1.01,0,.02.01.04.02l-10.04,20.99h-2.58Z" style="fill: #e60012; fill-rule: evenodd; stroke-width: 0px;"/>
    <path d="m62.34,131.2l3.02-.89,26.43,27.03c-9.3,12-15.47,27.51-16.93,31.38h-5.47c1.3-2.91,8.74-19.34,15.25-30.14l-19.53-20.34-4.51,20.84-3.55-3,5.29-24.88Z" style="fill: #112343; fill-rule: evenodd; stroke-width: 0px;"/>
    <path d="m83.32,155.71l.17.03s-.11-1.51-.03-2.29c.08-.78.42-1.04.88-1.35.45-.31.27-1.48-.31-1.57-.58-.09-1.3.45-1.36,2.02-.06,1.57.12,2.88.66,3.16h0Zm-3.93-4.38l.28.19s-.19-1.36-.11-2.23c.07-.86.24-.97.64-1.23.39-.26.47-1.14-.15-1.4-.62-.26-1.35.28-1.41,1.57-.06,1.29.19,2.52.75,3.1h0Zm-3.63-3.58l.14.19s-.14-1.53-.1-2.21c.04-.68.17-.93.74-1.14.56-.21.46-1.37-.27-1.53-.74-.15-1.43.7-1.24,2.32.19,1.63.74,2.36.74,2.36h0Zm-3.64-3.55l.27.17s-.11-1.47-.11-2.18c0-.71.21-1.01.61-1.17.39-.15.65-.56.24-1.1-.41-.55-1.44-.27-1.54.88-.11,1.15-.11,2.97.53,3.4h0Zm-3.25-3.8l.37.18s-.37-.81-.37-1.53c0-.72.04-1.48.6-2.04.57-.56.34-1.2-.3-1.25-.64-.05-.99.98-1.01,2.13-.02,1.14.05,2,.71,2.51h0Zm-9.29,16.17s.04-.66-.16-.99c-.24-.38-1.03-.56-1.03.13,0,.37.85.8,1.2.86h0Zm1.23-3.93s-.38-.89-.65-1.24c-.27-.36-.37-.57-.37-.8s.19-.43.42-.46c.77-.1.98,2.07.6,2.5h0Zm.99-4.17l-.09.09s-.19-1.25-.66-1.8c-.47-.55-.43-.72-.24-.86.19-.13.94.14,1.12,1.02.18.87-.07,1.44-.13,1.55h0Zm1.08-4.81s-.07-1.02-.54-1.31c-.47-.29-.61-.87-.24-1.05.95-.47,1.3,1.75.78,2.36h0Zm21.69,13.2c-.59-.25-.88-1.62-.83-2.2.08-.88.59-1.21.94-1.05.36.16.41.81.23,1-.18.19-.41.41-.44.82-.03.4.1,1.43.1,1.43h0Zm-3.79-3.86c-.54-.28-.96-1.36-.96-2.24s.47-1.36.96-1.31c.49.06.69.8.36,1.06-.34.26-.47.54-.43,1.07.04.52.3,1.49.3,1.49l-.23-.07h0Zm-3.94-3.99c-.66-.35-.68-1.28-.68-2.19,0-.91.39-1.32.7-1.26.31.06.48.23.35.7-.13.46-.35.48-.41,1.12-.06.64.19,1.66.19,1.66l-.15-.04h0Zm-3.29-3.64c-.56-.46-.76-1.09-.83-1.88-.08-.89.33-1.36.64-1.37.31-.02.66.72.45,1.03-.21.31-.31.31-.35.77-.04.46.1,1.45.1,1.45h0Zm-3.53-3.45c-.54-.38-.67-1.32-.67-2.06,0-.74.23-1.23.62-1.21.39.01.55.7.29.92-.26.23-.21.63-.2,1.06.01.42.15,1.33.15,1.33l-.2-.05h0Zm-5.38-4.24c-1.55,0-2.81-1.93-2.81-4.29,0-2.36,1.26-4.29,2.81-4.29s2.81,1.93,2.81,4.29-1.26,4.29-2.81,4.29h0Zm-.03-1.11c1.16,0,2.06-1.51,2.01-3.35-.05-1.85-1.03-3.35-2.19-3.35-1.16,0-2.06,1.51-2.01,3.35.05,1.85,1.03,3.35,2.19,3.35h0Zm0-3.03c-.32.37-.44.98-.47,1.26-.09.79.42,1.1.64,1.11.22.01.7-.21.71-.96.01-.74-.88-1.42-.88-1.42h0Zm-1.05.44c.32,0,.58-.26.58-.58,0-.32-.26-.58-.58-.58s-.58.26-.58.58.26.58.58.58h0Zm1.93-.32c.32,0,.58-.26.58-.58,0-.32-.26-.58-.58-.58s-.58.26-.58.58.26.58.58.58h0Zm-1.06-.74c.32-.37.44-.98.47-1.26.09-.79-.42-1.1-.64-1.11-.22,0-.7.21-.71.96-.01.74.88,1.42.88,1.42h0Zm-3.94,22.08c.25-.12.25-1.4.04-2.28-.21-.88-.64-1.71-1.18-1.68-.54.02-.83.35-.85.68-.02.33.04.72.43.78.39.06.66.12.95.72.29.6.45,1.81.45,1.81l.15-.02h0Zm1.1-4.8c.27-.68-.29-3.67-1.28-3.72-.43-.02-.84.27-.82.65.02.38.33.84.54.85.21,0,.57,0,.9.46.33.45.65,1.76.65,1.76h0Zm1-4.82c.45-2.23-1-3.3-1.29-3.25-.29.05-.63.2-.62.73.02.52.34.42.94.94.6.53.85,1.69.85,1.69l.11-.11h0Zm1.15-5.07c.11-.98-.12-2.5-.7-2.95-.58-.45-1.27-.21-1.41.17-.14.38-.11.8.3,1.03.4.22.58,0,1.03.29.45.29.67,1.75.67,1.75l.1-.28h0Zm21.65,17.28c-.21,0-.51-.46-.57-1.14-.06-.67.08-1.35.54-1.63.46-.28.77.24.73.6-.04.36-.45.53-.51.87-.03.19.13,1.3-.19,1.3h0Zm-3.51-3.43l.23.08s-.23-1.01-.16-1.51c.08-.5.13-.76.31-1.03.19-.26,0-.93-.41-.89-.41.05-.81.31-.72,1.27.09.96.2,1.59.73,2.07h0Zm-3.41-3.76c-.8-.17-1.18-1.33-1.24-2.22-.06-.77.17-1.31.75-1.38.58-.07.64.52.43.86-.21.34-.3.32-.3,1.03s.36,1.72.36,1.72h0Zm-3.81-3.63c-.7-.41-.83-1.12-.85-2.03-.02-.91.37-1.24.74-1.24s.41.56.27.77c-.14.21-.21.46-.21,1.1,0,.64.33,1.43.33,1.43l-.27-.04h0Zm-3.52-3.68c-.64-.48-.82-1.79-.8-2.51.01-.54.24-.77.62-.76.38.01.55.26.51.51-.03.26-.26.39-.3.73-.05.33-.03,2.03-.03,2.03h0Zm-3.43-3.75h.18s-.27-.97-.23-1.55c.04-.58.13-.67.25-.97.12-.3-.12-.63-.41-.63s-1.06.56-.74,1.6c.32,1.04.57,1.25.95,1.55h0Zm-7.55,16.46l-.1.44s-.13-.78-.66-1.08c-.53-.3-.68-.35-.69-.66-.01-.31.19-.58.56-.59.37-.01,1.02.52.9,1.89h0Zm1.14-4.77c0-1.87-.58-2.17-.88-2.15-.31.02-.36.24-.29.47.06.23.4.43.64.77.24.34.52,1.17.52,1.17l.02-.25h0Zm.88-4.03c.58-.41.08-2.38-.63-2.37-.51,0-.59.47-.56.64s.28.23.63.63c.35.4.56,1.1.56,1.1h0Zm1.26-5.11c.16-1.65-.48-2.29-.93-2.34-.45-.05-.65.18-.57.58.08.4.62.57.93.93.31.36.48,1.14.48,1.14l.09-.31h0Zm23.8,14.69c-.1-.22-.33-.51-.57-.47-.24.04-.51.29-.57.53-.06.24.18.51.59.45.41-.06.77-.14.55-.51Z" style="fill: #ffe100; fill-rule: evenodd; stroke-width: 0px;"/>
    <path d="m78.53,169.68l-1.09-6.06-.73-.17.74,4.66c.31.6.61,1.26.89,1.96.07-.13.13-.26.2-.39h0Zm.92-1.77c-.17.32-.33.64-.5.96l-.92-5.12.65.15.77,4.01h0Zm1.19-2.24l-.47-1.42-.89-.21.59,3.08c.26-.49.51-.97.77-1.45h0Zm.63-1.17l-.46-.11.2.6c.09-.17.18-.33.27-.49h0Zm-5.14-1.2l-.66-.15.38,2.41c.28.37.55.76.82,1.19l-.55-3.45h0Zm-1.24-.29l-.7-.16.15.97c.26.26.53.55.81.88l-.27-1.68h0Zm-1.29-.3l-.71-.16c.22.17.49.38.78.64l-.08-.48Z" style="fill: #fff; fill-rule: evenodd; stroke-width: 0px;"/>
    <path d="m65.68,142.04l13.28,13.57s-9.33-1.65-15.74-.44l2.46-13.13h0Zm9.16,11.48l.2-.36-8.6-8.71-.32.12-1.24,8.95h9.96Zm-9.29-.43h1.26s1.45-1.29,1.45-1.29l.11-.1.14.06,3.12,1.33h2.01s-5.46-2.34-5.46-2.34l-2.62,2.34h0Zm1.95,0h2.94s-1.99-.85-1.99-.85l-.95.85h0Zm6.63-.29l-1.66-1.7-4.59-1.96-2.38,2.12-.22,1.45,2.68-2.4.11-.1.14.06,5.91,2.53h0Zm-2.5-2.56l-1.3-1.33-2.64-1.13-1.93,1.73-.16,1.04,2.07-1.85.11-.1.14.06,3.7,1.58h0Zm-2.14-2.19l-1.08-1.11-1.13-.48-1.22,1.09-.19,1.25,1.62-1.45.11-.1.14.06,1.75.75h0Zm-1.92-1.98l-1.11-1.14-.28,1.89.91-.81.11-.1.14.06.24.1h0Zm-1.42-4.06c-.46-.56-.76-.86-.89-.24-.14.62-2.26,12.62-2.36,13.12-.1.5.1.63.38.6.28-.03,2.05-.25,6.58-.33,4.53-.08,9.51,1.05,9.74,1.1.23.05.49-.05.25-.35-.24-.3-1.52-1.57-1.52-1.57l-12.18-12.34h0Zm-5.03,14.68c11.37-2.33,20.94.82,23.39,1.75l-19.4-20.2-3.99,18.46Z" style="fill: #ffe100; fill-rule: evenodd; stroke-width: 0px;"/>
    <path d="m82.59,162.1c-2.43-.93-10.36-3.5-19.41-1.72l-2.41-2.09.26-1.18c2.21-.45,5.64-.97,9.38-.88,5.45.14,10.85,1.19,14.04,2.67-.61,1.03-1.24,2.1-1.86,3.21h0Zm-.2.35c-1.79-.71-9.62-3.49-18.85-1.76l.61.53c2.34-1.74,6,.03,6,.03,5.55,0,10.54,1.78,11.68,2.22.19-.34.38-.68.57-1.02Z" style="fill: #ffe100; fill-rule: evenodd; stroke-width: 0px;"/>
    <path d="m49.18,173.42l2.09,3.75,2.01-3.6-1.86-4.08-2.24,3.93h0Zm.76-.08l1.4-2.16,1.2,2.28-1.35,2.05-1.25-2.18Z" style="fill: #ffe100; fill-rule: evenodd; stroke-width: 0px;"/>
    <polygon points="50.4 173.29 51.14 174.74 52.11 173.42 51.29 171.97 50.4 173.29" style="fill: #e60012; fill-rule: evenodd; stroke-width: 0px;"/>
    <path d="m53.19,169.75c-.75,0-1.36-.66-1.36-1.47s.61-1.47,1.36-1.47,1.36.66,1.36,1.47-.61,1.47-1.36,1.47h0Zm-3.41-.1c-.75,0-1.36-.66-1.36-1.47s.61-1.47,1.36-1.47,1.36.66,1.36,1.47-.61,1.47-1.36,1.47Z" style="fill: #ffe100; fill-rule: evenodd; stroke-width: 0px;"/>
    <path d="m51.04,161.24s-.67-6.82-.73-7.88c-.01-.18-.03-.36-.05-.56-.15-1.39-.39-3.58,1.52-3.84.14-.02.28-.04.31.24.04.27-.1.29-.24.31-1.37.19-1.17,2.06-1.04,3.24.03.23.05.44.06.59.07,1.18.72,7.84.73,7.86.01.14.03.28-.25.3-.28.03-.29-.11-.3-.25h0Zm.5,5.5s1.7-12.48,2.01-14.7c.31-2.22-.67-3.46-1.7-3.46s-2.19.09-2.23,2.89c-.04,2.75,1.57,13.27,1.92,15.28Z" style="fill: #ffe100; stroke-width: 0px;"/>
    <path d="m73.9,128.62h.34s1.12,0,1.12,0l3.55,3.7,6.01,6.27h1.9s1.03,0,1.03,0c-.01.27,0,.54,0,.82,0,.08,0,.15.01.23h-3.41s-10.56-11.03-10.56-11.03h0Zm2.95,0l2.55,2.69,5.42,5.71.4.42h.13s1.78,0,1.78,0h.83c.03-.23.07-.45.12-.66.04-.2.09-.4.14-.6h-.89s-1.72,0-1.72,0l-6.44-6.53-1.02-1.03h-.27s-1.03,0-1.03,0h0Zm1.85,0l3.4,3.38,3.69,3.66h.89s1.69,0,1.69,0c.02-.05.03-.1.05-.15.06-.17.12-.33.19-.5.03-.09.07-.17.11-.26h-.45s-.83,0-.83,0h-1.23s-3.55-3.71-3.55-3.71l-1.94-2.03-.38-.39h-.14s-.67,0-.67,0h-.83Zm3.1,0l4.25,4.44.51.53h.19s1.68,0,1.68,0h.91c.1-.15.2-.31.31-.46.04-.05.08-.1.12-.16h-.31s-1.81,0-1.81,0h-.53s-1.77-1.83-1.77-1.83l-2.45-2.52h-.74s-.37,0-.37,0Z" style="fill: #ffe100; fill-rule: evenodd; stroke-width: 0px;"/>
    <path d="m73.36,128.62h.53s10.56,11.03,10.56,11.03h3.41c0,.11.02.23.03.34,0,.04,0,.08.01.12h-3.55s-10.99-11.48-10.99-11.48h0Zm1.99,0l3.55,3.7,6.01,6.27h1.9s1.03,0,1.03,0c0-.15.02-.3.04-.45,0-.04,0-.07.01-.11.02-.2.05-.4.08-.59h-.83s-1.78,0-1.78,0h-.13l-.4-.42-5.42-5.71-2.55-2.69h-.84s-.66,0-.66,0h0Zm2.8,0l1.02,1.03,6.44,6.53h1.72s.89,0,.89,0c.05-.18.1-.35.15-.52h-1.69s-.89,0-.89,0l-3.69-3.66-3.4-3.38h-.55Zm2.19,0l.38.39,1.94,2.03,3.55,3.71h1.23s.83,0,.83,0h.45c.1-.22.21-.45.33-.67.09-.16.19-.33.29-.49h-.91s-1.68,0-1.68,0h-.19s-.51-.53-.51-.53l-4.25-4.44h-1.46Z" style="fill: #112343; fill-rule: evenodd; stroke-width: 0px;"/>
    <path d="m91.02,152.63c-.04-.25.1-.77.79-.83.7-.06,1.72.58,1.88,1.73.15,1.15-.77,2.27-1.95,2.44-1.18.17-2.01-.77-2.63-2.42-.62-1.66-.63-3.46-1-5.6-.37-2.13-.9-3.86-2.11-4.86-1.21-1-3.48-.07-3.58,1.57-.1,1.63.5,2.46,1.47,2.63.97.17,1.54-.4,1.67-2.13,0,0,.84.2.77,1.27-.07,1.07-.84,1.73-.84,1.73,0,0,2.34,1.1,2.64,2.5.3,1.4-.33,2.03-.7,2-.37-.03-.47-.4-.37-1.03.1-.63,0-1.4-1.17-2.07-1.17-.67-2.54-.97-3.48-1.97-.94-1-.97-2.4-.1-4.66,0,0-1.61.08-2.96,0,0,0-2.81-.46-3.14-2.29-.34-1.83-.23-4.29-.34-5.61-.11-1.32-.66-2.55-2.02-2.81-1.36-.26-2.26.66-2.49,1.55-.23.89.53,2.01,1.13,2.02.6.01.99-.19,1.42-.92,0,0,.19.3.1.83-.09.53-.82,1.05-1.68.92-.86-.13-2.45-1.2-1.51-3.72,0,0-1.47.07-2.15-.32-.69-.39-1.03-.94-.94-2.06.09-1.12,1.03-1.65,1.63-1.67.6-.02,1.05.43,1.17.98.11.55-.48.5-.64.16-.16-.34-.64-.57-1.1-.23-.46.34-.53,1.33,0,1.76.53.44,1.35.55,2.18.39.82-.16,1.17-.57,1.97-.66.8-.09,4.29-.29,4.27,5.53,0,0,1.02-.78,1.88-.66.87.12,1.83.96,1.85,2.29s-1.16,1.86-1.36,1.86-.32-.27-.28-.41c.04-.14.79-.57.73-1.61-.06-1.04-.73-1.31-1.4-1.28-.67.04-1.6.71-1.66,1.85-.06,1.14.33,2.12,1.47,2.81,1.14.69,2.99.49,4.98.22,1.99-.27,3.81.13,5.1,4,1.3,3.87.99,6.72,1.36,7.79.37,1.08,1.08,1.5,1.64,1.48.56-.02,1.01-.42,1.18-1.17.36-1.54-1.61-.84-1.68-1.35h0Zm-.16-1.71c.36,0,.65-.29.65-.64s-.29-.64-.65-.64-.65.29-.65.64.29.64.65.64h0Zm-8.64-9.71c.35,0,.64-.28.64-.63,0-.35-.29-.63-.64-.63s-.64.28-.64.63.29.63.64.63h0Zm-1.77,4.27c.35,0,.64-.28.64-.63s-.29-.63-.64-.63-.64.28-.64.63.29.63.64.63h0Zm-6.32-6.81c.35,0,.64-.28.64-.63s-.29-.63-.64-.63-.64.28-.64.63.29.63.64.63Z" style="fill: #fff; fill-rule: evenodd; stroke-width: 0px;"/>
    <path d="m54.93,153.21c.35-.23,1.16-.87,1.98-2.12,1.07-1.65,1.08-3.56.63-5.32-.46-1.76-.75-2.98-.16-3.44.59-.45.91-.05,1.15-.21.24-.16.03-1.04-.64-1.04s-1.31.85-1.31,1.39c0,0-.42-2.07-.34-3.37.08-1.31.72-2.02,1.63-2.2.92-.18,1.23.85,1.05,1.31-.18.46-.38.71-.4.83-.02.12.1.35.56.3.46-.06.86-.67.72-1.92-.14-1.25-1.23-1.56-1.85-1.54-.62.02-.92.36-.92.36,0,0-.06-.06-.04-.46.02-.4.08-1-.38-1.68-.46-.68-1.56-.64-1.85-.27-.29.37,1.17.58,1.13,1.47-.04.89-.13,1.74-.56,3.34-.44,1.6.19,3.86,1.14,6.87,0,0-1.23-.11-1.76.29-.53.39-.85,1.49-.02,1.53,0,0,.11-.71.9-.86.79-.15,1.15.47,1.24,1.83.09,1.34-.91,3.36-2.68,4.24l.79.69Z" style="fill: #fff; fill-rule: evenodd; stroke-width: 0px;"/>
    <path d="m51.49,147.83c-1.02,0-1.84-.91-1.84-2.03s.82-2.02,1.84-2.02,1.84.91,1.84,2.02-.82,2.03-1.84,2.03Z" style="fill: #ffe100; fill-rule: evenodd; stroke-width: 0px;"/>
    <path d="m51.08,147.37l.27.1c-1.17-.82-.51-2.2.78-2.86,0,0-.59-.17-1.1-.07-.51.1-1.02.9-1.02,1.43,0,.53.29.97,1.07,1.41Z" style="fill: #d09515; fill-rule: evenodd; stroke-width: 0px;"/>
    <path d="m51.93,129.2c.19,2.13.78,8.62.93,10.01.17,1.67.2,3.32-1.59,3.39,0,0-1.69-.07-1.69-1.46,0-1.23.65-10.94.8-13.11l1.55,1.16Z" style="fill: #ffe100; fill-rule: evenodd; stroke-width: 0px;"/>
    <path d="m51.18,128.64c-.06,1.13-.28,5.25-.46,7.47-.21,2.59-.32,5.24.33,5.68,0,0,.28.29.11.43-.18.13-.93-.06-1.05-.85-.12-.79.51-7.05.48-7.73-.02-.57.23-4.15.3-5.23l.3.23Z" style="fill: #d09515; fill-rule: evenodd; stroke-width: 0px;"/>
    <path d="m97.18,151.22c-.5-.44-1.96-1.75-3.39-3.46-1.76-2.1-2.89-3.3-3.8-6.23-.91-2.93-.08-5.94,1.08-7.63,1.16-1.69,3.17-3.18,4.36-4.2,1.19-1.02,3.68-4.01,5.49-6.76,1.82-2.75,4.14-6.23,4.14-6.23l9.8,7.67,1.6-.83-11.71-8.96c-2.23,3.3-5.34,8.2-7.05,10.36-1.51,1.91-2.92,3.63-4.93,5.23-1.4,1.25-2.15,2.2-2.15,2.2-2.28,2.71-2.45,5.72-2.28,7.51.17,1.79.77,4.56,2.76,7.39,1.75,2.49,4.18,4.78,4.75,5.3.44-.46.88-.92,1.33-1.36Z" style="fill: #ffe100; fill-rule: evenodd; stroke-width: 0px;"/>
    <path d="m95.97,134.83l-2.49,1.25s-.48.27-.62.27-.33-.26-.14-.89c.19-.63,1.41-3.74,1.63-3.79.22-.05.7,1.05.7,1.05,0,0,.41-.41.76-.46.34-.05.51.53-.05,1.06,0,0-.14.31.28.31s1.03.07,1.03.33c0,.26-.02.38-1.1.88h0Zm3.32-4.2c-.2,0-.35-.17-.34-.36,0-.19.17-.35.37-.34.19,0,.35.17.34.36,0,.19-.17.35-.36.34h0Zm-1.37-1.55c-.2,0-.35-.17-.34-.36,0-.19.17-.35.37-.34.19,0,.35.17.34.36,0,.19-.17.35-.36.34h0Zm2.52.1c1.15-.47,2.1-.87,2.11-1.14,0-.28-.52-.42-.95-.43-.43-.01-.34-.34-.26-.54.08-.2.14-.6-.08-.76-.22-.16-.62.28-.84.28-.23,0-.4-1.02-.57-1-.18.02-.34.29-.44,1.07-.1.78-1.09,2.38-1.25,2.83-.17.45-.17.57.13.56.3-.02,1.13-.39,1.13-.39l1.02-.47h0Zm-9.33,13.29c-.2,0-.35-.16-.35-.35s.16-.35.35-.35.35.16.35.35c0,.19-.16.35-.35.35h0Zm13.37-18.37c-.2,0-.36-.15-.37-.35,0-.2.15-.36.35-.37.2,0,.36.15.37.35,0,.2-.15.36-.35.37h0Zm-1.49-1.48c-.2,0-.36-.15-.37-.34,0-.2.15-.36.35-.37.2,0,.36.15.37.34,0,.2-.15.36-.35.37h0Zm2.57-.06c1.14-.55,2.07-1.02,2.06-1.3-.01-.28-.55-.39-.99-.38-.44.02-.37-.32-.3-.53.07-.21.11-.62-.13-.76-.24-.14-.61.33-.84.34-.23,0-.47-1.01-.65-.98-.18.03-.32.32-.37,1.11-.05.8-.94,2.48-1.08,2.95-.14.46-.13.59.17.56.31-.04,1.11-.47,1.11-.47l1.01-.54h0Zm-9.52,17.57c-.2,0-.35-.16-.35-.35s.16-.35.35-.35.35.16.35.35c0,.19-.16.35-.35.35h0Zm7-4.06l-.14-.06s-1.2-.84-2.28-.91c-1.08-.07-1.39.31-1.39.74s.36,1.43,1.99,2.22c1.63.79,3.79.89,4.42.74,0,0,1.1-.93,1.57-3.88.47-2.95-.1-5.68-.1-5.68,0,0-3.61-.12-4.51-.12,0,0-.92,0-1.02.57-.1.57.13.89.68,1,.55.12,1.98.37,2.42.56.44.2.04.6-.29.46-.33-.14-1.67-.52-2.62-.61-.95-.09-1.64.19-1.68,1.09,0,0,1.86.22,2.85.47.99.25.93.48.93.64,0,.16-.21.22-.73.01-.52-.21-1.81-.55-2.48-.56-.66-.01-1.34.1-1.37,1-.03.9.48.89,1.06.9.58.01,2.14.24,3.01.98,0,0,.16.18-.01.38-.17.2-.31.04-.31.04h0Zm-10.51,7.8c-.19,0-.35-.16-.35-.35,0-.19.16-.35.35-.35s.35.16.35.35c0,.19-.16.35-.35.35h0Zm1.37-7.06c.19,0,.35-.16.35-.35,0-.19-.16-.35-.35-.35s-.35.16-.35.35.16.35.35.35h0Zm4.09-.19c.09-.55.27-1.06-.03-1.06s-.75.34-.75.34c-.46-.77-.62-1.01-.84-.34s-1.29,2.95-1.44,3.47c-.15.51.09.58.24.53.15-.05,1.15-.55,2.16-1.06,1.01-.51,1.73-.75,1.73-1.15s-1.13-.4-1.13-.4l.07-.33h0Zm9.95-9.21c-.2,0-.36-.16-.36-.36s.16-.36.36-.36.36.16.36.36-.16.36-.36.36h0Zm-1.44-1.53c-.2,0-.36-.16-.36-.36s.16-.36.36-.36.36.16.36.36c0,.2-.16.36-.36.36h0Zm2.57.03l-1.03.51s-.82.41-1.13.43c-.31.03-.31-.1-.15-.56s1.1-2.12,1.18-2.91c.08-.79.23-1.07.41-1.1.18-.03.39,1,.62,1s.62-.46.85-.31c.23.15.18.56.1.77-.08.2-.15.54.28.54s.98.13.98.41c0,.28-.95.71-2.1,1.23h0Zm-9.09,12.07c-.48-.55-1.02-1.02-1.25-1.91-.17-.64.48-1.22.48-1.22,0,0-.36-.45-.34-1.22.02-.76.84-1.29.84-1.29-.53-1.5,1.53-1.69,1.53-1.69-.42-2.11,1.1-2.04,2.69-2.04,1.59,0,3.25.18,3.25.18.18-.91,1.94-.63,1.94-.63l5.41-3.55-9.44-7.28s-3.58,5.52-4.92,7.36c-1.35,1.84-3.16,4.12-4.24,5.15-1.09,1.03-1.97,1.42-3.95,3.54-1.97,2.12-2.16,4.69-1.77,7.14.39,2.45,2.33,5.12,2.33,5.12l7.45-7.66h0Zm-7.59-2.64c.2,0,.35-.16.35-.35,0-.19-.16-.35-.35-.35s-.35.16-.35.35.16.35.35.35h0Zm1.69,5.59s.36-.5.45-.78c.09-.28-.04-.58-.3-.41-.26.17-.39.41-.63.3-.24-.11-.21-.97-.6-.84-.39.13-1.46,3.23-1.57,3.6-.11.37-.06.62.21.6.26-.02,2.39-1.2,2.86-1.42.47-.22.88-.43.62-.69-.26-.26-.99-.21-.99-.21l-.04-.15h0Zm.68-2.45c-.19,0-.35-.16-.35-.35s.16-.35.35-.35.35.16.35.35c0,.19-.16.35-.35.35Z" style="fill: #fff; fill-rule: evenodd; stroke-width: 0px;"/>
    <path d="m101.58,146.89s.79-4.62.56-8.08c-.1-.03-.2-.06-.3-.09-.56.56-1.8,1.98-2.04,3.85-.19,1.5.13,3.7,1.78,4.32h0Zm.87-7.99c.19.57.64,1.64,1.7,2.83,1.52,1.73,3.88,1.33,4.69,4.01.48-.19.94-.17,1.47,0-.02-.61-.17-2.34-1.34-2.93-1.36-.68-3.56-.88-5.14-3.64-.4-.05-.85-.14-1.37-.28h0Zm6.23,3.41c-1.99-.4-4.12-2.32-4.59-3.09,1.11.11,1.73-.07,2.02-.19,2.91,1.31,2.57,3.28,2.57,3.28Z" style="fill: #ffe100; fill-rule: evenodd; stroke-width: 0px;"/>
    <path d="m106.93,148.48h1.08s-.35-.39-.28-1.5l-.94-.41.14,1.92h0Zm4.13.07l1.53-.09.33-1.83-1.46.5c-.02.47-.13,1.02-.39,1.42h0Zm.22,5.14l1.82.75-.53-2.35h-1.38s.42,1.27.1,1.6h0Zm-4.42-1.52l1.07-.15s-.26.62-.16,1.61l-1.38.67.48-2.13Z" style="fill: #e60012; fill-rule: evenodd; stroke-width: 0px;"/>
    <path d="m111.88,151.72h-.7v-1.18h.65c.13,0,.23-.11.23-.23h0c0-.13-.11-.23-.23-.23h-.65v-1.24h.7c.8,0,1.45.65,1.45,1.45h0c0,.8-.65,1.44-1.45,1.44h0Zm-3.86,0h-.88c-.8,0-1.45-.65-1.45-1.44h0c0-.8.65-1.45,1.45-1.45h.88v1.24h-.43c-.13,0-.23.1-.23.23h0c0,.13.11.23.23.23h.43v1.18h0Zm.93-2.94c-.5-.23-.86-.73-.86-1.32,0-.8.65-1.44,1.45-1.44s1.45.65,1.45,1.44c0,.53-.29,1-.72,1.25-.11.06-.13.07-.24,0-.09-.06-.19-.17-.26-.37v-.59s-.47,0-.47,0v.85c-.04.06-.1.12-.17.17-.09.06-.1.04-.19,0h0Zm.59,5.8c-.8,0-1.45-.65-1.45-1.44,0-.59.36-1.1.88-1.33.1-.04.1-.03.19.04.06.05.11.1.15.17v.91s.47,0,.47,0v-.63c.03-.14.09-.29.19-.4.12-.13.14-.1.29-.02.44.25.74.72.74,1.26,0,.8-.65,1.44-1.45,1.44h0Zm.06-2.85l-.72-.72-.72-.72.72-.72.72-.72.72.72.72.72-.72.72-.72.72Z" style="fill: #ffe100; fill-rule: evenodd; stroke-width: 0px;"/>
    <path d="m107.61,135.16l.05-.23s.15-1.12.04-2.98c-.12-1.86-.12-2.09-.17-2.64-.06-.54.23-.66.52-.77.29-.11.66-.09.75.37.09.46.29,2.9.29,4.36s-.51,3.5-.9,4.46c-.39.96-.76,1.38-1.22,1.35-.46-.04-.68-.3-.41-.83.28-.54.78-1.5,1.05-3.09Z" style="fill: #ffe100; fill-rule: evenodd; stroke-width: 0px;"/>
    <path d="m112.84,141.74c-.34-.92-1.17-2.99-2.14-4.59l2.05-2.15s.42-.15-1.82-2.91c0,0,1.38-2.31,1.77-5.93-.65.41-1.26.82-1.78,1.18-.01.59-.09,1.51-.41,2.34-.53,1.36-.76,1.87-.86,2.41-.1.53.03,1.01.52,1.56.48.55.82,1.34.82,1.34,0,0-1.05.56-1.86.9-.11.51-.23.94-.35,1.32.39.43,1.38,1.65,1.77,3.21l2.29,1.33Z" style="fill: #112343; fill-rule: evenodd; stroke-width: 0px;"/>
    <path d="m108.78,137.2c-.39,1.19-.8,1.71-.8,1.71l2.57,1.5c-.39-1.55-1.38-2.78-1.77-3.21h0Zm2.14-9.86c-1.01.68-1.69,1.18-1.69,1.18.42,3.32.24,5.72-.1,7.37.81-.34,1.86-.9,1.86-.9,0,0-.34-.79-.82-1.34-.48-.55-.62-1.03-.52-1.56.1-.53.33-1.05.86-2.41.32-.83.4-1.75.41-2.34h0Zm5.51,16.49l-3.59-2.09c-.34-.92-1.17-2.99-2.14-4.59l2.05-2.15s.42-.15-1.82-2.91c0,0,1.38-2.31,1.77-5.93,1.17-.75,2.45-1.52,3.54-2.06l-3.56,7.14-.07.13.09.11,2.42,2.97-2.17,2.76-.1.12.08.13,3.5,6.13v.24Z" style="fill: #ffe100; fill-rule: evenodd; stroke-width: 0px;"/>
    <polygon points="116.44 142.66 113.42 137.38 115.61 134.59 115.72 134.45 115.61 134.31 113.17 131.31 116.44 124.75 116.44 142.66" style="fill: #e60012; fill-rule: evenodd; stroke-width: 0px;"/>
    <path d="m87.59,175.29c.39-.13.62.57.66.86.07.49-.55.91-.87.92-.33.01-.41-.65-.41-.9s-.08-.68.62-.89h0Zm-8.51,13.42h.49c.14-1.12.45-1.89,1.04-2.34.68-.51,1.17-.54,1.17-.54l.06.72c-.74.01-1.23.88-1.38,1.58-.05.24-.07.43-.07.58h2.47s0-.04,0-.06c-.04-.41-.03-.79.13-.76.12.02.53.58.98.82h.8c.51-.25,1.03-.89,1-1.76-.04-1.08-1.18-1.67-1.18-1.67.41-.11,1.14-1.09.7-2.08-.43-.99-1.39-1.02-1.7-.97-.31.05-.79.23-.88,1.01-.09.77-.09,1.58-.09,1.58l-.32.2c-.31-.32-.78-2.14-.02-2.78.76-.65,1.3-.7,1.97-.81.67-.11.94-.38.96-.66.02-.28-.18-.34-.54-.66-.36-.32-.56-1.21,0-2.59.56-1.39,1.71-1.69,1.87-1.67.16.02.12,1.07.12,1.07-.7,0-1.57.72-1.57,1.59,0,.86.64,1.67,1.77,1.51,1.12-.16.92-1.08.96-1.77.04-.68.22-.72.48-.36.26.36.68.96,1.31.96s1.31-.58,1.31-1.77c0-1.19-1.11-1.29-1.47-1.29s-.28-.16-.28-.16c.26-.12,1.17-.94,1.11-1.93-.06-.99-.95-1.27-1.65-1.17-.7.1-1.13.64-1.19,1.09-.06.44.06,1.35.06,1.35l-.32.18c-.24-.08-.45-.95-.4-1.9.04-.95,1.08-1.46,1.59-1.52s1.44-.02,1.44-.02l.23-.65c-.32-.3-.59-.78-.68-1.43-.05-.41-.07-.82-.07-1.06-.1-.04-.2-.08-.31-.13-.05.34-.13.94-.13,1.31s.75,1.38.75,1.38l-.06.26s-2.13-.29-2.91,1.03c-.39.69-.26,1.85-.12,2.5.12.57.11.59.11.59-2.52.5-2.81,2.92-2.71,3.84s.82,1.2.84,1.4c.02.2-.14.2-.14.2,0,0-1.1-.12-2.31.72-1.21.84-.8,2.41-.67,2.86.13.44.39.69.15.87-.24.18-.51.17-.93.36-.42.19-.74.54-.74.54-.61.66-.92,1.83-1.04,2.45h0Zm3.17-2.46c-.09-.5-.12-.97.61-1.2,0,0,.2.04.46.38.74.95-.9,1.75-1.07.82Z" style="fill: #112343; fill-rule: evenodd; stroke-width: 0px;"/>
    <path d="m141.36,182.98c.25,0,2.55-5.23,5.21-8.76,2.66-3.53,5.31-6.6,6.6-9.91,1.3-3.3,1.1-5.8-.09-7.61-1.18-1.81-3.19-2.8-5.51-2.59-2.32.22-3.74,2.08-4.28,4.45,0,0-.17.89-.51.94-.34.05-.65-.29-.27-3.14.39-2.85,1.22-6,3.05-7.66h-8.74c1.79,1.67,2.61,4.81,2.99,7.66.38,2.85.07,3.19-.26,3.14-.33-.05-.5-.94-.5-.94-.52-2.37-1.92-4.23-4.2-4.45-2.28-.22-4.25.77-5.41,2.59-1.16,1.81-1.36,4.31-.08,7.61,1.27,3.3,3.87,6.38,6.48,9.91,2.61,3.53,5.25,8.76,5.5,8.76Z" style="fill: #231815; fill-rule: evenodd; stroke-width: 0px;"/>
    <path d="m140.55,243.12c-6.94,0-12.62-5.68-12.62-12.62v-25.6c0-1.53.28-3,.78-4.36-.85-.61-1.73-.87-2.86-.81l-.26-5.61c2.8-.14,4.67.37,6.34,1.6,2.26-2.13,5.3-3.44,8.63-3.44,6.94,0,12.62,5.68,12.62,12.62v7.52c2.02.17,3.41.05,3.42.05l.4,5.61s-1.53.13-3.82-.04v12.46c0,6.94-5.68,12.62-12.62,12.62h0Zm0-5.61c3.85,0,7.01-3.16,7.01-7.01v-13.41c-3.88-1.05-8.2-3.13-11.34-7.19-1.15-1.49-1.98-2.61-2.68-3.56v24.16c0,3.86,3.16,7.01,7.01,7.01h0Zm7.01-26.27v-6.35c0-3.86-3.16-7.01-7.01-7.01-1.87,0-3.57.74-4.83,1.94.53.7,1.08,1.46,1.69,2.3,1.02,1.4,2.19,3.01,3.24,4.36,1.88,2.43,4.42,3.9,6.91,4.77Z" style="fill: #231815; stroke-width: 0px;"/>
    <path d="m47.11,62.82c0-1.61,1.08-2.93,2.39-2.93h64.57c1.32,0,2.39,1.32,2.39,2.93v122.97c0,1.61-1.08,2.93-2.39,2.93H49.5c-1.32,0-2.39-1.32-2.39-2.93V62.82Z" style="fill: none; fill-rule: evenodd; stroke: #231815; stroke-miterlimit: 22.93; stroke-width: 1.5px;"/>
    <path d="m22.41,67c-.25,0-2.55,5.23-5.21,8.76-2.66,3.53-5.31,6.6-6.6,9.91-1.3,3.3-1.1,5.8.09,7.61,1.18,1.81,3.19,2.8,5.51,2.59,2.32-.22,3.74-2.08,4.28-4.45,0,0,.17-.89.51-.94.34-.05.65.29.27,3.14-.39,2.85-1.22,6-3.05,7.66h8.74c-1.79-1.67-2.61-4.81-2.99-7.66-.38-2.85-.07-3.19.26-3.14.33.05.5.94.5.94.52,2.37,1.92,4.23,4.2,4.45,2.28.22,4.25-.77,5.41-2.59,1.16-1.81,1.36-4.31.08-7.61-1.27-3.3-3.87-6.38-6.48-9.91-2.61-3.53-5.25-8.76-5.5-8.76Z" style="fill: #231815; fill-rule: evenodd; stroke-width: 0px;"/>
    <path d="m23.22,6.85c6.94,0,12.62,5.68,12.62,12.62v25.6c0,1.53-.28,3-.78,4.36.85.61,1.73.87,2.86.81l.26,5.61c-2.8.14-4.67-.37-6.34-1.6-2.26,2.13-5.3,3.44-8.63,3.44-6.94,0-12.62-5.68-12.62-12.62v-7.52c-2.02-.17-3.41-.05-3.42-.05l-.4-5.61s1.53-.13,3.82.04v-12.46c0-6.94,5.68-12.62,12.62-12.62h0Zm0,5.61c-3.85,0-7.01,3.16-7.01,7.01v13.41c3.88,1.05,8.2,3.13,11.34,7.19,1.15,1.49,1.98,2.61,2.68,3.56v-24.16c0-3.86-3.16-7.01-7.01-7.01h0Zm-7.01,26.27v6.35c0,3.86,3.16,7.01,7.01,7.01,1.87,0,3.57-.74,4.83-1.94-.53-.7-1.08-1.46-1.69-2.3-1.02-1.4-2.19-3.01-3.24-4.36-1.88-2.43-4.42-3.9-6.91-4.77Z" style="fill: #231815; stroke-width: 0px;"/>
  </g>
</svg>