<?xml version="1.0" encoding="UTF-8"?>
<svg id="_图层_2" data-name="图层 2" xmlns="http://www.w3.org/2000/svg" viewBox="0 0 163.58 248.61">
  <g id="_图层_1-2" data-name="图层 1">
    <path d="m1,6.6c0-3.08,2.51-5.6,5.57-5.6h150.43c3.06,0,5.57,2.52,5.57,5.6v235.41c0,3.08-2.51,5.6-5.57,5.6H6.57c-3.06,0-5.57-2.52-5.57-5.6V6.6Z" style="fill: #fff; fill-rule: evenodd; stroke: #231815; stroke-miterlimit: 22.93; stroke-width: 2px;"/>
    <path d="m57.75,63.33c-.17,0-1.76,3.6-3.6,6.02-1.84,2.43-3.67,4.54-4.57,6.81-.9,2.27-.76,3.99.06,5.24.82,1.25,2.21,1.93,3.81,1.78,1.6-.15,2.59-1.43,2.96-3.06,0,0,.12-.61.35-.65.23-.03.45.2.18,2.16-.27,1.96-.84,4.12-2.11,5.27h6.05c-1.24-1.15-1.81-3.31-2.07-5.27-.26-1.96-.05-2.19.18-2.16.23.03.34.65.34.65.36,1.63,1.33,2.91,2.9,3.06,1.57.15,2.94-.53,3.74-1.78.8-1.25.94-2.96.06-5.24-.88-2.27-2.68-4.39-4.48-6.81-1.81-2.42-3.63-6.02-3.81-6.02Z" style="fill: #231815; fill-rule: evenodd; stroke-width: 0px;"/>
    <path d="m105.83,185.28c.17,0,1.76-3.6,3.6-6.02,1.84-2.42,3.67-4.54,4.57-6.81.9-2.27.76-3.99-.06-5.24-.82-1.24-2.21-1.93-3.81-1.78-1.6.15-2.59,1.43-2.96,3.06,0,0-.12.61-.35.65-.23.03-.45-.2-.18-2.16.27-1.96.84-4.12,2.11-5.27h-6.04c1.24,1.15,1.81,3.31,2.07,5.27.26,1.96.05,2.19-.18,2.16-.23-.03-.35-.65-.35-.65-.36-1.63-1.33-2.91-2.9-3.06-1.57-.15-2.94.53-3.74,1.78-.8,1.25-.94,2.97-.06,5.24.88,2.27,2.68,4.39,4.48,6.81,1.81,2.42,3.63,6.02,3.8,6.02Z" style="fill: #231815; fill-rule: evenodd; stroke-width: 0px;"/>
    <path d="m47.11,134.75l.78.14-.16,41.64,3.52,3.68,3.31-3.23v-25.24c1.79,1.67,8.26,4.99,8.26,4.99l.54,2.13c-.5,1.26-.78,3.64-.17,6.03.6,2.4,1.68,3.99,1.68,3.99l.06,1.18-.68.79h.68l-.11,3.95-7.31,13.92h39.95s-7.25-15.5-7.25-15.5c0,0,2.69-11.8,4.41-13.84,0,0,1.03,1.66,2.23,1.56,1.2-.1,2-1.17,2.23-2.36.23-1.19-.43-2.2-.64-2.22,0,0,3.99-1.27,7.03-2.81,2.93-1.48,8.29-4.83,10.99-7.26v-32.41s-.78-.14-.78-.14l.16-41.64-3.52-3.68-3.31,3.23v25.24c-1.79-1.67-8.26-4.99-8.26-4.99l-.54-2.13c.5-1.26.78-3.64.17-6.03-.6-2.4-1.68-3.99-1.68-3.99l-.06-1.18.68-.79h-.68l.11-3.95,7.31-13.92h-39.95s7.25,15.5,7.25,15.5c0,0-2.69,11.8-4.41,13.84,0,0-1.03-1.66-2.23-1.56-1.2.1-2,1.17-2.23,2.36-.23,1.19.43,2.2.64,2.22,0,0-3.99,1.27-7.03,2.81-2.93,1.48-8.29,4.83-10.99,7.26v32.41Z" style="fill: #112343; fill-rule: evenodd; stroke-width: 0px;"/>
    <path d="m74.17,148.59c1.45-.44,2.41.49,2.93,1.19.7.94.64,2.37.64,2.37,1.56-1.59,2.91-1.22,4.05-.14,1.13,1.09,1.13,2.92,1.13,2.92,1.4-1.47,4.05-.05,4.1,1.92.7-.71,1.61-1.2,2.58-1.64-1.96-3.05-3.69-9.59-4.49-13.71-.87-4.42-.92-10.79-.92-10.79h5.31c.81,6.77,2.37,11.7,4.1,16.58,1.39,3.91,3.63,7.3,4.46,8.49,2.02-.56,4.04-1.37,5.97-2.28-1.19-.8-2.01-2.52-3.96-6.22-2.14-4.06-3.3-7.9-3.3-7.9-.83-2.81-2.11-8.32-2.2-15.1-.09-6.78,1.13-9.61,1.13-9.61l12.46,6.91.03-4.47c-.18.69-.57,1.56-1.6,1.29-1.03-.27-1.24-1.59-1.24-1.59l-8.86-5.14c1.79-6.71,7.37-12.82,8.17-13.69.68-.74,1.86-1.9,2.21-2.23-2.38-1.58-5.42-3.04-5.99-3.31.04.51.01,1.29-.39,1.89-.65.97-2.1,1.1-2.1,1.1.5,1.28-.02,3.6-1.81,3.81-.04,0-.09.01-.13.01-4.6,8.24-7.04,18.81-7.04,18.81h-4.53c.41-7.93,3.79-16.28,4.55-18.06-1.45.43-2.41-.49-2.93-1.19-.7-.94-.64-2.37-.64-2.37-1.56,1.59-2.91,1.22-4.05.14-1.13-1.09-1.13-2.92-1.13-2.92-1.4,1.47-4.05.05-4.1-1.92-.7.71-1.61,1.2-2.58,1.64,1.96,3.06,3.69,9.59,4.49,13.71.87,4.42.92,10.79.92,10.79h-5.31c-.81-6.77-2.37-11.7-4.1-16.58-1.39-3.91-3.63-7.3-4.46-8.49-2.02.56-4.04,1.36-5.97,2.28,1.19.8,2.01,2.52,3.96,6.22,2.14,4.06,3.3,7.9,3.3,7.9.83,2.81,2.11,8.32,2.2,15.1.09,6.78-1.13,9.61-1.13,9.61l-12.46-6.91-.03,4.47c.18-.69.57-1.56,1.6-1.29,1.03.27,1.24,1.59,1.24,1.59l8.86,5.14c-1.79,6.72-7.37,12.82-8.17,13.69-.68.74-1.86,1.9-2.21,2.23,2.38,1.58,5.42,3.04,5.99,3.31-.04-.51-.01-1.29.39-1.89.64-.97,2.1-1.1,2.1-1.1-.5-1.28.02-3.6,1.81-3.81.05,0,.09,0,.14-.01,4.6-8.24,7.04-18.81,7.04-18.81h4.53c-.41,7.93-3.79,16.28-4.55,18.06Z" style="fill: #112343; fill-rule: evenodd; stroke-width: 0px;"/>
    <path d="m109.1,126.31c.27.4.9,1.13,1.91,1.17,1.38.06,2.83-.69,2.83-.69,0,0,1.38.51,2.63-.2v11.15c-2.2-1.94-3.96-4.58-3.96-4.58-.34-.54-.65-1.06-.93-1.56-1.08-.36-1.18-1.55-1.15-2.17-.57-1.16-1-2.21-1.32-3.13Z" style="fill: #112343; fill-rule: evenodd; stroke-width: 0px;"/>
    <path d="m73.18,72.96l.51,1.09s10.6-3.65,24.4-.97l.51-.95c-2.65.42-3.96-1.33-4.37-2.02-.96.82-1.84,1.56-3.94,1.53-1.82-.03-3.23-1.38-3.72-1.92-.52.64-2.08,2.36-3.98,2.42-1.81.06-3.26-.97-3.8-1.42-1.4,2.61-4.47,2.41-5.62,2.24Z" style="fill: #e60012; fill-rule: evenodd; stroke-width: 0px;"/>
    <path d="m67.09,59.9l5.86,12.55c.62.13,4.23.76,5.57-2.19l.14-.3.24.23s1.58,1.56,3.7,1.49c2.1-.07,3.79-2.45,3.79-2.46l.18-.25.2.24s1.5,1.93,3.56,1.97c1.93.03,2.75-.66,3.64-1.43.08-.07.15-.13.21-.18l.23-.2.13.28s1.17,2.67,4.36,1.95l6.27-11.71h-38.07Z" style="fill: #ffe100; fill-rule: evenodd; stroke-width: 0px;"/>
    <path d="m69.54,65.16c.41-.03,1.15-.04,1.55.27.56.44.59,1.14.53,1.72,0,0,.75-.11,1.28.32.53.43.55.78.53,1.37-.02.59-.67,1.24-1.47,1.24l-.13-.02-.59-1.27c.08-.12.13-.27.13-.44,0-.37-.24-.66-.54-.66-.03,0-.07,0-.1.01l-1.19-2.54h0Zm2.31,4.95l.6,1.28c.65.41,1.61.8,2.87.68,2.55-.25,3.17-3.1,3.17-3.1h.25c.06.17,1.38,2.4,4.01,2.19,2.63-.21,3.69-3.11,3.69-3.11h.29s.8,1.74,2.13,2.38c1.33.64,2.68.4,3.81-.29,1.13-.68,2.1-1.82,2.1-1.82.35,1.94,1.85,2.75,2.63,2.9.45.09,1.14.09,1.66.08l.83-1.55c-.88-.15-1.54-.76-1.54-.76,0,0-.63.76-1.5.57-.87-.18-1.17-1.11-1.17-1.11,0,0,.34.02.73.02s1.33-.24,1.33-1.38c0-1.13-1.25-1.53-1.25-1.53,0,0,.61-.32.48-1.13-.13-.81-.8-1.34-1.5-1.34s-1.36.49-1.44,1.21c-.08.73.17,1.04.17,1.04-.84-.08-1.93.66-1.83,1.63.1.98,1.32,1.39,1.32,1.39,0,0-.37.84-1.46.67-1.08-.17-1.75-.91-1.75-.91-.34.46-1.09.99-1.94.9-.85-.09-1.1-.84-1.1-.84.22,0,1.38-.08,1.47-1.36.1-1.28-1.48-1.59-1.48-1.59,0,0,.62-.35.41-1.14-.21-.78-.83-1.3-1.51-1.3s-1.38.47-1.47,1.24c-.09.77.39,1.29.39,1.29-.89-.14-1.74.68-1.73,1.37.02.69.49,1.38,1.12,1.52.63.14,1.16-.13,1.16-.13-.27.53-.91,1.3-1.71,1.3s-1.65-.72-1.65-.72c0,0-.85,1.04-1.77.97-.93-.06-1.51-.94-1.51-.94.73.05,1.37-.38,1.51-.84.15-.46.13-1.2-.33-1.7-.46-.49-1.44-.46-1.44-.46.13-1.66-.82-1.93-1.39-1.93s-1.46.27-1.5,1.33c-.04,1.06.79,1.48.79,1.48-.78-.03-1.31.75-1.31,1.32s.37,1.51,1.27,1.54c.9.03,1.23-.46,1.23-.46-.3.8-1.02,1.31-1.6,1.32-.58.02-1.33-.35-1.33-.35,0,0-1.01.65-1.76.6-.75-.05-1.44-.51-1.44-.51v.02h-.01Zm28.54-1.32c-.3-.16-.72-.52-.8-1.24-.12-1.15,1.28-1.91,2.11-1.37,0,0-.27-.78.02-1.39.24-.51.79-.74,1.24-.81l-2.58,4.81h0Zm-22.35-2.44c.35,0,.64.3.64.66,0,.37-.29.66-.64.66s-.64-.3-.64-.66c0-.37.29-.66.64-.66h0Zm8.26-.78c.35,0,.64.3.64.66,0,.37-.29.66-.64.66s-.64-.3-.64-.66c0-.37.29-.66.64-.66h0Zm8.96.18c.35,0,.64.3.64.66s-.29.66-.64.66-.64-.3-.64-.66c0-.37.29-.66.64-.66Z" style="fill: #112343; fill-rule: evenodd; stroke-width: 0px;"/>
    <path d="m95.77,79.32l.13-.07s-.12.76.49.77c.61.02.61-.52.76-.79.15-.27.42-.17.4,0-.02.17-.05.6-.44.96-.39.35-.93.29-1.35-.03-.42-.32-.13-.69,0-.84h0Zm-.74.1l.13-.03-.02,1.04s-.82-.35-.82-.54c0-.19.37-.42.71-.47h0Zm-11.06,10.78l.07-.15.41.23s-.7,1.53-1.13,2.8c-.43,1.28.71,1.46,1.18.75.47-.71,1.03-2.52,1.03-2.52l.33.18s-.4,1.42-.83,2.14c-.43.71-.88.96-1.31.98-.43.02-1.05-.43-.88-1.29.17-.86,1.13-3.12,1.13-3.12h0Zm5.73-.02l-.42.13s.42-.78.46-1.5c0,0,.46.53.8.46.34-.06.61-.51,1.08-.51s.44.38.84.38.7-.15.95-.25c.25-.1.57.38.97.38s.76-.13.76-.13c0,0,.21,0,.21.51,0,.51.06,1.2.06,1.2,0,0-.53-.91-1.08-.91s-.8.4-1.2.4-.65-.11-1.33-.32c-.68-.21-1.48-.02-2.11.15h0Zm-15.98-14.52c-.19.91-.88,4.09-1.86,7.29-1.16,3.8-1.98,5.56-2.63,6.7-.65,1.14-1.46,1.81-2.3,1.77-.83-.04-.9-.94-.9-1.34,0-.4.18-.54.34-.54s.16.25.13.56c-.02.31-.09,1.03.65.92.74-.11,1.53-.94,1.53-1.23,0,0,.09-.56-.88-1.25-.97-.69-1.71-.58-2.46.49-.74,1.08-.55,2.9.51,3.28,1.06.38,2.31.1,3.31-.9,1-1,1.94-2.39,3.35-6.64,1.16-3.49,1.9-7.88,2.13-9.33-.37.09-.68.16-.93.22h0Zm1.28-.3c.29-.06.6-.13.94-.2-.56,4.95-1.94,10.48-3.35,13.49-1.44,3.07-3.72,5.12-4.8,5.12-1.08,0-1.2-.89-1.2-.89.78-.03,1.89-.3,3.18-1.61,1.29-1.31,2.67-4.89,3.62-7.98.79-2.57,1.42-6.63,1.6-7.92h0Zm1.24-.26c.35-.07.72-.14,1.11-.21-.07,1.16-.35,3.96-1.65,8.74-1.52,5.54-2.84,7.57-4.05,9.17-1.21,1.61-2.62.84-2.62.84,3.11-2.2,4.58-6.23,5.69-10.26.92-3.34,1.39-7.09,1.53-8.28h0Zm1.44-.27c.38-.07.77-.14,1.18-.2-.15,1.14-.5,3.43-1.21,6.9-1.06,5.19-2.85,9.29-4.22,10.97-1.37,1.69-2.19,1.2-2.19,1.2,2.63-2.4,4.31-8.23,5.1-10.87.65-2.18,1.18-6.53,1.34-8h0Zm1.53-.26c.29-.04.59-.09.89-.14l-.48,3.49c-1.29,6.82-2.19,9.09-3.62,12.37-1.43,3.27-3.01,3.09-3.01,3.09,2.81-2.41,4.21-8.57,4.96-11.69.61-2.55,1.1-5.96,1.26-7.13h0Zm1.19-.18c-.09.93-.4,3.93-.89,6.31-.59,2.85-2.37,9.09-4.25,11.65,0,0,1.69-.32,3.18-4.89,1.42-4.35,2.78-10.85,2.87-13.19-.31.04-.61.08-.91.12h0Zm1.2-.16c-.12,1.24-.53,5.15-1.17,7.83-.76,3.22-2.34,7.29-3.04,8.65,0,0,1.68-1.69,2.77-4.56,1.05-2.75,2.57-9.25,2.62-12.06-.4.04-.79.09-1.18.14h0Zm1.65-.19c-.15,1.03-.66,4.3-1.24,7.1-.58,2.78-1.77,6.77-3.75,9.11.05.51.23.96.69.98.57.03.76-.3,1.2-1.19.44-.89,1.38-3.48,1.38-3.48l.34.27s-.96,2.39-1.52,3.55c-.56,1.16-1.13,1.4-1.7,1.17-.46-.18-.63-.77-.68-.99-.11.12-.22.23-.34.33.11.54.44,1.64,1.37,1.6,1.23-.05,2.09-2.26,2.39-2.91.3-.65.79-2.04.79-2.04l.32.25s-1.06,2.74-1.71,3.7c-.65.96-1.38,1.38-1.89,1.38s-.9-.31-1.18-.79c-.18-.32-.3-.72-.35-.96-.16.13-.32.25-.48.35.01,1.27,1.39,2.66,2.72,2.4,1.32-.26,2.31-2.87,2.64-3.87.34-1.01.37-1.41.55-1.41s.26.17.18.48c-.08.31-.63,1.71-.94,2.38-.31.67-.94,1.63-.94,1.63,0,0-.29,2.1.95,3.21,1.24,1.11,3.08,1.09,4.1-.91,1.01-2,.93-2.48.93-2.48,0,0,.39-.08.32.18-.06.26-.22.85-.49,1.51-.26.67-.55,1.21-.55,1.21,0,0-.2,1.15.2,2.26.41,1.11,1.85,1.88,2.73,1.6.89-.28,2.4-1.23,3.19-4.86,0,0,3.96-.61,4.82-4.63,0,0,.18-.72.35-2.22-.23.26-.56.58-.85.63-.5.09-1.08.03-1.7-.31-.68-.34-1.09-.33-1.74-.58-.45-.17-.27-.82.14-.89s.64.14,1.07.36c.43.22.86.74,1.77.74s1.05-.43.98-.69c-.07-.26-.43-.79-.74-.96-.31-.17-.02-.22.21-.17.19.04.71.47.98.76.02-.26.05-.53.07-.83.09-1.2.2-3.46.29-5.67-.53.15-1.11.61-1.9.61-.88,0-1.72-.23-1.72-.23l1.73,1.73-.08.36-1.65-1.06s.46,1.94.46,2.66c0,.72-.5,1.28-.98,1.56-.48.28-1.03.82-1.03.82-.08-1.12,1.09-1.42,1.39-1.76.3-.34.12-1.09-.17-2.4-.29-1.32-.79-3.51-.79-4.62s.18-2.43.18-2.43c0,0,1,.18,1.71.18s.74-.26,1.35-.26c.57,0,.97.32,1.67.72.03-.78.05-1.38.06-1.66-5.19-1.06-10.64-.96-15.15-.51h0Zm6.54,3.79l1.27-.04s-.91.56-.93.84c-.02.28.41.41.41.8,0,.39-.35,1.14-1.04,1.87-.69.73-1.27,1.14-1.53,1.05-.26-.09.13-.39.47-.69.35-.3.6-.62.6-.62,0,0-1.9-.04-2.27-.06-.37-.02-1.08-.71-1.53-.86-.45-.15-.78-.04-1.17-.04s-.8-.69-.8-.69c0,0,.67-.47,1.08-.99.41-.52,1.04-1.07,2.16-1.35,1.12-.28,2.74-.39,3.26.79h0Zm.66,5.47l.44.28s-.65.57-.73,1.26c-.08.7.39.85.98.82.59-.03.96-.67,1.37-.77.41-.1.75.13.75.36s-.39.41-.91.59c-.52.18-.7.57-1.29.57s-1.48-.23-1.48-1.21.41-1.6.85-1.9h0Zm-2.62,10.33l.15-.27.37.25s-.62.96-.93,2.03c-.31,1.07.29,2.74,1.24,2.81.95.07,2.26-.76,2.59-3.66l.46.18s-.13,1.31-1.04,2.61c-.91,1.31-1.84,1.38-2.5,1.11-.66-.27-1.11-.98-1.15-2.09-.04-1.11.47-2.21.82-2.97h0Zm.91.24l.35.09s-.58,1.05-.73,1.94c-.15.89.29,1.4.68,1.4s.86-1.02,1.11-1.83c.25-.82.27-.96.27-.96l.4.16s-.35,1.36-.78,2.12c-.44.76-.89.94-1.17.94s-.84-.58-.84-1.25.32-1.96.71-2.61h0Zm-2.64-14.64h.26l-.02,1.12-.95-.64s-.04-.3.71-.47h0Zm8.24-1.28l-.28.28.21-1.57s1.33-.16,2.23-.18c.71-.02,1.4.06,1.77.42l-.02.88c-.3-.25-.86-.64-1.47-.72-.91-.12-1.68.09-2.44.9h0Zm-11.06,11.58c-.67,1.41-1.48,3.64-1.47,4.41.01.77.43,1.76,1.3,2.04.87.28,1.66-.07,2.26-.92.61-.84,1.28-2.69,1.28-2.69l-.33-.28s-.21.77-.91,2.19c-.7,1.42-1.54,1.77-2.45,1.14-.91-.63-.95-1.79-.44-3.13.51-1.35,1.21-2.71,1.21-2.71l-.37-.26-.09.22h0Zm10.35,5.33c.17-.06.33-.13.49-.2.13.47.51,1.77.79,2.34.34.7.82.94,1.34.94s1.38-.86,1.38-1.65c0-.74-.66-2.81-.95-3.6.14-.19.27-.39.4-.61,0,0,.67,2.2.93,3.15.27.95.24,1.53.24,1.53-.77,2.81-2.53,2.38-3.38,1.43s-1.22-3.33-1.22-3.33h0Zm-6.35-15.52c.02.26.11.73.52.69.41-.04.73-.62.78-.79.04-.17.3-.09.3-.09.17,1.18-.39,1.52-1.19,1.44-.8-.09-.95-1.27-.95-1.27l.54.02h0Zm2.2,0c.17,0,.32.21.32.39,0,.17-.41.58-.41.58l-.02-.9.11-.06h0Zm7.46-1.13l-2.63.58s.47-1.27,1.54-1.46c1.07-.19,1.91.18,2.19.65,0,0-.28.09-1.09.23h0Zm.84,1.56v-.12s.05-.24.29-.24.17.39.07.42c-.1.03-.23.03-.35-.07h0Zm-18.53,10.18c-.17.33.05.36.22.33.17-.02,1.85-4.8,1.85-4.8l-.29-.05-1.78,4.51h0Zm18.97,5.14c-.07-.25-.14-.5-.21-.74,1.98-.11,1.94-1.56,1.83-2.42-.11-.88-.66-2.26-.87-2.77-.21-.5-.46-.98-.67-.96-.21.02-.1.36-.1.36l.57,1.08c.43.93.85,2.41.66,3.42-.16.82-1.17.86-1.55.84-.06-.21-.12-.43-.17-.64,1.57-.3,1.22-1.63.96-2.38-.22-.64-.73-1.35-.91-1.58.14-.87.27-1.95.34-3.18.11-1.76.21-3.27.28-4.34.23.4.63,1.28.84,2.65.29,1.86.28,2.5-.03,3.39l-.52-1.03-.25.18s1.77,3.4,1.94,4.76.44,3.06-2.15,3.38h0Zm.21-13.9c1.02,1.29,1.29,3.6,1.35,5.02.04,1.14-.13,1.96-.22,2.31l.44.87s.43-1.87.25-4.42c-.18-2.54-1.74-4.84-1.74-4.84,0,0-.03.38-.07,1.06h0Zm-1.95,11.75c.12.4.34,1.14.59,2.05.38,1.36,0,2.63-1.02,2.61-.79-.01-1.36-2.14-1.58-3.1.16-.08.33-.17.48-.26.09.44.19.95.26,1.21.14.52.46.92.96.92s.72-.48.44-1.49c-.15-.55-.33-1.14-.47-1.56.12-.12.23-.24.33-.37h0Zm-.57.6c.18.44.4,1.04.46,1.39.1.62-.04,1.06-.22,1.1-.18.04-.42-.08-.58-.62-.1-.33-.22-.94-.31-1.37.23-.15.44-.32.65-.51h0Zm-4.26-17.79l.19-.02s-.24.39-.24.84-.04,1.24-.04,1.24c0,0-.26-.24-.26-.45s-.13-.75-.35-.75-1.86-.06-2.07-.06-1.08-.32-1.88-.43c-.8-.11-2.05-.3-3.39,1.12,0,0-.24-.11-.24-.45s.52-.75,1.12-1.03c.6-.28,1.73-.64,2.7-.62.97.02,1.92.52,2.74.67.82.15,1.19.11,1.71-.04h0Zm.43,15.59c.55,0,.91.04,1.33-.13.42-.17.91-.44.91-.63,0-.19-.08-.32-.34-.21-.25.11-.91.51-1.41.51s-.8-.27-1.24-.36c-.44-.08-.61.36-.38.42.23.06.76.27.76.27l.38.13h0Zm5.58,1.67c-.12-.42-.25-.84-.39-1.26,0,0,.21-.73.44-2.02.12.15.4.57.63,1.1.28.67.57,1.98-.67,2.18h0Zm-9.47-6.73l-.08-.12s-.2-.27-.76-.29c-.55-.02-1.13.55-1.11,1.3.02.75.68,1.77,1.45,1.79.78.02,1.54-.33,2.05-.71.51-.39.94-.41,1.29-.41s.8-.22.8-.35-.1-.47-.68-.47-1.29.27-1.78.65c-.49.39-1.08.71-1.56.71s-1.07-.22-1.13-.86c-.06-.63.14-1.22.72-1.2.57.02.78-.06.78-.06h0Zm.44-8.13c-1.68.06-4.32,1.29-4.32,1.29-.11-1.1,2.07-2.28,3.58-2.28s1.81.99,1.81.99h-1.08Z" style="fill: #fff; fill-rule: evenodd; stroke-width: 0px;"/>
    <path d="m76.79,96.56l-.14.14s-.43-.13-.51-.9c-.07-.77.66-1.45,1.4-1.48.74-.03,1.98.4,2.52,2.98,0,0,.19.1.49-.07.3-.18.69-.19.97.04.28.24.28.41.28.71,0,.3-.75.57-1.09,1.06-.34.48-.32.79-.29,1.49.03.7.1.98.1.98,0,0-.97-.66-1.16-1.68-.19-1.02-.45-2.31-.98-3.1-.52-.78-1.31-.51-1.59-.16h0Zm7.78,4.79l-.49.19s.64-.86,1.19-1.42c.55-.56.97-.59,1.36-.49.39.1.67.68.46,1.92,0,0-.22.09-.39-.15-.16-.24-.25-.44-.66-.44s-.89.1-1.47.38h0Zm-4.25,1.01c-.68,0-1.24.56-1.24,1.24h0c0,.68.56,1.24,1.24,1.24h.71v1.24c0,.67.55,1.22,1.23,1.22h0c.67,0,1.23-.55,1.23-1.22v-1.24h.71c.68,0,1.24-.56,1.24-1.24h0c0-.68-.56-1.24-1.24-1.24h-.71v-1.24c0-.67-.55-1.22-1.23-1.22h0c-.67,0-1.23.55-1.23,1.22v1.24h-.71Zm1.94.34c.5,0,.9.4.9.9,0,.49-.4.9-.9.9s-.9-.4-.9-.9c0-.49.4-.9.9-.9h0Zm0,.22c.37,0,.68.3.68.68s-.3.68-.68.68-.68-.3-.68-.68.3-.68.68-.68h0Zm-1.64,3.05c-.14.59-.28,1.07-.21,1.89.07.83.9.95.9,1.15,0,.21-.24.93-1.21.65-.97-.28-1.45-1.62-1.04-2.63.42-1.02,1.14-1.39,1.35-1.39s.31.17.31.17l-.1.15h0Zm3.69,1.5l-.07-1.15s-.09-.4-.09-.55c0-.15.42-.21.71.07.29.27.78,1.2.8,2.03.02.83-.36,1.62-1.11,1.67-.74.05-1.13-.38-1.13-.76,0-.38.88-.55.88-1.31h0Zm-2.64,7.33v.35s.11.87.11,1.7c0,.83-.13,1.44-.87,2.05-.74.61-.94-.13-.68-.52.26-.39.26-.87.26-1.99s-.02-2.05,0-2.55c.02-.5.22-1.61,1.53-1.7,1.31-.09,1.94.81,1.94,2.03s.04,3.08.04,3.53.42.81.42,1.03-.2.41-.5.41-.89-.65-1.11-1.2c-.22-.54-.17-1.37-.17-2.18,0-.81.09-1.48-.37-1.51-.46-.02-.59.26-.59.55Z" style="fill: #ffe100; fill-rule: evenodd; stroke-width: 0px;"/>
    <path d="m89.4,100.03c-.76,1.78-4.13,10.14-4.55,18.06h4.53s2.44-10.57,7.04-18.81c-.56.04-1.01-.08-1.38-.3-.9,1.99-3.6,8.06-4.66,11.48-1.29,4.13-1.75,6.7-1.75,6.7h-2.71c0-1.23.97-5.88,2.54-10.78,1.04-3.26,2.04-5.91,2.58-7.31-.61.52-1.15.82-1.64.97Z" style="fill: #ffe100; fill-rule: evenodd; stroke-width: 0px;"/>
    <path d="m93.3,95.19c-.28.53-1.35,2.55-1.69,3.34-.4.91-1.29,3.49-2.44,6.88-1.15,3.39-2.61,9.23-2.74,11.26h1.72s.46-2.06,1.07-4.09c.6-2,2.44-7.33,5.5-13.85-.53-.46-.83-1.12-.99-1.6-.17-.52-.32-1.36-.42-1.94Z" style="fill: #e60012; fill-rule: evenodd; stroke-width: 0px;"/>
    <path d="m102.88,96.25l-.02-1.79s-.68.3-1.76.7c-1.08.4-1.32.59-1.63.98-.31.39-.26,1.01.17,1.28.43.27.72.08.96-.11,0,0,.11-.11.21-.03,0,0-.29.42-.63.68-.33.26-.67.34-.67.34l1.08.72s-.1-.3.11-.86c.21-.56.37-.74.39-.72,0,0-.27.68.13,1.06.4.38.97.3,1.32-.24.35-.55.41-.94.32-2.01h0Zm-3.75,5.45l-.25-1.77s-.63.38-1.65.92c-1.02.54-1.23.75-1.49,1.18-.26.43-.13,1.03.33,1.25.46.21.72-.02.94-.23,0,0,.1-.13.21-.06,0,0-.23.45-.53.76-.3.3-.62.42-.62.42l1.16.58s-.14-.28,0-.87c.14-.58.27-.78.3-.76,0,0-.18.71.26,1.04.45.33,1,.18,1.28-.41.28-.59.28-.99.06-2.04h0Zm-2.79,5.95l-.46-1.72s-.58.45-1.53,1.1c-.95.65-1.13.89-1.34,1.34-.21.46,0,1.04.48,1.2.48.16.72-.1.9-.34,0,0,.08-.14.2-.08,0,0-.18.48-.44.81-.26.34-.56.49-.56.49l1.22.43s-.17-.27-.1-.86c.07-.59.18-.8.2-.79,0,0-.1.73.39,1,.48.27,1.01.06,1.22-.56.21-.62.16-1.01-.18-2.03h0Zm-2.19,6.37l-.71-1.64s-.5.54-1.34,1.32c-.84.78-.98,1.04-1.12,1.53-.14.48.15,1.03.65,1.11.5.08.69-.21.84-.47,0,0,.06-.15.18-.11,0,0-.11.5-.31.87-.2.37-.48.57-.48.57l1.27.25s-.21-.24-.23-.84c-.02-.59.05-.82.08-.81,0,0,.01.73.53.93.52.2,1.01-.09,1.12-.73.11-.64,0-1.03-.49-1.98h0Zm-1.01,6.73l-.95-1.51s-.42.6-1.14,1.5c-.71.9-.82,1.18-.88,1.67-.06.5.3,1,.81,1.01.51,0,.66-.31.76-.59,0,0,.04-.15.16-.13,0,0-.03.51-.18.9-.15.39-.39.63-.39.63l1.3.06s-.24-.21-.35-.79c-.11-.58-.07-.82-.04-.81,0,0,.12.72.66.84.54.12.98-.24,1-.89.02-.65-.15-1.02-.77-1.88h0Zm-.2,6.32l-1.18-1.34s-.32.66-.88,1.66c-.56,1-.62,1.29-.6,1.79.02.5.46.93.96.86.5-.07.6-.41.66-.7,0,0,.01-.16.14-.16,0,0,.05.51-.03.92-.08.41-.29.69-.29.69l1.29-.15s-.27-.16-.47-.72c-.2-.56-.2-.8-.17-.8,0,0,.24.69.79.72.55.03.93-.39.85-1.04-.09-.64-.31-.98-1.07-1.74h0Zm.72,6.49l-1.23-1.3s-.29.67-.81,1.7c-.52,1.02-.57,1.32-.53,1.82.04.5.5.92,1,.82.5-.09.58-.43.63-.73,0,0,0-.16.13-.17,0,0,.07.5,0,.92-.07.42-.26.7-.26.7l1.28-.2s-.28-.15-.5-.71c-.23-.55-.23-.79-.2-.79,0,0,.26.68.82.69.55.01.92-.43.8-1.07-.11-.64-.35-.96-1.14-1.69h0Zm1.33,6.39l-1.43-1.07s-.17.71-.51,1.81c-.33,1.1-.33,1.39-.21,1.88.12.49.64.82,1.12.64.48-.17.5-.52.49-.82,0,0-.02-.16.1-.19,0,0,.16.48.16.91,0,.42-.14.73-.14.73l1.23-.42s-.3-.1-.62-.61c-.32-.5-.36-.74-.33-.74,0,0,.37.63.93.54.55-.08.83-.58.61-1.19-.22-.61-.51-.89-1.41-1.48h0Zm2.06,5.54l-1.53-.94s-.11.73-.34,1.85c-.23,1.12-.21,1.42-.04,1.89.17.47.72.76,1.18.54.46-.22.45-.56.42-.86,0,0-.04-.15.09-.2,0,0,.2.47.24.89.05.42-.07.74-.07.74l1.19-.52s-.31-.08-.67-.55c-.36-.47-.43-.7-.4-.71,0,0,.43.59.97.46.54-.13.77-.65.5-1.24-.28-.59-.59-.84-1.54-1.34h0Zm2.52,5.19l-1.53-.94s-.11.73-.34,1.85c-.23,1.12-.2,1.42-.04,1.89.17.47.72.76,1.17.54.46-.22.45-.56.42-.87,0,0-.04-.15.08-.19,0,0,.2.47.24.89.05.42-.07.74-.07.74l1.19-.52s-.31-.08-.67-.55c-.36-.47-.43-.7-.4-.71,0,0,.43.59.97.46.54-.13.77-.65.5-1.24-.27-.59-.59-.84-1.54-1.34Z" style="fill: #fff; fill-rule: evenodd; stroke-width: 0px;"/>
    <path d="m73.98,93.4c-.32.14-.64.28-.97.42-.14.06-.27.1-.39.14,2.14,3.55,3.95,10.05,4.67,13.67.84,4.2,1.19,9.34,1.19,9.34h-3.43c-.55-9.39-4.96-18.81-5.55-20.23-.3-.7-.76-1.81-1.15-2.75-.03-.02-.05-.03-.05-.03-1.82.36-2.22-1.29-2.22-1.29-.19.05-.38.1-.56.15.83,1.19,3.07,4.58,4.46,8.49,1.73,4.88,3.29,9.81,4.1,16.58h5.31s-.06-6.37-.92-10.79c-.81-4.11-2.53-10.65-4.49-13.71Z" style="fill: #ffe100; fill-rule: evenodd; stroke-width: 0px;"/>
    <path d="m72.2,94.06c-.81.12-1.25-.19-1.25-.19-.95.54-1.77.43-2.24.27.53,1.11,2.46,5.18,3.24,7.35.91,2.53,3.52,10.98,3.52,14.93h2.43s-.18-4.78-1.63-11.4c-1.17-5.32-3.05-9.42-4.06-10.97Z" style="fill: #e60012; fill-rule: evenodd; stroke-width: 0px;"/>
    <path d="m81.77,126.76c-.24-.21-.95-1.05-.96-2.44,0-1.39.96-2.47.96-2.47,0,0,.97,1.08.96,2.47-.01,1.39-.71,2.23-.96,2.44h0Zm0,.52c.32-.26,1.22-1.28,1.24-2.96.01-1.68-1.24-3-1.24-3,0,0-1.25,1.31-1.24,3,.01,1.69.92,2.71,1.24,2.96h0Zm0,1.44c.54-.38,2.11-1.9,2.13-4.4.02-2.5-2.13-4.45-2.13-4.45,0,0-2.15,1.95-2.13,4.45.02,2.5,1.59,4.02,2.13,4.4h0Zm0,.34c.61-.41,2.35-2.04,2.38-4.74.03-2.69-2.38-4.79-2.38-4.79,0,0-2.4,2.09-2.38,4.79.03,2.69,1.77,4.32,2.38,4.74h0Zm0,.89c.77-.49,3-2.43,3.03-5.62.03-3.2-3.03-5.68-3.03-5.68,0,0-3.06,2.49-3.03,5.68.03,3.2,2.26,5.13,3.03,5.62Z" style="fill: #ffe100; fill-rule: evenodd; stroke-width: 0px;"/>
    <path d="m74.17,121.51h4.98c-.41.84-.69,1.8-.68,2.83.01,1.08.25,2.02.6,2.82h-4.9v-5.65h0Zm10.23,0h5.01v5.65h-4.93c.35-.81.59-1.75.6-2.82,0-1.03-.28-1.99-.68-2.83Z" style="fill: #e60012; fill-rule: evenodd; stroke-width: 0px;"/>
    <path d="m108.99,103.3c-1.49,1.83-4.31,5.77-6.38,11.68l2.51,1.36s-.11-3.32,3.87-3.25v-9.79Z" style="fill: #e60012; fill-rule: evenodd; stroke-width: 0px;"/>
    <path d="m98.91,109.43l.84,2.28c.28-.74.65-1.62,1.11-2.61l-.46-2.74c-.6,1.13-1.1,2.17-1.5,3.08h0Zm3.32,5.59c.55-1.72,2.61-7.57,6.75-12.32v-1.62c-4.16,4.77-6.6,10.54-7.65,13.41l.9.52h0Zm6.75-14.63c-.69.77-1.34,1.56-1.94,2.37l-1.85-.02c.61-.83,1.28-1.68,2.01-2.53h.05s1.72.17,1.72.17h0Zm0-.47v-1.63c-.49.5-.96,1-1.4,1.5l1.4.13h0Zm0-2.29c-.52.52-1.02,1.05-1.5,1.57l-.09-2.41c.13-.13.25-.25.39-.38.46.34.87.68,1.2,1.01v.21h0Zm-1.58-1.49c-.16.15-.31.3-.46.45h-.02s0,.02,0,.02c-6.05,6.07-8.92,13.59-9.6,15.57l-.85-.5c1.79-6.71,7.37-12.82,8.17-13.69.67-.74,1.86-1.9,2.21-2.23.19.13.38.25.56.38h0Zm-9.67,16.27c.16-.46.45-1.28.91-2.37l.86,2.33c-.12.34-.22.64-.3.89l-1.48-.85h0Zm1.89,1.09c.08-.25.17-.55.29-.89l1.81-.38c-.32.77-.59,1.45-.8,2.03l-1.3-.76h0Zm.48-1.4c.29-.77.67-1.73,1.18-2.8l1.83-.09c-.44.89-.83,1.73-1.17,2.51l-1.84.39h0Zm.67-6.41c.44-.79.93-1.62,1.48-2.47l.42,2.51c-.55.93-1.03,1.81-1.44,2.64l-.45-2.68h0Zm.74,3.13c.4-.82.87-1.71,1.42-2.64h0l1.85-.04c-.53.88-1,1.75-1.43,2.59l-1.84.09h0Zm1.11-6.18c.59-.89,1.24-1.79,1.96-2.69l.06,2.78c-.59.81-1.12,1.61-1.6,2.39l-.41-2.48h0Zm.59,3.07c.49-.81,1.04-1.65,1.65-2.51h0l1.84.02c-.59.81-1.13,1.64-1.63,2.45l-1.86.04h0Zm1.82-6.32c.6-.73,1.24-1.45,1.92-2.15l.09,2.46c-.71.81-1.36,1.62-1.96,2.41l-.05-2.73h0Zm1.41-3.9s-.03-.02-.05-.03l.05.03h0Zm-.09-.05c-.13-.08-.25-.16-.38-.24h0c.13.08.26.16.38.24Z" style="fill: #f4d923; fill-rule: evenodd; stroke-width: 0px;"/>
    <path d="m115.18,72.32l-2.76-3.04-2.79,2.58.04,41.34s1.31.06,2.7.15c-.21-1.54-.48-3.79-.48-5.49,0-1.81.22-3.53.65-6.04.44-2.51.26-3.98.26-4.69,0-.72-.39-2.15-.75-3.42-.36-1.27-.74-2.88-.74-4s0-2.57.37-3.86c.37-1.29.53-2.64.64-4.18.12-1.54-.2-6.63-.2-6.63h.67v6.71c0,2.43-.39,3.83-.55,5.41-.16,1.57-.16,3.91.27,5.3.44,1.39.99,3.76,1.08,5.56.09,1.8-.18,2.72-.4,5.08-.22,2.36-.57,5.08-.18,7.72.19,1.33.49,2.15.73,2.64.49.04.94.09,1.28.14l.16-41.29Z" style="fill: #fff; fill-rule: evenodd; stroke-width: 0px;"/>
    <path d="m116.47,115.87l-8.6-.53v1.73c0,.51-.51,1.04-1.02,1.06-.51.02-1.22-.6-1.3-1.24-.07-.64-.15-3.32,2.54-3.32,2.17,0,6.72.48,8.38.67v1.63Z" style="fill: #ffe100; fill-rule: evenodd; stroke-width: 0px;"/>
    <path d="m114.33,120.63l-.45.16s-.27.09-.62.2c.1-.18.16-.36.18-.52.04-.24.01-.46-.09-.64h0c-.1-.19-.27-.33-.5-.42-.07-.03-.15-.05-.23-.06.44-.3.95-.25,1.34-.37.42-.13,1.12-.74,1.27-1.12.14-.38.85-.16.87.54.02.7-.25,1.7-1.77,2.22h0Zm-1.74.57h-.01c.24-.3.37-.57.41-.8.02-.14.01-.26-.04-.35h0c-.05-.09-.13-.16-.25-.2-.12-.04-.27-.07-.45-.06-.39.6-.74,1.6-.41,1.59.14,0,.44-.08.75-.17h0Zm1.42-.07c-.28.12-.59.22-.89.31.04.06.08.13.1.19.09.23.11.49.07.78-.05.33-.18.68-.38,1.01.3,0,.54-.05.54-.05,2.34-.58,2.74-1.26,2.75-1.99.01-.73-.13-.94-.57-.9-.44.04-1.13.39-1.13.39l-.49.26h0Zm-1.64,2.27c-.17-.03-.34-.07-.47-.15-.54-.31-.16-1.45-.16-1.45,0,0,.38-.08.89-.22.08.06.13.13.17.23.06.15.07.33.04.54-.05.33-.21.71-.47,1.05h0Zm2.71,1.48l-.4.13s-.51.18-1.03.2c-.09,0-.19,0-.3,0,.19-.39.18-.71.04-1.01-.08-.16-.2-.29-.35-.43.1,0,.2,0,.3,0,.59,0,1.5-.48,1.83-.6.33-.13.99.33.99.71,0,.39-.35.79-1.08.99h0Zm-2.23.28c.2-.32.22-.55.12-.74-.12-.23-.41-.44-.77-.68-.06,0-.09,0-.09,0,0,0-.4.51-.04.99.19.25.48.38.78.44h0Zm1.77.27l.57-.15s.46.05.49.51c.04.46-.4.73-.77.79-.14.02-.39.06-.66.03.1-.39.1-.88.09-1.12.11-.02.21-.04.28-.06h0Zm-.82,1.08c-.3-.13-.58-.39-.72-.89,0,0,.39-.02.8-.06,0,.24,0,.66-.07.95h0Zm-.62-9.74c.12.34.55.84.89.86.5.03.87-.15.87-.15,0-.5-1.76-.71-1.76-.71h0Zm-2.99,3.04l-.25.02s.56-.64,1.69-.96c1.13-.33,2.33.17,3.06-.82,0,0-.65.03-1.1-.22-.45-.25-.75-1.1-.75-1.1h-2.66c-.47,0-1.46.68-1.66,2.39-.2,1.71-.05,3.32.25,4.85.3,1.52,1.02,3.15,2.19,3.15,1.18,0,2.33-.46,2.33-.46,0,0-.4-1.33-1.31-1.6l-.78.55s.06-1.62.06-1.92c0-.3-.42-.91-.76-1.07,0,0,.82-1.21.72-2.1,0,0-.12-.73-1.04-.71Z" style="fill: #fff; fill-rule: evenodd; stroke-width: 0px;"/>
    <path d="m111.13,129.44s.37.82,1.26.76c.88-.06,1.27-.99.94-1.71,0,0,.61.31.7,1,.09.69-.41,1.56-1.15,1.63-.78.08-1.93-.44-1.75-1.69h0Zm1.09-1.56c-1.43.1-1.8,1.56-1.39,2.65.49,1.08,1.69,1.35,2.46,1.12.76-.22,1.44-1.15,1.26-2.2-.18-1.05-1.3-1.65-2.32-1.57Z" style="fill: #ffe100; fill-rule: evenodd; stroke-width: 0px;"/>
    <path d="m108.09,121.57c0,.63.13,3.38,2.32,7.87-.03.62.07,1.82,1.15,2.17.29.5.6,1.02.93,1.56,0,0,1.76,2.64,3.96,4.58v.91c-2.52-2.36-4.66-5.17-6.26-8.29-1.47-2.87-2.49-5.99-2.93-9.26l.82.45h0Zm8.37,17.72c-2.7-2.45-4.98-5.41-6.67-8.71-1.55-3.02-2.6-6.31-3.02-9.75l-.34-.19.21,1.01.06.26-.26.02-.99.07h-.19s-.05-.18-.05-.18l-.21-.81-.59.05.37,1.94,1.75.03h.19s.03.2.03.2l.33,2.03.03.18-.16.07-.73.33-.22.1-.09-.22-.37-.92-.41.04c.06.38.18,1.13.38,1.7l1.54-.36.19-.04.08.17.89,1.99.1.23-.24.08-.77.25-.19.07-.09-.19-.32-.67-.6.31.7,1.65,1.51-.45.19-.06.09.17,1.02,2.04.1.21-.21.1-.67.33-.17.08-.12-.15-.56-.7-.41.34.75,1.09,1.71-.64.18-.07.1.17,1.09,1.85.12.21-.22.11-1,.5-.18.09-.11-.17-.19-.28-.26.23.78,1.03,1.47-1.09.19-.14.14.2,1.34,1.94.12.17-.16.13-.79.66-.18.14-.15-.17-.45-.53-.39.36,1.06,1.36,1.3-1,.15-.11.14.12,1.48,1.21.17.14-.14.18-.77,1-.16.2-.19-.17-.59-.54-.24.31,1.45,1.32,1.31-1.35v-1.11h0Zm0,1.78l-1.13,1.17-.16.16-.17-.15-1.78-1.62-.16-.14.13-.17.53-.68.16-.2.18.17.58.53.48-.62-1.16-.95-1.33,1.03-.18.14-.14-.18-1.33-1.71-.13-.17.16-.14.72-.67.18-.17.16.18.46.54.45-.37-1.08-1.57-1.46,1.08-.19.14-.14-.18-1.04-1.38-.13-.17.16-.14.61-.54.2-.17.15.22.23.33.6-.3-.86-1.47-1.7.64-.17.06-.1-.15-.98-1.42-.12-.17.16-.13.75-.62.18-.15.15.18.59.74.29-.14-.83-1.66-1.52.45-.2.06-.08-.19-.86-2.04-.08-.2.19-.1,1.01-.51.21-.11.1.22.33.7.33-.11-.71-1.59-1.56.36-.19.05-.07-.18c-.34-.84-.51-2.23-.51-2.23l-.04-.24.24-.02.82-.07h.17s.06.15.06.15l.35.86.35-.16-.27-1.67-1.75-.03h-.19s-.04-.19-.04-.19l-.46-2.38-.05-.25.26-.02,1.05-.09.2-.02.05.19.21.82.53-.04-.24-1.14-2.55-1.41c.03,4.63,1.5,9.57,3.83,14.05,2.4,4.61,5.71,8.73,9.3,11.5v-1.06s-.53-.42-.53-.42l.03-.14.2-.87.07-.31.23.14v-.75h0Zm0,1.71v.05h0s0-.05,0-.05h0Zm0,2.29c-3.75-2.82-7.21-7.09-9.71-11.88-2.41-4.62-3.91-9.74-3.88-14.52l-.81-.45c0,1.86.05,5.02,2.4,11.73,2.53,7.23,7.98,12.85,9.52,14.18.74.64,1.54,1.28,2.16,1.76.12-.09.22-.17.32-.25v-.58Z" style="fill: #ffe100; fill-rule: evenodd; stroke-width: 0px;"/>
    <path d="m104.03,153.51h0c-1.19-.8-2.01-2.51-3.96-6.22-2.14-4.06-3.3-7.9-3.3-7.9-.83-2.81-2.11-8.32-2.2-15.1-.09-6.78,1.13-9.61,1.13-9.61l.99.55c-.3,1.73-1.08,6.71-.91,10.45.21,4.61,1.16,9.42,1.9,12.14.72,2.62,2.99,9.34,6.93,15.41-.19.09-.38.19-.57.28Z" style="fill: #fff; fill-rule: evenodd; stroke-width: 0px;"/>
    <path d="m97.19,115.52c-.25,1.1-.79,3.85-.95,7.91-.01.31-.02.63-.02.97.71.44,2.65,1.68,4.28,3.12,2.03,1.8,4.74,5.05,5.87,8.95,1.13,3.9,1.62,9.29-.97,14.87,0,0-.31.62-.31,1.02,0,.04,0,.07.02.11.25.13.5.19.74.12,0,0,.01,0,.02,0,4.52-2.37,8.33-5.17,10.09-6.54-1.36-.94-3.82-2.89-6.18-5.95-3.42-4.43-7.75-11.54-8.15-22.12l-4.43-2.46Z" style="fill: #e60012; fill-rule: evenodd; stroke-width: 0px;"/>
    <path d="m105.55,148.99l-1.14-1.34,1.63-.81c-.13.75-.29,1.48-.49,2.15h0Zm.83-5.42l-1.43-1.04,1.43-1.06c.03.71.03,1.41,0,2.11h0Zm-.35-5.3l-1.73-.68,1.22-1.44c.21.69.38,1.4.51,2.12h0Zm-2.86-6.86l-.63,1.95,1.81-.05c-.36-.67-.76-1.3-1.18-1.89h0Zm-1.83-2.19l-1.65.33.2-1.7c.47.41.96.86,1.44,1.37h0Zm-.02,17.34c.14.3.28.59.43.89.15.09.35.22.58.37.58.38,1.16.64,1.2,1.4.03.53-.12.94-.22,1.15.04.08.09.15.13.23,0,0,.17.3.43.66.09.03.18.05.28.04.62-.04,1.18-.81,1.13-1.55-.04-.75-.47-1.77-1.37-2.19-.76-.36-2.17-.85-2.59-1h0Zm-5.04-19.34c.02.35.05.71.08,1.07,1.19-.37,1.99.47,1.99,1.14,0,.71-.34,1.44-.62,1.72-.28.28-.21.52-.21.52.39-.02,1.85-1.34,1.89-2.85.03-1.51-1.19-2.25-1.98-2.23-.58.02-.97.41-1.14.62h0Zm6.83,16.18c.8,0,1.57.7,1.57,1.5,0,.8-.67,1.52-1.39,1.52s-1.41-.44-1.41-.44c.17.87,1.59,1.35,2.76,1.2,1.17-.15,1.87-1.74,1.87-2.37,0-.63-.46-1.31-1.29-1.57-.83-.26-1.8-.46-2.42-.46s-1.02.46-1.02.46l1.33.17h0Zm.05-4.21c1.34,0,1.55.59,1.42,1.56-.13.97-2.4,1.35-2.4,1.35.28.34,1.44.15,1.44.15,1.7-.25,3.01-1.39,2.72-2.64-.3-1.24-1.36-1.46-2.34-1.37-.98.09-2.4.91-2.4.91l1.55.04h0Zm-.94-4.24c.76-.1,1.3.21,1.4,1.3.1,1.08-2.09,1.94-2.09,1.94,1.14.23,2.26-.51,2.77-.98.51-.48.91-1.03.76-2.05-.15-1.03-1.07-1.6-2.09-1.44-1.03.15-2.55,1.69-2.55,1.69l1.8-.45h0Zm-4.15-2.55s.83-2.01,2.01-2.5c1.19-.49,2.62.38,2.62,1.92s-2.21,2.91-2.51,2.91c0,0,1.34-1.34,1.28-2.32-.07-.98-1.14-1.3-1.81-.96-.58.29-.99.78-1.59.96h0Zm-1.28-.5c.41.38,2.78,2.7,3.77,5.33,1.03,2.74,1.22,7.14.74,9.29-.39-.83-.75-1.65-1.09-2.47-.01-.77-.07-2.51-.39-4.4-.39-2.33-1.86-4.88-2.66-5.65-.14-.72-.27-1.43-.37-2.11Z" style="fill: #fff; fill-rule: evenodd; stroke-width: 0px;"/>
    <path d="m54.48,122.31c-.27-.4-.9-1.13-1.91-1.18-1.38-.06-2.83.69-2.83.69,0,0-1.38-.51-2.63.2v-11.15c2.2,1.93,3.96,4.58,3.96,4.58.34.54.65,1.06.93,1.56,1.08.36,1.18,1.55,1.15,2.17.57,1.16,1,2.21,1.32,3.13Z" style="fill: #112343; fill-rule: evenodd; stroke-width: 0px;"/>
    <path d="m90.39,175.65l-.51-1.09s-10.6,3.65-24.4.97l-.51.95c2.65-.42,3.96,1.33,4.37,2.02.96-.82,1.84-1.56,3.94-1.53,1.82.03,3.23,1.38,3.72,1.92.52-.64,2.08-2.36,3.98-2.42,1.81-.06,3.26.97,3.8,1.42,1.4-2.61,4.47-2.41,5.62-2.24Z" style="fill: #e60012; fill-rule: evenodd; stroke-width: 0px;"/>
    <path d="m96.49,188.72l-5.86-12.55c-.62-.13-4.23-.76-5.57,2.19l-.13.3-.24-.23s-1.58-1.56-3.7-1.49c-2.1.07-3.79,2.45-3.79,2.46l-.18.25-.2-.24s-1.5-1.93-3.56-1.97c-1.94-.03-2.75.66-3.64,1.43-.08.07-.15.13-.21.18l-.23.2-.13-.28s-1.17-2.67-4.36-1.95l-6.27,11.71h38.07Z" style="fill: #ffe100; fill-rule: evenodd; stroke-width: 0px;"/>
    <path d="m94.04,183.46c-.41.03-1.15.04-1.55-.27-.56-.44-.59-1.14-.53-1.72,0,0-.75.11-1.28-.32-.53-.43-.55-.78-.54-1.37s.67-1.24,1.47-1.24l.13.02.59,1.27c-.08.12-.13.27-.13.44,0,.37.24.66.54.66.03,0,.07,0,.1-.01l1.19,2.54h0Zm-2.31-4.95l-.6-1.28c-.65-.41-1.61-.8-2.87-.68-2.55.25-3.17,3.1-3.17,3.1h-.25c-.06-.17-1.38-2.4-4.01-2.19-2.63.21-3.69,3.11-3.69,3.11h-.29s-.8-1.74-2.13-2.38c-1.33-.64-2.68-.4-3.81.29-1.13.68-2.1,1.82-2.1,1.82-.35-1.94-1.85-2.75-2.63-2.9-.45-.09-1.14-.09-1.66-.08l-.83,1.55c.88.15,1.54.76,1.54.76,0,0,.63-.76,1.5-.57.87.18,1.17,1.11,1.17,1.11,0,0-.34-.02-.73-.02s-1.33.24-1.33,1.38c0,1.13,1.25,1.53,1.25,1.53,0,0-.61.32-.48,1.13.13.82.8,1.34,1.5,1.34s1.36-.49,1.44-1.21c.08-.73-.17-1.04-.17-1.04.84.08,1.93-.66,1.83-1.63-.1-.98-1.32-1.39-1.32-1.39,0,0,.38-.84,1.46-.67,1.08.17,1.75.91,1.75.91.34-.46,1.09-.99,1.93-.9.85.09,1.1.84,1.1.84-.22,0-1.38.08-1.47,1.36-.1,1.28,1.48,1.58,1.48,1.58,0,0-.62.35-.41,1.14.21.78.83,1.3,1.51,1.3s1.38-.47,1.47-1.24c.09-.77-.39-1.29-.39-1.29.89.14,1.74-.68,1.73-1.37-.02-.69-.49-1.38-1.11-1.52-.63-.14-1.16.13-1.16.13.27-.53.91-1.3,1.71-1.3s1.65.72,1.65.72c0,0,.85-1.04,1.77-.97.93.06,1.51.94,1.51.94-.73-.05-1.37.38-1.51.84-.15.46-.13,1.2.33,1.7.46.49,1.44.46,1.44.46-.13,1.66.82,1.93,1.39,1.93s1.46-.27,1.5-1.33c.04-1.06-.79-1.48-.79-1.48.78.03,1.31-.75,1.31-1.32s-.37-1.51-1.26-1.54c-.9-.03-1.23.46-1.23.46.3-.8,1.02-1.31,1.6-1.32.58-.02,1.33.35,1.33.35,0,0,1.01-.65,1.76-.6.75.05,1.44.51,1.44.51v-.02h.01Zm-28.54,1.32c.3.16.72.52.8,1.24.12,1.15-1.28,1.91-2.11,1.37,0,0,.27.78-.02,1.39-.24.51-.79.74-1.24.81l2.58-4.81h0Zm22.35,2.44c-.35,0-.64-.3-.64-.66,0-.37.29-.66.64-.66s.64.3.64.66c0,.37-.29.66-.64.66h0Zm-8.26.78c-.35,0-.64-.3-.64-.66,0-.37.29-.66.64-.66s.64.3.64.66c0,.37-.29.66-.64.66h0Zm-8.96-.18c-.35,0-.64-.3-.64-.66,0-.37.29-.66.64-.66s.64.3.64.66c0,.37-.29.66-.64.66Z" style="fill: #112343; fill-rule: evenodd; stroke-width: 0px;"/>
    <path d="m67.8,169.29l-.13.07s.12-.76-.49-.77c-.61-.02-.61.52-.76.79-.15.27-.42.17-.4,0,.02-.17.05-.61.44-.96.39-.35.93-.29,1.35.03.42.32.13.69,0,.84h0Zm.74-.1l-.13.03.02-1.04s.82.35.82.54c0,.19-.37.42-.71.47h0Zm11.06-10.78l-.07.15-.41-.23s.7-1.53,1.13-2.8c.43-1.28-.71-1.46-1.18-.75-.47.71-1.03,2.52-1.03,2.52l-.33-.18s.4-1.43.83-2.14c.43-.71.88-.96,1.31-.98.43-.02,1.05.43.88,1.29-.17.86-1.13,3.12-1.13,3.12h0Zm-5.73.02l.42-.13s-.42.78-.46,1.5c0,0-.46-.53-.8-.46-.34.06-.61.51-1.08.51s-.44-.38-.84-.38-.7.15-.95.25c-.25.1-.57-.38-.97-.38s-.76.13-.76.13c0,0-.21,0-.21-.5,0-.51-.06-1.2-.06-1.2,0,0,.53.91,1.08.91s.8-.4,1.2-.4.65.11,1.33.32c.68.21,1.48.02,2.11-.15h0Zm15.98,14.52c.19-.91.88-4.09,1.86-7.29,1.16-3.8,1.98-5.56,2.63-6.7.65-1.14,1.46-1.81,2.3-1.77.83.05.9.94.9,1.34,0,.4-.18.54-.34.54s-.16-.25-.13-.56c.02-.31.09-1.03-.65-.92-.74.11-1.53.94-1.53,1.23,0,0-.09.56.88,1.25.97.69,1.71.58,2.46-.49.74-1.08.55-2.9-.51-3.28-1.06-.38-2.31-.1-3.31.9-1.01,1-1.94,2.39-3.35,6.64-1.16,3.49-1.9,7.88-2.13,9.33.37-.09.68-.16.93-.22h0Zm-1.28.3c-.29.06-.6.13-.94.2.56-4.95,1.94-10.48,3.35-13.49,1.44-3.07,3.72-5.12,4.8-5.12,1.08,0,1.2.89,1.2.89-.78.03-1.89.3-3.18,1.61-1.29,1.31-2.67,4.89-3.62,7.98-.79,2.57-1.42,6.63-1.6,7.92h0Zm-1.24.26c-.35.07-.72.14-1.11.21.07-1.16.34-3.96,1.65-8.74,1.52-5.54,2.84-7.57,4.05-9.17,1.21-1.61,2.62-.84,2.62-.84-3.11,2.2-4.58,6.23-5.69,10.26-.92,3.34-1.39,7.09-1.53,8.28h0Zm-1.44.27c-.38.07-.77.14-1.18.2.15-1.14.5-3.43,1.21-6.9,1.06-5.19,2.85-9.29,4.22-10.97,1.37-1.69,2.19-1.2,2.19-1.2-2.63,2.39-4.31,8.23-5.1,10.87-.65,2.18-1.18,6.53-1.34,8h0Zm-1.53.26c-.29.04-.59.09-.89.13l.48-3.49c1.29-6.82,2.19-9.09,3.62-12.37,1.43-3.27,3.01-3.09,3.01-3.09-2.81,2.41-4.21,8.57-4.96,11.69-.61,2.55-1.1,5.96-1.25,7.13h0Zm-1.19.18c.09-.93.4-3.93.89-6.31.59-2.85,2.37-9.09,4.25-11.65,0,0-1.68.32-3.18,4.89-1.42,4.35-2.78,10.85-2.87,13.19.31-.04.61-.08.91-.12h0Zm-1.2.16c.12-1.24.54-5.15,1.17-7.83.76-3.22,2.34-7.29,3.04-8.65,0,0-1.68,1.69-2.77,4.56-1.05,2.75-2.57,9.25-2.62,12.06.4-.04.79-.09,1.18-.14h0Zm-1.64.19c.15-1.03.66-4.3,1.24-7.1.58-2.78,1.77-6.77,3.75-9.11-.05-.51-.23-.96-.7-.98-.57-.03-.76.3-1.2,1.19-.44.89-1.38,3.48-1.38,3.48l-.34-.27s.96-2.39,1.52-3.55c.56-1.16,1.13-1.4,1.7-1.17.46.18.63.77.68.99.11-.12.22-.23.34-.33-.11-.54-.44-1.64-1.37-1.6-1.23.05-2.09,2.26-2.39,2.91-.3.65-.79,2.04-.79,2.04l-.32-.25s1.06-2.74,1.71-3.7c.65-.96,1.38-1.38,1.89-1.38s.9.31,1.18.79c.18.32.3.72.35.96.16-.13.32-.25.48-.35-.01-1.27-1.39-2.66-2.72-2.4-1.32.26-2.31,2.87-2.64,3.87-.34,1-.37,1.41-.55,1.41s-.26-.17-.18-.48c.08-.31.63-1.71.94-2.38.31-.67.94-1.63.94-1.63,0,0,.29-2.1-.95-3.21-1.24-1.11-3.08-1.09-4.1.91-1.01,2-.93,2.48-.93,2.48,0,0-.39.08-.33-.18.06-.26.22-.85.49-1.51.26-.67.55-1.21.55-1.21,0,0,.2-1.15-.2-2.26-.41-1.11-1.85-1.88-2.73-1.6-.89.28-2.41,1.23-3.19,4.86,0,0-3.96.61-4.82,4.63,0,0-.18.72-.36,2.22.23-.26.56-.58.85-.63.5-.09,1.08-.03,1.7.31.68.34,1.09.33,1.74.58.45.17.28.82-.14.89-.41.07-.64-.14-1.07-.36-.43-.22-.86-.74-1.77-.74s-1.05.43-.98.69c.07.26.43.79.74.96.31.17.02.22-.21.17-.19-.04-.71-.47-.98-.76-.02.26-.05.53-.07.83-.09,1.2-.2,3.46-.29,5.67.53-.15,1.11-.61,1.9-.61.88,0,1.72.23,1.72.23l-1.73-1.73.08-.36,1.65,1.06s-.46-1.94-.46-2.66c0-.72.5-1.28.99-1.56.48-.28,1.03-.82,1.03-.82.08,1.12-1.09,1.42-1.39,1.76-.3.34-.12,1.09.17,2.4.29,1.32.79,3.51.79,4.62s-.18,2.43-.18,2.43c0,0-1-.18-1.71-.18s-.73.26-1.35.26c-.57,0-.97-.32-1.68-.72-.03.78-.05,1.38-.06,1.66,5.19,1.06,10.64.96,15.15.51h0Zm-6.54-3.79l-1.27.04s.91-.56.93-.84c.02-.28-.41-.41-.41-.8,0-.39.35-1.14,1.04-1.87.69-.73,1.27-1.14,1.53-1.05.26.09-.13.39-.47.69-.35.3-.6.62-.6.62,0,0,1.9.04,2.27.06.37.02,1.08.71,1.53.86.45.15.78.04,1.17.04s.8.69.8.69c0,0-.67.47-1.08.99-.41.52-1.04,1.07-2.16,1.35-1.12.28-2.74.39-3.26-.79h0Zm-.66-5.47l-.44-.28s.65-.57.72-1.26c.08-.69-.39-.85-.98-.82-.59.03-.96.67-1.37.77-.41.1-.75-.13-.75-.36s.39-.41.91-.59c.52-.18.7-.57,1.29-.57s1.48.23,1.48,1.21c0,.98-.41,1.6-.85,1.9h0Zm2.62-10.33l-.15.27-.37-.25s.62-.96.93-2.03c.31-1.07-.29-2.74-1.24-2.81-.95-.07-2.26.76-2.59,3.66l-.46-.18s.13-1.31,1.04-2.61c.91-1.31,1.84-1.38,2.5-1.11.66.27,1.11.98,1.15,2.09.04,1.11-.47,2.21-.82,2.97h0Zm-.91-.24l-.35-.09s.58-1.05.73-1.94c.15-.89-.29-1.4-.68-1.4s-.86,1.02-1.11,1.83c-.25.82-.27.96-.27.96l-.4-.16s.35-1.36.78-2.12c.44-.76.89-.94,1.17-.94s.84.58.84,1.25c0,.75-.32,1.96-.71,2.61h0Zm2.64,14.64h-.26l.02-1.12.95.64s.04.3-.71.47h0Zm-8.24,1.28l.28-.28-.21,1.57s-1.33.16-2.23.18c-.71.02-1.4-.06-1.77-.42l.02-.88c.3.25.86.65,1.47.72.91.11,1.68-.09,2.44-.9h0Zm11.06-11.58c.67-1.41,1.48-3.64,1.47-4.41-.01-.77-.43-1.76-1.3-2.04-.87-.28-1.66.07-2.26.92-.61.84-1.28,2.69-1.28,2.69l.33.28s.21-.77.91-2.19c.7-1.42,1.54-1.77,2.45-1.14.91.63.95,1.79.44,3.13-.51,1.35-1.21,2.71-1.21,2.71l.37.26.09-.22h0Zm-10.35-5.33c-.17.06-.33.13-.49.2-.13-.47-.52-1.77-.79-2.34-.34-.7-.82-.94-1.34-.94s-1.38.86-1.38,1.65.66,2.81.95,3.6c-.14.19-.27.39-.39.61,0,0-.67-2.2-.93-3.15-.27-.95-.24-1.53-.24-1.53.77-2.81,2.53-2.38,3.38-1.43s1.22,3.33,1.22,3.33h0Zm6.35,15.52c-.02-.26-.11-.73-.52-.69-.41.04-.73.62-.78.79-.04.17-.3.09-.3.09-.17-1.18.39-1.52,1.19-1.44.8.09.95,1.27.95,1.27l-.54-.02h0Zm-2.2,0c-.17,0-.32-.21-.32-.39,0-.17.41-.58.41-.58l.02.9-.11.06h0Zm-7.46,1.13l2.63-.58s-.46,1.27-1.54,1.46-1.91-.19-2.19-.65c0,0,.28-.09,1.09-.23h0Zm-.84-1.56v.12s-.05.24-.29.24-.17-.39-.07-.42c.1-.03.24-.03.35.07h0Zm18.53-10.18c.17-.33-.05-.36-.22-.33-.17.02-1.85,4.8-1.85,4.8l.29.05,1.78-4.51h0Zm-18.97-5.14c.07.25.14.5.21.74-1.98.11-1.94,1.56-1.83,2.42.11.88.66,2.26.87,2.77.21.5.46.98.67.96.21-.02.1-.36.1-.36l-.57-1.07c-.43-.93-.85-2.41-.66-3.42.16-.82,1.17-.86,1.55-.84.06.21.12.43.17.64-1.57.3-1.22,1.63-.96,2.38.22.64.73,1.35.91,1.58-.14.87-.27,1.95-.34,3.18-.11,1.76-.21,3.27-.28,4.34-.23-.4-.63-1.28-.84-2.65-.29-1.86-.28-2.5.03-3.39l.52,1.03.25-.18s-1.76-3.4-1.94-4.76c-.17-1.36-.44-3.06,2.15-3.38h0Zm-.21,13.9c-1.02-1.29-1.29-3.6-1.35-5.02-.04-1.14.13-1.96.22-2.31l-.44-.87s-.43,1.87-.25,4.42c.18,2.54,1.74,4.84,1.74,4.84,0,0,.03-.38.07-1.06h0Zm1.95-11.75c-.12-.4-.34-1.14-.59-2.05-.38-1.36,0-2.63,1.02-2.61.79.02,1.36,2.14,1.58,3.1-.16.08-.32.17-.48.26-.09-.44-.19-.95-.26-1.21-.14-.52-.46-.92-.96-.92s-.72.48-.44,1.5c.15.55.33,1.14.47,1.56-.12.12-.23.24-.33.37h0Zm.57-.6c-.18-.44-.4-1.04-.46-1.39-.1-.62.04-1.06.22-1.1.18-.04.42.08.58.62.1.33.22.94.31,1.37-.23.15-.44.32-.65.51h0Zm4.26,17.79l-.19.02s.24-.39.24-.84.04-1.24.04-1.24c0,0,.26.24.26.45s.13.75.34.75,1.86.06,2.07.06,1.08.32,1.88.43c.8.11,2.05.3,3.39-1.12,0,0,.24.11.24.45,0,.34-.52.75-1.12,1.03-.6.28-1.73.64-2.7.62-.97-.02-1.92-.52-2.74-.67-.82-.15-1.19-.11-1.71.04h0Zm-.43-15.59c-.55,0-.91-.04-1.33.13-.42.17-.91.44-.91.63,0,.19.09.32.34.21.25-.11.91-.51,1.41-.51s.8.27,1.24.36c.44.08.61-.36.38-.42-.23-.06-.76-.27-.76-.27l-.38-.13h0Zm-5.58-1.67c.12.42.25.84.39,1.26,0,0-.21.73-.44,2.02-.12-.15-.4-.57-.63-1.1-.28-.67-.57-1.98.67-2.18h0Zm9.47,6.73l.08.12s.21.26.76.29c.55.02,1.13-.55,1.11-1.3-.02-.75-.68-1.77-1.45-1.79-.78-.02-1.54.33-2.05.71-.51.39-.94.41-1.29.41s-.8.22-.8.35c0,.12.1.47.68.47s1.29-.26,1.78-.65c.49-.39,1.09-.71,1.56-.71s1.07.22,1.13.86c.06.63-.14,1.22-.72,1.2-.57-.02-.78.06-.78.06h0Zm-.44,8.13c1.68-.06,4.32-1.29,4.32-1.29.11,1.1-2.07,2.28-3.58,2.28-1.51,0-1.81-.99-1.81-.99h1.08Z" style="fill: #fff; fill-rule: evenodd; stroke-width: 0px;"/>
    <path d="m86.79,152.05l.14-.14s.43.13.51.9c.07.77-.66,1.45-1.4,1.48-.74.03-1.98-.4-2.52-2.98,0,0-.19-.1-.49.07-.3.18-.68.19-.97-.04-.28-.24-.28-.41-.28-.71,0-.3.76-.57,1.09-1.06.34-.48.32-.79.29-1.49-.03-.7-.1-.98-.1-.98,0,0,.97.66,1.16,1.68.19,1.02.45,2.31.98,3.1.52.78,1.31.51,1.59.16h0Zm-7.78-4.79l.49-.19s-.64.86-1.19,1.42c-.55.56-.97.59-1.35.49-.39-.1-.67-.68-.46-1.92,0,0,.22-.09.39.15.16.24.25.44.66.44s.89-.1,1.47-.38h0Zm4.25-1.01c.68,0,1.24-.56,1.24-1.24h0c0-.68-.56-1.24-1.24-1.24h-.71v-1.24c0-.67-.55-1.22-1.23-1.22h0c-.67,0-1.23.55-1.23,1.22v1.24h-.71c-.68,0-1.24.56-1.24,1.24h0c0,.68.56,1.24,1.24,1.24h.71v1.23c0,.67.55,1.22,1.23,1.22h0c.67,0,1.23-.55,1.23-1.22v-1.23h.71Zm-1.94-.34c-.5,0-.9-.4-.9-.9,0-.49.4-.9.9-.9s.9.4.9.9c0,.49-.41.9-.9.9h0Zm0-.22c-.37,0-.68-.3-.68-.68s.3-.68.68-.68.68.3.68.68c0,.37-.31.68-.68.68h0Zm1.64-3.05c.14-.59.28-1.07.21-1.89-.07-.83-.9-.95-.9-1.15s.24-.93,1.21-.65,1.45,1.62,1.04,2.63c-.42,1.01-1.14,1.39-1.35,1.39s-.31-.17-.31-.17l.1-.15h0Zm-3.69-1.5l.07,1.15s.09.4.09.55c0,.16-.42.21-.71-.07-.29-.27-.78-1.2-.8-2.03-.02-.83.36-1.62,1.11-1.67.74-.05,1.13.38,1.13.76,0,.38-.88.55-.88,1.31h0Zm2.64-7.33v-.35s-.11-.87-.11-1.7c0-.83.13-1.44.87-2.05.74-.61.94.13.68.52-.26.39-.26.87-.26,1.99s.02,2.05,0,2.55c-.02.5-.22,1.61-1.53,1.7-1.31.09-1.94-.81-1.94-2.03s-.04-3.08-.04-3.53-.41-.81-.41-1.03.2-.41.5-.41.89.65,1.11,1.2.17,1.37.17,2.18c0,.81-.09,1.48.37,1.51.46.02.59-.26.59-.55Z" style="fill: #ffe100; fill-rule: evenodd; stroke-width: 0px;"/>
    <path d="m74.17,148.59c.76-1.78,4.13-10.14,4.55-18.06h-4.53s-2.44,10.57-7.04,18.81c.56-.04,1.01.08,1.38.3.9-1.99,3.6-8.06,4.66-11.48,1.29-4.13,1.75-6.7,1.75-6.7h2.71c0,1.23-.97,5.88-2.54,10.78-1.04,3.26-2.04,5.91-2.58,7.31.61-.52,1.15-.82,1.64-.97Z" style="fill: #ffe100; fill-rule: evenodd; stroke-width: 0px;"/>
    <path d="m70.27,153.43c.28-.53,1.35-2.55,1.69-3.34.39-.91,1.29-3.49,2.44-6.88,1.15-3.39,2.61-9.23,2.74-11.26h-1.72s-.46,2.06-1.07,4.09c-.6,2-2.44,7.33-5.5,13.85.53.46.83,1.12.99,1.6.17.52.32,1.36.42,1.94Z" style="fill: #e60012; fill-rule: evenodd; stroke-width: 0px;"/>
    <path d="m60.7,152.36l.02,1.79s.68-.3,1.76-.7c1.08-.4,1.32-.59,1.63-.98.31-.39.26-1.01-.17-1.28-.43-.27-.72-.08-.96.11,0,0-.11.11-.21.03,0,0,.29-.42.63-.68.33-.26.67-.34.67-.34l-1.08-.72s.1.3-.11.86c-.21.56-.37.74-.39.72,0,0,.27-.68-.13-1.06-.4-.38-.97-.3-1.32.24-.35.55-.41.94-.32,2.01h0Zm3.75-5.45l.25,1.77s.63-.38,1.65-.92c1.02-.54,1.23-.75,1.49-1.18.26-.43.13-1.03-.33-1.25-.46-.21-.73.02-.94.23,0,0-.1.13-.21.06,0,0,.24-.45.54-.76.3-.3.62-.42.62-.42l-1.16-.58s.13.28,0,.87c-.14.58-.27.78-.3.76,0,0,.18-.71-.26-1.04-.45-.33-1-.18-1.28.41-.28.59-.28.99-.06,2.04h0Zm2.79-5.95l.46,1.73s.58-.45,1.53-1.1c.95-.65,1.13-.89,1.34-1.34.21-.46,0-1.04-.48-1.2-.48-.16-.72.1-.9.34,0,0-.08.14-.2.08,0,0,.18-.48.44-.81.26-.34.56-.49.56-.49l-1.22-.43s.17.27.1.86c-.07.59-.18.8-.21.79,0,0,.1-.73-.39-1-.48-.27-1.01-.06-1.22.56-.21.62-.16,1.01.18,2.03h0Zm2.19-6.37l.71,1.64s.5-.54,1.34-1.32c.84-.78.99-1.04,1.12-1.53.14-.48-.15-1.03-.65-1.11-.5-.08-.69.21-.84.47,0,0-.06.15-.18.11,0,0,.11-.5.31-.87.2-.37.48-.57.48-.57l-1.27-.25s.21.24.23.84c.02.59-.05.82-.08.81,0,0-.01-.73-.53-.93-.52-.2-1.01.09-1.12.73-.11.64,0,1.03.49,1.98h0Zm1.02-6.73l.95,1.51s.42-.6,1.14-1.5c.71-.9.82-1.18.88-1.67.06-.5-.3-1-.81-1.01-.51,0-.66.31-.76.59,0,0-.04.15-.16.13,0,0,.03-.51.18-.9.15-.39.39-.63.39-.63l-1.3-.06s.24.21.35.79c.11.58.07.82.04.81,0,0-.12-.72-.66-.84-.54-.12-.98.24-1,.89-.02.65.15,1.02.77,1.88h0Zm.2-6.32l1.18,1.34s.32-.66.88-1.66c.56-1,.62-1.29.6-1.79-.02-.5-.46-.93-.96-.86-.5.07-.6.41-.66.7,0,0-.01.16-.14.16,0,0-.05-.51.03-.92.08-.41.29-.69.29-.69l-1.29.15s.27.16.47.72c.21.56.2.8.17.8,0,0-.24-.69-.79-.72-.55-.03-.93.39-.85,1.04.09.64.31.98,1.07,1.73h0Zm-.72-6.48l1.23,1.3s.29-.67.81-1.7c.52-1.02.57-1.32.53-1.82-.04-.5-.5-.92-1-.82-.5.09-.58.43-.63.73,0,0,0,.16-.13.17,0,0-.07-.5,0-.92.07-.42.26-.7.26-.7l-1.28.2s.28.15.5.71c.23.55.23.79.2.79,0,0-.26-.68-.82-.69-.55-.01-.92.43-.8,1.07.11.64.35.96,1.14,1.69h0Zm-1.33-6.39l1.43,1.07s.17-.71.51-1.81c.34-1.1.33-1.39.21-1.88-.12-.49-.64-.82-1.12-.64-.47.17-.5.52-.49.82,0,0,.02.16-.1.19,0,0-.16-.48-.16-.91,0-.42.14-.73.14-.73l-1.23.42s.3.1.62.61c.32.5.36.74.33.74,0,0-.38-.63-.93-.54-.55.08-.83.58-.61,1.19.22.61.51.89,1.41,1.48h0Zm-2.06-5.54l1.53.94s.11-.73.34-1.85c.23-1.12.2-1.42.04-1.89-.17-.47-.72-.76-1.17-.54-.46.22-.45.56-.42.86,0,0,.04.15-.09.2,0,0-.2-.47-.24-.89-.05-.42.07-.74.07-.74l-1.19.52s.31.08.67.55c.36.47.43.7.4.71,0,0-.43-.59-.97-.46-.54.13-.77.65-.5,1.24.28.59.59.84,1.54,1.34h0Zm-2.52-5.19l1.53.94s.11-.73.34-1.85c.23-1.12.2-1.42.04-1.89-.17-.47-.72-.76-1.17-.54-.46.22-.45.56-.42.87,0,0,.04.15-.09.19,0,0-.2-.47-.24-.89-.05-.42.07-.74.07-.74l-1.19.52s.31.08.67.55c.36.47.43.7.4.71,0,0-.43-.59-.97-.46-.54.13-.77.65-.5,1.24.27.59.59.84,1.54,1.34Z" style="fill: #fff; fill-rule: evenodd; stroke-width: 0px;"/>
    <path d="m89.6,155.21c.32-.14.65-.28.97-.42.14-.06.27-.11.39-.14-2.14-3.55-3.95-10.05-4.67-13.67-.84-4.2-1.19-9.34-1.19-9.34h3.43c.55,9.39,4.96,18.81,5.55,20.23.3.7.76,1.81,1.14,2.75.03.02.05.03.05.03,1.82-.36,2.21,1.29,2.21,1.29.19-.05.38-.1.56-.15-.83-1.19-3.07-4.58-4.46-8.49-1.73-4.88-3.29-9.81-4.1-16.58h-5.31s.06,6.37.92,10.79c.81,4.11,2.53,10.65,4.49,13.71Z" style="fill: #ffe100; fill-rule: evenodd; stroke-width: 0px;"/>
    <path d="m91.38,154.56c.81-.12,1.25.19,1.25.19.95-.54,1.77-.43,2.24-.27-.53-1.11-2.46-5.18-3.24-7.35-.91-2.53-3.52-10.98-3.52-14.93h-2.43s.18,4.78,1.63,11.4c1.17,5.32,3.05,9.42,4.06,10.97Z" style="fill: #e60012; fill-rule: evenodd; stroke-width: 0px;"/>
    <path d="m54.59,145.31c1.49-1.83,4.31-5.77,6.38-11.68l-2.51-1.36s.11,3.32-3.87,3.25v9.79Z" style="fill: #e60012; fill-rule: evenodd; stroke-width: 0px;"/>
    <path d="m64.66,139.18l-.84-2.28c-.28.74-.65,1.62-1.11,2.61l.46,2.74c.6-1.13,1.1-2.17,1.5-3.08h0Zm-3.32-5.59c-.55,1.72-2.61,7.57-6.75,12.32v1.61c4.16-4.76,6.6-10.53,7.66-13.41l-.9-.52h0Zm-6.75,14.63c.69-.77,1.34-1.56,1.94-2.37l1.85.02c-.61.83-1.28,1.68-2.01,2.53h-.05s-1.73-.17-1.73-.17h0Zm0,.47v1.63c.49-.5.96-1,1.4-1.5l-1.4-.13h0Zm0,2.29c.53-.52,1.03-1.05,1.5-1.57l.09,2.41c-.13.13-.25.25-.39.38-.46-.34-.87-.68-1.2-1.01v-.21h0Zm1.58,1.49c.16-.15.31-.3.46-.45h.02s0-.02,0-.02c6.05-6.07,8.92-13.59,9.6-15.57l.85.49c-1.79,6.72-7.37,12.82-8.17,13.69-.67.74-1.86,1.9-2.21,2.23-.19-.13-.38-.25-.56-.38h0Zm9.67-16.27c-.16.46-.45,1.28-.91,2.36l-.86-2.33c.12-.34.22-.64.3-.89l1.47.86h0Zm-1.89-1.09c-.08.25-.17.55-.29.89l-1.81.38c.32-.77.59-1.45.8-2.03l1.3.76h0Zm-.48,1.4c-.29.77-.67,1.73-1.18,2.8l-1.83.09c.44-.89.83-1.73,1.17-2.51l1.84-.39h0Zm-.67,6.41c-.44.79-.93,1.62-1.47,2.47l-.42-2.51c.55-.93,1.03-1.81,1.44-2.64l.45,2.68h0Zm-.74-3.13c-.4.82-.87,1.71-1.42,2.64h0l-1.85.04c.53-.88,1-1.75,1.43-2.59l1.84-.09h0Zm-1.11,6.18c-.59.89-1.24,1.79-1.96,2.69l-.05-2.78c.59-.81,1.12-1.61,1.6-2.39l.41,2.48h0Zm-.59-3.07c-.49.81-1.04,1.65-1.65,2.51h0l-1.84-.02c.59-.81,1.13-1.64,1.63-2.45l1.86-.04h0Zm-1.82,6.32c-.6.73-1.24,1.45-1.92,2.15l-.09-2.46c.71-.81,1.36-1.62,1.96-2.41l.05,2.73h0Zm-1.41,3.9s.03.02.05.03l-.05-.03h0Zm.09.05c.13.08.25.16.38.24,0,0,0,0,0,0-.13-.08-.26-.16-.38-.24Z" style="fill: #ffe100; fill-rule: evenodd; stroke-width: 0px;"/>
    <path d="m48.4,176.29l2.76,3.04,2.8-2.58-.04-41.34s-1.31-.06-2.7-.15c.21,1.54.48,3.79.48,5.49,0,1.81-.22,3.53-.65,6.04-.43,2.51-.26,3.98-.26,4.69,0,.72.39,2.15.75,3.42.36,1.27.74,2.88.74,4s0,2.57-.37,3.86c-.37,1.29-.52,2.64-.64,4.18-.12,1.54.2,6.63.2,6.63h-.67s0-4.28,0-6.71.39-3.83.55-5.41c.16-1.57.16-3.91-.27-5.3-.43-1.39-.99-3.76-1.08-5.56-.09-1.8.18-2.72.4-5.08.22-2.36.57-5.08.18-7.72-.19-1.33-.49-2.15-.73-2.64-.49-.04-.94-.09-1.28-.14l-.16,41.29Z" style="fill: #fff; fill-rule: evenodd; stroke-width: 0px;"/>
    <path d="m47.11,132.74l8.6.52v-1.73c0-.51.51-1.04,1.02-1.06.51-.02,1.22.6,1.29,1.24.07.64.15,3.32-2.54,3.32-2.17,0-6.72-.48-8.38-.67v-1.63Z" style="fill: #ffe100; fill-rule: evenodd; stroke-width: 0px;"/>
    <path d="m49.25,127.98l.45-.16s.27-.09.62-.2c-.1.18-.16.36-.18.52-.04.24-.01.46.09.64h0c.1.19.27.33.5.42.07.03.15.05.23.06-.44.3-.95.25-1.34.37-.42.13-1.12.74-1.27,1.12-.14.38-.85.16-.87-.54-.02-.7.25-1.7,1.77-2.22h0Zm1.74-.57h.01c-.24.3-.37.57-.41.8-.02.14-.01.26.04.35h0c.05.09.13.16.25.2.12.05.27.07.45.06.39-.6.74-1.6.41-1.59-.14,0-.44.08-.75.17h0Zm-1.42.07c.28-.12.59-.22.89-.31-.04-.06-.08-.13-.1-.19-.09-.23-.11-.49-.07-.78.05-.33.18-.68.38-1.01-.3,0-.54.05-.54.05-2.33.58-2.74,1.26-2.75,1.99-.01.73.13.94.56.9.44-.04,1.13-.39,1.13-.39l.49-.26h0Zm1.64-2.27c.17.03.34.07.47.15.54.31.16,1.45.16,1.45,0,0-.38.08-.89.22-.08-.06-.13-.13-.17-.23-.06-.15-.07-.33-.04-.54.05-.33.21-.71.47-1.05h0Zm-2.71-1.48l.4-.13s.51-.18,1.03-.2c.09,0,.19,0,.3,0-.19.39-.19.71-.04,1.01.08.16.2.29.35.43-.1,0-.2,0-.3,0-.59,0-1.5.48-1.83.6-.33.13-.99-.33-.99-.71,0-.39.35-.79,1.08-.99h0Zm2.23-.28c-.2.32-.22.55-.12.74.12.23.41.44.77.68.06,0,.09,0,.09,0,0,0,.4-.51.04-.99-.19-.25-.48-.38-.78-.44h0Zm-1.77-.27l-.57.15s-.46-.05-.49-.51c-.04-.46.4-.73.77-.79.14-.02.39-.06.66-.03-.1.39-.1.88-.09,1.12-.11.02-.21.04-.28.06h0Zm.82-1.08c.3.13.58.39.72.89,0,0-.39.02-.8.06,0-.24,0-.66.07-.95h0Zm.62,9.74c-.11-.34-.55-.84-.89-.86-.5-.03-.87.15-.87.15,0,.5,1.76.71,1.76.71h0Zm2.99-3.04l.25-.02s-.56.64-1.69.96c-1.13.33-2.33-.17-3.06.82,0,0,.65-.03,1.1.22.45.25.75,1.1.75,1.1,0,0,2.19,0,2.66,0s1.46-.68,1.66-2.39c.2-1.71.04-3.32-.25-4.85-.3-1.53-1.02-3.15-2.19-3.15-1.18,0-2.33.46-2.33.46,0,0,.4,1.33,1.32,1.6l.78-.55s-.06,1.62-.06,1.92c0,.3.42.91.76,1.07,0,0-.82,1.21-.72,2.1,0,0,.12.73,1.04.71Z" style="fill: #fff; fill-rule: evenodd; stroke-width: 0px;"/>
    <path d="m52.45,119.17s-.37-.82-1.26-.76c-.88.06-1.27.99-.94,1.71,0,0-.61-.31-.7-1-.09-.69.41-1.56,1.15-1.63.78-.08,1.93.43,1.75,1.69h0Zm-1.09,1.56c1.43-.1,1.8-1.56,1.39-2.65-.49-1.08-1.69-1.35-2.46-1.12-.76.22-1.44,1.15-1.26,2.2.18,1.05,1.3,1.65,2.32,1.57Z" style="fill: #ffe100; fill-rule: evenodd; stroke-width: 0px;"/>
    <path d="m55.48,127.05c0-.63-.13-3.38-2.32-7.87.03-.62-.07-1.82-1.15-2.17-.29-.5-.6-1.02-.93-1.56,0,0-1.76-2.64-3.96-4.58v-.91c2.52,2.36,4.66,5.17,6.25,8.29,1.47,2.87,2.49,5.99,2.93,9.26l-.82-.45h0Zm-8.37-17.72c2.7,2.45,4.98,5.41,6.67,8.71,1.55,3.02,2.6,6.31,3.02,9.75l.34.19-.21-1.01-.06-.26.27-.02.99-.07h.19s.05.18.05.18l.21.81.59-.05-.37-1.94-1.75-.03h-.19s-.03-.2-.03-.2l-.33-2.03-.03-.17.16-.07.73-.33.22-.1.09.22.37.92.41-.04c-.06-.38-.18-1.13-.38-1.7l-1.54.36-.19.04-.08-.17-.89-1.99-.1-.23.24-.08.77-.25.19-.07.09.19.32.67.6-.31-.7-1.65-1.51.45-.19.06-.09-.18-1.02-2.04-.1-.21.21-.1.66-.33.17-.08.12.15.56.7.41-.34-.75-1.09-1.71.64-.18.07-.1-.17-1.09-1.85-.12-.21.22-.11,1-.5.18-.09.11.17.19.28.26-.23-.78-1.03-1.47,1.09-.19.14-.14-.2-1.34-1.94-.12-.17.16-.13.8-.66.18-.14.15.17.46.53.39-.36-1.06-1.36-1.3,1-.15.11-.14-.12-1.48-1.21-.17-.14.14-.18.77-1,.16-.2.19.17.59.54.24-.31-1.45-1.32-1.31,1.35v1.11h0Zm0-1.78l1.13-1.17.16-.16.17.15,1.78,1.62.16.14-.13.17-.53.68-.16.2-.18-.17-.58-.53-.48.62,1.16.95,1.33-1.03.18-.14.14.18,1.33,1.71.13.17-.16.14-.72.67-.18.17-.16-.19-.46-.54-.45.38,1.08,1.57,1.46-1.08.19-.14.14.18,1.04,1.38.13.17-.16.14-.61.54-.2.17-.15-.22-.23-.33-.6.3.86,1.47,1.7-.64.17-.06.1.15.97,1.42.12.17-.16.13-.75.62-.18.15-.15-.18-.59-.74-.29.14.83,1.66,1.52-.45.2-.06.08.19.86,2.04.08.2-.19.1-1.01.51-.21.11-.1-.22-.33-.7-.33.11.71,1.59,1.56-.36.19-.05.08.18c.34.84.51,2.23.51,2.23l.04.24-.25.02-.82.07h-.17s-.06-.15-.06-.15l-.35-.86-.35.16.27,1.67,1.75.03h.19s.04.19.04.19l.46,2.38.05.25-.26.02-1.05.09-.2.02-.05-.19-.21-.82-.53.04.24,1.14,2.55,1.41c-.03-4.63-1.5-9.57-3.83-14.05-2.4-4.61-5.71-8.73-9.29-11.5v1.06s.53.42.53.42l-.03.14-.2.87-.07.31-.23-.14v.75h0Zm0-1.71v-.05h0s0,.05,0,.05h0Zm0-2.29c3.75,2.82,7.21,7.09,9.71,11.88,2.41,4.62,3.91,9.74,3.88,14.52l.81.45c0-1.87-.05-5.02-2.4-11.73-2.53-7.23-7.98-12.85-9.52-14.18-.74-.64-1.53-1.28-2.16-1.76-.12.09-.22.17-.32.25v.58Z" style="fill: #ffe100; fill-rule: evenodd; stroke-width: 0px;"/>
    <path d="m59.55,95.11h0c1.19.8,2.01,2.51,3.96,6.22,2.14,4.06,3.3,7.9,3.3,7.9.83,2.81,2.11,8.32,2.2,15.1.09,6.78-1.13,9.61-1.13,9.61l-.99-.55c.3-1.73,1.09-6.71.91-10.45-.21-4.61-1.16-9.42-1.9-12.14-.72-2.62-2.99-9.34-6.94-15.41.19-.09.38-.18.57-.27Z" style="fill: #fff; fill-rule: evenodd; stroke-width: 0px;"/>
    <path d="m66.39,133.1c.25-1.1.79-3.85.95-7.91.01-.31.02-.63.02-.97-.71-.44-2.65-1.68-4.28-3.12-2.03-1.8-4.74-5.05-5.88-8.95-1.13-3.9-1.62-9.29.97-14.87,0,0,.31-.62.31-1.02,0-.04,0-.07-.02-.11-.25-.13-.5-.19-.75-.12,0,0-.01,0-.02,0-4.52,2.37-8.33,5.17-10.09,6.54,1.36.94,3.82,2.89,6.18,5.95,3.42,4.43,7.76,11.54,8.16,22.12l4.43,2.46Z" style="fill: #e60012; fill-rule: evenodd; stroke-width: 0px;"/>
    <path d="m58.02,99.63l1.14,1.34-1.63.81c.13-.75.29-1.48.49-2.15h0Zm-.83,5.42l1.43,1.05-1.43,1.06c-.03-.71-.03-1.41,0-2.11h0Zm.35,5.3l1.73.68-1.22,1.44c-.21-.69-.38-1.4-.51-2.12h0Zm2.86,6.86l.63-1.95-1.81.05c.36.67.76,1.3,1.18,1.89h0Zm1.83,2.19l1.65-.33-.2,1.7c-.47-.41-.96-.86-1.44-1.37h0Zm.02-17.34c-.14-.3-.28-.59-.43-.89-.15-.09-.35-.21-.58-.37-.58-.38-1.16-.64-1.2-1.4-.03-.53.12-.94.22-1.15-.04-.08-.09-.15-.13-.23,0,0-.17-.3-.43-.66-.09-.03-.18-.05-.28-.04-.62.04-1.18.81-1.13,1.55.04.75.47,1.77,1.37,2.19.76.36,2.17.85,2.59,1h0Zm5.04,19.34c-.02-.35-.04-.71-.08-1.07-1.19.37-1.99-.47-1.99-1.14,0-.71.34-1.44.62-1.72.28-.28.21-.52.21-.52-.39.02-1.85,1.35-1.89,2.85-.03,1.51,1.19,2.25,1.98,2.23.58-.02.97-.41,1.14-.62h0Zm-6.83-16.18c-.8,0-1.57-.7-1.57-1.5,0-.8.67-1.52,1.39-1.52s1.41.44,1.41.44c-.17-.87-1.59-1.35-2.76-1.2-1.17.15-1.87,1.74-1.87,2.36,0,.63.46,1.31,1.29,1.57.83.26,1.79.46,2.42.46s1.02-.46,1.02-.46l-1.33-.17h0Zm-.05,4.21c-1.34,0-1.55-.59-1.42-1.56.13-.97,2.4-1.35,2.4-1.35-.28-.34-1.44-.15-1.44-.15-1.7.25-3.01,1.39-2.72,2.64.3,1.24,1.36,1.46,2.33,1.37.98-.09,2.4-.91,2.4-.91l-1.55-.04h0Zm.94,4.24c-.76.1-1.3-.21-1.4-1.3-.1-1.09,2.09-1.94,2.09-1.94-1.14-.23-2.26.51-2.77.98-.51.48-.91,1.03-.76,2.05.15,1.03,1.07,1.6,2.09,1.44,1.03-.15,2.55-1.69,2.55-1.69l-1.8.45h0Zm4.15,2.55s-.83,2.01-2.01,2.5c-1.19.49-2.62-.38-2.62-1.92s2.22-2.91,2.51-2.91c0,0-1.34,1.34-1.28,2.33.07.98,1.14,1.3,1.81.96.58-.29.99-.78,1.59-.96h0Zm1.28.49c-.41-.38-2.78-2.7-3.77-5.33-1.03-2.74-1.22-7.14-.74-9.29.39.83.75,1.65,1.09,2.47.01.77.07,2.51.39,4.4.39,2.33,1.85,4.88,2.66,5.65.14.72.27,1.42.37,2.11Z" style="fill: #fff; fill-rule: evenodd; stroke-width: 0px;"/>
    <path d="m141.36,182.98c.25,0,2.55-5.23,5.21-8.76,2.66-3.53,5.31-6.6,6.61-9.91,1.3-3.3,1.1-5.8-.09-7.61-1.18-1.81-3.19-2.8-5.51-2.59-2.32.22-3.75,2.08-4.28,4.45,0,0-.17.89-.51.94-.34.05-.65-.29-.27-3.14.38-2.85,1.22-6,3.04-7.66h-8.74c1.79,1.67,2.61,4.81,2.99,7.66.38,2.85.07,3.19-.26,3.14-.33-.05-.5-.94-.5-.94-.52-2.37-1.92-4.23-4.2-4.45-2.28-.22-4.25.77-5.41,2.59-1.16,1.81-1.36,4.31-.08,7.61,1.27,3.3,3.87,6.38,6.48,9.91,2.61,3.53,5.25,8.76,5.5,8.76Z" style="fill: #231815; fill-rule: evenodd; stroke-width: 0px;"/>
    <polygon points="157.1 243.12 143.24 243.12 143.24 237.51 147.4 237.51 147.4 218.88 135.81 237.51 139.32 237.51 139.32 243.12 125.47 243.12 125.47 237.51 129.21 237.51 139.12 221.58 127.96 197.71 125.74 197.71 125.74 192.1 139.2 192.1 139.2 197.71 134.14 197.71 142.65 215.92 147.4 208.28 147.4 197.71 142.75 197.71 142.75 192.1 156.2 192.1 156.2 197.71 153.02 197.71 153.02 237.51 157.1 237.51 157.1 243.12" style="fill: #231815; stroke-width: 0px;"/>
    <path d="m47.11,62.82c0-1.61,1.08-2.93,2.39-2.93h64.57c1.32,0,2.39,1.32,2.39,2.93v122.97c0,1.61-1.08,2.93-2.39,2.93H49.5c-1.32,0-2.39-1.32-2.39-2.93V62.82Z" style="fill: none; fill-rule: evenodd; stroke: #231815; stroke-miterlimit: 22.93; stroke-width: 1.5px;"/>
    <path d="m22.41,67c-.25,0-2.55,5.23-5.21,8.76-2.66,3.53-5.31,6.6-6.61,9.91-1.3,3.3-1.1,5.8.09,7.61,1.18,1.81,3.19,2.8,5.51,2.59,2.32-.22,3.75-2.08,4.28-4.45,0,0,.17-.89.51-.94.34-.05.65.29.27,3.14-.38,2.85-1.22,6-3.04,7.66h8.74c-1.79-1.67-2.61-4.81-2.99-7.66-.38-2.85-.07-3.19.26-3.14.33.05.5.94.5.94.52,2.37,1.92,4.23,4.2,4.45,2.28.22,4.25-.77,5.41-2.59,1.16-1.81,1.36-4.31.08-7.61-1.27-3.3-3.87-6.38-6.48-9.91-2.61-3.53-5.25-8.76-5.5-8.76Z" style="fill: #231815; fill-rule: evenodd; stroke-width: 0px;"/>
    <polygon points="6.67 6.85 20.53 6.85 20.53 12.46 16.37 12.46 16.37 31.09 27.96 12.46 24.45 12.46 24.45 6.85 38.3 6.85 38.3 12.46 34.56 12.46 24.65 28.39 35.81 52.26 38.03 52.26 38.03 57.87 24.57 57.87 24.57 52.26 29.64 52.26 21.12 34.06 16.37 41.7 16.37 52.26 21.03 52.26 21.03 57.87 7.57 57.87 7.57 52.26 10.75 52.26 10.75 12.46 6.67 12.46 6.67 6.85" style="fill: #231815; stroke-width: 0px;"/>
  </g>
</svg>