<?xml version="1.0" encoding="UTF-8"?>
<svg id="_图层_2" data-name="图层 2" xmlns="http://www.w3.org/2000/svg" viewBox="0 0 163.58 248.61">
  <g id="_图层_1-2" data-name="图层 1">
    <path d="m1,6.6c0-3.08,2.51-5.6,5.57-5.6h150.43c3.06,0,5.57,2.52,5.57,5.6v235.41c0,3.08-2.51,5.6-5.57,5.6H6.57c-3.06,0-5.57-2.52-5.57-5.6V6.6Z" style="fill: #fff; fill-rule: evenodd; stroke: #231815; stroke-miterlimit: 22.93; stroke-width: 2px;"/>
    <path d="m81.74,94.87c-.16,0-1.64,3.38-3.36,5.65-1.72,2.28-3.43,4.26-4.26,6.39-.84,2.13-.71,3.74.06,4.91.76,1.17,2.06,1.81,3.55,1.67,1.5-.14,2.42-1.34,2.76-2.87,0,0,.11-.58.33-.61.22-.03.42.19.17,2.03-.25,1.84-.79,3.87-1.97,4.95h5.64c-1.16-1.08-1.69-3.1-1.93-4.95s-.05-2.06.17-2.03c.21.03.32.61.32.61.34,1.53,1.24,2.73,2.71,2.87,1.47.14,2.74-.5,3.49-1.67.75-1.17.88-2.78.05-4.91-.82-2.13-2.5-4.12-4.18-6.39-1.69-2.28-3.39-5.65-3.55-5.65h0Zm-17.26-18.38c-.16,0-1.64,3.38-3.36,5.65-1.72,2.28-3.43,4.26-4.26,6.39-.84,2.13-.71,3.74.06,4.91.76,1.17,2.06,1.81,3.55,1.67,1.5-.14,2.42-1.34,2.76-2.87,0,0,.11-.58.33-.61.22-.03.42.19.17,2.03-.25,1.84-.79,3.87-1.97,4.95h5.64c-1.16-1.08-1.69-3.1-1.93-4.95s-.05-2.06.17-2.03c.21.03.32.61.32.61.34,1.53,1.24,2.73,2.71,2.87,1.47.14,2.74-.5,3.49-1.67.75-1.17.88-2.78.05-4.91-.82-2.13-2.5-4.12-4.18-6.39-1.69-2.28-3.39-5.65-3.55-5.65h0Zm17.36,77.26c.16,0,1.64-3.38,3.36-5.65,1.72-2.28,3.43-4.26,4.26-6.39.84-2.13.71-3.75-.06-4.91-.76-1.17-2.06-1.81-3.55-1.67-1.5.14-2.42,1.34-2.76,2.87,0,0-.11.58-.33.61-.22.03-.42-.19-.17-2.03.25-1.84.79-3.87,1.97-4.95h-5.64c1.16,1.08,1.69,3.1,1.93,4.95s.05,2.06-.17,2.03-.32-.61-.32-.61c-.34-1.53-1.24-2.73-2.71-2.87-1.47-.14-2.74.5-3.49,1.67-.75,1.17-.88,2.78-.06,4.91.82,2.13,2.5,4.12,4.18,6.39,1.69,2.28,3.39,5.65,3.55,5.65h0Zm17.15-40.5c-.16,0-1.64,3.38-3.36,5.65-1.72,2.28-3.43,4.26-4.26,6.39-.84,2.13-.71,3.74.06,4.91.76,1.17,2.06,1.81,3.55,1.67,1.5-.14,2.42-1.34,2.76-2.87,0,0,.11-.58.33-.61s.42.19.17,2.03c-.25,1.84-.79,3.87-1.97,4.95h5.64c-1.16-1.08-1.69-3.1-1.93-4.95-.24-1.84-.05-2.06.17-2.03s.32.61.32.61c.34,1.53,1.24,2.73,2.71,2.87,1.47.14,2.74-.5,3.49-1.67.75-1.17.88-2.78.05-4.91-.82-2.13-2.5-4.12-4.18-6.39s-3.39-5.65-3.55-5.65h0Zm-34.51,0c-.16,0-1.64,3.38-3.36,5.65-1.72,2.28-3.43,4.26-4.26,6.39-.84,2.13-.71,3.74.06,4.91.76,1.17,2.06,1.81,3.55,1.67,1.5-.14,2.42-1.34,2.76-2.87,0,0,.11-.58.33-.61.22-.03.42.19.17,2.03-.25,1.84-.79,3.87-1.97,4.95h5.64c-1.16-1.08-1.69-3.1-1.93-4.95-.24-1.84-.05-2.06.17-2.03.21.03.32.61.32.61.34,1.53,1.24,2.73,2.71,2.87,1.47.14,2.74-.5,3.49-1.67.75-1.17.88-2.78.05-4.91-.82-2.13-2.5-4.12-4.18-6.39s-3.39-5.65-3.55-5.65h0Zm.1,58.88c.16,0,1.64-3.38,3.36-5.65,1.72-2.28,3.43-4.26,4.26-6.39.84-2.13.71-3.74-.06-4.91-.76-1.17-2.06-1.81-3.55-1.67-1.5.14-2.42,1.34-2.76,2.87,0,0-.11.58-.33.61s-.42-.19-.17-2.03c.25-1.84.79-3.87,1.97-4.95h-5.64c1.16,1.08,1.69,3.1,1.93,4.95.24,1.84.05,2.06-.17,2.03-.21-.03-.32-.61-.32-.61-.34-1.53-1.24-2.73-2.71-2.87-1.47-.14-2.74.5-3.49,1.67-.75,1.17-.88,2.78-.05,4.91.82,2.13,2.5,4.12,4.18,6.39,1.69,2.28,3.39,5.65,3.55,5.65h0Zm34.51,0c.16,0,1.64-3.38,3.36-5.65,1.72-2.28,3.43-4.26,4.26-6.39.84-2.13.71-3.74-.06-4.91-.76-1.17-2.06-1.81-3.55-1.67-1.5.14-2.42,1.34-2.76,2.87,0,0-.11.58-.33.61-.22.03-.42-.19-.17-2.03.25-1.84.79-3.87,1.97-4.95h-5.64c1.16,1.08,1.69,3.1,1.93,4.95.24,1.84.05,2.06-.17,2.03s-.32-.61-.32-.61c-.34-1.53-1.24-2.73-2.71-2.87-1.47-.14-2.74.5-3.49,1.67-.75,1.17-.88,2.78-.05,4.91.82,2.13,2.5,4.12,4.18,6.39,1.69,2.28,3.39,5.65,3.55,5.65h0Zm-.1-95.64c-.16,0-1.64,3.38-3.36,5.65-1.72,2.28-3.43,4.26-4.26,6.39-.84,2.13-.71,3.74.06,4.91.76,1.17,2.06,1.81,3.55,1.67,1.5-.14,2.42-1.34,2.76-2.87,0,0,.11-.58.33-.61s.42.19.17,2.03c-.25,1.84-.79,3.87-1.97,4.95h5.64c-1.16-1.08-1.69-3.1-1.93-4.95s-.05-2.06.17-2.03.32.61.32.61c.34,1.53,1.24,2.73,2.71,2.87,1.47.14,2.74-.5,3.49-1.67.75-1.17.88-2.78.05-4.91-.82-2.13-2.5-4.12-4.18-6.39-1.69-2.28-3.39-5.65-3.55-5.65Z" style="fill: #231815; fill-rule: evenodd; stroke-width: 0px;"/>
    <g>
      <path d="m133.87,218.56c-1.46-.66-2.8-1.52-3.97-2.52-3.05-2.63-4.94-6.29-4.94-10.34s1.89-7.71,4.94-10.34c2.94-2.53,6.98-4.11,11.38-4.11,4.41,0,8.44,1.57,11.39,4.11,3.05,2.63,4.94,6.29,4.94,10.34s-1.89,7.71-4.94,10.34c-1.17,1-2.5,1.86-3.97,2.52,1.02.54,1.96,1.19,2.8,1.93,2.74,2.4,4.45,5.74,4.45,9.44s-1.7,7.04-4.45,9.44c-2.64,2.31-6.26,3.75-10.22,3.75-3.96,0-7.58-1.43-10.22-3.75-2.74-2.4-4.45-5.74-4.45-9.44s1.7-7.04,4.45-9.44c.84-.74,1.78-1.39,2.8-1.93h0Zm7.42-4.03c3.04,0,5.77-1.04,7.72-2.73,1.85-1.59,2.99-3.75,2.99-6.11s-1.15-4.52-2.99-6.11c-1.95-1.68-4.69-2.73-7.72-2.73-3.04,0-5.77,1.04-7.72,2.73-1.85,1.59-2.99,3.75-2.99,6.11s1.15,4.52,2.99,6.11c1.95,1.68,4.68,2.73,7.72,2.73h0Zm0,22.98c2.57,0,4.88-.9,6.54-2.35,1.55-1.36,2.52-3.21,2.52-5.23s-.96-3.87-2.52-5.23c-1.65-1.45-3.97-2.34-6.54-2.34-2.57,0-4.88.9-6.54,2.34-1.55,1.36-2.52,3.22-2.52,5.23s.96,3.87,2.52,5.23c1.65,1.45,3.97,2.35,6.54,2.35Z" style="fill: #231815; stroke-width: 0px;"/>
      <path d="m141.36,182.98c.25,0,2.55-5.23,5.21-8.76,2.66-3.53,5.31-6.6,6.61-9.91,1.3-3.3,1.1-5.8-.09-7.61-1.18-1.81-3.19-2.8-5.51-2.59-2.32.22-3.74,2.08-4.28,4.45,0,0-.17.89-.51.94-.34.05-.65-.29-.27-3.14.38-2.85,1.22-6,3.05-7.66h-8.74c1.79,1.67,2.61,4.81,2.99,7.66.38,2.85.07,3.19-.26,3.14-.33-.05-.5-.94-.5-.94-.52-2.37-1.92-4.23-4.2-4.45-2.28-.22-4.25.77-5.41,2.59-1.16,1.81-1.36,4.31-.09,7.61,1.27,3.3,3.87,6.38,6.48,9.91s5.25,8.76,5.5,8.76Z" style="fill: #231815; fill-rule: evenodd; stroke-width: 0px;"/>
    </g>
    <path d="m47.11,62.82c0-1.61,1.08-2.93,2.39-2.93h64.57c1.32,0,2.39,1.32,2.39,2.93v122.97c0,1.61-1.08,2.93-2.39,2.93H49.5c-1.32,0-2.39-1.32-2.39-2.93V62.82Z" style="fill: none; fill-rule: evenodd; stroke: #231815; stroke-miterlimit: 22.93; stroke-width: 1.5px;"/>
    <g>
      <path d="m29.9,31.41c1.46.66,2.8,1.52,3.97,2.52,3.05,2.63,4.94,6.29,4.94,10.34s-1.89,7.71-4.94,10.34c-2.94,2.53-6.98,4.11-11.38,4.11-4.41,0-8.44-1.57-11.39-4.11-3.05-2.63-4.94-6.29-4.94-10.34s1.89-7.71,4.94-10.34c1.17-1,2.5-1.86,3.97-2.52-1.02-.54-1.96-1.19-2.8-1.93-2.74-2.4-4.45-5.74-4.45-9.44s1.7-7.04,4.45-9.44c2.64-2.31,6.26-3.75,10.22-3.75s7.58,1.43,10.22,3.75c2.74,2.4,4.45,5.74,4.45,9.44s-1.7,7.04-4.45,9.44c-.84.74-1.78,1.39-2.8,1.93h0Zm-7.42,4.03c-3.04,0-5.77,1.04-7.72,2.73-1.85,1.59-2.99,3.75-2.99,6.11s1.15,4.52,2.99,6.11c1.95,1.68,4.69,2.73,7.72,2.73,3.04,0,5.77-1.04,7.72-2.73,1.85-1.59,2.99-3.75,2.99-6.11s-1.15-4.52-2.99-6.11c-1.95-1.68-4.68-2.73-7.72-2.73h0Zm0-22.98c-2.57,0-4.88.9-6.54,2.35-1.55,1.36-2.52,3.21-2.52,5.23s.96,3.87,2.52,5.23c1.65,1.45,3.97,2.34,6.54,2.34,2.57,0,4.88-.9,6.54-2.34,1.55-1.36,2.52-3.22,2.52-5.23s-.96-3.87-2.52-5.23c-1.65-1.45-3.97-2.35-6.54-2.35Z" style="fill: #231815; stroke-width: 0px;"/>
      <path d="m22.41,67c-.25,0-2.55,5.23-5.21,8.76-2.66,3.53-5.31,6.6-6.61,9.91-1.3,3.3-1.1,5.8.09,7.61,1.18,1.81,3.19,2.8,5.51,2.59,2.32-.22,3.74-2.08,4.28-4.45,0,0,.17-.89.51-.94.34-.05.65.29.27,3.14-.38,2.85-1.22,6-3.05,7.66h8.74c-1.79-1.67-2.61-4.81-2.99-7.66-.38-2.85-.07-3.19.26-3.14.33.05.5.94.5.94.52,2.37,1.92,4.23,4.2,4.45,2.28.22,4.25-.77,5.41-2.59,1.16-1.81,1.36-4.31.09-7.61-1.27-3.3-3.87-6.38-6.48-9.91-2.61-3.53-5.25-8.76-5.5-8.76Z" style="fill: #231815; fill-rule: evenodd; stroke-width: 0px;"/>
    </g>
  </g>
</svg>