<?xml version="1.0" encoding="UTF-8"?>
<svg id="_图层_2" data-name="图层 2" xmlns="http://www.w3.org/2000/svg" viewBox="0 0 210.38 79.93">
  <g id="_图层_7" data-name="图层 7">
    <g>
      <ellipse cx="104.67" cy="27.8" rx="104.37" ry="27.55" style="fill: #eb94a5; stroke: #be717e; stroke-miterlimit: 10; stroke-width: .51px;"/>
      <path d="m104.57,9.57c-36.85,0-66.72,8.05-66.72,17.98s29.87,17.98,66.72,17.98,66.72-8.05,66.72-17.98-29.87-17.98-66.72-17.98Zm.32,33.95c-33.7,0-61.02-7.04-61.02-15.73s27.32-15.73,61.02-15.73,61.02,7.04,61.02,15.73-27.32,15.73-61.02,15.73Z" style="fill: #fff; stroke-width: 0px;"/>
      <path d="m133.67,41.66c-3.74.52-7.72.94-11.88,1.25l-.3,2.04c5.15-.36,10.06-.89,14.64-1.55-.75-.53-1.66-1.17-2.46-1.74Z" style="fill: #be717e; stroke-width: 0px;"/>
      <path d="m157.48,35.77c-2.44,1.07-5.36,2.05-8.67,2.94l.16,2.27c5.09-1.22,9.47-2.65,12.98-4.24l-4.46-.97Z" style="fill: #be717e; stroke-width: 0px;"/>
      <path d="m43.87,27.79c0-1.24.55-2.44,1.6-3.59l-6.23-.31c-.91,1.18-1.39,2.41-1.39,3.67,0,.49.08.98.22,1.47h5.98c-.12-.41-.18-.81-.18-1.23Z" style="fill: #be717e; stroke-width: 0px;"/>
      <path d="m165.88,28.28c-.21,1.79-1.58,3.5-3.92,5.08l5.48.22c2.2-1.67,3.52-3.45,3.8-5.3h-5.36Z" style="fill: #be717e; stroke-width: 0px;"/>
      <path d="m163.66,19.19l-5.07,1.12c2.81,1.34,4.89,2.79,6.1,4.33l5.34-.59c-1.26-1.72-3.43-3.35-6.37-4.86Z" style="fill: #be717e; stroke-width: 0px;"/>
      <path d="m136.96,14.4c5.3.85,10.06,1.89,14.12,3.11l-.17-2.9c-3.48-.91-7.32-1.71-11.46-2.4l-2.48,2.19Z" style="fill: #be717e; stroke-width: 0px;"/>
      <path d="m104.67,12.06c.07,0,.14,0,.22,0,5.75,0,11.31.21,16.58.59l-.7-2.54c-4.67-.31-9.52-.5-14.52-.53l-1.57,2.49Z" style="fill: #be717e; stroke-width: 0px;"/>
      <path d="m47.14,18.39l2.64,2.63c2.7-1.46,6.24-2.79,10.46-3.96l-3.82-1.96c-3.54.99-6.65,2.1-9.28,3.29Z" style="fill: #be717e; stroke-width: 0px;"/>
      <path d="m72.24,11.82l-.31,2.73c4.79-.79,10.03-1.42,15.61-1.84l-1.53-2.43c-4.84.38-9.46.9-13.78,1.54Z" style="fill: #be717e; stroke-width: 0px;"/>
      <path d="m103.77,43.52c-4.48-.02-8.85-.17-13.04-.42l-1.74,1.95c4.93.32,10.08.49,15.37.49l-.58-2.02Z" style="fill: #be717e; stroke-width: 0px;"/>
      <path d="m72.99,41.2c-3.69-.59-7.13-1.27-10.25-2.04l-3.17,1.66c4.23,1.04,8.96,1.94,14.09,2.66l-.66-2.29Z" style="fill: #be717e; stroke-width: 0px;"/>
      <path d="m49.4,37.66l2.94-1.88c-2.39-1.04-4.34-2.16-5.75-3.35l-5.5.65c1.97,1.64,4.78,3.18,8.31,4.57Z" style="fill: #be717e; stroke-width: 0px;"/>
      <path d="m62.01,9.57l23.45-2.32-5.18-6.23c-10.95.69-21.23,1.84-30.53,3.36l12.26,5.2Z" style="fill: #fff; stroke: #be717e; stroke-miterlimit: 10; stroke-width: .51px;"/>
      <path d="m154.57,3.6l-10.55,5.96s13,1.39,18.89,3.88l17.8-4.51c-7.56-2.12-16.37-3.93-26.14-5.33Z" style="fill: #fff; stroke: #be717e; stroke-miterlimit: 10; stroke-width: .51px;"/>
      <path d="m182.63,33.59l22.04,2.12c2.84-2.5,4.37-5.16,4.37-7.91,0-.08,0-.15-.01-.22l-24.01.22s.29,3.31-2.39,5.78Z" style="fill: #fff; stroke: #be717e; stroke-miterlimit: 10; stroke-width: .51px;"/>
      <path d="m146.99,46.27c-12.92,2.93-23.26,2.42-23.26,2.42l4.82,5.94c10.56-.65,20.5-1.73,29.56-3.16l-11.12-5.2Z" style="fill: #fff; stroke: #be717e; stroke-miterlimit: 10; stroke-width: .51px;"/>
      <path d="m31.18,47.12c7.39,1.95,15.89,3.6,25.22,4.9l9.68-5.4c-9.26-.29-19.16-3.71-19.16-3.71l-15.74,4.21Z" style="fill: #fff; stroke: #be717e; stroke-miterlimit: 10; stroke-width: .51px;"/>
      <path d="m.31,27.8c0,.2.01.39.03.59l24.31-.17s.24-3.86,3.3-5.91l-23.98-1.76c-2.38,2.31-3.66,4.74-3.66,7.25Z" style="fill: #fff; stroke: #be717e; stroke-miterlimit: 10; stroke-width: .51px;"/>
      <path d="m.31,28.42s2.16,26.64,107.85,26.47c105.7-.17,100.48-29.87,100.48-29.87,0,0,3.23,16.38-.01,30.38,0,0-5.56,21.14-99.54,24.22,0,0-88.75.38-108.02-23.7L.31,28.42Z" style="fill: #fff; opacity: .5; stroke: #231815; stroke-miterlimit: 10; stroke-width: .61px;"/>
      <path d="m.31,28.42s2.16,26.64,107.85,26.47c105.7-.17,100.48-29.87,100.48-29.87,0,0,3.23,16.38-.01,30.38,0,0-5.56,21.14-99.54,24.22,0,0-88.75.38-108.02-23.7L.31,28.42Z" style="fill: #eb94a5; stroke: #be717e; stroke-miterlimit: 10; stroke-width: .61px;"/>
      <path d="m55.83,52.14c-10.08-1.33-18.23-3.05-24.82-4.96-.22,1.93-.07,17.04.01,23.64,7.77,2.24,16.33,3.91,24.81,5.16v-23.83Z" style="fill: #fff; stroke: #be717e; stroke-miterlimit: 10; stroke-width: .6px;"/>
      <polygon points="81.24 46.27 109.82 47.18 107.3 53.96 77.22 53.23 81.24 46.27" style="fill: none; stroke: #fff; stroke-miterlimit: 10; stroke-width: .16px;"/>
      <ellipse cx="101.03" cy="48.43" rx="1.61" ry=".49" style="fill: #fff; stroke-width: 0px;"/>
      <ellipse cx="99.31" cy="51.8" rx="1.61" ry=".49" style="fill: #fff; stroke-width: 0px;"/>
      <ellipse cx="93.92" cy="49.89" rx="1.61" ry=".49" style="fill: #fff; stroke-width: 0px;"/>
      <ellipse cx="88.22" cy="47.94" rx="1.61" ry=".49" style="fill: #fff; stroke-width: 0px;"/>
      <ellipse cx="86.62" cy="51.32" rx="1.61" ry=".49" style="fill: #fff; stroke-width: 0px;"/>
      <ellipse cx="29.55" cy="34.07" rx="1.61" ry=".49" style="fill: #fff; stroke-width: 0px;"/>
      <ellipse cx="34.24" cy="37.04" rx="1.61" ry=".49" style="fill: #fff; stroke-width: 0px;"/>
      <ellipse cx="22.61" cy="38.35" rx="1.61" ry=".49" style="fill: #fff; stroke-width: 0px;"/>
      <ellipse cx="17.68" cy="35.07" rx="1.61" ry=".49" style="fill: #fff; stroke-width: 0px;"/>
      <polygon points="9.4 34.07 19.29 40.93 45.01 38.35 34.76 31.21 9.4 34.07" style="fill: none; stroke: #fff; stroke-miterlimit: 10; stroke-width: .16px;"/>
      <ellipse cx="38.27" cy="16.12" rx="1.61" ry=".49" style="fill: #fff; stroke-width: 0px;"/>
      <ellipse cx="33.1" cy="15.1" rx="1.61" ry=".49" style="fill: #fff; stroke-width: 0px;"/>
      <ellipse cx="28.14" cy="14.13" rx="1.61" ry=".49" style="fill: #fff; stroke-width: 0px;"/>
      <ellipse cx="35.85" cy="11.47" rx="1.61" ry=".49" style="fill: #fff; stroke-width: 0px;"/>
      <ellipse cx="40.89" cy="12.44" rx="1.61" ry=".49" style="fill: #fff; stroke-width: 0px;"/>
      <ellipse cx="45.98" cy="13.41" rx="1.61" ry=".49" style="fill: #fff; stroke-width: 0px;"/>
      <polygon points="18.1 13.89 39.88 18.39 55.62 12.68 33.6 8.72 18.1 13.89" style="fill: none; stroke: #fff; stroke-miterlimit: 10; stroke-width: .16px;"/>
      <path d="m102.96,1.01l-3.54,6.98,27.04,1.03s3.35-6.98,3.35-7.08-26.85-.92-26.85-.92Z" style="fill: none; stroke: #fff; stroke-miterlimit: 10; stroke-width: .16px;"/>
      <ellipse cx="108.65" cy="6.6" rx="1.61" ry=".49" style="fill: #fff; stroke-width: 0px;"/>
      <ellipse cx="123.07" cy="3.68" rx="1.61" ry=".49" style="fill: #fff; stroke-width: 0px;"/>
      <ellipse cx="175.28" cy="17.99" rx="1.61" ry=".49" style="fill: #fff; stroke-width: 0px;"/>
      <ellipse cx="183.6" cy="18.68" rx="1.61" ry=".49" style="fill: #fff; stroke-width: 0px;"/>
      <ellipse cx="191.94" cy="19.68" rx="1.61" ry=".49" style="fill: #fff; stroke-width: 0px;"/>
      <polygon points="166.59 16.49 191.36 13.85 202.49 20.16 176.88 23.38 166.59 16.49" style="fill: none; stroke: #fff; stroke-miterlimit: 10; stroke-width: .16px;"/>
      <polygon points="153.14 41.57 169.65 35.77 191.67 40.15 175.4 45.77 153.14 41.57" style="fill: none; stroke: #fff; stroke-miterlimit: 10; stroke-width: .16px;"/>
      <ellipse cx="172.4" cy="41.25" rx="1.61" ry=".49" style="fill: #fff; stroke-width: 0px;"/>
      <path d="m128.81,78.61c11.33-.8,21.02-1.92,29.3-3.22v-23.67c-8.28,1.23-17.97,2.17-29.3,2.69v24.19Z" style="fill: #fff; stroke: #be717e; stroke-miterlimit: 10; stroke-width: .61px;"/>
      <path d="m208.45,27.63c-.41,1.84-1.5,4.49-4.32,7.43.6,3.23,1.68,11.59.3,25.37,3.64-2.94,4.18-5.02,4.18-5.02.06-.25.11-.5.16-.74.13-7,.28-20.29-.33-27.04Z" style="fill: #fff; stroke: #be717e; stroke-miterlimit: 10; stroke-width: .61px;"/>
      <g>
        <path d="m91.11,40.47l.55-3.31c-3.31-.12-5.69-.97-7.11-2.51s-1.69-3.44-1.04-5.81h6.48c-.17,1.18-.07,2.06.29,2.6s1.05.84,2.04.88l.88-5.17c-3-.58-5.06-1.37-6.18-2.34-1.09-.95-1.41-2.17-1-3.64.44-1.56,1.52-2.77,3.21-3.67s3.67-1.31,6.09-1.35l.22-1.36h2.31l-.17,1.34c2.3.04,4.07.48,5.33,1.32s1.98,2.12,2.05,3.79h-5.57c.01-.73-.17-1.27-.54-1.64s-.93-.55-1.69-.57l-.48,3.75c3.08.61,5.28,1.4,6.57,2.38s2,2.43,1.99,4.28c-.02,2.26-.88,4.09-2.63,5.4s-4.51,2.15-8.09,2.35l-.43,3.27h-3.09Zm3.37-18.14l.53-3.35h-.12c-.89,0-1.59.13-2.08.39s-.81.66-.92,1.21c-.08.42.06.76.44,1.03s1.1.51,2.15.72Zm.6,9.99c1.18,0,2.09-.19,2.73-.56s.99-.92,1.05-1.63c.05-.61-.15-1.09-.61-1.44s-1.31-.68-2.56-.99l-.61,4.63Z" style="fill: #fff; stroke: #be717e; stroke-miterlimit: 10; stroke-width: .68px;"/>
        <path d="m107.4,36.73c0-.07,0-.18-.02-.32s-.02-.25-.02-.32c-.03-1.83.52-3.49,1.62-4.99,1.06-1.45,2.76-2.9,5.05-4.35.58-.39,1.39-.87,2.42-1.45,2.38-1.37,3.45-2.53,3.27-3.48-.14-.71-.49-1.26-1.05-1.66s-1.25-.58-2.09-.58c-1.05,0-1.79.26-2.25.78s-.64,1.35-.52,2.47l.04.33h-6.22c0-.07,0-.16-.02-.28s-.02-.2-.02-.25c-.05-2.23.74-3.89,2.32-5.04s3.67-1.66,6.44-1.66c2.54,0,4.67.46,6.44,1.39s2.98,2.28,3.47,3.99c.33,1.17.29,2.18-.14,3s-1.58,1.8-3.44,2.89c-.22.14-.59.35-1.1.64-1.87,1.05-3.31,2-4.31,2.83h11.59l1.73,6.08h-23.18Z" style="fill: #fff; stroke: #be717e; stroke-miterlimit: 10; stroke-width: .68px;"/>
      </g>
    </g>
  </g>
</svg>