<?xml version="1.0" encoding="UTF-8"?>
<svg id="_图层_2" data-name="图层 2" xmlns="http://www.w3.org/2000/svg" viewBox="0 0 163.57 248.61">
  <g id="_图层_1-2" data-name="图层 1">
    <path d="m1,6.6c0-3.08,2.51-5.6,5.57-5.6h150.43c3.06,0,5.57,2.52,5.57,5.6v235.41c0,3.08-2.51,5.6-5.57,5.6H6.57c-3.07,0-5.57-2.52-5.57-5.6V6.6Z" style="fill: #fff; fill-rule: evenodd; stroke: #231815; stroke-miterlimit: 22.93; stroke-width: 2px;"/>
    <path d="m81.54,103.05c5.29,0,9.6,3.99,9.6,8.88,0,3.43-2.13,6.42-5.22,7.9.22.3.42.62.58.97,1.59-1.44,3.66-2.31,5.93-2.31,4.97,0,9.03,4.21,9.03,9.38,0,5.16-4.06,9.38-9.03,9.38-4.26,0-7.85-3.09-8.79-7.22-.17.07-.34.13-.51.18-.01,2.25.22,11.27,4.62,15.35h-11.97c4.42-4.09,4.64-13.17,4.62-15.37-.17-.05-.34-.12-.51-.19-.99,4.06-4.55,7.08-8.76,7.08-4.97,0-9.03-4.21-9.03-9.38,0-5.16,4.06-9.38,9.03-9.38,2.31,0,4.42.91,6.02,2.4.12-.24.26-.48.41-.7-3.32-1.4-5.63-4.5-5.63-8.08,0-4.89,4.31-8.88,9.6-8.88Z" style="fill: #231815; fill-rule: evenodd; stroke-width: 0px;"/>
    <path d="m154.11,197.48l-9.65,45.52h-7s-9.65-45.52-9.65-45.52h-4.16v-5.61h14v5.61h-3.96s1.61,7.6,1.61,7.6h11.33s1.61-7.6,1.61-7.6h-4.44v-5.61h14v5.61h-3.68Zm-17.63,13.21l4.47,21.09,4.48-21.09h-8.95Z" style="fill: #231815; stroke-width: 0px;"/>
    <path d="m140.91,182.29c-4.12,0-7.49-3.11-7.49-6.93,0-2.68,1.66-5.01,4.08-6.16-.17-.23-.32-.49-.46-.76-1.24,1.12-2.86,1.8-4.62,1.8-3.88,0-7.05-3.29-7.05-7.32s3.17-7.32,7.05-7.32c3.32,0,6.12,2.41,6.86,5.64.13-.06.26-.1.4-.14.01-1.76-.17-8.8-3.61-11.98h9.34c-3.45,3.19-3.62,10.27-3.61,12,.14.04.27.09.4.15.77-3.17,3.55-5.53,6.83-5.53,3.88,0,7.05,3.29,7.05,7.32s-3.17,7.32-7.05,7.32c-1.8,0-3.45-.71-4.7-1.87-.1.19-.2.37-.32.54,2.59,1.09,4.39,3.51,4.39,6.31,0,3.82-3.36,6.93-7.49,6.93Z" style="fill: #231815; fill-rule: evenodd; stroke-width: 0px;"/>
    <path d="m47.11,62.82c0-1.61,1.08-2.93,2.39-2.93h64.57c1.32,0,2.39,1.32,2.39,2.93v122.97c0,1.61-1.08,2.93-2.39,2.93H49.5c-1.32,0-2.39-1.32-2.39-2.93V62.82Z" style="fill: none; fill-rule: evenodd; stroke: #231815; stroke-miterlimit: 22.93; stroke-width: 1.5px;"/>
    <path d="m8.52,52.8L18.17,7.28h7s9.65,45.52,9.65,45.52h4.16v5.61h-14v-5.61h3.96s-1.61-7.6-1.61-7.6h-11.33s-1.61,7.6-1.61,7.6h4.44v5.61H4.84v-5.61h3.68Zm17.63-13.21l-4.47-21.09-4.48,21.09h8.95Z" style="fill: #231815; stroke-width: 0px;"/>
    <path d="m21.73,67.99c4.12,0,7.49,3.11,7.49,6.93,0,2.68-1.66,5.01-4.08,6.16.17.23.32.49.46.76,1.24-1.12,2.86-1.8,4.62-1.8,3.88,0,7.05,3.29,7.05,7.32,0,4.03-3.17,7.32-7.05,7.32-3.32,0-6.12-2.41-6.86-5.64-.13.06-.26.1-.4.14-.01,1.76.17,8.8,3.61,11.98h-9.34c3.45-3.19,3.62-10.27,3.61-12-.14-.04-.27-.09-.4-.15-.77,3.17-3.55,5.53-6.83,5.53-3.88,0-7.05-3.29-7.05-7.32,0-4.03,3.17-7.32,7.05-7.32,1.8,0,3.45.71,4.7,1.87.1-.19.2-.37.32-.54-2.59-1.09-4.39-3.51-4.39-6.31,0-3.82,3.36-6.93,7.49-6.93Z" style="fill: #231815; fill-rule: evenodd; stroke-width: 0px;"/>
  </g>
</svg>