<?xml version="1.0" encoding="UTF-8"?>
<svg id="_图层_2" data-name="图层 2" xmlns="http://www.w3.org/2000/svg" viewBox="0 0 162.16 247.2">
  <g id="_图层_1-2" data-name="图层 1">
    <path d="m1,6.57c0-3.06,2.49-5.57,5.52-5.57h149.11c3.04,0,5.52,2.51,5.52,5.57v234.05c0,3.07-2.49,5.57-5.52,5.57H6.52c-3.04,0-5.52-2.51-5.52-5.57V6.57Z" style="fill: #fff; fill-rule: evenodd; stroke: #040000; stroke-miterlimit: 22.93; stroke-width: 2px;"/>
    <path d="m138.88,181.69c-4.12,0-7.49-3.11-7.49-6.93,0-2.68,1.66-5.01,4.08-6.16-.17-.23-.32-.49-.46-.76-1.24,1.12-2.86,1.8-4.62,1.8-3.88,0-7.05-3.29-7.05-7.32s3.17-7.32,7.05-7.32c3.32,0,6.12,2.41,6.86,5.64.13-.05.26-.1.4-.14.01-1.76-.17-8.8-3.61-11.98h9.34c-3.45,3.19-3.62,10.27-3.61,12,.14.04.27.09.4.15.77-3.17,3.55-5.52,6.83-5.52,3.88,0,7.05,3.29,7.05,7.32s-3.17,7.32-7.05,7.32c-1.8,0-3.45-.71-4.7-1.87-.1.19-.2.37-.32.54,2.59,1.1,4.39,3.51,4.39,6.31,0,3.82-3.36,6.93-7.49,6.93Z" style="fill: #231815; fill-rule: evenodd; stroke-width: 0px;"/>
    <path d="m81.2,158.73c-2.64,0-4.8-2-4.8-4.44,0-1.72,1.06-3.21,2.61-3.95-.11-.15-.21-.31-.29-.48-.79.72-1.83,1.15-2.96,1.15-2.49,0-4.52-2.11-4.52-4.69s2.03-4.69,4.52-4.69c2.13,0,3.92,1.55,4.4,3.61.08-.04.17-.07.26-.09,0-1.13-.11-5.64-2.31-7.67h5.98c-2.21,2.05-2.32,6.58-2.31,7.69.09.03.17.06.25.1.5-2.03,2.27-3.54,4.38-3.54,2.49,0,4.52,2.11,4.52,4.69s-2.03,4.69-4.52,4.69c-1.15,0-2.21-.45-3.01-1.2-.06.12-.13.24-.21.35,1.66.7,2.81,2.25,2.81,4.04,0,2.45-2.16,4.44-4.8,4.44h0Zm-16.28-12.25c2.64,0,4.8-2,4.8-4.44,0-1.79-1.16-3.34-2.81-4.04.07-.11.14-.23.21-.35.8.74,1.86,1.2,3.01,1.2,2.49,0,4.52-2.11,4.52-4.69s-2.03-4.69-4.52-4.69c-2.11,0-3.88,1.51-4.38,3.54-.08-.04-.17-.07-.25-.1,0-1.1.1-5.64,2.31-7.69h-5.98c2.2,2.04,2.32,6.55,2.31,7.67-.09.03-.17.06-.26.09-.47-2.07-2.27-3.61-4.39-3.61-2.49,0-4.52,2.11-4.52,4.69s2.03,4.69,4.52,4.69c1.13,0,2.17-.44,2.96-1.15.08.17.18.33.29.48-1.55.74-2.61,2.23-2.61,3.95,0,2.45,2.16,4.44,4.8,4.44h0Zm0,24.5c2.64,0,4.8-2,4.8-4.44,0-1.79-1.16-3.34-2.81-4.04.07-.11.14-.23.21-.35.8.74,1.86,1.2,3.01,1.2,2.49,0,4.52-2.11,4.52-4.69s-2.03-4.69-4.52-4.69c-2.11,0-3.88,1.51-4.38,3.54-.08-.04-.17-.07-.25-.1,0-1.1.1-5.64,2.31-7.69h-5.98c2.2,2.04,2.32,6.55,2.31,7.67-.09.03-.17.06-.26.09-.47-2.07-2.27-3.61-4.39-3.61-2.49,0-4.52,2.11-4.52,4.69s2.03,4.69,4.52,4.69c1.13,0,2.17-.44,2.96-1.15.08.17.18.33.29.48-1.55.74-2.61,2.23-2.61,3.95,0,2.45,2.16,4.44,4.8,4.44h0Zm32.55-24.5c2.64,0,4.8-2,4.8-4.44,0-1.79-1.16-3.34-2.82-4.04.08-.11.14-.23.21-.35.8.74,1.86,1.2,3.01,1.2,2.49,0,4.52-2.11,4.52-4.69s-2.03-4.69-4.52-4.69c-2.11,0-3.88,1.51-4.38,3.54-.08-.04-.17-.07-.25-.1,0-1.1.1-5.64,2.31-7.69h-5.98c2.2,2.04,2.32,6.55,2.31,7.67-.09.03-.17.06-.25.09-.47-2.07-2.27-3.61-4.4-3.61-2.49,0-4.52,2.11-4.52,4.69s2.03,4.69,4.52,4.69c1.13,0,2.17-.44,2.96-1.15.08.17.18.33.29.48-1.55.74-2.61,2.23-2.61,3.95,0,2.45,2.16,4.44,4.8,4.44h0Zm0,24.5c2.64,0,4.8-2,4.8-4.44,0-1.79-1.16-3.34-2.82-4.04.08-.11.14-.23.21-.35.8.74,1.86,1.2,3.01,1.2,2.49,0,4.52-2.11,4.52-4.69s-2.03-4.69-4.52-4.69c-2.11,0-3.88,1.51-4.38,3.54-.08-.04-.17-.07-.25-.1,0-1.1.1-5.64,2.31-7.69h-5.98c2.2,2.04,2.32,6.55,2.31,7.67-.09.03-.17.06-.25.09-.47-2.07-2.27-3.61-4.4-3.61-2.49,0-4.52,2.11-4.52,4.69s2.03,4.69,4.52,4.69c1.13,0,2.17-.44,2.96-1.15.08.17.18.33.29.48-1.55.74-2.61,2.23-2.61,3.95,0,2.45,2.16,4.44,4.8,4.44h0Zm-.24-70.26c2.64,0,4.8,2,4.8,4.44,0,1.72-1.06,3.21-2.61,3.95.11.15.21.31.29.48.79-.72,1.83-1.15,2.96-1.15,2.49,0,4.52,2.11,4.52,4.69s-2.03,4.69-4.52,4.69c-2.13,0-3.92-1.54-4.4-3.61-.08.04-.17.07-.26.09,0,1.13.11,5.64,2.31,7.67h-5.98c2.21-2.05,2.32-6.58,2.31-7.69-.09-.03-.17-.06-.25-.1-.5,2.03-2.27,3.54-4.38,3.54-2.49,0-4.52-2.11-4.52-4.69s2.03-4.69,4.52-4.69c1.15,0,2.21.45,3.01,1.2.06-.12.13-.24.21-.35-1.66-.7-2.82-2.25-2.82-4.04,0-2.45,2.16-4.44,4.8-4.44h0Zm0-24.5c2.64,0,4.8,2,4.8,4.44,0,1.72-1.06,3.21-2.61,3.95.11.15.21.31.29.48.79-.72,1.83-1.15,2.96-1.15,2.49,0,4.52,2.11,4.52,4.69s-2.03,4.69-4.52,4.69c-2.13,0-3.92-1.55-4.4-3.61-.08.04-.17.07-.26.09,0,1.13.11,5.64,2.31,7.67h-5.98c2.21-2.05,2.32-6.58,2.31-7.69-.09-.03-.17-.06-.25-.1-.5,2.03-2.27,3.54-4.38,3.54-2.49,0-4.52-2.11-4.52-4.69s2.03-4.69,4.52-4.69c1.15,0,2.21.45,3.01,1.2.06-.12.13-.24.21-.35-1.66-.7-2.82-2.25-2.82-4.04,0-2.45,2.16-4.44,4.8-4.44h0Zm-16.28,12.25c-2.64,0-4.8,2-4.8,4.44,0,1.79,1.16,3.34,2.82,4.04-.08.11-.14.23-.21.35-.8-.74-1.86-1.2-3.01-1.2-2.49,0-4.52,2.11-4.52,4.69s2.03,4.69,4.52,4.69c2.11,0,3.88-1.51,4.38-3.54.08.04.17.07.25.1,0,1.1-.1,5.64-2.31,7.69h5.98c-2.2-2.04-2.32-6.55-2.31-7.67.09-.03.17-.06.26-.09.47,2.07,2.27,3.61,4.4,3.61,2.49,0,4.52-2.11,4.52-4.69s-2.03-4.69-4.52-4.69c-1.13,0-2.17.44-2.96,1.15-.08-.17-.18-.33-.29-.48,1.55-.74,2.61-2.23,2.61-3.95,0-2.45-2.16-4.44-4.8-4.44h0Zm-16.28-12.25c2.64,0,4.8,2,4.8,4.44,0,1.72-1.06,3.21-2.61,3.95.11.15.21.31.29.48.79-.72,1.83-1.15,2.96-1.15,2.49,0,4.52,2.11,4.52,4.69s-2.03,4.69-4.52,4.69c-2.13,0-3.92-1.55-4.4-3.61-.08.04-.17.07-.26.09,0,1.13.11,5.64,2.31,7.67h-5.98c2.21-2.05,2.32-6.58,2.31-7.69-.09-.03-.17-.06-.25-.1-.5,2.03-2.27,3.54-4.38,3.54-2.49,0-4.52-2.11-4.52-4.69s2.03-4.69,4.52-4.69c1.15,0,2.21.45,3.01,1.2.06-.12.13-.24.21-.35-1.66-.7-2.81-2.25-2.81-4.04,0-2.45,2.16-4.44,4.8-4.44h0Zm0,24.5c2.64,0,4.8,2,4.8,4.44,0,1.72-1.06,3.21-2.61,3.95.11.15.21.31.29.48.79-.72,1.83-1.15,2.96-1.15,2.49,0,4.52,2.11,4.52,4.69s-2.03,4.69-4.52,4.69c-2.13,0-3.92-1.54-4.4-3.61-.08.04-.17.07-.26.09,0,1.13.11,5.64,2.31,7.67h-5.98c2.21-2.05,2.32-6.58,2.31-7.69-.09-.03-.17-.06-.25-.1-.5,2.03-2.27,3.54-4.38,3.54-2.49,0-4.52-2.11-4.52-4.69s2.03-4.69,4.52-4.69c1.15,0,2.21.45,3.01,1.2.06-.12.13-.24.21-.35-1.66-.7-2.81-2.25-2.81-4.04,0-2.45,2.16-4.44,4.8-4.44Z" style="fill: #231815; fill-rule: evenodd; stroke-width: 0px;"/>
    <path d="m124.27,239.05c1.8,1.78,4.28,2.89,6.99,2.89,2.72,0,5.19-1.11,6.99-2.89,1.8-1.79,2.92-4.25,2.92-6.96v-31.73c0-2.71-1.12-5.17-2.92-6.96-1.8-1.78-4.28-2.89-6.99-2.89-2.72,0-5.19,1.11-6.99,2.89-1.8,1.79-2.92,4.25-2.92,6.96v31.73c0,2.71,1.12,5.17,2.92,6.96Zm2.69-38.68c0-1.16.48-2.22,1.25-2.99.78-.77,1.85-1.25,3.05-1.25,1.19,0,2.27.48,3.05,1.25.77.77,1.25,1.83,1.25,2.99v31.73c0,1.16-.48,2.22-1.25,2.99-.78.77-1.85,1.25-3.05,1.25-1.19,0-2.27-.48-3.05-1.25-.77-.77-1.25-1.82-1.25-2.99v-31.73Z" style="fill: #231815; stroke-width: 0px;"/>
    <polygon points="146.36 241.5 151.97 241.5 157.95 236.33 157.95 233.32 151.97 234.54 151.97 195.6 157.27 195.6 157.27 190.82 151.97 190.82 151.97 190.82 146.36 190.82 146.36 190.82 141.58 190.82 141.58 195.6 146.36 195.6 146.36 241.5" style="fill: #231815; stroke-width: 0px;"/>
    <path d="m46.4,62.12c0-1.61,1.08-2.93,2.39-2.93h64.57c1.32,0,2.39,1.32,2.39,2.93v122.97c0,1.61-1.08,2.93-2.39,2.93H48.79c-1.32,0-2.39-1.32-2.39-2.93V62.12Z" style="fill: none; fill-rule: evenodd; stroke: #231815; stroke-miterlimit: 22.93; stroke-width: 1.5px;"/>
    <path d="m25.61,66.93c4.12,0,7.49,3.11,7.49,6.93,0,2.68-1.66,5.01-4.08,6.16.17.23.32.49.46.76,1.24-1.12,2.86-1.8,4.62-1.8,3.88,0,7.05,3.29,7.05,7.32s-3.17,7.32-7.05,7.32c-3.32,0-6.12-2.41-6.86-5.64-.13.05-.26.1-.4.14-.01,1.76.17,8.8,3.61,11.98h-9.34c3.45-3.19,3.62-10.27,3.61-12-.14-.04-.27-.09-.4-.15-.77,3.17-3.55,5.52-6.83,5.52-3.88,0-7.05-3.29-7.05-7.32,0-4.03,3.17-7.32,7.05-7.32,1.8,0,3.45.71,4.7,1.87.1-.19.2-.37.32-.54-2.59-1.1-4.39-3.51-4.39-6.31,0-3.82,3.36-6.93,7.49-6.93Z" style="fill: #231815; fill-rule: evenodd; stroke-width: 0px;"/>
    <path d="m38.23,9.57c-1.8-1.78-4.28-2.89-6.99-2.89s-5.19,1.11-6.99,2.89c-1.8,1.79-2.92,4.25-2.92,6.96v31.73c0,2.71,1.12,5.17,2.92,6.96,1.8,1.78,4.28,2.89,6.99,2.89s5.19-1.11,6.99-2.89c1.8-1.79,2.92-4.25,2.92-6.96v-31.73c0-2.71-1.12-5.17-2.92-6.96Zm-2.69,38.68c0,1.16-.48,2.22-1.25,2.99-.78.77-1.85,1.25-3.05,1.25-1.19,0-2.27-.48-3.05-1.25-.77-.77-1.25-1.83-1.25-2.99v-31.73c0-1.16.48-2.22,1.25-2.99.78-.77,1.85-1.25,3.05-1.25,1.19,0,2.27.48,3.05,1.25.77.77,1.25,1.82,1.25,2.99v31.73Z" style="fill: #231815; stroke-width: 0px;"/>
    <polygon points="16.14 7.12 10.53 7.12 4.54 12.29 4.54 15.3 10.53 14.08 10.53 53.02 5.23 53.02 5.23 57.8 10.53 57.8 10.53 57.8 16.14 57.8 16.14 57.8 20.92 57.8 20.92 53.02 16.14 53.02 16.14 7.12" style="fill: #231815; stroke-width: 0px;"/>
  </g>
</svg>