<?xml version="1.0" encoding="UTF-8"?>
<svg id="_图层_2" data-name="图层 2" xmlns="http://www.w3.org/2000/svg" viewBox="0 0 163.57 248.61">
  <g id="_图层_1-2" data-name="图层 1">
    <path d="m1,6.6c0-3.08,2.51-5.6,5.57-5.6h150.43c3.06,0,5.57,2.52,5.57,5.6v235.41c0,3.08-2.51,5.6-5.57,5.6H6.57c-3.06,0-5.57-2.52-5.57-5.6V6.6Z" style="fill: #fff; fill-rule: evenodd; stroke: #040000; stroke-miterlimit: 22.93; stroke-width: 2px;"/>
    <g>
      <path d="m59.55,64.76c2.67,0,4.84,2,4.84,4.45,0,1.72-1.07,3.22-2.64,3.96.11.15.21.31.29.48.8-.72,1.85-1.16,2.99-1.16,2.51,0,4.56,2.11,4.56,4.7s-2.05,4.7-4.56,4.7c-2.15,0-3.96-1.55-4.44-3.62-.08.03-.17.07-.26.09,0,1.13.11,5.65,2.33,7.69h-6.04c2.23-2.05,2.34-6.6,2.33-7.7-.09-.03-.17-.06-.26-.1-.5,2.04-2.29,3.55-4.42,3.55-2.51,0-4.56-2.11-4.56-4.7s2.05-4.7,4.56-4.7c1.17,0,2.23.45,3.04,1.2.06-.12.13-.24.21-.35-1.67-.7-2.84-2.26-2.84-4.05,0-2.45,2.18-4.45,4.85-4.45Z" style="fill: #231815; fill-rule: evenodd; stroke-width: 0px;"/>
      <path d="m104.03,184.52c-2.67,0-4.84-2-4.84-4.45,0-1.72,1.07-3.22,2.64-3.96-.11-.15-.21-.31-.29-.48-.8.72-1.85,1.16-2.99,1.16-2.51,0-4.56-2.11-4.56-4.7s2.05-4.7,4.56-4.7c2.15,0,3.96,1.55,4.44,3.62.08-.04.17-.07.26-.09,0-1.13-.11-5.65-2.33-7.69h6.04c-2.23,2.05-2.34,6.6-2.33,7.7.09.03.17.06.26.1.5-2.03,2.29-3.55,4.42-3.55,2.51,0,4.56,2.11,4.56,4.7s-2.05,4.7-4.56,4.7c-1.17,0-2.23-.45-3.04-1.2-.06.12-.13.24-.21.35,1.67.7,2.84,2.26,2.84,4.05,0,2.45-2.18,4.45-4.85,4.45Z" style="fill: #231815; fill-rule: evenodd; stroke-width: 0px;"/>
    </g>
    <path d="m55.5,153.47c-.39.27-2.33,1.52-2.33,1.52h-.59s0,18.49,0,18.49h3.8s-9.27,10.24-9.27,10.24v-99.56s5.44,5.72,5.44,5.72v8.65s5.93-6.28,17.38-11.53c0,0-.8-.68-.66-2.33.14-1.65.88-2.9,2.23-3.27,0,0,.57-.1,1.41-.02,0,0,.72-1.7.97-3.84.25-2.14.48-5.69.48-5.69l-5.57-11.3h36.33s-5.23,10.93-5.23,10.93l-.15,4.67s.32.75.96,2.74c.64,1.99.9,2.23,1.5,2.37.6.14,1.74.55,1.76,1.79.01,1.24-.95,2.1-1.64,2.23-.68.13-1.74-.23-2.31-1.05,0,0,.72,2.17,1.01,3,.18.52.45.69.7.67.81-.06,2.27.38,2.45,1.68.18,1.32-.83,2.48-2.09,2.41,0,0,4.94,2.66,6,3.81h0c.39-.27,2.33-1.52,2.33-1.52h.59s0-18.49,0-18.49h-3.8s9.27-10.24,9.27-10.24v99.56s-5.44-5.72-5.44-5.72v-8.65s-5.93,6.28-17.38,11.53c0,0,.8.68.66,2.33-.14,1.65-.89,2.9-2.23,3.27,0,0-.57.1-1.41.01,0,0-.72,1.7-.97,3.84-.25,2.14-.48,5.69-.48,5.69l5.57,11.3h-36.33s5.23-10.93,5.23-10.93l.15-4.66s-.32-.75-.96-2.74c-.64-1.99-.9-2.23-1.5-2.37-.6-.14-1.74-.55-1.76-1.79-.01-1.24.95-2.1,1.64-2.23.68-.13,1.74.23,2.31,1.05,0,0-.72-2.17-1.01-3-.18-.52-.45-.69-.7-.67-.81.06-2.27-.38-2.45-1.68-.18-1.32.83-2.48,2.09-2.41,0,0-4.96-2.67-6.01-3.81Z" style="fill: #004ea2; fill-rule: evenodd; stroke-width: 0px;"/>
    <g>
      <path d="m71.88,108.43l.2.22v.8c-.23-.06-.5.02-.67.22l-.74.85s-.02.03-.03.04c-.18-.06-.35-.11-.53-.16l1.78-1.97h0Zm.21,2.65v-.89c-.25-.06-.53,0-.73.19-.1.1-.17.22-.2.35.31.1.61.22.92.34h0Zm-.21-9.55l.16.18v.84c-.22-.04-.47.04-.64.23l-.74.85c-.25.29-.23.72.04.96l1.24,1.1s.08.06.12.09v.97s-2.46-2.68-2.46-2.68l2.28-2.52h0Zm.18,3.21v-1.45c-.25-.05-.51.02-.69.2-.29.29-.29.76,0,1.05.19.19.45.25.69.2h0Zm-.21-10.07l.16.17v.84c-.22-.04-.46.04-.63.23l-.74.85c-.25.29-.23.72.04.96l1.24,1.1s.08.06.12.08v.97s-2.46-2.67-2.46-2.67l2.28-2.52h0Zm.17,3.21v-1.46c-.25-.05-.5.02-.69.2-.29.29-.29.76,0,1.05.19.19.45.25.69.2h0Zm-.14-9.99l.09.1v.9c-.2-.01-.41.07-.57.24l-.74.85c-.25.29-.23.72.04.96l1.24,1.1s.04.03.05.04v.94s-2.39-2.6-2.39-2.6l2.28-2.52h0Zm.11,3.22v-1.48c-.23-.02-.45.05-.62.21-.29.29-.29.76,0,1.05.17.17.4.24.62.21h0Zm-6.29,17.74l.75.82c-.26-.03-.51-.06-.75-.08v-.73h0Zm0-6.81l1.98,2.15-1.98,2.19v-.77c.07-.04.13-.09.18-.15l.74-.85c.25-.29.23-.72-.04-.96l-.88-.78v-.85h0Zm0,1.52v1.35c.08-.04.15-.09.22-.15.29-.29.29-.76,0-1.05-.07-.06-.14-.11-.22-.15h0Zm0-8.35l1.95,2.12-1.95,2.16v-.75c.05-.04.1-.08.15-.13l.74-.85c.25-.29.23-.72-.04-.96l-.85-.75v-.84h0Zm0,1.5v1.32c.07-.03.13-.08.19-.14.29-.29.29-.76,0-1.05-.06-.05-.12-.1-.19-.13h0Zm0-4.88c.05-.04.1-.08.15-.13l.74-.85c.25-.29.23-.72-.04-.96l-.44-.39c.16-.08.32-.16.48-.24l1.06,1.15-1.95,2.16v-.75h0Zm0-2.03v1.32c.07-.03.13-.08.19-.14.29-.29.29-.76,0-1.05-.06-.06-.12-.1-.19-.13h0Zm2.01-1.04s-.09.04-.13.05l-.47.37,1.06,1.31-2.47,3.1v.68s2.48,3,2.48,3l-2.48,2.99v1.01s2.45,3.03,2.45,3.03l-2.45,3.06v.71s1.51,1.7,1.51,1.7c.38.06.77.13,1.18.21l-2.02-2.27,2.26-2.83,2.28,2.82-2,2.4c.26.06.53.13.79.2l1.97-2.36.19-.23-.19-.23-2.57-3.18,2.69-3.36.18-.23-.19-.23-2.65-3.21,2.57-3.11.19-.23-.19-.23-2.59-3.21,1.03-1.29-.58-.46-.92,1.16-.93-1.15h0Zm.94,9.09l-2.42,2.92,2.38,2.95,2.4-3-2.37-2.87h0Zm0-6.76l-2.27,2.85,2.28,2.76,2.29-2.76-2.3-2.85h0Zm-.06,1.96c.38,0,.69.33.69.74s-.31.74-.69.74-.69-.33-.69-.74.31-.74.69-.74h0Zm0,6.95c.38,0,.69.33.69.74s-.31.74-.69.74-.69-.33-.69-.74.31-.74.69-.74h0Zm0,6.95c.38,0,.69.33.69.74s-.31.74-.69.74-.69-.33-.69-.74.31-.74.69-.74Z" style="fill: #fff; fill-rule: evenodd; stroke-width: 0px;"/>
      <polygon points="112.53 75.79 116.2 75.79 116.2 162.7 112.53 158.75 112.53 75.79" style="fill: #231815; fill-rule: evenodd; stroke-width: 0px;"/>
      <path d="m114.43,92.68c.32,0,.58.32.58.71s-.26.7-.58.7-.58-.32-.58-.7.26-.71.58-.71h0Zm1.77-11.52v1.47s-3.1,2.97-3.1,2.97v-1.5s3.1-2.95,3.1-2.95h0Zm0,2.36l-3.1,2.97v1.54s3.1-3,3.1-3v-1.51h0Zm0,10.91v1.47s-3.1,2.97-3.1,2.97v-1.5s3.1-2.95,3.1-2.95h0Zm0,2.36l-3.1,2.97v1.54s3.1-3,3.1-3v-1.51h0Zm0,10.91v1.47s-3.1,2.97-3.1,2.97v-1.5s3.1-2.95,3.1-2.95h0Zm0,2.36l-3.1,2.97v1.54s3.1-3,3.1-3v-1.51h0Zm0,10.91v1.47s-3.1,2.97-3.1,2.97v-1.5s3.1-2.94,3.1-2.94h0Zm0,2.36l-3.1,2.97v1.54s3.1-3,3.1-3v-1.51h0Zm0,10.91v1.48s-3.1,2.97-3.1,2.97v-1.5s3.1-2.95,3.1-2.95h0Zm0,2.36l-3.1,2.97v1.54s3.1-3,3.1-3v-1.51h0Zm0,10.91v1.47s-3.1,2.97-3.1,2.97v-1.5s3.1-2.94,3.1-2.94h0Zm0,2.36l-3.1,2.97v1.54s3.1-3,3.1-3v-1.51h0Zm-1.77-60.65c.32,0,.58.32.58.7s-.26.71-.58.71-.58-.32-.58-.71.26-.7.58-.7h0Zm-.84,1.75c.32,0,.58.32.58.7s-.26.71-.58.71-.58-.32-.58-.71c0-.39.26-.7.58-.7h0Zm1.76,0c.32,0,.58.32.58.7s-.26.71-.58.71-.58-.32-.58-.71.26-.7.58-.7h0Zm-.93,14.94c.32,0,.58.32.58.7s-.26.71-.58.71-.58-.32-.58-.71.26-.7.58-.7h0Zm0-3.41c.32,0,.58.32.58.7s-.26.71-.58.71-.58-.32-.58-.71c0-.39.26-.7.58-.7h0Zm-.84,1.75c.32,0,.58.32.58.71s-.26.7-.58.7-.58-.32-.58-.7.26-.71.58-.71h0Zm1.76,0c.32,0,.58.32.58.71s-.26.7-.58.7-.58-.32-.58-.7.26-.71.58-.71h0Zm-.93,28.22c.32,0,.58.32.58.71s-.26.7-.58.7-.58-.32-.58-.7.26-.71.58-.71h0Zm0-3.41c.32,0,.58.32.58.7s-.26.71-.58.71-.58-.32-.58-.71c0-.39.26-.7.58-.7h0Zm-.84,1.75c.32,0,.58.32.58.71s-.26.7-.58.7-.58-.32-.58-.7.26-.71.58-.71h0Zm1.76,0c.32,0,.58.32.58.71s-.26.7-.58.7-.58-.32-.58-.7.26-.71.58-.71h0Zm-.93,28.22c.32,0,.58.32.58.71s-.26.7-.58.7-.58-.32-.58-.7.26-.71.58-.71h0Zm0-3.41c.32,0,.58.32.58.71,0,.39-.26.71-.58.71s-.58-.32-.58-.71.26-.71.58-.71h0Zm-.84,1.75c.32,0,.58.32.58.7s-.26.71-.58.71-.58-.32-.58-.71.26-.7.58-.7h0Zm1.76,0c.32,0,.58.32.58.7s-.26.71-.58.71-.58-.32-.58-.71.26-.7.58-.7h0Zm-.93-11.61c.32,0,.58.32.58.7s-.26.71-.58.71-.58-.32-.58-.71c0-.39.26-.7.58-.7h0Zm0-3.41c.32,0,.58.32.58.71s-.26.71-.58.71-.58-.32-.58-.71.26-.71.58-.71h0Zm-.84,1.75c.32,0,.58.32.58.71,0,.39-.26.71-.58.71s-.58-.32-.58-.71.26-.71.58-.71h0Zm1.76,0c.32,0,.58.32.58.71,0,.39-.26.71-.58.71s-.58-.32-.58-.71.26-.71.58-.71h0Zm-.93-64.72c.32,0,.58.32.58.71,0,.39-.26.71-.58.71s-.58-.32-.58-.71.26-.71.58-.71h0Zm0-3.41c.32,0,.58.32.58.71s-.26.7-.58.7-.58-.32-.58-.7.26-.71.58-.71h0Zm-.84,1.75c.32,0,.58.32.58.7s-.26.71-.58.71-.58-.32-.58-.71c0-.39.26-.7.58-.7h0Zm1.76,0c.32,0,.58.32.58.7s-.26.71-.58.71-.58-.32-.58-.71.26-.7.58-.7h0Zm-.93,41.49c.32,0,.58.32.58.7s-.26.71-.58.71-.58-.32-.58-.71c0-.39.26-.7.58-.7h0Zm0-3.41c.32,0,.58.32.58.71s-.26.71-.58.71-.58-.32-.58-.71.26-.71.58-.71h0Zm-.84,1.75c.32,0,.58.32.58.7s-.26.71-.58.71-.58-.32-.58-.71c0-.39.26-.7.58-.7h0Zm1.76,0c.32,0,.58.32.58.7s-.26.71-.58.71-.58-.32-.58-.71c0-.39.26-.7.58-.7Z" style="fill: #ffe100; fill-rule: evenodd; stroke-width: 0px;"/>
      <polygon points="111.6 75.79 112.53 75.79 112.53 158.75 116.2 162.7 116.2 164.06 111.6 159.11 111.6 75.79" style="fill: #ffe100; fill-rule: evenodd; stroke-width: 0px;"/>
      <path d="m111.35,97.93l-.78-3.64s1.34,0,2.17-.01c.84-.01,1.77.4,1.79,1.04.01.64-.52,1.29-1.18,1.7-.65.41-1.07.38-1.37.38s-.54.21-.63.54Z" style="fill: #004ea2; fill-rule: evenodd; stroke-width: 0px;"/>
      <path d="m100.8,68.96l3.04-6.46s.99,1.08,1.54,1.98c.56.9.89,2.06,1.06,3.09.18,1.03.99,3.27,1.52,4.09.53.83.68,1.11.68,1.38s-1.24.3-2.05.23c-.81-.08-1.95-.35-3.06-1.43-1.11-1.08-2.51-2.44-2.73-2.89Z" style="fill: #004ea2; fill-rule: evenodd; stroke-width: 0px;"/>
      <path d="m72.1,111.08l-.13-23.22s6.53,3.55,7.05,3.89c.52.35,9.25,8.05,9.25,8.05l6.12-4.68c-.22,1.91-.46,5.1-.36,9.23l-3.99,3.03.49,16.76-3.41,2.6c-2.05-2.46-3.46-5.52-6.4-9.18v-15.15s-5.99-5.22-5.99-5.22v15.15c-.88-.5-1.76-.91-2.63-1.25Z" style="fill: #231815; fill-rule: evenodd; stroke-width: 0px;"/>
      <path d="m69.98,60.82l4.95,9.93s10.55-2.39,24.27.05l4.91-9.97h-34.13Z" style="fill: #e60012; fill-rule: evenodd; stroke-width: 0px;"/>
      <path d="m72.49,60.82l3.56,6.83,4.56-.52-2.03-6.31h1.16s2.13,6.62,2.13,6.62l.21.64-.67.08-5.61.64-.38.04-.18-.34-4-7.67h1.25Zm8.91,0l1.49,6.46.1.43h.44s8.4-.1,8.4-.1h.51s.04-.5.04-.5l.56-6.29h-1.12s-.5,5.69-.5,5.69l-7.45.08-1.33-5.78h-1.13Zm13.38,0h1.12s-.8,6.36-.8,6.36l3.18.41,2.26-6.77h1.17s-2.51,7.55-2.51,7.55l-.14.43-.45-.06-4.18-.54-.55-.07.07-.54.85-6.76Z" style="fill: #231815; stroke-width: 0px;"/>
      <path d="m90.87,89.13s.99.72,1.68.77c.69.05,1.25-.18,1.48-.38.23-.2.38.1.31.28-.07.18-.61.3-.74.33-.13.03.61.57.51.74-.1.16-1.65.15-2.02.02-.38-.13.02-.33.2-.33s.13-.23-.28-.26c-.52-.04-1.27-.61-1.13-1.17h0Zm-3.2-11.65l.16.03s.31.02.4.31c.09.29.03.35-.1.38-.14.03-.43-.22-.55-.41-.12-.19-.11-.33.1-.31h0Zm3.14.72c-.03-.13.07-.43.28-.42.21.01.28.22.25.34-.05.22-.48.33-.53.08h0Zm-2.07-.58c.24.06.44.59.75.64.24.03.54-.43.78-.57.24-.14.28.1.14.33-.14.22-.55.55-.85.57-.29.02-.5-.21-.76-.53-.26-.33-.21-.43-.05-.43h0Zm1.54,9.01s-.65,1.5-.96,1.85c-.3.35.09.45.42.28.33-.17.89-.41,1.34-.5.45-.09.98.44,1.42.53.44.09,1.02-.25,1.35-.48.33-.24,1.12-.27,1.78.62l.02-1.98s-.34.39-.61.39-.41-.15-.71-.22c-.3-.08-.55.26-.84.29-.28.03-.46.03-.64-.11-.18-.15-.67-.29-1.2-.09-.54.2-.66.29-.92.19-.27-.1-.36-.5-.46-.75h0Zm1.59-4.74c-.25-.23-.71.28-1.02.76-.31.48-.57,1.05-.3,1.82.28.78,1.4.94,2.05.69.65-.24,1.37-.78,1.37-1.17,0-.39-.38-.4-.69-.34-.31.06-.74.34-1.15.64-.41.3-.86-.05-1.02-.39-.35-.8,1.15-1.65.74-2.02h0Zm7.41-10.18c-4.26-.75-8.45-.99-12.15-.97-.11.59-.32,1.85-.61,4.02.39-.19,1.6-.77,2.81-1.12,1.47-.43,3.85.33,3.6,1.56,0,0-.25.12-.85-.18-1.55-.8-3.9-.16-5.7.84-.02.14-.03.28-.05.42.41-.27,1.43-.88,2.63-1.08,1.56-.26,3.44.38,3.7,1.7,0,0,.08.36-.34.56,0,0,.16.42.1.78-.06.36-.96,1.22-2.42,1.94-1.46.72-2.24.54-2.36.26-.12-.28.32-.52.86-.54.54-.02,1.28-.3,1.54-.56,0,0-.08-.08-.6-.06-.52.02-1.3-.18-1.6-.44-.3-.26-.66-.56-.92-.66-.16-.06-.54-.08-.8-.08-.05.44-.1.9-.16,1.38-.64,5.8-.81,8.81-1.68,10.54.8.6,4.72,3.42,7.49,3.4,3.1-.02,4.61-2.12,5.28-4.15.47-1.41,1.37-5.38,1.87-10.61h0c-.29.16-.82.42-1.34.47-.76.07-1.89-.25-1.89-.25,0,0,1.51,1.37,1.51,1.63,0,.26-.14.39-.35.29-.21-.1-1.18-.96-1.49-1.18-.31-.22-.57-.29-.42.17.15.46.98,3.27.98,4.03,0,1.07-1.12,1.81-2.57,2.63,0,0,1.83-2.38,1.85-2.69.03-.32-.4-2.11-.86-3.99-.46-1.89-.51-3.38.77-4.83,1.23-1.4,2.96-1.53,4.11-.97h0c.03-.74.04-1.5.05-2.26h0Zm-13.08,5.62c.02-.19.05-.38.07-.56,1.25-.93,4.05-1.84,5.59-.07,0,0-.44-.16-1.35-.37-.9-.21-2.75-.43-4.3,1h0Zm12.98-2.15c-.01.27-.03.53-.05.79h0c-1.55-1.26-3.84,0-3.84,0,.6-1.05,1.41-1.56,2.31-1.48.65.06,1.27.47,1.57.7h0Zm-.24,3.24h-.76s.66-.52.85-.95c-.03.32-.05.63-.08.95h0Zm.13-1.52c0,.05,0,.1-.01.15h-.33s-.17-.31-.92-.46c-.75-.15-1.45-.03-2.52.42l-.38.05s.39-1,1.67-1.13c1.2-.12,2.24.26,2.49.97h0Zm-4.24.99l.7-.28.56.9-1.26-.63h0Zm1.35-.37h.43s.11.77.59.73c.48-.04.71-.42.71-.42l.37.04s-.26.61-.85.74c-.6.14-1.18-.6-1.25-1.09h0Zm-13.8,14.55l5.5,5.27,4.58-3.43s-3.78.46-8.43-3.49c-.09.13-.18.26-.28.38-.48.57-.93.99-1.38,1.28Z" style="fill: #fff; fill-rule: evenodd; stroke-width: 0px;"/>
      <path d="m84.67,70.8c-.08.69-.45,3.92-.7,6.12-.28,2.39-.38,7.91-2.15,9.7.44.41.78.88,1.04,1.55.29-.67.79-2.03,1.1-4.05.44-2.93,1.28-11.15,1.56-13.34-.29,0-.57.02-.85.03h0Zm-5.29.36c-.13,1.12-.49,4.25-.84,6.33-.4,2.36-.5,5.25-1.52,6.31.37.2.74.39,1.09.58.24-.34.56-1.05.75-2.48.32-2.42,1.12-8.83,1.53-10.83-.35.03-.68.06-1,.09h0Zm-2.94.35c.3-.04.64-.09.99-.13-.15,1.45-.56,5.19-.97,7.99-.3,2.07-.66,3.14-.9,3.67-.31-.16-.6-.32-.88-.46.65-1.07.67-2.82,1.03-5.3.32-2.19.62-4.75.73-5.75h0Zm4.28-.48c.27-.02.54-.04.83-.07-.07.7-.21,1.9-.44,3.67-.4,3.08-.46,4.09-.82,7.01-.26,2.08-.79,2.98-1.07,3.32-.24-.13-.51-.27-.79-.43.38-.36.6-1.11.77-2.2.2-1.31.31-2.85.68-5.47.29-2.04.69-4.75.85-5.85h0Zm-2.85.29c.37-.04.76-.09,1.17-.13-.19,1.46-.73,5.55-1.17,8.54-.37,2.49-.87,3.51-1.15,3.9-.3-.16-.6-.32-.89-.47.78-1.02,1.17-4.01,1.44-6.77.22-2.22.48-4.22.6-5.08h0Zm2.58,16.73c.16.03.34.23.34.73s.13.68.35.61c.23-.07.34-.36.07-1-.27-.64-.99-1.13-1.73-.41-.73.72-.28,2-.28,2,.55,1.26,1.55,1.78,2.84.5s1.97-4.73,2.36-7.23c.39-2.5.59-5.95.91-8.25.22-1.57.38-3.3.46-4.23.33,0,.67-.01,1.02-.02-.29,1.23-.77,3.7-1.06,6.51-.37,3.6-.59,7.97-1.18,10.84-.59,2.87-2.79,4.21-4.11,4.17-1.32-.04-2.17-1.1-2.15-2.71s.49-2,1.13-2.61c.23-.22.41-.38.57-.5.29-.22.46-.3.56-.27.15.04.68.42,1.21.89.36.32.6.66.68,1.1.04.21.05.43.01.69-.1.8-1.18,2.02-1.78,2.02s-1.25-.99-1.19-1.89c.03-.45.43-1.06.95-.94h0Zm1.47-17.11c.33-.02.67-.05,1.02-.06-.19,1.69-.81,7.04-1.29,10.15-.43,2.78-.92,4.15-1.14,4.67-.13-.08-.26-.15-.4-.23-.17-.1-.39-.22-.65-.36.88-.84,1.14-2.49,1.55-5.94.38-3.21.78-6.96.92-8.22h0Zm1.35-.08c.28-.01.56-.03.85-.04-.13,1.64-.72,9.07-1.18,11.89-.38,2.26-.99,3.32-1.31,3.74-.26-.22-.56-.42-.9-.62.68-.85.94-2.68,1.47-6.01.49-3.1.95-7.58,1.08-8.95h0Zm-10.1,10.91c.22.11.67.35,1.24.65.36-.54.42-1.37.79-4,.41-2.86.78-5.76.92-6.86-.57.08-1.02.16-1.35.21-.06,1.54-.36,7.57-1.56,9.92-.01.03-.03.05-.04.08h0Zm7.09,4.22l-1.05-.58c-1.42.9-2.32,1.85-2.36,3.05-.03.79.24,1.6.44,2.08l.85.45s-.29-1.22-.12-2.47c.18-1.25,1.55-2.16,2.24-2.53h0Zm-1.48-.82l-.7-.38c-1.83,1.12-2.31,1.72-2.31,2.73,0,.77.23,1.86.36,2.4l.56.3c-.4-1.72-.33-2.69.46-3.56.66-.73,1.35-1.28,1.62-1.48h0Zm-1.06-.58c-.32.2-1.22.8-1.88,1.55-.78.87-.46,2.08-.11,3.57l-.76-.41c-.17-.43-.4-1.19-.39-2.04.02-1.22,1.15-2.49,2.21-3.19l.94.52h0Zm-1.39-.76l-.74-.41c-.2.24-.53.61-.95.93-.7.52-1.46.8-1.46,2.25,0,.93.41,1.7.71,2.13l.6.32c-.45-1.57-.22-2.9.26-3.54.42-.56,1.3-1.41,1.58-1.68h0Zm-.99-.55l-.73-.4c-1.97.63-2.47,1.67-2.43,3.26.02,1.12.21,1.63.33,1.85l.73.39c-.9-2.58-.14-3.3.61-3.84.61-.44,1.24-1.02,1.49-1.26h0Zm-1.2-.66c-.3.15-.88.47-1.37.9-.68.61-1.25,1.09-.87,4.14l-.52-.27c-.14-.41-.51-1.54-.56-2.22-.07-.81.53-1.76,2.32-3.1l.99.55h0Zm-1.35-.75c-.33.32-1.36,1.3-1.9,1.9-.62.69-.39,2.09.1,3.41l-.21-.11c-1.25-.58-1.07-2.38-1.07-2.38.14-2.1,1.2-2.84,1.92-2.9.36-.03.7,0,.95.03.06,0,.11.02.15.02l.05.03h0Zm26.84-3.73l.12-.55s.57,2.54,1.18,3.41c.61.87,1.06.69,1.87,1.08.82.39.55,1.14.43,1.65-.12.51-.55.92-1,1-.45.08-1.2-.12-1.79-.77-.59-.65-1-2.17-1.12-3.05-.12-.87.14-1.79.31-2.76h0Zm-.96,8s1.9,4.16,2.17,4.72c.27.56.78.68.78.68,1.33.1,2-.85,1.96-1.87-.04-1.01-1.43-1.19-1.94-1.28-.51-.1-1.04-.64-1.45-1.96-.41-1.32-1.12-3.67-1.12-3.67l-.41,3.38h0Zm-.25.6l2.07,4.49s-1.55-.23-2.01-1.44c-.24-.64-.8-2.51-.07-3.06h0Zm-.72,2.36c-.34.37-.39,1.08.37,1.18.1-.43.02-1.09-.37-1.18Z" style="fill: #ffe100; fill-rule: evenodd; stroke-width: 0px;"/>
      <path d="m103.6,64.39l-.28-.34.61-1s.97,1.1,1.32,1.92c.35.82.69,2.07.92,3.17.23,1.1,1.06,3.49,1.98,4.57,0,0-.82.13-1.87.1-1.05-.03-1.96-.8-2.73-1.57-.78-.77-2.36-2.42-2.36-2.42l.84-1.73s.27,1.58.48,1.66c.21.08.27-.46.27-.69s.17-.1.38.39c.21.5.24.91.24.91l.64.06.39,1.65.67-.1s.17,1.17.32,1.21c.16.04.38-.1.42-.24.04-.14.21-.08.48.1.27.18.39.31.54.25.15-.06.09-.18.22-.23.13-.05.07-.22-.16-.3-.22-.08-.37-.33-.19-.5.18-.17.36-.28.22-.4-.14-.12-.36-.24-.74-.45-.37-.21-.22-.54-.1-.62.12-.08-.09-.32-.39-.52-.3-.19-.17-.36.03-.44.19-.08.25-.4-.09-.48-.34-.08-1.01-.38-1.08-.66-.07-.28.48-.42.06-.73-.42-.32-.7-.43-.92-.56-.22-.13.2-.31.38-.29.18.01.55-.29-.26-.51-.81-.22-.67-.53-.23-.6.44-.07.23-.32-.01-.61Z" style="fill: #ffe100; fill-rule: evenodd; stroke-width: 0px;"/>
      <path d="m65.7,89.71v19.86c-2.22-.21-3.7-.05-3.7-.05v-17.43s1.53-1.22,3.7-2.38Z" style="fill: #231815; fill-rule: evenodd; stroke-width: 0px;"/>
      <path d="m74.73,93.11l13.82,11.23,5.49-4.12c-.02.54-.03,1.11-.03,1.7l-5.33,4.07-13.94-11.71v-1.16h0Zm1.27-1.13c.12.72.25,1.36.86,1.43.61.07,1.43-.27,1.79-.01.36.26-.02,1.35.3,1.96.32.61.73.65,1.68.62.94-.03,1.08.07,1.34.55.27.47-.01,1.46.6,1.88s1.39.12,2.09.4c.7.28.47,1.08.59,1.85.12.77.56.77,2.33.87,1.76.09,2.68.25,3.28.11.61-.14.72-.73.82-1.49.1-.76.23-1.19.62-1.27.39-.09.78.03,1.08.14.15.06.44.08.7.08.02-.4.04-.78.06-1.14-.38-.03-1.12-.06-1.98.01-1.24.11-1.14,1.66-1.17,1.92-.03.26-.16.6-.9.66-.74.06-2.63.17-3.44.09-.81-.07-.54-1.24-.91-2.07-.37-.83-1.6-.68-2.18-.71-.58-.03-.68-.5-.85-1.5-.16-.99-1.04-1.15-1.45-1.16-.42-.01-1.13.23-1.35-.1-.22-.34-.26-1.02-.34-1.92-.08-.89-1.48-.58-2.19-.6-.71-.01-.8-.69-.92-1.29-.12-.6-.51-.92-1-.91-.49.01-.73.76-.43.86.3.1.42-.08.71.08.29.16.25.48.25.48l.03.18Z" style="fill: #ffe100; fill-rule: evenodd; stroke-width: 0px;"/>
      <path d="m79.28,101.15v14.74c-1.43-1.51-2.98-2.66-4.55-3.55v-15.15s4.55,3.97,4.55,3.97Z" style="fill: #e60012; fill-rule: evenodd; stroke-width: 0px;"/>
      <path d="m88.4,109.1v16.66s-.67.51-.67.51v-17.75s.67.59.67.59h0Zm-7.7,8.43c-.23-.28-.47-.57-.72-.86-.04-.04-.07-.09-.11-.13v-14.87s.82.72.82.72v15.14Z" style="fill: #f6ab00; fill-rule: evenodd; stroke: #fff100; stroke-miterlimit: 22.93; stroke-width: 0px;"/>
      <path d="m81.14,103.88l1.15,1.29,1.37,1.54-1.37,1.54-1.15,1.29v-1.15s.64-.72.64-.72l.85-.96-.85-.96-.64-.72v-1.15h0Zm6.26,22.65l-.27.21c-1.23-1.48-2.23-3.17-3.47-5.08l3.12,4.15.52-.54.1,1.26h0Zm-6.26-9.71v-1.15s.61-.69.61-.69l.85-.96-.85-.96-.61-.69v-1.15s1.12,1.27,1.12,1.27l1.37,1.54-1.37,1.54-1.12,1.27h0Zm0-2.14l.17-.2.41-.47-.41-.47-.17-.2v1.32h0Zm0-7.27l.2-.22.41-.47-.41-.47-.2-.22v1.37h0Zm3.91-1.21l.64.56.79.89.85.96.09-.1v1.15s-.09.1-.09.1l-1.36-1.54-1.37-1.54.44-.49h0Zm2.38,4.77v1.15s-.82.92-.82.92l-.85.96.85.96.82.92v1.15s-1.33-1.5-1.33-1.5l-1.37-1.54,1.37-1.54,1.33-1.5h0Zm0,2.14l-.38.43-.41.47.41.47.38.42v-1.78h0Zm0,4.69l-.03-.03-1.36,1.54-1.37,1.54,1.37,1.54,1.36,1.54.03-.03v-1.15s-.03.03-.03.03l-.85-.96-.85-.96.85-.96.85-.96.03.03v-1.15h0Zm0,2.14l-.03-.03-.41.47-.41.47.41.47.41.47.03-.03v-1.8h0Zm-3.29-12.73l-1.36,1.54-1.37,1.54,1.37,1.54,1.36,1.54,1.36-1.54,1.37-1.54-1.37-1.54-1.36-1.54h0Zm0,1.15l-.85.96-.85.96.85.96.85.96.85-.96.85-.96-.85-.96-.85-.96h0Zm0,.99l-.41.47-.41.46.41.47.41.47.41-.47.41-.47-.41-.46-.41-.47h0Zm0,4.94l-1.36,1.54-1.37,1.54,1.37,1.54,1.36,1.54,1.36-1.54,1.37-1.54-1.37-1.54-1.36-1.54h0Zm0,1.16l-.85.96-.85.96.85.96.85.96.85-.96.85-.96-.85-.96-.85-.96h0Zm0,.99l-.41.47-.41.47.41.47.41.47.41-.47.41-.47-.41-.47-.41-.47h0Zm2.5,8.36l.4-.35-2.01-2.15,1.61,2.5Z" style="fill: #ffe100; fill-rule: evenodd; stroke-width: 0px;"/>
      <path d="m94.03,104.35c.11,4.32.62,9.66,1.95,15.64l-5.45,4.15-.49-16.76,3.99-3.03Z" style="fill: #e60012; fill-rule: evenodd; stroke-width: 0px;"/>
      <path d="m80.23,92.76c.39-.03,1.01-.13,1.7-.42l5.99,5.7s5.11-4.22,6.75-4.91c0,0-.13.7-.28,1.99h0l-6.12,4.68s-5.51-4.87-8.04-7.04h0Zm14.14,2.51c-.04.32-.07.67-.11,1.06h0c.03-.39.07-.74.11-1.06Z" style="fill: #ffe100; fill-rule: evenodd; stroke-width: 0px;"/>
      <g>
        <path d="m100.72,92.84l-1.47-1.83-1.51-.81-2.33,2.53c-.08.46-.15.91-.21,1.37l2.31,2.97,3.03-3.22c.06-.34.12-.68.19-1.01h0Zm-.72.47l-2.37,2.57-1.95-2.72,2.56-2.34,1.76,2.48h0Zm-1.37-.6c.26.22.24.68-.05,1.02-.29.34-.74.44-1.01.22-.27-.22-.25-.68.04-1.02.29-.34.74-.44,1.01-.22Z" style="fill: #fff; fill-rule: evenodd; stroke-width: 0px;"/>
        <path d="m99.98,99.09l-2.5-2.42-2.79,3.5-.02,1.1,3.03,2.98,2.22-3.18c0-.67.02-1.34.05-1.99h0Zm-.28,1.08l-2.03,2.95-2.39-2.58,2.27-2.74,2.15,2.37h0Zm-1.53-.43c.29.19.33.65.08,1.02-.25.37-.68.53-.97.34-.29-.19-.33-.65-.08-1.02.25-.37.68-.53.97-.34Z" style="fill: #fff; fill-rule: evenodd; stroke-width: 0px;"/>
        <path d="m96.61,96.56l-1.47-2.06c-.05.39-.1.77-.14,1.16l.59.88-.75.64c-.01.12-.02.24-.03.36l-.04.68,1.83-1.67Z" style="fill: #fff; fill-rule: evenodd; stroke-width: 0px;"/>
        <path d="m100.42,94.5l-2.03,2.17,1.61,1.95c.02-.43.05-.85.09-1.27l-.64-.85.81-.83c.05-.39.1-.79.16-1.17Z" style="fill: #fff; fill-rule: evenodd; stroke-width: 0px;"/>
        <path d="m100.08,105.8l-2.44-2.32-2.81,3.62c.02.27.04.53.06.79l3.12,3.01,2.22-3.27c-.06-.61-.11-1.22-.15-1.83h0Zm-.2,1.11l-1.93,2.89-2.38-2.52,2.17-2.69,2.15,2.32h0Zm-1.51-.42c.29.18.33.63.1,1-.23.37-.66.52-.95.33-.29-.18-.33-.63-.1-1,.23-.37.66-.52.95-.33Z" style="fill: #fff; fill-rule: evenodd; stroke-width: 0px;"/>
        <path d="m99.93,101.79l-1.4,1.94,1.51,1.42c-.03-.43-.05-.86-.06-1.29l-.42-.43.39-.52c0-.38-.01-.75-.02-1.13Z" style="fill: #fff; fill-rule: evenodd; stroke-width: 0px;"/>
        <path d="m96.77,103.95l-2.11-2.34v.95c-.01.06-.01.12-.01.18l1.1,1.3-1.03,1.11c.02.36.03.71.05,1.07l1.99-2.28Z" style="fill: #fff; fill-rule: evenodd; stroke-width: 0px;"/>
        <path d="m97.07,110.87l-2.1-1.91c.03.38.07.77.11,1.15l.99.96-.77,1.01c.05.36.09.72.14,1.07l1.62-2.28Z" style="fill: #fff; fill-rule: evenodd; stroke-width: 0px;"/>
        <path d="m100.29,108.14l-1.36,2.36,1.86,1.44c-.07-.42-.13-.83-.19-1.25l-.68-.58.5-.83c-.05-.38-.09-.76-.13-1.14Z" style="fill: #fff; fill-rule: evenodd; stroke-width: 0px;"/>
        <path d="m100.86,112.41l-3.1-2.3-2.22,3.72c.05.37.11.74.17,1.1l3.33,2.5,2.01-3.92c-.07-.37-.13-.74-.19-1.11h0Zm-.46.83l-1.56,3.1-2.68-2.21,1.82-2.93,2.42,2.04h0Zm-1.55-.24c.31.15.41.59.22.98-.19.39-.59.59-.9.44-.31-.15-.41-.59-.22-.98.19-.39.59-.59.9-.44Z" style="fill: #fff; fill-rule: evenodd; stroke-width: 0px;"/>
        <path d="m102.22,118.89l-3.71-2-1.61,4.2s.02.1.03.14c.08.3.15.59.23.89l3.57,1.99,1.68-4.46c-.07-.25-.13-.51-.2-.76h0Zm-.55.61l-1.31,3.5-2.72-1.58,1.34-3.42,2.69,1.49h0Zm-1.65.09c.32.1.49.54.37.98-.12.44-.47.72-.79.62-.32-.1-.49-.54-.37-.98.12-.44.47-.72.79-.62Z" style="fill: #fff; fill-rule: evenodd; stroke-width: 0px;"/>
        <path d="m98.07,117.48l-2.18-1.45c.06.35.12.71.19,1.06l1.03.73-.66,1.2c.08.39.16.77.24,1.16l1.37-2.71Z" style="fill: #fff; fill-rule: evenodd; stroke-width: 0px;"/>
        <path d="m101.15,114.05l-1.3,2.88,2.22,1.37c-.1-.39-.19-.79-.28-1.19l-.99-.67.58-1.22c-.08-.39-.16-.78-.23-1.17Z" style="fill: #fff; fill-rule: evenodd; stroke-width: 0px;"/>
        <path d="m104.26,125.54l-3.66-1.71-1.5,4.69c.05.15.1.3.16.45l3.98,1.93,1.38-4.4c-.12-.32-.24-.64-.36-.96h0Zm-.36.71l-1.11,3.56-2.81-1.42,1.15-3.48,2.77,1.34h0Zm-1.64.19c.32.08.52.51.43.96-.09.45-.43.74-.75.66-.32-.08-.52-.51-.43-.96.09-.45.43-.74.75-.66Z" style="fill: #fff; fill-rule: evenodd; stroke-width: 0px;"/>
        <path d="m99.92,124.12l-2.55-1.23c.09.33.19.67.28,1l1.33.66-.59,1.81c.13.41.26.82.4,1.23l1.13-3.47Z" style="fill: #fff; fill-rule: evenodd; stroke-width: 0px;"/>
        <path d="m102.66,120.54l-1,2.89,2.26,1.14c-.13-.39-.26-.78-.39-1.17l-.97-.55.43-1.18c-.11-.38-.22-.76-.33-1.14Z" style="fill: #fff; fill-rule: evenodd; stroke-width: 0px;"/>
        <path d="m104.84,127.07l-.73,3.05,2.38.91c-.16-.36-.32-.73-.49-1.11l-1.05-.46.33-1.28c-.15-.37-.29-.74-.44-1.12Z" style="fill: #fff; fill-rule: evenodd; stroke-width: 0px;"/>
        <path d="m102.39,131.09l-2.82-1.21c.12.34.24.67.37,1.01l1.53.68-.52,1.9c.15.38.31.76.47,1.13l.97-3.5Z" style="fill: #fff; fill-rule: evenodd; stroke-width: 0px;"/>
        <path d="m106.89,131.93l-3.81-1.41-1.17,5.14,4.4,1.69,1-4.52c-.14-.29-.28-.59-.42-.9h0Zm-.32.73l-.8,3.64-2.92-1.18.85-3.57,2.87,1.1h0Zm-1.62.32c.33.05.56.47.51.92-.05.45-.36.78-.69.72-.33-.05-.56-.47-.51-.92.05-.45.36-.78.69-.72Z" style="fill: #fff; fill-rule: evenodd; stroke-width: 0px;"/>
        <path d="m110,138.12l-3.91-1.12-1.01,4.76,4.66,1.4.82-4.03c-.16-.29-.35-.62-.56-1.01h0Zm-.18.72l-.69,3.38-3.09-.98.73-3.31,3.04.91h0Zm-1.68.36c.35.04.6.41.57.82-.04.42-.35.73-.69.69-.35-.04-.6-.41-.57-.83.03-.42.35-.73.69-.69Z" style="fill: #fff; fill-rule: evenodd; stroke-width: 0px;"/>
        <path d="m105.42,137.5l-3.19-1.06c.15.32.29.64.44.96l1.87.65-.42,2.28c.19.36.38.72.57,1.07l.73-3.9Z" style="fill: #fff; fill-rule: evenodd; stroke-width: 0px;"/>
        <path d="m107.55,133.36l-.5,3.22,2.51.75c-.18-.33-.37-.69-.56-1.07l-1.16-.4.25-1.41c-.17-.35-.35-.71-.53-1.09Z" style="fill: #fff; fill-rule: evenodd; stroke-width: 0px;"/>
        <path d="m110.9,139.71l-.33,2.57.63.17v-2.24s-.11-.17-.3-.5Z" style="fill: #fff; fill-rule: evenodd; stroke-width: 0px;"/>
        <polygon points="111.19 143.01 109.76 142.83 109.5 147.69 111.19 147.93 111.19 147.16 110.37 147.03 110.58 143.65 111.19 143.73 111.19 143.01" style="fill: #fff; fill-rule: evenodd; stroke-width: 0px;"/>
        <path d="m109.37,143.37l-4.24-1.17c.18.31.35.63.53.94l2.86.83-.34,2.57c.22.24.44.47.67.69l.51-3.86Z" style="fill: #fff; fill-rule: evenodd; stroke-width: 0px;"/>
      </g>
      <path d="m102.05,92.66c1.61.86,4.37,2.36,5.99,3.45,0,0-1.59,3.93.55,7.35l-6.41,2.95,1.63-2.71.09-.15-.12-.13-1.4-1.42,1.39-2,.1-.15-1.89-2.11,1.47-1.67.1-.11-.06-.13-1.44-3.17h0Zm-.61,14.09l1.89-3.13-1.4-1.43-.13-.13.11-.16,1.39-2.01-1.78-1.99-.14-.15.13-.15,1.5-1.71-1.55-3.42v.02s-.17.8-.17.8l-.25,1.48.84.69-1.04.83-.05.4-.14,1.79c0,.15-.01.3-.02.46l.97.69-1.02.81c0,.27-.01.54-.02.81,0,.72.02,1.44.04,2.17l.77.34-.72.92c.05.77.1,1.54.16,2.32,0,.02,0,.04,0,.06l.62-.28Z" style="fill: #ffe100; fill-rule: evenodd; stroke-width: 0px;"/>
      <path d="m103.85,93.64c1,.55,2.1,1.17,3.05,1.75-1.49,3.61-.18,7.49.31,8.71l-3.3,1.52,1.1-2.62-1.15-1.33,1.25-1.86-1.37-2.43.98-1.32-.87-2.42Z" style="fill: #231815; fill-rule: evenodd; stroke-width: 0px;"/>
      <path d="m110.8,138.25v-20.47c-3.31-3.64-5.69-12.1-5.69-12.1l-4.23,1.94c.08.76.16,1.52.26,2.28.13.98.28,1.95.44,2.93.17.97.36,1.93.55,2.9.21.95.43,1.9.66,2.85.24.93.49,1.85.76,2.77.27.89.55,1.78.85,2.67.4,1.14.81,2.27,1.25,3.4.52,1.31,1.07,2.6,1.65,3.89.93,2.03,1.91,4.02,2.97,5.99.17.32.35.64.53.95Z" style="fill: #e60012; fill-rule: evenodd; stroke-width: 0px;"/>
      <path d="m101.88,109.62l3.11-1.1s1.72,7.86,4.89,12.19v12.61s-7.22-12.54-8-23.71Z" style="fill: #231815; fill-rule: evenodd; stroke-width: 0px;"/>
      <path d="m106.64,104.8c1.29,4.27,2.9,8.06,4.58,10.79v-11.85h-2.7c-.63.35-1.26.71-1.89,1.06h0Zm4.34-5.18l.24.21v3.62h-2.1s-1.21-1.58-1.21-3.78.46-3.45.46-3.45c0,0,1.46-1.07,2.43-1.53h2.19s-.35,1.07.67,1.53c0,0-.92.75-1.65.75s-.92.53-1.16,1.02c-.24.48-.19,1.36.14,1.63h0Zm2.29-4.74c0,.22.33.98.67.96.16,0,.14-.48.06-.62-.18-.3-.73-.34-.73-.34Z" style="fill: #fff; fill-rule: evenodd; stroke-width: 0px;"/>
      <polygon points="116.2 73.64 111.66 73.64 116.2 68.76 116.2 66.61 108.44 75.18 116.2 75.18 116.2 73.64" style="fill: #ffe100; fill-rule: evenodd; stroke-width: 0px;"/>
      <polygon points="116.2 69.3 112.51 73.28 116.2 73.28 116.2 69.3" style="fill: #e60012; fill-rule: evenodd; stroke-width: 0px;"/>
      <g>
        <path d="m79.72,125.96c.55.86,1.82,2.88,2.87,4.39,3.71,5.34,10.72,8.5,14.5,8.71,3.78.22,5.7-.22,5.7-.22l-2.75-5.61c-8.53-.26-13.41-5.59-16.19-9.93-.55-.86-1.82-2.88-2.87-4.39-3.71-5.34-10.72-8.5-14.5-8.71-3.78-.22-5.7.22-5.7.22l2.75,5.61c8.53.26,13.41,5.59,16.19,9.93Z" style="fill: #ffe100; fill-rule: evenodd; stroke-width: 0px;"/>
        <path d="m61.02,110.92l2.95-.02.17,3.88-1.23-.02-.47-.97c.06.02.12.04.2.08.22.12.26.3.39.13.13-.17-.05-.57.12-.67.17-.11.4-.08.56-.18.16-.1.05-.22-.19-.43-.24-.21-.21-.34-.13-.57.08-.23.13-.32.02-.35-.1-.03-.25,0-.5-.11s-.07-.31-.3-.31-.23.08-.52.07c-.29-.01-.16-.11-.37-.25-.21-.15-.2.06-.2.17,0,.06-.08.18-.15.27l-.35-.72h0Zm39.39,23.05l.21.44s-.02.02-.04.02c-.27.12-.18.46-.18.46,0,0-.3.04-.59.04s-.23.18-.2.48c.04.3-.02.23-.16.34-.14.11-.05.25.13.39.18.14.04.78.16.82.13.04.31.04.54.04s.07.43.23.43.36-.46.36-.46l1.01.03.51,1.04-3.39-.48.04-3.7,1.17.05c.07,0,.14.03.21.07h0Zm-35.37-19.09l.28-3.84s3.54.36,4.13.98l-.84,3.7-3.57-.84h0Zm1.57-3.07c-.05,0-.12.04-.15.36-.03.32-.19.42-.26.51-.07.08-.22.12-.22.26,0,.15.06.19.16.36.1.17-.02.21.02.42.04.21.09.21.39.42.3.21.16.51.35.5.19-.01.26-.15.51-.15s.32.17.41.17.13-.12.13-.32.11-.32.24-.32.4-.07.43-.17c.03-.09-.01-.27-.15-.42-.14-.15-.23-.5-.07-.62.16-.13.17-.23.04-.23s-.26,0-.4-.16c-.14-.16-.21-.45-.37-.45s-.2.13-.41.13-.56-.3-.56-.3h-.08Zm3.06,4.18l1.38-3.55s3.07,1.32,3.68,1.98l-1.85,3.3s-2.86-1.51-3.21-1.73h0Zm2.12-2.35c-.18.14-.08.29-.2.48-.12.19-.44.15-.54.27-.1.11.05.2.14.31.09.1.03.41-.03.53-.06.12-.02.18.13.28.15.09.15.24.15.43s.11.34.25.34.13-.15.38-.15.32.4.45.42c.13.02.18-.58.3-.6.12-.02.47,0,.54-.16.08-.15-.17-.47-.17-.7,0-.23.31-.23.31-.41,0-.17-.31-.23-.45-.27-.14-.04-.21-.5-.21-.5,0,0-.19.08-.39.08s-.6-.37-.6-.37l-.06.04h0Zm4.47,1.91l-2.19,2.73,2.46,2.28,2.48-2.48-2.75-2.52h0Zm-.27,1.14l.08-.18s.25.61,1.05.43c0,0-.04.71.53.63,0,0,.14.22-.04.33-.18.1-.12.41-.12.55,0,.14.14.39-.02.49-.16.1-.31.06-.47.14-.16.08-.14.49-.29.51-.14.02-.18-.12-.18-.28s-.31-.18-.51-.14c-.2.04-.35.22-.37.04-.02-.18.12-.59-.16-.69-.29-.1-.25-.18-.14-.33.1-.14.21-.55-.02-.59-.23-.04-.18-.08.1-.27.29-.18.47-.3.57-.63h0Zm3.49,7.93l-2.1-2.78,2.78-2.53s2.21,2.24,2.45,3.17l-3.13,2.14h0Zm-.64-3l-.17-.19s.26-.03.47-.17c.21-.14.14-.55.31-.69.17-.14.26-.03.31.12.05.16.26.33.54.22.28-.1.31.05.31.15s.1.47.24.47.4.05.35.14c-.05.09-.21.19-.21.55s.17.57.17.57c0,0-.4.12-.57.14-.17.02-.28.36-.33.52-.05.16-.07.22-.14,0-.07-.22-.23-.22-.61-.19-.38.03-.38-.1-.38-.29,0-.19-.02-.41-.29-.48-.28-.07,0-.1.02-.35.02-.24.12-.38-.02-.52h0Zm5.11,9.32l2.3-2.95s2.74,2.26,3,2.64l-2.72,2.67s-1.99-1.82-2.59-2.36h0Zm-3.8-5.03c.76.65,3.03,3.64,3.03,3.64l2.11-2.48c-.08-.86-2.3-3.58-2.3-3.58l-2.84,2.42h0Zm2.11-.8c-.11.12-.11.44-.11.57,0,.13-.37.2-.47.35-.09.16.08.26.18.41.09.15,0,.26-.05.38-.06.12-.14.21,0,.27.13.06.23.19.39.3.16.11.11.4.23.4s.28-.08.48-.08.28.28.41.26c.13-.02.08-.39.1-.54.03-.15.18-.11.37-.12.19,0,.31-.08.36-.18.05-.09-.22-.39-.27-.64-.05-.25.08-.43.08-.43,0,0-.06-.19-.22-.19s-.22-.14-.29-.31c-.08-.17-.16-.31-.16-.31,0,0,0,.14-.29.18-.29.04-.66-.39-.66-.39l-.08.07h0Zm3.6,4.15c-.06.02-.08.02-.11.23-.03.21-.09.59-.27.62s-.4.17-.38.26c.02.09.31.33.34.44.02.11-.18.23-.21.36-.02.13.35.25.53.35.19.1.11.49.22.53.11.04.34-.17.52-.17s.21.24.37.27c.16.03.17-.2.19-.31.03-.11.13-.35.27-.39.14-.04.34-.04.37-.14.03-.1-.09-.1-.15-.27-.06-.18-.14-.52-.07-.71.07-.19.22-.25-.04-.25s-.38-.02-.4-.19c-.01-.16-.13-.35-.19-.35s-.22.12-.46.1c-.25-.01-.46-.35-.46-.35h-.08Zm3.69,2.27c-.23.48-1.2,3.07-1.2,3.07l3.07,1.71,1.81-3.26c-.32-.67-3.6-1.86-3.6-1.86l-.08.33h0Zm.53.85l.04-.18s.53.36.78.27c.25-.08.46-.08.48.13.02.21.24.37.46.37s.15.13.07.24c-.08.1-.19.03-.15.21.04.18.42.76.32.86-.1.1-.22.11-.43.17-.21.06-.31.02-.31.25s-.07.44-.16.44-.11-.18-.26-.23c-.15-.06-.4-.04-.54.02-.13.06-.12,0-.24-.24-.13-.24-.16-.29-.35-.37-.18-.08-.24-.15-.17-.39.07-.24.09-.33-.02-.46-.1-.12-.26-.2-.05-.31.2-.11.39-.21.39-.38,0-.16.12-.24.13-.4h0Zm3.81,4.75v-3.72s3.2-.02,4.06.65l-.58,3.63-3.48-.56h0Zm.8-2.34c-.01.26-.03.45-.11.53-.08.08-.16.15-.07.19.09.03.16.4.16.67,0,.27.26.29.37.3.11.01.45.06.45.22s.06.26.2.21c.14-.06.1-.37.28-.37s.51,0,.6-.04c.09-.03.09-.21.09-.38,0-.16-.01-.55.09-.55.1,0,.23-.09.25-.22.02-.13-.29-.18-.32-.34-.03-.16,0-.53-.18-.53s-.47-.06-.57-.21c-.1-.14-.12-.38-.27-.38s-.2.35-.3.45c-.1.11-.61.11-.61.11l-.05.33Z" style="fill: #231815; fill-rule: evenodd; stroke-width: 0px;"/>
      </g>
      <path d="m88.06,127.76c.9.91,1.96,1.72,3.29,2.43l6.17-4.33c-.43-1.41-.8-2.79-1.13-4.15l-8.33,6.04Z" style="fill: #231815; fill-rule: evenodd; stroke-width: 0px;"/>
      <path d="m96.14,120.69l-8.68,6.44c.19.22.39.42.59.63l8.33-6.04c-.09-.34-.17-.69-.25-1.03h0Zm-4.79,9.51l6.17-4.33c.1.34.21.68.31,1.02l-5.52,3.79c-.34-.15-.66-.31-.96-.48Z" style="fill: #ffe100; fill-rule: evenodd; stroke-width: 0px;"/>
    </g>
    <g>
      <path d="m91.69,140.85l-.2-.22v-.8c.23.06.5-.02.67-.22l.74-.85s.02-.03.04-.04c.18.06.35.11.53.16l-1.78,1.97h0Zm-.21-2.65v.89c.25.06.53,0,.73-.19.1-.1.17-.22.2-.35-.3-.1-.61-.22-.92-.34h0Zm.21,9.55l-.16-.18v-.84c.22.04.47-.04.63-.23l.74-.85c.25-.28.23-.72-.04-.96l-1.24-1.1s-.08-.06-.12-.09v-.97s2.46,2.68,2.46,2.68l-2.28,2.52h0Zm-.18-3.21v1.45c.25.05.51-.02.69-.2.29-.29.29-.76,0-1.05-.19-.19-.45-.25-.69-.2h0Zm.21,10.07l-.16-.17v-.84c.22.04.46-.04.63-.23l.74-.85c.25-.29.23-.72-.04-.96l-1.24-1.1s-.08-.06-.12-.08v-.97s2.46,2.67,2.46,2.67l-2.28,2.52h0Zm-.17-3.21v1.46c.25.05.5-.02.69-.2.29-.29.29-.76,0-1.05-.19-.19-.45-.25-.69-.2h0Zm.14,9.99l-.09-.1v-.9c.2.01.41-.07.56-.24l.74-.85c.25-.29.23-.72-.04-.96l-1.24-1.1s-.04-.03-.05-.04v-.94s2.39,2.6,2.39,2.6l-2.28,2.52h0Zm-.11-3.22v1.48c.23.02.45-.05.62-.21.29-.29.29-.76,0-1.05-.17-.17-.4-.24-.62-.21h0Zm6.28-17.74l-.75-.82c.26.03.51.06.75.08v.73h0Zm0,6.82l-1.98-2.15,1.98-2.19v.76c-.07.04-.13.09-.18.15l-.74.85c-.25.29-.23.72.04.96l.88.78v.85h0Zm0-1.52v-1.35c-.08.04-.15.09-.22.15-.29.29-.29.76,0,1.05.07.07.14.11.22.15h0Zm0,8.35l-1.95-2.12,1.95-2.16v.75c-.05.03-.1.08-.14.13l-.74.85c-.25.29-.23.72.04.96l.85.75v.84h0Zm0-1.5v-1.32c-.07.03-.13.08-.18.14-.29.29-.29.76,0,1.05.06.06.12.1.18.13h0Zm0,4.88c-.05.03-.1.08-.14.13l-.74.85c-.25.29-.23.72.04.96l.44.39c-.16.08-.32.16-.48.24l-1.06-1.15,1.95-2.16v.75h0Zm0,2.03v-1.32c-.07.03-.13.08-.18.14-.29.29-.29.76,0,1.05.06.06.12.1.18.13h0Zm-2.01,1.04s.09-.04.13-.05l.47-.37-1.06-1.31,2.47-3.1v-.68s-2.48-3-2.48-3l2.48-2.99v-1.01s-2.45-3.03-2.45-3.03l2.45-3.06v-.71s-1.51-1.7-1.51-1.7c-.38-.06-.77-.13-1.17-.22l2.02,2.28-2.26,2.82-2.28-2.82,2-2.4c-.26-.06-.52-.13-.79-.2l-1.97,2.36-.19.23.19.23,2.57,3.18-2.69,3.36-.18.23.19.23,2.65,3.21-2.57,3.11-.19.23.19.23,2.59,3.21-1.03,1.29.58.45.92-1.16.93,1.15h0Zm-.94-9.09l2.42-2.92-2.38-2.95-2.4,3,2.37,2.87h0Zm0,6.76l2.27-2.85-2.28-2.76-2.29,2.76,2.3,2.85h0Zm.06-1.96c-.38,0-.69-.33-.69-.74,0-.41.31-.74.69-.74s.69.33.69.74-.31.74-.69.74h0Zm0-6.95c-.38,0-.69-.33-.69-.74s.31-.74.69-.74.69.33.69.74-.31.74-.69.74h0Zm0-6.95c-.38,0-.69-.33-.69-.74s.31-.74.69-.74.69.33.69.74-.31.74-.69.74Z" style="fill: #fff; fill-rule: evenodd; stroke-width: 0px;"/>
      <polygon points="51.05 173.49 47.38 173.49 47.38 86.58 51.05 90.52 51.05 173.49" style="fill: #231815; fill-rule: evenodd; stroke-width: 0px;"/>
      <path d="m49.15,156.59c-.32,0-.58-.32-.58-.7s.26-.71.58-.71.58.32.58.71-.26.7-.58.7h0Zm-1.77,11.52v-1.48s3.1-2.97,3.1-2.97v1.5s-3.1,2.95-3.1,2.95h0Zm0-2.36l3.1-2.97v-1.54s-3.1,3-3.1,3v1.51h0Zm0-10.91v-1.47s3.1-2.97,3.1-2.97v1.5s-3.1,2.95-3.1,2.95h0Zm0-2.36l3.1-2.97v-1.54s-3.1,3-3.1,3v1.51h0Zm0-10.91v-1.48s3.1-2.97,3.1-2.97v1.5s-3.1,2.95-3.1,2.95h0Zm0-2.36l3.1-2.97v-1.54s-3.1,3-3.1,3v1.51h0Zm0-10.91v-1.47s3.1-2.97,3.1-2.97v1.5s-3.1,2.95-3.1,2.95h0Zm0-2.36l3.1-2.97v-1.54s-3.1,3-3.1,3v1.51h0Zm0-10.91v-1.48s3.1-2.97,3.1-2.97v1.5s-3.1,2.95-3.1,2.95h0Zm0-2.36l3.1-2.97v-1.54s-3.1,3-3.1,3v1.51h0Zm0-10.91v-1.47s3.1-2.97,3.1-2.97v1.5s-3.1,2.94-3.1,2.94h0Zm0-2.36l3.1-2.97v-1.54s-3.1,3-3.1,3v1.51h0Zm1.77,60.65c-.32,0-.58-.32-.58-.7s.26-.71.58-.71.58.32.58.71-.26.7-.58.7h0Zm.84-1.75c-.32,0-.58-.32-.58-.71s.26-.7.58-.7.58.32.58.7-.26.71-.58.71h0Zm-1.77,0c-.32,0-.58-.32-.58-.71s.26-.7.58-.7.58.32.58.7-.26.71-.58.71h0Zm.93-14.94c-.32,0-.58-.32-.58-.7,0-.39.26-.7.58-.7s.58.32.58.7-.26.7-.58.7h0Zm0,3.41c-.32,0-.58-.32-.58-.71s.26-.7.58-.7.58.32.58.7-.26.71-.58.71h0Zm.84-1.75c-.32,0-.58-.32-.58-.71,0-.39.26-.7.58-.7s.58.32.58.7-.26.71-.58.71h0Zm-1.77,0c-.32,0-.58-.32-.58-.71,0-.39.26-.7.58-.7s.58.32.58.7-.26.71-.58.71h0Zm.93-28.22c-.32,0-.58-.32-.58-.7,0-.39.26-.71.58-.71s.58.32.58.71c0,.39-.26.7-.58.7h0Zm0,3.42c-.32,0-.58-.32-.58-.71s.26-.71.58-.71.58.32.58.71-.26.71-.58.71h0Zm.84-1.75c-.32,0-.58-.32-.58-.71s.26-.7.58-.7.58.32.58.7-.26.71-.58.71h0Zm-1.77,0c-.32,0-.58-.32-.58-.71s.26-.7.58-.7.58.32.58.7-.26.71-.58.71h0Zm.93-28.22c-.32,0-.58-.32-.58-.71s.26-.7.58-.7.58.32.58.7-.26.71-.58.71h0Zm0,3.41c-.32,0-.58-.32-.58-.71s.26-.71.58-.71.58.32.58.71-.26.71-.58.71h0Zm.84-1.75c-.32,0-.58-.32-.58-.7s.26-.71.58-.71.58.32.58.71-.26.7-.58.7h0Zm-1.77,0c-.32,0-.58-.32-.58-.7s.26-.71.58-.71.58.32.58.71-.26.7-.58.7h0Zm.93,11.61c-.32,0-.58-.32-.58-.7s.26-.71.58-.71.58.32.58.71-.26.7-.58.7h0Zm0,3.41c-.32,0-.58-.32-.58-.71,0-.39.26-.7.58-.7s.58.32.58.7-.26.71-.58.71h0Zm.84-1.75c-.32,0-.58-.32-.58-.7s.26-.7.58-.7.58.32.58.7c0,.39-.26.7-.58.7h0Zm-1.77,0c-.32,0-.58-.32-.58-.7s.26-.7.58-.7.58.32.58.7c0,.39-.26.7-.58.7h0Zm.93,64.72c-.32,0-.58-.32-.58-.71s.26-.7.58-.7.58.32.58.7c0,.39-.26.71-.58.71h0Zm0,3.41c-.32,0-.58-.32-.58-.71s.26-.7.58-.7.58.32.58.7-.26.71-.58.71h0Zm.84-1.75c-.32,0-.58-.32-.58-.7,0-.39.26-.71.58-.71s.58.32.58.71-.26.7-.58.7h0Zm-1.77,0c-.32,0-.58-.32-.58-.7,0-.39.26-.71.58-.71s.58.32.58.71-.26.7-.58.7h0Zm.93-41.5c-.32,0-.58-.32-.58-.7s.26-.71.58-.71.58.32.58.71-.26.7-.58.7h0Zm0,3.41c-.32,0-.58-.32-.58-.71,0-.39.26-.71.58-.71s.58.32.58.71-.26.71-.58.71h0Zm.84-1.75c-.32,0-.58-.32-.58-.7,0-.39.26-.7.58-.7s.58.32.58.7-.26.7-.58.7h0Zm-1.77,0c-.32,0-.58-.32-.58-.7s.26-.7.58-.7.58.32.58.7-.26.7-.58.7Z" style="fill: #ffe100; fill-rule: evenodd; stroke-width: 0px;"/>
      <polygon points="51.97 173.49 51.05 173.49 51.05 90.52 47.38 86.58 47.38 85.22 51.97 90.16 51.97 173.49" style="fill: #ffe100; fill-rule: evenodd; stroke-width: 0px;"/>
      <path d="m52.23,151.35l.77,3.64s-1.34,0-2.17.01c-.84.01-1.77-.4-1.79-1.04-.01-.64.52-1.29,1.18-1.7.65-.41,1.07-.38,1.37-.38s.54-.21.63-.54Z" style="fill: #004ea2; fill-rule: evenodd; stroke-width: 0px;"/>
      <path d="m62.77,180.31l-3.04,6.46s-.99-1.08-1.54-1.98c-.56-.9-.89-2.06-1.06-3.09-.18-1.03-.99-3.27-1.52-4.09-.53-.83-.68-1.11-.68-1.38,0-.28,1.24-.3,2.05-.23.81.08,1.95.35,3.06,1.43,1.11,1.08,2.51,2.44,2.73,2.89Z" style="fill: #004ea2; fill-rule: evenodd; stroke-width: 0px;"/>
      <path d="m91.48,138.2l.13,23.22s-6.53-3.55-7.05-3.89c-.52-.35-9.24-8.05-9.24-8.05l-6.12,4.68c.22-1.9.47-5.1.36-9.23l3.99-3.03-.49-16.76,3.41-2.6c2.05,2.46,3.46,5.52,6.4,9.18v15.15s5.99,5.22,5.99,5.22v-15.15c.88.5,1.76.91,2.63,1.25Z" style="fill: #231815; fill-rule: evenodd; stroke-width: 0px;"/>
      <path d="m93.6,188.46l-4.95-9.93s-10.55,2.39-24.27-.05l-4.91,9.98h34.13Z" style="fill: #e60012; fill-rule: evenodd; stroke-width: 0px;"/>
      <path d="m91.09,188.46l-3.56-6.83-4.56.52,2.04,6.31h-1.16s-2.13-6.62-2.13-6.62l-.2-.64.67-.08,5.61-.64.38-.04.18.34,4,7.67h-1.25Zm-8.91,0l-1.49-6.46-.1-.43h-.44s-8.4.1-8.4.1h-.51s-.04.5-.04.5l-.56,6.29h1.12s.5-5.7.5-5.7l7.45-.08,1.33,5.78h1.14Zm-13.39,0h-1.12s.8-6.36.8-6.36l-3.18-.41-2.26,6.77h-1.17s2.52-7.55,2.52-7.55l.14-.43.45.06,4.18.54.55.07-.07.54-.85,6.76Z" style="fill: #231815; stroke-width: 0px;"/>
      <path d="m72.71,160.14s-.99-.72-1.68-.77c-.69-.05-1.25.18-1.48.38-.23.2-.38-.1-.31-.28.07-.18.61-.3.74-.33.13-.03-.61-.58-.51-.74.1-.16,1.65-.15,2.02-.02.38.13-.02.33-.2.33s-.13.23.28.26c.52.04,1.27.61,1.14,1.17h0Zm3.19,11.65l-.16-.03s-.31-.02-.4-.31c-.09-.29-.03-.35.1-.38.14-.03.43.22.56.41.12.19.1.33-.1.31h0Zm-3.14-.72c.03.13-.07.43-.28.42-.21-.01-.27-.22-.25-.34.05-.22.48-.33.53-.08h0Zm2.07.58c-.24-.06-.44-.59-.75-.64-.24-.03-.54.43-.78.57-.24.14-.28-.1-.14-.33.14-.22.56-.55.85-.57.29-.02.5.21.76.53.26.33.21.43.05.43h0Zm-1.55-9.01s.65-1.5.96-1.85c.3-.35-.09-.45-.42-.28-.33.17-.89.41-1.34.5-.45.09-.98-.44-1.42-.53-.44-.09-1.03.25-1.35.48-.33.24-1.12.27-1.78-.62l-.02,1.98s.34-.39.61-.39.41.15.71.22c.3.08.55-.26.83-.29.28-.03.46-.03.64.11.18.15.67.29,1.2.09.54-.2.66-.29.92-.19.27.1.36.5.46.75h0Zm-1.59,4.74c.25.23.71-.28,1.02-.76.31-.48.57-1.05.3-1.82-.28-.78-1.4-.94-2.05-.69-.65.24-1.37.78-1.37,1.17s.38.4.69.34c.32-.06.74-.34,1.15-.65.41-.3.86.05,1.02.39.35.8-1.15,1.65-.74,2.02h0Zm-7.41,10.18c4.26.75,8.45.99,12.15.97.11-.59.32-1.85.61-4.02-.39.19-1.6.77-2.81,1.12-1.47.43-3.85-.33-3.6-1.56,0,0,.25-.12.85.18,1.55.8,3.9.16,5.7-.84.02-.14.04-.28.05-.42-.41.27-1.43.88-2.63,1.08-1.56.26-3.44-.38-3.7-1.7,0,0-.08-.36.34-.56,0,0-.16-.42-.1-.78.06-.36.96-1.22,2.42-1.94,1.46-.72,2.24-.54,2.36-.26.12.28-.32.52-.86.54-.54.02-1.28.3-1.54.56,0,0,.08.08.6.06.52-.02,1.3.18,1.6.44.3.26.66.56.92.66.16.06.54.08.8.08.05-.44.1-.9.16-1.38.64-5.8.81-8.81,1.68-10.55-.8-.59-4.72-3.42-7.49-3.4-3.1.02-4.61,2.12-5.28,4.15-.47,1.41-1.37,5.38-1.87,10.61h0c.29-.16.82-.42,1.34-.47.76-.07,1.88.25,1.88.25,0,0-1.51-1.37-1.51-1.63s.14-.39.35-.29c.21.1,1.19.96,1.49,1.18.31.22.56.29.42-.17-.15-.46-.98-3.27-.98-4.03,0-1.07,1.12-1.81,2.56-2.63,0,0-1.82,2.38-1.85,2.69-.03.32.4,2.11.86,3.99.46,1.89.51,3.38-.77,4.83-1.23,1.4-2.96,1.53-4.11.97h0c-.03.74-.04,1.5-.05,2.26h0Zm13.08-5.62c-.02.19-.05.38-.07.56-1.25.93-4.05,1.84-5.59.07,0,0,.44.16,1.35.37.9.21,2.75.43,4.3-1h0Zm-12.98,2.15c.01-.26.03-.53.04-.79h0c1.55,1.26,3.84,0,3.84,0-.61,1.05-1.41,1.56-2.31,1.48-.65-.06-1.27-.47-1.57-.7h0Zm.24-3.24h.76s-.66.52-.85.94c.03-.32.05-.63.08-.94h0Zm-.13,1.52c0-.05,0-.1.01-.15h.33s.17.31.92.46c.75.15,1.45.03,2.52-.43l.38-.05s-.39,1-1.67,1.13c-1.2.12-2.25-.26-2.49-.97h0Zm4.24-.99l-.71.28-.56-.9,1.26.63h0Zm-1.35.37h-.43s-.11-.77-.59-.73c-.48.04-.71.42-.71.42l-.37-.04s.26-.61.86-.74c.6-.14,1.18.6,1.25,1.09h0Zm13.8-14.55l-5.5-5.27-4.58,3.43s3.78-.46,8.43,3.49c.08-.13.18-.26.27-.37.48-.57.94-.99,1.38-1.28Z" style="fill: #fff; fill-rule: evenodd; stroke-width: 0px;"/>
      <path d="m78.91,178.47c.08-.69.45-3.92.7-6.12.28-2.39.38-7.91,2.15-9.7-.44-.41-.78-.88-1.04-1.55-.29.67-.79,2.03-1.1,4.06-.44,2.93-1.28,11.15-1.56,13.34.29,0,.57-.02.85-.03h0Zm5.29-.36c.13-1.12.49-4.25.84-6.33.4-2.36.5-5.25,1.52-6.31-.37-.2-.74-.39-1.09-.58-.24.34-.56,1.05-.75,2.48-.32,2.42-1.11,8.83-1.53,10.83.35-.03.68-.06,1-.09h0Zm2.94-.35c-.3.04-.64.09-.99.13.15-1.45.56-5.19.97-7.98.3-2.07.66-3.14.9-3.67.31.16.6.32.88.46-.65,1.06-.67,2.82-1.03,5.3-.32,2.19-.62,4.75-.73,5.75h0Zm-4.28.48c-.27.02-.54.04-.83.07.07-.7.21-1.9.44-3.67.4-3.08.46-4.09.82-7.01.26-2.08.79-2.98,1.07-3.32.24.13.51.27.79.43-.38.36-.6,1.1-.77,2.2-.2,1.31-.31,2.85-.68,5.47-.29,2.04-.69,4.74-.85,5.85h0Zm2.85-.29c-.37.04-.76.09-1.17.13.19-1.46.73-5.55,1.17-8.54.37-2.5.87-3.51,1.15-3.9.3.16.6.32.89.47-.78,1.02-1.17,4.01-1.44,6.77-.22,2.22-.48,4.22-.6,5.07h0Zm-2.58-16.73c-.16-.03-.34-.23-.34-.73s-.13-.68-.35-.61c-.23.07-.34.36-.07,1,.27.64,1,1.13,1.73.41.73-.72.28-2,.28-2-.55-1.26-1.55-1.78-2.84-.5-1.29,1.29-1.97,4.73-2.36,7.23-.39,2.5-.59,5.95-.91,8.25-.22,1.57-.38,3.3-.46,4.23-.33,0-.67.01-1.02.02.29-1.23.77-3.7,1.06-6.51.37-3.6.59-7.97,1.18-10.84.59-2.87,2.79-4.21,4.11-4.17,1.32.04,2.17,1.1,2.15,2.71-.02,1.61-.49,2-1.13,2.61-.23.22-.42.38-.57.5-.29.22-.46.3-.56.27-.14-.04-.68-.42-1.21-.89-.36-.32-.6-.66-.68-1.1-.04-.21-.04-.43-.01-.69.1-.8,1.18-2.02,1.78-2.02s1.25.99,1.19,1.89c-.03.45-.43,1.06-.95.94h0Zm-1.47,17.11c-.33.02-.67.04-1.02.06.19-1.69.81-7.03,1.29-10.15.43-2.78.92-4.15,1.14-4.67.13.07.26.15.4.23.17.1.39.22.65.36-.88.84-1.14,2.49-1.55,5.94-.38,3.21-.78,6.96-.92,8.22h0Zm-1.35.08c-.28.01-.56.03-.85.04.13-1.64.72-9.07,1.18-11.89.38-2.26.99-3.32,1.31-3.74.26.22.56.42.9.62-.68.85-.94,2.68-1.47,6.01-.49,3.1-.95,7.58-1.08,8.95h0Zm10.1-10.91c-.22-.11-.67-.35-1.24-.65-.36.54-.42,1.37-.79,4-.41,2.86-.78,5.76-.92,6.86.57-.08,1.02-.16,1.35-.21.06-1.54.36-7.57,1.56-9.92.01-.03.03-.05.04-.07h0Zm-7.09-4.22l1.05.58c1.42-.9,2.32-1.85,2.36-3.05.03-.79-.24-1.6-.44-2.08l-.85-.45s.29,1.22.12,2.47c-.18,1.25-1.55,2.16-2.24,2.53h0Zm1.48.82l.7.38c1.83-1.12,2.31-1.71,2.31-2.73,0-.77-.23-1.86-.36-2.4l-.56-.3c.4,1.72.33,2.69-.46,3.56-.66.73-1.35,1.28-1.62,1.48h0Zm1.06.58c.32-.2,1.21-.8,1.88-1.55.78-.87.46-2.08.11-3.57l.76.41c.17.43.4,1.19.39,2.04-.02,1.22-1.15,2.49-2.21,3.19l-.94-.52h0Zm1.39.77l.74.41c.2-.24.53-.61.95-.93.7-.52,1.46-.8,1.46-2.25,0-.93-.41-1.7-.71-2.13l-.6-.32c.46,1.57.22,2.9-.26,3.53-.42.56-1.3,1.41-1.59,1.69h0Zm.99.55l.73.4c1.97-.63,2.47-1.67,2.43-3.26-.02-1.11-.21-1.63-.34-1.85l-.73-.39c.9,2.58.14,3.3-.61,3.84-.61.44-1.24,1.02-1.48,1.26h0Zm1.2.66c.3-.15.88-.47,1.37-.9.68-.61,1.25-1.09.88-4.14l.51.27c.14.41.51,1.54.56,2.22.07.81-.53,1.76-2.32,3.1l-.99-.55h0Zm1.35.75c.34-.32,1.36-1.3,1.9-1.9.62-.69.39-2.1-.1-3.41l.21.11c1.25.58,1.07,2.38,1.07,2.38-.14,2.1-1.2,2.84-1.92,2.9-.36.03-.7,0-.95-.03-.06,0-.11-.02-.15-.02l-.05-.03h0Zm-26.84,3.73l-.12.55s-.57-2.54-1.18-3.41c-.61-.87-1.06-.69-1.87-1.08-.82-.39-.55-1.14-.43-1.65.12-.51.55-.91,1-1,.45-.08,1.2.12,1.79.77.59.65,1,2.17,1.12,3.05.12.87-.14,1.79-.31,2.76h0Zm.96-8s-1.9-4.16-2.17-4.72c-.27-.56-.78-.68-.78-.68-1.33-.1-2,.85-1.96,1.87.04,1.01,1.43,1.19,1.94,1.28.51.1,1.04.64,1.45,1.96.41,1.32,1.12,3.67,1.12,3.67l.41-3.38h0Zm.25-.6l-2.07-4.5s1.55.23,2.01,1.44c.24.64.8,2.51.07,3.06h0Zm.72-2.36c.34-.37.39-1.08-.37-1.18-.09.43-.02,1.09.37,1.18Z" style="fill: #ffe100; fill-rule: evenodd; stroke-width: 0px;"/>
      <path d="m59.98,184.88l.28.34-.61,1s-.97-1.1-1.32-1.92c-.35-.82-.69-2.07-.92-3.17-.23-1.1-1.06-3.5-1.98-4.57,0,0,.82-.13,1.87-.1,1.05.03,1.96.8,2.73,1.57.78.77,2.36,2.42,2.36,2.42l-.84,1.73s-.27-1.58-.48-1.66c-.21-.08-.27.46-.27.69,0,.23-.17.1-.38-.39-.21-.5-.24-.91-.24-.91l-.64-.06-.39-1.65-.67.1s-.17-1.17-.32-1.21c-.16-.04-.38.1-.41.24-.04.14-.21.08-.48-.1-.27-.18-.39-.31-.54-.25-.16.06-.09.18-.22.23-.13.05-.06.22.16.3.22.08.38.34.19.5-.18.17-.36.28-.22.4.14.11.36.24.74.45.37.21.22.54.1.62-.12.08.09.32.39.52.3.19.17.36-.03.44-.19.08-.25.4.09.48.34.08,1.01.38,1.08.66s-.48.41-.06.73c.42.32.7.43.92.56.22.13-.2.31-.38.29-.18-.01-.55.29.26.51.81.22.67.53.23.6-.44.07-.23.32.01.61Z" style="fill: #ffe100; fill-rule: evenodd; stroke-width: 0px;"/>
      <path d="m97.87,159.57v-19.86c2.22.21,3.7.05,3.7.05v17.43s-1.53,1.22-3.7,2.38Z" style="fill: #231815; fill-rule: evenodd; stroke-width: 0px;"/>
      <path d="m88.85,156.17l-13.82-11.23-5.49,4.12c.02-.54.03-1.11.03-1.7l5.33-4.08,13.94,11.71v1.16h0Zm-1.27,1.13c-.12-.72-.25-1.36-.86-1.43-.61-.07-1.43.27-1.79.01-.36-.26.02-1.35-.3-1.96-.32-.61-.73-.65-1.68-.62-.94.03-1.08-.07-1.35-.55-.27-.47.01-1.46-.6-1.88-.61-.42-1.39-.12-2.09-.4-.71-.28-.47-1.08-.59-1.85-.12-.77-.56-.77-2.33-.87-1.76-.09-2.68-.25-3.28-.11-.6.14-.72.73-.82,1.49-.1.76-.23,1.19-.62,1.27-.39.09-.78-.03-1.08-.14-.15-.06-.44-.08-.7-.08-.02.4-.04.78-.06,1.14.38.03,1.12.06,1.98-.01,1.24-.11,1.14-1.66,1.17-1.92.03-.25.16-.6.9-.66.74-.06,2.63-.17,3.44-.09.81.08.54,1.25.91,2.08.37.83,1.6.68,2.18.71s.68.5.85,1.5c.16.99,1.04,1.15,1.45,1.16.42.01,1.13-.23,1.35.1.22.34.26,1.02.34,1.92.08.89,1.48.58,2.19.6.71.01.8.69.92,1.29.12.6.51.92,1,.91.48-.01.73-.75.43-.86-.3-.1-.42.08-.71-.08-.29-.16-.25-.48-.25-.48l-.03-.18Z" style="fill: #ffe100; fill-rule: evenodd; stroke-width: 0px;"/>
      <path d="m84.29,148.12v-14.74c1.43,1.51,2.98,2.66,4.55,3.55v15.15s-4.55-3.97-4.55-3.97Z" style="fill: #e60012; fill-rule: evenodd; stroke-width: 0px;"/>
      <path d="m75.18,140.17v-16.66s.67-.51.67-.51v17.75s-.67-.59-.67-.59h0Zm7.7-8.43c.23.29.47.57.72.87.04.04.07.09.11.13v14.87s-.83-.72-.83-.72v-15.14Z" style="fill: #f6ab00; fill-rule: evenodd; stroke: #fff100; stroke-miterlimit: 22.93; stroke-width: 0px;"/>
      <path d="m82.44,145.4l-1.15-1.29-1.37-1.54,1.37-1.54,1.15-1.29v1.15s-.63.72-.63.72l-.85.96.85.96.64.72v1.15h0Zm-6.26-22.65l.27-.21c1.23,1.48,2.23,3.17,3.47,5.08l-3.12-4.15-.52.54-.1-1.26h0Zm6.26,9.71v1.15s-.61.69-.61.69l-.85.96.85.96.61.69v1.15s-1.12-1.27-1.12-1.27l-1.37-1.54,1.37-1.54,1.12-1.27h0Zm0,2.14l-.17.19-.41.47.41.47.17.2v-1.32h0Zm0,7.27l-.2.22-.41.47.41.47.2.22v-1.37h0Zm-3.91,1.21l-.64-.56-.79-.89-.85-.96-.09.1v-1.16s.09-.1.09-.1l1.36,1.54,1.37,1.54-.44.49h0Zm-2.38-4.77v-1.15s.82-.92.82-.92l.85-.96-.85-.96-.82-.92v-1.15s1.33,1.5,1.33,1.5l1.37,1.54-1.37,1.54-1.33,1.5h0Zm0-2.14l.38-.43.41-.47-.41-.47-.38-.42v1.78h0Zm0-4.69l.03.03,1.36-1.54,1.37-1.54-1.37-1.54-1.36-1.54-.03.03v1.16s.03-.03.03-.03l.85.96.85.96-.85.96-.85.96-.03-.03v1.15h0Zm0-2.14l.03.03.41-.47.41-.47-.41-.47-.41-.47-.03.03v1.81h0Zm3.29,12.73l1.36-1.54,1.37-1.54-1.37-1.54-1.36-1.54-1.36,1.54-1.37,1.54,1.37,1.54,1.36,1.54h0Zm0-1.15l.85-.96.85-.96-.85-.96-.85-.96-.85.96-.85.96.85.96.85.96h0Zm0-.99l.41-.47.41-.47-.41-.47-.41-.47-.41.47-.41.47.41.47.41.47h0Zm0-4.94l1.36-1.54,1.37-1.54-1.37-1.54-1.36-1.54-1.36,1.54-1.37,1.54,1.37,1.54,1.36,1.54h0Zm0-1.16l.85-.96.85-.96-.85-.96-.85-.96-.85.96-.85.96.85.96.85.96h0Zm0-.99l.41-.47.41-.47-.41-.47-.41-.47-.41.47-.41.47.41.47.41.47h0Zm-2.5-8.36l-.4.35,2.01,2.15-1.61-2.5Z" style="fill: #ffe100; fill-rule: evenodd; stroke-width: 0px;"/>
      <path d="m69.54,144.92c-.11-4.32-.62-9.66-1.95-15.64l5.45-4.15.49,16.76-3.99,3.03Z" style="fill: #e60012; fill-rule: evenodd; stroke-width: 0px;"/>
      <path d="m83.34,156.51c-.38.03-1.01.13-1.7.42l-5.99-5.7s-5.11,4.22-6.75,4.91c0,0,.13-.7.28-1.99h0l6.12-4.68s5.51,4.87,8.04,7.04h0Zm-14.14-2.51c.04-.32.07-.67.11-1.06h0c-.04.39-.07.74-.11,1.06Z" style="fill: #ffe100; fill-rule: evenodd; stroke-width: 0px;"/>
      <g>
        <path d="m62.86,156.44l1.47,1.83,1.51.81,2.32-2.53c.08-.46.15-.91.21-1.37l-2.31-2.97-3.03,3.22c-.06.34-.12.68-.19,1.01h0Zm.72-.47l2.37-2.57,1.95,2.71-2.56,2.34-1.76-2.48h0Zm1.37.6c-.27-.22-.25-.68.04-1.02.29-.34.74-.44,1.01-.22.27.22.25.68-.04,1.02-.29.34-.74.44-1.01.22Z" style="fill: #fff; fill-rule: evenodd; stroke-width: 0px;"/>
        <path d="m63.6,150.18l2.5,2.42,2.79-3.5.02-1.11-3.03-2.98-2.22,3.18c0,.67-.02,1.34-.05,1.99h0Zm.28-1.08l2.03-2.95,2.38,2.58-2.27,2.74-2.15-2.37h0Zm1.53.43c-.29-.19-.33-.65-.08-1.02.25-.38.68-.53.97-.34.29.19.33.65.08,1.02-.25.37-.68.53-.97.34Z" style="fill: #fff; fill-rule: evenodd; stroke-width: 0px;"/>
        <path d="m66.97,152.71l1.47,2.06c.05-.38.1-.77.14-1.16l-.59-.89.75-.64c.01-.12.02-.24.03-.36l.04-.68-1.83,1.67Z" style="fill: #fff; fill-rule: evenodd; stroke-width: 0px;"/>
        <path d="m63.16,154.77l2.03-2.17-1.61-1.95c-.02.43-.05.85-.09,1.27l.64.85-.81.83c-.05.4-.1.79-.16,1.17Z" style="fill: #fff; fill-rule: evenodd; stroke-width: 0px;"/>
        <path d="m63.5,143.47l2.44,2.32,2.81-3.62c-.02-.26-.04-.53-.06-.79l-3.12-3.01-2.22,3.27c.06.61.11,1.23.15,1.84h0Zm.2-1.11l1.93-2.89,2.38,2.52-2.17,2.69-2.15-2.32h0Zm1.51.42c-.29-.18-.33-.63-.1-1,.23-.37.66-.52.95-.33.29.18.33.63.1,1-.23.37-.66.52-.95.33Z" style="fill: #fff; fill-rule: evenodd; stroke-width: 0px;"/>
        <path d="m63.65,147.49l1.4-1.94-1.51-1.42c.03.43.05.86.06,1.29l.42.43-.39.52c0,.38.02.75.02,1.13Z" style="fill: #fff; fill-rule: evenodd; stroke-width: 0px;"/>
        <path d="m66.81,145.32l2.11,2.34v-.95c.01-.06.01-.12.01-.18l-1.1-1.3,1.03-1.11c-.02-.36-.03-.71-.05-1.07l-1.99,2.28Z" style="fill: #fff; fill-rule: evenodd; stroke-width: 0px;"/>
        <path d="m66.5,138.4l2.1,1.91c-.03-.38-.07-.77-.11-1.15l-.99-.96.77-1.01c-.04-.36-.09-.71-.14-1.07l-1.62,2.28Z" style="fill: #fff; fill-rule: evenodd; stroke-width: 0px;"/>
        <path d="m63.29,141.13l1.37-2.36-1.86-1.44c.07.42.13.83.19,1.25l.68.58-.5.83c.05.38.09.76.13,1.14Z" style="fill: #fff; fill-rule: evenodd; stroke-width: 0px;"/>
        <path d="m62.71,136.87l3.1,2.3,2.22-3.72c-.05-.37-.11-.73-.17-1.1l-3.33-2.5-2.01,3.92c.07.37.13.74.19,1.11h0Zm.46-.83l1.56-3.1,2.68,2.21-1.82,2.93-2.42-2.04h0Zm1.55.24c-.31-.15-.41-.59-.22-.98.19-.39.59-.59.9-.44.31.15.41.59.22.98-.19.39-.59.59-.9.44Z" style="fill: #fff; fill-rule: evenodd; stroke-width: 0px;"/>
        <path d="m61.36,130.38l3.71,2,1.61-4.2s-.02-.09-.03-.14c-.08-.3-.15-.59-.23-.89l-3.57-1.99-1.68,4.46c.07.25.13.51.2.76h0Zm.55-.61l1.31-3.5,2.72,1.58-1.34,3.42-2.69-1.49h0Zm1.65-.09c-.32-.1-.49-.54-.37-.98.12-.44.47-.72.79-.62.32.1.49.54.37.98-.11.44-.47.72-.79.62Z" style="fill: #fff; fill-rule: evenodd; stroke-width: 0px;"/>
        <path d="m65.51,131.79l2.18,1.45c-.06-.35-.12-.71-.19-1.06l-1.03-.73.66-1.2c-.08-.39-.16-.77-.24-1.16l-1.37,2.71Z" style="fill: #fff; fill-rule: evenodd; stroke-width: 0px;"/>
        <path d="m62.43,135.22l1.3-2.88-2.22-1.37c.1.4.19.79.28,1.19l.99.67-.58,1.22c.08.39.15.78.23,1.17Z" style="fill: #fff; fill-rule: evenodd; stroke-width: 0px;"/>
        <path d="m59.32,123.74l3.66,1.71,1.5-4.69c-.05-.15-.1-.3-.16-.45l-3.98-1.93-1.38,4.4c.12.32.24.64.36.96h0Zm.36-.71l1.11-3.56,2.81,1.42-1.15,3.48-2.77-1.34h0Zm1.64-.19c-.32-.08-.52-.51-.43-.96.09-.45.43-.74.75-.66.32.08.52.51.43.96-.09.44-.43.74-.75.66Z" style="fill: #fff; fill-rule: evenodd; stroke-width: 0px;"/>
        <path d="m63.65,125.15l2.55,1.23c-.09-.33-.19-.67-.28-1l-1.33-.66.59-1.81c-.13-.41-.26-.82-.4-1.23l-1.13,3.47Z" style="fill: #fff; fill-rule: evenodd; stroke-width: 0px;"/>
        <path d="m60.92,128.73l1-2.89-2.26-1.14c.13.39.27.78.39,1.17l.97.55-.43,1.17c.11.38.22.76.33,1.14Z" style="fill: #fff; fill-rule: evenodd; stroke-width: 0px;"/>
        <path d="m58.74,122.2l.73-3.05-2.38-.91c.16.36.32.73.49,1.11l1.05.46-.33,1.28c.15.37.3.74.44,1.12Z" style="fill: #fff; fill-rule: evenodd; stroke-width: 0px;"/>
        <path d="m61.18,118.18l2.82,1.21c-.12-.34-.24-.67-.37-1.01l-1.53-.68.52-1.9c-.15-.38-.31-.76-.47-1.13l-.97,3.5Z" style="fill: #fff; fill-rule: evenodd; stroke-width: 0px;"/>
        <path d="m56.69,117.34l3.81,1.41,1.17-5.14-4.4-1.69-1,4.52c.14.29.28.59.42.9h0Zm.32-.73l.8-3.64,2.92,1.18-.85,3.57-2.87-1.1h0Zm1.62-.32c-.33-.05-.56-.47-.51-.92.05-.45.36-.78.69-.72.33.05.56.47.51.92-.05.45-.36.78-.69.72Z" style="fill: #fff; fill-rule: evenodd; stroke-width: 0px;"/>
        <path d="m53.58,111.15l3.91,1.12,1.01-4.76-4.65-1.4-.82,4.03c.16.29.35.62.56,1.01h0Zm.18-.72l.68-3.38,3.09.98-.73,3.31-3.04-.91h0Zm1.67-.36c-.35-.04-.6-.41-.57-.82.04-.42.35-.73.69-.69.35.04.6.41.57.83-.03.42-.35.73-.69.69Z" style="fill: #fff; fill-rule: evenodd; stroke-width: 0px;"/>
        <path d="m58.16,111.77l3.19,1.06c-.15-.32-.29-.64-.44-.96l-1.87-.65.42-2.28c-.19-.36-.38-.72-.57-1.07l-.73,3.9Z" style="fill: #fff; fill-rule: evenodd; stroke-width: 0px;"/>
        <path d="m56.02,115.92l.5-3.22-2.51-.75c.18.33.37.69.56,1.07l1.16.4-.25,1.41c.17.35.35.71.53,1.09Z" style="fill: #fff; fill-rule: evenodd; stroke-width: 0px;"/>
        <path d="m52.68,109.56l.33-2.57-.63-.17v2.24s.11.17.3.5Z" style="fill: #fff; fill-rule: evenodd; stroke-width: 0px;"/>
        <polygon points="52.38 106.26 53.82 106.44 54.08 101.58 52.38 101.34 52.38 102.11 53.21 102.24 53 105.63 52.38 105.54 52.38 106.26" style="fill: #fff; fill-rule: evenodd; stroke-width: 0px;"/>
        <path d="m54.2,105.9l4.24,1.17c-.17-.31-.35-.63-.53-.94l-2.86-.83.34-2.57c-.22-.24-.44-.47-.67-.69l-.51,3.86Z" style="fill: #fff; fill-rule: evenodd; stroke-width: 0px;"/>
      </g>
      <path d="m61.52,156.61c-1.61-.86-4.37-2.36-5.99-3.45,0,0,1.59-3.93-.55-7.35l6.41-2.95-1.63,2.71-.09.15.12.13,1.4,1.42-1.39,2-.1.15,1.89,2.11-1.46,1.67-.1.11.06.13,1.44,3.17h0Zm.61-14.09l-1.89,3.13,1.41,1.43.13.13-.11.16-1.39,2.01,1.78,1.99.14.15-.13.15-1.5,1.71,1.55,3.42v-.02s.17-.8.17-.8l.25-1.48-.84-.69,1.04-.83.05-.4.14-1.79c0-.15.01-.31.02-.46l-.97-.69,1.02-.8c0-.27.01-.54.01-.81,0-.72-.01-1.44-.04-2.17l-.77-.34.72-.92c-.05-.77-.1-1.54-.16-2.32,0-.02,0-.04,0-.06l-.62.28Z" style="fill: #ffe100; fill-rule: evenodd; stroke-width: 0px;"/>
      <path d="m59.72,155.64c-1-.55-2.1-1.17-3.05-1.75,1.49-3.61.18-7.48-.31-8.71l3.3-1.52-1.1,2.62,1.15,1.33-1.25,1.86,1.37,2.43-.98,1.32.87,2.42Z" style="fill: #231815; fill-rule: evenodd; stroke-width: 0px;"/>
      <path d="m52.78,111.03v20.47c3.31,3.63,5.69,12.09,5.69,12.09l4.23-1.94c-.08-.76-.16-1.52-.26-2.28-.13-.98-.28-1.95-.44-2.93-.17-.97-.36-1.93-.56-2.9-.21-.95-.43-1.9-.66-2.85-.24-.92-.49-1.85-.76-2.77-.27-.89-.55-1.78-.85-2.67-.4-1.14-.81-2.27-1.25-3.4-.52-1.31-1.07-2.6-1.65-3.89-.93-2.03-1.91-4.02-2.97-5.99-.17-.32-.35-.64-.52-.96Z" style="fill: #e60012; fill-rule: evenodd; stroke-width: 0px;"/>
      <path d="m61.7,139.66l-3.11,1.1s-1.72-7.86-4.9-12.19v-12.61s7.22,12.54,8,23.71Z" style="fill: #231815; fill-rule: evenodd; stroke-width: 0px;"/>
      <path d="m56.94,144.47c-1.29-4.27-2.91-8.06-4.58-10.79v11.85h2.7c.63-.35,1.26-.71,1.89-1.07h0Zm-4.34,5.18l-.24-.21v-3.61s1.48,0,2.1,0c0,0,1.21,1.58,1.21,3.78s-.46,3.45-.46,3.45c0,0-1.46,1.07-2.43,1.53h-2.19s.35-1.07-.67-1.53c0,0,.92-.75,1.65-.75s.92-.54,1.16-1.02c.24-.48.19-1.37-.14-1.63h0Zm-2.29,4.74c0-.22-.33-.98-.67-.96-.16,0-.14.48-.06.62.18.3.73.34.73.34Z" style="fill: #fff; fill-rule: evenodd; stroke-width: 0px;"/>
      <polygon points="47.38 175.63 51.92 175.63 47.38 180.52 47.38 182.66 55.14 174.1 47.38 174.1 47.38 175.63" style="fill: #ffe100; fill-rule: evenodd; stroke-width: 0px;"/>
      <polygon points="47.38 179.97 51.07 176 47.38 176 47.38 179.97" style="fill: #e60012; fill-rule: evenodd; stroke-width: 0px;"/>
      <path d="m75.52,121.51c-.9-.9-1.96-1.72-3.29-2.43l-6.17,4.33c.42,1.41.8,2.79,1.13,4.15l8.33-6.04Z" style="fill: #231815; fill-rule: evenodd; stroke-width: 0px;"/>
      <path d="m67.43,128.59l8.68-6.44c-.19-.21-.39-.42-.59-.63l-8.33,6.04c.08.35.17.69.24,1.03h0Zm4.79-9.51l-6.17,4.33c-.1-.34-.21-.68-.32-1.02l5.52-3.79c.34.16.66.32.96.48Z" style="fill: #ffe100; fill-rule: evenodd; stroke-width: 0px;"/>
    </g>
    <path d="m141.47,182.29c-4.12,0-7.49-3.11-7.49-6.93,0-2.68,1.66-5.01,4.08-6.16-.17-.23-.32-.49-.46-.76-1.24,1.12-2.86,1.8-4.62,1.8-3.88,0-7.05-3.29-7.05-7.32s3.17-7.32,7.05-7.32c3.32,0,6.12,2.41,6.86,5.64.13-.05.26-.1.4-.14,0-1.76-.17-8.8-3.61-11.98h9.34c-3.45,3.19-3.62,10.27-3.61,12,.14.04.27.09.4.15.77-3.17,3.55-5.52,6.83-5.52,3.88,0,7.05,3.29,7.05,7.32s-3.17,7.32-7.05,7.32c-1.8,0-3.45-.71-4.7-1.87-.1.19-.2.37-.32.54,2.59,1.1,4.39,3.51,4.39,6.31,0,3.82-3.36,6.93-7.49,6.93Z" style="fill: #231815; fill-rule: evenodd; stroke-width: 0px;"/>
    <path d="m146.04,243h-19.6v-5.61h5.69s0-32.63,0-32.63c0-3.47,1.32-6.65,3.45-8.96,2.18-2.37,5.21-3.85,8.55-3.85.47,0,.85.01,1.15.04,7.68.68,11.38,7.7,10.77,14.6l-5.61-.48c.36-4.05-1.57-8.15-5.64-8.51-.3-.02-.52-.04-.67-.04-1.71,0-3.28.78-4.43,2.03-1.21,1.31-1.95,3.14-1.95,5.17v32.63s8.29,0,8.29,0v5.61Z" style="fill: #231815; stroke-width: 0px;"/>
    <path d="m47.11,62.82c0-1.61,1.08-2.93,2.39-2.93h64.57c1.32,0,2.39,1.32,2.39,2.93v122.97c0,1.61-1.08,2.93-2.39,2.93H49.5c-1.32,0-2.39-1.32-2.39-2.93V62.82Z" style="fill: none; fill-rule: evenodd; stroke: #231815; stroke-miterlimit: 22.93; stroke-width: 1.5px;"/>
    <path d="m22.3,67.99c4.12,0,7.49,3.11,7.49,6.93,0,2.68-1.66,5.01-4.08,6.16.17.23.32.49.46.76,1.24-1.12,2.86-1.8,4.62-1.8,3.88,0,7.05,3.29,7.05,7.32s-3.17,7.32-7.05,7.32c-3.32,0-6.12-2.41-6.86-5.64-.13.05-.26.1-.4.14,0,1.76.17,8.8,3.61,11.98h-9.34c3.45-3.19,3.62-10.27,3.61-12-.14-.04-.27-.09-.4-.15-.77,3.17-3.55,5.52-6.83,5.52-3.88,0-7.05-3.29-7.05-7.32s3.17-7.32,7.05-7.32c1.8,0,3.45.71,4.7,1.87.1-.19.2-.37.32-.54-2.59-1.1-4.39-3.51-4.39-6.31,0-3.82,3.36-6.93,7.49-6.93Z" style="fill: #231815; fill-rule: evenodd; stroke-width: 0px;"/>
    <path d="m17.72,7.29h19.6v5.61h-5.69s0,32.63,0,32.63c0,3.47-1.32,6.65-3.45,8.96-2.18,2.37-5.21,3.85-8.55,3.85-.47,0-.85-.01-1.15-.04-7.68-.68-11.38-7.7-10.77-14.6l5.61.48c-.36,4.05,1.57,8.15,5.64,8.51.3.02.52.04.67.04,1.71,0,3.28-.78,4.43-2.03,1.21-1.31,1.95-3.14,1.95-5.17V12.9s-8.29,0-8.29,0v-5.61Z" style="fill: #231815; stroke-width: 0px;"/>
  </g>
</svg>