<?xml version="1.0" encoding="UTF-8"?>
<svg id="_图层_2" data-name="图层 2" xmlns="http://www.w3.org/2000/svg" viewBox="0 0 163.57 248.61">
  <g id="_图层_1-2" data-name="图层 1">
    <path d="m1,6.6c0-3.08,2.51-5.6,5.57-5.6h150.43c3.06,0,5.57,2.52,5.57,5.6v235.41c0,3.08-2.51,5.6-5.57,5.6H6.57c-3.06,0-5.57-2.52-5.57-5.6V6.6Z" style="fill: #fff; fill-rule: evenodd; stroke: #231815; stroke-miterlimit: 22.93; stroke-width: 2px;"/>
    <g>
      <path d="m59.37,63.87c2.69,0,4.88,2.02,4.88,4.49,0,1.74-1.08,3.25-2.66,4,.11.15.21.31.3.49.81-.73,1.86-1.17,3.01-1.17,2.53,0,4.59,2.13,4.59,4.74,0,2.61-2.06,4.74-4.59,4.74-2.17,0-3.99-1.56-4.47-3.65-.08.03-.17.07-.26.09,0,1.14.11,5.7,2.35,7.76h-6.09c2.25-2.07,2.36-6.66,2.35-7.77-.09-.03-.17-.06-.26-.1-.5,2.05-2.31,3.58-4.46,3.58-2.53,0-4.59-2.13-4.59-4.74,0-2.61,2.06-4.74,4.59-4.74,1.17,0,2.25.46,3.06,1.21.06-.12.13-.24.21-.35-1.69-.71-2.86-2.28-2.86-4.09,0-2.47,2.19-4.49,4.88-4.49Z" style="fill: #231815; fill-rule: evenodd; stroke-width: 0px;"/>
      <path d="m104.2,184.74c-2.69,0-4.88-2.02-4.88-4.49,0-1.74,1.08-3.25,2.66-4-.11-.15-.21-.32-.3-.49-.81.73-1.86,1.17-3.01,1.17-2.53,0-4.6-2.13-4.6-4.74,0-2.61,2.06-4.74,4.6-4.74,2.17,0,3.99,1.56,4.47,3.65.08-.04.17-.07.26-.09,0-1.14-.11-5.7-2.35-7.76h6.09c-2.25,2.07-2.36,6.66-2.35,7.78.09.03.17.06.26.1.5-2.05,2.31-3.58,4.45-3.58,2.53,0,4.59,2.13,4.59,4.74,0,2.61-2.06,4.74-4.59,4.74-1.17,0-2.25-.46-3.06-1.21-.06.12-.13.24-.21.35,1.69.71,2.86,2.28,2.86,4.09,0,2.47-2.19,4.49-4.88,4.49Z" style="fill: #231815; fill-rule: evenodd; stroke-width: 0px;"/>
    </g>
    <path d="m94.36,156.59c7.77-4.18,14.99-8.28,22.1-13.58v-31.26s-1.22-1-1.22-1l-.32-39.14-2.75-2.33-3.41,2.67v22.13s-4.82-3.06-4.82-3.06l-.48.27c.58-.46.95-1.81.4-2.96-.55-1.16-1.55-1.93-2.32-1.96-.77-.03-2.19.79-2.19.79-1.64-3.48-1.59-13.28-1.59-13.28l.39.05,7.36-14.03h-38.16s6.88,14.08,6.88,14.08l-1,3.19s-.77-.37-1.39.12c-.63.49-.79,1.45-.22,2.09.57.64,1.42.77,2.69.09,0,0-.45,2.68-1.46,3.76,0,0-.56-.67-1.24-.67s-1.32,1.05-1.32,1.79.6,1.64,1.62,1.64,2.03-.45,2.9-2.02c0,0,.35,1.32.43,2.69l-3.33,1.57s-1.17-.23-2.05.7c-.88.93-1.02,1.89-.61,3.23,0,0-4.05,1.76-11.96,6.48-6.78,4.41-9.28,6.28-10.18,6.96v31.26s1.22,1,1.22,1l.32,39.14,2.75,2.33,3.41-2.67v-22.13s4.82,3.06,4.82,3.06l.48-.27c-.58.46-.95,1.8-.4,2.96.55,1.16,1.55,1.93,2.32,1.96.77.03,2.19-.79,2.19-.79,1.64,3.48,1.59,13.28,1.59,13.28l-.4-.05-7.36,14.03h38.16s-6.88-14.08-6.88-14.08l1-3.19s.77.37,1.39-.12c.63-.5.79-1.45.22-2.09-.57-.64-1.42-.77-2.69-.09,0,0,.45-2.68,1.46-3.76,0,0,.56.67,1.24.67s1.32-1.05,1.32-1.79-.6-1.65-1.62-1.65-2.03.45-2.9,2.02c0,0-.34-1.32-.43-2.69l3.33-1.57s1.17.23,2.05-.7c.84-.9,1.01-1.68.65-3.09Z" style="fill: #004ea2; fill-rule: evenodd; stroke-width: 0px;"/>
    <g>
      <path d="m100.73,152.62h0c3.2-1.8,7.03-4.05,10.48-6.33v-17.89c-1.25-.4-1.87-1.17-1.9-2.09-.01-.54.02-.99.04-1.29l-1.07-.45v-.03c-.18-.08-.35-.15-.53-.2l-.64-.27v.15c-1.47-.14-2.62.63-2.62.63l-11.33,3.01-.18-.12-.11-.46c-.02-.69-.04-1.76.03-3.46-.92,1-1.8,1-1.8,1,.28,2.84-2.22,3.07-2.22,3.07v12.37c.06.1.11.19.17.29,3.38,5.76,10.58,11.24,11.68,12.06h0Zm-8.72-21.13l-.63-2.09-.63-2.09h1.15s0-1.4,0-1.4l.59,1.4h.78s-.63,2.09-.63,2.09l-.63,2.09h0Zm13.97,7.79l-.63-2.09-.63-2.09h1.15s0-1.4,0-1.4l.59,1.4h.78s-.63,2.09-.63,2.09l-.63,2.09h0Zm-.05,8.89l-.63-2.09-.63-2.09h1.15s0-1.4,0-1.4l.59,1.4h.78s-.63,2.09-.63,2.09l-.63,2.09h0Zm-4.61,3.73l-.63-2.09-.63-2.09h1.15s0-1.4,0-1.4l.59,1.4h.78s-.63,2.09-.63,2.09l-.63,2.09h0Zm-4.51-3.66l-.66-2.19-.66-2.19h1.21s0-1.47,0-1.47l.62,1.47h.82s-.66,2.19-.66,2.19l-.66,2.19h0Zm-4.92-5.96l-.66-2.19-.66-2.19h1.2s0-1.47,0-1.47l.62,1.47h.82s-.66,2.19-.66,2.19l-.66,2.19Z" style="fill: #fff; fill-rule: evenodd; stroke-width: 0px;"/>
      <path d="m108.93,98.07v-2.87s-1.37,2.01-2.83,5.12c-1.47,3.11-5.32,11.54-5.26,22.41v4.1s.7-.46,1.68-.98c-.23-1.77-.69-7.09.97-14.36,1.7-7.44,4.52-12.05,5.43-13.42Z" style="fill: #ffe100; fill-rule: evenodd; stroke-width: 0px;"/>
      <path d="m108.93,111.26v-11.55s0-1.64,0-1.64c-.92,1.37-3.73,5.98-5.43,13.42-1.66,7.27-1.21,12.59-.97,14.36.09-.05.19-.1.28-.15,1.73-.88,4.16-1.85,5.47-1.09v23.55c.71-.44,1.41-.88,2.1-1.33v-18.81c-.69-.43-1.04-1.03-1.06-1.72-.01-.68.03-1.22.06-1.48-.55-.16-1.21-.42-1.65-.86-.88-.87-1.03-1.99-.8-2.9.23-.91.14-1.64.11-2.62-.02-.98.16-2.12,1.44-3.19,1.28-1.07,3.78-1.59,6.06-.79l.43-.56s-.57-.76-.88-.95c-.32-.18-1.2-.03-2,.17-.8.2-2.24.53-3.23.53s-2.06-.69-2.19-1.55c-.14-.86.4-1.75.88-1.75s1.03.46,1.38.91Z" style="fill: #231815; fill-rule: evenodd; stroke-width: 0px;"/>
      <path d="m116.46,113.9c-.28.21-.65.37-1.16.33,0,0-.35.08-.35.28,0,.2.2.61.51.78.3.18,1.06.94.74,1.92,0,0,.21.28.27.74v-4.05h0Zm0,4.61c-.07.69-.09,1.18-.12,1.64-.03.48-.18.51-.18.84s.1.98.02,1.36c-.08.38-1.07,1.32-2.42,1.35,0,0,.59.78.73,1.61.14.83-.25,3.04-2.81,3.29v17.36c1.74-1.16,3.38-2.33,4.76-3.44v-24.01Z" style="fill: #e60012; fill-rule: evenodd; stroke-width: 0px;"/>
      <path d="m101.01,93.06l2.82-1.53,5.14,3.11s-8.13,10.18-8.71,27.14v.1c-.35-.05-.71-.08-1.09-.09-2.85-.07-4.82,1.67-5.84,3.87.03-1.14.09-2.63.16-4.14.47-9.26,2.92-20.43,7.52-28.45Z" style="fill: #e60012; fill-rule: evenodd; stroke-width: 0px;"/>
      <path d="m74.02,71.07l.06.11.61,1.28s8.13-2.65,23.11-.16l.62-1.21.11-.21c-13.34-2.44-22.51-.35-24.5.19Z" style="fill: #e60012; fill-rule: evenodd; stroke-width: 0px;"/>
      <path d="m104.13,59.9h-35.48s5.37,11.17,5.37,11.17c1.99-.53,11.16-2.63,24.5-.19l5.61-10.98Z" style="fill: #ffe100; fill-rule: evenodd; stroke-width: 0px;"/>
      <path d="m72.7,68.32l1.32,2.74c1.99-.53,11.16-2.63,24.5-.19l.92-1.8c-.64.28-1.51.49-2.5.33-2.2-.36-2.77-3.14-2.77-3.14-.51,1.1-1.88,2.73-4.4,2.73-2.52,0-3.63-3-3.63-3-.64,1.36-1.92,2.99-4.27,3.11-2.36.12-3.69-2.33-3.69-2.33-.92,1.83-2.27,2.88-3.37,2.73-.82-.11-1.7-.82-2.11-1.18h0Zm-2.51-5.22c.44.03,1.31.2,1.61,1.14,0,0,1.5-.24,1.85.69.35.93-.49,1.93-.93,2.11,0,0,1.2.47,2.11-.49,0,0,1.42.77,2.46-.2,0,0-1.6-.28-1.79-1.44-.18-1.16.85-1.56,1.1-1.56,0,0,.01-1.51,1.23-1.59,1.22-.08,1.22,1.14,1.22,1.37,0,0,1.53.23,1.53,1.28,0,1.05-1.29,1.74-1.29,1.74,0,0,.52.49,1.24.49s1.51-.37,1.86-.91c0,0,.98.83,1.62.87.64.04,1.06-.33,1.09-.68,0,0-1.62-.25-1.64-1.55-.02-1.3,1.09-1.38,1.09-1.38,0,0,.28-1.82,1.46-1.76,1.18.06,1.38,1.53,1.38,1.53,0,0,1.43.3,1.43,1.58,0,1.28-.84,1.42-1.37,1.42,0,0,.55.6,1.23.62.68.02,1.23-.23,1.52-.55,0,0,.8.77,1.6.79.8.02,1.29-.38,1.29-.38,0,0-1.63-.13-1.71-1.47-.08-1.34,1.25-1.38,1.5-1.38,0,0,.31-1.57,1.48-1.57s1.53,1.11,1.23,1.96c0,0,1.17.1,1.35,1.05.18.95-.42,1.85-1.65,1.51,0,0,.26.56.95.56s1.57-.06,1.57-.06c0,0,.58,1.02,1.87.79,0,0-.85-.59-.9-1.45-.05-.86.93-1.47,1.87-1.28,0,0-.23-1.5,1.8-1.77l-1.32,2.59c-.26.06-.58.18-.79.46-.26.33-.06.66.12.85l-.63,1.24c-.17.13-.36.25-.58.35-1.02.46-3.26-.19-4.13-1.35,0,0-.65-.81-.58-1.42,0,0,.14-.49.16-.76.02-.27-.11-.49-.38-.49s-.72.09-.72.54.23.56.2.87c-.04.31-1.94,2.1-3.13,2.1s-2.7-.26-3.69-1.65c0,0-.48-.6-.48-1.17s.1-1.15-.24-1.19c0,0-.39-.07-.61.17-.22.25.08.49.08.94s-.09,1.23-1.09,2.05c-1,.82-1.52.92-2.57.92-1.06,0-2.32-.48-3.11-1.48-.79-1-.6-1.34-.44-1.46.15-.11.06-.58-.29-.59-.35-.02-.56.06-.56.38,0,.33.23.61.42.88.19.27-.17.81-.4,1.11-.23.31-1.37,1.57-3.08,1.57-.9,0-1.58-.26-2.02-.5l-2.4-5Z" style="fill: #231815; fill-rule: evenodd; stroke-width: 0px;"/>
      <path d="m75.45,75.95l-.28.14v-.55s.77-.58,1.73-.63c.95-.05,2.56.14,3.07,1.53-.35-.35-1.77-1.04-2.6-1.02-.84.02-1.41.28-1.92.54h0Zm-.1,1.1c1.19-.63,2-.62,2.8-.48.8.14,1.8.85,1.8.85-.17-.62-1.82-1.34-3.08-1.26-1.26.09-1.57.75-1.57.75l.04.13h0Zm.18,1.16h-.21s-.09.13-.08.42c.01.29.46.41.62.35.16-.06-.11-.73-.33-.77h0Zm.83-.23c.27.61.66.92,1,.9.34-.01.89-.66.89-.66-.09.97-.95,1.26-1.5.94-.55-.32-.79-1.21-.79-1.21l.4.02h0Zm2.71.35l-.08.05s-.23.43-.32.53c-.08.09.39.07.56-.09.18-.17.18-.49-.16-.48h0Zm-4.6-4.34c.04.12.1.32.17.63.35-.22,1.14-.67,2.06-.76,1.24-.12,3.49.11,4.03,2.69,0,0,.11.47-.19,1.79-.3,1.31-.9,4.71-.94,5.32l.71.5s0-1.18.8-1.35c.8-.17,1.08.43,1.61.64.54.21,1.15.12,1.34-.35.19-.47-.29-1.09-.92-1.3,0,0,.09-.26.52-.26s.94.54.94.88c0,.35-.03,1.34-.76,1.75-.73.42-2.6.02-2.6.02,0,0,.97,1.39.53,2.12,0,0-.34-.74-.94-1.21-.59-.47-1.41-.36-1.66-1.07-.26-.71.5-3.84.5-3.84,0,0-.89.95-1.07.95s-.14-.28.11-.55c.25-.28.4-.7.02-.7s-1.5.41-3.83-.65c0,.13-.01.26-.02.39,0,0-.06,2.1-.06,2.69,0,.59.86,2.56.86,5.25s.17,6-4.23,6.39c0,0,.48.6,1.57.42,1.09-.18,2.87-1.05,3.68-4.65,0,0,.14-.69.28-.69s.25.08.22.32-.21.85-.45,1.63c-.24.77-1.12,3.01-3.36,3.78,0,0,1.61.17,2.72-.82,1.12-.99,2.07-3.59,2.07-3.59,0,0,.06-.18.25-.18s.21.39.08.6c-.13.21-1.18,3-2.71,3.88,0,0,1.24-.18,2.26-1.65,1.02-1.47,1.21-2.57,1.32-2.9.12-.33.44-.2.44.12s-.79,2.88-2.9,4.41c0,0,1.41-.22,2.43-1.51,0,0,.7-.93,1.01-2.05,0,0,.18-.65.25-.83.07-.18.32-.08.32.28,0,.37-.47,2.08-1.83,3.35,0,0,.87-.28,1.61-1.29.74-1.01,1.05-2.7,1.05-2.7,0,0-.81-.03-1.21-.26-.4-.22-.38-.51-.15-.6.23-.09.56.09,1,.16.43.07,1.04-.05,1.39-.16.34-.11.58-.05.58.14,0,.18-.36.55-1.2.69,0,0,.86,2.41,2.52,4.42,0,0,1.29,1.71,3.32,1.68,2.02-.03,3.77-1.2,4.08-2.77.31-1.56-.59-2.79-1.66-2.79s-1.66,1.01-1.69,1.65c-.03.64.39,1.4,1.01,1.4,0,0,.36.03.34.25-.03.22-.39.17-.98.17s-1.94-.31-2.64-.81c-.7-.5-1.55-1.34-1.86-2.15l.3-.22s1.35,2.8,4.02,2.71l-.74-1.09s-.91-.18-1.93-1.14c-1.02-.96-1.06-1.08-1.05-1.25.01-.17.22-.3.45.01.23.32,1.28,1.9,2.81,2.02v-.79s-.71-.21-1.44-.9c-.73-.69-.77-.75-.77-.85s.12-.25.28-.22c.16.04,1.08,1.59,2.27,1.62l.41-.42s-1.69-1.09-2.08-1.89l.36-.25s1.43,1.74,2.02,1.87.86-.21.86-.21l-2.2-2.39.4-.35,2.88,3.23s-.89-3.12-1.3-8.53c-.07-.88-.13-1.73-.18-2.53-.49-.53-1-.24-1.23-.05-.25.21-.81.44-1.32.48-.5.04-2.38.06-2.38.06l.99,1.1s-2.17-.65-2.4-1.37c-.23-.71.1-1.17-.45-1.46s-.27-.98.17-.98.6,0,.64-.17c.04-.17.27-.6,1.07-1,.78-.4,1.87-.88,4.74.87-.02-.32-.04-.62-.06-.91-.4-.25-1.76-1.03-3.17-1.13-.56-.07-1.09-.07-1.66,0-.62.07-.97.54-1.34.69-.37.14-.74.02-.74-.25s.11-.79,1.31-1.32c1.2-.53,2.58-.18,3.61.18.81.28,1.64.86,1.95,1.09-.06-1.05-.11-1.85-.13-2.33-.93-.06-1.91-.1-2.91-.11-5.46-.08-10.7.96-12.19,1.29h0Zm15.43,4.15c-.49-.39-1.86-1.41-3.05-1.42-.51-.04-.95-.06-1.47.04-.52.1-.77.48-.97.5-.19.02-.21-.17-.02-.42s.85-.67,2.05-.67c1.1,0,2.52.47,3.42,1.4.01.19.03.39.04.59h0Zm-5.04.97s-.3-.21-.49-.34c-.18-.13-.08-.39.21-.38.29.01.42.79.42.79l-.14-.07h0Zm.52-.51l-.09-.16s-.08-.24.13-.24.31.18.58.37c.26.18.51.13.68.04.17-.09.42-.35.56-.35s.12.29-.09.51c-.21.22-.49.31-.83.31s-.72-.2-.94-.49h0Zm2.45.34l-.16-.03s.22-.5.42-.5.38.09.37.3c-.01.21-.28.16-.63.22h0Zm-9.87,5.84c-.26-.14-.28-.29-.67-.26-.45.03-.67.33-.61,1.02.06.68.73.99,1.32.81.6-.17,1.38-1,1.77-1s.74.23.73.67c-.01.44-.54.9-1.1,1.15-.57.25-1.58.57-2.34-.12-.76-.68-1.05-1.77-1.02-2.19.03-.42.29-.9.86-.93.57-.03.94,0,1.32.23.38.23.55.78.16.8-.39.01-.42-.17-.42-.17h0Zm1.55,4.14c-.32.15-.65-.05-.65-.46s.06-.56.45-.67c.39-.11.52,0,.69-.11.17-.11.48-.46.8-.54.32-.07.5.11.78.22s.32.24.56.24.33-.32.73-.32.76.19.91.26c.15.07.56,0,.8,0s.41.41.47.78c.06.37.07.59-.11.61-.19.02-.39-.11-.65-.26-.26-.15-.86.02-1.12.02s-.63.13-1.13.13-.67-.11-1.08-.11-.69-.17-.97-.17-.3.33-.47.37h0Zm5.57-1.94l-.32-.08s-1.23-.31-1.9-.76c-.67-.44-.02-1.05.61-1.05s1.49.74,2.36.83c.88.09,1.55-.43,1.66-1.18.11-.76-.43-.89-.67-.89s-.69.22-.91.54c-.22.31-.47.15-.47-.37s.74-.89,1.17-.81c.43.07,1.3.67,1.51,1.5.21.83-.52,2.26-1.62,2.44,0,0-.56.04-1.43-.17h0Zm-10.71-11.99c.09.6.16,1.26.16,1.81,0,.51-.03,1.16-.05,1.84-.35.75-1.13.88-1.6.88-.52,0-1.19-.35-1.19-.91s.43-1.15.93-1.15.45.31.7.3c.26-.02.31-.57.48-1.07.13-.39.43-1.3.57-1.7h0Zm.05,5.93c0,.37.02.71.05.99.04.37.12.76.21,1.15-.23,1.46-1.67,2.53-2.55,2.52-.94-.01-1.32-.58-1.34-1.1-.02-.52.1-1.07.45-1.26.35-.19.86-.13,1.13.19.26.32.25.44.53.42.28-.02.68-.56.97-1.25.23-.55.47-1.36.56-1.67h0Zm.92,6.14c.02.51.03,1.07.02,1.64l-.13.14c-.16-.67-.47-1.1-.76-1.37l.87-.4h0Zm-1.33.61c.3.23.71.69.83,1.6l-.45.5c-.16-.99-.62-1.55-.97-1.84l.59-.27h0Zm-1.07.49c.28.17.96.71,1.03,2.09l-.49.55c.19-1.63-1.17-2.34-1.17-2.34l.62-.29h0Zm-.52,2.63l-.02-.1s-.28-.52-.8-.52-.99.37-.99,1.09c0,.72.8,1.29,1.51,1.22.71-.07,1.25-.84,1.98-1.75.72-.91,1.24-1.49,1.24-1.49,0,0-.03,1.22-.24,1.99-.21.77-1.49,2.31-3.2,2.34-1.71.03-2.37-1.46-2.44-2.49-.08-1.03.64-2.2,1.77-2.4,1.13-.2,1.95.77,1.97,1.67.02.9-.52,1.68-1.07,1.71-.55.03-1.05-.27-1.05-.96s.79-.52.82-.27c.03.24.43.14.53-.05h0Zm23.92-17.2c.08,1.08.23,3.32.29,4.62,0,.14.01.33.02.56.09,2.18.3,7.49,1.52,8.87.51-.24.86-.4.86-.4,0,0-1.13-2.65-1.28-5.11-.13-2.2-.45-7.32-.51-8.38-.26-.05-.57-.1-.9-.16h0Zm-1.1-.18c.25.04.5.08.73.11.07,1.05.23,3.37.3,4.71,0,.16.01.34.02.55.09,2.16.29,7.35,1.56,9.01-.28.13-.58.26-.89.4-.42-.71-.74-2.08-.98-3.63-.42-2.78-.57-6.11-.57-7.22,0-1.32-.11-3.06-.17-3.93h0Zm-1.58-.22c.42.05.83.11,1.2.16.06.83.18,2.64.18,3.98,0,1.12.15,4.47.57,7.28.24,1.56.56,2.95,1,3.73-.3.13-.61.26-.9.37-.77-1.42-1.05-5.9-1.15-7.68-.01-.24-.03-.44-.04-.56-.1-1.38-.21-2.75-.38-4.12-.13-1.05-.28-2.1-.49-3.16h0Zm-1.31-.15c.32.03.62.07.92.1.22,1.08.38,2.16.5,3.25.16,1.34.27,2.71.37,4.11,0,.14.02.32.04.55.11,1.77.38,6.2,1.18,7.79-.24.09-.46.16-.65.21-.08.02-.16.05-.24.08-.98-2.15-1.09-5.45-1.15-7.27-.01-.35-.02-.66-.03-.87-.08-1.38-.23-2.87-.41-4.35-.15-1.22-.33-2.43-.53-3.59h0Zm-1.15-.11c.26.02.51.05.76.07.21,1.17.39,2.42.55,3.67.18,1.47.33,2.94.41,4.33.01.23.02.52.03.86.06,1.85.16,5.19,1.18,7.41-.77.4-.88.98-.88.98,0,0-1.02-3.69-1.02-5.43,0-1.74-.27-4.87-.44-7.3-.13-1.9-.46-3.85-.6-4.61h0Zm-1.24-.1c.27.02.53.04.79.06.44,1.48.64,4.82,1,10.29.39,5.83,1.45,8.75,1.97,9.43.52.68,1.21.8,1.66.65.45-.15,1-.65,1.03-1.19.03-.54-.02-.94-.33-1.32-.31-.37-.84-.33-1.12-.15-.28.19-.73.44-.8.46-.07.02-.13.13.05.25.18.13.32.04.32.04.24-.22.58-.51.92-.43.34.07.56.27.56.89,0,.62-.44,1.13-1.06,1.13s-1.48-1.13-1.48-2.14,1.02-1.61,2.27-1.32c1.26.29,1.6,1.73,1.62,2.89.02,1.15-.29,2.29-2.15,2.29s-3.38-3.55-3.82-6.01c-.43-2.46-.59-3.98-.9-7.84-.27-3.38-.48-7.11-.53-7.98h0Zm6.03,16.35c.65.11,1.45.77,1.64,2.02.19,1.25-.05,2.64-.05,2.64,0,0,.31-.16.78-.39.24-.92.31-1.53.3-1.99-.02-.46-.14-.78-.27-1.11-.23-.55-1.42-1.4-1.73-1.62-.55.24-.92.4-.92.4l.26.05h0Zm1.16-.67c.5.36,1.43,1.1,1.66,1.66.15.37.28.73.31,1.27.02.43-.04.97-.21,1.73.24-.12.51-.26.79-.4.2-.82.27-1.38.25-1.81-.02-.46-.14-.78-.27-1.11-.24-.59-1.59-1.52-1.78-1.65-.25.11-.5.22-.74.32h0Zm1.24-.53c.25-.11.5-.21.74-.32.44.32,1.37,1.02,1.57,1.51.14.33.25.64.27,1.11.02.46-.06,1.07-.3,2-.15.07-.29.15-.44.22.14-.67.19-1.16.18-1.56-.02-.54-.15-.89-.31-1.26-.24-.58-1.23-1.35-1.71-1.7h0Zm1.23-.53c.3-.13.58-.25.81-.35.85.56,1.31,1.1,1.5,1.76.21.75.09,1.67-.23,2.9-.15.08-.32.16-.48.24.18-.77.23-1.32.22-1.75-.02-.54-.15-.89-.31-1.27-.21-.51-.99-1.16-1.51-1.54h0Zm1.32-.56c.79.57,1.24,1.15,1.44,1.85.22.76.13,1.63-.14,2.76.04-.02.08-.04.12-.06,1.47-.71,1.59-1.91,1.01-3.22-.58-1.3-1.8-1.57-2.27-1.39-.03.01-.09.03-.16.06Z" style="fill: #fff; fill-rule: evenodd; stroke-width: 0px;"/>
      <path d="m93.62,94.32c-.13-.13-.26-.26-.37-.39-.42-.48-.69-.94-.69-.94-.06.3-.15.58-.26.83-.91,2.18-3.21,2.61-4.82,2.51-1.93-.12-3.46-2.09-4.37-3.63-.01-.02-.02-.04-.04-.06-.34-.58-.9-1.67-1.12-2.1-.11.75-.36,1.39-.69,1.94-.04.06-.07.11-.11.17l7.18,5.5,5.28-3.81Z" style="fill: #e60012; fill-rule: evenodd; stroke-width: 0px;"/>
      <path d="m78.63,94.59l9.95,7.48,10.87-8.64-.67.39s-2.6,1.27-3.83,1.2c-.48-.02-.94-.33-1.33-.7l-5.28,3.81-7.18-5.5c-.62.92-1.52,1.55-2.52,1.95Z" style="fill: #231815; fill-rule: evenodd; stroke-width: 0px;"/>
      <path d="m77.84,94.85h0s.02.03.02.05c.55,1.11,1.13,2.34,1.68,3.59l.37.27v-3.21s-1.28-.96-1.28-.96l-.79.26h0Zm2.76,4.41l2.42,1.77v-3.15s-2.42-1.82-2.42-1.82v3.2h0Zm3.11,2.27l1.86,1.36v-3.1s-1.86-1.4-1.86-1.4v3.13h0Zm2.54,1.86l2.11,1.55v-3.04s-2.11-1.59-2.11-1.59v3.09h0Zm2.8,1.6l1.74-1.41v-3.27s-1.74,1.38-1.74,1.38v3.3h0Zm2.43-1.96l2.21-1.79v-3.23s-2.21,1.76-2.21,1.76v3.26h0Zm2.9-2.34l1.61-1.3v-3.2s-1.61,1.28-1.61,1.28v3.22h0Zm2.3-1.85l1.7-1.38c.08-.19.17-.37.25-.55v-2.82s-1.95,1.55-1.95,1.55v3.19h0Zm2.64-3.35c.88-1.76,1.59-2.9,1.59-2.9l-1.44.84-.15.12v1.94Z" style="fill: #ffe100; fill-rule: evenodd; stroke-width: 0px;"/>
      <path d="m97.91,98.55l-9.26,7.36-8.61-6.31c.56,1.29,1.1,2.57,1.56,3.72l7.05,4.88,7.89-5.83c.22-.69.45-1.36.67-2.01.22-.62.45-1.22.69-1.81h0Zm-15.93,5.69l6.72,4.52,7.61-5.64c-.3.99-.59,2.03-.87,3.12l-6.74,5-5.56-4.09c-.23-.6-.64-1.64-1.15-2.92h0Zm1.46,3.85l5.27,3.79,6.53-4.87c-.21.88-.42,1.8-.61,2.75l-5.81,4.38-4.85-3.66c-.15-.78-.32-1.57-.53-2.39h0Zm.68,3.23c.16.98.29,1.96.4,3l4.15,2.88,5.36-4.19c.14-.86.29-1.69.44-2.5l-5.62,4.19-4.74-3.37h0Zm.47,3.66l3.75,2.63s-1.01.5-1.33,1.32l-2.23-1.54c-.01-.15-.02-.3-.04-.46h0c-.05-.68-.1-1.32-.16-1.95h0Zm9.34-1.26l-4.76,3.73s1.42.68,1.57,1.32l2.8-2.18c0-.07.02-.14.02-.21.11-.91.23-1.8.36-2.66h0Zm-9.09,4.42c.08,1.14.16,2.28.23,3.42.78-.98,1.82-1.02,1.82-1.02v-.97s-2.05-1.43-2.05-1.43h0Zm6.17,2.49v-1.41s2.44-1.89,2.44-1.89c-.2,1.77-.34,3.26-.43,4.5-.34-.49-1.02-1.22-2.02-1.2Z" style="fill: #ffe100; fill-rule: evenodd; stroke-width: 0px;"/>
      <path d="m85.23,124.13c.4.3,1.03.7,1.56.72,0,0-.34,2.56,1.66,2.94v11.68c-1.56-2.99-2.3-5.85-2.66-8.21-.23-2.37-.4-4.75-.55-7.13Z" style="fill: #e60012; fill-rule: evenodd; stroke-width: 0px;"/>
      <path d="m89.05,121.14c.63,0,1.14.54,1.14,1.2s-.51,1.2-1.14,1.2-1.14-.54-1.14-1.2.51-1.2,1.14-1.2h0Zm-.94,2.89l-1.64-1.64.94-1.11h-.59c-.71,0-1.29.58-1.29,1.28v.19c0,.7.58,1.28,1.29,1.28h1.24s.04,0,.04,0h0Zm2.2,0h.74c.71,0,1.29-.58,1.29-1.28v-.19c0-.7-.58-1.28-1.29-1.28h-.48s.91.91.91.91l-1.58,1.84h.41Zm-1.37-5.73h0c.75,0,1.37.61,1.37,1.36v.86s0,.02,0,.02h-.48s-.96-.96-.96-.96l-.82.96h-.48v-.88c0-.75.62-1.36,1.37-1.36h0Zm-1.37,6.42h1.22s.3.27.3.27l.24-.27h.98v.86c0,.75-.62,1.36-1.37,1.36h0c-.75,0-1.37-.61-1.37-1.36v-.86Z" style="fill: #fff; fill-rule: evenodd; stroke-width: 0px;"/>
      <path d="m95.68,114.74c.32,0,.61.12.85.33,0-.04.02-.08.03-.11-.4-.24-.68-.67-.69-1.17-.02-.75.59-1.37,1.36-1.37s1.4.62,1.42,1.37c.01.52-.27.97-.69,1.2l.03.2c.24-.27.57-.46.91-.46.73,0,1.28.66,1.3,1.47.02.81-.56,1.47-1.28,1.47-.68,0-1.27-.67-1.36-1.3-.07.19-.05.51.06,1.02.16.7.63,1.32.63,1.32h-1.81c.61-.7.6-1.99.59-2.14,0-.02,0-.04-.02-.07-.12.63-.64,1.1-1.26,1.1-.73,0-1.34-.64-1.36-1.42-.02-.78.56-1.42,1.29-1.42Z" style="fill: #fff; fill-rule: evenodd; stroke-width: 0px;"/>
      <path d="m101.76,96.1c.28.16.47.41.58.7.03-.03.06-.06.08-.08-.23-.41-.25-.92-.02-1.35.36-.66,1.19-.9,1.86-.53.66.38.91,1.23.55,1.89-.25.46-.72.71-1.2.7l-.07.19c.35-.12.72-.12,1.02.05.63.36.78,1.2.4,1.91-.38.71-1.21,1-1.85.65-.59-.34-.77-1.2-.53-1.79-.16.13-.3.42-.45.91-.2.69-.11,1.46-.11,1.46l-1.57-.89c.88-.31,1.51-1.43,1.58-1.57,0-.01.01-.04.02-.07-.42.48-1.1.64-1.64.33-.63-.36-.85-1.21-.48-1.9.37-.69,1.19-.96,1.83-.6Z" style="fill: #fff; fill-rule: evenodd; stroke-width: 0px;"/>
      <path d="m96.94,138.46l-.08-.05s-2.49-1.63-3.59-3.53c-1.1-1.9-1.13-3.89-.62-7,.51-3.1,2.75-6.19,6.52-6.1,3.77.1,5.97,2.19,6.81,4.38.84,2.19,2.35,7.17-3.18,11.94,0,0,.28,1.3.6,1.94.32.64.9.78.9.78,0,0-.01.77-.62,1.16-.6.39-2.23.69-2.23.69,0,0-.55,1.91-1.91,2.12,0,0-1.3.16-1.86-2.37,0,0-.88.15-1.8-.14-.92-.29-1.34-.97-1.34-1.2s.31-.39.61-.41c.31-.02.8-.33,1.78-2.21Z" style="fill: #231815; fill-rule: evenodd; stroke-width: 0px;"/>
      <path d="m104.99,128.99c.34,0,.62.27.62.61,0,.34-.28.61-.62.61s-.62-.27-.62-.61.28-.61.62-.61h0Zm-10.86,0c.34,0,.62.27.62.61,0,.34-.28.61-.62.61s-.62-.27-.62-.61.28-.61.62-.61h0Zm3.2-6.09s-.31.65-.62,1.18c-.3.53-.41.82-.61,1.15-.21.33-.46.61-.75.66-.29.05-.73.02-.76-.17-.03-.19-.15-.58.63-1.37.19-.2,1.7-1.44,2.12-1.46h0Zm1.15-.02c-.32.12-1.14.94-1.55,1.8-.42.86.08,1.44.49,1.36.41-.08.78-.61.94-1.31.16-.69.21-1.87.21-1.87h-.08Zm1.36,0l-.1-.16s-.46.65-.74,1.76c-.28,1.11.25,1.98.71,1.98s.69-.61.69-1.25c0-.64-.55-2.33-.55-2.33h0Zm.96-.07l-.24-.13s.25,1.71.43,2.5c.18.79.52,1.02.9,1.01.38-.01.72-.47.72-1.02s-.9-1.81-1.81-2.36h0Zm2.51,2.35l-1.26-2.31s1.01.3,1.77.89c.76.59.99,1.19.93,1.79-.06.61-.86.58-1.44-.37h0Zm-9.92,2.48l.23-.66s2.71.77,5.71.92c3,.14,6.46-.77,6.46-.77l.2.57s-2.8,1.09-6.06,1.09c-2.34,0-4.37-.51-6.55-1.15h0Zm3.54,1.94c.34,0,.62.27.62.61s-.28.61-.62.61-.61-.27-.61-.61c0-.34.28-.61.61-.61h0Zm2.61.12c.34,0,.62.28.62.61,0,.34-.28.61-.62.61s-.61-.27-.61-.61.28-.61.61-.61h0Zm2.71-.31c.34,0,.62.27.62.61s-.28.61-.62.61-.62-.27-.62-.61c0-.34.28-.61.62-.61h0Zm-9.39,2.08v-.66s3,1.16,5.5.96v6.15h-.67l-.1-5.49s-2.13,0-4.73-.96h0Zm.12,1.11l3.71.76.07,4.33h.5s0-4.87,0-4.87c-.82,0-4.28-.74-4.28-.74v.52h0Zm13.22-1.11v-.66s-3,1.16-5.5.96v6.15s.67,0,.67,0l.1-5.49s2.13,0,4.73-.96h0Zm-.12,1.11l-3.71.76-.07,4.33h-.5v-4.87c.82,0,4.28-.74,4.28-.74v.52h0Zm-6.54.15c.27,0,.5.22.5.49,0,.27-.22.49-.5.49s-.5-.22-.5-.49c0-.27.22-.49.5-.49h0Zm0,3.1c.27,0,.5.22.5.49s-.22.49-.5.49-.5-.22-.5-.49c0-.27.22-.49.5-.49h0Zm-1.84,2.83h-.26s-.47,1.13-1.43,1.94c0,0-.3.28-.35.46-.05.18.23.65.79.65.56,0,1.27.01,1.27.01,0,0,1.43,2.2,1.84,2.2s1.3-1.56,1.59-2.01c0,0,1.81.16,2.22-.6,0,0,.07-.09-.24-.43-.31-.35-.85-1.02-.99-1.48-.13-.46-.1-.83-.22-.87-.13-.04-.4.06-.41.56,0,.5.3.93.56,1.24.26.31.51.73.51.81s-.21.26-.63.26h-1.15s-1.25,1.79-1.25,1.79c0,0-.73-.86-1.35-1.95,0,0-1.74.09-1.82-.17-.08-.26,1.1-1.29,1.33-2.38Z" style="fill: #ffe100; fill-rule: evenodd; stroke-width: 0px;"/>
      <path d="m111.87,123.27c1.26,0,2.28,1.09,2.28,2.43s-1.02,2.43-2.28,2.43c-1.01,0-1.87-.71-2.17-1.68-.1-.34.02-1.37.31-1.61.39-.31,1.1-.58.82-1.3.31-.17.67-.27,1.04-.27Z" style="fill: #ffe100; fill-rule: evenodd; stroke-width: 0px;"/>
      <path d="m111.76,124.18l.18-.2s-1.21.01-1.79,1.07c-.58,1.06.53,2.48,1.68,2.48,0,0,.86.05,1.29-.54,0,0-1.35.29-1.88-.74-.53-1.03.02-1.71.52-2.07Z" style="fill: #094; fill-rule: evenodd; stroke-width: 0px;"/>
      <path d="m111.06,122.02l-.13.17s-.13-.25-.23-.25-.36.13-.36.52c0,.4.19.54.46.56.27.02,1.45,0,1.45,0v-1.11c0-.17-.09-.14-.16-.32-.07-.18,0-.31-.04-.45-.04-.14-.14-.18-.05-.28.09-.1.11-.19.17-.27.06-.08.13-.4-.02-.53-.16-.13-.61-.31-.61-.65s.22-.64.39-.8c.16-.16-.11-.49-.35-.49s-.69.43-.82.96c-.14.52-.04,1.87.32,2.93Z" style="fill: #ffe100; fill-rule: evenodd; stroke-width: 0px;"/>
      <path d="m109.06,120.39l.04.06s.58.13.58.55.15.98.17,1.74c.02.76.04,1.32-.32,1.36-.36.04-1.06-.25-1.66-.83-.6-.57-.51-.93-.51-1.53s.24-1.32.26-1.85c.02-.53-.13-.92-.13-1.81s.4-1.61.97-2.2c.51-.53,1.48-1.38,3.94-1.36.05,1.14.63,1.46,1.88,1.49-.17.17-.34.32-.46.37-.39.16-1.11.07-1.57.07s-.34.35-1.26.51c0,0-.23.12-.38.72-.15.6-.65,1.79-1.55,2.71h0Zm3.82-5.85c-.06.26-.06.58.25.66.42.11,1.39.13,1.74.14.06-.08.1-.13.1-.13-.8-.59-1.64-.64-1.64-.64-.15-.01-.3-.02-.44-.03h0Zm2.53,1.07c-.02.13-.1.35-.36.59-.44.4-2.24.88-2.24.88,0,0,.07,1.17.64,1.43,0,0,1.7-.57,2.16-.83.33-.18.39-.64.4-1.03-.13-.42-.29-.64-.29-.64-.1-.14-.2-.27-.31-.39h0Zm.76,2.22c-.36.17-1.34.62-2,.77-.83.19-.88.32-.88.62,0,.3.21.84.72.84.43,0,1.63-.77,2.09-1.14.02-.23.04-.51.06-.83,0-.09.01-.18.01-.27h0Zm-.13,1.69c-.21.13-.92.53-1.54.76-.74.27-.99.53-.96.84.03.32.45.45,1.07.13.51-.26,1.07-.77,1.32-1.11.04-.17.07-.37.1-.62h0Zm-.27,1.38c-.17.14-.58.45-1.1.68-.7.32-.72.68-.72.97,0,.26.18.56.64.6.33-.1.92-.43,1.1-.61.2-.2.13-.57.13-.57-.05-.44-.08-.77-.05-1.08h0Zm-3.5-3.44c-.13.09-.14.29-.03.45.11.16.3.22.43.14.13-.08.14-.28.03-.45-.11-.16-.3-.22-.43-.14h0Zm-.06,1.72c0,.17.16.34.36.37.2.04.37-.07.38-.24,0-.17-.16-.34-.36-.38-.2-.04-.37.07-.38.24h0Zm.68,1.52c-.18,0-.33.14-.33.31,0,.17.15.31.33.31s.33-.14.33-.31c0-.17-.15-.31-.33-.31h0Zm.42,1.65c-.18,0-.33.14-.33.31,0,.17.15.31.33.31s.33-.14.33-.31-.15-.31-.33-.31Z" style="fill: #fff; fill-rule: evenodd; stroke-width: 0px;"/>
      <path d="m107.5,110.77h.14s.38,0,.72.43c.34.43.84.43,1.75.41.91-.02,2.33-.5,3.36-.65,1.03-.14,1.9-.02,2.76,1.08,0,0,.22.41.22,1s-.31.81-.62.81-.86-.38-1.15-.79c-.29-.4-.53-.6-.91-.62-.38-.02-1.13.14-2.52.48-1.39.33-2.19.36-2.93.21-.74-.14-1.22-.76-1.22-1.15,0-.38.12-.96.41-1.22Z" style="fill: #ffe100; fill-rule: evenodd; stroke-width: 0px;"/>
      <path d="m111.83,70.11l-2.68,2.09.27,39s1.15-.08,2.07-.18c.91-1.91.51-5.21.27-6.69-.26-1.65-.38-3.91-.23-5.18.15-1.28.27-2.66.27-4.11s-.29-3.61-.33-5.43c-.04-1.82-.04-4.11-.04-5.96,0-1.85-.22-2.9-.19-3.38.02-.49.38-2.13.38-3.23,0-1.1-.22-2.29-.22-3.14,0-.85.2-1.34.36-2.17.12-.66.09-1.35.08-1.61h0Zm2.59,1.59v1.24s-2.25-1.7-2.25-1.7c.06-.44.11-.89.14-1.22l2.12,1.69h0Zm-2.33.06l2.34,1.76v1.67s-2.56-1.93-2.56-1.93c.02-.16.04-.31.07-.52.04-.25.09-.6.15-.98h0Zm-.23,2.06l2.6,1.95v1.7s-2.5-1.88-2.5-1.88c-.06-.89-.1-1.4-.1-1.76h0Zm.14,2.37l2.47,1.85.02,1.8-2.51-1.88c.04-.51.06-1.08.02-1.77h0Zm-.08,2.31l2.57,1.92v1.69s-2.76-2.08-2.76-2.08c.05-.51.13-.99.19-1.54h0Zm-.23,2.09l2.81,2.11v1.63s-2.76-2.08-2.76-2.08c-.01-.39-.03-.78-.05-1.17,0-.17,0-.34,0-.49h0Zm.07,2.26l2.76,2.07v1.61s-2.71-2.04-2.71-2.04c-.01-.55-.03-1.1-.05-1.64h0Zm.06,2.23l2.71,2.03.02,1.93-2.73-2.04c0-.27,0-.53,0-.79,0-.38,0-.76,0-1.13h0Zm0,2.49l2.74,2.05v1.49s-2.74-2.06-2.74-2.06c0-.52,0-1.01,0-1.47h0Zm0,2.06l2.75,2.06v1.75s-2.67-1.82-2.67-1.82c-.04-.73-.07-1.38-.08-1.99h0Zm.12,2.57l2.65,1.8v1.73s-2.52-1.72-2.52-1.72c-.02-.34-.04-.69-.08-1.07-.02-.26-.04-.5-.06-.75h0Zm.16,2.39l2.51,1.7v1.74s-2.5-1.7-2.5-1.7c0-.53,0-1.1-.02-1.74h0Zm0,2.29l2.53,1.71v1.33s-2.6-1.77-2.6-1.77c.03-.4.05-.82.07-1.28h0Zm-.1,1.81l2.65,1.8.02,1.75-2.75-1.86c0-.31.01-.62.03-.96.01-.24.03-.48.05-.73h0Zm-.08,2.25l2.75,1.86.02,1.86-2.63-1.78c-.07-.65-.12-1.28-.14-1.94h0Zm.21,2.55l2.56,1.74.02,1.91-2.37-1.61c-.04-.59-.1-1.18-.18-1.79,0-.09-.02-.17-.03-.25h0Zm.25,2.63l2.34,1.59.02,1.91-2.3-1.56c0-.68-.02-1.32-.06-1.94h0Zm.05,2.49l2.31,1.57v.51c-1.08,0-1.66.08-2.49.22-.05,0-.11.02-.17.03.13-.56.3-1.44.35-2.33Z" style="fill: #fff; fill-rule: evenodd; stroke-width: 0px;"/>
      <path d="m115.26,140.22c-.23,0-.43-.08-.6-.21,0,.03-.01.05-.02.07.28.16.47.44.47.76,0,.5-.44.9-.98.9s-.98-.4-.98-.9c0-.34.21-.64.51-.79l-.02-.13c-.18.18-.41.3-.65.3-.51,0-.89-.43-.89-.96s.42-.96.93-.96c.48,0,.89.44.94.85.05-.12.05-.34-.03-.66-.11-.46-.43-.87-.43-.87h1.28c-.45.46-.46,1.3-.45,1.41,0,.01,0,.03.01.05.1-.41.47-.72.91-.72.52,0,.94.42.94.93,0,.51-.42.93-.94.93h0Zm0-7.79c-.23,0-.43-.08-.6-.21,0,.03-.01.05-.02.07.28.16.47.44.47.76,0,.49-.44.9-.98.9s-.98-.4-.98-.9c0-.34.21-.64.51-.79l-.02-.13c-.18.18-.41.3-.65.3-.51,0-.89-.43-.89-.96,0-.53.42-.96.93-.96.48,0,.89.44.94.85.05-.12.05-.34-.03-.66-.11-.46-.43-.87-.43-.87h1.28c-.45.46-.46,1.3-.45,1.41,0,0,0,.03.01.05.1-.41.47-.72.91-.72.52,0,.94.42.94.93,0,.51-.42.93-.94.93Z" style="fill: #fff; fill-rule: evenodd; stroke-width: 0px;"/>
      <g>
        <path d="m62.84,95.98s8.02,5.83,11.69,12.08c1.98,3.38,2.86,6.66,3.27,9.3.47,4.77.66,9.55,1.04,14.33.24,3.48.59,6.14,1.41,9.22,0,0,2.92,7.69,5.47,12.8,0,.02.02.03.02.04,1.5-.42,3.11-.42,4.28-.21,2.26.42,3.54,2.1,3.89,2.65.02.03.04.07.06.11.8-.42,3.44-1.8,6.77-3.68-1.11-.82-8.3-6.3-11.68-12.06-1.98-3.38-2.86-6.66-3.27-9.3-.47-4.77-.66-9.56-1.04-14.33h0c-.24-3.48-.59-6.14-1.4-9.22,0,0-2.92-7.69-5.47-12.8,0-.02-.02-.03-.02-.04-1.5.42-3.11.42-4.28.21-2.26-.42-3.54-2.1-3.89-2.65-2.21.93-4.69,2.25-6.83,3.56Z" style="fill: #231815; fill-rule: evenodd; stroke-width: 0px;"/>
        <path d="m71.36,96.02l.13-.11s.31.96.6,1.57c.29.6,1.1,1.03,2.14.81,0,0-.42.94-1.66.94s-2.04-.94-2.06-1.63c-.03-.7.63-1.34.85-1.57h0Zm4.17,5.26l-.15-.05s.26,1.79-.42,1.83c-.68.03-1.14-1.15-.93-2,.21-.85.94-1.5,2.1-1.39,1.16.1,2.3.77,3.06,2.75.76,1.98.83,4.83-.82,5.43,0,0-.54,0-.54-.91,0-.91-.02-1.51-.58-1.51s-1.3.99-1.3,1.61c0,.62.5,1.92,1.32,2.17.83.25,1.84-.19,1.97-.39,0,0-.53,3.56-.61,5.64-.08,2.08.35,4.93,2.36,5.1,0,0,1.49.14,1.85-1.02.36-1.17-.62-2.16-1.23-2.16s-.94.38-.95.67.23.67.41.83c.19.16.12.25-.03.25s-.42-.04-.86-.83c-.44-.79-.39-1.62-.44-2.48-.05-.86,0-2.83,0-2.83,0,0,.84.98,1.69.99.85.02,1.01-1.05.79-1.67-.22-.61-.74-.87-.74-.87,0,0-.25,1.26-.51,1.27-.25.02-.69-.04-.56-1.49.13-1.45.33-4.74.14-6.64-.19-1.89-1.6-5.28-4.34-5.26-2.75.02-3.4,2.01-3.4,3.56s.68,2.66,2.44,2.52c1.77-.14,1.86-1.48,1.54-2.13-.33-.65-1.28-1.02-1.28-1.02h0Zm2.11,8.77c.58,0,1.06.46,1.06,1.03s-.47,1.03-1.06,1.03-1.06-.46-1.06-1.03.48-1.03,1.06-1.03h0Zm3.82,10.38c.76,0,1.37.6,1.37,1.34,0,.74-.62,1.34-1.37,1.34s-1.37-.6-1.37-1.34c0-.74.62-1.34,1.37-1.34h0Zm10.75,32.17l-.13.11s-.31-.96-.59-1.57c-.29-.6-1.1-1.03-2.15-.81,0,0,.42-.94,1.66-.94s2.04.94,2.06,1.63c.03.7-.63,1.34-.85,1.57h0Zm-4.17-5.26l.15.05s-.26-1.79.42-1.83c.68-.03,1.14,1.15.93,2-.21.85-.94,1.5-2.1,1.39-1.16-.1-2.3-.77-3.06-2.75-.76-1.98-.83-4.84.82-5.43,0,0,.54,0,.54.91,0,.91.02,1.51.58,1.51s1.3-.99,1.3-1.61c0-.62-.5-1.92-1.32-2.17-.83-.25-1.84.19-1.96.39,0,0,.53-3.56.61-5.64.08-2.08-.35-4.93-2.36-5.1,0,0-1.49-.15-1.85,1.02-.36,1.17.62,2.16,1.23,2.16s.94-.38.95-.67c.01-.29-.22-.67-.41-.83-.19-.16-.12-.25.03-.25s.42.04.86.83c.44.79.39,1.62.44,2.48.05.87,0,2.83,0,2.83,0,0-.84-.98-1.69-.99-.85-.01-1.01,1.05-.79,1.67.22.61.74.87.74.87,0,0,.25-1.26.51-1.28.25-.02.69.04.56,1.49-.13,1.45-.33,4.74-.14,6.64.19,1.89,1.6,5.28,4.34,5.26,2.75-.02,3.4-2.01,3.4-3.56s-.68-2.66-2.44-2.52c-1.77.14-1.86,1.48-1.54,2.13.33.65,1.28,1.02,1.28,1.02h0Zm-2.11-8.77c-.58,0-1.06-.46-1.06-1.03s.48-1.03,1.06-1.03,1.06.46,1.06,1.03c0,.57-.48,1.03-1.06,1.03h0Zm-3.82-10.38c-.76,0-1.37-.6-1.37-1.34,0-.74.62-1.34,1.37-1.34s1.37.6,1.37,1.34c0,.74-.62,1.34-1.37,1.34Z" style="fill: #fff; fill-rule: evenodd; stroke-width: 0px;"/>
      </g>
      <path d="m97.91,105.32c.31.07.57.26.75.51.02-.04.04-.07.05-.1-.33-.33-.5-.81-.4-1.29.16-.74.89-1.2,1.64-1.02.74.18,1.22.92,1.06,1.66-.11.51-.49.88-.96,1.01l-.02.2c.3-.21.66-.32.99-.24.71.17,1.09.94.92,1.73-.17.79-.88,1.3-1.59,1.13-.66-.16-1.08-.94-1.02-1.57-.11.17-.17.49-.17,1,0,.72.31,1.43.31,1.43l-1.76-.42c.76-.54,1.05-1.79,1.07-1.95,0-.02,0-.04,0-.08-.26.58-.87.92-1.48.77-.71-.17-1.15-.93-.99-1.69.16-.76.88-1.25,1.58-1.08Z" style="fill: #fff; fill-rule: evenodd; stroke-width: 0px;"/>
    </g>
    <g>
      <path d="m62.84,96h0c-3.2,1.8-7.03,4.05-10.48,6.33v17.89c1.25.4,1.87,1.17,1.89,2.09.01.54-.01.99-.04,1.29l1.07.45v.03c.18.08.35.15.53.2l.64.27v-.15c1.47.14,2.62-.63,2.62-.63l11.33-3.01.18.12.11.46c.02.69.04,1.76-.03,3.46.92-1,1.8-1,1.8-1-.28-2.84,2.22-3.07,2.22-3.07v-12.37c-.06-.1-.11-.19-.17-.29-3.38-5.76-10.57-11.24-11.68-12.06h0Zm8.72,21.13l.63,2.09.63,2.09h-1.15s0,1.4,0,1.4l-.59-1.4h-.78s.63-2.09.63-2.09l.63-2.09h0Zm-13.97-7.79l.63,2.09.63,2.09h-1.15s0,1.4,0,1.4l-.59-1.4h-.78s.63-2.09.63-2.09l.63-2.09h0Zm.05-8.89l.63,2.09.63,2.09h-1.15s0,1.4,0,1.4l-.59-1.4h-.78s.63-2.09.63-2.09l.63-2.09h0Zm4.61-3.73l.63,2.09.63,2.08h-1.15s0,1.4,0,1.4l-.59-1.4h-.79s.63-2.08.63-2.08l.63-2.09h0Zm4.51,3.66l.66,2.19.66,2.19h-1.21s0,1.47,0,1.47l-.62-1.47h-.82s.66-2.19.66-2.19l.66-2.19h0Zm4.93,5.96l.66,2.19.66,2.19h-1.21s0,1.47,0,1.47l-.62-1.47h-.82s.66-2.19.66-2.19l.66-2.19Z" style="fill: #fff; fill-rule: evenodd; stroke-width: 0px;"/>
      <path d="m54.64,150.54v2.87s1.37-2.01,2.83-5.12c1.47-3.11,5.32-11.54,5.26-22.41v-4.1s-.7.46-1.68.98c.24,1.77.69,7.09-.97,14.36-1.7,7.44-4.52,12.05-5.43,13.42Z" style="fill: #ffe100; fill-rule: evenodd; stroke-width: 0px;"/>
      <path d="m54.64,137.35v11.55s0,1.64,0,1.64c.92-1.37,3.73-5.98,5.43-13.42,1.66-7.27,1.21-12.59.97-14.36-.09.05-.19.1-.28.15-1.73.88-4.16,1.85-5.47,1.09v-23.55c-.71.44-1.41.88-2.1,1.33v18.81c.69.43,1.04,1.03,1.06,1.72.02.68-.03,1.22-.06,1.48.55.16,1.21.42,1.65.86.88.87,1.03,1.99.8,2.9-.23.91-.14,1.64-.11,2.62.02.98-.16,2.12-1.43,3.19-1.28,1.07-3.78,1.59-6.06.79l-.43.56s.57.76.88.95c.32.18,1.2.03,2-.17.8-.2,2.24-.53,3.23-.53s2.06.69,2.19,1.55c.14.86-.4,1.75-.88,1.75s-1.04-.46-1.37-.91Z" style="fill: #231815; fill-rule: evenodd; stroke-width: 0px;"/>
      <path d="m47.11,134.71c.28-.21.65-.37,1.16-.33,0,0,.35-.08.35-.28s-.2-.61-.51-.78c-.3-.18-1.06-.94-.73-1.92,0,0-.21-.28-.27-.74v4.05h0Zm0-4.61c.07-.69.09-1.18.12-1.64.03-.48.18-.51.18-.83s-.1-.98-.02-1.36c.08-.38,1.07-1.32,2.42-1.35,0,0-.59-.78-.73-1.61-.14-.83.26-3.04,2.81-3.29v-17.36c-1.74,1.16-3.38,2.33-4.76,3.44v24.01Z" style="fill: #e60012; fill-rule: evenodd; stroke-width: 0px;"/>
      <path d="m62.56,155.56l-2.82,1.53-5.14-3.11s8.13-10.18,8.71-27.14v-.1c.35.05.71.08,1.09.09,2.85.07,4.82-1.67,5.84-3.87-.03,1.14-.09,2.63-.16,4.14-.47,9.26-2.92,20.43-7.52,28.45Z" style="fill: #e60012; fill-rule: evenodd; stroke-width: 0px;"/>
      <path d="m89.55,177.55l-.06-.11-.61-1.28s-8.13,2.65-23.11.16l-.62,1.21-.11.21c13.34,2.44,22.51.35,24.5-.19Z" style="fill: #e60012; fill-rule: evenodd; stroke-width: 0px;"/>
      <path d="m59.45,188.72h35.48s-5.37-11.17-5.37-11.17c-1.99.53-11.16,2.63-24.5.19l-5.61,10.98Z" style="fill: #ffe100; fill-rule: evenodd; stroke-width: 0px;"/>
      <path d="m90.87,180.29l-1.32-2.74c-1.99.53-11.16,2.63-24.5.19l-.92,1.8c.65-.28,1.51-.49,2.5-.33,2.2.36,2.77,3.14,2.77,3.14.51-1.1,1.88-2.73,4.4-2.73,2.52,0,3.63,3,3.63,3,.64-1.36,1.92-2.99,4.27-3.11,2.36-.12,3.69,2.33,3.69,2.33.92-1.83,2.27-2.88,3.37-2.73.82.11,1.7.82,2.11,1.18h0Zm2.51,5.22c-.44-.03-1.31-.2-1.61-1.14,0,0-1.5.24-1.85-.69-.35-.93.49-1.93.93-2.11,0,0-1.2-.47-2.11.49,0,0-1.42-.77-2.46.2,0,0,1.6.28,1.79,1.44.18,1.16-.85,1.56-1.1,1.56,0,0-.01,1.51-1.23,1.59-1.22.08-1.22-1.14-1.22-1.37,0,0-1.53-.23-1.53-1.28,0-1.05,1.29-1.74,1.29-1.74,0,0-.52-.49-1.24-.49s-1.5.37-1.86.9c0,0-.98-.83-1.62-.87-.65-.04-1.06.33-1.1.68,0,0,1.62.25,1.64,1.55.02,1.3-1.09,1.38-1.09,1.38,0,0-.28,1.82-1.46,1.76-1.18-.06-1.38-1.53-1.38-1.53,0,0-1.43-.3-1.43-1.58s.84-1.42,1.37-1.42c0,0-.55-.6-1.23-.62-.68-.02-1.23.23-1.52.55,0,0-.8-.77-1.59-.79-.8-.02-1.29.38-1.29.38,0,0,1.63.13,1.71,1.47.08,1.34-1.25,1.38-1.5,1.38,0,0-.31,1.57-1.48,1.57-1.17,0-1.54-1.11-1.23-1.96,0,0-1.17-.1-1.35-1.05-.18-.95.42-1.85,1.66-1.51,0,0-.26-.56-.95-.56s-1.57.06-1.57.06c0,0-.58-1.02-1.87-.79,0,0,.85.59.9,1.45.05.87-.93,1.47-1.87,1.28,0,0,.23,1.5-1.8,1.77l1.32-2.59c.26-.06.58-.18.79-.46.25-.33.06-.66-.12-.85l.63-1.24c.17-.13.36-.25.58-.35,1.02-.46,3.26.18,4.13,1.35,0,0,.65.81.58,1.42,0,0-.14.49-.16.76-.02.27.11.49.38.49s.72-.09.72-.54-.24-.56-.2-.87c.04-.31,1.94-2.1,3.13-2.1,1.19,0,2.7.26,3.69,1.65,0,0,.48.61.48,1.17,0,.57-.1,1.15.24,1.19,0,0,.39.07.61-.17.22-.24-.08-.49-.08-.94s.09-1.23,1.09-2.05c1-.82,1.52-.92,2.57-.92s2.32.48,3.11,1.48c.79,1,.6,1.34.44,1.46-.15.11-.06.57.29.59.35.02.56-.06.56-.38,0-.33-.23-.61-.42-.88-.19-.27.17-.81.4-1.11.23-.31,1.37-1.57,3.08-1.57.9,0,1.57.26,2.01.5l2.41,5Z" style="fill: #231815; fill-rule: evenodd; stroke-width: 0px;"/>
      <path d="m88.12,172.67l.28-.14v.55s-.77.58-1.73.64c-.95.06-2.56-.14-3.07-1.53.35.35,1.77,1.04,2.6,1.02.84-.02,1.41-.28,1.92-.54h0Zm.1-1.1c-1.19.64-2,.62-2.8.48-.8-.15-1.8-.85-1.8-.85.17.62,1.81,1.34,3.08,1.26,1.26-.09,1.57-.75,1.57-.75l-.04-.13h0Zm-.18-1.16h.21s.09-.13.08-.42c-.01-.29-.46-.41-.62-.35-.16.06.11.73.33.77h0Zm-.83.23c-.27-.61-.66-.92-1-.9-.34.01-.89.66-.89.66.09-.97.95-1.26,1.5-.94.55.32.79,1.21.79,1.21l-.4-.02h0Zm-2.71-.35l.08-.05s.23-.43.32-.53c.08-.09-.39-.07-.56.09-.18.16-.18.49.16.48h0Zm4.6,4.34c-.04-.12-.1-.32-.17-.63-.35.23-1.14.67-2.06.76-1.24.11-3.49-.12-4.03-2.7,0,0-.11-.47.19-1.79.3-1.31.9-4.71.94-5.32l-.71-.5s0,1.18-.8,1.35c-.8.17-1.08-.43-1.62-.64-.54-.21-1.15-.12-1.34.35-.19.47.3,1.09.92,1.3,0,0-.09.26-.52.26s-.94-.54-.94-.88.03-1.34.76-1.75c.73-.42,2.6-.02,2.6-.02,0,0-.97-1.39-.53-2.12,0,0,.34.74.94,1.21.6.47,1.41.36,1.66,1.07.26.71-.5,3.84-.5,3.84,0,0,.89-.95,1.07-.95s.14.28-.11.55c-.25.28-.4.7-.02.7s1.51-.41,3.83.65c0-.13,0-.26.01-.39,0,0,.06-2.1.06-2.69s-.86-2.56-.86-5.25-.17-6,4.23-6.39c0,0-.48-.6-1.57-.42-1.09.18-2.87,1.05-3.68,4.65,0,0-.14.69-.28.69s-.25-.08-.22-.32c.03-.24.21-.85.45-1.63.24-.77,1.12-3.01,3.36-3.78,0,0-1.61-.17-2.72.82-1.12.99-2.07,3.59-2.07,3.59,0,0-.06.18-.25.18s-.21-.39-.08-.6c.13-.21,1.18-3,2.71-3.88,0,0-1.24.18-2.26,1.65-1.02,1.47-1.21,2.56-1.32,2.9-.12.33-.44.2-.44-.12,0-.32.79-2.88,2.9-4.41,0,0-1.41.22-2.43,1.52,0,0-.7.93-1,2.05,0,0-.18.65-.25.83-.07.18-.32.08-.32-.28,0-.37.47-2.08,1.83-3.35,0,0-.87.28-1.6,1.29-.74,1.01-1.05,2.7-1.05,2.7,0,0,.81.03,1.21.26.4.22.38.51.15.6-.23.09-.56-.09-1-.16-.43-.07-1.04.05-1.38.16-.34.11-.58.05-.58-.14s.36-.55,1.2-.69c0,0-.86-2.41-2.52-4.42,0,0-1.29-1.71-3.32-1.68-2.02.03-3.77,1.2-4.08,2.77-.31,1.57.59,2.79,1.66,2.79s1.66-1.01,1.69-1.65c.03-.64-.39-1.4-1.01-1.4,0,0-.37-.03-.34-.25.03-.22.39-.17.98-.17s1.94.31,2.64.81c.7.5,1.55,1.34,1.86,2.15l-.3.22s-1.35-2.8-4.02-2.71l.74,1.09s.91.18,1.93,1.14c1.02.96,1.06,1.08,1.05,1.25-.01.17-.22.3-.45-.01-.23-.32-1.28-1.9-2.81-2.02v.79s.71.21,1.44.9c.73.69.77.75.77.85s-.12.26-.28.22c-.16-.04-1.08-1.59-2.28-1.62l-.41.43s1.68,1.09,2.08,1.89l-.36.25s-1.43-1.74-2.02-1.87c-.59-.14-.86.21-.86.21l2.2,2.39-.4.35-2.88-3.23s.89,3.12,1.3,8.53c.07.88.13,1.73.18,2.53.49.53,1,.24,1.23.05.25-.21.81-.44,1.32-.48.5-.04,2.38-.06,2.38-.06l-.99-1.1s2.17.65,2.4,1.37c.23.71-.1,1.17.45,1.46.54.29.27.98-.17.98s-.6,0-.64.17c-.04.17-.27.6-1.06,1-.78.4-1.87.88-4.74-.87.02.32.04.62.06.91.4.25,1.76,1.03,3.17,1.13.56.07,1.09.06,1.66,0,.62-.07.97-.55,1.34-.69.37-.14.74-.02.74.25,0,.26-.11.79-1.31,1.32-1.2.53-2.58.18-3.61-.18-.81-.28-1.64-.86-1.95-1.1.06,1.05.11,1.85.13,2.33.93.06,1.91.1,2.91.11,5.46.08,10.7-.96,12.19-1.29h0Zm-15.43-4.15c.49.39,1.86,1.41,3.05,1.43.51.04.95.06,1.47-.04.52-.1.77-.48.97-.5.19-.02.21.17.02.42-.19.25-.85.67-2.05.67-1.1,0-2.51-.47-3.42-1.4-.01-.19-.03-.39-.04-.59h0Zm5.04-.96s.3.21.49.34c.18.13.08.39-.21.38s-.42-.79-.42-.79l.14.07h0Zm-.52.51l.09.16s.08.24-.13.24-.31-.18-.58-.37c-.26-.18-.51-.13-.68-.04-.17.09-.42.35-.56.35s-.12-.29.09-.51c.21-.22.49-.31.83-.31s.72.2.94.49h0Zm-2.45-.34l.16.03s-.22.5-.42.5-.38-.09-.37-.3c.01-.21.28-.16.63-.22h0Zm9.87-5.84c.26.14.28.29.67.26.45-.03.67-.33.61-1.02-.06-.68-.73-.99-1.32-.81-.6.18-1.38,1-1.77,1s-.74-.23-.73-.67c.01-.44.54-.9,1.1-1.15.57-.25,1.58-.57,2.34.12.76.68,1.05,1.77,1.02,2.19-.03.42-.29.9-.86.93-.57.03-.94,0-1.32-.23-.38-.23-.55-.78-.16-.8.39-.01.42.17.42.17h0Zm-1.55-4.14c.32-.15.65.05.65.46,0,.39-.06.56-.45.67-.39.11-.52,0-.69.11-.17.11-.48.46-.8.54-.32.07-.5-.11-.78-.22-.28-.11-.32-.24-.56-.24s-.33.31-.73.31-.76-.19-.91-.26-.56,0-.8,0-.41-.41-.47-.78c-.06-.37-.07-.59.11-.61.19-.02.39.11.65.26.26.15.86-.02,1.12-.02s.63-.13,1.14-.13.67.11,1.08.11.69.17.97.17.3-.33.47-.37h0Zm-5.57,1.94l.32.07s1.23.31,1.9.76c.67.44.02,1.05-.61,1.05s-1.49-.74-2.36-.83c-.88-.09-1.55.43-1.66,1.18-.11.76.43.89.67.89s.69-.22.91-.54c.22-.31.47-.15.47.37,0,.52-.74.89-1.17.81-.43-.07-1.3-.67-1.51-1.5-.21-.83.52-2.26,1.62-2.44,0,0,.56-.04,1.43.17h0Zm10.71,11.98c-.09-.6-.16-1.26-.16-1.81,0-.51.03-1.16.05-1.84.35-.75,1.13-.88,1.6-.88.52,0,1.19.35,1.19.91s-.43,1.15-.93,1.15-.45-.31-.7-.3c-.26.02-.32.57-.48,1.07-.13.39-.43,1.3-.57,1.7h0Zm-.05-5.93c0-.37-.01-.71-.04-.99-.04-.37-.12-.76-.21-1.15.23-1.46,1.67-2.53,2.55-2.52.94.01,1.32.58,1.34,1.1s-.1,1.07-.45,1.26c-.35.19-.86.13-1.12-.19-.26-.32-.25-.44-.53-.42s-.68.56-.97,1.25c-.23.55-.47,1.36-.56,1.67h0Zm-.92-6.14c-.02-.51-.03-1.07-.02-1.64l.12-.14c.16.67.47,1.1.76,1.38l-.87.4h0Zm1.33-.61c-.3-.23-.71-.69-.83-1.6l.45-.5c.16.99.62,1.55.97,1.84l-.59.27h0Zm1.07-.49c-.28-.17-.96-.71-1.03-2.09l.49-.55c-.19,1.63,1.17,2.34,1.17,2.34l-.62.29h0Zm.52-2.63l.02.1s.28.53.8.53,1-.37,1-1.09c0-.72-.8-1.29-1.51-1.22s-1.25.84-1.98,1.75c-.73.91-1.24,1.49-1.24,1.49,0,0,.03-1.22.24-1.99.21-.77,1.49-2.31,3.21-2.34,1.71-.03,2.37,1.46,2.44,2.49.08,1.03-.64,2.2-1.77,2.4-1.13.2-1.95-.77-1.97-1.67-.02-.9.52-1.68,1.07-1.71.55-.03,1.05.27,1.05.96s-.79.52-.82.27c-.03-.24-.43-.14-.53.05h0Zm-23.92,17.2c-.08-1.08-.23-3.32-.29-4.62,0-.14-.01-.33-.02-.56-.09-2.18-.3-7.49-1.52-8.87-.51.24-.86.4-.86.4,0,0,1.13,2.65,1.28,5.11.14,2.2.45,7.32.51,8.39.26.05.57.1.9.16h0Zm1.1.18c-.25-.04-.5-.08-.73-.11-.08-1.05-.23-3.37-.3-4.71,0-.16-.01-.34-.02-.55-.09-2.16-.29-7.35-1.56-9.01.28-.13.58-.26.89-.4.42.71.74,2.08.98,3.63.42,2.78.57,6.1.57,7.22,0,1.32.11,3.06.17,3.93h0Zm1.58.22c-.42-.05-.83-.11-1.2-.16-.06-.83-.18-2.65-.18-3.98,0-1.13-.15-4.47-.57-7.28-.24-1.56-.56-2.95-1-3.73.3-.13.61-.25.9-.37.77,1.42,1.05,5.9,1.15,7.68.01.24.03.44.04.56.1,1.38.21,2.75.38,4.12.12,1.05.28,2.1.49,3.16h0Zm1.31.15c-.32-.03-.62-.07-.92-.1-.22-1.08-.38-2.16-.51-3.25-.16-1.34-.27-2.71-.37-4.11-.01-.14-.02-.32-.04-.55-.11-1.77-.38-6.2-1.18-7.79.24-.09.46-.16.65-.21.09-.02.16-.05.24-.08.98,2.15,1.09,5.45,1.15,7.27.01.35.02.66.04.87.08,1.38.23,2.87.41,4.35.15,1.22.33,2.43.53,3.59h0Zm1.15.11c-.26-.02-.52-.05-.76-.07-.21-1.17-.39-2.42-.55-3.67-.18-1.47-.33-2.94-.41-4.33-.01-.23-.02-.52-.03-.86-.06-1.85-.16-5.19-1.18-7.41.77-.4.88-.98.88-.98,0,0,1.02,3.69,1.02,5.43s.27,4.87.44,7.29c.13,1.9.46,3.85.6,4.61h0Zm1.24.1c-.27-.02-.53-.04-.79-.06-.44-1.48-.64-4.82-1-10.29-.39-5.83-1.45-8.75-1.97-9.43s-1.21-.8-1.66-.65-1,.65-1.03,1.19c-.03.54.02.94.33,1.32.31.37.84.33,1.12.15.28-.19.73-.44.8-.46.07-.02.13-.13-.05-.25-.18-.13-.32-.04-.32-.04-.24.22-.58.51-.92.43-.34-.07-.56-.27-.56-.89,0-.63.44-1.13,1.06-1.13s1.48,1.13,1.48,2.14-1.02,1.61-2.27,1.32c-1.26-.29-1.6-1.73-1.62-2.89-.03-1.15.29-2.28,2.15-2.28s3.38,3.55,3.82,6.01c.44,2.46.59,3.98.89,7.84.27,3.38.48,7.11.53,7.98h0Zm-6.03-16.35c-.65-.1-1.45-.77-1.64-2.02-.19-1.25.05-2.64.05-2.64,0,0-.31.16-.78.4-.24.92-.31,1.53-.3,1.99.02.46.14.78.27,1.11.23.55,1.42,1.4,1.73,1.62.55-.24.93-.4.93-.4l-.26-.05h0Zm-1.16.67c-.5-.36-1.43-1.1-1.66-1.66-.15-.37-.29-.73-.31-1.27-.02-.43.04-.97.22-1.73-.25.12-.51.26-.79.4-.2.82-.27,1.39-.25,1.81.02.46.13.78.27,1.11.24.59,1.59,1.52,1.78,1.65.25-.11.5-.22.74-.32h0Zm-1.24.53c-.25.11-.5.21-.73.32-.44-.32-1.37-1.02-1.57-1.51-.14-.33-.25-.64-.27-1.11-.02-.46.06-1.07.3-2,.15-.07.29-.15.44-.22-.15.67-.19,1.16-.18,1.56.02.54.15.89.31,1.27.24.58,1.23,1.35,1.71,1.7h0Zm-1.23.53c-.3.13-.58.25-.81.35-.85-.56-1.31-1.11-1.5-1.76-.22-.75-.09-1.67.23-2.9.15-.08.32-.16.48-.24-.18.77-.24,1.32-.22,1.75.02.54.15.89.31,1.27.21.51.99,1.16,1.51,1.54h0Zm-1.32.56c-.79-.57-1.24-1.15-1.44-1.85-.22-.76-.13-1.63.14-2.76-.04.02-.08.04-.12.06-1.47.71-1.59,1.91-1.02,3.22.58,1.3,1.8,1.57,2.28,1.39.03-.01.09-.03.16-.06Z" style="fill: #fff; fill-rule: evenodd; stroke-width: 0px;"/>
      <path d="m69.96,154.29c.13.13.26.26.37.39.42.48.69.94.69.94.06-.3.15-.58.26-.83.91-2.18,3.21-2.61,4.82-2.51,1.93.12,3.46,2.09,4.37,3.63.01.02.02.04.04.06.34.58.9,1.67,1.12,2.1.11-.75.36-1.39.69-1.94.04-.06.07-.11.11-.17l-7.18-5.5-5.28,3.82Z" style="fill: #e60012; fill-rule: evenodd; stroke-width: 0px;"/>
      <path d="m84.94,154.02l-9.95-7.48-10.87,8.64.67-.39s2.6-1.27,3.83-1.2c.48.02.94.33,1.33.71l5.28-3.82,7.18,5.5c.62-.92,1.52-1.55,2.52-1.95Z" style="fill: #231815; fill-rule: evenodd; stroke-width: 0px;"/>
      <path d="m85.73,153.76h0s-.02-.03-.02-.05c-.55-1.11-1.13-2.34-1.68-3.59l-.37-.27v3.21s1.28.96,1.28.96l.79-.26h0Zm-2.76-4.41l-2.42-1.78v3.15s2.42,1.82,2.42,1.82v-3.2h0Zm-3.11-2.28l-1.86-1.36v3.1s1.86,1.4,1.86,1.4v-3.14h0Zm-2.54-1.86l-2.11-1.55v3.04s2.11,1.59,2.11,1.59v-3.08h0Zm-2.8-1.6l-1.74,1.41v3.27s1.74-1.38,1.74-1.38v-3.3h0Zm-2.43,1.96l-2.21,1.79v3.23s2.21-1.76,2.21-1.76v-3.26h0Zm-2.9,2.34l-1.61,1.3v3.2s1.61-1.28,1.61-1.28v-3.22h0Zm-2.3,1.85l-1.7,1.38c-.08.19-.17.37-.25.55v2.82s1.95-1.55,1.95-1.55v-3.19h0Zm-2.64,3.35c-.89,1.76-1.59,2.9-1.59,2.9l1.44-.84.15-.12v-1.94Z" style="fill: #ffe100; fill-rule: evenodd; stroke-width: 0px;"/>
      <path d="m65.67,150.06l9.26-7.36,8.61,6.31c-.56-1.29-1.1-2.57-1.57-3.72l-7.05-4.89-7.89,5.83c-.22.69-.45,1.36-.67,2.01-.22.62-.45,1.23-.69,1.81h0Zm15.93-5.69l-6.72-4.52-7.61,5.64c.3-.99.59-2.03.87-3.12l6.74-5,5.56,4.09c.23.6.64,1.64,1.15,2.92h0Zm-1.46-3.85l-5.27-3.79-6.53,4.87c.21-.88.42-1.8.61-2.75l5.81-4.38,4.85,3.66c.15.78.32,1.57.53,2.39h0Zm-.68-3.23c-.16-.98-.29-1.96-.4-3l-4.15-2.88-5.36,4.19c-.14.86-.29,1.69-.44,2.5l5.62-4.19,4.74,3.37h0Zm-.47-3.66l-3.75-2.63s1.01-.5,1.33-1.32l2.23,1.54c.01.15.02.31.04.46h0c.05.68.1,1.32.16,1.95h0Zm-9.34,1.26l4.76-3.74s-1.42-.68-1.57-1.32l-2.8,2.18c0,.07-.02.14-.03.21-.11.91-.23,1.8-.37,2.66h0Zm9.09-4.42c-.08-1.14-.16-2.28-.23-3.42-.78.98-1.82,1.02-1.82,1.02v.97s2.05,1.43,2.05,1.43h0Zm-6.17-2.49v1.41s-2.45,1.89-2.45,1.89c.2-1.77.34-3.26.43-4.5.34.49,1.02,1.22,2.02,1.2Z" style="fill: #ffe100; fill-rule: evenodd; stroke-width: 0px;"/>
      <path d="m78.34,124.49c-.4-.3-1.03-.7-1.56-.72,0,0,.34-2.56-1.66-2.94v-11.68c1.56,2.99,2.3,5.85,2.66,8.21.23,2.37.4,4.75.55,7.13Z" style="fill: #e60012; fill-rule: evenodd; stroke-width: 0px;"/>
      <path d="m74.52,127.47c-.63,0-1.14-.54-1.14-1.2s.51-1.2,1.14-1.2,1.14.54,1.14,1.2-.51,1.2-1.14,1.2h0Zm.94-2.89l1.64,1.64-.94,1.11h.59c.71,0,1.29-.58,1.29-1.28v-.19c0-.7-.58-1.28-1.29-1.28h-1.28Zm-2.2,0h-.74c-.71,0-1.29.58-1.29,1.28v.19c0,.7.58,1.28,1.29,1.28h.48s-.91-.91-.91-.91l1.58-1.84h-.41Zm1.37,5.73h0c-.75,0-1.37-.61-1.37-1.36v-.88h.48s.96.96.96.96l.82-.96h.48v.88c0,.75-.62,1.36-1.37,1.36h0Zm1.37-6.42h-1.22s-.3-.27-.3-.27l-.24.27h-.98v-.86c0-.75.62-1.36,1.37-1.36h0c.75,0,1.37.61,1.37,1.36v.86Z" style="fill: #fff; fill-rule: evenodd; stroke-width: 0px;"/>
      <path d="m67.89,133.87c-.32,0-.62-.12-.85-.32,0,.04-.02.08-.03.11.4.24.68.67.69,1.17.02.75-.59,1.37-1.35,1.37s-1.4-.61-1.42-1.37c-.01-.52.27-.97.69-1.2l-.03-.2c-.24.27-.57.46-.91.46-.73,0-1.28-.66-1.3-1.47-.02-.81.56-1.47,1.28-1.47.68,0,1.27.67,1.36,1.3.07-.19.05-.51-.06-1.02-.17-.7-.63-1.32-.63-1.32h1.81c-.61.7-.6,1.99-.59,2.14,0,.01,0,.04.02.07.12-.63.64-1.1,1.26-1.1.73,0,1.34.64,1.36,1.42.02.78-.56,1.42-1.29,1.42Z" style="fill: #fff; fill-rule: evenodd; stroke-width: 0px;"/>
      <path d="m61.81,152.51c-.28-.16-.47-.41-.58-.7-.03.03-.06.06-.08.08.23.41.25.92.02,1.35-.36.66-1.2.9-1.86.52-.66-.38-.91-1.22-.55-1.89.25-.46.72-.71,1.2-.7l.07-.19c-.35.12-.72.12-1.02-.05-.63-.36-.78-1.2-.4-1.91.39-.71,1.21-1,1.85-.65.59.34.77,1.2.53,1.79.16-.13.3-.42.45-.92.2-.69.11-1.46.11-1.46l1.57.89c-.88.3-1.51,1.43-1.58,1.57,0,.01-.01.04-.02.07.42-.48,1.1-.64,1.64-.33.63.36.85,1.21.48,1.9-.37.69-1.19.96-1.83.6Z" style="fill: #fff; fill-rule: evenodd; stroke-width: 0px;"/>
      <path d="m66.63,110.16l.08.05s2.49,1.63,3.59,3.53c1.1,1.9,1.13,3.89.62,7-.51,3.1-2.75,6.2-6.52,6.1-3.77-.1-5.97-2.19-6.81-4.38-.84-2.19-2.35-7.17,3.18-11.93,0,0-.28-1.3-.6-1.94-.32-.64-.9-.78-.9-.78,0,0,.01-.77.62-1.16.6-.39,2.23-.69,2.23-.69,0,0,.55-1.91,1.91-2.12,0,0,1.3-.16,1.86,2.37,0,0,.88-.15,1.8.14.92.29,1.34.97,1.34,1.2s-.31.39-.61.41c-.31.02-.8.33-1.78,2.21Z" style="fill: #231815; fill-rule: evenodd; stroke-width: 0px;"/>
      <path d="m58.58,119.63c-.34,0-.62-.27-.62-.61s.28-.61.62-.61.62.27.62.61-.28.61-.62.61h0Zm10.86,0c-.34,0-.62-.27-.62-.61s.28-.61.62-.61.62.27.62.61c0,.34-.28.61-.62.61h0Zm-3.2,6.09s.31-.65.62-1.18c.3-.53.41-.82.62-1.15.21-.33.46-.61.75-.66.29-.05.73-.02.76.17.03.19.14.58-.63,1.37-.19.19-1.7,1.44-2.12,1.46h0Zm-1.15.02c.32-.12,1.14-.94,1.55-1.8.42-.86-.08-1.44-.49-1.36-.41.08-.78.61-.94,1.31-.16.69-.21,1.87-.21,1.87h.08Zm-1.35,0l.1.15s.46-.65.74-1.76c.28-1.11-.25-1.98-.71-1.98s-.69.61-.69,1.25c0,.64.55,2.33.55,2.33h0Zm-.96.07l.23.13s-.25-1.71-.43-2.5c-.18-.79-.52-1.02-.9-1.01-.37.01-.72.47-.72,1.02,0,.55.9,1.81,1.81,2.36h0Zm-2.51-2.35l1.26,2.31s-1.01-.3-1.77-.89c-.76-.59-.99-1.18-.93-1.79.06-.61.86-.58,1.44.37h0Zm9.92-2.48l-.23.66s-2.71-.77-5.71-.92c-3-.14-6.46.77-6.46.77l-.2-.57s2.8-1.09,6.06-1.09c2.33,0,4.37.51,6.55,1.15h0Zm-3.54-1.94c-.34,0-.61-.27-.61-.61s.28-.61.61-.61.62.27.62.61-.28.61-.62.61h0Zm-2.61-.12c-.34,0-.62-.28-.62-.61s.28-.61.62-.61.62.27.62.61-.28.61-.62.61h0Zm-2.71.31c-.34,0-.61-.27-.61-.61s.28-.61.61-.61.62.27.62.61-.28.61-.62.61h0Zm9.39-2.09v.66s-3-1.16-5.5-.96v-6.15h.67l.1,5.49s2.13,0,4.73.96h0Zm-.12-1.11l-3.71-.76-.07-4.33h-.5s0,4.87,0,4.87c.82,0,4.28.74,4.28.74v-.52h0Zm-13.22,1.11v.66s3-1.16,5.5-.96v-6.15s-.67,0-.67,0l-.1,5.49s-2.13,0-4.73.96h0Zm.12-1.11l3.71-.76.07-4.33h.5v4.87c-.82,0-4.28.74-4.28.74v-.52h0Zm6.54-.15c-.27,0-.5-.22-.5-.49,0-.27.22-.49.5-.49s.5.22.5.49c0,.27-.22.49-.5.49h0Zm0-3.1c-.27,0-.5-.22-.5-.49,0-.27.22-.49.5-.49s.5.22.5.49c0,.27-.22.49-.5.49h0Zm1.84-2.83h.26s.47-1.13,1.43-1.93c0,0,.3-.28.35-.46.05-.18-.23-.65-.79-.65s-1.27-.01-1.27-.01c0,0-1.43-2.2-1.84-2.2s-1.3,1.56-1.59,2.01c0,0-1.81-.16-2.22.61,0,0-.07.09.24.43.31.35.85,1.02.99,1.49.13.46.1.83.22.87.13.04.4-.06.41-.56,0-.5-.3-.93-.56-1.24-.26-.31-.51-.73-.51-.81s.21-.26.63-.26h1.15s1.25-1.79,1.25-1.79c0,0,.73.86,1.35,1.95,0,0,1.74-.09,1.82.17.08.26-1.1,1.28-1.33,2.38Z" style="fill: #ffe100; fill-rule: evenodd; stroke-width: 0px;"/>
      <path d="m51.7,125.35c-1.26,0-2.28-1.09-2.28-2.43s1.02-2.43,2.28-2.43c1.01,0,1.87.71,2.17,1.68.1.34-.02,1.37-.31,1.61-.39.32-1.1.58-.82,1.3-.31.17-.67.27-1.04.27Z" style="fill: #ffe100; fill-rule: evenodd; stroke-width: 0px;"/>
      <path d="m51.82,124.43l-.18.2s1.21-.02,1.79-1.07c.58-1.06-.53-2.48-1.68-2.48,0,0-.86-.05-1.29.54,0,0,1.35-.29,1.88.74.53,1.03-.01,1.71-.51,2.07Z" style="fill: #094; fill-rule: evenodd; stroke-width: 0px;"/>
      <path d="m52.51,126.6l.13-.17s.13.25.23.25.36-.13.36-.52c0-.4-.19-.54-.46-.56-.27-.02-1.45,0-1.45,0v1.11c0,.17.1.14.16.32.07.18,0,.31.05.45.04.13.14.18.05.28-.09.1-.11.19-.17.27-.06.08-.13.4.02.53.16.14.61.31.61.65,0,.34-.22.64-.39.8-.16.16.11.49.35.49s.69-.43.82-.96c.13-.52.04-1.87-.32-2.93Z" style="fill: #ffe100; fill-rule: evenodd; stroke-width: 0px;"/>
      <path d="m54.51,128.22l-.04-.06s-.57-.13-.57-.55-.15-.98-.17-1.74c-.02-.76-.04-1.32.32-1.36.36-.04,1.06.25,1.66.83.6.57.51.93.51,1.53,0,.6-.23,1.32-.25,1.85-.02.53.13.92.13,1.81s-.4,1.61-.97,2.2c-.51.53-1.48,1.38-3.94,1.36-.05-1.14-.63-1.46-1.88-1.49.17-.17.34-.32.46-.37.39-.16,1.11-.07,1.57-.07s.34-.35,1.26-.51c0,0,.23-.12.38-.72.15-.6.65-1.79,1.55-2.71h0Zm-3.82,5.85c.06-.26.06-.58-.24-.66-.42-.11-1.39-.13-1.74-.14-.06.08-.1.13-.1.13.8.59,1.64.64,1.64.64.15.01.3.02.44.03h0Zm-2.53-1.07c.02-.13.1-.35.37-.59.44-.39,2.24-.88,2.24-.88,0,0-.07-1.17-.64-1.43,0,0-1.7.57-2.16.83-.32.18-.39.64-.4,1.03.13.42.29.65.29.65.1.14.2.27.31.39h0Zm-.76-2.22c.36-.17,1.34-.62,2-.77.83-.19.88-.32.88-.62s-.21-.84-.72-.84c-.42,0-1.63.77-2.09,1.14-.02.23-.04.51-.06.83,0,.09-.01.18-.01.27h0Zm.13-1.69c.22-.13.92-.53,1.54-.76.74-.27.99-.53.96-.84-.03-.32-.45-.45-1.07-.13-.51.26-1.07.77-1.32,1.11-.04.17-.07.37-.1.62h0Zm.27-1.38c.17-.14.58-.45,1.1-.69.7-.32.72-.68.72-.97,0-.26-.18-.56-.64-.6-.33.1-.92.43-1.1.61-.2.2-.13.57-.13.57.05.44.08.77.05,1.08h0Zm3.5,3.44c.13-.09.14-.29.03-.45-.11-.16-.3-.22-.43-.14-.13.08-.14.29-.03.45s.3.22.43.14h0Zm.06-1.72c0-.17-.16-.34-.36-.37-.2-.04-.37.07-.38.24,0,.17.16.34.36.38.2.04.37-.07.38-.24h0Zm-.68-1.52c.18,0,.33-.14.33-.31,0-.17-.15-.31-.33-.31s-.33.14-.33.31c0,.17.15.31.33.31h0Zm-.42-1.65c.18,0,.33-.14.33-.31,0-.17-.15-.31-.33-.31s-.33.14-.33.31c0,.17.15.31.33.31Z" style="fill: #fff; fill-rule: evenodd; stroke-width: 0px;"/>
      <path d="m56.07,137.84h-.14s-.38,0-.72-.43c-.34-.43-.84-.43-1.75-.41-.91.02-2.33.5-3.36.64-1.03.14-1.9.02-2.76-1.07,0,0-.22-.41-.22-1,0-.6.31-.81.63-.81s.86.38,1.15.79c.29.41.53.6.91.62.38.02,1.13-.14,2.52-.48,1.39-.33,2.19-.36,2.93-.21.74.14,1.22.76,1.22,1.15,0,.38-.12.96-.41,1.22Z" style="fill: #ffe100; fill-rule: evenodd; stroke-width: 0px;"/>
      <path d="m51.75,178.5l2.67-2.09-.27-39s-1.15.08-2.07.18c-.91,1.91-.51,5.21-.27,6.69.26,1.65.38,3.91.23,5.18-.15,1.28-.27,2.66-.27,4.11s.29,3.61.33,5.43c.04,1.82.04,4.11.04,5.96,0,1.85.22,2.9.19,3.38-.02.48-.38,2.13-.38,3.23,0,1.1.22,2.29.22,3.14,0,.85-.2,1.34-.36,2.17-.12.66-.09,1.35-.08,1.61h0Zm-2.59-1.59v-1.24s2.25,1.7,2.25,1.7c-.06.44-.11.89-.14,1.22l-2.12-1.69h0Zm2.33-.06l-2.34-1.76v-1.67s2.56,1.93,2.56,1.93c-.02.16-.04.31-.07.51-.04.25-.09.6-.15.98h0Zm.23-2.06l-2.6-1.95v-1.7s2.5,1.88,2.5,1.88c.06.89.09,1.4.1,1.76h0Zm-.14-2.37l-2.47-1.85-.02-1.8,2.51,1.88c-.04.51-.06,1.08-.02,1.77h0Zm.07-2.31l-2.57-1.92v-1.7s2.76,2.08,2.76,2.08c-.05.51-.13.99-.19,1.54h0Zm.23-2.09l-2.81-2.11v-1.63s2.76,2.08,2.76,2.08c.02.39.03.78.05,1.17,0,.17,0,.34,0,.49h0Zm-.08-2.26l-2.76-2.07v-1.61s2.71,2.04,2.71,2.04c.01.55.03,1.1.05,1.64h0Zm-.06-2.23l-2.71-2.03-.02-1.93,2.73,2.04c0,.27,0,.53,0,.79,0,.38,0,.76,0,1.13h0Zm0-2.49l-2.74-2.05v-1.48s2.74,2.06,2.74,2.06c0,.52,0,1.01,0,1.47h0Zm0-2.06l-2.75-2.06v-1.75s2.67,1.82,2.67,1.82c.04.73.07,1.38.08,1.99h0Zm-.12-2.57l-2.65-1.8-.02-1.73,2.53,1.72c.02.34.04.69.07,1.07.02.26.04.5.06.75h0Zm-.16-2.39l-2.51-1.7-.02-1.74,2.51,1.7c0,.53,0,1.1.02,1.74h0Zm0-2.29l-2.53-1.72v-1.33s2.6,1.77,2.6,1.77c-.03.4-.05.82-.07,1.28h0Zm.1-1.81l-2.65-1.8v-1.75s2.74,1.86,2.74,1.86c0,.31-.01.62-.03.96-.01.24-.03.48-.05.73h0Zm.08-2.25l-2.75-1.86v-1.86s2.61,1.78,2.61,1.78c.07.65.12,1.28.14,1.94h0Zm-.21-2.55l-2.56-1.74-.02-1.91,2.37,1.61c.05.59.11,1.18.18,1.79.01.09.02.17.03.25h0Zm-.25-2.63l-2.34-1.58-.02-1.92,2.3,1.56c0,.68.02,1.32.06,1.94h0Zm-.05-2.49l-2.31-1.57v-.51c1.08,0,1.66-.08,2.49-.22.05,0,.11-.02.17-.03-.13.56-.3,1.44-.35,2.33Z" style="fill: #fff; fill-rule: evenodd; stroke-width: 0px;"/>
      <path d="m48.32,108.39c.23,0,.43.08.6.21,0-.03.01-.05.02-.07-.28-.16-.47-.44-.47-.76,0-.5.44-.9.98-.9s.98.4.98.9c0,.34-.21.64-.51.79l.02.13c.18-.18.41-.3.65-.3.51,0,.89.43.89.96,0,.53-.42.96-.93.96-.48,0-.89-.44-.94-.85-.05.12-.05.34.03.66.11.46.43.87.43.87h-1.28c.45-.46.46-1.3.45-1.41,0-.01,0-.03-.01-.05-.1.41-.47.72-.91.72-.52,0-.94-.42-.94-.93s.42-.93.94-.93h0Zm0,7.79c.23,0,.43.08.6.21,0-.03.01-.05.02-.07-.28-.16-.47-.44-.47-.76,0-.49.44-.9.98-.9s.98.4.98.9c0,.34-.21.64-.51.79l.02.13c.18-.18.41-.3.65-.3.51,0,.89.43.89.96,0,.53-.42.96-.93.96-.48,0-.89-.44-.94-.85-.05.12-.05.34.03.67.11.46.43.87.43.87h-1.28c.45-.46.46-1.3.45-1.41,0,0,0-.03-.01-.05-.1.41-.47.72-.91.72-.52,0-.94-.42-.94-.93s.42-.93.94-.93Z" style="fill: #fff; fill-rule: evenodd; stroke-width: 0px;"/>
      <path d="m65.66,143.29c-.31-.07-.57-.26-.75-.51-.02.04-.04.07-.05.1.33.33.5.81.4,1.29-.16.74-.89,1.2-1.64,1.02-.74-.18-1.22-.92-1.06-1.66.11-.51.49-.88.96-1.01v-.2c-.29.21-.65.32-.98.24-.71-.17-1.09-.94-.92-1.73.17-.79.88-1.3,1.59-1.13.66.16,1.08.94,1.02,1.57.11-.17.17-.49.17-1,0-.72-.31-1.43-.31-1.43l1.76.42c-.76.54-1.05,1.79-1.07,1.95,0,.01,0,.04,0,.08.26-.58.88-.92,1.48-.78.71.17,1.16.93.99,1.69-.16.76-.88,1.25-1.59,1.08Z" style="fill: #fff; fill-rule: evenodd; stroke-width: 0px;"/>
    </g>
    <path d="m141.47,182.29c-4.12,0-7.49-3.11-7.49-6.93,0-2.68,1.66-5.01,4.08-6.16-.17-.23-.33-.49-.46-.76-1.24,1.12-2.86,1.8-4.62,1.8-3.88,0-7.05-3.29-7.05-7.32s3.17-7.32,7.05-7.32c3.33,0,6.12,2.41,6.86,5.64.13-.05.26-.1.4-.14,0-1.76-.17-8.8-3.61-11.98h9.34c-3.45,3.19-3.62,10.27-3.61,12,.14.04.27.09.4.15.77-3.17,3.55-5.52,6.83-5.52,3.88,0,7.05,3.29,7.05,7.32s-3.17,7.32-7.05,7.32c-1.8,0-3.45-.71-4.7-1.87-.1.19-.2.37-.32.54,2.59,1.1,4.39,3.51,4.39,6.31,0,3.82-3.36,6.93-7.49,6.93Z" style="fill: #231815; fill-rule: evenodd; stroke-width: 0px;"/>
    <polygon points="157.1 243 143.24 243 143.24 237.39 147.4 237.39 147.4 218.76 135.81 237.39 139.32 237.39 139.32 243 125.47 243 125.47 237.39 129.21 237.39 139.12 221.46 127.96 197.59 125.74 197.59 125.74 191.98 139.2 191.98 139.2 197.59 134.14 197.59 142.65 215.8 147.4 208.15 147.4 197.59 142.74 197.59 142.74 191.98 156.2 191.98 156.2 197.59 153.02 197.59 153.02 237.39 157.1 237.39 157.1 243" style="fill: #231815; stroke-width: 0px;"/>
    <path d="m47.11,62.82c0-1.61,1.08-2.93,2.39-2.93h64.57c1.32,0,2.39,1.32,2.39,2.93v122.97c0,1.61-1.08,2.93-2.39,2.93H49.5c-1.32,0-2.39-1.32-2.39-2.93V62.82Z" style="fill: none; fill-rule: evenodd; stroke: #231815; stroke-miterlimit: 22.93; stroke-width: 1.5px;"/>
    <path d="m22.3,67.99c4.12,0,7.49,3.11,7.49,6.93,0,2.68-1.66,5.01-4.08,6.16.17.23.33.49.46.76,1.24-1.12,2.86-1.8,4.62-1.8,3.88,0,7.05,3.29,7.05,7.32,0,4.03-3.17,7.32-7.05,7.32-3.33,0-6.12-2.41-6.86-5.64-.13.05-.26.1-.4.14,0,1.76.17,8.8,3.61,11.98h-9.34c3.45-3.19,3.62-10.27,3.61-12-.14-.04-.27-.09-.4-.15-.77,3.17-3.55,5.52-6.83,5.52-3.88,0-7.05-3.29-7.05-7.32,0-4.03,3.17-7.32,7.05-7.32,1.8,0,3.45.71,4.7,1.87.1-.19.2-.37.32-.54-2.59-1.1-4.39-3.51-4.39-6.31,0-3.82,3.36-6.93,7.49-6.93Z" style="fill: #231815; fill-rule: evenodd; stroke-width: 0px;"/>
    <polygon points="6.67 7.29 20.52 7.29 20.52 12.9 16.37 12.9 16.37 31.53 27.96 12.9 24.44 12.9 24.44 7.29 38.3 7.29 38.3 12.9 34.56 12.9 24.65 28.83 35.81 52.7 38.03 52.7 38.03 58.31 24.57 58.31 24.57 52.7 29.63 52.7 21.12 34.49 16.37 42.13 16.37 52.7 21.03 52.7 21.03 58.31 7.57 58.31 7.57 52.7 10.75 52.7 10.75 12.9 6.67 12.9 6.67 7.29" style="fill: #231815; stroke-width: 0px;"/>
  </g>
</svg>