<?xml version="1.0" encoding="UTF-8"?>
<svg id="_图层_2" data-name="图层 2" xmlns="http://www.w3.org/2000/svg" viewBox="0 0 163.58 248.61">
  <g id="_图层_1-2" data-name="图层 1">
    <path d="m1,6.6c0-3.08,2.51-5.6,5.57-5.6h150.43c3.06,0,5.57,2.52,5.57,5.6v235.41c0,3.08-2.51,5.6-5.57,5.6H6.57c-3.06,0-5.57-2.52-5.57-5.6V6.6Z" style="fill: #fff; fill-rule: evenodd; stroke: #040000; stroke-miterlimit: 22.93; stroke-width: 2px;"/>
    <g>
      <path d="m59.58,63.87c2.66,0,4.84,2.02,4.84,4.49,0,1.74-1.07,3.25-2.63,4,.11.15.21.31.3.49.8-.73,1.85-1.17,2.99-1.17,2.51,0,4.55,2.13,4.55,4.74,0,2.61-2.04,4.74-4.55,4.74-2.15,0-3.96-1.56-4.43-3.65-.08.04-.17.07-.26.09,0,1.14.11,5.7,2.33,7.76h-6.03c2.23-2.07,2.34-6.66,2.33-7.78-.09-.03-.17-.06-.26-.1-.5,2.05-2.29,3.58-4.41,3.58-2.51,0-4.55-2.13-4.55-4.74,0-2.61,2.04-4.74,4.55-4.74,1.16,0,2.23.46,3.04,1.21.06-.12.13-.24.21-.35-1.67-.71-2.84-2.28-2.84-4.09,0-2.47,2.17-4.49,4.84-4.49Z" style="fill: #231815; fill-rule: evenodd; stroke-width: 0px;"/>
      <path d="m104,184.74c-2.66,0-4.84-2.02-4.84-4.49,0-1.74,1.07-3.25,2.63-4-.11-.15-.21-.32-.29-.49-.8.73-1.85,1.17-2.99,1.17-2.51,0-4.55-2.13-4.55-4.74,0-2.61,2.04-4.74,4.55-4.74,2.15,0,3.96,1.56,4.43,3.65.08-.04.17-.07.26-.09,0-1.14-.11-5.7-2.33-7.76h6.03c-2.23,2.07-2.34,6.66-2.33,7.78.09.03.17.06.26.1.5-2.05,2.29-3.58,4.41-3.58,2.51,0,4.55,2.13,4.55,4.74,0,2.61-2.05,4.74-4.55,4.74-1.16,0-2.23-.46-3.03-1.21-.06.12-.13.24-.21.35,1.67.71,2.84,2.28,2.84,4.09,0,2.47-2.17,4.49-4.84,4.49Z" style="fill: #231815; fill-rule: evenodd; stroke-width: 0px;"/>
    </g>
    <g>
      <path d="m47.43,120.38c10.57-9.03,19.24-19.26,19.24-19.26-.91-2.78-.96-6.44.23-10.38,1.19-3.94,1.8-5.14,5.15-11.12,3.36-5.97,4.71-10.27,4.98-12.86.23-2.25.39-5.93.43-6.86h14.47c.74,1.7,6.48,14.92,9.74,22.31,3.49,7.9,5.74,12.84,6.9,14.91,1.13,2.01,3.81,4.37,7.57,4.26v26.86c-10.57,9.03-19.24,19.26-19.24,19.26.92,2.78.96,6.45-.23,10.38-1.19,3.94-1.8,5.14-5.16,11.12-3.36,5.97-4.71,10.27-4.97,12.86-.23,2.25-.39,5.93-.43,6.86h-14.47c-.74-1.69-6.48-14.92-9.74-22.31-3.49-7.9-5.74-12.84-6.9-14.91-1.13-2.01-3.81-4.37-7.57-4.26v-26.86Z" style="fill: #004ea2; fill-rule: evenodd; stroke-width: 0px;"/>
      <g>
        <path d="m110.62,132.6l-6.76,6.64s1.26,2.01,2.63,3.33c0,0-1.29-.06-2.49.34-1.2.4-3.43,2.41-3.49,2.7-.06.29.46.31,2.29.31,1.83,0,1.94.03,2.43-.06.49-.09,2-1.07,2-1.07,0,0-.61,2.46-.78,2.81,0,0-.85.05-1.2.8h-1.9s0,1.95,0,1.95c-.59.27-1.01.89-1.01,1.6h0c0,.72.42,1.34,1.01,1.6v2.19s1.78,0,1.78,0c.2.39.61.67,1.09.67h0c.48,0,.9-.28,1.09-.67h1.89s0-2.21,0-2.21c.57-.28.97-.88.97-1.59h0c0-.7-.4-1.31-.97-1.59v-1.97s-1.64,0-1.64,0c0,0,.95-1.45,1.25-2.67,0,0,.34,1.54,1.76,2.49,1.42.94,2.75,1.65,3.29,2.39l.43-.17s.06-1.82,0-2.91c-.06-1.08-1.19-2.34-3.04-2.94,0,0,.96-.96.96-1.61,0,0,1.18-.86,1.23-1.4.04-.54.04-1.55.04-1.55,0,0,.38-.38.38-.9s-.04-2.8-.04-2.8c0,0-.12-.36-.31-.69-.19-.33,0-.59.05-1.14.05-.54.38-1.37.52-2.2.14-.83.02-1.33-.35-1.4-.38-.07-.85.07-.85.07,0,0-1.29.67-1.21,2.59l-1.05-.98Z" style="fill: #004ea2; fill-rule: evenodd; stroke-width: 0px;"/>
        <path d="m91.4,134.13l3.52-3.23c-2.09-5.64-1.43-9.9,1.63-13.68,3.16-3.91,7.16-3.95,9.55-3.42,1.78.39,3.51,1.57,4.29,2.15l3.5-3.37c-1.8-2.87-4.89-4.31-9.07-4.6-4.38-.3-7.9.98-11.38,4.72-3.49,3.74-4.4,9.07-4.16,13.62.19,3.61,1.55,6.7,2.11,7.82Z" style="fill: #231815; fill-rule: evenodd; stroke-width: 0px;"/>
        <g>
          <path d="m73.86,98.89c3.34,7.56-.5,14.37-.5,14.37,0,0,1.68,3.69,2.29,7.92h2.32c0-.11,0-.22.01-.33h0c0-.17.01-.33.02-.49,0-.06,0-.12,0-.17,0-.13.01-.27.02-.4,0-.06,0-.11,0-.17,0-.01,0-.03,0-.04,0-.14.01-.28.02-.42,0-.08,0-.15.01-.22,0-.1.01-.21.02-.31,0-.05,0-.1,0-.15,0-.12.02-.24.02-.36,0-.1.01-.19.02-.29.01-.15.02-.29.03-.44,0,0,0-.01,0-.02.01-.17.03-.34.04-.51,0-.03,0-.07,0-.11.03-.37.06-.74.09-1.12,0,0,0-.01,0-.01.03-.36.07-.72.1-1.07,0-.03,0-.05,0-.08h0s0-.05,0-.07c.04-.35.07-.7.11-1.05,0-.02,0-.03,0-.05.02-.17.04-.35.06-.52,0-.01,0-.03,0-.04.06-.54.12-1.08.19-1.62,0-.02,0-.05,0-.07,0-.02,0-.04,0-.06.09-.7.18-1.39.27-2.07,0-.03.01-.07.01-.1.02-.16.04-.32.07-.47,0,0,0,0,0,0,.02-.13.04-.25.05-.38.01-.08.02-.17.04-.25.09-.62.18-1.23.27-1.81,0-.03,0-.06.01-.09,0-.02,0-.04,0-.06.04-.24.07-.47.11-.7.01-.07.02-.13.03-.19.12-.77.25-1.5.36-2.17,0-.06.02-.12.03-.18.01-.07.03-.15.04-.22.18-1.04.35-1.93.49-2.64,0-.02,0-.04.01-.06.03-.15.06-.3.08-.44,0-.03.01-.06.02-.1,0-.04.02-.08.03-.13,0-.01,0-.02,0-.03h-6.9Zm4.21,20.03v.22c0-.08,0-.15,0-.22h0Zm1.19-11.22l-.04.25c.01-.08.02-.17.04-.25h0Zm7.41,7l.15-.48s.01-.04.02-.07c.02-.07.05-.15.07-.23,0-.03.02-.05.02-.07.02-.06.04-.12.06-.18.02-.05.03-.1.05-.15,0,0,0,0,0,0,.03-.1.07-.2.1-.29,0,0,0-.01,0-.02.01-.04.03-.08.04-.11.12-.33.24-.67.38-1.02.06-.17.13-.34.2-.51.02-.06.05-.11.07-.17.02-.06.05-.12.07-.18.04-.09.07-.18.11-.27,0-.01,0-.02.01-.03.03-.07.06-.15.09-.22.03-.06.05-.12.08-.19.02-.05.05-.11.07-.16.02-.05.04-.09.06-.14.03-.08.07-.16.11-.24.02-.04.04-.08.06-.13.04-.08.07-.16.11-.25.01-.03.03-.06.04-.09.03-.07.07-.14.1-.21.04-.08.08-.16.11-.24.01-.02.02-.04.03-.07.04-.08.08-.16.12-.24.03-.06.06-.12.09-.18.02-.05.05-.1.07-.15.04-.08.08-.15.11-.23.02-.03.04-.07.05-.11.04-.08.08-.15.12-.23.03-.06.07-.13.1-.19.03-.06.06-.11.09-.17.03-.06.06-.11.09-.17.03-.06.07-.13.1-.19.04-.07.07-.13.11-.2.03-.06.06-.12.1-.17.02-.04.05-.09.08-.13.04-.08.08-.15.13-.23.12-.21.24-.41.36-.62.02-.03.03-.06.05-.09,0,0,0-.01.01-.02.02-.03.03-.05.05-.08.17-.28.34-.55.52-.83.03-.05.07-.11.1-.16.05-.09.11-.17.17-.25.02-.03.04-.06.06-.08.14-.21.28-.41.42-.62.02-.03.04-.06.06-.09.05-.07.1-.13.15-.2.04-.06.08-.12.13-.18.03-.03.05-.07.08-.11.06-.08.12-.16.18-.24.03-.05.07-.09.11-.14.05-.06.1-.13.15-.19.04-.05.08-.1.12-.15.05-.06.1-.13.15-.19.04-.05.08-.1.12-.15.05-.06.1-.12.15-.18.04-.05.08-.1.12-.15.05-.06.1-.12.15-.17.05-.06.11-.12.16-.19.03-.04.07-.08.1-.12.06-.06.11-.12.16-.18.05-.05.1-.11.15-.16.05-.05.09-.1.14-.15.06-.06.12-.13.18-.19.03-.03.07-.07.1-.1.06-.06.12-.12.18-.18.05-.05.1-.1.15-.15.04-.04.08-.08.12-.12.06-.06.11-.11.17-.17.06-.05.11-.11.17-.16.05-.05.1-.09.15-.14.06-.05.11-.1.17-.15.05-.05.1-.09.15-.14.04-.04.09-.08.13-.11.07-.06.14-.12.21-.18h7.49c1.93,2.02,3.88,3.2,4.91,3.72l-1.62,2.74c-9.94-.64-14.28,2.77-17.59,8.1-1.69,2.73-2.37,5.56-2.62,7.72h-1.36c.07-.78.15-1.61.25-2.43h0s0-.03,0-.05c0-.01,0-.03,0-.05,0-.02,0-.03,0-.05,0,0,0-.01,0-.02,0-.01,0-.02,0-.03.01-.09.03-.19.04-.28,0-.05.01-.1.02-.16,0,0,0,0,0,0,0-.05.02-.1.03-.16,0,0,0-.01,0-.02,0,0,0-.01,0-.02,0-.05.02-.11.03-.16,0,0,0-.02,0-.02.02-.12.05-.24.07-.37,0-.02,0-.03.01-.05.01-.05.02-.11.03-.16,0-.01,0-.03.01-.04.01-.06.03-.12.04-.18,0-.03.01-.05.02-.08.01-.05.03-.11.04-.16,0,0,0-.01,0-.02.02-.07.04-.15.06-.23,0,0,0-.02,0-.03.02-.06.03-.13.05-.2,0-.03.01-.05.02-.08.01-.05.03-.11.04-.16.01-.05.03-.1.04-.14,0-.01,0-.02.01-.04.01-.05.03-.1.04-.15,0,0,0-.01,0-.02.02-.07.04-.14.06-.21.01-.03.02-.07.03-.11.02-.05.03-.1.05-.16.01-.03.02-.07.03-.1.02-.05.03-.1.05-.15.02-.06.04-.13.06-.19Z" style="fill: #e60012; fill-rule: evenodd; stroke-width: 0px;"/>
          <path d="m85.49,121.17c.08-.92.18-1.92.32-2.91.44-3.2,3.65-13.65,10.47-19.38h-15.51c-.64,3.25-2.51,13.38-2.79,22.28h7.52Z" style="fill: #231815; fill-rule: evenodd; stroke-width: 0px;"/>
          <path d="m80.15,121.17v-.26s-.4-.68-.4-.68l.94-1.32-.94-1.47,1.01-1.02-.79-1.24,1-1.1-.65-1.3,1.27-1.13-.79-1.56,1.26-1.55-.49-1.99,1.18-1.45-.79-1.52,1.9-1.66-1-1.84,1.65-1.2h-1.83s-.88.74-.88.74l.75,2.33-1.56,1.26.82,1.99-1.46,1.46.57,1.73-1.12,1.34.69,1.44-1.19,1.29.7,1.43-.88.86.46,1.6-.73.78.52,1.61-.54.96.49.96v.5s.83,0,.83,0h0Zm2.29,0h-1.19c.06-1.71.3-6.89,1.27-11.56,1.04-4.99,2.55-9.64,2.92-10.72h3.8c-3.67,5.58-6,15.16-6.32,17.78-.26,2.08-.41,3.77-.48,4.51h0Zm2.02,0h-.78v-.91s.32-.27.32-.27l-.44-1.43.91-.63-.61-1.89,1-.9-.79-1.47,1.37-1.21-.52-1.43,1.58-1.05-.8-1.63,1.9-1.53-.94-1.95,2.32-1.49-.3-1.77,2.31-1.73-.38-.99h1.83s.71.87.71.87l-3.14,2.36.41,1.85-2.13,1.11.65,1.9-1.77,1.42.55,1.69-1.44,1.08.25,2.05-1.38,1.11.79,1.39-.84.9.17,1.45-.97.8.53,1.28-.38.42v.6Z" style="fill: #ffe100; fill-rule: evenodd; stroke-width: 0px;"/>
          <path d="m87.19,121.17c.23-1.54,1.15-6.17,4.27-9.86,3.73-4.4,8.47-6.12,15.29-5.46l-.47.79c-5.59-.84-9.52,1.44-9.52,1.44-5.27,2.8-7.89,8.16-8.74,13.07h-.83Z" style="fill: #fff; fill-rule: evenodd; stroke-width: 0px;"/>
        </g>
        <path d="m103.44,98.31c.1.19.21.38.32.58h-35.38c.09-.17.18-.36.29-.58h34.77Zm-3.84-7.23c.89,1.76,1.84,3.57,3.15,5.98h-33.46c.68-1.37,1.63-3.29,2.95-5.98h27.36Zm-.87-1.74c.14.27.27.55.4.82h-26.44c.05-.1.1-.21.15-.31.08-.17.17-.34.25-.5h25.63Z" style="fill: #231815; fill-rule: evenodd; stroke-width: 0px;"/>
        <path d="m77.9,59.9c0,1.39-.05,5.57-.69,9.07-.78,4.27-4.15,9.51-6.36,13.94-2.21,4.43-5.41,10.03-3.79,17.41,0,0,4.88-8.53,7.33-15.07,2.45-6.53,3.54-10.93,3.66-12.71.11-1.51.21-10.1.24-12.65h-.39Z" style="fill: #e60012; fill-rule: evenodd; stroke-width: 0px;"/>
        <path d="m90.35,72.54l-.07.07s-.3.21-.53.23c-.23.01-.22-.2-.17-.53.06-.33.38-.72.65-.71.27,0,.5.39.46.58-.04.19-.35.37-.35.37h0Zm-3.1-.59l-.3-.27s0,.57.29,1.02c.29.44.7.6,1.18.54.48-.06,1.15-.9.98-1.51,0,0-.04-.11-.26-.1s-.25.22-.41.53c-.16.31-.3.39-.52.45-.23.06-.73-.4-.95-.66h0Zm-.8.8l-.1-.05s-.05-.38.15-.46c.2-.09.34.04.33.25-.01.21-.2.24-.39.27h0Zm4.02-2.06l-4.28.3s.99-1.1,1.99-1.26c.99-.16,2.31.84,2.29.96h0Zm-4.42-1.91l-.21.14s-.21-.16-.21-.49.72-.86,1.8-1.05c1.09-.19,2.75.21,4.12,1.87,0,0-.21,0-.81-.23-.6-.23-1.5-.89-2.52-.82-1.02.07-1.32.05-2.17.58h0Zm-.85,9.54l-.19-.13s-.62-.18-1.21-.34c-.59-.16-.44-.43-.27-.64.18-.2.57-.62.88-.3.31.32,1.02.93,1.37.96.35.03.55-.34.52-.84-.03-.5-.51-.72-.7-.9-.19-.19-.07-.37.22-.35.28.01.9.43,1,1.15.09.72-.19,1.39-.57,1.59-.38.2-.92.04-1.05-.2h0Zm-2.85,6.35l.04-.12s.6-.74,1.63-.98c1.03-.23,1.75.16,2.27.45.52.29.58.47.52.61-.06.14-.45.18-.7-.04-.25-.22-.7-.49-1.32-.47-.62.02-1.24.08-1.69.33-.45.25-.6.37-.76.22h0Zm.68-1.84l-.08-.14s-.06-.33.23-.37c.29-.04.6.18.68.29.08.12.82.12,1.09-.08.27-.2.43-.39.7-.37.27.02.41.22.37.43-.04.22-1.16.63-1.71.64-.54.02-.82-.08-1.28-.41h0Zm1.61-2.37l-.04.12s-.49.04-.74-.04c-.25-.08-.29-.25-.52-.25s-.47.29-.68.45c-.21.16-.5-.12-.85-.16-.35-.04-.33.12-.33.47,0,.35.02,1.45.39,1.41.37-.04.68-.68,1.05-.7.37-.02.76.12,1.24.29.49.18.56.08.91-.1.35-.18.78-.43,1.2-.35.43.08.85.49,1.14.51.29.02.27-.14.17-.49-.1-.35-.15-.43-.27-.63-.12-.2.04-.82-.23-.84-.27-.02-.49.29-.8.29s-.52-.08-.83-.2c-.31-.12-.66-.16-.82.22h0Zm-2.15-8.37c-.27.02-.28.18-.39.45-.14.3.07.5.26.5s.5-.27.52-.45c.02-.18-.13-.49-.39-.5h0Zm-2.92,0c.17,0,.17.03.31.23.15.2.35.52.64.6.28.07.38-.06.64-.48.26-.42.25-.64.54-.63.29.01.33.19.28.57-.05.38-.49.8-.83,1.04-.34.24-.79.21-1.24-.26-.45-.47-.45-1.04-.45-1.04l.1-.02h0Zm-.59.7c0,.12.01.25.02.37.15.09.61.1.6-.13-.01-.25-.32-.49-.32-.49l-.11.02c-.09.06-.15.14-.19.23h0Zm-.09-1.76c0,.22.02.44.03.65.45-.65,1.49-.6,2.25-.66.8-.06,1.74.1,1.74.1-.57-.76-1.61-1.21-2.06-1.21s-1.1.23-1.58.6c-.17.13-.29.32-.37.5h0Zm10.77-11.13h.58c.02.15.04.33.06.52-.22-.17-.44-.34-.64-.52h0Zm-1.58,0c.52.82,1.38,1.92,2.46,2.48-.06-.49-.12-.94-.17-1.34-.52-.36-1.01-.78-1.39-1.14h-.9Zm-1.25,0c.71,1.25,2.08,3.24,3.91,3.95-.05-.32-.09-.63-.13-.93-1.43-.6-2.5-2.08-3.07-3.02h-.71Zm-1.28,0c.81,1.61,2.6,4.5,5.42,5.47-.05-.35-.11-.68-.15-1.01-2.2-.71-3.78-3.13-4.51-4.46h-.75Zm-1.27,0c.59,1.95,2.33,5.88,6.97,7.22-.07-.42-.14-.84-.2-1.24-3.22-.99-5.2-4.32-6.01-5.98h-.75Zm-.72,0c-.67,2.43-2.03,5.59-4.81,7.78,0,.14,0,.27.01.41,0,.04,0,.08,0,.13.33-.23,1.17-.76,2.01-.87,1.08-.14,2.43.78,2.71,2.05.28,1.28-.31,5.74-1.29,7.53,0,0,1.55,1.46,1.55,2.93,0,0-1.33-1.86-2.08-2.22,0,0-.17-.35.04-.83.22-.48.59-1.01.7-1.48.11-.47,0-.97,0-.97,0,0-.75.2-1.43,1.15,0,0-.1.06-.22-.08-.12-.14-.02-.31.13-.44.15-.13,1.34-.89,1.55-1.15.21-.26-.02-.46-.02-.46,0,0-.44.33-1.04.51-.54.17-1.71.13-2.35-.19.19,2.81.52,5.8,1.2,8.73,1.16,5.02,4.12,6.13,5.48,6.1,1.29-.03,5.55-1.94,9.56-6.11-1.29-3.13-2.29-6.78-3.05-10.26-.12-.08-.27-.13-.45-.12-.53.02-.6.19-.72.37-.12.19-1.02.86-1.8,1.12-.79.26-1.99.02-2.77-.44,0,0-.23,0-.09.28.14.28,2.43,2.05,2.33,2.63,0,0-.74-.26-1.57-1-.83-.74-1.22-1.26-1.29-1.93-.07-.68.02-1.14.02-1.14,0,0,.16-.19.16-.42s-.16-.3-.16-.3l.05-.77s.46-.07.9-.58c.44-.51,1.36-.7,2.15-.61.79.09,2.29,1.1,2.87,2.24l.23-.03c-.28-1.32-.52-2.61-.74-3.83-5.11-1.36-6.95-5.7-7.54-7.72h-.24Zm-1.36,0h.88c-.64,2.26-1.89,5.13-4.35,7.19,0-.4-.02-.8-.02-1.19,2.24-1.87,3.14-4.44,3.49-6.01h0Zm-1.21,0h.74c-.33,1.44-1.13,3.68-3.02,5.4,0-.52,0-1.02,0-1.51,1.46-1.2,2.05-2.87,2.28-3.89h0Zm-1.1,0h.62c-.21.89-.7,2.22-1.81,3.27,0-.49.01-.95.02-1.38v.02c.73-.49,1.04-1.29,1.16-1.91h0Zm-1.12,0h.65c-.1.43-.29.94-.68,1.32.01-.53.02-.98.04-1.32h0Zm4.1,10.69c-.67-.66-1.49-1.16-2.82-.89-.62.13-1,.29-1.22.43-.01-.36-.03-.71-.04-1.06.44-.89,1.59-1.04,2.53-.89,1.02.16,1.75,1.19,1.75,1.19v1.38s-.2-.16-.2-.16h0Zm14.28,15.63l-5.63-.06c1.57-1.13,2.98-2.41,3.88-3.4.53,1.26,1.11,2.43,1.74,3.46Z" style="fill: #fff; fill-rule: evenodd; stroke-width: 0px;"/>
        <path d="m73.7,88.07h9.47c-4.49-3.25-4.64-14.43-4.65-15.41-.21,1.61-1.18,7.46-4.82,15.41Z" style="fill: #231815; fill-rule: evenodd; stroke-width: 0px;"/>
        <path d="m83.92,88.52c.26.12.54.22.82.29.98.2,2.2-.1,3.5-.69h9.9c.2.41.4.81.59,1.21h-25.63c.13-.27.26-.55.39-.82h10.43Zm15.22,1.63c.15.31.31.62.47.93h-27.36c.15-.3.3-.61.46-.93h26.44Zm3.62,6.9c.22.4.45.82.68,1.25h-34.77c.18-.36.38-.77.62-1.25h33.46Z" style="fill: #ffe100; fill-rule: evenodd; stroke-width: 0px;"/>
        <path d="m75.39,91.88h2.92s-.94,2.04-.94,2.04h-2.92s.94-2.04.94-2.04h0Zm6.42,0h2.92s-.94,2.04-.94,2.04h-2.92s.94-2.04.94-2.04h0Zm6.27,0h3.08s-.99,2.04-.99,2.04h-3.08s.99-2.04.99-2.04h0Zm6.28,0h3.32s-1.07,2.04-1.07,2.04h-3.32s1.07-2.04,1.07-2.04h0Zm6.7,2.04h-1.49s.7-1.51.7-1.51c.25.49.51.99.79,1.51h0Zm-30.14.56h2.92s-.94,2.04-.94,2.04h-2.92s.94-2.04.94-2.04h0Zm6.66,0h2.68s-.94,2.04-.94,2.04h-2.68s.94-2.04.94-2.04h0Zm6.35,0h2.77s-.99,2.04-.99,2.04h-2.77s.99-2.04.99-2.04h0Zm6.28,0h3s-1.07,2.04-1.07,2.04h-3s1.07-2.04,1.07-2.04h0Zm6.14,0h2.94s-.94,2.04-.94,2.04h-2.94s.94-2.04.94-2.04h0Zm6.1,2.03h-.83s.38-.82.38-.82c.14.27.29.54.45.82Z" style="fill: #ffe100; fill-rule: evenodd; stroke-width: 0px;"/>
        <path d="m110.5,88.91l5.65,11.01v1.05c-6.28-.2-8.57-7.48-9.94-10.58-1.32-2.99-11.92-26.3-13.83-30.48h2.73c1.67,3.13,12.81,24,15.39,29.01Z" style="fill: #231815; fill-rule: evenodd; stroke-width: 0px;"/>
        <path d="m91.51,59.9c.26.59.81,1.85,1.53,3.51l-2.27-2.54c-.05-.32-.1-.64-.15-.97h.89Zm2.12,4.86l-2.73-3.05c.1.63.19,1.23.29,1.81l3.72,4.15c-.45-1.03-.88-2.02-1.28-2.92h0Zm1.87,4.27c.36.83.74,1.68,1.11,2.54l-4.99-5.38c-.1-.58-.2-1.19-.3-1.82l4.18,4.66h0Zm1.68,3.83c.42.95.84,1.91,1.25,2.84l-6.35-6.84c-.11-.58-.21-1.2-.32-1.84l5.42,5.84h0Zm1.82,4.13l-6.76-7.29c.1.54.2,1.06.3,1.56l7.23,7.47c-.25-.56-.51-1.14-.77-1.74h0Zm1.31,2.96l-7.61-7.85c.18.88.36,1.69.53,2.44,1.02,1.11,2.42,2.63,3.52,3.76.24.25.49.51.74.76,1.26,1.32,2.47,2.58,3.83,3.17-.19-.43-.38-.86-.58-1.29-.14-.32-.29-.64-.43-.98h0Zm1.27,2.87c-1.63-.52-2.99-1.95-4.42-3.44-.24-.25-.48-.5-.73-.76-.92-.94-2.03-2.13-2.96-3.15.12.46.23.9.35,1.33,2,2.37,6.66,7.7,9.04,8.89-.41-.93-.84-1.89-1.27-2.86h0Zm1.53,3.45c.29.65.57,1.28.84,1.9-2.49-1.17-6.82-5.63-9.04-8.01-.28-.73-.54-1.48-.78-2.28,2.38,2.76,6.76,7.58,8.98,8.39h0Zm1.1,2.47c.34.77.67,1.51.99,2.21-2.47-1.4-6.77-5.32-8.76-7.19,0-.02-.02-.03-.02-.05-.38-.84-.72-1.63-1.04-2.4,2.49,2.62,6.51,6.57,8.84,7.44h0Zm1.29,2.87c.32.71.62,1.37.91,1.98-2.17-1.12-5.66-3.81-7.93-5.63-.55-1.07-1.07-2.12-1.53-3.09,2.36,2.17,6.34,5.68,8.55,6.74h0Zm1.21,2.62c-1.98-.9-5.29-3.37-7.72-5.28.4.77.81,1.55,1.21,2.3,1.99,1.55,4.97,3.72,7.48,4.98-.28-.55-.61-1.23-.97-2h0Zm1.33,2.69c-2.35-1.08-5.2-3.08-7.32-4.68.41.76.8,1.49,1.18,2.18,2.13,1.6,5.07,3.59,7.58,4.47-.43-.45-.76-.88-1.01-1.24-.12-.17-.26-.42-.43-.73h0Zm2.17,2.67c.76.67,1.7,1.32,2.81,1.77-2.75.33-7-2.04-9.13-3.36-.37-.66-.87-1.56-1.46-2.62,2.33,1.69,5.34,3.59,7.78,4.22h0Zm3.63,2.06c.72.21,1.49.34,2.32.34v.03c-.34.16-2.04.88-3.89.72-2-.17-4.19-.91-7.34-3.32-.19-.15-.35-.23-.47-.44-.03-.05-.06-.1-.1-.17,2.54,1.5,6.88,3.68,9.49,2.84Z" style="fill: #fff; fill-rule: evenodd; stroke-width: 0px;"/>
        <path d="m111.17,59.9c-.01.74-.01,2.09.11,3.59.17,2.14.95,12.47,4.87,18.65v.43c-1.16-.09-5.42-.29-8.17,1.52-4.24-8.04-11.54-21.71-12.87-24.19h16.07Z" style="fill: #004ea2; fill-rule: evenodd; stroke-width: 0px;"/>
        <path d="m97.91,59.9h12.77c-.44,13.67,4.65,22.04,4.65,22.04-1.83-.01-3.47.22-4.84.53-4.44-7.83-11.15-19.99-12.58-22.57Z" style="fill: #ffe100; fill-rule: evenodd; stroke-width: 0px;"/>
        <path d="m110.05,82.57l-12.46-22.68h-2.48c1.29,2.41,8.19,15.35,12.48,23.46.63-.25,1.46-.53,2.46-.78Z" style="fill: #e60012; fill-rule: evenodd; stroke-width: 0px;"/>
        <path d="m99.2,59.9h.51c.12.78.38,1.71.96,2.53,1.26,1.79,2.49,1.71,2.49,1.71,0,0-.86-.78-.76-1.51.1-.73.69-1.21,1.19-1.2.49.02,1.09,1.25,1.09,1.25.12-.43.66-1,1.22-.96.56.03,1.33.6,1.32,1.59-.02,1-1.47,1.35-1.47,1.35,1.35,1.45.29,2.69-.29,2.77-.58.08-1.31-1.2-1.31-1.2-.37,2.21.31,3.77,1.24,4.76.93.99,2.09,1.06,2.09,1.06,0,0-1.2-1.1-.83-2.12.37-1.02,1.42-.71,1.42-.71.79.19.97,1.21.97,1.21,0,0,.54-.7.98-.7s1.48.35,1.48,1.46-1.29,1.64-1.29,1.64c1.07,1.77.16,2.63-.69,2.6-.85-.03-1.2-1.52-1.2-1.52-.38,2.53.23,3.69,1.25,4.74,1.02,1.06,2.14,1,2.14,1-.77-.46-1.17-1.28-1.19-1.85-.02-.56.47-1.14,1.25-1.13.77.02,1.26,1.3,1.26,1.3l.39-.27c.03.08.06.17.09.25.03.18.09.42.16.64.14.4.4,1.07.4,1.07.07.52.48,1.66.71,2.28-.68.01-1.33.06-1.94.13-.15-.54-.28-1.3-.28-1.3-.33.19-.43.86-.45,1.39-.22.03-.43.07-.64.1.07-1.06.43-1.99.43-1.99-2.74.02-3.91-2.45-4.13-3.9-.21-1.45.26-3.65.26-3.65-4.38-.75-4.62-4.26-4.61-5.76.01-1.5.78-2.08.78-2.08,0,0,.28.07.68,0,.4-.07.38-.57.16-.9-.21-.33-.68-.5-.82-.14-.14.35-.56.92-.89,1.02-.33.09-.92-.14-.92-.14-.73-.38-1.5-1.18-2.32-2.46-.54-.85-.79-1.8-.89-2.36h0Zm9.68,11.71c-.28,0-.5.21-.5.48,0,.26.23.48.5.48s.51-.22.51-.48c0-.26-.23-.48-.51-.48h0Zm4.09,7.42c-.29,0-.53.25-.53.56s.24.56.53.56.53-.25.53-.56-.24-.56-.53-.56Z" style="fill: #231815; fill-rule: evenodd; stroke-width: 0px;"/>
        <path d="m71.17,98.89c.58.93,1.4,2.55,1.79,4.73.57,3.24-.62,7.44-2.6,9.48l-1.04-1.23c2.82-2.87,2.95-6.17,2.4-8.7-.36-1.67-1.31-3.31-1.95-4.28h1.41Z" style="fill: #fff; fill-rule: evenodd; stroke-width: 0px;"/>
        <path d="m69.31,111.86l-.4-.47-.95-1.12c.37-.47.72-1.03,1.03-1.64,1.03-2.08,1.48-4.75.19-6.68-.38-.57-.9-1.07-1.61-1.47,0,0,.06-.08.81-1.59h1.37c.65.97,1.59,2.61,1.95,4.28.55,2.52.42,5.83-2.4,8.7Z" style="fill: #231815; fill-rule: evenodd; stroke-width: 0px;"/>
        <path d="m70.75,113.57c.35-.48,1.61-2.28,2.27-4.16.76-2.18,1.24-6.99-1.31-10.52h1.37c.27.61,1.15,2.72,1.33,4.38.21,1.97.31,6.18-1.46,9.42l-1.65,1.54-.55-.66Z" style="fill: #ffe100; fill-rule: evenodd; stroke-width: 0px;"/>
        <path d="m74.74,112.26c.21,0,.4.08.55.21,0-.03.01-.05.02-.07-.26-.15-.43-.43-.43-.74,0-.48.4-.87.9-.87s.9.39.9.87c0,.33-.19.61-.47.76l.02.12c.16-.17.38-.29.6-.29.47,0,.82.42.82.93s-.38.93-.86.93c-.44,0-.81-.42-.86-.82-.05.12-.04.33.03.64.1.44.39.84.39.84h-1.17c.41-.44.42-1.26.42-1.36,0,0,0-.03-.01-.05-.09.4-.43.69-.84.69-.47,0-.86-.4-.86-.9,0-.5.39-.9.86-.9h0Zm1.22-10.23c.21,0,.4.08.55.21,0-.03.01-.05.02-.07-.26-.15-.43-.43-.43-.74,0-.48.4-.87.9-.87s.9.39.9.87c0,.33-.19.61-.47.76l.02.12c.16-.17.38-.29.6-.29.47,0,.82.42.82.93,0,.51-.38.93-.86.93-.44,0-.82-.42-.86-.82-.05.12-.04.33.03.64.1.44.39.84.39.84h-1.18c.41-.44.42-1.26.42-1.36,0-.01,0-.03-.01-.05-.09.4-.43.7-.84.7-.47,0-.86-.41-.86-.9,0-.5.39-.9.86-.9h0Zm14.33,5.36c.21,0,.4.08.55.21,0-.03.01-.05.02-.07-.26-.15-.43-.43-.43-.74,0-.48.4-.87.9-.87s.9.39.9.87c0,.33-.19.61-.47.76l.02.13c.16-.17.38-.29.6-.29.47,0,.82.42.82.93,0,.51-.38.93-.86.93-.44,0-.82-.42-.86-.82-.05.12-.04.33.03.64.1.44.39.84.39.84h-1.18c.41-.44.42-1.26.42-1.36,0,0,0-.03-.01-.05-.09.4-.43.69-.84.69-.47,0-.86-.4-.86-.9,0-.5.39-.9.86-.9h0Zm4.26-5.24c.21,0,.4.08.55.21,0-.03.01-.05.02-.07-.26-.15-.43-.43-.43-.74,0-.48.4-.87.9-.87s.9.39.9.87c0,.33-.19.61-.47.76l.02.13c.16-.17.38-.29.6-.29.47,0,.82.42.82.93,0,.51-.38.93-.86.93-.44,0-.82-.42-.86-.82-.05.12-.04.33.02.64.1.44.39.84.39.84h-1.18c.41-.44.42-1.26.42-1.36,0-.01,0-.03-.01-.05-.09.4-.43.69-.84.69-.47,0-.86-.41-.86-.9,0-.5.39-.9.86-.9h0Zm8.24-.26c.21,0,.4.08.55.21,0-.03.01-.05.02-.07-.26-.15-.43-.43-.43-.74,0-.48.4-.87.9-.87s.9.39.9.87c0,.33-.19.61-.47.76l.02.12c.16-.17.38-.29.6-.29.47,0,.82.42.82.93,0,.51-.38.93-.86.93-.44,0-.81-.42-.86-.82-.05.12-.04.33.03.64.1.44.39.84.39.84h-1.18c.41-.44.42-1.26.42-1.36,0-.01,0-.03-.01-.05-.09.4-.43.69-.84.69-.47,0-.86-.4-.86-.9,0-.5.39-.9.86-.9Z" style="fill: #fff; fill-rule: evenodd; stroke-width: 0px;"/>
        <path d="m90.61,134.64l.08.14.71-.65c-.56-1.12-1.92-4.21-2.11-7.82-.24-4.56.67-9.88,4.16-13.62,3.49-3.74,7-5.02,11.38-4.72,4.18.29,7.26,1.73,9.07,4.6l.85-.81s-4.5-4.48-9.24-4.64c-4.74-.16-10.98.44-14.86,8-3.88,7.56-2.08,15.52-.03,19.52h0Zm4.31-3.75c-2.09-5.64-1.43-9.9,1.63-13.68,3.16-3.91,7.16-3.95,9.55-3.42,1.78.39,3.51,1.57,4.29,2.15l-.66.64c-1.61-1.24-4.7-2.56-7.49-1.89-2.79.66-6.46,3.48-7.25,7.47-.8,3.99.8,7.94.8,7.94l-.87.8Z" style="fill: #ffe100; fill-rule: evenodd; stroke-width: 0px;"/>
        <path d="m106.2,120.19l-6.66,6.45s-.74-3.09.74-5.11c1.47-2.03,4.22-2.72,5.92-1.34Z" style="fill: #e60012; fill-rule: evenodd; stroke-width: 0px;"/>
        <path d="m115.74,118.94c.4,0,.72.33.72.73,0,.4-.32.73-.72.73s-.72-.33-.72-.73c0-.4.33-.73.72-.73h0Zm-3.59,5.57c.4,0,.72.33.72.72s-.32.73-.72.73-.72-.33-.72-.73.33-.72.72-.72h0Zm-6.16,5.26c.4,0,.72.33.72.73,0,.4-.32.73-.72.73s-.72-.33-.72-.73c0-.4.32-.73.72-.73h0Zm-3.07,3.19l.51-1.4-1.2.19s-.21-.77-.4-.78c-.19-.01-.56.55-1.14,1.56-.58,1.01-.69,1.54-.69,1.7,0,.16.73.12,1.57.01.85-.11,2.02-.59,2.02-.59l-.68-.69h0Zm-4.18.59c.4,0,.72.33.72.73,0,.4-.32.72-.72.72s-.72-.33-.72-.72c0-.4.33-.73.72-.73h0Zm11.96-10.92c.4,0,.72.33.72.73,0,.4-.32.73-.72.73s-.72-.33-.72-.73c0-.4.32-.73.72-.73h0Zm-1.53,3.18l-1.25.32s-.14-.78-.36-.77c-.22.01-1.71,2.26-1.82,3.28,0,0,1.76.22,3.56-.66l-.61-.69.48-1.48h0Zm-5.02,4.21c.4,0,.72.33.72.72s-.33.73-.72.73-.72-.33-.72-.73c0-.4.32-.72.72-.72h0Zm-5.8,5.73c.4,0,.72.33.72.73,0,.4-.33.73-.72.73s-.72-.33-.72-.73.32-.73.72-.73h0Zm16.99-15.04l-1.12.09s-.33-.78-.54-.78-1.52,2.12-1.73,3.29c0,0,.89.24,3.54-.61l-.61-.66.47-1.34h0Zm-5.04,4.05c.4,0,.72.33.72.72,0,.4-.32.73-.72.73s-.72-.33-.72-.73c0-.4.33-.72.72-.72h0Zm-5.76,3.08c.4,0,.72.33.72.73,0,.4-.33.73-.72.73s-.72-.33-.72-.73.33-.73.72-.73h0Zm-4.35,7.6c.4,0,.72.33.72.73,0,.4-.33.72-.72.72s-.72-.33-.72-.72c0-.4.32-.73.72-.73h0Zm15.95-12.11l-17.27,16.22.77.81,16.5-15.48v-1.54h0Zm0-9.56l-21.13,20.07.66.86,20.46-19.29v-1.64Z" style="fill: #fff; fill-rule: evenodd; stroke-width: 0px;"/>
        <polygon points="99.31 143.03 92.73 133.96 93.67 133.13 100.25 142.23 99.31 143.03" style="fill: #fff; fill-rule: evenodd; stroke-width: 0px;"/>
        <polygon points="116.14 111.29 116.14 112.93 94.84 133.43 94.18 132.58 116.14 111.29" style="fill: #ffe100; fill-rule: evenodd; stroke-width: 0px;"/>
        <polygon points="116.14 125.84 100.22 141.12 100.76 141.84 116.14 127.25 116.14 125.84" style="fill: #e60012; fill-rule: evenodd; stroke-width: 0px;"/>
        <path d="m92.05,118.59l.7-.64s-.64,2.36-2.43,3.45c0,0,0-3.88,2.23-4.68,0,0-1.06,2.19-1.11,2.38-.04.19.11-.06.6-.52h0Zm20.89-5.09l.29-.28c-.07-.33-.3-.78-1.07-1.48-1.06-.97-2.12-1.52-2.32-1.41-.2.11.02.82.77,2.01.75,1.19,1.41,1.5,1.41,1.5l.13-.51c-.6-.7-.37-1.19-.37-1.19.24.46.81,1.09,1.17,1.35h0Zm-12.21-1.61l.4-.84s-1.01.5-1.83,1.53c-.83,1.04-.22,1.47.4,1.38.63-.09,3.11-2.69,3.11-2.69l-2.08.61h0Zm-6.16,2.42l1.2-.31s-1.37,1.91-3.56,2.2c0,0,.64-2.11,1.7-2.95,1.06-.84,1.86-.51,1.86-.51,0,0-.51.96-1.39,1.38,0,0-.18.33.2.2h0Zm-3.36,12.46s-.18,2.79.26,2.95l.14-1.08s.24.75.24,1.51c0,.75-.2,2.3-.2,2.3,0,0-1.34-1.51-1.4-2.79-.02-.45.32-2.67.95-2.89h0Zm1.19,1.28l-.74-1.14s-.3,2.51,2.25,3.25l-.42-.91s-.02-1.28-.55-2.38c-.53-1.1-1.32-1.69-1.32-1.69,0,0,.98,2.3.77,2.87h0Zm-.29,5.43l.3-.27c-.04-.11-.07-.25-.09-.4l-.08-.24s-.18.2-.18.57c0,.1.02.23.06.35h0Zm.56-.51l.19-.17-.22-.47s0,.32.03.65h0Zm.45-.41l.19-.18-.38-.49s.08.34.19.67h0Zm.46-.43l-.61-1.38,1.25.8-.63.58h0Zm-2.37-10.39l.04-.38s-1,.32-1.47,1.75c-.47,1.43.08,4.42.08,4.42,0,0,1.99-1.19,1.62-4.83,0,0-.66,1.21-.85,1.26,0,0,.21-.96.58-2.23h0Zm.9-.4l-.28-.21s-.11.81-.09,1.94c.02,1.13.68,2.68,1.51,2.94l-.15-4.95s-.58.08-.64.72c-.06.64-.07,2.06-.07,2.06,0,0,.04-2.1-.26-2.51h0Zm18.19-8.14c-.48-.18-1.39-.48-1.39-.07,0,.4,1.97.84,1.97.84-.02.37-1.19.39-1.9.29-.71-.09-1.84-.68-1.75-1.1.09-.42.99-.66,2.01-.57,1.02.09,1.37.68,1.37.68l-.31-.07h0Zm-2.52-1.93l.31.06s-.68-1.17-.52-1.32c.17-.15,1.14,1.4,1.43,1.32.29-.08.44-.38-.46-1.23-.89-.86-1.84-1.44-3.11-1.34,0,0-.39,1.63,2.34,2.51h0Zm-13.72,6.91l.25-2.06s-.64.58-1.02,1.99c-.38,1.42.32,2.9.32,2.9,0,0,1.28-2.34,1.57-3.07.3-.73-.04-2.19-.04-2.19,0,0-.94,2.25-1.09,2.42h0Zm3.04-4.04c.35-.02,1.53-1.38,1.53-1.38-1.04,3.4-2.7,3.42-2.7,3.42-.29-.69.13-1.78.13-1.78.73-1.36,1.53-1.67,1.53-1.67l-.49,1.4h0Zm9.19-3.08l.29.12s-.68.27-.66.5c.02.23.87.13,1.14.13s.19.38-.48.69c-.66.31-3.6-.15-3.83-.27-.23-.13,1.18-1.82,3.54-1.17h0Zm-4.07-.61l1.95-.16s-1.3-.52-1.25-.83c.04-.32,1.21.07,2.04.36,0,0-.51-.79-1.61-1.06-1.1-.27-2.93.25-3.16.61,0,0,.81,1.06,2.04,1.08h0Zm-3.33,1.07l.18.12s-1.26.4-2.23.5c-.97.1-1.74-.34-1.74-.34,0,0,1.84-2.59,5.15-1.56,0,0,.02.2-1.01.48-1.03.28-1.66.38-1.66.38,0,0,.67.24,1.3.44Z" style="fill: #ffe100; fill-rule: evenodd; stroke-width: 0px;"/>
        <path d="m110.05,137.54l.12-.02s.79.34.84.52c.05.17-.17.6-.58.79-.41.19-.67-.17-.67-.5,0-.33.05-.65.29-.79h0Zm0,3.27l-.23.08s-.61.02-.7-.31c-.1-.32-.06-1.16.42-1.26.47-.1,1.01.55,1.03.93.02.38-.28.4-.51.55h0Zm.42-7.85l-6.31,5.9s1.27,2.14,2.81,3.63c1.53,1.49,2.11,1.85,2.42,1.85s.68-.55.57-1.43c-.1-.89-.91-1.7-2.47-3.11,0,0,0-1.43.13-1.98.13-.55.13-.94.08-1.07-.05-.13-.08-.18.21-.18s.13.1.13.1c0,0-.13.65-.13,1.2v1.67s.73.84.73.84c0,0-.03-1.28,1.09-1.41,0,0-.31-.37-.29-.84.03-.47.26-.83.6-.83s.42-.02.42-.02c0,0-.31-.29-.24-.8.07-.5.88-.93.88-.93,0,0-.42-.31-.31-.76.11-.46.8-.75.8-.75l-1.1-1.08h0Zm-1.96,9.45s.48.44,1.08.63c.11.03.22.07.15.29-.07.22-.18.19-.29.15-.69-.22-1.24-.73-1.24-.73-.09-.08-.17-.15-.02-.33.15-.17.24-.1.33-.02h0Zm2.24-1.56c-.59.44-1.16.48-1.16.48,1.1,1.41.82,2.82.82,2.82.91-.04,1.56-.71,1.41-1.49-.15-.78-.97-1.94-.97-1.94l-.09.13h0Zm1.45-5.74l-.07.14s-.21.14-.57.14-.43-.31-.38-.57c.05-.26.31-.41.67-.4.36.02.36.36.34.69h0Zm-.14.64l-.22.15s.98.83,1.35,1.57c0,0,.17-1.08.07-1.55-.1-.46-.58-.69-.58-.69,0,0-.03.16-.62.52h0Zm-.94.22h.14s.58.34.6.53c.02.19-.26.58-.72.69-.46.1-.5-.28-.5-.52s.22-.64.48-.71h0Zm-.48,3.54c.65.93,1.52,2.99,1.52,2.99.87-.65,1.14-1.56.78-2.42-.36-.86-1.48-1.73-1.48-1.73-.15.44-.99.97-.99.97l.17.19h0Zm.9-1.65l-.26-.21s.68-.27.96-.89c0,0,.95,1,1.08,1.76.13.77-.2,1.19-.2,1.19,0,0-.88-1.26-1.58-1.86h0Zm-.97-5.27l1.96-1.74s-.82,1.22-.8,2.8l-1.16-1.06Z" style="fill: #fff; fill-rule: evenodd; stroke-width: 0px;"/>
        <path d="m101.86,145.5l-.68-.1s1.52-1.16,2.46-1.73c.8-.49,1.99-.79,3.33-.76.06.11.14.25.24.39-1.41.69-3,1.11-3.51,1.13-.63.03-.6.37-.42.34.18-.03,1.26-.05,2.3-.47.58-.23,1.3-.51,1.83-.72.1.13.21.26.34.38-.39.28-.91.67-1.44,1.04-.99.71-2.93.37-4.45.5h0Zm6.13-1.32c-.31,1.02-1.17,3.83-1.36,3.87-.24.05-1.34.24-1.42,1.26-.08,1.03.16,1.56.16,1.56l.91-.95,1.75,2.02-1.93,2.07-.77-.92s-.19,1.05-.17,1.63c.03.59.3,1.2,1.09,1.17.78-.03,1.16-.84,1.16-1.33,0-.48-.18-1.48-.18-1.48,0,0,.08-.18.68-.03.61.15,1.47.38,1.69-.71.23-1.1-.68-1.55-1.04-1.55h-1.01s-.2.03-.13-.26c.08-.28.38-.99-.23-2.17,0,0,1.17-2.52,1.59-3.77-.05-.01-.09-.02-.14-.04-.25-.08-.48-.22-.69-.39h0Zm-3.64,7.77l.87.96c-.26.25-.65.38-1.32.35-.67-.03-1.12-.46-1.08-1.31.04-.85.53-1.41,1.05-1.41s1.28.63,1.28.63l-.8.78h0Zm1.8,1.5l-1.34-1.52,1.46-1.47,1.3,1.47-1.41,1.52h0Zm3.13-8.8c.35-.01.68-.11.96-.23.6.29,1.58.78,1.91,1.06.49.41,1.64,1.01,1.64,2.36v2.13s-.16-.1-.93-.73c-.76-.64-1.54-.96-2.73-2.07-1.18-1.11-.94-2.04-.94-2.04v-.12c1.62,1.02,3.36,2.98,3.36,2.98l.26-.31c-.1-.36-1.96-1.82-2.63-2.36-.43-.34-.74-.57-.91-.68h0Zm4.18-13.19l-.05-.16s-.39-.09-.78.25c-.39.35-.44.85-.36,1.03.08.17,1.13-.16,1.19-1.12h0Zm.08.73s-.33,2.28-.49,2.45c-.16.17-.94-.74-1.02-1.06-.08-.32.14-.55.39-.6.44-.08.77-.52,1.11-.79Z" style="fill: #ffe100; fill-rule: evenodd; stroke-width: 0px;"/>
        <g>
          <path d="m75.64,121.17h12.38c-.15.88-.25,1.74-.29,2.58-.06,1.23.02,2.49.2,3.7h-12.38c.15-.88.25-1.74.29-2.58.06-1.23-.02-2.49-.2-3.7Z" style="fill: #231815; fill-rule: evenodd; stroke-width: 0px;"/>
          <polygon points="81.1 122.91 79.63 122.94 80.36 124.16 79.71 125.66 80.9 125.66 81.74 126.78 82.34 125.66 83.95 125.66 83.24 124.16 83.91 122.8 82.67 122.8 82.03 121.83 81.1 122.91" style="fill: #ffe100; fill-rule: evenodd; stroke-width: 0px;"/>
        </g>
      </g>
      <g>
        <path d="m52.95,116.01l6.76-6.64s-1.26-2.01-2.63-3.33c0,0,1.29.06,2.49-.34,1.2-.4,3.43-2.41,3.49-2.7.06-.29-.46-.31-2.29-.31-1.83,0-1.94-.03-2.43.06-.49.09-2,1.07-2,1.07,0,0,.61-2.46.78-2.81,0,0,.85-.05,1.21-.8h1.9s0-1.95,0-1.95c.59-.27,1.01-.89,1.01-1.6h0c0-.72-.42-1.33-1.01-1.6v-2.19s-1.78,0-1.78,0c-.19-.39-.61-.67-1.09-.67h0c-.48,0-.9.28-1.09.67h-1.89s0,2.21,0,2.21c-.57.28-.97.88-.97,1.58h0c0,.7.4,1.31.97,1.59v1.97s1.64,0,1.64,0c0,0-.95,1.45-1.25,2.67,0,0-.34-1.54-1.76-2.49-1.42-.94-2.75-1.65-3.29-2.39l-.43.17s-.06,1.82,0,2.91c.06,1.08,1.19,2.34,3.04,2.94,0,0-.96.96-.96,1.61,0,0-1.18.86-1.23,1.39-.05.54-.05,1.55-.05,1.55,0,0-.38.38-.38.9s.04,2.8.04,2.8c0,0,.12.36.31.69.19.33,0,.59-.05,1.14-.05.54-.38,1.37-.52,2.2-.14.83-.02,1.33.35,1.4.38.07.85-.07.85-.07,0,0,1.29-.67,1.21-2.59l1.06.98Z" style="fill: #004ea2; fill-rule: evenodd; stroke-width: 0px;"/>
        <path d="m72.18,114.49l-3.52,3.23c2.09,5.64,1.43,9.9-1.63,13.68-3.16,3.91-7.16,3.95-9.55,3.42-1.78-.39-3.51-1.57-4.29-2.15l-3.5,3.37c1.8,2.87,4.89,4.31,9.07,4.6,4.38.3,7.9-.98,11.38-4.72,3.49-3.74,4.4-9.07,4.16-13.62-.19-3.61-1.55-6.7-2.11-7.82Z" style="fill: #231815; fill-rule: evenodd; stroke-width: 0px;"/>
        <g>
          <path d="m89.72,149.73c-3.34-7.56.5-14.37.5-14.37,0,0-1.68-3.69-2.29-7.92h-2.32c0,.11,0,.22-.01.33h0c0,.17-.01.33-.02.49,0,.06,0,.12,0,.17,0,.13-.01.27-.02.4,0,.06,0,.11,0,.17,0,.01,0,.03,0,.04,0,.14-.01.28-.02.42,0,.07,0,.15-.01.22,0,.1-.01.21-.02.31,0,.05,0,.1,0,.15,0,.12-.02.24-.02.36,0,.1-.01.19-.02.29-.01.15-.02.29-.03.44,0,0,0,.01,0,.02-.01.17-.03.34-.04.51,0,.03,0,.07,0,.11-.03.37-.06.74-.1,1.12,0,0,0,.01,0,.02-.03.36-.07.72-.1,1.07,0,.02,0,.05,0,.08h0s0,.05,0,.07c-.04.35-.07.7-.11,1.05,0,.02,0,.03,0,.05-.02.17-.04.35-.06.52,0,.01,0,.02,0,.04-.06.54-.13,1.08-.19,1.62,0,.02,0,.05,0,.07,0,.02,0,.04,0,.06-.09.7-.18,1.39-.27,2.07,0,.03-.01.07-.01.1-.02.16-.04.32-.07.48h0c-.02.13-.04.26-.05.38-.01.08-.02.17-.04.25-.09.62-.18,1.23-.27,1.81,0,.03,0,.06-.01.09,0,.02,0,.04,0,.06-.04.24-.07.47-.11.7,0,.07-.02.13-.03.19-.12.77-.25,1.5-.36,2.17-.01.06-.02.12-.03.18-.01.08-.03.15-.04.22-.18,1.04-.35,1.94-.49,2.64,0,.02,0,.04-.01.06-.03.15-.06.3-.08.44,0,.03-.01.06-.02.1,0,.04-.02.08-.03.12,0,.01,0,.02,0,.03h6.9Zm-4.21-20.03v-.22c0,.07,0,.15,0,.22h0Zm-1.19,11.22l.04-.25c-.01.08-.02.17-.04.25h0Zm-7.41-7l-.15.48s-.01.04-.02.07c-.02.08-.05.15-.08.23,0,.03-.02.05-.03.07-.02.06-.04.12-.06.18-.02.05-.03.1-.05.15h0c-.03.1-.07.2-.1.3,0,0,0,.01,0,.02-.01.04-.03.08-.04.11-.12.33-.25.67-.38,1.02-.06.17-.13.34-.2.51-.02.06-.05.11-.07.17-.02.06-.05.12-.07.18-.04.09-.07.18-.11.27,0,.01,0,.02-.01.03-.03.07-.06.15-.09.22-.03.06-.05.12-.08.19-.02.05-.05.11-.07.16-.02.05-.04.09-.06.14-.03.08-.07.16-.11.24-.02.04-.04.08-.06.13-.04.08-.07.16-.11.25-.01.03-.03.06-.04.09-.03.07-.06.14-.1.21-.04.08-.08.16-.11.25-.01.02-.02.04-.03.07-.04.08-.08.16-.12.24-.03.06-.06.12-.09.18-.02.05-.05.1-.07.15-.04.08-.08.15-.11.23-.02.04-.04.07-.05.11-.04.08-.08.15-.12.23-.03.06-.07.13-.1.19-.03.06-.06.11-.09.17-.03.06-.06.11-.09.17-.03.06-.07.13-.1.19-.04.07-.07.13-.11.2-.03.06-.06.12-.1.17-.02.05-.05.09-.07.13-.04.08-.08.15-.13.23-.12.21-.24.41-.36.62-.02.03-.04.06-.05.09,0,0,0,.01-.01.02-.02.03-.03.05-.05.08-.17.28-.34.55-.52.83-.03.05-.07.11-.1.16-.06.09-.11.17-.17.25-.02.03-.04.06-.06.08-.14.21-.28.41-.42.61-.02.03-.04.06-.06.09-.05.07-.1.13-.15.2-.04.06-.08.12-.13.18-.03.03-.05.07-.08.1-.06.08-.12.16-.18.24-.03.05-.07.09-.11.14-.05.06-.1.13-.15.19-.04.05-.08.1-.12.15-.05.06-.1.13-.15.19-.04.05-.08.1-.12.15-.05.06-.1.12-.15.18-.04.05-.08.1-.12.15-.05.06-.1.12-.15.17-.05.06-.11.12-.16.19-.03.04-.07.08-.1.12-.05.06-.11.12-.16.18-.05.05-.1.11-.15.16-.05.05-.09.1-.14.15-.06.06-.12.13-.18.19-.03.03-.07.07-.1.1-.06.06-.12.12-.18.18-.05.05-.1.1-.15.15-.04.04-.08.08-.12.12-.06.06-.11.11-.17.17-.06.05-.11.1-.17.16-.05.05-.1.09-.15.14-.06.05-.11.1-.17.15-.05.05-.1.09-.15.14-.04.04-.09.08-.13.11-.07.06-.14.12-.21.18h-7.49c-1.93-2.02-3.88-3.2-4.91-3.72l1.62-2.74c9.94.64,14.28-2.77,17.59-8.1,1.69-2.73,2.37-5.56,2.61-7.72h1.36c-.07.78-.15,1.61-.25,2.43,0,0,0,0,0,0,0,.02,0,.03,0,.05,0,.02,0,.03,0,.05,0,.02,0,.03,0,.05,0,0,0,.01,0,.02,0,.01,0,.02,0,.03-.01.09-.03.19-.04.28,0,.05-.01.1-.02.16h0c0,.06-.02.11-.03.17,0,0,0,.01,0,.01,0,.01,0,.02,0,.02,0,.05-.02.11-.03.16,0,0,0,.02,0,.02-.02.12-.05.24-.07.37,0,.02,0,.03-.01.05-.01.05-.02.11-.03.16,0,.01,0,.03-.01.04-.01.06-.03.12-.04.18,0,.03-.01.05-.02.08-.01.05-.03.11-.04.16,0,0,0,.01,0,.02-.02.07-.04.15-.06.23,0,0,0,.02,0,.03-.02.06-.03.13-.05.2,0,.03-.01.05-.02.08-.01.05-.03.11-.04.16-.01.05-.03.1-.04.14,0,.01,0,.03-.01.04-.01.05-.03.1-.04.15,0,0,0,.01,0,.01-.02.07-.04.15-.06.22-.01.04-.02.07-.03.11-.02.05-.03.1-.05.16-.01.03-.02.07-.03.1-.02.05-.03.1-.05.15-.02.06-.04.13-.06.19Z" style="fill: #e60012; fill-rule: evenodd; stroke-width: 0px;"/>
          <path d="m78.08,127.45c-.08.92-.18,1.92-.32,2.91-.44,3.2-3.65,13.65-10.47,19.38h15.51c.64-3.25,2.51-13.38,2.79-22.28h-7.52Z" style="fill: #231815; fill-rule: evenodd; stroke-width: 0px;"/>
          <path d="m83.43,127.45v.26s.4.68.4.68l-.93,1.32.93,1.47-1.01,1.02.78,1.24-1,1.1.65,1.31-1.27,1.13.79,1.56-1.26,1.55.49,1.99-1.18,1.45.79,1.52-1.9,1.66,1,1.84-1.65,1.2h1.83s.88-.74.88-.74l-.75-2.33,1.56-1.26-.82-2,1.46-1.46-.57-1.73,1.12-1.34-.69-1.44,1.19-1.29-.7-1.43.88-.86-.46-1.6.73-.78-.52-1.61.54-.96-.49-.96v-.5s-.82,0-.82,0h0Zm-2.29,0h1.19c-.06,1.71-.3,6.89-1.27,11.56-1.04,4.99-2.55,9.64-2.92,10.72h-3.8c3.67-5.57,6-15.16,6.32-17.78.26-2.08.41-3.77.48-4.5h0Zm-2.02,0h.78v.91s-.32.27-.32.27l.44,1.43-.91.63.61,1.89-1,.9.79,1.47-1.37,1.21.52,1.43-1.58,1.05.81,1.63-1.9,1.53.94,1.95-2.32,1.49.3,1.77-2.31,1.73.38.99h-1.83s-.71-.87-.71-.87l3.14-2.36-.41-1.85,2.13-1.11-.65-1.9,1.77-1.42-.55-1.69,1.44-1.08-.25-2.05,1.38-1.11-.79-1.39.84-.9-.17-1.45.97-.8-.53-1.28.38-.42v-.6Z" style="fill: #ffe100; fill-rule: evenodd; stroke-width: 0px;"/>
          <path d="m76.38,127.45c-.23,1.54-1.15,6.17-4.27,9.86-3.73,4.4-8.47,6.12-15.29,5.46l.47-.79c5.59.84,9.52-1.44,9.52-1.44,5.27-2.8,7.89-8.16,8.74-13.08h.83Z" style="fill: #fff; fill-rule: evenodd; stroke-width: 0px;"/>
        </g>
        <path d="m60.13,150.3c-.1-.19-.21-.38-.32-.58h35.37c-.09.17-.18.36-.29.58h-34.77Zm3.84,7.23c-.89-1.76-1.84-3.57-3.15-5.98h33.46c-.68,1.37-1.63,3.29-2.95,5.98h-27.36Zm.87,1.74c-.14-.27-.27-.55-.4-.82h26.44c-.05.1-.1.21-.15.31-.08.17-.17.34-.24.5h-25.63Z" style="fill: #231815; fill-rule: evenodd; stroke-width: 0px;"/>
        <path d="m85.68,188.72c0-1.39.05-5.57.69-9.07.78-4.27,4.16-9.51,6.36-13.94,2.21-4.43,5.41-10.03,3.79-17.41,0,0-4.88,8.53-7.33,15.07-2.45,6.54-3.54,10.93-3.66,12.71-.11,1.51-.21,10.1-.24,12.65h.39Z" style="fill: #e60012; fill-rule: evenodd; stroke-width: 0px;"/>
        <path d="m73.22,176.07l.07-.07s.3-.21.53-.23c.23-.01.22.2.17.53-.06.33-.38.72-.65.71-.27,0-.5-.39-.46-.58.04-.19.35-.37.35-.37h0Zm3.11.59l.3.27s0-.57-.29-1.02c-.29-.44-.7-.61-1.18-.54-.48.07-1.15.9-.98,1.51,0,0,.04.11.26.1.21-.01.25-.22.41-.53.16-.31.3-.39.53-.45.23-.07.73.4.95.66h0Zm.8-.8l.1.05s.05.38-.15.46c-.2.09-.34-.04-.33-.25.01-.2.2-.24.39-.27h0Zm-4.02,2.06l4.28-.3s-.99,1.1-1.99,1.26c-.99.16-2.31-.84-2.29-.96h0Zm4.41,1.91l.21-.14s.21.16.21.49-.72.86-1.8,1.05c-1.09.19-2.75-.21-4.11-1.87,0,0,.21,0,.81.23.6.23,1.5.89,2.52.82,1.02-.07,1.32-.05,2.17-.58h0Zm.85-9.54l.19.13s.62.18,1.21.34c.59.16.44.43.27.63-.18.2-.57.62-.88.3-.31-.32-1.02-.93-1.37-.96-.35-.03-.55.34-.52.84.03.5.51.72.7.9.19.19.07.37-.22.35-.28-.01-.9-.43-1-1.15-.09-.72.19-1.39.56-1.59.38-.2.92-.04,1.05.2h0Zm2.85-6.35l-.04.12s-.6.74-1.63.98c-1.03.23-1.75-.16-2.27-.45-.52-.29-.58-.47-.52-.61.06-.14.45-.18.7.04.25.22.7.49,1.32.47.62-.02,1.24-.08,1.69-.33.45-.25.6-.37.76-.21h0Zm-.68,1.84l.08.14s.06.33-.23.37c-.29.04-.6-.18-.68-.29-.08-.12-.82-.12-1.09.08-.27.2-.43.39-.7.37-.27-.02-.41-.22-.37-.43.04-.22,1.16-.63,1.71-.65.54-.02.81.08,1.28.41h0Zm-1.61,2.37l.04-.12s.49-.04.74.04c.25.08.29.25.52.25s.47-.29.68-.45c.21-.16.5.12.85.16.35.04.33-.12.33-.47s-.02-1.45-.39-1.41c-.37.04-.68.68-1.05.7-.37.02-.76-.12-1.24-.29-.49-.18-.56-.08-.91.1-.35.18-.78.43-1.2.35-.43-.08-.85-.49-1.15-.51s-.27.14-.17.49c.1.35.16.43.27.63.12.2-.04.82.23.84.27.02.49-.29.8-.29s.52.08.83.2c.31.12.66.16.82-.22h0Zm2.15,8.37c.27-.02.28-.18.39-.45.14-.3-.07-.5-.26-.5s-.5.27-.52.45c-.02.18.12.49.39.5h0Zm2.92,0c-.17,0-.17-.03-.31-.23-.15-.2-.35-.52-.64-.6-.28-.07-.39.06-.64.48-.26.42-.25.64-.54.63-.29-.01-.33-.19-.28-.57.05-.38.49-.8.83-1.04.34-.24.79-.21,1.24.26.45.47.45,1.04.45,1.04l-.1.02h0Zm.59-.7c0-.12-.01-.25-.02-.37-.15-.09-.61-.1-.6.13.01.25.32.49.32.49l.11-.02c.08-.06.15-.14.19-.23h0Zm.09,1.76c0-.22-.02-.43-.03-.65-.45.65-1.49.6-2.25.66-.8.06-1.74-.1-1.74-.1.57.76,1.61,1.2,2.06,1.2s1.1-.23,1.58-.6c.17-.13.29-.32.37-.5h0Zm-10.77,11.13h-.58c-.02-.15-.04-.33-.06-.52.22.17.44.34.64.52h0Zm1.58,0c-.52-.82-1.38-1.92-2.46-2.48.06.49.12.94.17,1.34.52.36,1.01.78,1.39,1.14h.9Zm1.25,0c-.71-1.25-2.08-3.24-3.91-3.95.05.32.09.63.13.93,1.43.6,2.5,2.08,3.07,3.02h.71Zm1.28,0c-.81-1.61-2.6-4.5-5.42-5.47.05.35.1.68.15,1.01,2.2.71,3.78,3.13,4.51,4.46h.75Zm1.27,0c-.59-1.95-2.33-5.88-6.97-7.22.07.42.14.84.21,1.24,3.22.99,5.2,4.32,6.01,5.98h.76Zm.72,0c.67-2.43,2.03-5.59,4.81-7.78,0-.14,0-.27-.01-.41,0-.04,0-.08,0-.13-.33.23-1.17.76-2.01.87-1.08.14-2.44-.78-2.71-2.05-.28-1.28.31-5.74,1.29-7.53,0,0-1.55-1.46-1.55-2.93,0,0,1.33,1.86,2.08,2.22,0,0,.17.35-.04.83-.22.48-.59,1.01-.7,1.48-.11.47,0,.97,0,.97,0,0,.75-.2,1.43-1.15,0,0,.1-.06.22.08.12.14.02.31-.13.44-.15.13-1.34.89-1.55,1.15-.21.26.02.46.02.46,0,0,.44-.33,1.04-.52.54-.17,1.71-.13,2.35.19-.19-2.81-.52-5.8-1.2-8.73-1.16-5.02-4.12-6.13-5.48-6.1-1.29.03-5.55,1.94-9.56,6.11,1.29,3.13,2.29,6.78,3.05,10.26.12.08.27.13.45.12.53-.02.6-.19.72-.37.12-.19,1.02-.86,1.8-1.12.79-.26,1.99-.02,2.77.44,0,0,.23,0,.09-.28-.14-.28-2.43-2.05-2.33-2.63,0,0,.74.26,1.57,1,.83.75,1.22,1.26,1.29,1.93.07.68-.02,1.14-.02,1.14,0,0-.16.19-.16.42s.16.3.16.3l-.05.77s-.46.07-.9.58c-.44.51-1.36.7-2.15.61-.79-.09-2.29-1.1-2.87-2.24l-.23.04c.28,1.32.53,2.61.74,3.83,5.11,1.36,6.95,5.7,7.54,7.72h.24Zm1.36,0h-.89c.64-2.26,1.89-5.13,4.35-7.19.01.4.02.8.02,1.19-2.24,1.87-3.14,4.44-3.49,6h0Zm1.21,0h-.74c.33-1.44,1.13-3.68,3.02-5.4,0,.52,0,1.02,0,1.51-1.46,1.2-2.05,2.87-2.28,3.89h0Zm1.1,0h-.62c.21-.89.7-2.22,1.81-3.27,0,.49-.01.95-.02,1.38v-.02c-.73.49-1.04,1.29-1.16,1.91h0Zm1.12,0h-.65c.1-.43.29-.94.68-1.32-.01.53-.02.98-.04,1.32h0Zm-4.1-10.69c.67.66,1.49,1.16,2.82.89.62-.13,1-.29,1.22-.43.01.36.03.71.04,1.06-.45.89-1.59,1.04-2.53.89-1.02-.16-1.75-1.19-1.75-1.19v-1.38s.2.16.2.16h0Zm-14.28-15.63l5.63.06c-1.57,1.13-2.98,2.41-3.88,3.4-.53-1.26-1.11-2.43-1.74-3.46Z" style="fill: #fff; fill-rule: evenodd; stroke-width: 0px;"/>
        <path d="m89.88,160.54h-9.47c4.49,3.25,4.64,14.43,4.65,15.41.21-1.61,1.18-7.46,4.82-15.41Z" style="fill: #231815; fill-rule: evenodd; stroke-width: 0px;"/>
        <path d="m79.65,160.09c-.26-.12-.54-.22-.82-.29-.98-.2-2.2.1-3.5.69h-9.9c-.2-.41-.4-.82-.59-1.21h25.63c-.13.27-.26.55-.39.82h-10.43Zm-15.22-1.63c-.15-.31-.31-.62-.47-.93h27.36c-.15.3-.3.61-.46.93h-26.44Zm-3.62-6.9c-.22-.4-.45-.82-.68-1.25h34.77c-.18.36-.38.77-.62,1.25h-33.46Z" style="fill: #ffe100; fill-rule: evenodd; stroke-width: 0px;"/>
        <path d="m88.18,156.73h-2.92s.94-2.04.94-2.04h2.92s-.94,2.04-.94,2.04h0Zm-6.42,0h-2.92s.94-2.04.94-2.04h2.92s-.94,2.04-.94,2.04h0Zm-6.27,0h-3.08s.99-2.04.99-2.04h3.08s-.99,2.04-.99,2.04h0Zm-6.28,0h-3.32s1.07-2.04,1.07-2.04h3.32s-1.07,2.04-1.07,2.04h0Zm-6.7-2.04h1.49s-.7,1.51-.7,1.51c-.25-.49-.51-.99-.79-1.51h0Zm30.14-.56h-2.92s.94-2.04.94-2.04h2.92s-.94,2.04-.94,2.04h0Zm-6.66,0h-2.68s.94-2.04.94-2.04h2.68s-.94,2.04-.94,2.04h0Zm-6.35,0h-2.77s.99-2.04.99-2.04h2.77s-.99,2.04-.99,2.04h0Zm-6.28,0h-3s1.07-2.04,1.07-2.04h3s-1.07,2.04-1.07,2.04h0Zm-6.14,0h-2.94s.94-2.04.94-2.04h2.94s-.94,2.04-.94,2.04h0Zm-6.1-2.03h.83s-.38.82-.38.82c-.14-.27-.29-.54-.45-.82Z" style="fill: #ffe100; fill-rule: evenodd; stroke-width: 0px;"/>
        <path d="m53.08,159.7l-5.65-11.01v-1.05c6.28.2,8.57,7.48,9.94,10.58,1.32,2.99,11.92,26.3,13.83,30.48h-2.73c-1.67-3.13-12.81-24-15.39-29.01Z" style="fill: #231815; fill-rule: evenodd; stroke-width: 0px;"/>
        <path d="m72.07,188.72c-.26-.59-.81-1.85-1.53-3.51l2.27,2.54c.05.32.1.64.15.97h-.89Zm-2.12-4.86l2.73,3.05c-.1-.63-.19-1.23-.29-1.81l-3.72-4.16c.45,1.03.88,2.02,1.28,2.92h0Zm-1.87-4.27c-.36-.83-.74-1.68-1.11-2.54l4.99,5.38c.1.58.2,1.19.3,1.82l-4.18-4.66h0Zm-1.68-3.83c-.42-.95-.84-1.91-1.25-2.84l6.35,6.84c.11.58.21,1.2.32,1.84l-5.42-5.84h0Zm-1.82-4.13l6.76,7.29c-.1-.54-.2-1.06-.3-1.56l-7.23-7.47c.25.56.51,1.14.77,1.74h0Zm-1.31-2.96l7.61,7.85c-.18-.88-.35-1.69-.53-2.44-1.02-1.11-2.42-2.63-3.52-3.76-.24-.25-.49-.51-.74-.76-1.26-1.32-2.47-2.58-3.83-3.17.19.43.38.86.58,1.3.14.32.29.64.43.98h0Zm-1.27-2.87c1.62.52,2.99,1.95,4.42,3.44.24.25.48.5.73.76.92.94,2.03,2.13,2.97,3.15-.12-.46-.23-.9-.35-1.33-2-2.37-6.66-7.7-9.04-8.89.41.93.84,1.89,1.27,2.86h0Zm-1.53-3.45c-.29-.65-.57-1.28-.84-1.9,2.49,1.17,6.83,5.63,9.04,8.01.28.73.54,1.48.78,2.28-2.38-2.76-6.76-7.58-8.98-8.39h0Zm-1.1-2.47c-.34-.77-.67-1.51-.99-2.21,2.47,1.4,6.77,5.32,8.76,7.19,0,.02.02.04.02.05.38.84.72,1.63,1.04,2.4-2.49-2.62-6.51-6.57-8.84-7.44h0Zm-1.29-2.87c-.32-.71-.62-1.37-.91-1.98,2.17,1.13,5.66,3.81,7.93,5.63.55,1.07,1.07,2.12,1.53,3.09-2.36-2.17-6.34-5.68-8.55-6.74h0Zm-1.21-2.62c1.98.9,5.3,3.37,7.72,5.28-.4-.77-.81-1.55-1.21-2.3-1.99-1.55-4.97-3.72-7.48-4.98.28.55.61,1.23.97,2h0Zm-1.33-2.69c2.35,1.08,5.2,3.08,7.32,4.68-.41-.76-.81-1.49-1.18-2.18-2.13-1.6-5.07-3.59-7.58-4.47.43.45.76.88,1.01,1.24.12.17.26.42.43.73h0Zm-2.17-2.67c-.76-.67-1.7-1.32-2.81-1.77,2.75-.33,7,2.04,9.13,3.36.37.66.87,1.56,1.46,2.62-2.33-1.69-5.34-3.59-7.78-4.22h0Zm-3.63-2.06c-.71-.21-1.49-.34-2.31-.34v-.03c.34-.16,2.03-.88,3.89-.72,2,.17,4.19.91,7.34,3.32.19.15.35.23.47.44.03.05.06.1.1.17-2.54-1.5-6.88-3.68-9.49-2.84Z" style="fill: #fff; fill-rule: evenodd; stroke-width: 0px;"/>
        <path d="m52.41,188.72c.01-.74.01-2.09-.11-3.59-.17-2.14-.95-12.47-4.87-18.65v-.43c1.16.09,5.42.29,8.17-1.52,4.24,8.04,11.54,21.71,12.87,24.19h-16.07Z" style="fill: #004ea2; fill-rule: evenodd; stroke-width: 0px;"/>
        <path d="m65.67,188.72h-12.77c.44-13.67-4.65-22.05-4.65-22.05,1.83.01,3.47-.22,4.84-.53,4.44,7.83,11.15,19.99,12.58,22.57Z" style="fill: #ffe100; fill-rule: evenodd; stroke-width: 0px;"/>
        <path d="m53.53,166.04l12.46,22.68h2.48c-1.29-2.41-8.19-15.35-12.48-23.46-.63.25-1.46.53-2.46.78Z" style="fill: #e60012; fill-rule: evenodd; stroke-width: 0px;"/>
        <path d="m64.37,188.72h-.51c-.12-.78-.39-1.71-.96-2.53-1.26-1.79-2.49-1.71-2.49-1.71,0,0,.86.78.76,1.51-.1.73-.69,1.21-1.19,1.2-.49-.02-1.09-1.25-1.09-1.25-.12.43-.66,1-1.22.96-.56-.03-1.33-.6-1.32-1.59.02-1,1.47-1.35,1.47-1.35-1.35-1.45-.29-2.69.29-2.77.58-.08,1.32,1.2,1.32,1.2.37-2.21-.31-3.77-1.24-4.76-.93-.99-2.09-1.06-2.09-1.06,0,0,1.2,1.1.83,2.12-.37,1.02-1.42.71-1.42.71-.79-.19-.97-1.21-.97-1.21,0,0-.54.7-.98.7s-1.48-.35-1.48-1.46,1.29-1.65,1.29-1.65c-1.07-1.77-.16-2.63.69-2.6.85.03,1.2,1.52,1.2,1.52.38-2.53-.23-3.69-1.25-4.74-1.02-1.05-2.14-1-2.14-1,.77.46,1.17,1.28,1.19,1.85.02.56-.47,1.14-1.24,1.13-.77-.02-1.26-1.3-1.26-1.3l-.39.27c-.03-.08-.06-.17-.09-.25-.04-.18-.09-.42-.16-.64-.14-.4-.4-1.07-.4-1.07-.07-.52-.48-1.66-.71-2.28.68-.01,1.33-.06,1.94-.13.15.54.28,1.3.28,1.3.33-.19.43-.86.45-1.39.22-.03.43-.07.64-.11-.07,1.06-.43,1.99-.43,1.99,2.74-.02,3.91,2.45,4.13,3.9.21,1.45-.26,3.65-.26,3.65,4.38.75,4.62,4.26,4.61,5.76-.01,1.5-.78,2.08-.78,2.08,0,0-.28-.07-.68,0-.4.07-.38.57-.16.9.21.33.68.5.82.14.14-.35.56-.92.89-1.02.33-.09.92.14.92.14.73.38,1.5,1.18,2.32,2.46.54.85.79,1.8.89,2.36h0Zm-9.69-11.71c.28,0,.51-.21.51-.48,0-.26-.23-.48-.51-.48s-.5.21-.5.48c0,.26.23.48.5.48h0Zm-4.09-7.42c.29,0,.53-.25.53-.56s-.24-.56-.53-.56-.53.25-.53.56.24.56.53.56Z" style="fill: #231815; fill-rule: evenodd; stroke-width: 0px;"/>
        <path d="m92.41,149.73c-.58-.93-1.4-2.55-1.79-4.73-.57-3.24.62-7.44,2.6-9.48l1.04,1.23c-2.83,2.87-2.95,6.17-2.4,8.7.36,1.67,1.31,3.31,1.95,4.28h-1.4Z" style="fill: #fff; fill-rule: evenodd; stroke-width: 0px;"/>
        <path d="m94.26,136.75l.4.47.95,1.12c-.37.47-.72,1.03-1.03,1.64-1.03,2.08-1.48,4.75-.19,6.68.38.57.9,1.07,1.61,1.47,0,0-.06.08-.81,1.59h-1.37c-.64-.97-1.59-2.61-1.95-4.28-.55-2.52-.43-5.83,2.4-8.7Z" style="fill: #231815; fill-rule: evenodd; stroke-width: 0px;"/>
        <path d="m92.82,135.04c-.35.48-1.61,2.28-2.27,4.16-.76,2.18-1.24,6.99,1.31,10.52h-1.37c-.27-.61-1.15-2.72-1.33-4.38-.21-1.97-.31-6.18,1.46-9.42l1.64-1.54.55.66Z" style="fill: #ffe100; fill-rule: evenodd; stroke-width: 0px;"/>
        <path d="m88.84,136.35c-.21,0-.4-.08-.55-.21,0,.03-.01.05-.02.07.26.15.43.43.43.74,0,.48-.4.87-.9.87s-.9-.39-.9-.87c0-.33.19-.61.47-.76l-.02-.12c-.16.17-.38.29-.6.29-.47,0-.82-.42-.82-.93,0-.51.38-.93.86-.93.44,0,.82.42.86.82.05-.12.04-.33-.03-.64-.1-.44-.39-.84-.39-.84h1.18c-.41.44-.42,1.26-.42,1.36,0,0,0,.03.01.05.09-.4.43-.69.84-.69.47,0,.86.4.86.9,0,.5-.39.9-.86.9h0Zm-1.22,10.23c-.21,0-.4-.08-.55-.21,0,.03-.01.05-.02.07.26.15.43.43.43.74,0,.48-.4.87-.9.87s-.9-.39-.9-.87c0-.33.19-.61.47-.76l-.02-.12c-.16.17-.38.29-.6.29-.47,0-.82-.42-.82-.93,0-.51.38-.93.86-.93.44,0,.82.42.86.82.05-.12.04-.33-.03-.64-.1-.44-.39-.84-.39-.84h1.17c-.41.44-.42,1.26-.42,1.36,0,.01,0,.03.01.05.09-.4.43-.69.84-.69.47,0,.86.4.86.9,0,.5-.39.9-.86.9h0Zm-14.33-5.36c-.21,0-.4-.08-.55-.21,0,.03-.01.05-.02.07.26.15.43.43.43.74,0,.48-.4.87-.9.87s-.9-.39-.9-.87c0-.33.19-.61.47-.76l-.02-.12c-.16.17-.38.29-.6.29-.47,0-.82-.42-.82-.93,0-.51.39-.93.86-.93.44,0,.82.42.86.82.05-.12.04-.33-.03-.64-.1-.44-.39-.84-.39-.84h1.17c-.41.44-.42,1.26-.42,1.36,0,0,0,.03.01.05.09-.4.43-.69.84-.69.47,0,.86.4.86.9,0,.5-.39.9-.86.9h0Zm-4.26,5.24c-.21,0-.4-.08-.55-.21,0,.03-.01.05-.02.07.26.15.43.43.43.74,0,.48-.4.87-.9.87s-.9-.39-.9-.87c0-.33.19-.61.47-.76l-.02-.12c-.16.17-.38.29-.6.29-.47,0-.82-.42-.82-.93s.38-.93.86-.93c.44,0,.82.42.86.82.05-.12.04-.33-.03-.64-.1-.44-.39-.84-.39-.84h1.18c-.41.44-.42,1.26-.42,1.36,0,.01,0,.03,0,.05.09-.4.43-.69.84-.69.47,0,.86.41.86.9,0,.49-.39.9-.86.9h0Zm-8.24.26c-.21,0-.4-.08-.55-.21,0,.03-.01.05-.02.07.26.15.43.43.43.74,0,.48-.4.87-.9.87s-.9-.39-.9-.87c0-.33.19-.61.47-.76l-.02-.12c-.16.17-.38.29-.6.29-.47,0-.82-.42-.82-.93,0-.51.39-.93.86-.93.44,0,.81.42.86.82.05-.12.04-.33-.03-.64-.1-.44-.39-.84-.39-.84h1.17c-.41.44-.42,1.26-.42,1.36,0,.01,0,.03.01.05.09-.4.43-.69.84-.69.47,0,.86.41.86.9,0,.5-.39.9-.86.9Z" style="fill: #fff; fill-rule: evenodd; stroke-width: 0px;"/>
        <path d="m72.97,113.98l-.08-.14-.71.65c.56,1.12,1.92,4.21,2.11,7.82.24,4.56-.67,9.88-4.16,13.62-3.49,3.74-7,5.02-11.38,4.72-4.18-.29-7.26-1.73-9.07-4.6l-.85.81s4.5,4.48,9.24,4.64c4.74.16,10.98-.44,14.86-8,3.88-7.56,2.08-15.52.03-19.52h0Zm-4.31,3.74c2.09,5.64,1.43,9.9-1.63,13.68-3.16,3.91-7.16,3.95-9.55,3.42-1.78-.39-3.51-1.57-4.29-2.15l.66-.64c1.61,1.24,4.7,2.56,7.49,1.89,2.79-.66,6.46-3.48,7.25-7.47.8-3.99-.8-7.94-.8-7.94l.87-.8Z" style="fill: #ffe100; fill-rule: evenodd; stroke-width: 0px;"/>
        <path d="m57.38,128.42l6.66-6.45s.73,3.09-.73,5.11c-1.47,2.03-4.22,2.72-5.92,1.34Z" style="fill: #e60012; fill-rule: evenodd; stroke-width: 0px;"/>
        <path d="m47.83,129.68c-.4,0-.72-.33-.72-.73,0-.4.32-.73.72-.73s.72.33.72.73c0,.4-.33.73-.72.73h0Zm3.58-5.57c-.4,0-.72-.33-.72-.73,0-.4.32-.73.72-.73s.72.33.72.73c0,.4-.33.73-.72.73h0Zm6.16-5.26c-.4,0-.72-.33-.72-.72,0-.4.32-.73.72-.73s.72.33.72.73c0,.4-.32.72-.72.72h0Zm3.07-3.19l-.51,1.4,1.2-.19s.21.77.4.78c.19.01.56-.55,1.14-1.56.58-1.01.69-1.54.69-1.7,0-.16-.73-.12-1.57-.01-.85.11-2.02.59-2.02.59l.68.69h0Zm4.18-.59c-.4,0-.72-.33-.72-.72s.32-.73.72-.73.72.33.72.73c0,.4-.32.72-.72.72h0Zm-11.96,10.92c-.4,0-.72-.33-.72-.73,0-.4.33-.73.72-.73s.72.33.72.73c0,.4-.32.73-.72.73h0Zm1.53-3.18l1.25-.32s.14.78.36.77c.22-.01,1.71-2.26,1.82-3.28,0,0-1.76-.22-3.56.66l.61.69-.48,1.48h0Zm5.02-4.21c-.4,0-.72-.33-.72-.73,0-.4.33-.73.72-.73s.72.33.72.73c0,.4-.32.73-.72.73h0Zm5.8-5.73c-.4,0-.72-.33-.72-.73,0-.4.33-.72.72-.72s.72.33.72.72-.32.73-.72.73h0Zm-16.99,15.04l1.12-.09s.33.78.54.78,1.52-2.12,1.73-3.29c0,0-.89-.24-3.54.61l.61.66-.47,1.34h0Zm5.04-4.05c-.4,0-.72-.33-.72-.72,0-.4.32-.73.72-.73s.72.33.72.73c0,.4-.33.72-.72.72h0Zm5.76-3.08c-.4,0-.72-.33-.72-.73,0-.4.33-.72.72-.72s.72.33.72.72c0,.4-.32.73-.72.73h0Zm4.35-7.6c-.4,0-.72-.33-.72-.72,0-.4.33-.73.72-.73s.72.33.72.73c0,.4-.32.72-.72.72h0Zm-15.95,12.11l17.27-16.22-.77-.81-16.5,15.48v1.54h0Zm0,9.56l21.13-20.07-.66-.86-20.46,19.29v1.64Z" style="fill: #fff; fill-rule: evenodd; stroke-width: 0px;"/>
        <polygon points="64.27 105.59 70.85 114.65 69.91 115.49 63.33 106.38 64.27 105.59" style="fill: #fff; fill-rule: evenodd; stroke-width: 0px;"/>
        <polygon points="47.43 137.33 47.43 135.68 68.74 115.19 69.4 116.03 47.43 137.33" style="fill: #ffe100; fill-rule: evenodd; stroke-width: 0px;"/>
        <polygon points="47.43 122.77 63.35 107.5 62.81 106.77 47.43 121.36 47.43 122.77" style="fill: #e60012; fill-rule: evenodd; stroke-width: 0px;"/>
        <path d="m71.53,130.02l-.7.64s.64-2.36,2.43-3.45c0,0,0,3.88-2.23,4.68,0,0,1.06-2.19,1.11-2.38.04-.19-.11.06-.6.52h0Zm-20.89,5.1l-.29.27c.07.33.3.78,1.07,1.48,1.06.97,2.12,1.52,2.32,1.41.2-.11-.02-.82-.77-2.01-.75-1.19-1.41-1.5-1.41-1.5l-.13.51c.6.7.37,1.19.37,1.19-.24-.46-.81-1.09-1.17-1.36h0Zm12.21,1.61l-.4.84s1.01-.5,1.83-1.53c.83-1.04.22-1.47-.4-1.38-.63.09-3.11,2.69-3.11,2.69l2.08-.61h0Zm6.16-2.42l-1.2.31s1.37-1.91,3.56-2.2c0,0-.64,2.11-1.7,2.95-1.06.84-1.86.51-1.86.51,0,0,.51-.96,1.39-1.38,0,0,.18-.33-.2-.2h0Zm3.36-12.46s.18-2.79-.26-2.95l-.14,1.08s-.24-.75-.24-1.51c0-.75.2-2.3.2-2.3,0,0,1.34,1.51,1.4,2.79.02.45-.32,2.67-.95,2.89h0Zm-1.19-1.28l.74,1.14s.3-2.51-2.25-3.25l.42.91s.02,1.27.55,2.38c.53,1.1,1.32,1.69,1.32,1.69,0,0-.98-2.3-.77-2.87h0Zm.3-5.43l-.3.27c.04.11.07.25.09.4l.08.24s.18-.2.18-.57c0-.1-.02-.23-.06-.35h0Zm-.56.51l-.19.17.22.47s0-.32-.03-.65h0Zm-.44.41l-.19.18.38.49s-.08-.34-.19-.67h0Zm-.46.43l.61,1.38-1.25-.8.63-.58h0Zm2.37,10.39l-.04.38s1-.32,1.47-1.75c.47-1.43-.08-4.42-.08-4.42,0,0-1.99,1.19-1.62,4.83,0,0,.66-1.21.85-1.26,0,0-.21.96-.58,2.23h0Zm-.9.4l.28.21s.11-.81.09-1.94c-.02-1.13-.68-2.68-1.5-2.94l.15,4.95s.58-.08.64-.72c.06-.64.08-2.06.08-2.06,0,0-.04,2.1.26,2.51h0Zm-18.19,8.14c.48.18,1.39.48,1.39.07,0-.4-1.97-.84-1.97-.84.02-.37,1.19-.38,1.9-.29.71.09,1.84.68,1.75,1.1-.09.42-.99.66-2.01.57-1.02-.09-1.37-.68-1.37-.68l.31.07h0Zm2.52,1.93l-.31-.06s.68,1.17.52,1.32c-.17.15-1.14-1.4-1.43-1.32-.29.08-.43.38.46,1.23.89.86,1.84,1.44,3.11,1.34,0,0,.39-1.63-2.34-2.51h0Zm13.72-6.91l-.25,2.06s.64-.58,1.02-2c.38-1.41-.32-2.9-.32-2.9,0,0-1.28,2.34-1.57,3.07-.3.73.04,2.19.04,2.19,0,0,.94-2.25,1.08-2.42h0Zm-3.04,4.04c-.35.02-1.53,1.38-1.53,1.38,1.04-3.4,2.7-3.42,2.7-3.42.29.69-.13,1.78-.13,1.78-.73,1.36-1.53,1.67-1.53,1.67l.49-1.4h0Zm-9.19,3.08l-.29-.13s.68-.27.66-.5c-.02-.23-.87-.13-1.14-.13s-.19-.38.48-.69c.66-.31,3.6.15,3.83.27.23.12-1.18,1.82-3.54,1.17h0Zm4.07.61l-1.95.16s1.3.52,1.25.84c-.04.32-1.21-.07-2.04-.36,0,0,.51.79,1.61,1.06,1.1.27,2.93-.25,3.16-.61,0,0-.81-1.06-2.04-1.08h0Zm3.33-1.07l-.18-.12s1.26-.4,2.23-.5c.97-.1,1.74.34,1.74.34,0,0-1.84,2.59-5.15,1.56,0,0-.02-.2,1.01-.48,1.03-.28,1.66-.38,1.66-.38,0,0-.67-.24-1.3-.44Z" style="fill: #ffe100; fill-rule: evenodd; stroke-width: 0px;"/>
        <path d="m53.52,111.08l-.12.02s-.79-.34-.84-.52c-.05-.17.17-.6.58-.79.41-.19.67.17.67.5s-.05.65-.29.79h0Zm0-3.27l.23-.08s.61-.02.7.31c.09.32.06,1.16-.42,1.26-.48.09-1.01-.55-1.03-.94-.02-.38.28-.4.51-.55h0Zm-.42,7.85l6.31-5.9s-1.28-2.14-2.81-3.63c-1.53-1.49-2.11-1.85-2.42-1.85s-.68.55-.57,1.43c.1.89.91,1.7,2.47,3.11,0,0,0,1.43-.13,1.98-.13.55-.13.94-.08,1.07.05.13.08.18-.21.18s-.13-.1-.13-.1c0,0,.13-.65.13-1.2v-1.67s-.73-.84-.73-.84c0,0,.03,1.28-1.09,1.41,0,0,.31.37.29.84-.03.47-.26.84-.6.84s-.42.02-.42.02c0,0,.31.29.24.8-.06.5-.88.93-.88.93,0,0,.42.31.31.77-.11.46-.8.75-.8.75l1.1,1.08h0Zm1.96-9.45s-.48-.44-1.08-.63c-.11-.03-.22-.07-.15-.29.07-.22.18-.19.29-.15.69.22,1.24.73,1.24.73.09.08.17.15.02.33-.15.17-.24.1-.32.02h0Zm-2.24,1.56c.59-.44,1.16-.48,1.16-.48-1.1-1.41-.82-2.82-.82-2.82-.91.04-1.56.71-1.41,1.49.15.78.97,1.94.97,1.94l.1-.13h0Zm-1.45,5.74l.07-.14s.21-.14.57-.14.43.31.38.57c-.05.26-.31.41-.67.4-.36-.02-.36-.36-.34-.69h0Zm.14-.64l.22-.16s-.98-.83-1.36-1.57c0,0-.17,1.08-.07,1.55.1.46.58.69.58.69,0,0,.03-.15.62-.52h0Zm.94-.22h-.14s-.58-.34-.6-.53c-.02-.19.26-.58.72-.69.46-.1.5.28.5.52s-.22.64-.48.71h0Zm.48-3.54c-.65-.93-1.52-2.99-1.52-2.99-.87.65-1.14,1.56-.78,2.42.36.86,1.48,1.73,1.48,1.73.15-.44.99-.97.99-.97l-.17-.19h0Zm-.9,1.65l.26.21s-.68.27-.96.89c0,0-.95-.99-1.08-1.76-.13-.77.2-1.19.2-1.19,0,0,.88,1.26,1.58,1.86h0Zm.97,5.27l-1.96,1.74s.82-1.22.8-2.8l1.16,1.06Z" style="fill: #fff; fill-rule: evenodd; stroke-width: 0px;"/>
        <path d="m61.71,103.11l.68.1s-1.52,1.16-2.46,1.73c-.8.49-1.99.79-3.33.76-.06-.11-.14-.25-.24-.39,1.41-.69,3-1.11,3.51-1.13.63-.03.6-.37.42-.34-.18.03-1.26.05-2.3.47-.58.23-1.3.51-1.83.72-.1-.13-.21-.26-.34-.38.39-.28.91-.67,1.44-1.04,1-.71,2.93-.37,4.45-.5h0Zm-6.13,1.32c.31-1.02,1.17-3.83,1.36-3.87.24-.05,1.34-.24,1.41-1.26.08-1.03-.16-1.56-.16-1.56l-.91.95-1.75-2.02,1.93-2.07.77.92s.19-1.05.17-1.63c-.02-.59-.3-1.2-1.09-1.17-.78.03-1.16.84-1.16,1.33s.18,1.48.18,1.48c0,0-.08.18-.68.03-.61-.15-1.47-.38-1.69.71-.23,1.1.68,1.55,1.04,1.55h1.01s.2-.03.13.26c-.08.28-.38.99.23,2.17,0,0-1.17,2.52-1.59,3.77.05.01.09.02.14.04.25.08.48.22.69.39h0Zm3.64-7.77l-.87-.97c.26-.25.65-.38,1.32-.35.67.03,1.12.46,1.08,1.31-.04.85-.53,1.41-1.05,1.41s-1.28-.63-1.28-.63l.8-.78h0Zm-1.8-1.5l1.34,1.52-1.46,1.47-1.3-1.47,1.41-1.52h0Zm-3.13,8.8c-.35.01-.68.11-.96.23-.6-.29-1.58-.78-1.91-1.06-.49-.41-1.64-1.01-1.64-2.36v-2.13s.16.1.92.73c.76.64,1.54.96,2.73,2.07,1.18,1.11.94,2.04.94,2.04v.12c-1.62-1.02-3.36-2.98-3.36-2.98l-.26.31c.1.36,1.96,1.82,2.63,2.36.43.34.74.57.91.68h0Zm-4.18,13.19l.05.16s.39.09.78-.25c.39-.35.44-.85.36-1.03-.08-.17-1.13.16-1.19,1.12h0Zm-.08-.73s.33-2.28.49-2.45c.16-.17.94.74,1.02,1.06.08.32-.14.55-.39.6-.44.08-.77.52-1.11.79Z" style="fill: #ffe100; fill-rule: evenodd; stroke-width: 0px;"/>
      </g>
    </g>
    <path d="m141.47,182.29c-4.12,0-7.49-3.11-7.49-6.93,0-2.68,1.66-5.01,4.08-6.16-.17-.23-.32-.49-.46-.76-1.24,1.12-2.86,1.8-4.62,1.8-3.88,0-7.05-3.29-7.05-7.32,0-4.03,3.17-7.32,7.05-7.32,3.32,0,6.12,2.41,6.86,5.64.13-.05.26-.1.4-.14.01-1.76-.17-8.8-3.61-11.98h9.34c-3.45,3.19-3.62,10.27-3.61,12,.13.04.27.09.4.15.77-3.17,3.55-5.52,6.83-5.52,3.88,0,7.05,3.29,7.05,7.32,0,4.03-3.17,7.32-7.05,7.32-1.8,0-3.45-.71-4.7-1.87-.1.19-.21.37-.32.54,2.59,1.1,4.39,3.51,4.39,6.31,0,3.82-3.36,6.93-7.49,6.93Z" style="fill: #231815; fill-rule: evenodd; stroke-width: 0px;"/>
    <path d="m140.55,243c-6.94,0-12.62-5.68-12.62-12.62v-25.61c0-1.53.28-3,.78-4.36-.85-.61-1.74-.87-2.86-.81l-.26-5.61c2.8-.14,4.67.37,6.34,1.6,2.26-2.13,5.3-3.44,8.63-3.44,6.94,0,12.62,5.68,12.62,12.62v7.52c2.02.17,3.41.05,3.42.05l.4,5.61s-1.53.14-3.82-.04v12.46c0,6.94-5.68,12.62-12.62,12.62h0Zm0-5.61c3.86,0,7.01-3.16,7.01-7.01v-13.41c-3.88-1.05-8.2-3.13-11.34-7.19-1.15-1.49-1.98-2.6-2.68-3.56v24.16c0,3.85,3.16,7.01,7.01,7.01h0Zm7.01-26.26v-6.35c0-3.85-3.16-7.01-7.01-7.01-1.87,0-3.57.74-4.83,1.94.53.7,1.08,1.46,1.69,2.3,1.02,1.4,2.19,3.01,3.24,4.36,1.88,2.43,4.42,3.9,6.91,4.77Z" style="fill: #231815; stroke-width: 0px;"/>
    <path d="m47.11,62.82c0-1.61,1.08-2.93,2.39-2.93h64.57c1.32,0,2.39,1.32,2.39,2.93v122.97c0,1.61-1.08,2.93-2.39,2.93H49.5c-1.32,0-2.39-1.32-2.39-2.93V62.82Z" style="fill: none; fill-rule: evenodd; stroke: #231815; stroke-miterlimit: 22.93; stroke-width: 1.5px;"/>
    <path d="m22.3,67.99c4.12,0,7.49,3.11,7.49,6.93,0,2.68-1.66,5.01-4.08,6.16.17.23.32.49.46.76,1.24-1.12,2.86-1.8,4.62-1.8,3.88,0,7.05,3.29,7.05,7.32,0,4.03-3.17,7.32-7.05,7.32-3.32,0-6.12-2.41-6.86-5.64-.13.05-.26.1-.4.14-.01,1.76.17,8.8,3.61,11.98h-9.34c3.45-3.19,3.62-10.27,3.61-12-.13-.04-.27-.09-.4-.15-.77,3.17-3.55,5.52-6.83,5.52-3.88,0-7.05-3.29-7.05-7.32,0-4.03,3.17-7.32,7.05-7.32,1.8,0,3.45.71,4.7,1.87.1-.19.21-.37.32-.54-2.59-1.1-4.39-3.51-4.39-6.31,0-3.82,3.36-6.93,7.49-6.93Z" style="fill: #231815; fill-rule: evenodd; stroke-width: 0px;"/>
    <path d="m23.22,7.29c6.94,0,12.62,5.68,12.62,12.62v25.61c0,1.53-.28,3-.78,4.36.85.61,1.74.87,2.86.81l.26,5.61c-2.8.14-4.67-.37-6.34-1.6-2.26,2.13-5.3,3.44-8.63,3.44-6.94,0-12.62-5.68-12.62-12.62v-7.52c-2.02-.17-3.41-.05-3.42-.05l-.4-5.61s1.53-.14,3.82.04v-12.46c0-6.94,5.68-12.62,12.62-12.62h0Zm0,5.61c-3.86,0-7.01,3.16-7.01,7.01v13.41c3.88,1.05,8.2,3.13,11.34,7.19,1.15,1.49,1.98,2.6,2.68,3.56v-24.16c0-3.85-3.16-7.01-7.01-7.01h0Zm-7.01,26.26v6.35c0,3.85,3.16,7.01,7.01,7.01,1.87,0,3.57-.74,4.83-1.94-.53-.7-1.08-1.46-1.69-2.3-1.02-1.4-2.19-3.01-3.24-4.36-1.88-2.43-4.42-3.9-6.91-4.77Z" style="fill: #231815; stroke-width: 0px;"/>
  </g>
</svg>