<?xml version="1.0" encoding="UTF-8"?>
<svg id="_图层_2" data-name="图层 2" xmlns="http://www.w3.org/2000/svg" viewBox="0 0 163.57 248.61">
  <g id="_图层_1-2" data-name="图层 1">
    <path d="m1,6.6c0-3.08,2.51-5.6,5.57-5.6h150.43c3.06,0,5.57,2.52,5.57,5.6v235.41c0,3.08-2.51,5.6-5.57,5.6H6.57c-3.06,0-5.57-2.52-5.57-5.6V6.6Z" style="fill: #fff; fill-rule: evenodd; stroke: #231815; stroke-miterlimit: 22.93; stroke-width: 2px;"/>
    <path d="m154.74,227.19c1.58,6.07-.56,10.49-4.28,13.13-2.3,1.63-5.19,2.53-8.12,2.66-2.89.13-5.88-.47-8.43-1.82-4.45-2.36-7.55-6.86-6.66-13.54.88-6.6,4.96-9.56,10.56-13.61,0,0,0,0,0,0t0,0s0,0,0,0h0s0-.01.01-.01c.08-.06.35-.26,1.05-.77,2.74-1.99,5.86-5.5,8.16-9.32,1.27-2.12,2.27-4.31,2.77-6.32h-17.44s0,6.7,0,6.7h-5.61v-12.32h28.94s.06,2.75.06,2.75c.08,3.77-1.54,8.08-3.92,12.05-2.68,4.46-6.38,8.6-9.67,10.99-1.13.82-.01,0-1.08.77-4.48,3.24-7.75,5.6-8.31,9.81-.52,3.93,1.21,6.53,3.72,7.86,1.64.87,3.62,1.26,5.58,1.17,1.91-.09,3.73-.63,5.11-1.61,1.92-1.37,3-3.75,2.11-7.17l5.42-1.4Z" style="fill: #231815; stroke-width: 0px;"/>
    <path d="m141.47,182.29c-4.12,0-7.49-3.11-7.49-6.93,0-2.68,1.66-5.01,4.08-6.16-.17-.23-.32-.49-.46-.76-1.24,1.12-2.86,1.8-4.62,1.8-3.88,0-7.05-3.29-7.05-7.32,0-4.03,3.17-7.32,7.05-7.32,3.32,0,6.12,2.41,6.86,5.64.13-.06.26-.1.4-.14,0-1.76-.17-8.8-3.61-11.98h9.34c-3.45,3.19-3.62,10.27-3.61,12,.14.04.27.09.4.15.77-3.17,3.55-5.53,6.83-5.53,3.88,0,7.05,3.29,7.05,7.32,0,4.03-3.17,7.32-7.05,7.32-1.8,0-3.45-.71-4.7-1.87-.1.19-.2.37-.32.54,2.59,1.09,4.39,3.51,4.39,6.31,0,3.82-3.36,6.93-7.49,6.93Z" style="fill: #231815; fill-rule: evenodd; stroke-width: 0px;"/>
    <path d="m81.67,77.16c2.64,0,4.8,2,4.8,4.44,0,1.72-1.06,3.21-2.61,3.95.11.15.21.31.29.48.79-.72,1.83-1.15,2.96-1.15,2.49,0,4.52,2.11,4.52,4.69s-2.03,4.69-4.52,4.69c-2.13,0-3.92-1.54-4.39-3.61-.08.04-.17.07-.26.09,0,1.13.11,5.64,2.31,7.67h-5.98c2.21-2.05,2.32-6.58,2.31-7.69-.09-.03-.17-.06-.25-.1-.5,2.03-2.27,3.54-4.38,3.54-2.49,0-4.52-2.11-4.52-4.69,0-2.58,2.03-4.69,4.52-4.69,1.15,0,2.21.45,3.01,1.2.06-.12.13-.24.21-.35-1.66-.7-2.81-2.25-2.81-4.04,0-2.45,2.16-4.44,4.8-4.44h0Zm.24,94.29c-2.64,0-4.8-2-4.8-4.44,0-1.72,1.06-3.21,2.61-3.95-.11-.15-.21-.31-.29-.48-.79.72-1.83,1.15-2.96,1.15-2.49,0-4.52-2.11-4.52-4.69s2.03-4.69,4.52-4.69c2.13,0,3.92,1.55,4.39,3.61.08-.04.17-.07.26-.09,0-1.13-.11-5.64-2.31-7.67h5.98c-2.21,2.05-2.32,6.58-2.31,7.69.09.03.17.06.25.1.5-2.03,2.27-3.54,4.38-3.54,2.49,0,4.52,2.11,4.52,4.69,0,2.58-2.03,4.69-4.52,4.69-1.15,0-2.21-.45-3.01-1.2-.06.12-.13.24-.21.35,1.66.7,2.81,2.25,2.81,4.04,0,2.45-2.16,4.44-4.8,4.44Z" style="fill: #231815; fill-rule: evenodd; stroke-width: 0px;"/>
    <path d="m47.11,62.82c0-1.61,1.08-2.93,2.39-2.93h64.57c1.32,0,2.39,1.32,2.39,2.93v122.97c0,1.61-1.08,2.93-2.39,2.93H49.5c-1.32,0-2.39-1.32-2.39-2.93V62.82Z" style="fill: none; fill-rule: evenodd; stroke: #231815; stroke-miterlimit: 22.93; stroke-width: 1.5px;"/>
    <path d="m9.03,23.1c-1.58-6.07.56-10.49,4.28-13.13,2.3-1.63,5.19-2.53,8.12-2.66,2.89-.13,5.88.47,8.43,1.82,4.45,2.36,7.55,6.86,6.66,13.54-.88,6.6-4.96,9.56-10.56,13.61,0,0,0,0,0,0t0,0s0,0,0,0h0s0,.01-.01.01c-.08.06-.35.26-1.05.77-2.74,1.99-5.86,5.5-8.16,9.32-1.27,2.12-2.27,4.31-2.77,6.32h17.44s0-6.7,0-6.7h5.61v12.32H8.04s-.06-2.75-.06-2.75c-.08-3.77,1.54-8.08,3.92-12.05,2.68-4.46,6.38-8.6,9.67-10.99,1.13-.82.01,0,1.08-.77,4.48-3.24,7.75-5.6,8.31-9.81.52-3.93-1.21-6.53-3.72-7.86-1.64-.87-3.62-1.26-5.58-1.17-1.91.09-3.73.63-5.11,1.61-1.92,1.37-3,3.75-2.11,7.17l-5.42,1.4Z" style="fill: #231815; stroke-width: 0px;"/>
    <path d="m22.3,67.99c4.12,0,7.49,3.11,7.49,6.93,0,2.68-1.66,5.01-4.08,6.16.17.23.32.49.46.76,1.24-1.12,2.86-1.8,4.62-1.8,3.88,0,7.05,3.29,7.05,7.32,0,4.03-3.17,7.32-7.05,7.32-3.32,0-6.12-2.41-6.86-5.64-.13.06-.26.1-.4.14,0,1.76.17,8.8,3.61,11.98h-9.34c3.45-3.19,3.62-10.27,3.61-12-.14-.04-.27-.09-.4-.15-.77,3.17-3.55,5.53-6.83,5.53-3.88,0-7.05-3.29-7.05-7.32,0-4.03,3.17-7.32,7.05-7.32,1.8,0,3.45.71,4.7,1.87.1-.19.2-.37.32-.54-2.59-1.09-4.39-3.51-4.39-6.31,0-3.82,3.36-6.93,7.49-6.93Z" style="fill: #231815; fill-rule: evenodd; stroke-width: 0px;"/>
  </g>
</svg>