<?xml version="1.0" encoding="UTF-8"?>
<svg id="_图层_2" data-name="图层 2" xmlns="http://www.w3.org/2000/svg" viewBox="0 0 163.58 248.61">
  <g id="_图层_1-2" data-name="图层 1">
    <path d="m1,6.6c0-3.08,2.51-5.6,5.57-5.6h150.43c3.06,0,5.57,2.52,5.57,5.6v235.41c0,3.08-2.51,5.6-5.57,5.6H6.57c-3.06,0-5.57-2.52-5.57-5.6V6.6Z" style="fill: #fff; fill-rule: evenodd; stroke: #231815; stroke-miterlimit: 22.93; stroke-width: 2px;"/>
    <path d="m126.96,243v-5.86s11.17-10.2,11.17-10.2c-.96-.15-1.9-.4-2.8-.73-2.36-.87-4.51-2.35-6.23-4.33-1.96-2.25-3.38-5.14-3.98-8.54-1.06-6.03,1.13-11.46,4.89-15.2,1.95-1.94,4.34-3.42,6.92-4.29,2.61-.88,5.43-1.14,8.2-.61,4.86.93,9.52,4.22,12.61,10.69l-5.06,2.41c-2.22-4.65-5.38-6.98-8.6-7.59-1.8-.34-3.65-.17-5.37.41-1.76.59-3.4,1.62-4.75,2.96-2.54,2.53-4.03,6.2-3.31,10.27.41,2.34,1.37,4.31,2.68,5.82,1.11,1.27,2.46,2.21,3.93,2.75,1.46.54,3.05.7,4.65.42,1.73-.3,3.48-1.13,5.12-2.55l3.73,4.19-.05.04h0s-.06.05-.09.08l-15.61,14.26h16.1s0-6.84,0-6.84h5.61v12.45h-29.75Z" style="fill: #231815; stroke-width: 0px;"/>
    <path d="m141.47,182.29c-4.12,0-7.49-3.11-7.49-6.93,0-2.68,1.66-5.01,4.08-6.16-.17-.23-.32-.49-.46-.76-1.24,1.12-2.86,1.8-4.62,1.8-3.88,0-7.05-3.29-7.05-7.32s3.17-7.32,7.05-7.32c3.32,0,6.12,2.41,6.86,5.64.13-.06.26-.1.4-.14.01-1.76-.17-8.8-3.61-11.98h9.34c-3.45,3.19-3.62,10.27-3.61,12,.13.04.27.09.4.15.77-3.17,3.55-5.53,6.83-5.53,3.88,0,7.05,3.29,7.05,7.32,0,4.03-3.17,7.32-7.05,7.32-1.8,0-3.45-.71-4.7-1.87-.1.19-.21.37-.32.54,2.59,1.09,4.39,3.51,4.39,6.31,0,3.82-3.36,6.93-7.49,6.93Z" style="fill: #231815; fill-rule: evenodd; stroke-width: 0px;"/>
    <path d="m81.91,171.45c-2.64,0-4.8-2-4.8-4.44,0-1.72,1.06-3.21,2.61-3.95-.11-.15-.21-.31-.29-.48-.79.72-1.83,1.15-2.96,1.15-2.49,0-4.52-2.11-4.52-4.69s2.03-4.69,4.52-4.69c2.13,0,3.92,1.55,4.4,3.61.08-.04.17-.07.26-.09,0-1.13-.11-5.64-2.31-7.67h5.98c-2.21,2.05-2.32,6.58-2.31,7.69.09.03.17.06.25.1.5-2.03,2.27-3.54,4.38-3.54,2.49,0,4.52,2.11,4.52,4.69s-2.03,4.69-4.52,4.69c-1.15,0-2.21-.45-3.01-1.2-.06.12-.13.24-.21.35,1.66.7,2.81,2.25,2.81,4.04,0,2.45-2.16,4.44-4.8,4.44h0Zm-.24-94.29c2.64,0,4.8,2,4.8,4.44,0,1.72-1.06,3.21-2.61,3.95.11.15.21.31.29.48.79-.72,1.83-1.15,2.96-1.15,2.49,0,4.52,2.11,4.52,4.69s-2.03,4.69-4.52,4.69c-2.13,0-3.92-1.54-4.4-3.61-.08.04-.17.07-.26.09,0,1.13.11,5.64,2.31,7.67h-5.98c2.21-2.05,2.32-6.58,2.31-7.69-.09-.03-.17-.06-.25-.1-.5,2.03-2.27,3.54-4.38,3.54-2.49,0-4.52-2.11-4.52-4.69s2.03-4.69,4.52-4.69c1.15,0,2.21.45,3.01,1.2.06-.12.13-.24.21-.35-1.66-.7-2.81-2.25-2.81-4.04,0-2.45,2.16-4.44,4.8-4.44h0Zm0,36.52c2.64,0,4.8,1.99,4.8,4.44,0,1.72-1.06,3.21-2.61,3.95.11.15.21.31.29.48.79-.72,1.83-1.15,2.96-1.15,2.49,0,4.52,2.11,4.52,4.69,0,2.58-2.03,4.69-4.52,4.69-2.13,0-3.92-1.55-4.4-3.61-.08.04-.17.07-.26.09,0,1.13.11,5.64,2.31,7.67h-5.98c2.21-2.05,2.32-6.58,2.31-7.69-.09-.03-.17-.06-.25-.1-.5,2.03-2.27,3.54-4.38,3.54-2.49,0-4.52-2.11-4.52-4.69s2.03-4.69,4.52-4.69c1.15,0,2.21.45,3.01,1.2.06-.12.13-.24.21-.35-1.66-.7-2.81-2.25-2.81-4.04,0-2.45,2.16-4.44,4.8-4.44Z" style="fill: #231815; fill-rule: evenodd; stroke-width: 0px;"/>
    <path d="m47.11,62.82c0-1.61,1.08-2.93,2.39-2.93h64.57c1.32,0,2.39,1.32,2.39,2.93v122.97c0,1.61-1.08,2.93-2.39,2.93H49.5c-1.32,0-2.39-1.32-2.39-2.93V62.82Z" style="fill: none; fill-rule: evenodd; stroke: #231815; stroke-miterlimit: 22.93; stroke-width: 1.5px;"/>
    <path d="m36.81,7.28v5.86s-11.17,10.2-11.17,10.2c.96.15,1.9.4,2.8.73,2.36.87,4.51,2.35,6.23,4.33,1.96,2.25,3.38,5.14,3.98,8.54,1.06,6.03-1.13,11.46-4.89,15.2-1.95,1.94-4.34,3.42-6.92,4.29-2.61.88-5.43,1.14-8.2.61-4.86-.93-9.52-4.22-12.61-10.69l5.06-2.41c2.22,4.65,5.38,6.98,8.6,7.59,1.8.34,3.65.17,5.37-.41,1.76-.59,3.4-1.62,4.75-2.96,2.54-2.53,4.03-6.2,3.31-10.27-.41-2.34-1.37-4.31-2.68-5.82-1.11-1.27-2.46-2.21-3.93-2.75-1.46-.54-3.05-.7-4.65-.42-1.73.3-3.48,1.13-5.12,2.55l-3.73-4.19.05-.04h0s.06-.05.09-.08l15.61-14.26H12.67s0,6.84,0,6.84h-5.61V7.28h29.75Z" style="fill: #231815; stroke-width: 0px;"/>
    <path d="m22.3,67.99c4.12,0,7.49,3.11,7.49,6.93,0,2.68-1.66,5.01-4.08,6.16.17.23.32.49.46.76,1.24-1.12,2.86-1.8,4.62-1.8,3.88,0,7.05,3.29,7.05,7.32,0,4.03-3.17,7.32-7.05,7.32-3.32,0-6.12-2.41-6.86-5.64-.13.06-.26.1-.4.14-.01,1.76.17,8.8,3.61,11.98h-9.34c3.45-3.19,3.62-10.27,3.61-12-.13-.04-.27-.09-.4-.15-.77,3.17-3.55,5.53-6.83,5.53-3.88,0-7.05-3.29-7.05-7.32,0-4.03,3.17-7.32,7.05-7.32,1.8,0,3.45.71,4.7,1.87.1-.19.21-.37.32-.54-2.59-1.09-4.39-3.51-4.39-6.31,0-3.82,3.36-6.93,7.49-6.93Z" style="fill: #231815; fill-rule: evenodd; stroke-width: 0px;"/>
  </g>
</svg>