<?xml version="1.0" encoding="UTF-8"?>
<svg id="_图层_2" data-name="图层 2" xmlns="http://www.w3.org/2000/svg" viewBox="0 0 163.57 248.61">
  <g id="_图层_1-2" data-name="图层 1">
    <path d="m1,6.6c0-3.08,2.51-5.6,5.57-5.6h150.43c3.06,0,5.57,2.52,5.57,5.6v235.41c0,3.08-2.51,5.6-5.57,5.6H6.57c-3.06,0-5.57-2.52-5.57-5.6V6.6Z" style="fill: #fff; fill-rule: evenodd; stroke: #231815; stroke-miterlimit: 22.93; stroke-width: 2px;"/>
    <g>
      <path d="m129.89,237.39h19.16s.16-9.37.16-9.37c-2.91,1.04-6.99,1.83-11.57.7-.92-.23-1.79-.54-2.59-.92-4.15-1.97-6.86-5.81-8.23-10.27-1.3-4.23-1.39-9.06-.35-13.29.34-1.39.81-2.72,1.39-3.95,2-4.22,5.31-6.95,9.01-8.2,1.86-.63,3.8-.88,5.7-.76,1.91.12,3.82.61,5.62,1.46,3.75,1.78,6.95,5.13,8.6,10.03l-5.31,1.78c-1.12-3.33-3.24-5.58-5.69-6.74-1.12-.53-2.33-.84-3.56-.92-1.24-.08-2.46.08-3.6.46-2.33.78-4.42,2.54-5.73,5.29-.43.89-.76,1.87-1.02,2.9-.81,3.28-.74,7.03.27,10.3.94,3.05,2.68,5.63,5.26,6.85.48.23,1,.41,1.54.55,6.63,1.63,10.39-1.12,14.58-4.7l1.77,1.11-.71,20.55-.05,2.76h-24.68v-5.61Z" style="fill: #231815; stroke-width: 0px;"/>
      <path d="m141.47,182.3c-4.12,0-7.49-3.11-7.49-6.93,0-2.68,1.66-5.01,4.07-6.17-.17-.23-.32-.49-.46-.75-1.24,1.12-2.86,1.8-4.62,1.8-3.88,0-7.05-3.29-7.05-7.32s3.17-7.32,7.05-7.32c3.33,0,6.12,2.41,6.86,5.64.13-.05.26-.1.4-.14,0-1.76-.17-8.8-3.61-11.98h9.34c-3.45,3.19-3.62,10.27-3.61,12,.14.04.27.09.4.15.78-3.17,3.55-5.53,6.83-5.53,3.88,0,7.05,3.29,7.05,7.32s-3.17,7.32-7.05,7.32c-1.8,0-3.45-.71-4.7-1.87-.1.19-.2.37-.32.54,2.59,1.09,4.39,3.51,4.39,6.31,0,3.82-3.36,6.93-7.49,6.93Z" style="fill: #231815; fill-rule: evenodd; stroke-width: 0px;"/>
    </g>
    <path d="m81.67,113.68c2.64,0,4.8,2,4.8,4.44,0,1.72-1.06,3.21-2.61,3.95.11.15.21.31.29.48.79-.72,1.83-1.15,2.96-1.15,2.49,0,4.52,2.11,4.52,4.69s-2.03,4.69-4.52,4.69c-2.13,0-3.92-1.54-4.4-3.61-.08.04-.17.07-.26.09,0,1.13.11,5.64,2.31,7.67h-5.98c2.21-2.05,2.32-6.58,2.31-7.69-.09-.03-.17-.06-.25-.1-.5,2.03-2.27,3.54-4.38,3.54-2.49,0-4.52-2.11-4.52-4.69s2.03-4.69,4.52-4.69c1.15,0,2.21.45,3.01,1.2.06-.12.13-.24.21-.35-1.66-.7-2.81-2.25-2.81-4.04,0-2.45,2.16-4.44,4.8-4.44h0Zm-16.03,58.01c-2.64,0-4.8-2-4.8-4.44,0-1.72,1.06-3.21,2.61-3.95-.11-.15-.21-.31-.29-.48-.79.72-1.83,1.15-2.96,1.15-2.49,0-4.52-2.11-4.52-4.69s2.03-4.69,4.52-4.69c2.13,0,3.92,1.54,4.4,3.61.08-.04.17-.07.26-.09,0-1.13-.11-5.64-2.31-7.67h5.98c-2.21,2.05-2.32,6.58-2.31,7.69.09.03.17.06.25.1.5-2.03,2.27-3.54,4.38-3.54,2.49,0,4.52,2.11,4.52,4.69s-2.03,4.69-4.52,4.69c-1.15,0-2.21-.45-3.01-1.2-.06.12-.13.24-.21.35,1.66.7,2.81,2.25,2.81,4.04,0,2.45-2.16,4.44-4.8,4.44h0Zm32.55,0c-2.64,0-4.8-2-4.8-4.44,0-1.72,1.06-3.21,2.61-3.95-.11-.15-.21-.31-.29-.48-.79.72-1.83,1.15-2.96,1.15-2.49,0-4.52-2.11-4.52-4.69s2.03-4.69,4.52-4.69c2.13,0,3.92,1.54,4.4,3.61.08-.04.17-.07.25-.09,0-1.13-.11-5.64-2.31-7.67h5.98c-2.21,2.05-2.32,6.58-2.31,7.69.09.03.17.06.25.1.5-2.03,2.27-3.54,4.38-3.54,2.49,0,4.52,2.11,4.52,4.69s-2.03,4.69-4.52,4.69c-1.15,0-2.21-.45-3.01-1.2-.06.12-.13.24-.21.35,1.66.7,2.82,2.25,2.82,4.04,0,2.45-2.16,4.44-4.8,4.44h0Zm-.24-94.77c2.64,0,4.8,2,4.8,4.44,0,1.72-1.06,3.21-2.61,3.95.11.15.21.31.29.48.79-.72,1.83-1.15,2.96-1.15,2.49,0,4.52,2.11,4.52,4.69s-2.03,4.69-4.52,4.69c-2.13,0-3.92-1.55-4.4-3.61-.08.04-.17.07-.26.09,0,1.13.11,5.64,2.31,7.67h-5.98c2.21-2.05,2.32-6.58,2.31-7.69-.09-.03-.17-.06-.25-.1-.5,2.03-2.27,3.54-4.38,3.54-2.49,0-4.52-2.11-4.52-4.69s2.03-4.69,4.52-4.69c1.15,0,2.21.45,3.01,1.2.06-.12.13-.24.21-.35-1.66-.7-2.82-2.25-2.82-4.04,0-2.45,2.16-4.44,4.8-4.44h0Zm-32.55,0c2.64,0,4.8,2,4.8,4.44,0,1.72-1.06,3.21-2.61,3.95.11.15.21.31.29.48.79-.72,1.83-1.15,2.96-1.15,2.49,0,4.52,2.11,4.52,4.69s-2.03,4.69-4.52,4.69c-2.13,0-3.92-1.55-4.39-3.61-.08.04-.17.07-.26.09,0,1.13.11,5.64,2.31,7.67h-5.98c2.21-2.05,2.32-6.58,2.31-7.69-.09-.03-.17-.06-.25-.1-.5,2.03-2.27,3.54-4.38,3.54-2.49,0-4.52-2.11-4.52-4.69s2.03-4.69,4.52-4.69c1.15,0,2.21.45,3.01,1.2.06-.12.13-.24.21-.35-1.66-.7-2.81-2.25-2.81-4.04,0-2.45,2.16-4.44,4.8-4.44Z" style="fill: #231815; fill-rule: evenodd; stroke-width: 0px;"/>
    <path d="m47.11,62.82c0-1.61,1.08-2.93,2.39-2.93h64.57c1.32,0,2.39,1.32,2.39,2.93v122.97c0,1.61-1.08,2.93-2.39,2.93H49.5c-1.32,0-2.39-1.32-2.39-2.93V62.82Z" style="fill: none; fill-rule: evenodd; stroke: #231815; stroke-miterlimit: 22.93; stroke-width: 1.5px;"/>
    <g>
      <path d="m33.88,12.9H14.71s-.16,9.37-.16,9.37c2.91-1.04,6.99-1.83,11.57-.7.92.23,1.79.54,2.59.92,4.15,1.97,6.86,5.81,8.23,10.27,1.3,4.23,1.39,9.06.35,13.29-.34,1.39-.81,2.72-1.39,3.95-2,4.22-5.31,6.95-9.01,8.2-1.86.63-3.8.88-5.7.76-1.91-.12-3.82-.61-5.62-1.46-3.75-1.78-6.95-5.13-8.6-10.03l5.31-1.78c1.12,3.33,3.24,5.58,5.69,6.74,1.12.53,2.33.84,3.56.92,1.24.08,2.46-.08,3.6-.46,2.33-.78,4.42-2.54,5.73-5.29.43-.89.76-1.87,1.02-2.9.81-3.28.74-7.03-.27-10.3-.94-3.05-2.68-5.63-5.26-6.85-.48-.23-1-.41-1.54-.55-6.63-1.63-10.39,1.12-14.58,4.7l-1.77-1.11.71-20.55.05-2.76h24.68v5.61Z" style="fill: #231815; stroke-width: 0px;"/>
      <path d="m22.3,67.99c4.12,0,7.49,3.11,7.49,6.93,0,2.68-1.66,5.01-4.07,6.17.17.23.32.49.46.75,1.24-1.12,2.86-1.8,4.62-1.8,3.88,0,7.05,3.29,7.05,7.32s-3.17,7.32-7.05,7.32c-3.33,0-6.12-2.41-6.86-5.64-.13.05-.26.1-.4.14,0,1.76.17,8.8,3.61,11.98h-9.34c3.45-3.19,3.62-10.27,3.61-12-.14-.04-.27-.09-.4-.15-.78,3.17-3.55,5.53-6.83,5.53-3.88,0-7.05-3.29-7.05-7.32s3.17-7.32,7.05-7.32c1.8,0,3.45.71,4.7,1.87.1-.19.2-.37.32-.54-2.59-1.09-4.39-3.51-4.39-6.31,0-3.82,3.36-6.93,7.49-6.93Z" style="fill: #231815; fill-rule: evenodd; stroke-width: 0px;"/>
    </g>
  </g>
</svg>