<?xml version="1.0" encoding="UTF-8"?>
<svg id="_图层_2" data-name="图层 2" xmlns="http://www.w3.org/2000/svg" viewBox="0 0 163.58 248.61">
  <g id="_图层_1-2" data-name="图层 1">
    <path d="m1,6.6c0-3.08,2.51-5.6,5.57-5.6h150.43c3.06,0,5.57,2.52,5.57,5.6v235.41c0,3.08-2.51,5.6-5.57,5.6H6.57c-3.06,0-5.57-2.52-5.57-5.6V6.6Z" style="fill: #fff; fill-rule: evenodd; stroke: #231815; stroke-miterlimit: 22.93; stroke-width: 2px;"/>
    <g>
      <path d="m156.01,230.87v12.13h-25.89s-3.56-4.36-3.56-4.36c.97-1.59,14.85-24.75,16.52-46.34h5.63c-1.28,17.97-10.49,36.85-14.98,45.09h16.67s0-6.52,0-6.52h5.61Z" style="fill: #231815; stroke-width: 0px;"/>
      <path d="m141.47,182.29c-4.13,0-7.49-3.11-7.49-6.93,0-2.68,1.66-5.01,4.08-6.16-.17-.23-.32-.49-.46-.76-1.24,1.12-2.86,1.8-4.62,1.8-3.88,0-7.05-3.29-7.05-7.32s3.17-7.32,7.05-7.32c3.32,0,6.12,2.41,6.86,5.64.13-.05.26-.1.4-.14.01-1.76-.17-8.8-3.61-11.98h9.34c-3.45,3.19-3.62,10.27-3.61,12,.13.04.27.09.4.15.77-3.17,3.55-5.52,6.83-5.52,3.88,0,7.05,3.29,7.05,7.32s-3.17,7.32-7.05,7.32c-1.8,0-3.45-.71-4.7-1.87-.1.19-.21.37-.32.54,2.59,1.1,4.39,3.51,4.39,6.31,0,3.82-3.36,6.93-7.49,6.93Z" style="fill: #231815; fill-rule: evenodd; stroke-width: 0px;"/>
    </g>
    <path d="m81.67,95.3c2.64,0,4.8,1.99,4.8,4.44,0,1.72-1.06,3.21-2.61,3.95.11.15.21.31.29.48.79-.72,1.83-1.15,2.96-1.15,2.49,0,4.52,2.11,4.52,4.69s-2.03,4.69-4.52,4.69c-2.13,0-3.92-1.55-4.4-3.61-.08.04-.17.07-.26.09,0,1.13.11,5.64,2.31,7.67h-5.98c2.21-2.05,2.32-6.58,2.31-7.69-.09-.03-.17-.06-.25-.1-.5,2.03-2.27,3.54-4.38,3.54-2.49,0-4.52-2.11-4.52-4.69s2.03-4.69,4.52-4.69c1.15,0,2.21.45,3.01,1.2.06-.12.13-.24.21-.35-1.66-.7-2.82-2.25-2.82-4.04,0-2.45,2.16-4.44,4.8-4.44h0Zm16.52,76.39c-2.64,0-4.8-2-4.8-4.44,0-1.72,1.06-3.21,2.61-3.95-.11-.15-.21-.31-.29-.48-.79.72-1.83,1.15-2.96,1.15-2.49,0-4.52-2.11-4.52-4.69s2.03-4.69,4.52-4.69c2.13,0,3.92,1.55,4.4,3.61.08-.04.17-.07.26-.09,0-1.13-.11-5.64-2.31-7.67h5.98c-2.21,2.05-2.32,6.58-2.31,7.69.09.03.17.06.25.1.5-2.03,2.27-3.54,4.38-3.54,2.49,0,4.52,2.11,4.52,4.69s-2.03,4.69-4.52,4.69c-1.15,0-2.21-.45-3.01-1.2-.06.12-.13.24-.21.35,1.66.7,2.82,2.25,2.82,4.04,0,2.45-2.16,4.44-4.8,4.44h0Zm-32.55,0c-2.64,0-4.8-2-4.8-4.44,0-1.72,1.06-3.21,2.61-3.95-.11-.15-.21-.31-.29-.48-.79.72-1.83,1.15-2.96,1.15-2.49,0-4.52-2.11-4.52-4.69s2.03-4.69,4.52-4.69c2.13,0,3.92,1.55,4.4,3.61.08-.04.17-.07.25-.09,0-1.13-.11-5.64-2.31-7.67h5.98c-2.21,2.05-2.32,6.58-2.31,7.69.09.03.17.06.25.1.5-2.03,2.27-3.54,4.38-3.54,2.49,0,4.52,2.11,4.52,4.69s-2.03,4.69-4.52,4.69c-1.15,0-2.21-.45-3.01-1.2-.06.12-.13.24-.21.35,1.66.7,2.81,2.25,2.81,4.04,0,2.45-2.16,4.44-4.8,4.44h0Zm-.24-94.77c-2.64,0-4.8,2-4.8,4.44,0,1.79,1.16,3.34,2.81,4.04-.07.11-.14.23-.21.35-.8-.75-1.86-1.2-3.01-1.2-2.49,0-4.52,2.11-4.52,4.69s2.03,4.69,4.52,4.69c2.11,0,3.88-1.51,4.38-3.54.08.04.17.07.25.1,0,1.1-.1,5.64-2.31,7.69h5.98c-2.2-2.04-2.32-6.55-2.31-7.67.09-.03.17-.06.26-.09.47,2.07,2.27,3.61,4.4,3.61,2.49,0,4.52-2.11,4.52-4.69s-2.03-4.69-4.52-4.69c-1.13,0-2.17.44-2.96,1.15-.08-.17-.18-.33-.29-.48,1.55-.74,2.61-2.23,2.61-3.95,0-2.45-2.16-4.44-4.8-4.44h0Zm32.55,0c-2.64,0-4.8,2-4.8,4.44,0,1.79,1.16,3.34,2.82,4.04-.08.11-.14.23-.21.35-.8-.75-1.86-1.2-3.01-1.2-2.49,0-4.52,2.11-4.52,4.69s2.03,4.69,4.52,4.69c2.11,0,3.88-1.51,4.38-3.54.08.04.17.07.25.1,0,1.1-.1,5.64-2.31,7.69h5.98c-2.2-2.04-2.32-6.55-2.31-7.67.09-.03.17-.06.25-.09.47,2.07,2.27,3.61,4.4,3.61,2.49,0,4.52-2.11,4.52-4.69s-2.03-4.69-4.52-4.69c-1.13,0-2.17.44-2.96,1.15-.08-.17-.18-.33-.29-.48,1.55-.74,2.61-2.23,2.61-3.95,0-2.45-2.16-4.44-4.8-4.44h0Zm-32.55,36.76c-2.64,0-4.8,1.99-4.8,4.44,0,1.79,1.16,3.34,2.81,4.04-.07.11-.14.23-.21.35-.8-.75-1.86-1.2-3.01-1.2-2.49,0-4.52,2.11-4.52,4.69s2.03,4.69,4.52,4.69c2.11,0,3.88-1.51,4.38-3.54.08.04.17.07.25.1,0,1.1-.1,5.64-2.31,7.69h5.98c-2.2-2.04-2.32-6.55-2.31-7.67.09-.03.17-.06.26-.09.47,2.07,2.27,3.61,4.4,3.61,2.49,0,4.52-2.11,4.52-4.69s-2.03-4.69-4.52-4.69c-1.13,0-2.17.44-2.96,1.15-.08-.17-.18-.33-.29-.48,1.55-.74,2.61-2.23,2.61-3.95,0-2.45-2.16-4.44-4.8-4.44h0Zm32.55,0c-2.64,0-4.8,1.99-4.8,4.44,0,1.79,1.16,3.34,2.82,4.04-.08.11-.14.23-.21.35-.8-.75-1.86-1.2-3.01-1.2-2.49,0-4.52,2.11-4.52,4.69s2.03,4.69,4.52,4.69c2.11,0,3.88-1.51,4.38-3.54.08.04.17.07.25.1,0,1.1-.1,5.64-2.31,7.69h5.98c-2.2-2.04-2.32-6.55-2.31-7.67.09-.03.17-.06.25-.09.47,2.07,2.27,3.61,4.4,3.61,2.49,0,4.52-2.11,4.52-4.69s-2.03-4.69-4.52-4.69c-1.13,0-2.17.44-2.96,1.15-.08-.17-.18-.33-.29-.48,1.55-.74,2.61-2.23,2.61-3.95,0-2.45-2.16-4.44-4.8-4.44Z" style="fill: #231815; fill-rule: evenodd; stroke-width: 0px;"/>
    <path d="m47.11,62.82c0-1.61,1.08-2.93,2.39-2.93h64.57c1.32,0,2.39,1.32,2.39,2.93v122.97c0,1.61-1.08,2.93-2.39,2.93H49.5c-1.32,0-2.39-1.32-2.39-2.93V62.82Z" style="fill: none; fill-rule: evenodd; stroke: #231815; stroke-miterlimit: 22.93; stroke-width: 1.5px;"/>
    <g>
      <path d="m7.76,19.42V7.29h25.89s3.56,4.36,3.56,4.36c-.97,1.59-14.85,24.75-16.52,46.34h-5.63c1.28-17.97,10.49-36.85,14.98-45.09H13.37s0,6.52,0,6.52h-5.61Z" style="fill: #231815; stroke-width: 0px;"/>
      <path d="m22.3,67.99c4.13,0,7.49,3.11,7.49,6.93,0,2.68-1.66,5.01-4.08,6.16.17.23.32.49.46.76,1.24-1.12,2.86-1.8,4.62-1.8,3.88,0,7.05,3.29,7.05,7.32s-3.17,7.32-7.05,7.32c-3.32,0-6.12-2.41-6.86-5.64-.13.05-.26.1-.4.14-.01,1.76.17,8.8,3.61,11.98h-9.34c3.45-3.19,3.62-10.27,3.61-12-.13-.04-.27-.09-.4-.15-.77,3.17-3.55,5.52-6.83,5.52-3.88,0-7.05-3.29-7.05-7.32s3.17-7.32,7.05-7.32c1.8,0,3.45.71,4.7,1.87.1-.19.21-.37.32-.54-2.59-1.1-4.39-3.51-4.39-6.31,0-3.82,3.36-6.93,7.49-6.93Z" style="fill: #231815; fill-rule: evenodd; stroke-width: 0px;"/>
    </g>
  </g>
</svg>