<?xml version="1.0" encoding="UTF-8"?>
<svg id="_图层_2" data-name="图层 2" xmlns="http://www.w3.org/2000/svg" viewBox="0 0 163.58 248.61">
  <g id="_图层_1-2" data-name="图层 1">
    <path d="m1,6.6c0-3.08,2.51-5.6,5.57-5.6h150.43c3.07,0,5.57,2.52,5.57,5.6v235.41c0,3.08-2.51,5.6-5.57,5.6H6.57c-3.06,0-5.57-2.52-5.57-5.6V6.6Z" style="fill: #fff; fill-rule: evenodd; stroke: #231815; stroke-miterlimit: 22.93; stroke-width: 2px;"/>
    <g>
      <path d="m151.53,203.21s-2.71-6.11-10.28-5.48l.07-.02c-3.09.33-5.12,2.12-6.5,4.76-1.3,2.48-2.09,5.7-2.63,9.25.38-.33.77-.63,1.17-.91,2.25-1.57,4.77-2.39,7.31-2.51,2.52-.12,5.06.46,7.37,1.7,3.71,2,6.77,5.7,8.06,10.92,1.98,8.02-.9,14.68-5.52,18.51-2.53,2.1-5.59,3.35-8.69,3.54-3.19.19-6.41-.73-9.16-3.01-3.49-2.88-6.16-7.99-6.77-15.81h0c-.23-3.03-.16-6.46.29-10.32.61-5.23,1.6-10.13,3.59-13.95,2.24-4.28,5.62-7.18,10.88-7.74l.07-.02c11.53-.95,15.85,8.81,15.87,8.84l-5.13,2.26h0Zm-19.94,21.25c.54,5.64,2.35,9.24,4.71,11.19,1.57,1.3,3.42,1.82,5.26,1.71,1.92-.11,3.84-.91,5.45-2.24,3.13-2.59,5.06-7.21,3.66-12.86-.88-3.56-2.88-6.03-5.28-7.32-1.39-.75-2.92-1.1-4.45-1.02-1.51.07-3.01.56-4.35,1.5-2.34,1.63-4.23,4.59-5,9.05Z" style="fill: #231815; stroke-width: 0px;"/>
      <path d="m141.47,182.29c-4.12,0-7.49-3.11-7.49-6.93,0-2.68,1.66-5.01,4.08-6.17-.17-.23-.33-.49-.46-.75-1.24,1.12-2.86,1.8-4.62,1.8-3.88,0-7.05-3.29-7.05-7.32,0-4.03,3.17-7.32,7.05-7.32,3.32,0,6.12,2.41,6.86,5.63.13-.05.26-.1.4-.14.01-1.76-.17-8.8-3.61-11.98h9.34c-3.45,3.19-3.62,10.27-3.61,12,.14.04.27.09.4.15.77-3.17,3.55-5.53,6.83-5.53,3.88,0,7.05,3.29,7.05,7.32s-3.17,7.32-7.05,7.32c-1.8,0-3.45-.71-4.7-1.87-.1.19-.2.37-.32.54,2.59,1.09,4.39,3.51,4.39,6.31,0,3.82-3.36,6.93-7.49,6.93Z" style="fill: #231815; fill-rule: evenodd; stroke-width: 0px;"/>
    </g>
    <path d="m81.67,113.68c2.64,0,4.8,2,4.8,4.44,0,1.72-1.06,3.21-2.61,3.95.11.15.21.31.29.48.79-.72,1.83-1.15,2.96-1.15,2.49,0,4.52,2.11,4.52,4.69s-2.03,4.69-4.52,4.69c-2.13,0-3.92-1.54-4.4-3.61-.08.04-.17.07-.26.09,0,1.13.11,5.64,2.31,7.67h-5.98c2.21-2.05,2.32-6.58,2.31-7.69-.09-.03-.17-.06-.25-.1-.5,2.03-2.27,3.54-4.38,3.54-2.49,0-4.52-2.11-4.52-4.69s2.03-4.69,4.52-4.69c1.15,0,2.21.45,3.01,1.2.06-.12.13-.24.21-.35-1.66-.7-2.81-2.25-2.81-4.04,0-2.45,2.16-4.44,4.8-4.44h0Zm-16.03,33.51c2.64,0,4.8-2,4.8-4.44,0-1.79-1.16-3.34-2.82-4.04.08-.11.14-.23.21-.35.8.74,1.86,1.2,3.01,1.2,2.49,0,4.52-2.11,4.52-4.69s-2.03-4.69-4.52-4.69c-2.11,0-3.88,1.51-4.38,3.54-.08-.04-.17-.07-.25-.1,0-1.1.1-5.64,2.31-7.69h-5.98c2.2,2.04,2.32,6.55,2.31,7.67-.09.03-.17.06-.26.09-.47-2.07-2.27-3.61-4.4-3.61-2.49,0-4.52,2.11-4.52,4.69s2.03,4.69,4.52,4.69c1.13,0,2.17-.44,2.96-1.15.08.17.18.33.29.48-1.55.74-2.61,2.23-2.61,3.95,0,2.45,2.16,4.44,4.8,4.44h0Zm0,24.5c-2.64,0-4.8-2-4.8-4.44,0-1.72,1.06-3.21,2.61-3.95-.11-.15-.21-.31-.29-.48-.79.72-1.83,1.15-2.96,1.15-2.49,0-4.52-2.11-4.52-4.69s2.03-4.69,4.52-4.69c2.13,0,3.92,1.54,4.4,3.61.08-.04.17-.07.26-.09,0-1.13-.11-5.64-2.31-7.67h5.98c-2.21,2.05-2.32,6.58-2.31,7.69.09.03.17.06.25.1.5-2.03,2.27-3.54,4.38-3.54,2.49,0,4.52,2.11,4.52,4.69s-2.03,4.69-4.52,4.69c-1.15,0-2.21-.45-3.01-1.2-.06.12-.13.24-.21.35,1.66.7,2.81,2.25,2.81,4.04,0,2.45-2.16,4.44-4.8,4.44h0Zm-.24-70.26c-2.64,0-4.8,1.99-4.8,4.44,0,1.79,1.16,3.34,2.81,4.04-.07.11-.14.23-.21.35-.8-.75-1.86-1.2-3.01-1.2-2.49,0-4.52,2.11-4.52,4.69s2.03,4.69,4.52,4.69c2.11,0,3.88-1.51,4.38-3.54.08.04.17.07.25.1,0,1.1-.1,5.64-2.31,7.69h5.98c-2.2-2.04-2.32-6.55-2.31-7.67.09-.03.17-.06.25-.09.47,2.07,2.27,3.61,4.4,3.61,2.49,0,4.52-2.11,4.52-4.69s-2.03-4.69-4.52-4.69c-1.13,0-2.17.44-2.96,1.15-.08-.17-.18-.33-.29-.48,1.55-.74,2.61-2.23,2.61-3.95,0-2.45-2.16-4.44-4.8-4.44h0Zm0-24.5c2.64,0,4.8,2,4.8,4.44,0,1.72-1.06,3.21-2.61,3.95.11.15.21.31.29.48.79-.72,1.83-1.15,2.96-1.15,2.49,0,4.52,2.11,4.52,4.69s-2.03,4.69-4.52,4.69c-2.13,0-3.92-1.54-4.4-3.61-.08.04-.17.07-.25.09,0,1.13.11,5.64,2.31,7.67h-5.98c2.21-2.05,2.32-6.58,2.31-7.69-.09-.03-.17-.06-.25-.1-.5,2.03-2.27,3.54-4.38,3.54-2.49,0-4.52-2.11-4.52-4.69s2.03-4.69,4.52-4.69c1.15,0,2.21.45,3.01,1.2.06-.12.13-.24.21-.35-1.66-.7-2.81-2.25-2.81-4.04,0-2.45,2.16-4.44,4.8-4.44h0Zm32.79,70.26c2.64,0,4.8-2,4.8-4.44,0-1.79-1.16-3.34-2.81-4.04.07-.11.14-.23.21-.35.8.74,1.86,1.2,3.01,1.2,2.49,0,4.52-2.11,4.52-4.69s-2.03-4.69-4.52-4.69c-2.11,0-3.88,1.51-4.38,3.54-.08-.04-.17-.07-.25-.1,0-1.1.1-5.64,2.31-7.69h-5.98c2.2,2.04,2.32,6.55,2.31,7.67-.09.03-.17.06-.26.09-.47-2.07-2.27-3.61-4.39-3.61-2.49,0-4.52,2.11-4.52,4.69s2.03,4.69,4.52,4.69c1.13,0,2.17-.44,2.96-1.15.08.17.18.33.29.48-1.55.74-2.61,2.23-2.61,3.95,0,2.45,2.16,4.44,4.8,4.44h0Zm0,24.5c-2.64,0-4.8-2-4.8-4.44,0-1.72,1.06-3.21,2.61-3.95-.11-.15-.21-.31-.29-.48-.79.72-1.83,1.15-2.96,1.15-2.49,0-4.52-2.11-4.52-4.69s2.03-4.69,4.52-4.69c2.13,0,3.92,1.54,4.39,3.61.08-.04.17-.07.26-.09,0-1.13-.11-5.64-2.31-7.67h5.98c-2.21,2.05-2.32,6.58-2.31,7.69.09.03.17.06.25.1.5-2.03,2.27-3.54,4.38-3.54,2.49,0,4.52,2.11,4.52,4.69s-2.03,4.69-4.52,4.69c-1.15,0-2.21-.45-3.01-1.2-.06.12-.13.24-.21.35,1.66.7,2.81,2.25,2.81,4.04,0,2.45-2.16,4.44-4.8,4.44h0Zm-.24-70.26c-2.64,0-4.8,1.99-4.8,4.44,0,1.79,1.16,3.34,2.81,4.04-.07.11-.14.23-.21.35-.8-.75-1.86-1.2-3.01-1.2-2.49,0-4.52,2.11-4.52,4.69s2.03,4.69,4.52,4.69c2.11,0,3.88-1.51,4.38-3.54.08.04.17.07.25.1,0,1.1-.1,5.64-2.31,7.69h5.98c-2.2-2.04-2.32-6.55-2.31-7.67.09-.03.17-.06.26-.09.47,2.07,2.27,3.61,4.4,3.61,2.49,0,4.52-2.11,4.52-4.69s-2.03-4.69-4.52-4.69c-1.13,0-2.17.44-2.96,1.15-.08-.17-.18-.33-.29-.48,1.55-.74,2.61-2.23,2.61-3.95,0-2.45-2.16-4.44-4.8-4.44h0Zm0-24.5c2.64,0,4.8,2,4.8,4.44,0,1.72-1.06,3.21-2.61,3.95.11.15.21.31.29.48.79-.72,1.83-1.15,2.96-1.15,2.49,0,4.52,2.11,4.52,4.69s-2.03,4.69-4.52,4.69c-2.13,0-3.92-1.54-4.4-3.61-.08.04-.17.07-.26.09,0,1.13.11,5.64,2.31,7.67h-5.98c2.21-2.05,2.32-6.58,2.31-7.69-.09-.03-.17-.06-.25-.1-.5,2.03-2.27,3.54-4.38,3.54-2.49,0-4.52-2.11-4.52-4.69s2.03-4.69,4.52-4.69c1.15,0,2.21.45,3.01,1.2.06-.12.13-.24.21-.35-1.66-.7-2.81-2.25-2.81-4.04,0-2.45,2.16-4.44,4.8-4.44Z" style="fill: #231815; fill-rule: evenodd; stroke-width: 0px;"/>
    <path d="m47.11,62.82c0-1.61,1.08-2.93,2.39-2.93h64.57c1.32,0,2.39,1.32,2.39,2.93v122.97c0,1.61-1.08,2.93-2.39,2.93H49.5c-1.32,0-2.39-1.32-2.39-2.93V62.82Z" style="fill: none; fill-rule: evenodd; stroke: #231815; stroke-miterlimit: 22.93; stroke-width: 1.5px;"/>
    <g>
      <path d="m12.24,47.08s2.71,6.11,10.28,5.48l-.07.02c3.09-.33,5.12-2.12,6.5-4.76,1.3-2.48,2.09-5.7,2.63-9.25-.38.33-.77.63-1.17.91-2.25,1.57-4.77,2.39-7.31,2.51-2.52.12-5.06-.46-7.37-1.7-3.71-2-6.77-5.7-8.06-10.92-1.98-8.02.9-14.68,5.52-18.51,2.53-2.1,5.59-3.35,8.69-3.54,3.19-.19,6.41.73,9.16,3.01,3.49,2.88,6.16,7.99,6.77,15.81h0c.23,3.03.16,6.46-.29,10.32-.61,5.23-1.6,10.13-3.59,13.95-2.24,4.28-5.62,7.18-10.88,7.74l-.07.02c-11.53.95-15.85-8.81-15.87-8.84l5.13-2.26h0Zm19.94-21.25c-.54-5.64-2.35-9.24-4.71-11.19-1.57-1.3-3.42-1.82-5.26-1.71-1.92.11-3.84.91-5.45,2.24-3.13,2.59-5.06,7.21-3.66,12.86.88,3.56,2.88,6.03,5.28,7.32,1.39.75,2.92,1.1,4.45,1.02,1.51-.07,3.01-.56,4.35-1.5,2.34-1.63,4.23-4.59,5-9.05Z" style="fill: #231815; stroke-width: 0px;"/>
      <path d="m22.3,67.99c4.12,0,7.49,3.11,7.49,6.93,0,2.68-1.66,5.01-4.08,6.17.17.23.33.49.46.75,1.24-1.12,2.86-1.8,4.62-1.8,3.88,0,7.05,3.29,7.05,7.32s-3.17,7.32-7.05,7.32c-3.32,0-6.12-2.41-6.86-5.63-.13.05-.26.1-.4.14-.01,1.76.17,8.8,3.61,11.98h-9.34c3.45-3.19,3.62-10.27,3.61-12-.14-.04-.27-.09-.4-.15-.77,3.17-3.55,5.53-6.83,5.53-3.88,0-7.05-3.29-7.05-7.32s3.17-7.32,7.05-7.32c1.8,0,3.45.71,4.7,1.87.1-.19.2-.37.32-.54-2.59-1.09-4.39-3.51-4.39-6.31,0-3.82,3.36-6.93,7.49-6.93Z" style="fill: #231815; fill-rule: evenodd; stroke-width: 0px;"/>
    </g>
  </g>
</svg>