<?xml version="1.0" encoding="UTF-8"?>
<svg id="_图层_2" data-name="图层 2" xmlns="http://www.w3.org/2000/svg" viewBox="0 0 163.57 248.61">
  <g id="_图层_1-2" data-name="图层 1">
    <path d="m1,6.6c0-3.08,2.51-5.6,5.57-5.6h150.43c3.06,0,5.57,2.52,5.57,5.6v235.41c0,3.08-2.51,5.6-5.57,5.6H6.57c-3.06,0-5.57-2.52-5.57-5.6V6.6Z" style="fill: #fff; fill-rule: evenodd; stroke: #231815; stroke-miterlimit: 22.93; stroke-width: 2px;"/>
    <polygon points="82.05 92.85 106.48 108.64 106.58 140.17 81.93 155.77 57.38 140.17 57.64 108.7 82.05 92.85" style="fill: #fff; stroke: #d71618; stroke-miterlimit: 10; stroke-width: .78px;"/>
    <polygon points="61 109.91 81.76 96.36 87.16 100.34 71.79 110.22 82.09 116.95 92.62 110.19 89.93 108.18 82.06 113.8 77.01 110.01 89.92 101.59 102.57 110.31 81.98 123.83 61 109.91" style="fill: #d71618; stroke: #d71618; stroke-miterlimit: 10; stroke-width: .78px;"/>
    <polygon points="60.3 111.83 81.17 125.26 80.95 142.15 73.4 136.92 73.42 140.59 80.7 145.36 80.95 152 67.96 143.74 68.21 133.13 65.27 131.92 65.16 142.12 59.87 138.6 60.3 111.83" style="fill: #d71618; stroke-width: 0px;"/>
    <polyline points="103.74 132.16 88.61 142.28 88.61 138.47 103.88 128.52 103.88 121.97 89.07 131.86 88.15 131.77 88.15 128.55 104.15 118.34 104.15 111.84 83.07 125.37 83.07 152.32 104.15 138.38 103.96 132.08" style="fill: #d71618; stroke-width: 0px;"/>
    <polygon points="65.3 121.97 65.3 125.52 75.6 131.92 75.73 128.28 65.3 121.97" style="fill: #fff; stroke-width: 0px;"/>
    <path d="m47.11,62.82c0-1.61,1.08-2.93,2.39-2.93h64.57c1.32,0,2.39,1.32,2.39,2.93v122.97c0,1.61-1.08,2.93-2.39,2.93H49.5c-1.32,0-2.39-1.32-2.39-2.93V62.82Z" style="fill: none; fill-rule: evenodd; stroke: #231815; stroke-miterlimit: 22.93; stroke-width: 1.5px;"/>
    <path d="m154.11,198.25l-9.65,45.52h-7s-9.65-45.52-9.65-45.52h-4.16v-5.61h14v5.61h-3.97s1.61,7.6,1.61,7.6h11.33s1.61-7.6,1.61-7.6h-4.45v-5.61h14v5.61h-3.68Zm-17.63,13.21l4.47,21.1,4.47-21.1h-8.95Z" style="fill: #e60012; stroke-width: 0px;"/>
    <path d="m126.02,166.48c11.26,6.58,14.7,20.04,14.7,20.04,0,0,3.43-13.45,14.69-20.04-11.26-6.58-14.69-20.04-14.69-20.04,0,0-3.44,13.45-14.7,20.04Z" style="fill: #e60012; fill-rule: evenodd; stroke-width: 0px;"/>
    <path d="m8.52,50.12L18.18,4.6h7s9.65,45.52,9.65,45.52h4.16v5.61h-14v-5.61h3.97s-1.61-7.6-1.61-7.6h-11.33s-1.61,7.6-1.61,7.6h4.45v5.61H4.84v-5.61h3.68Zm17.63-13.21l-4.47-21.1-4.47,21.1h8.95Z" style="fill: #e60012; stroke-width: 0px;"/>
    <path d="m36.61,81.89c-11.26-6.58-14.7-20.04-14.7-20.04,0,0-3.43,13.45-14.69,20.04,11.26,6.58,14.69,20.04,14.69,20.04,0,0,3.44-13.45,14.7-20.04Z" style="fill: #e60012; fill-rule: evenodd; stroke-width: 0px;"/>
  </g>
</svg>