<?xml version="1.0" encoding="UTF-8"?>
<svg id="_图层_2" data-name="图层 2" xmlns="http://www.w3.org/2000/svg" viewBox="0 0 163.57 248.61">
  <g id="_图层_1-2" data-name="图层 1">
    <path d="m1,6.6c0-3.08,2.51-5.6,5.57-5.6h150.43c3.06,0,5.57,2.52,5.57,5.6v235.41c0,3.08-2.51,5.6-5.57,5.6H6.57c-3.06,0-5.57-2.52-5.57-5.6V6.6Z" style="fill: #fff; fill-rule: evenodd; stroke: #231815; stroke-miterlimit: 22.93; stroke-width: 2px;"/>
    <path d="m125.02,240.75c1.8,1.78,4.28,2.89,6.99,2.89,2.72,0,5.19-1.11,6.99-2.89,1.8-1.79,2.92-4.25,2.92-6.96v-31.73c0-2.71-1.12-5.17-2.92-6.96-1.8-1.78-4.28-2.89-6.99-2.89-2.72,0-5.19,1.11-6.99,2.89-1.8,1.79-2.92,4.25-2.92,6.96v31.73c0,2.71,1.12,5.17,2.92,6.96Zm2.69-38.68c0-1.16.48-2.22,1.25-2.99.78-.77,1.85-1.25,3.05-1.25,1.19,0,2.27.48,3.05,1.25.77.77,1.25,1.83,1.25,2.99v31.73c0,1.16-.48,2.22-1.25,2.99-.78.77-1.85,1.25-3.05,1.25-1.19,0-2.27-.48-3.05-1.25-.77-.77-1.25-1.82-1.25-2.99v-31.73Z" style="fill: #e60012; stroke-width: 0px;"/>
    <polygon points="147.11 243.19 152.73 243.19 158.71 238.03 158.71 235.01 152.73 236.24 152.73 197.3 158.03 197.3 158.03 192.52 152.73 192.52 152.73 192.51 147.11 192.51 147.11 192.52 142.34 192.52 142.34 197.3 147.11 197.3 147.11 243.19" style="fill: #e60012; stroke-width: 0px;"/>
    <path d="m90.64,148.81c-6.79-3.97-8.86-12.08-8.86-12.08,0,0-2.07,8.11-8.86,12.08,6.79,3.97,8.86,12.08,8.86,12.08,0,0,2.07-8.11,8.86-12.08h0Zm-17.25-12.25c-6.79,3.97-8.86,12.08-8.86,12.08,0,0-2.07-8.11-8.86-12.08,6.79-3.97,8.86-12.08,8.86-12.08,0,0,2.07,8.11,8.86,12.08h0Zm34.51,0c-6.79,3.97-8.86,12.08-8.86,12.08,0,0-2.07-8.11-8.86-12.08,6.79-3.97,8.86-12.08,8.86-12.08,0,0,2.07,8.11,8.86,12.08h0Zm0,24.5c-6.79,3.97-8.86,12.08-8.86,12.08,0,0-2.07-8.11-8.86-12.08,6.79-3.97,8.86-12.08,8.86-12.08,0,0,2.07,8.11,8.86,12.08h0Zm-34.51,0c-6.79,3.97-8.86,12.08-8.86,12.08,0,0-2.07-8.11-8.86-12.08,6.79-3.97,8.86-12.08,8.86-12.08,0,0,2.07,8.11,8.86,12.08h0Zm17.25-61.26c-6.79-3.97-8.86-12.08-8.86-12.08,0,0-2.07,8.11-8.86,12.08,6.79,3.97,8.86,12.08,8.86,12.08,0,0,2.07-8.11,8.86-12.08h0Zm17.26,12.25c-6.79,3.97-8.86,12.08-8.86,12.08,0,0-2.07-8.11-8.86-12.08,6.79-3.97,8.86-12.08,8.86-12.08,0,0,2.07,8.11,8.86,12.08h0Zm0-24.5c-6.79,3.97-8.86,12.08-8.86,12.08,0,0-2.07-8.11-8.86-12.08,6.79-3.97,8.86-12.08,8.86-12.08,0,0,2.07,8.11,8.86,12.08h0Zm-34.51,0c-6.79,3.97-8.86,12.08-8.86,12.08,0,0-2.07-8.11-8.86-12.08,6.79-3.97,8.86-12.08,8.86-12.08,0,0,2.07,8.11,8.86,12.08h0Zm0,24.5c-6.79,3.97-8.86,12.08-8.86,12.08,0,0-2.07-8.11-8.86-12.08,6.79-3.97,8.86-12.08,8.86-12.08,0,0,2.07,8.11,8.86,12.08Z" style="fill: #e60012; fill-rule: evenodd; stroke-width: 0px;"/>
    <path d="m124.67,166.51c11.26,6.58,14.7,20.04,14.7,20.04,0,0,3.43-13.45,14.69-20.04-11.26-6.58-14.69-20.04-14.69-20.04,0,0-3.44,13.45-14.7,20.04Z" style="fill: #e60012; fill-rule: evenodd; stroke-width: 0px;"/>
    <polygon points="81.81 88.08 91.19 94.14 91.23 106.25 81.77 112.23 72.34 106.25 72.44 94.16 81.81 88.08" style="fill: #fff; stroke: #d71618; stroke-miterlimit: 10; stroke-width: .3px;"/>
    <polygon points="73.73 94.63 81.7 89.42 83.77 90.95 77.88 94.75 81.83 97.33 85.87 94.74 84.84 93.96 81.82 96.12 79.88 94.67 84.84 91.43 89.69 94.78 81.79 99.97 73.73 94.63" style="fill: #d71618; stroke: #d71618; stroke-miterlimit: 10; stroke-width: .3px;"/>
    <polygon points="73.46 95.36 81.47 100.52 81.39 107 78.49 105 78.5 106.4 81.3 108.24 81.39 110.79 76.41 107.62 76.5 103.54 75.37 103.08 75.33 106.99 73.3 105.64 73.46 95.36" style="fill: #d71618; stroke-width: 0px;"/>
    <polyline points="90.14 103.17 84.33 107.06 84.33 105.59 90.19 101.77 90.19 99.26 84.51 103.05 84.15 103.02 84.15 101.78 90.3 97.86 90.3 95.37 82.2 100.56 82.2 110.91 90.3 105.56 90.23 103.14" style="fill: #d71618; stroke-width: 0px;"/>
    <polygon points="75.38 99.26 75.38 100.62 79.34 103.08 79.39 101.68 75.38 99.26" style="fill: #fff; stroke-width: 0px;"/>
    <polygon points="81.81 137.23 91.19 143.29 91.23 155.4 81.77 161.39 72.34 155.4 72.44 143.32 81.81 137.23" style="fill: #fff; stroke: #d71618; stroke-miterlimit: 10; stroke-width: .3px;"/>
    <polygon points="73.73 143.78 81.7 138.58 83.77 140.1 77.88 143.9 81.83 146.48 85.87 143.89 84.84 143.12 81.82 145.27 79.88 143.82 84.84 140.59 89.69 143.93 81.79 149.13 73.73 143.78" style="fill: #d71618; stroke: #d71618; stroke-miterlimit: 10; stroke-width: .3px;"/>
    <polygon points="73.46 144.52 81.47 149.67 81.39 156.16 78.49 154.15 78.5 155.56 81.3 157.39 81.39 159.94 76.41 156.77 76.5 152.7 75.37 152.23 75.33 156.15 73.3 154.8 73.46 144.52" style="fill: #d71618; stroke-width: 0px;"/>
    <polyline points="90.14 152.32 84.33 156.21 84.33 154.74 90.19 150.93 90.19 148.41 84.51 152.21 84.15 152.17 84.15 150.94 90.3 147.01 90.3 144.52 82.2 149.71 82.2 160.06 90.3 154.71 90.23 152.29" style="fill: #d71618; stroke-width: 0px;"/>
    <polygon points="75.38 148.41 75.38 149.77 79.34 152.23 79.39 150.83 75.38 148.41" style="fill: #fff; stroke-width: 0px;"/>
    <path d="m47.11,62.82c0-1.61,1.08-2.93,2.39-2.93h64.57c1.32,0,2.39,1.32,2.39,2.93v122.97c0,1.61-1.08,2.93-2.39,2.93H49.5c-1.32,0-2.39-1.32-2.39-2.93V62.82Z" style="fill: none; fill-rule: evenodd; stroke: #231815; stroke-miterlimit: 22.93; stroke-width: 1.5px;"/>
    <path d="m38.99,7.53c-1.8-1.78-4.28-2.89-6.99-2.89-2.72,0-5.19,1.11-6.99,2.89-1.8,1.79-2.92,4.25-2.92,6.96v31.73c0,2.71,1.12,5.17,2.92,6.96,1.8,1.78,4.28,2.89,6.99,2.89,2.72,0,5.19-1.11,6.99-2.89,1.8-1.79,2.92-4.25,2.92-6.96V14.48c0-2.71-1.12-5.17-2.92-6.96Zm-2.69,38.68c0,1.16-.48,2.22-1.25,2.99-.78.77-1.85,1.25-3.05,1.25-1.19,0-2.27-.48-3.05-1.25-.77-.77-1.25-1.83-1.25-2.99V14.48c0-1.16.48-2.22,1.25-2.99.78-.77,1.85-1.25,3.05-1.25,1.19,0,2.27.48,3.05,1.25.77.77,1.25,1.82,1.25,2.99v31.73Z" style="fill: #e60012; stroke-width: 0px;"/>
    <polygon points="16.9 5.08 11.29 5.08 5.3 10.25 5.3 13.26 11.29 12.04 11.29 50.98 5.99 50.98 5.99 55.76 11.29 55.76 11.29 55.76 16.9 55.76 16.9 55.76 21.67 55.76 21.67 50.98 16.9 50.98 16.9 5.08" style="fill: #e60012; stroke-width: 0px;"/>
    <path d="m41.34,81.76c-11.26-6.58-14.7-20.04-14.7-20.04,0,0-3.43,13.45-14.69,20.04,11.26,6.58,14.69,20.04,14.69,20.04,0,0,3.44-13.45,14.7-20.04Z" style="fill: #e60012; fill-rule: evenodd; stroke-width: 0px;"/>
  </g>
</svg>