<?xml version="1.0" encoding="UTF-8"?>
<svg id="_图层_2" data-name="图层 2" xmlns="http://www.w3.org/2000/svg" viewBox="0 0 163.58 248.61">
  <g id="_图层_1-2" data-name="图层 1">
    <path d="m1,6.6c0-3.08,2.51-5.6,5.57-5.6h150.43c3.06,0,5.57,2.52,5.57,5.6v235.41c0,3.08-2.51,5.6-5.57,5.6H6.57c-3.06,0-5.57-2.52-5.57-5.6V6.6Z" style="fill: #fff; fill-rule: evenodd; stroke: #231815; stroke-miterlimit: 22.93; stroke-width: 2px;"/>
    <path d="m126.59,166.48c11.26,6.58,14.69,20.04,14.69,20.04,0,0,3.43-13.45,14.7-20.04-11.26-6.58-14.7-20.04-14.7-20.04,0,0-3.43,13.45-14.69,20.04Z" style="fill: #e60012; fill-rule: evenodd; stroke-width: 0px;"/>
    <path d="m146.04,243.77h-19.6v-5.61h5.69s0-32.63,0-32.63c0-3.48,1.32-6.65,3.45-8.96,2.18-2.37,5.21-3.85,8.55-3.85.47,0,.85.01,1.15.04,7.69.68,11.38,7.7,10.77,14.6l-5.61-.48c.36-4.05-1.56-8.15-5.64-8.51-.3-.02-.52-.04-.66-.04-1.71,0-3.28.78-4.43,2.03-1.21,1.31-1.95,3.14-1.95,5.17v32.63s8.29,0,8.29,0v5.61Z" style="fill: #e60012; stroke-width: 0px;"/>
    <path d="m116.01,165.07l-4.55-4.34v-9.93s-16.4,8.99-16.4,8.99c0,0,.43.41.56,1.64.13,1.22-.63,2.69-2.04,2.71-1.41.02-2.13-1.94-2.13-1.94-1.39,2.97-1.13,5.68-1.13,5.68.51-1,1.39-2.1,2.43-2.04.89.05,1.91.7,1.73,1.68-.11.59-.48,1.33-1.05,1.01-.37-.21-.88-.5-1.11-.01-.41.88-1.51,4.03-1.51,4.03,0,.57,0,6.17,0,6.17l7.57,10.39h-40.2s7.39-12.49,7.39-12.49c-3.03-12.17-4.74-14.42-4.74-14.42-2.23,1.28-3.9.05-4.02-2.07s1.05-2.78,1.05-2.78c0,0-.83-.88-1.5-1.35-.66-.47-1.16-.38-1.16-.38,0,0-.26,1.28-.88,2.47-.62,1.18-1.84.92-1.84.92v21.41s-4.92,5.34-4.92,5.34v-102.2s4.55,4.34,4.55,4.34v9.93s16.4-8.99,16.4-8.99c0,0-.43-.41-.56-1.64-.13-1.22.63-2.69,2.04-2.71,1.41-.02,2.13,1.94,2.13,1.94,1.39-2.97,1.13-5.68,1.13-5.68-.5,1-1.39,2.1-2.43,2.04-.89-.05-1.91-.7-1.73-1.68.11-.59.48-1.33,1.05-1.01.37.21.88.5,1.11.01.41-.88,1.51-4.03,1.51-4.03,0-.57,0-6.17,0-6.17l-7.57-10.39h40.2s-7.39,12.49-7.39,12.49c3.03,12.17,4.74,14.42,4.74,14.42,2.23-1.28,3.9-.05,4.02,2.07s-1.05,2.78-1.05,2.78c0,0,.83.88,1.5,1.35.66.47,1.16.38,1.16.38,0,0,.26-1.28.88-2.47.62-1.18,1.84-.92,1.84-.92v-21.41s4.92-5.34,4.92-5.34v102.2Z" style="fill: #112343; fill-rule: evenodd; stroke-width: 0px;"/>
    <polygon points="66.15 115.64 65.65 99.37 66.61 97.53 66.92 116.67 66.15 115.64" style="fill: #ffe100; fill-rule: evenodd; stroke-width: 0px;"/>
    <polygon points="97.43 132.97 97.92 149.25 96.97 151.08 96.66 131.94 97.43 132.97" style="fill: #ffe100; fill-rule: evenodd; stroke-width: 0px;"/>
    <path d="m103.9,92.55l1.71,1.73c.5-.68.93-1.22,1.21-1.57l-1.62-1.23c-.11.12-.28.3-.52.54-.34.35-.64.48-.78.52h0Zm-1.02.94l1.84,2.02c-.29.41-.59.84-.89,1.3l-1.94-2.21.99-1.1h0Zm-2.97,3.32l2.38,2.48c.24-.39.45-.74.64-1.06.05-.08.1-.17.15-.25l-2.2-2.25-.97,1.08h0Zm-.96,1.08l2.51,2.81c-.24.41-.48.85-.73,1.31l-2.73-3.05.95-1.06h0Zm-1.98,2.21l-.96,1.07,3.31,3.61c.22-.47.44-.93.66-1.37l-3.02-3.31h0Zm-1.9,2.12l3.77,3.66c-.2.47-.39.95-.58,1.44l-4.02-4.17.83-.92h0Zm-1.93,2.28l4.52,4.54c-.2.61-.38,1.23-.54,1.87l-3.13-3.87-1.98-1.31,1.13-1.23Z" style="fill: #fff; fill-rule: evenodd; stroke-width: 0px;"/>
    <path d="m59.68,156.06l-1.71-1.73c-.5.68-.93,1.22-1.21,1.57l1.62,1.23c.11-.12.28-.3.52-.54.34-.35.64-.48.78-.52h0Zm1.02-.94l-1.84-2.02c.29-.41.59-.84.89-1.3l1.94,2.21-.99,1.1h0Zm2.97-3.32l-2.38-2.48c-.24.39-.45.74-.64,1.06-.05.08-.1.17-.15.25l2.2,2.25.97-1.08h0Zm.96-1.08l-2.51-2.81c.24-.41.48-.85.73-1.31l2.73,3.05-.95,1.06h0Zm1.98-2.21l.96-1.07-3.31-3.61c-.22.47-.44.93-.66,1.37l3.02,3.31h0Zm1.9-2.12l-3.77-3.66c.2-.47.39-.95.58-1.44l4.02,4.17-.83.92h0Zm1.93-2.28l-4.52-4.54c.2-.61.38-1.23.54-1.87l3.13,3.87,1.98,1.31-1.13,1.23Z" style="fill: #fff; fill-rule: evenodd; stroke-width: 0px;"/>
    <path d="m67.25,132.98l25.52-28.08,4.57,5.18c-.5,1.76-.87,3.62-1.01,5.57l-25.52,28.08-4.57-5.18c.5-1.76.87-3.62,1.01-5.56Z" style="fill: #112343; fill-rule: evenodd; stroke-width: 0px;"/>
    <path d="m90.76,107.1h2.98v4.08s3.3,0,3.3,0c-.44,1.81-.73,3.72-.78,5.7-.09,4.35.01,8.85.85,13.41h-.51v-3.1s-3.06,0-3.06,0l-.34-4.21-3.14.09-.17-4-3.78.04.26-4.18-2.69-.04,7.07-7.78Z" style="fill: #ffe100; fill-rule: evenodd; stroke-width: 0px;"/>
    <path d="m93.52,126.86l.98-1.17-.09-2.81c0-.12,0-.23.22-.24.23,0,.23.11.24.23l.07,2.29.76-.91-.15-2.49c0-.12-.01-.23.22-.25.23-.01.24.1.24.22l.12,2,.21-.25c.02.34.04.68.06,1.02h-.3s-.86,1.02-.86,1.02l1.25.08c.01.16.03.31.04.47l-1.67-.1-1.02,1.22h-.3l-.03-.33h0Zm.22-16.23v.55s.12,0,.12,0l-.43.46,1.76.29c.11.02.23.04.19.26s-.15.21-.26.19l-2.07-.34-1.1,1.17,2.03.2c.11.01.23.02.21.25-.02.23-.14.22-.25.21l-2.34-.23s-.03,0-.05-.01l-.93,1,1.83.26c.11.01.23.03.2.26-.03.23-.15.21-.26.2l-2.05-.29s-.06-.02-.09-.04l-.81.86,1.93.27c.11.02.23.03.2.26-.03.23-.15.21-.26.2l-2.25-.32-1.06,1.13,2.01.28c.11.02.23.03.2.26-.03.23-.14.21-.26.2l-2.33-.33-1.17,1.24h-.31s.02-.37.02-.37l1.14-1.22.14-2.77c0-.12.01-.23.24-.22.23.01.22.13.22.24l-.11,2.23.88-.93v-.02l.14-2.86c0-.12.01-.23.24-.22.23.01.22.13.22.24l-.12,2.33,1.01-1.08.12-2.49c0-.12.01-.23.24-.22.23.01.22.13.22.24l-.1,1.95.76-.81.08-2.63c0-.12,0-.23.24-.23.23,0,.23.12.22.24l-.06,2.11.91-.97v-2.79c0-.12,0-.23.23-.23s.23.12.23.23v2.3s.5-.53.5-.53h0Zm2.86,2.71l-.03-.54c0-.12-.01-.23-.24-.22-.23.01-.22.13-.22.24l.14,2.77-.86,1.01-.05-2.09c0-.12,0-.23-.23-.23-.23,0-.23.12-.23.24l.06,2.6-.95,1.12-.03-2.46c0-.12,0-.23-.23-.23-.23,0-.23.12-.23.23l.03,2.99-.8.94v-2.06c0-.12,0-.23-.24-.23s-.23.12-.23.23v2.59s-.76.9-.76.9l-.07-2.19c0-.12,0-.23-.24-.23-.23,0-.23.12-.22.24l.08,2.7-1.02,1.19v.19s.46-.01.46-.01l.83-.97,1.91.21c.11.01.23.02.25-.21.02-.23-.09-.24-.2-.26l-1.59-.17.89-1.04,1.9.05c.12,0,.23,0,.23-.23,0-.23-.11-.23-.22-.24l-1.52-.04.87-1.02,1.84.07c.11,0,.23,0,.24-.22s-.11-.24-.22-.24l-1.47-.05.87-1.02s.04.02.07.02l1.07.05c0-.16,0-.31,0-.47l-.78-.04.81-.95c.05-1,.16-1.98.31-2.93h0Zm-10.22,1.61c.08,0,.15-.05.15-.23,0-.23-.11-.24-.23-.24l-2.22-.04-.4.44,2.69.04v.03h0Zm-1.03-1.9h2.54c.12,0,.23,0,.23-.23,0-.23-.12-.23-.23-.23h-2.11s-.42.47-.42.47h0Zm1.23-1.36h2.5c.12,0,.23,0,.23-.23,0-.23-.11-.23-.23-.23h-2.08s-.42.47-.42.47h0Zm1.36-1.5h2.39c.12,0,.23,0,.23-.23,0-.23-.11-.23-.23-.23h-1.97s-.42.47-.42.47h0Zm1.42-1.56h2.26c.11,0,.23,0,.23-.23,0-.23-.12-.23-.23-.23h-1.83s-.42.47-.42.47Z" style="fill: #112343; stroke-width: 0px;"/>
    <path d="m72.82,141.51h-2.98v-4.08s-3.3,0-3.3,0c.44-1.81.73-3.72.78-5.7.09-4.35-.01-8.85-.85-13.41h.51v3.1s3.06,0,3.06,0l.34,4.21,3.14-.09.17,4,3.78-.04-.26,4.18,2.69.04-7.07,7.78Z" style="fill: #ffe100; fill-rule: evenodd; stroke-width: 0px;"/>
    <path d="m70.06,121.75l-.98,1.17.09,2.81c0,.12,0,.23-.22.24-.23,0-.23-.11-.24-.23l-.07-2.29-.76.91.15,2.49c0,.12.01.23-.22.25-.23.01-.24-.1-.24-.22l-.12-2-.21.25c-.02-.34-.04-.68-.06-1.02h.3s.86-1.02.86-1.02l-1.25-.08c-.01-.16-.03-.31-.04-.47l1.67.1,1.02-1.22h.3l.03.33h0Zm-.22,16.23v-.55s-.12,0-.12,0l.43-.46-1.76-.28c-.11-.02-.23-.04-.19-.27.04-.23.15-.21.26-.19l2.07.34,1.1-1.18-2.03-.2c-.11-.01-.23-.02-.21-.25.02-.23.14-.22.25-.21l2.34.23s.03,0,.05.01l.93-1-1.83-.26c-.11-.02-.23-.03-.2-.26.03-.23.15-.21.26-.2l2.05.29s.06.02.09.04l.81-.86-1.93-.27c-.11-.02-.23-.03-.2-.26.03-.23.15-.21.26-.2l2.25.32,1.06-1.13-2.01-.28c-.11-.02-.23-.03-.2-.26.03-.23.14-.21.26-.2l2.33.33,1.17-1.24h.31s-.02.37-.02.37l-1.14,1.22-.14,2.77c0,.12-.01.23-.24.22-.23-.01-.22-.13-.22-.24l.11-2.23-.88.93v.02l-.14,2.86c0,.12-.01.23-.24.22-.23-.01-.22-.13-.22-.24l.12-2.33-1.01,1.08-.12,2.49c0,.12-.01.23-.24.22-.23-.01-.22-.13-.22-.24l.1-1.95-.76.81-.08,2.63c0,.12,0,.23-.24.23-.23,0-.23-.12-.22-.24l.06-2.11-.91.97v2.79c0,.12,0,.23-.23.23s-.23-.12-.23-.23v-2.3s-.5.53-.5.53h0Zm-2.86-2.71l.03.54c0,.12.01.23.24.22.23-.01.22-.13.22-.24l-.14-2.77.86-1.01.05,2.09c0,.12,0,.23.23.23.23,0,.23-.12.23-.24l-.06-2.6.95-1.12.03,2.46c0,.12,0,.23.23.23.23,0,.23-.12.23-.23l-.03-2.99.8-.94v2.06c0,.12,0,.23.24.23s.23-.12.23-.23v-2.59s.76-.9.76-.9l.07,2.19c0,.12,0,.23.24.23.23,0,.23-.12.22-.24l-.08-2.7,1.02-1.19v-.19s-.46.01-.46.01l-.83.97-1.91-.21c-.11-.01-.23-.02-.25.21-.02.23.09.24.2.26l1.59.17-.89,1.04-1.9-.05c-.12,0-.23,0-.23.23,0,.23.11.24.22.24l1.52.04-.87,1.02-1.84-.07c-.11,0-.23,0-.24.22,0,.23.11.24.22.24l1.47.05-.87,1.02s-.04-.02-.07-.02l-1.07-.05c0,.16,0,.31,0,.47l.78.04-.81.95c-.05,1-.16,1.98-.31,2.93h0Zm10.22-1.61c-.08,0-.15.05-.15.23,0,.23.11.24.23.24l2.22.04.4-.44-2.69-.04v-.03h0Zm1.03,1.9h-2.54c-.11,0-.23,0-.23.23,0,.23.12.23.23.23h2.11s.42-.47.42-.47h0Zm-1.23,1.36h-2.5c-.12,0-.23,0-.23.23,0,.23.11.23.23.23h2.08s.42-.47.42-.47h0Zm-1.36,1.5h-2.39c-.12,0-.23,0-.23.23,0,.23.11.23.23.23h1.97s.42-.47.42-.47h0Zm-1.42,1.56h-2.26c-.11,0-.23,0-.23.23,0,.23.12.23.23.23h1.83s.42-.47.42-.47Z" style="fill: #112343; stroke-width: 0px;"/>
    <path d="m100.27,93.64l-27.43,30.26.63.76,29.34-31.41s-.86.27-2.54.39Z" style="fill: #fff; fill-rule: evenodd; stroke-width: 0px;"/>
    <path d="m63.31,154.97l27.43-30.26-.63-.76-29.34,31.42s.86-.27,2.54-.39Z" style="fill: #fff; fill-rule: evenodd; stroke-width: 0px;"/>
    <path d="m72.96,125.22l.66.82.64-.7-.22-.24-1.08-1.19,27.6-30.28c-.98.03-1.47-.22-1.47-.22-1.67,2.76-5.09,4.84-7.14,5.91v.02s-19.68,22.12-19.68,22.12l-3.66-3.76v-21.46c-.78-.62-1.32-1.1-1.58-1.32l-.43,1.1.34,20.83-1.58-1.99.57,3.59h1.07v2.45s2.73.18,2.73.18v3.94s3.25.21,3.25.21Z" style="fill: #112343; fill-rule: evenodd; stroke-width: 0px;"/>
    <path d="m90.62,123.4l-.66-.82-.64.7.22.24,1.08,1.19-27.6,30.28c.98-.03,1.47.22,1.47.22,1.67-2.76,5.09-4.84,7.14-5.91v-.02s19.68-22.12,19.68-22.12l3.66,3.76v21.46c.78.62,1.32,1.1,1.58,1.32l.43-1.1-.34-20.83,1.58,1.99-.57-3.59h-1.07v-2.45s-2.73-.18-2.73-.18v-3.94s-3.25-.21-3.25-.21Z" style="fill: #112343; fill-rule: evenodd; stroke-width: 0px;"/>
    <polygon points="116.01 65.06 112.09 69.16 112.8 159.78 116.01 162.64 116.01 164.65 111.72 160.66 111.42 68.47 116.01 63.49 116.01 65.06" style="fill: #ffe100; fill-rule: evenodd; stroke-width: 0px;"/>
    <polygon points="47.57 183.56 51.49 179.45 50.77 88.84 47.57 85.97 47.57 83.97 51.85 87.95 52.16 180.15 47.57 185.12 47.57 183.56" style="fill: #ffe100; fill-rule: evenodd; stroke-width: 0px;"/>
    <polygon points="116.01 162.64 112.8 159.78 112.09 69.16 116.01 65.06 116.01 162.64" style="fill: #112343; fill-rule: evenodd; stroke-width: 0px;"/>
    <polygon points="47.57 85.97 50.77 88.84 51.49 179.45 47.57 183.56 47.57 85.97" style="fill: #112343; fill-rule: evenodd; stroke-width: 0px;"/>
    <path d="m113.56,159.8l1.49,1.35s.38-4.37.46-6.39c.09-2.02.09-3.4.03-3.84-.06-.45-.43-1.42-.89-2.55-.45-1.13-.29-2.65.02-3.58.31-.92,1.14-2.87,1.18-4.39.04-1.51-.55-4.71-1.03-6-.48-1.29-.33-3.14.17-4.45.5-1.31.72-2.95.62-4.47-.1-1.52-.78-2.48-1.04-4.1-.27-1.62-.16-2.68.24-5.01.4-2.33.26-3.73.19-5.04-.08-1.3-.71-2.84-.71-4.61s-.3-9.76.22-13.14c.51-3.39.56-4.56.29-6.55-.27-1.99-.95-3.64-.67-5.56.27-1.92.44-5.2.42-7.08-.02-1.88-.59-3.02-.58-4.07,0-1.06.13-2.65.13-2.65,0,0-1.32,1.7-1.38,2.18-.05.48.12,1.35.42,2.22.31.87.35,1.61.3,3.35-.06,1.74-.29,6.81-.11,8.16.19,1.35.51,3.64.53,5.16.03,1.51-.48,2.38-.68,4.08-.2,1.69-.48,3.75-.01,7.87.46,4.12.22,4.57-.01,5.44-.23.88-.19,1.99.29,3.46.47,1.47.78,3.29.49,5.37-.28,2.08-.69,3.07-.92,4.33-.24,1.26.21,3.08.63,4.52.42,1.44.77,2.34.25,4.83-.52,2.48-.84,3.39-.64,5.45.2,2.06.67,2.32,1.05,3.65.37,1.33.22,2.98-.31,4.98-.54,1.99-.93,3.06-.74,4.98.19,1.92.69,2.26.91,2.96.21.7.14,3.3-.19,5.99-.33,2.68-.42,3.17-.42,3.17Z" style="fill: #ffe100; fill-rule: evenodd; stroke-width: 0px;"/>
    <path d="m50.02,88.81l-1.49-1.35s-.38,4.37-.46,6.39-.09,3.4-.03,3.84c.06.45.44,1.42.89,2.55.45,1.13.29,2.65-.02,3.58-.31.92-1.14,2.87-1.18,4.39-.04,1.51.55,4.71,1.03,6,.48,1.29.32,3.14-.17,4.45-.5,1.31-.72,2.95-.62,4.47.1,1.52.78,2.48,1.04,4.1.27,1.62.16,2.68-.24,5.01-.4,2.33-.26,3.73-.19,5.04.08,1.3.71,2.84.71,4.61s.3,9.76-.22,13.14c-.51,3.39-.56,4.56-.29,6.55.27,1.99.95,3.64.67,5.56-.27,1.92-.44,5.2-.42,7.08.02,1.88.59,3.02.58,4.08,0,1.06-.13,2.65-.13,2.65,0,0,1.32-1.7,1.38-2.18.05-.48-.12-1.35-.42-2.22-.31-.87-.35-1.61-.3-3.35.06-1.74.29-6.81.11-8.16-.19-1.35-.51-3.64-.53-5.16-.03-1.51.48-2.38.68-4.08.2-1.69.48-3.75.01-7.87-.46-4.12-.22-4.57.01-5.44.23-.88.19-1.99-.29-3.46-.47-1.47-.78-3.29-.49-5.37.28-2.08.69-3.07.92-4.33.24-1.26-.21-3.08-.63-4.52-.42-1.45-.77-2.34-.25-4.83.52-2.48.84-3.39.64-5.45-.2-2.06-.67-2.32-1.05-3.65-.37-1.33-.22-2.99.32-4.98.54-1.99.93-3.06.74-4.98-.19-1.92-.69-2.26-.91-2.96-.21-.7-.14-3.3.19-5.99.33-2.68.42-3.17.42-3.17Z" style="fill: #ffe100; fill-rule: evenodd; stroke-width: 0px;"/>
    <path d="m111,105v27.95s-3.45,3.13-3.45,3.13c-5.13-10.13-4.87-22.33,1.84-31.7l1.61.62Z" style="fill: #e60012; fill-rule: evenodd; stroke-width: 0px;"/>
    <path d="m52.58,143.61v-27.95s3.45-3.13,3.45-3.13c5.13,10.13,4.87,22.33-1.84,31.7l-1.61-.62Z" style="fill: #e60012; fill-rule: evenodd; stroke-width: 0px;"/>
    <path d="m106,138.22l-1.08,1.1s-4.88-9.04-4.25-19.16c.63-10.12,4.07-16.6,7.59-20.86l.18,2.56c-8.19,10.48-7.38,25.65-2.43,36.37Z" style="fill: #fff; fill-rule: evenodd; stroke-width: 0px;"/>
    <path d="m57.57,110.39l1.08-1.1s4.88,9.04,4.25,19.16c-.63,10.12-4.07,16.6-7.59,20.86l-.18-2.56c8.19-10.47,7.38-25.65,2.43-36.37Z" style="fill: #fff; fill-rule: evenodd; stroke-width: 0px;"/>
    <path d="m104.69,139.66l-1.2,1.17s-4.3-7.71-5.12-15.03c-.82-7.32.48-19.18,9.23-29.12l.42,2.13s-6.26,7.12-7.55,18.19c-.9,7.76.71,15.76,4.22,22.66Z" style="fill: #e60012; fill-rule: evenodd; stroke-width: 0px;"/>
    <path d="m58.88,108.95l1.2-1.17s4.3,7.71,5.12,15.03c.82,7.32-.48,19.18-9.23,29.13l-.42-2.13s6.26-7.12,7.55-18.19c.9-7.76-.71-15.76-4.22-22.66Z" style="fill: #e60012; fill-rule: evenodd; stroke-width: 0px;"/>
    <path d="m107.65,94.82l3.74.35s1.06-.87,2.48-1.19c1.42-.32,2.22.39,2.35.95.13.56-.22,1.23-.51,1.5,0,0,.42.33.55,1.02.13.69.2,5.87.2,5.87,0,0-.53.34-1.1.63-.58.29-.91.37-1.17.42-.26.05-.6-.03-.84.3-.24.33-.33.33-.6.35-.28.02-.34,0-.62-.18-.28-.18-.31-.12-.5.12-.19.23-1.03.37-2.14-.46-1.11-.82-1.18-2.22-1.16-3.42.02-1.2-.25-2.39-.52-3.02-.27-.62-.39-1.94-.16-3.24Z" style="fill: #112343; fill-rule: evenodd; stroke-width: 0px;"/>
    <path d="m109.22,92.7l-.18-.03s.38-1.76.82-2.24c.44-.47.99-.5,1.12-.43.13.07.04,1.11.03,1.6-.02.49-1.19,1.02-1.78,1.1h0Zm1.7-.31c-.93.47-2.11.81-2.11.81,0,0-.32.88-.62,1.89-.3,1-.18,1.88.3,3.47.48,1.58.28,2.92.53,4.32.25,1.39,1.99,1.62,1.99,1.62,0,0,.01-.53,0-1.44-.01-.91.09-2.54-.02-2.55-.12-.01-.44.59-.71.41-.28-.18-.23-.3.03-.8.26-.5.47-.78.45-1.78-.02-.99-.54-.73-.28-1.09.26-.35.3-1.25.23-1.7-.07-.45-.35-.45-.02-1.25.33-.8.41-1.95.41-1.95l-.17.05h0Zm1.12,6.22c.4,0,.73.33.73.74s-.33.74-.73.74-.73-.33-.73-.74.33-.74.73-.74h0Zm-.08,2.72c.26,0,.47.21.47.47s-.21.47-.47.47-.47-.21-.47-.47.21-.47.47-.47h0Zm.55,2.05c.26,0,.47.21.47.47s-.21.47-.47.47-.47-.21-.47-.47c0-.26.21-.47.47-.47h0Zm-.07-7.28l-.13.06s.25,1.13.11,1.58c0,0-1.06.13-1.23-.61-.17-.74.36-1.03.36-1.03,0,0-.09-.45.46-.78.54-.33,1.2-.78,2.11-.95.91-.17,1.72.25,1.76.89.04.64-.43.98-.95,1.35-.52.37-1.4.89-1.82.92,0,0-.03-.67-.24-1.13s-.24-.48-.33-.48-.04.16-.11.18h0Zm.34,1.93c.44.61.61,1.26.46,2.17.43-.09,2.39-1.47,2.53-1.62.14-.14.16-.69.13-1.31-.04-.62-.39-.69-.96-.16-.57.53-2.15.92-2.15.92h0Zm.21,2.73c.81-.31,1.44-.6,2.06-1.11.51-.42.6-.54.72-.47.12.07.19,1.59.14,1.88-.05.29-.97.81-1.57,1.08-.6.26-1.16.34-1.16.34.29-1.02-.19-1.71-.19-1.71h0Zm.46,1.99l-.22.08s.34.49.42,1.23c0,0,1.94-.33,2.36-1.07v-1.41s-1.19.97-2.56,1.17Z" style="fill: #fff; fill-rule: evenodd; stroke-width: 0px;"/>
    <path d="m55.93,153.8l-3.74-.35s-1.06.87-2.48,1.19c-1.42.32-2.22-.39-2.35-.95-.13-.56.22-1.23.51-1.5,0,0-.42-.33-.55-1.02-.13-.69-.2-5.87-.2-5.87,0,0,.53-.34,1.1-.63.58-.29.91-.37,1.17-.42.26-.05.6.03.84-.3.24-.33.33-.33.6-.35.28-.02.34,0,.62.18.28.18.31.12.5-.12.19-.23,1.03-.37,2.14.46,1.11.82,1.18,2.22,1.16,3.42-.02,1.2.25,2.39.52,3.02.27.62.39,1.94.16,3.24Z" style="fill: #112343; fill-rule: evenodd; stroke-width: 0px;"/>
    <path d="m54.36,155.91l.18.03s-.38,1.76-.82,2.23c-.44.48-.99.5-1.12.43-.13-.07-.04-1.11-.03-1.6.02-.49,1.19-1.02,1.78-1.1h0Zm-1.7.31c.93-.47,2.11-.81,2.11-.81,0,0,.32-.89.62-1.89.3-1,.18-1.88-.3-3.47-.48-1.58-.28-2.92-.53-4.32-.25-1.39-1.99-1.62-1.99-1.62,0,0-.01.53,0,1.44.01.91-.09,2.54.02,2.55s.44-.59.71-.41c.28.18.23.3-.03.8-.26.5-.47.78-.45,1.78.02.99.54.73.28,1.09-.26.35-.3,1.25-.23,1.7.07.45.35.45.02,1.25-.33.8-.41,1.95-.41,1.95l.17-.06h0Zm-1.12-6.22c-.4,0-.73-.33-.73-.74s.33-.74.73-.74.73.33.73.74-.33.74-.73.74h0Zm.08-2.72c-.26,0-.47-.21-.47-.48s.21-.47.47-.47.47.21.47.47-.21.48-.47.48h0Zm-.55-2.05c-.26,0-.47-.21-.47-.47s.21-.48.47-.48.47.21.47.48-.21.47-.47.47h0Zm.07,7.28l.13-.06s-.25-1.13-.11-1.59c0,0,1.06-.13,1.23.61.17.74-.36,1.03-.36,1.03,0,0,.08.45-.46.78-.54.33-1.2.78-2.11.95-.91.17-1.72-.25-1.76-.89-.04-.64.43-.98.95-1.34.52-.37,1.4-.89,1.82-.92,0,0,.03.67.24,1.13.21.47.24.48.33.48s.04-.16.11-.18h0Zm-.34-1.93c-.44-.61-.61-1.26-.46-2.17-.43.09-2.39,1.47-2.53,1.62-.14.15-.16.69-.13,1.31.04.62.39.69.96.16.57-.53,2.15-.92,2.15-.92h0Zm-.21-2.73c-.81.31-1.44.6-2.06,1.11-.51.42-.6.54-.72.47-.12-.07-.19-1.59-.14-1.88.05-.29.97-.81,1.57-1.08.6-.26,1.16-.34,1.16-.34-.29,1.02.19,1.71.19,1.71h0Zm-.46-1.99l.22-.08s-.34-.49-.42-1.23c0,0-1.94.33-2.36,1.08v1.41s1.19-.97,2.56-1.17Z" style="fill: #fff; fill-rule: evenodd; stroke-width: 0px;"/>
    <path d="m116.01,83.05c-6.97-1.1-13.04-5.09-14.51-13.51,0,0,.63,1.27,3.04,2.55,2.38,1.26,6.19,3.14,11.47,3.67v7.3Z" style="fill: #112343; fill-rule: evenodd; stroke-width: 0px;"/>
    <path d="m116.01,81.37c-1.38-.18-3.99-.65-6.01-1.77-2.89-1.59-4.02-2.88-4.93-5.36,0,0,3.46,2.99,10.95,3.05v4.08Z" style="fill: #112343; fill-rule: evenodd; stroke: #231815; stroke-miterlimit: 22.93; stroke-width: 0px;"/>
    <path d="m116.01,77.29c-7.48-.06-10.95-3.05-10.95-3.05.91,2.48,2.04,3.77,4.93,5.36,2.03,1.11,4.64,1.59,6.01,1.77v1.18c-1.16-.17-4.06-.7-6.4-2.03-3-1.7-5.7-4.02-7.41-9.44,0,0,5.66,4.42,13.81,5.18v1.03h0Zm-1.48,2.59c.47,0,.85-.39.85-.86s-.38-.86-.85-.86-.85.39-.85.86.38.86.85.86h0Zm-2.63-.56c.45,0,.81-.37.81-.82s-.36-.82-.81-.82-.81.37-.81.82.36.82.81.82h0Zm-4.02-2.24c.26,0,.47-.21.47-.47,0-.26-.21-.47-.47-.47s-.46.21-.46.47.21.47.46.47h0Zm1.64,1.31c.38,0,.69-.31.69-.69s-.31-.69-.69-.69-.68.31-.68.69.31.69.68.69Z" style="fill: #ffe100; fill-rule: evenodd; stroke-width: 0px;"/>
    <path d="m47.57,165.56c6.97,1.1,13.04,5.09,14.51,13.51,0,0-.63-1.27-3.04-2.55-2.38-1.26-6.19-3.14-11.47-3.67v-7.3Z" style="fill: #112343; fill-rule: evenodd; stroke-width: 0px;"/>
    <path d="m47.57,167.24c1.38.18,3.99.65,6.01,1.77,2.89,1.59,4.02,2.88,4.93,5.36,0,0-3.46-2.99-10.95-3.05v-4.08Z" style="fill: #112343; fill-rule: evenodd; stroke: #231815; stroke-miterlimit: 22.93; stroke-width: 0px;"/>
    <path d="m47.57,171.32c7.48.06,10.95,3.05,10.95,3.05-.91-2.48-2.04-3.77-4.93-5.36-2.03-1.11-4.64-1.59-6.01-1.77v-1.18c1.16.17,4.06.7,6.4,2.03,3,1.7,5.7,4.02,7.41,9.44,0,0-5.66-4.42-13.81-5.18v-1.03h0Zm1.48-2.59c-.47,0-.85.39-.85.86s.38.86.85.86.85-.39.85-.86-.38-.86-.85-.86h0Zm2.63.56c-.45,0-.81.37-.81.82s.36.82.81.82.81-.37.81-.82-.36-.82-.81-.82h0Zm4.02,2.24c-.26,0-.46.21-.46.47s.21.47.46.47.47-.21.47-.47-.21-.47-.47-.47h0Zm-1.64-1.31c-.38,0-.69.31-.69.69s.31.69.69.69.68-.31.68-.69-.31-.69-.68-.69Z" style="fill: #ffe100; fill-rule: evenodd; stroke-width: 0px;"/>
    <path d="m66.44,59.51l7.14,9.98s5.91-1.28,11.41-.98c6.11.16,12.6,2.26,12.6,2.26l6.68-11.26h-37.83Z" style="fill: #e60012; fill-rule: evenodd; stroke-width: 0px;"/>
    <path d="m97.14,189.1l-7.14-9.98s-5.91,1.28-11.4.98c-6.12-.16-12.6-2.26-12.6-2.26l-6.68,11.26h37.83Z" style="fill: #e60012; fill-rule: evenodd; stroke-width: 0px;"/>
    <path d="m73.23,73.42v-2.94s4.84-1.39,15.41-.66c0,0,1.22,7.69,2.85,12.01,0,0-1.78,1.53-2.05,3.74-.28,2.21.62,3.68.62,3.68,0,0-2.99,3.66-7.29,4.32-4.3.66-6.56-1.94-8.03-7.38,0,0-.81-2.76-1.22-7.45,0,0,.86.13,1.35.45.49.33.99.3,1.34.12.35-.18.71-.21,1.13-.18,0,0-.35.53-.75.93-.4.4-.43.52-.42.69,0,.17.34.18.73-.34.39-.52.86-.99.95-1.04.09-.06.14.06.07.43-.06.37-.44,1.91-.6,3.04-.16,1.13.37,1.62.9,1.64.53.03,1.22.38,1.69.93,0,0,.29.08.29-.28s-.34-.66-.74-1c-.4-.34-1.04-.63-1.32-.77-.28-.13-.25-.74-.08-1.52.17-.78.49-2.27.67-3.44.19-1.17.24-2.55.18-3.31-.06-.77-1.04-2.45-2.56-2.64-1.23-.16-2.38.5-3.12.98h0Zm.14,3.05c.3-.11.67-.31.88-.36.6-.15,1.78-.12,2.48.04.7.17,1.1.46,1.1.46-.31-.91-1.17-1.17-2.23-1.25-1.06-.08-1.46.46-1.67.4-.21-.06-.48-.33.19-.65.67-.32,1.7-.36,2.52-.12.82.24,1.17.78,1.45.82.28.05.36-.06.36-.06.21-.68-1.19-2.07-2.49-2.14-1.3-.08-2.7,1.28-2.7,1.28l.1,1.6h0Zm.23.98s-.25.01.03.45c.28.43.55.36.54.19-.02-.16-.45-.56-.45-.56l-.12-.08h0Zm2.97-.43c-.05.03-.13.23-.27.54-.14.31-.29.62-.6.64-.31.02-.71-.67-.83-1-.11-.33-.55-.25-.52-.04.03.2.11.72.48,1.22.37.5,1.07.56,1.53.1.46-.46.47-1.01.47-1.21s-.2-.26-.2-.26l-.07.02h0Zm.54,1.46c.59-.09.97-.58.96-.67,0-.09-.3-.27-.48-.38-.18-.11-.25-.13-.25.09s-.21.92-.21.92l-.02.04Z" style="fill: #fff; fill-rule: evenodd; stroke-width: 0px;"/>
    <path d="m90.35,175.19v2.95s-4.84,1.39-15.41.66c0,0-1.22-7.69-2.85-12.01,0,0,1.78-1.53,2.05-3.74.28-2.21-.62-3.68-.62-3.68,0,0,2.99-3.66,7.29-4.32,4.3-.66,6.56,1.94,8.03,7.38,0,0,.81,2.77,1.22,7.46,0,0-.86-.12-1.35-.45-.49-.32-.99-.3-1.34-.12-.35.18-.71.21-1.13.18,0,0,.35-.53.75-.93.4-.4.43-.52.42-.69-.01-.17-.33-.18-.73.34-.39.52-.86.99-.95,1.04-.09.06-.14-.06-.07-.43.06-.37.44-1.91.6-3.04.16-1.13-.37-1.62-.9-1.64-.53-.03-1.22-.38-1.69-.93,0,0-.29-.08-.29.28s.34.66.74,1c.4.34,1.05.63,1.32.77.28.13.25.74.08,1.52-.17.78-.49,2.27-.67,3.44-.19,1.17-.24,2.54-.18,3.31.06.77,1.04,2.44,2.56,2.64,1.23.16,2.38-.5,3.12-.98h0Zm-.14-3.05c-.3.11-.67.31-.88.36-.6.15-1.78.12-2.48-.05-.7-.17-1.11-.46-1.11-.46.32.91,1.17,1.17,2.23,1.25,1.06.08,1.46-.46,1.67-.4.21.06.48.33-.19.65-.67.32-1.7.37-2.52.12-.82-.24-1.17-.78-1.45-.82-.28-.05-.36.06-.36.06-.21.68,1.19,2.07,2.49,2.14,1.3.08,2.7-1.28,2.7-1.28l-.1-1.6h0Zm-.23-.98s.25-.01-.03-.45c-.28-.43-.55-.36-.54-.19.02.16.45.56.45.56l.12.08h0Zm-2.97.43c.05-.03.13-.23.27-.54.14-.31.29-.62.6-.64.31-.02.71.67.83,1,.11.33.55.25.52.04-.03-.2-.11-.72-.48-1.22-.37-.5-1.07-.56-1.53-.1-.46.46-.47,1.01-.47,1.21s.2.26.2.26l.07-.02h0Zm-.54-1.46c-.59.09-.97.58-.96.67,0,.09.3.27.48.38.18.11.25.13.25-.09,0-.22.21-.92.21-.92l.02-.04Z" style="fill: #fff; fill-rule: evenodd; stroke-width: 0px;"/>
    <path d="m86.78,77.1h.07s.36.21.4.38c.04.18-.09.3-.39.5-.29.2-.51.2-.51.2,0,0,.07-.3.13-.53.06-.23.22-.51.29-.56h0Zm-3.09-.39s.06.35.17.71c.11.36.47.96.98.99.51.03,1.21-.36,1.32-.88.11-.52-.09-.82-.09-.82,0,0-.28,1.03-.92,1.25-.64.22-.88-.53-1.06-1.33,0,0-.04-.12-.27-.08-.13.02-.18.05-.13.16h0Zm-1-2.75c-2.88.87-1.2.52-1.51.56-.31.04-.41-.36-.38-.74.03-.38,1.02-1,2.32-1.24,1.3-.24,3.96-.28,5.83,2.02,0,0-.32-.02-.71-.13-2.47-.69-2.68-1.34-5.56-.47h0Zm-1.45,1.35c-.23.26.38.94.5,1.11.26.37.11.57.15.92.04.35.06.84.51,1.32.45.48,1.4,1.59,1.79,1.86.38.27.97.28,1,.18.03-.1-.09-.18-.54-.7-.45-.52-.96-1.2-.96-1.2,0,0,2.41.12,2.93-.04.51-.16,1.16-.71,1.43-.73.27-.02.62.09.91.18.29.08.72.17.72-.05,0-.21-.98-1.39-1.99-1.95-1-.56-2.22-.85-3.23-.71-1.01.14-.98.41-1.6.49-.62.08-.43-.13-.43-.13.79-.69,2.19-1.2,3.06-1.14.86.06,1.78.61,2.35,1.11.57.5,1.16,1.19,1.16,1.19.13.12.42-.15.36-.24,0,0-.59-.89-1.44-1.59-.85-.7-1.58-1-2.75-1.02-1.17-.03-1.83.41-2.1.72-.27.3-.48.53-.97.57-.49.03-.85-.15-.85-.15h0Zm1.85,1.93l.14.02s.14.29.26.46c.13.17.18.44-.09.45-.27.01-.58-.27-.66-.52-.08-.25.1-.42.35-.42h0Zm-3.08,6.71l-.14.04s-.28-.28-.23-.77c.05-.49.4-.69.76-.66.36.03.62.32,1.05.54.42.22.63.3,1.09.28.46-.02.64-.38.62-.72-.02-.34-.22-.63-.49-.79-.27-.16.02-.39.32-.39s.72.39.77.83c.04.45-.02,1.51-.92,1.78-.91.26-1.65-.18-1.87-.36-.22-.18-.32-.25-.56-.19-.24.05-.27.28-.38.39h0Zm-2.91,4.72h-.12s0-2.28,0-2.28c0,0,.38.53.91.49.53-.04.55-.21.83-.45.28-.25.66-.09.76.08.1.17.45.22.7.02.25-.19.37-.45.86-.5.49-.05.72.11,1.13.29.41.18.66.18.86.02.19-.16.29-.32.41-.31.12,0,.17.39.19.72.02.33.23.83.46,1,0,0,.12.08.12.24s-.33.15-.57.1c-.24-.05-.39-.25-.87-.49-.49-.25-.59-.25-.84-.24-.25,0-.76.21-1.16.46-.41.25-.83.29-1.21.29s-.75-.17-1.07-.25c-.32-.08-.38-.08-.61-.07-.23,0-.45.35-.55.57-.09.22-.11.29-.22.31h0Zm1.28-.22c.37,1.05,1.88,1.1,2.31,1.06.76-.07,1.46-.69,1.56-.84.1-.14.14-.36-.04-.3-.19.06-.54.26-1.14.4-.6.15-1.19.11-1.64-.03-.46-.15-1.04-.29-1.04-.29h0Zm.11,2.75c-.15.01,1.06-1.16,1.95-1.16s1.95.36,2.31,1.1c0,0-.02.24-.32.27-.3.03-.93-.46-1.72-.54-.82-.08-1.42.27-2.22.33Z" style="fill: #112343; fill-rule: evenodd; stroke-width: 0px;"/>
    <path d="m76.79,171.51h-.07s-.36-.21-.4-.38c-.04-.18.09-.3.39-.5.29-.2.51-.2.51-.2,0,0-.07.3-.13.53-.06.23-.22.51-.29.56h0Zm3.09.39s-.06-.35-.17-.7c-.11-.36-.47-.96-.98-.99-.51-.03-1.21.36-1.32.88-.11.52.09.82.09.82,0,0,.28-1.03.92-1.25.64-.22.88.53,1.06,1.33,0,0,.04.12.27.08.13-.02.18-.05.13-.16h0Zm1,2.75c2.88-.87,1.2-.52,1.51-.56.31-.04.41.36.38.74-.03.38-1.02,1-2.32,1.24-1.3.24-3.96.28-5.83-2.02,0,0,.32.02.71.13,2.47.69,2.68,1.34,5.56.47h0Zm1.45-1.35c.23-.26-.39-.94-.5-1.11-.27-.37-.11-.57-.15-.92-.04-.35-.06-.84-.51-1.32-.45-.48-1.4-1.59-1.79-1.86-.38-.27-.97-.28-1-.18-.03.1.09.18.54.7.45.52.96,1.2.96,1.2,0,0-2.41-.12-2.93.04-.51.16-1.16.71-1.43.73-.27.02-.62-.09-.91-.17-.29-.08-.72-.17-.72.05,0,.21.98,1.39,1.99,1.95,1,.56,2.22.85,3.23.71,1.01-.14.98-.41,1.6-.49.62-.08.43.13.43.13-.79.69-2.19,1.2-3.06,1.14-.86-.06-1.78-.61-2.35-1.11-.57-.5-1.16-1.19-1.16-1.19-.13-.12-.42.15-.36.24,0,0,.59.89,1.44,1.59.85.7,1.58,1,2.75,1.02,1.17.03,1.83-.41,2.1-.72.27-.3.48-.53.97-.57.49-.03.85.15.85.15h0Zm-1.85-1.93l-.14-.02s-.14-.29-.26-.46c-.13-.17-.18-.44.09-.45.27-.01.58.27.66.52.08.25-.1.42-.35.42h0Zm3.08-6.71l.14-.04s.28.28.23.77c-.05.49-.4.69-.76.66-.36-.03-.62-.32-1.05-.54-.42-.22-.63-.3-1.09-.28-.46.02-.64.38-.62.72.02.34.22.63.49.79.27.16-.02.39-.32.39s-.73-.39-.77-.83c-.04-.45.02-1.51.92-1.78.91-.26,1.65.18,1.87.36.22.18.32.24.56.19.24-.05.27-.28.38-.39h0Zm2.91-4.72h.12s0,2.28,0,2.28c0,0-.38-.53-.91-.49-.53.04-.55.21-.83.45-.28.24-.66.08-.76-.09-.1-.17-.45-.22-.7-.02-.25.19-.37.45-.86.5-.49.05-.72-.11-1.13-.29-.41-.18-.66-.18-.86-.02-.19.16-.29.32-.41.31-.12,0-.17-.39-.19-.72-.02-.33-.23-.83-.46-1,0,0-.12-.08-.12-.24s.33-.15.57-.1c.24.05.39.25.87.49.49.25.59.25.84.24.25,0,.76-.21,1.16-.46.41-.25.83-.29,1.21-.29s.75.17,1.07.25c.32.08.38.08.61.07.23,0,.45-.35.55-.57.09-.22.11-.29.22-.31h0Zm-1.28.22c-.37-1.05-1.88-1.1-2.31-1.06-.76.07-1.46.69-1.56.84-.1.14-.14.36.04.3.19-.06.54-.26,1.14-.4.6-.14,1.19-.11,1.64.03.46.14,1.04.29,1.04.29h0Zm-.11-2.75c.15,0-1.06,1.16-1.95,1.16s-1.95-.36-2.31-1.1c0,0,.02-.24.32-.27.3-.03.93.46,1.72.54.82.08,1.42-.27,2.22-.33Z" style="fill: #112343; fill-rule: evenodd; stroke-width: 0px;"/>
    <path d="m96.18,92.77c-.11,0-.22-.01-.34-.02-1.07-.06-3.09-.48-4.58-2.33-1.48-1.85-1.44-3.68-1.38-4.86.06-1.18,1.08-2.76,1.81-3.29.05.2.1.4.16.6-.24.31-1.16,1.59-1.16,3.72,0,2.4,1.84,5.27,4.69,4.97.27.44.54.84.81,1.21h0Zm-3.63-7.52c-.07.28-.16.76-.15,1.31.02.84.27,2.36,1.89,3.03-.6-1.22-1.19-2.66-1.74-4.35h0Zm-.61-2.04c-.27.39-.67,1.18-.78,2.48-.17,2,.31,3.57,1.8,4.89,0,0,.98.82,2.24.69-.24-.4-.48-.84-.72-1.31-2.33-.5-2.78-3.4-2.14-5.38-.14-.44-.27-.9-.4-1.38h0Zm-2.89-13.32c.17.85.93,4.52,1.54,6.96.69,2.77,1.98,7.44,3.19,10.58,1.21,3.15,2.71,5.24,3.14,5.43,0,0,.69.02.8-.05,0,0-1.2-1.14-2.17-3.19-.97-2.05-1.73-4.17-2.85-7.92-1.03-3.45-2.43-10.56-2.65-11.68-.41-.06-.75-.1-1-.13h0Zm1.33.18c.2,1.01,1.28,6.25,2.44,10.52,1.28,4.75,1.98,6.36,2.69,8.13.71,1.77,2.33,4.29,3.83,4.44,0,0-.75-1.02-1.37-1.88-.63-.86-1.91-3.43-2.93-6.25-1.02-2.82-1.6-4.88-2.76-9.83-.75-3.18-.99-4.48-1.06-5.01-.29-.05-.57-.09-.83-.13h0Zm1.19.19c.14.74.99,5.12,1.86,8.47.96,3.67,1.69,5.75,2.49,7.66.8,1.91,2.92,6.84,4.71,6.95,0,0,.29.02.31-.19.02-.21-.35-.19-1.05-1.04-.7-.85-1.85-2.52-2.8-5.13-.95-2.61-.96-2.41-2.31-6.8-1.13-3.7-2.16-8.39-2.45-9.78-.26-.05-.51-.09-.76-.13h0Zm1.07.19c.17.61.69,2.48.94,3.5.3,1.23,1.07,4.59,2.07,7.79,1,3.2,1.94,5.65,3.04,7.88,1.1,2.24,2.26,3.27,3.06,3.38.8.12,1.24-.26,1.24-.26,0,0-.7-.18-1.95-1.47-1.25-1.29-2.58-3.66-3.48-6.01-.9-2.35-2.05-6.42-2.96-10.04-.64-2.54-.96-3.97-1.09-4.6-.29-.06-.58-.12-.87-.17h0Zm1.21.24c.14.58.45,1.9.79,3.32.45,1.89.8,3.32,1.59,6.05.79,2.73,1.13,3.83,2.37,6.67,1.24,2.83,2.33,4.12,3.41,5.02,1.08.9,1.75.72,2.43.11,0,0-1.08,0-1.89-.69-.8-.69-1.82-1.35-3.25-4.5-1.43-3.14-2.19-5.99-3.09-9.54-.7-2.75-1.22-5.24-1.41-6.23-.31-.08-.62-.15-.94-.22h0Zm1.35.32c.24,1.09.97,4.33,1.42,6.17.54,2.23.98,4.07,2.14,7.35,1.15,3.28,2.64,5.39,4.06,6.4,1.42,1.01,3.32.41,3.47-1.7.15-2.11-.91-2.84-1.95-2.8-1.04.04-1.93.62-2.12,1.55-.19.93.8,1.83,1.59,1.92.78.09,1.19-.52,1.23-1.01.04-.5-.44-.93-.93-.91-.49.02-.53.37-.83.39-.3.02-.27-.39.19-.6.46-.22,1.25-.24,1.82.56.57.8-.3,1.81-.99,1.98-.7.17-1.92-.58-2.79-2-.87-1.42-2.19-4.33-3.28-8.44-.93-3.48-1.84-7.44-2.1-8.58-.29-.09-.6-.18-.93-.27h0Zm1.23.37c.42.14.79.3,1.1.46,2.45,11.03,4.86,14.96,4.86,14.96l-.68,1.15s-1.05-1.44-2.12-5.03c-.96-3.22-2.79-10.14-3.16-11.54Z" style="fill: #ffe100; fill-rule: evenodd; stroke-width: 0px;"/>
    <path d="m67.39,155.85c.11,0,.22.01.34.02,1.07.06,3.09.48,4.58,2.33,1.48,1.85,1.44,3.68,1.38,4.86-.06,1.19-1.08,2.76-1.81,3.29-.05-.2-.1-.4-.16-.6.24-.3,1.16-1.59,1.16-3.72,0-2.41-1.84-5.27-4.69-4.97-.27-.44-.54-.84-.81-1.21h0Zm3.63,7.52c.07-.28.16-.76.15-1.31-.02-.84-.27-2.36-1.89-3.03.6,1.22,1.19,2.66,1.74,4.35h0Zm.61,2.04c.27-.39.67-1.18.78-2.48.17-2-.31-3.57-1.8-4.89,0,0-.98-.82-2.24-.69.24.4.48.84.72,1.31,2.33.5,2.78,3.4,2.14,5.38.14.44.27.9.4,1.38h0Zm2.89,13.32c-.17-.85-.93-4.52-1.54-6.96-.69-2.77-1.98-7.44-3.19-10.58-1.21-3.15-2.71-5.24-3.14-5.43,0,0-.69-.02-.8.05,0,0,1.2,1.14,2.17,3.19.97,2.05,1.73,4.17,2.85,7.92,1.03,3.45,2.43,10.56,2.65,11.68.41.06.75.1,1,.14h0Zm-1.33-.18c-.2-1.01-1.28-6.25-2.44-10.52-1.28-4.75-1.98-6.36-2.69-8.13-.71-1.77-2.33-4.29-3.83-4.44,0,0,.75,1.02,1.37,1.88.63.86,1.91,3.43,2.93,6.25,1.02,2.82,1.6,4.88,2.76,9.83.75,3.18.99,4.48,1.06,5.01.3.05.57.09.83.13h0Zm-1.19-.19c-.14-.74-.99-5.12-1.86-8.47-.96-3.67-1.69-5.75-2.49-7.66-.8-1.91-2.92-6.84-4.71-6.95,0,0-.29-.02-.31.19-.02.21.35.19,1.05,1.04.7.86,1.85,2.52,2.8,5.13.95,2.61.96,2.41,2.31,6.8,1.13,3.7,2.16,8.39,2.45,9.78.26.05.51.09.76.13h0Zm-1.07-.19c-.17-.61-.69-2.48-.94-3.5-.3-1.23-1.07-4.59-2.07-7.79-1-3.2-1.94-5.65-3.04-7.88-1.1-2.24-2.26-3.27-3.06-3.38-.8-.12-1.24.26-1.24.26,0,0,.7.18,1.95,1.47,1.26,1.29,2.58,3.66,3.48,6.01.9,2.35,2.05,6.42,2.96,10.04.64,2.54.96,3.97,1.09,4.6.29.06.58.12.87.17h0Zm-1.21-.24c-.14-.58-.45-1.9-.79-3.32-.45-1.89-.8-3.32-1.59-6.05-.79-2.73-1.13-3.83-2.37-6.67-1.24-2.83-2.33-4.12-3.41-5.02-1.08-.9-1.75-.73-2.43-.11,0,0,1.08,0,1.89.69.8.69,1.82,1.35,3.25,4.49,1.43,3.14,2.19,5.99,3.09,9.54.7,2.75,1.22,5.24,1.41,6.23.31.08.62.15.94.22h0Zm-1.35-.32c-.24-1.09-.97-4.33-1.42-6.17-.54-2.23-.98-4.07-2.14-7.35-1.15-3.28-2.64-5.39-4.06-6.4-1.42-1.01-3.32-.41-3.47,1.7-.15,2.11.91,2.84,1.95,2.8,1.04-.04,1.93-.62,2.12-1.55.19-.93-.8-1.83-1.59-1.92-.78-.09-1.19.52-1.23,1.01-.04.5.44.93.93.9.49-.02.53-.37.83-.39.3-.02.27.39-.19.6-.46.22-1.25.24-1.82-.56-.57-.8.3-1.81.99-1.98.7-.17,1.92.58,2.79,2,.87,1.42,2.19,4.33,3.28,8.44.93,3.48,1.84,7.44,2.1,8.58.29.09.6.18.93.27h0Zm-1.23-.37c-.42-.14-.79-.3-1.1-.46-2.45-11.03-4.86-14.96-4.86-14.96l.68-1.15s1.05,1.44,2.12,5.03c.96,3.22,2.79,10.14,3.16,11.54Z" style="fill: #ffe100; fill-rule: evenodd; stroke-width: 0px;"/>
    <path d="m71.79,80.16l1.21-2.95.24,2.51s-.74,2.18-1.95,2.53c-1.21.34-1.87-.73-1.61-1.29.26-.57.62-.34,1.03-.22.42.12.93.06,1.07-.57Z" style="fill: #ffe100; fill-rule: evenodd; stroke-width: 0px;"/>
    <path d="m91.78,168.45l-1.21,2.95-.24-2.51s.74-2.18,1.95-2.53c1.21-.34,1.87.73,1.61,1.29-.26.57-.62.34-1.03.22-.42-.12-.93-.06-1.07.57Z" style="fill: #ffe100; fill-rule: evenodd; stroke-width: 0px;"/>
    <path d="m77.87,92.87l-.55.74c.72.07,1.36.12,1.82.16l.08-.09c-.49-.19-.94-.46-1.35-.81h0Zm-.99-1.02c.25.31.51.59.79.84l-.78.87c-.54-.06-1.12-.13-1.71-.22l1.71-1.49h0Zm-3.56,1.16c.47.1.95.19,1.43.27l1.92-1.69c-.2-.27-.39-.56-.57-.85l-2.79,2.28h0Zm-1.88-.93c.5.48.66.65,1.32.81,1.01-.59,2.9-2.08,3.23-2.34-.12-.2-.23-.41-.34-.62-1.84,1.47-3.57,2-4.22,2.16h0Zm-1.13-1.24c.56.01,2.99-.1,4.58-2.66.18.47.38.95.6,1.41-.21.22-.86.85-1.94,1.42-.97.52-2.06.6-2.57.6-.23-.25-.46-.51-.67-.77h0Zm4.07-4.17c.1.34.22.69.34,1.04-.49,1.33-1.77,2.19-2.72,2.51-.69.24-1.48.3-1.92.32-.22-.29-.43-.6-.62-.91l-.11-.18c.57.08,2.24.23,3.36-.58,1.08-.78,1.54-1.81,1.68-2.21h0Zm-3.96-.95c.41,0,.1.37-.09.58-.3.32-.51,1.17.05,1.33.42.12,1.07-.03,1.35-.29.28-.25.17-.68-.08-1.12-.25-.44-.9-1.47-1.92-1.25-1.02.22-1.29,1.15-1.22,2.37.07,1.22.87,1.88,1.74,1.86.87-.02,1.83-.1,2.9-1.19.7-.71.96-1.51,1.06-1.98-.38-1.37-.57-2.46-.62-2.83-.11.54-.42,1.99-.71,2.8-.36,1.01-1.12,1.94-1.91,2.08-.8.14-1.37-.53-1.39-1.07s.6-1.3.86-1.3Z" style="fill: #ffe100; fill-rule: evenodd; stroke-width: 0px;"/>
    <path d="m85.7,155.74l.55-.74c-.72-.07-1.36-.12-1.82-.15l-.08.09c.49.19.94.46,1.35.81h0Zm.99,1.02c-.25-.31-.51-.59-.79-.84l.78-.87c.54.06,1.12.13,1.71.22l-1.71,1.49h0Zm3.56-1.16c-.47-.1-.95-.19-1.43-.27l-1.92,1.69c.2.27.39.56.57.85l2.79-2.28h0Zm1.88.93c-.5-.48-.66-.65-1.32-.81-1.01.59-2.9,2.08-3.23,2.34.12.2.23.41.34.62,1.83-1.47,3.56-2,4.22-2.16h0Zm1.13,1.24c-.56-.01-2.99.1-4.58,2.66-.18-.47-.38-.95-.6-1.41.21-.22.86-.85,1.94-1.42.97-.52,2.06-.6,2.57-.6.23.25.46.51.67.77h0Zm-4.07,4.17c-.1-.34-.22-.69-.34-1.04.49-1.33,1.77-2.19,2.72-2.51.69-.24,1.48-.3,1.92-.32.22.29.43.6.63.91l.11.18c-.57-.08-2.24-.23-3.36.58-1.08.78-1.54,1.81-1.68,2.21h0Zm3.96.95c-.41,0-.1-.37.09-.58.3-.32.51-1.17-.05-1.33-.42-.12-1.07.03-1.35.29-.28.25-.17.68.08,1.12.25.44.9,1.47,1.92,1.25,1.02-.22,1.29-1.15,1.22-2.37-.07-1.22-.87-1.88-1.74-1.86-.87.02-1.83.1-2.9,1.19-.7.71-.96,1.51-1.06,1.98.38,1.37.57,2.46.62,2.83.11-.54.42-1.99.71-2.8.36-1.01,1.12-1.94,1.91-2.08.8-.14,1.37.53,1.39,1.07s-.6,1.3-.86,1.3Z" style="fill: #ffe100; fill-rule: evenodd; stroke-width: 0px;"/>
    <path d="m72.96,93.28s2.19,1.7,5.33,2.64c.6-1.13,1.12-1.54,1.31-1.66-2.2-.01-4.45-.43-6.64-.98h0Zm10.43,3.19c.02-1.36-.92-2.1-1.36-2.37,0,0,.01,0,.02,0,2.88-.42,5.65-1.72,8.1-4.49.98,1.77,2.86,2.76,2.86,2.76,0,0-2.9,2.97-8.83,4-.26.05-.52.08-.78.11Z" style="fill: #fff; fill-rule: evenodd; stroke-width: 0px;"/>
    <path d="m90.62,155.33s-2.19-1.7-5.33-2.64c-.6,1.13-1.12,1.54-1.31,1.66,2.2.01,4.45.43,6.64.98h0Zm-10.43-3.19c-.02,1.36.92,2.1,1.36,2.37,0,0-.01,0-.02,0-2.88.43-5.65,1.72-8.1,4.49-.98-1.77-2.86-2.76-2.86-2.76,0,0,2.9-2.97,8.83-4,.26-.05.52-.08.78-.11Z" style="fill: #fff; fill-rule: evenodd; stroke-width: 0px;"/>
    <path d="m68.76,89.12l-3.8,2.05s4.18,6.71,11.44,9.06l1.81-3.98c-4.04-1.13-7.78-3.73-9.45-7.13Z" style="fill: #ffe100; fill-rule: evenodd; stroke-width: 0px;"/>
    <path d="m94.82,159.49l3.8-2.05s-4.18-6.71-11.44-9.06l-1.81,3.98c4.04,1.13,7.78,3.73,9.45,7.13Z" style="fill: #ffe100; fill-rule: evenodd; stroke-width: 0px;"/>
    <path d="m67.73,89.68l-1.83.98c.43.72,1.85,2.91,4.31,4.85,1.6,1.25,3.83,2.71,6.69,3.59l.71-1.55c-1.77-.52-3.49-1.37-5.14-2.58-3.95-2.9-4.11-4.01-4.74-5.29Z" style="fill: #112343; fill-rule: evenodd; stroke-width: 0px;"/>
    <path d="m95.84,158.94l1.83-.98c-.43-.72-1.85-2.91-4.31-4.85-1.6-1.26-3.83-2.71-6.69-3.59l-.71,1.55c1.77.52,3.49,1.37,5.14,2.58,3.95,2.9,4.11,4.01,4.74,5.29Z" style="fill: #112343; fill-rule: evenodd; stroke-width: 0px;"/>
    <path d="m82.22,101c.31-.02.62-.04.94-.07,11.37-1.21,15.11-6.89,15.58-7.41,0,0-.06-.32-.46-.35-.4-.03-.35.04-1.25.04s-2.14-.18-2.76-.45c-.62-.27-.74-.12-.93-.01-.19.11-2.91,2.75-8.09,3.85-.53.11-1.07.19-1.63.23l-1.39,4.17Z" style="fill: #ffe100; fill-rule: evenodd; stroke-width: 0px;"/>
    <path d="m81.36,147.61c-.31.02-.62.04-.94.07-11.37,1.21-15.11,6.89-15.58,7.41,0,0,.06.32.46.35.4.03.35-.05,1.25-.05s2.14.18,2.76.45c.62.27.74.12.93.01.19-.11,2.91-2.75,8.09-3.85.53-.11,1.07-.19,1.63-.23l1.39-4.17Z" style="fill: #ffe100; fill-rule: evenodd; stroke-width: 0px;"/>
    <path d="m82.58,99.92c1.05-.01,2.15-.11,3.3-.3,0,0,6.49-.88,11.68-6.41-.13,0-.3.01-.54.01-.72,0-1.64-.11-2.3-.3-.69.75-3.27,3.31-7.44,4.54-1.35.4-2.73.64-4.12.72l-.58,1.74Z" style="fill: #112343; fill-rule: evenodd; stroke-width: 0px;"/>
    <path d="m81,148.69c-1.05.01-2.15.11-3.3.3,0,0-6.49.89-11.68,6.41.13,0,.3-.01.54-.01.72,0,1.64.12,2.3.3.69-.75,3.27-3.31,7.44-4.54,1.35-.4,2.73-.64,4.12-.72l.58-1.74Z" style="fill: #112343; fill-rule: evenodd; stroke-width: 0px;"/>
    <path d="m82.63,98.24l-.05.13s-.62,1.5-1.08,3.35c-.31,1.22-.44,2.1-.57,3-.15-.35-.33-.74-.47-.98-.11-.19-.18-.3-.33-.33h0c-.15-.02-.26.06-.42.24-.15.16-.32.4-.5.63h0c-.15.2-.3.4-.43.55-.02.03-.04.06-.07.09,0,0-.02.02-.02.03,0-.33,0-.91.03-1.6.9-1.35,1.93-3.06,2.12-3.37.04-.07.1-.15.15-.24.37-.57.92-1.42.74-2.39-.07-.38-.24-.66-.46-.85-.13-.1-.27-.17-.42-.21h0c-.15-.04-.31-.04-.46,0h0c-.3.06-.59.24-.83.55-.32.42-.55.92-.72,1.53-.17.6-.29,1.3-.37,2.13-.07.69-.12,1.44-.16,2.14,0,.19-.02.38-.02.56-.04.06-.08.12-.12.17-.48.71-.88,1.26-.99,1.3-.05.02.06-.04.05-.08-.05-.16-.08-.4-.12-.67-.09-.64-.19-1.39-.6-1.65-.25-.15-.52-.14-.78-.06.25-.34.46-.6.54-.76.32-.57.75-1.44,1.41-2.91.66-1.47.83-2.09,1.41-3.02.58-.93,1.18-1.1,1.86-1.03.68.06,1.47.49,1.83,1.32.36.83.09,1.69-.16,2.42h0Zm-1.82,7.34c-.12-.29-.5-1.19-.73-1.6-.04-.07.03-.09-.01-.1-.05,0,.03.04-.02.09-.12.14-.3.37-.47.61h0c-.15.19-.3.39-.44.57,0,0-.03.03-.05.06-.1.15-.27.37-.45.39h0c-.18.03-.32-.06-.36-.35,0-.04-.01-.08-.01-.12h0s0-.08,0-.13c0-.22,0-.55.01-.95-.42.59-.77,1.02-.94,1.08-.27.09-.42-.08-.51-.38-.06-.19-.1-.46-.13-.74-.07-.54-.16-1.17-.39-1.31-.37-.23-.96.28-1.17.48-.48.82-.9,1.86-.85,3.07.09,2.42,2.15,3.84,3.79,3.47,1.65-.36,2.41-2,2.66-3.54.03-.21.06-.4.09-.59h0Zm-.75-1.7h0,0Zm-1.29-1.4c.77-1.2,1.54-2.47,1.7-2.73.05-.08.1-.17.16-.26.33-.51.82-1.27.67-2.04-.05-.26-.16-.45-.3-.57-.07-.06-.16-.1-.25-.12h0c-.09-.02-.19-.02-.28,0h0,0,0c-.2.04-.39.17-.56.39-.28.37-.49.82-.64,1.37-.16.57-.27,1.24-.36,2.04-.06.6-.11,1.27-.14,1.92Z" style="fill: #ffe100; fill-rule: evenodd; stroke-width: 0px;"/>
    <path d="m80.95,150.37l.05-.13s.62-1.5,1.08-3.35c.31-1.22.44-2.1.57-3,.15.35.33.74.47.98.11.19.18.3.33.32h0c.15.02.26-.06.42-.24.15-.16.32-.4.5-.63h0c.15-.2.3-.4.43-.55.02-.03.04-.06.07-.09,0-.01.02-.02.02-.03,0,.33,0,.91-.03,1.6-.89,1.35-1.93,3.06-2.12,3.37-.04.07-.1.15-.15.24-.37.57-.92,1.42-.74,2.39.07.38.24.66.46.85.13.1.27.17.42.21h0c.15.04.31.04.47,0h0c.3-.06.59-.24.83-.55.32-.42.55-.92.72-1.53.17-.6.28-1.3.37-2.13.07-.69.12-1.44.16-2.15,0-.19.02-.38.02-.56.04-.06.08-.12.12-.18.48-.71.88-1.26.99-1.3.05-.02-.06.04-.05.08.05.16.08.4.12.67.09.64.19,1.39.6,1.65.25.15.52.14.78.06-.25.34-.46.6-.54.76-.32.57-.75,1.44-1.41,2.91-.66,1.47-.83,2.09-1.41,3.02-.58.93-1.18,1.1-1.86,1.04-.68-.07-1.47-.49-1.83-1.32-.36-.83-.09-1.69.16-2.42h0Zm1.82-7.34c.12.29.5,1.19.73,1.6.04.07-.03.09.01.1.05,0-.03-.04.02-.09.12-.14.3-.37.47-.61h0c.15-.19.3-.39.44-.57,0,0,.03-.04.05-.07.11-.15.27-.37.45-.39h0c.18-.03.32.06.36.35,0,.04.01.08.01.12h0s0,.08,0,.13c0,.22,0,.55-.01.95.42-.59.77-1.02.95-1.08.27-.09.42.08.51.38.06.19.1.46.13.74.07.54.16,1.17.39,1.31.37.23.96-.28,1.17-.48.48-.82.9-1.86.85-3.07-.09-2.43-2.15-3.84-3.79-3.47-1.65.36-2.41,2-2.66,3.54-.03.21-.06.4-.09.59h0Zm.75,1.7h0,0Zm1.29,1.4c-.77,1.2-1.54,2.47-1.7,2.73-.05.08-.1.17-.16.26-.33.51-.82,1.27-.67,2.04.05.26.16.45.3.57.07.06.16.1.25.12h0c.09.02.19.02.28,0h0,0,0c.2-.04.39-.17.56-.39.28-.37.49-.82.64-1.37.16-.57.27-1.24.36-2.04.06-.6.11-1.27.14-1.92Z" style="fill: #ffe100; fill-rule: evenodd; stroke-width: 0px;"/>
    <path d="m54.66,96.87l-2.52,1.39v1.99c1.02-1.08,1.97-2.51,2.52-3.38Z" style="fill: #fff; fill-rule: evenodd; stroke-width: 0px;"/>
    <path d="m57.86,95.11l-2.4,1.32c-.33.57-1.78,2.99-3.33,4.48v2.71c3.4-3.33,5.08-6.88,5.73-8.51h0Zm4.38-2.41c-1.01,2.27-4.4,9.22-10.1,14.56v-2.99c4.09-3.87,5.86-8.14,6.34-9.5l3.76-2.07h0Zm2.35-1.29c-4.7,10.98-12.45,18.12-12.45,18.12v-1.64c6.54-5.97,10.16-14.12,10.76-15.55l1.69-.93Z" style="fill: #ffe100; fill-rule: evenodd; stroke-width: 0px;"/>
    <path d="m108.92,151.74l2.52-1.39v-1.99c-1.02,1.08-1.97,2.51-2.52,3.38Z" style="fill: #fff; fill-rule: evenodd; stroke-width: 0px;"/>
    <path d="m105.72,153.51l2.4-1.32c.33-.57,1.78-2.99,3.33-4.48v-2.71c-3.4,3.33-5.08,6.88-5.73,8.51h0Zm-4.38,2.41c1.01-2.27,4.4-9.22,10.1-14.56v2.99c-4.09,3.87-5.86,8.14-6.34,9.49l-3.76,2.07h0Zm-2.35,1.29c4.7-10.98,12.45-18.12,12.45-18.12v1.64c-6.54,5.97-10.16,14.12-10.76,15.55l-1.69.93Z" style="fill: #ffe100; fill-rule: evenodd; stroke-width: 0px;"/>
    <path d="m65.42,92.51l-.72.19v2.38s-1.92.78-1.92.78v2.8s-1.84.49-1.84.49v3.1s-2.31.24-2.31.24l-.16,2.79-2.15.3-.34,2.72h-2.03s-.79,2.36-.79,2.36l-1.45-.04v1.83h2.26s.85-2.69.85-2.69h2.47s.25-2.83.25-2.83l2.51-.38.11-2.65,2.16-.52v-3.06s2.14-.61,2.14-.61l-.04-2.87,1.69-.69v-2.34h.3c-.56-.67-.89-1.14-.99-1.28Z" style="fill: #fff; fill-rule: evenodd; stroke-width: 0px;"/>
    <path d="m98.16,156.1l.72-.19v-2.38s1.92-.78,1.92-.78v-2.8s1.84-.49,1.84-.49v-3.1s2.31-.24,2.31-.24l.16-2.79,2.15-.3.34-2.72h2.03s.79-2.36.79-2.36l1.45.04v-1.83h-2.26s-.85,2.69-.85,2.69h-2.47s-.25,2.83-.25,2.83l-2.51.38-.11,2.65-2.16.52v3.06s-2.14.61-2.14.61l.04,2.87-1.69.69v2.34h-.3c.56.67.89,1.14.99,1.28Z" style="fill: #fff; fill-rule: evenodd; stroke-width: 0px;"/>
    <path d="m61.97,105.75l3.22-4.89.26,12.72s-.75-2.79-3.48-7.83Z" style="fill: #e60012; fill-rule: evenodd; stroke-width: 0px;"/>
    <path d="m101.6,142.86l-3.22,4.89-.26-12.72s.75,2.79,3.48,7.83Z" style="fill: #e60012; fill-rule: evenodd; stroke-width: 0px;"/>
    <path d="m70.13,117.49l.09.16,2.69-4.66s.76-1.42,1.36-2.18c.6-.77.76-1.05.79-1.26.03-.21-.12-.49-.5-.44-.38.06-.88.93-1.25,1.4-.37.46-1.01,1.29-2.07,3-1.06,1.71-1.09,2-1.23,2.4-.14.4.12,1.57.12,1.57Z" style="fill: #ffe100; fill-rule: evenodd; stroke-width: 0px;"/>
    <path d="m93.45,131.13l-.09-.16-2.69,4.66s-.76,1.42-1.36,2.18c-.6.77-.76,1.05-.79,1.26-.03.21.12.49.5.44.38-.06.88-.93,1.25-1.4.37-.46,1.01-1.29,2.07-3,1.06-1.71,1.09-2,1.23-2.4.14-.4-.12-1.57-.12-1.57Z" style="fill: #ffe100; fill-rule: evenodd; stroke-width: 0px;"/>
    <path d="m74.88,59.51l1.69,5.01-2.08.66-3.22-5.67h-2.06s4.48,7.82,4.48,7.82c1.36-.33,3.15-.66,5.35-.86l-2.21-6.96h-1.95Zm14.7,0l-.49,5.31c-2.54-.47-6.72-.38-6.72-.38l-1.26-4.92h-1.83s1.75,6.83,1.75,6.83c2.67-.11,5.82,0,9.4.51l.99-7.34h-1.85Zm10.6,0l-3.47,6.77-2.46-.76,1.31-6.01h-1.87s-1.38,7.64-1.38,7.64c1.72.31,3.54.71,5.44,1.23l4.69-8.87h-2.25Z" style="fill: #fff; fill-rule: evenodd; stroke-width: 0px;"/>
    <path d="m88.7,189.1l-1.69-5.01,2.08-.66,3.22,5.67h2.06s-4.48-7.82-4.48-7.82c-1.36.33-3.15.66-5.35.86l2.21,6.96h1.95Zm-14.7,0l.49-5.31c2.54.47,6.72.38,6.72.38l1.26,4.92h1.83s-1.75-6.83-1.75-6.83c-2.67.11-5.82,0-9.4-.51l-.99,7.34h1.85Zm-10.6,0l3.47-6.77,2.46.76-1.31,6.01h1.87s1.38-7.64,1.38-7.64c-1.72-.31-3.54-.71-5.44-1.23l-4.69,8.87h2.26Z" style="fill: #fff; fill-rule: evenodd; stroke-width: 0px;"/>
    <path d="m73.44,112.94c.88-1.39,1.82-2.98,2.36-3.14.54-.16,1.29-.18,1.21.34-.08.52-.46,1.43-.97,2.19-.52.76-1.26,1.85-2.06,2.83-.8.98-1.65,1.98-1.94,2.58-.29.6-.33,1-.33,1.46s-.35,1.33-.84,1.35c-.49.02-.81-.73-.67-1.54.24-1.36,2.56-4.99,3.24-6.07Z" style="fill: #e60012; fill-rule: evenodd; stroke-width: 0px;"/>
    <path d="m90.14,135.68c-.88,1.39-1.83,2.98-2.36,3.14-.54.16-1.29.18-1.21-.34.08-.52.46-1.43.97-2.19.52-.76,1.26-1.85,2.06-2.83.8-.98,1.65-1.98,1.94-2.58.29-.6.33-1,.33-1.46s.35-1.33.84-1.35c.49-.02.82.73.67,1.54-.24,1.36-2.56,4.99-3.24,6.07Z" style="fill: #e60012; fill-rule: evenodd; stroke-width: 0px;"/>
    <path d="m73.28,118.28l-.58-.73c-.91,1.55-.8,2.25-.8,2.25v.03s1.38-1.55,1.38-1.55h0Zm.78-.87l-.47.52-.63-.8c.12-.19.26-.39.41-.6l.69.88h0Zm.86-.96l-.75-.95s-.05.06-.08.09c-.16.19-.3.37-.44.55l.72.91.55-.61h0Zm.9-.99l-.58.65-.77-.97c.2-.24.39-.47.56-.69l.79,1h0Zm1.08-1.2l-.88-1.11c-.2.28-.43.58-.7.93l.81,1.03.77-.85h0Zm.9-.99l-.58.65-.91-1.16c.19-.29.34-.55.47-.79l1.03,1.3h0Zm1.02-1.14l-1.31-1.65c-.08.03-.15.05-.23.08-.09.34-.18.64-.3.95l1.12,1.42.71-.79h0Zm.86-.95l-.54.61-1.17-1.48c.16-.07.31-.15.46-.23.09-.04.18-.09.28-.13l.98,1.24h0Zm.83-.93l-.78-.99c-.2.17-.41.32-.62.45l.89,1.12.52-.58h0Zm.97-1.08l-.66.74-.77-.97s.02-.03.04-.04c.22-.25.4-.52.54-.8l.85,1.07h0Zm1.03-1.15l-1.31-1.65c-.08.41-.19.84-.36,1.26l.94,1.19.72-.8h0Zm.93-1.03l-.61.68-1.52-1.93c.02-.19.04-.37.05-.54.02-.21.04-.41.05-.62h0s.01-.09.02-.14l2.01,2.55h0Zm.96-1.07l-.65.72-2.26-2.86c.02-.22.04-.45.05-.67,0,0,0-.3.12-.65l2.74,3.46h0Zm.88-.98l-2.38-3.1c-.31.02-.62.02-.94.02-.03.04-.05.08-.08.12l2.84,3.59.57-.63h0Zm.99-1.1l-1.78-2.14c-.34.04-.68.08-1.03.11l2.14,2.79.67-.75h0Zm.79-.88l-.48.53-1.56-1.87c.27-.04.54-.09.81-.14l1.23,1.48h0Zm.75-.84l-.77-.92c-.23.06-.47.11-.71.17l1.03,1.24.44-.49h0Zm1.44-1.6l-1.13,1.25-.58-.7c.62-.17,1.2-.36,1.71-.55h0Zm-13.09.29c-.2-.08-.4-.16-.6-.24l-5.46,4.3v.87s5.88-4.64,5.88-4.64c.06-.1.12-.2.18-.29h0Zm-1.08-.45l-4.97,3.91v-.88s4.15-3.43,4.15-3.43c.27.14.54.27.82.39h0Zm-1.27-.62l-3.69,3.05v-.86s3.02-2.55,3.02-2.55c.22.12.44.25.67.37h0Zm-1.09-.61l-2.58,2.19v-.89s1.92-1.7,1.92-1.7c.22.14.44.27.66.4h0Zm-1.06-.66c-.14-.09-.27-.18-.4-.27l-1.09.99v.61s1.49-1.33,1.49-1.33h0Zm-.79-.54l-.69.62v-1.11c.23.16.46.32.69.49h0Zm-.78,8.41l5.21-4.1c-.18.29-.38.62-.6.98-.14.23-.27.46-.37.68l-4.25,3.35v-.9h.01Zm-.02,1.5l3.93-3.09c-.14.47-.2.9-.21,1.29l-3.74,2.94v-1.13h.01Zm-.02,1.73v.72s3.89-3.07,3.89-3.07c-.05-.19-.09-.4-.12-.62l-3.77,2.97h0Zm-.02,1.32v1.08s4.31-3.4,4.31-3.4l.14-.2s-.2-.24-.38-.68l-4.07,3.2h0Zm-.02,1.68l3.47-2.73-1.07,1.58-2.41,1.89v-.74h0Zm-.02,1.33v1.07s.31-.47.31-.47l-.21-.26.36-.29.12.16.41-.6-.07-.09.31-.25.32-.47-1.55,1.22Z" style="fill: #fff; fill-rule: evenodd; stroke-width: 0px;"/>
    <path d="m90.29,130.34l.58.73c.91-1.55.8-2.25.8-2.25v-.03s-1.38,1.55-1.38,1.55h0Zm-.78.87l.47-.52.63.8c-.12.19-.26.39-.41.6l-.69-.88h0Zm-.86.96l.75.95s.05-.06.08-.09c.16-.19.3-.38.44-.55l-.72-.91-.55.61h0Zm-.89.99l.58-.65.77.97c-.2.24-.39.47-.55.69l-.79-1h0Zm-1.08,1.2l.88,1.11c.2-.28.43-.58.7-.93l-.81-1.03-.77.85h0Zm-.9,1l.58-.65.92,1.16c-.19.29-.35.55-.47.79l-1.03-1.3h0Zm-1.02,1.14l1.31,1.65c.08-.03.15-.05.23-.08.08-.34.18-.64.3-.95l-1.12-1.42-.71.79h0Zm-.86.95l.54-.6,1.17,1.48c-.16.07-.31.15-.46.23-.09.04-.18.09-.28.14l-.98-1.24h0Zm-.83.93l.78.99c.2-.17.41-.32.62-.45l-.89-1.12-.52.58h0Zm-.98,1.08l.66-.74.77.97s-.02.03-.04.04c-.22.25-.4.52-.54.8l-.85-1.07h0Zm-1.03,1.15l1.31,1.65c.08-.41.19-.84.36-1.26l-.94-1.19-.72.8h0Zm-.93,1.03l.61-.68,1.53,1.93c-.02.19-.04.37-.06.54-.02.21-.04.41-.05.62h0s-.01.09-.02.14l-2.01-2.55h0Zm-.96,1.07l.65-.72,2.26,2.86c-.02.22-.04.45-.05.67,0,0,0,.3-.12.65l-2.74-3.46h0Zm-.88.98l2.38,3.1c.31-.02.62-.02.94-.02.03-.04.05-.08.08-.12l-2.84-3.59-.57.63h0Zm-.99,1.1l1.78,2.14c.34-.04.68-.08,1.03-.11l-2.14-2.79-.67.75h0Zm-.79.88l.48-.53,1.56,1.87c-.27.04-.54.09-.81.14l-1.23-1.48h0Zm-.75.84l.76.92c.23-.06.47-.11.71-.17l-1.03-1.24-.44.49h0Zm-1.44,1.6l1.12-1.25.59.7c-.62.17-1.19.36-1.71.55h0Zm13.09-.29c.2.08.4.16.6.24l5.46-4.3v-.87s-5.88,4.64-5.88,4.64c-.06.1-.12.2-.18.29h0Zm1.08.45l4.97-3.91v.88s-4.15,3.43-4.15,3.43c-.27-.14-.54-.27-.82-.39h0Zm1.27.62l3.69-3.05v.86s-3.02,2.55-3.02,2.55c-.22-.12-.44-.25-.67-.37h0Zm1.09.61l2.58-2.19v.89s-1.92,1.7-1.92,1.7c-.22-.14-.44-.27-.66-.4h0Zm1.06.66c.14.09.27.18.4.27l1.09-.99v-.61s-1.49,1.33-1.49,1.33h0Zm.79.54l.69-.62v1.11c-.23-.16-.46-.32-.69-.48h0Zm.78-8.41l-5.21,4.1c.18-.29.38-.62.6-.98.14-.23.27-.46.37-.68l4.25-3.35v.9h-.01Zm.02-1.49l-3.93,3.09c.14-.47.2-.9.21-1.29l3.74-2.94v1.13h-.01Zm.02-1.73v-.72s-3.89,3.07-3.89,3.07c.05.19.09.4.12.62l3.77-2.97h0Zm.02-1.32v-1.08s-4.31,3.4-4.31,3.4l-.14.2s.2.24.38.68l4.07-3.2h0Zm.02-1.68l-3.47,2.73,1.07-1.58,2.41-1.89v.74h0Zm.02-1.33v-1.07s-.31.47-.31.47l.21.26-.36.29-.12-.16-.41.6.07.09-.31.25-.32.47,1.55-1.22Z" style="fill: #fff; fill-rule: evenodd; stroke-width: 0px;"/>
    <path d="m68.6,96.21v21.47s.85.87.85.87l.25-21.47c-.4-.3-.76-.6-1.09-.87h0Zm3.08,24.64l.58.59,19.68-22.12c-.32.18-.94.5-1.8.86l-18.46,20.67Z" style="fill: #fff; fill-rule: evenodd; stroke-width: 0px;"/>
    <path d="m94.98,152.4v-21.47s-.85-.87-.85-.87l-.25,21.47c.4.3.76.6,1.09.87h0Zm-3.08-24.64l-.58-.59-19.68,22.12c.32-.18.94-.5,1.8-.86l18.46-20.67Z" style="fill: #fff; fill-rule: evenodd; stroke-width: 0px;"/>
    <path d="m68.79,74.4c-7.24-4.29-9.45-13.06-9.45-13.06,0,0-2.21,8.77-9.45,13.06,7.24,4.29,9.45,13.06,9.45,13.06,0,0,2.21-8.77,9.45-13.06Z" style="fill: #e60012; fill-rule: evenodd; stroke-width: 0px;"/>
    <path d="m94.78,174.21c7.24,4.29,9.45,13.06,9.45,13.06,0,0,2.21-8.77,9.45-13.06-7.24-4.29-9.45-13.06-9.45-13.06,0,0-2.21,8.77-9.45,13.06Z" style="fill: #e60012; fill-rule: evenodd; stroke-width: 0px;"/>
    <path d="m47.11,62.82c0-1.61,1.08-2.93,2.39-2.93h64.57c1.32,0,2.39,1.32,2.39,2.93v122.97c0,1.61-1.08,2.93-2.39,2.93H49.5c-1.32,0-2.39-1.32-2.39-2.93V62.82Z" style="fill: none; fill-rule: evenodd; stroke: #231815; stroke-miterlimit: 22.93; stroke-width: 1.5px;"/>
    <path d="m37.18,81.89c-11.26-6.58-14.69-20.04-14.69-20.04,0,0-3.43,13.45-14.7,20.04,11.26,6.58,14.7,20.04,14.7,20.04,0,0,3.43-13.45,14.69-20.04Z" style="fill: #e60012; fill-rule: evenodd; stroke-width: 0px;"/>
    <path d="m17.73,4.6h19.6v5.61h-5.69s0,32.63,0,32.63c0,3.48-1.32,6.65-3.45,8.96-2.18,2.37-5.21,3.85-8.55,3.85-.47,0-.85-.01-1.15-.04-7.69-.68-11.38-7.7-10.77-14.6l5.61.48c-.36,4.05,1.56,8.15,5.64,8.51.3.02.52.04.66.04,1.71,0,3.28-.78,4.43-2.03,1.21-1.31,1.95-3.14,1.95-5.17V10.21s-8.29,0-8.29,0v-5.61Z" style="fill: #e60012; stroke-width: 0px;"/>
  </g>
</svg>