<?xml version="1.0" encoding="UTF-8"?>
<svg id="_图层_2" data-name="图层 2" xmlns="http://www.w3.org/2000/svg" viewBox="0 0 163.57 248.61">
  <g id="_图层_1-2" data-name="图层 1">
    <path d="m1,6.6c0-3.08,2.51-5.6,5.57-5.6h150.43c3.06,0,5.57,2.52,5.57,5.6v235.41c0,3.08-2.51,5.6-5.57,5.6H6.57c-3.06,0-5.57-2.52-5.57-5.6V6.6Z" style="fill: #fff; fill-rule: evenodd; stroke: #231815; stroke-miterlimit: 22.93; stroke-width: 2px;"/>
    <path d="m126.59,166.48c11.26,6.58,14.69,20.04,14.69,20.04,0,0,3.43-13.45,14.7-20.04-11.26-6.58-14.7-20.04-14.7-20.04,0,0-3.43,13.45-14.69,20.04Z" style="fill: #e60012; fill-rule: evenodd; stroke-width: 0px;"/>
    <path d="m140.55,243.77c-6.94,0-12.62-5.68-12.62-12.62v-25.6c0-1.53.28-3,.78-4.36-.85-.61-1.73-.87-2.87-.81l-.26-5.61c2.8-.14,4.67.38,6.34,1.6,2.26-2.13,5.3-3.44,8.63-3.44,6.94,0,12.62,5.68,12.62,12.62v7.52c2.02.17,3.41.05,3.42.05l.39,5.61s-1.53.14-3.82-.04v12.46c0,6.94-5.68,12.62-12.62,12.62h0Zm0-5.61c3.85,0,7.01-3.16,7.01-7.01v-13.41c-3.88-1.05-8.2-3.13-11.34-7.19-1.15-1.49-1.98-2.6-2.68-3.56v24.16c0,3.86,3.16,7.01,7.01,7.01h0Zm7.01-26.26v-6.35c0-3.86-3.16-7.01-7.01-7.01-1.87,0-3.57.74-4.83,1.94.53.7,1.08,1.46,1.69,2.3,1.02,1.4,2.19,3.01,3.24,4.36,1.88,2.43,4.42,3.9,6.91,4.77Z" style="fill: #e60012; stroke-width: 0px;"/>
    <g>
      <path d="m110.2,134.07l-7.36,8.51s1.62,1.97,2.57,2.82c0,0-2.12.08-3.21,1.38-1.09,1.31-.89,3.37-.89,3.37l.48.18s1.37-1.85,5.03-2.52l.27,1.53s-1.52-.07-2.33.56c-.81.64-.7,2.04-.63,2.9.07.86.16,1.74.16,1.74,0,0-1.09.44-1.46.88l1.27.44s.02,1.02.02,1.92.85,2.22,2.45,2.24c1.59.02,2.26-.48,2.26-.48l.58,1.18.74-1.71s1.54.52,2.51-.37c.97-.89,1.16-3.25.13-4.65l1.47-.31-1.34-.74s.37-1.76-.45-3.08c0,0,1.68.35,2.42.35s.75-.42.75-.79c0-.37-.4-1.82-1.58-2.16-1.19-.35-2.61-.44-2.61-.44l-.02-.3s2.4.28,2.42-1.72c0,0,1.42-.66.76-2.76,0,0,1.44-1.19.32-2.88,0,0,.45-.97-.09-1.78-.54-.81-.69-.81-.69-.81,0,0,.5-1.49.81-3.01.31-1.52-.19-2.33-.77-2.33s-1.39.94-1.78,1.99c-.38,1.05-.4,2.35-.4,2.35,0,0-1.56-1.49-1.81-1.49Z" style="fill: #112343; fill-rule: evenodd; stroke-width: 0px;"/>
      <path d="m53.38,114.54l7.36-8.51s-1.62-1.97-2.57-2.82c0,0,2.12-.08,3.21-1.38,1.09-1.3.89-3.37.89-3.37l-.48-.18s-1.37,1.85-5.03,2.52l-.27-1.53s1.52.07,2.33-.56c.81-.64.7-2.04.63-2.9-.07-.86-.16-1.74-.16-1.74,0,0,1.09-.44,1.46-.88l-1.27-.44s-.02-1.02-.02-1.92-.85-2.22-2.45-2.24c-1.59-.02-2.26.49-2.26.49l-.58-1.18-.74,1.71s-1.54-.52-2.51.37c-.97.89-1.16,3.25-.13,4.65l-1.47.31,1.34.74s-.37,1.76.45,3.08c0,0-1.68-.35-2.42-.35s-.75.42-.75.79c0,.37.4,1.82,1.58,2.16,1.19.35,2.61.44,2.61.44l.02.3s-2.4-.28-2.42,1.72c0,0-1.42.66-.76,2.76,0,0-1.44,1.19-.32,2.88,0,0-.45.97.09,1.78.54.81.69.81.69.81,0,0-.5,1.49-.81,3.01-.31,1.52.19,2.33.77,2.33s1.39-.94,1.77-1.99c.38-1.05.4-2.35.4-2.35,0,0,1.56,1.49,1.81,1.49Z" style="fill: #112343; fill-rule: evenodd; stroke-width: 0px;"/>
      <path d="m74.85,90.45l4.39-4.79c-.59-.75-.93-3.24-1.13-6.13-1.02,1.01-3.02,3.87-3.26,10.92Z" style="fill: #e60012; fill-rule: evenodd; stroke-width: 0px;"/>
      <path d="m77.82,68.75c-1.32,1.32-4.04,4.48-6.22,9.9-2.89,7.17-3.02,13.1-3.03,18.65l6.28-6.86c.23-7.05,2.24-9.92,3.26-10.92-.28-3.96-.28-8.69-.28-10.77Z" style="fill: #112343; fill-rule: evenodd; stroke-width: 0px;"/>
      <path d="m88.73,158.16l-4.39,4.79c.59.75.93,3.24,1.14,6.13,1.02-1.01,3.02-3.87,3.25-10.92Z" style="fill: #e60012; fill-rule: evenodd; stroke-width: 0px;"/>
      <path d="m85.76,179.86c1.32-1.32,4.03-4.48,6.22-9.9,2.89-7.17,3.02-13.1,3.03-18.65l-6.28,6.86c-.23,7.05-2.24,9.92-3.25,10.92.28,3.96.28,8.69.28,10.77Z" style="fill: #112343; fill-rule: evenodd; stroke-width: 0px;"/>
      <path d="m47.11,120.74l32.13-35.08c-1.46-1.87-1.42-14.39-1.42-17.35,0-2.49.04-7.32.05-8.79h34.28c-.19,2.21-.79,12.34,2.91,20.28l-6.66,1.57,8.08,11.61v34.91s-32.13,35.08-32.13,35.08c1.46,1.87,1.42,14.39,1.42,17.35,0,2.49-.04,7.31-.05,8.79h-34.28c.19-2.21.8-12.34-2.91-20.28l6.67-1.57-8.08-11.61v-34.91Z" style="fill: #112343; fill-rule: evenodd; stroke-width: 0px;"/>
      <path d="m74.46,124.35c-.58-7.76-3.23-11.78-3.23-11.78l2.43-9.93c2.08.86,11.65,4.35,23.12,1.38-7.87,7.58-7.87,17.3-7.66,20.33.59,7.7,3.22,11.69,3.22,11.69l-2.43,9.93c-2.08-.86-11.65-4.35-23.12-1.38,7.79-7.51,7.87-17.11,7.66-20.24Z" style="fill: #112343; fill-rule: evenodd; stroke-width: 0px;"/>
      <path d="m93.12,59.51l14.67,21.21,6.21-1.57s-3.77-8.46-2.58-19.64h-18.3Z" style="fill: #112343; fill-rule: evenodd; stroke-width: 0px;"/>
      <path d="m70.45,189.1l-14.67-21.21-6.21,1.57s3.77,8.46,2.58,19.64h18.3Z" style="fill: #112343; fill-rule: evenodd; stroke-width: 0px;"/>
      <path d="m100.03,59.51c.04.38.08.85.12,1.42.22,2.66,1.19,3.09,1.59,3.35.4.26.82.19.82-.03s-.66-.61-.74-1.55c-.08-.94.42-1.65,1.12-1.65s1.26.79,1.26.79c0,0,.3-.99,1.68-.88,1.38.11,1.47,1.3,1.47,1.3.22,1.52-1.37,2.24-1.37,2.24,0,0,.47.39.29,1.41-.18,1.03-1.06,1.09-1.61,1.01-.55-.07-.84-.86-.88-1.2s-.17-.75-.49-.73c-.32.02-.23.53-.23.53.09,1.13,1.66,2.78,1.98,3.19.32.41.25.77.82,1.91.57,1.14,1.31,1.36,1.6,1.36s.11-.55.11-.55c0,0-.71-.52-.91-1.3-.2-.79-.07-1.57.94-1.59,1.01-.02,1.95.93,1.95.93.44-.74,1.4-.82,1.97-.26-.35-2.83-.47-6.12-.09-9.69h-11.4Zm-4.71,0h1.38c.14.69.39,1.68.85,2.71.84,1.88,3.05,3.46,3.99,3.71,0,0-.02,1.98.65,3.72l-6.87-10.14h0Zm1.84,0h.81c.12.58.3,1.32.58,1.93.56,1.18,1.59,2.88,4.04,3.92,0,0-.49,4.27,5.3,7.12-.16,2.24,1.13,5.34,3.57,7.31l-.98.25c-.71-.62-3.22-3.08-3.1-6.77,0,0-3.45-.89-4.61-3.5-1.16-2.62-.71-4.05-.71-4.05,0,0-4.1-1.44-4.9-6.21h0Zm6.4,12.17c1.16,1.06,2.69,1.72,3.38,1.85,0,0-.07,4.4,3.07,6.62l-.6.15-5.85-8.63h0Zm9.44,7.72c-.49-.26-1.65-1.02-2.05-2.7,0,0-1.87-.54-2.4-2.66,0,0-.26-1.28.33-1.45,0,0-.17,1.38.59,1.77.76.39,1.81.15,1.91-.87.09-1.02-.3-1.45-.3-1.45l.72-.86c.83,4.9,2.2,7.98,2.2,7.98l-1,.25Z" style="fill: #ffe100; fill-rule: evenodd; stroke-width: 0px;"/>
      <path d="m63.55,189.1c-.04-.38-.08-.85-.12-1.42-.22-2.66-1.19-3.09-1.59-3.35-.4-.26-.82-.19-.82.03,0,.22.66.61.74,1.55.08.94-.42,1.65-1.12,1.65s-1.27-.79-1.27-.79c0,0-.3.99-1.68.88-1.38-.11-1.47-1.3-1.47-1.3-.22-1.52,1.37-2.24,1.37-2.24,0,0-.47-.39-.29-1.41.18-1.03,1.06-1.08,1.61-1.01.55.07.83.86.88,1.2.05.34.17.75.49.73.32-.02.23-.53.23-.53-.08-1.12-1.66-2.78-1.98-3.19-.32-.41-.25-.77-.82-1.91-.57-1.14-1.31-1.35-1.6-1.35s-.11.55-.11.55c0,0,.71.52.91,1.3.2.78.07,1.57-.94,1.59-1.01.02-1.95-.93-1.95-.93-.44.74-1.4.81-1.97.26.35,2.83.47,6.12.09,9.69h11.4Zm4.71,0h-1.38c-.14-.69-.39-1.68-.85-2.71-.84-1.88-3.05-3.46-3.99-3.71,0,0,.02-1.98-.65-3.72l6.87,10.14h0Zm-1.84,0h-.81c-.12-.58-.3-1.32-.58-1.93-.56-1.18-1.59-2.88-4.04-3.92,0,0,.49-4.27-5.3-7.12.16-2.24-1.13-5.34-3.57-7.31l.98-.25c.71.62,3.22,3.08,3.1,6.77,0,0,3.45.89,4.61,3.5,1.16,2.62.71,4.04.71,4.04,0,0,4.1,1.44,4.9,6.21h0Zm-6.4-12.17c-1.16-1.06-2.69-1.72-3.38-1.85,0,0,.07-4.4-3.07-6.62l.6-.15,5.85,8.63h0Zm-9.44-7.72c.49.26,1.65,1.02,2.05,2.7,0,0,1.87.54,2.41,2.66,0,0,.26,1.28-.33,1.45,0,0,.17-1.38-.59-1.77-.76-.39-1.81-.15-1.91.87-.09,1.02.3,1.45.3,1.45l-.72.86c-.83-4.9-2.2-7.98-2.2-7.98l1-.25Z" style="fill: #ffe100; fill-rule: evenodd; stroke-width: 0px;"/>
      <polygon points="116.47 102.65 89.15 59.51 92.39 59.51 116.47 94.03 116.47 102.65" style="fill: #e60012; fill-rule: evenodd; stroke-width: 0px;"/>
      <polygon points="47.11 145.96 74.42 189.1 71.18 189.1 47.11 154.58 47.11 145.96" style="fill: #e60012; fill-rule: evenodd; stroke-width: 0px;"/>
      <path d="m113.3,98.6l-3.82-6.06c.2,1.32.51,3.23.83,4.73.93.5,1.92.94,2.99,1.33h0Zm-4.44-7.03c.15,1.04.52,3.47.91,5.41-.51-.29-.99-.6-1.45-.92-.66-2.55-1.03-5.53-1.21-7.28l1.76,2.79h0Zm-2.31-3.66l-.99-1.56c.11,2.14.42,5.72,1.33,8.63.27.23.55.45.84.66-.72-3-1.06-6.41-1.18-7.73h0Zm-1.49-2.35c.06,1.82.3,5.63,1.18,8.87-.45-.4-.87-.81-1.28-1.24-.8-3.96-.86-7.23-.8-9.06l.91,1.43h0Zm-1.34-2.12l-.82-1.3c-.18,1.33-.3,4.01.28,8.98.38.49.77.96,1.18,1.42-.77-4.2-.73-7.55-.64-9.1h0Zm-1.19-1.88c-.21,1.13-.44,3.7.1,8.83-.37-.52-.73-1.05-1.08-1.59-.56-4.41-.11-7.04.28-8.34l.7,1.11h0Zm-1.02-1.61l-.86-1.37c-.18,1.44-.4,4.13-.29,8.21.2.36.41.72.63,1.08-.43-4.29.13-6.78.53-7.93h0Zm-1.25-1.98c-.18,1.18-.46,3.78-.39,7.94-.2-.37-.4-.75-.59-1.12-.19-.36-.36-.73-.53-1.11.03-3.58.64-5.71.96-6.58l.55.87h0Zm-.86-1.36l-.5-.79c-.38.92-1.11,2.85-1.32,4.68.22.71.46,1.42.73,2.12.15-3.5.85-5.44,1.09-6.01h0Zm-.8-1.27c-.28.64-.97,2.32-1.33,4.1-.22-.8-.41-1.58-.57-2.34.14-1.2.79-2.32,1.17-2.9l.72,1.14h0Zm-.99-1.57c-.29.41-.81,1.23-1.13,2.22-.1-.51-.18-.99-.25-1.45.25-.71.6-1.28.84-1.62l.54.86h0Zm-.81-1.28l-1.01-1.61s.07,1.1.31,2.77c.25-.52.53-.93.7-1.16Z" style="fill: #fff; fill-rule: evenodd; stroke-width: 0px;"/>
      <path d="m50.27,150.02l3.82,6.06c-.2-1.32-.51-3.23-.83-4.73-.93-.5-1.92-.94-2.99-1.33h0Zm4.44,7.03c-.15-1.04-.52-3.47-.91-5.41.51.29.99.6,1.45.92.66,2.55,1.04,5.53,1.21,7.27l-1.76-2.79h0Zm2.31,3.66l.99,1.56c-.11-2.14-.42-5.72-1.33-8.63-.27-.23-.55-.45-.84-.66.72,3,1.07,6.41,1.18,7.73h0Zm1.49,2.35c-.06-1.82-.3-5.63-1.18-8.87.45.4.87.81,1.28,1.24.8,3.96.86,7.23.8,9.06l-.91-1.44h0Zm1.34,2.12l.82,1.3c.18-1.33.3-4.01-.28-8.98-.38-.49-.77-.96-1.18-1.42.77,4.2.73,7.55.64,9.1h0Zm1.19,1.88c.21-1.13.44-3.7-.1-8.83.37.52.73,1.05,1.08,1.59.56,4.41.11,7.04-.28,8.34l-.7-1.11h0Zm1.02,1.61l.86,1.37c.18-1.44.4-4.13.29-8.21-.2-.36-.41-.72-.63-1.08.43,4.29-.13,6.78-.53,7.93h0Zm1.25,1.98c.18-1.18.46-3.78.39-7.94.2.37.4.75.59,1.12.19.36.36.73.53,1.11-.03,3.58-.64,5.71-.96,6.58l-.55-.87h0Zm.86,1.36l.5.79c.38-.92,1.12-2.85,1.32-4.68-.22-.71-.46-1.42-.73-2.12-.15,3.5-.85,5.44-1.09,6.01h0Zm.8,1.27c.28-.64.97-2.32,1.33-4.1.22.8.41,1.58.57,2.34-.14,1.2-.79,2.32-1.17,2.9l-.72-1.14h0Zm.99,1.57c.29-.41.81-1.23,1.13-2.22.1.51.18.99.25,1.45-.25.71-.6,1.28-.84,1.62l-.54-.86h0Zm.81,1.28l1.01,1.6s-.07-1.1-.31-2.77c-.25.52-.53.93-.7,1.17Z" style="fill: #fff; fill-rule: evenodd; stroke-width: 0px;"/>
      <path d="m97.11,80.63c-.11.25-.26.57-.48.96l1.63,4.57c.3-.14.6-.29.9-.46-.86-1.73-1.53-3.44-2.05-5.07h0Zm-.79,1.48l1.51,4.25c-.24.11-.47.22-.71.31l-1.34-3.75c.2-.29.38-.56.53-.81h0Zm-.86,1.26l1.24,3.47c-.2.08-.39.16-.58.23l-1.2-3c.2-.24.38-.47.54-.7h0Zm-.88,1.11c-.17.2-.36.41-.55.63l.94,2.36c.23-.07.46-.15.71-.24l-1.1-2.75h0Zm-.9,1l.85,2.12c-.27.08-.53.15-.78.21l-.68-1.71c.22-.21.42-.42.61-.62h0Zm-.98.97c-.17.16-.34.32-.52.48l.45,1.12c.21-.04.42-.08.66-.13l-.59-1.46h0Zm-.88.81c-.37.33-.77.66-1.2,1,0,0,.55.01,1.54-.13l-.34-.87Z" style="fill: #fff; fill-rule: evenodd; stroke-width: 0px;"/>
      <path d="m66.47,167.98c.11-.25.26-.57.48-.96l-1.63-4.57c-.3.14-.6.29-.9.46.86,1.73,1.53,3.44,2.05,5.07h0Zm.79-1.48l-1.51-4.25c.24-.11.48-.22.71-.31l1.34,3.75c-.2.29-.38.56-.53.81h0Zm.86-1.26l-1.24-3.47c.2-.08.39-.16.58-.23l1.2,3c-.2.24-.38.47-.54.7h0Zm.88-1.11c.17-.2.36-.41.55-.62l-.94-2.36c-.23.07-.46.15-.71.24l1.1,2.75h0Zm.9-1l-.85-2.12c.27-.08.53-.15.78-.21l.68,1.71c-.22.21-.42.42-.61.62h0Zm.98-.97c.17-.16.34-.32.52-.48l-.45-1.12c-.21.04-.42.08-.66.13l.58,1.47h0Zm.88-.81c.38-.33.77-.66,1.2-1,0,0-.56-.02-1.54.13l.34.87Z" style="fill: #fff; fill-rule: evenodd; stroke-width: 0px;"/>
      <path d="m86.07,73.47l-.62-.89s.21-.43.45-.43.62-.06.83-.35c.21-.29,1.2-.95,2.71-.89,1.51.06,2.96,1.34,3.66,2.31.7.97.81,1.51.37,1.55-.43.04-.79-.02-1.11-.02s-1.18.81-1.92.93c-.74.12-2.6.08-2.6.08,0,0,1.59,2.05,1.41,2.13-.19.08-1.72-1.07-2.07-1.72-.35-.64-.68-1.65-1.51-2.02,0,0,0-.5.41-.68h0Zm-7.53-13.96h1.08c-.3.41-.68.93-1.09,1.44,0-.64.02-1.14.02-1.44h0Zm1.76,0c-.4.58-1.07,1.5-1.79,2.32,0,.4,0,.83-.01,1.29,1.21-1.15,2.09-2.69,2.56-3.61h-.76Zm1.38,0c-.48.98-1.59,3.03-3.18,4.36,0,.35,0,.72,0,1.1,1.73-1.4,3.19-4.03,3.91-5.46h-.72Zm1.55,0h.76c1.11,1.79,4.54,6.66,8.9,6.84l.95,1.51c-6.64-1.51-9.64-6.36-10.61-8.35h0Zm1.42,0c1.19,1.84,4.17,5.84,7.87,6.25l-.71-1.14c-3.41-.41-5.47-3.71-6.19-5.11h-.96Zm1.59,0c.74,1.36,2.47,3.91,5.17,4.48l-.8-1.27c-2.12-.55-3.07-2.23-3.45-3.21h-.92Zm1.52,0c.34.78,1.03,1.89,2.38,2.46l-1.55-2.46h-.83Zm2.95,15.3c.23.02.49-.2.55-.4s-.17-.31-.38-.19c-.21.12-.22.4-.17.6h0Zm1.06-2.39s-1.44-.93-2.68-.93-2.19.41-2.19,1.12c0,0,.86-.54,1.89-.54s1.98.11,2.98.35h0Zm-3.61,1.49c.18.88.77,1.32,1.37,1.25.61-.07.82-.59.82-.87,0-.29-.09-.23-.23-.01-.14.22-.42.43-.91.43s-.72-.57-.76-.8c-.03-.23-.33-.18-.33-.18l.03.2h0Zm-1.14-3.2c1.43-.4,2.79-.37,3.98-.15.99.18,2.42,1.45,2.76,1.43.29-.02.15-.49.15-.49-.87-1.62-3.43-2.55-5.05-2.55-1.62,0-3,.79-3.39,1.29-.38.5-.19.97,0,.97s.42-.18,1.56-.5h0Zm-7.75.69c-.71.05-.58-.5.42-.63,1-.13,1.84.19,2.31.74-1.06-.39-1.7-.18-2.73-.11h0Zm2.33.91l.38.08s-.59-.58-1.42-.58-1.68.21-1.75.67c-.07.47.39.01.74-.11.36-.12.83-.25,2.04-.07h0Zm-2.8,1.73l.14-.04s.1.05.1.31c0,.26-.26.39-.41.39-.23,0,.01-.57.17-.66h0Zm.56.12c0-.18.18-.16.26-.04.06.09.33.68.63.68s.59-.29.65-.46c.06-.17.14-.28.26-.29.12,0,.06.51-.1.73-.16.22-.5.4-.85.42-.34.02-.85-.34-.86-1.05h0Zm2.5-.18s.08.69-.18,1c0,0,.39-.02.56-.32.23-.4-.14-.48-.38-.68h0Zm-3.4-8.3c0,.46,0,.92,0,1.4,1.01-.84,1.92-1.88,2.69-2.9.97-1.29,1.72-2.56,2.15-3.34-.2-.34-.37-.64-.5-.91-.81,1.6-2.42,4.4-4.33,5.75h0Zm0,2.12c0,.73,0,1.48,0,2.24.41-.27,1.31-.8,2.03-.85.97-.06,2.46.62,2.66,2.7.21,2.09-.32,4.58-.62,5.66-.3,1.08-.49,1.63-.25,2.13.25.49.72-.13.89-.44.17-.3,1.08-.23,1.42.15.34.38.65.65,1.27.49.63-.15.44-1.14-.09-1.35-.53-.21-.11-.61.09-.61s.94.72.94,1.63-.92,1.46-1.42,1.46-.74-.29-1.17-.45c-.43-.16-.84-.04-.7.35.14.39.31.74.14.76-.16.02-1.52-.95-1.99-1.63-.47-.68-.06-1.57.16-2.17.23-.6.41-1.05.16-1.07-.25-.02-.84.72-1.4.93-.55.21-.47-.27.08-.66.55-.39,1.4-1.03,1.4-1.24,0-.21-.59-.1-.82-.1s-.33.25-.74.25-.76-.43-1.15-.47c-.27-.03-.65-.05-.85-.06.04,1.63.09,3.13.17,4.34.41,6.41,2.48,10.05,6.3,9.91,3.79-.13,8.04-2.68,11.92-9.65-1.54-5.15-1.56-9.29-1.56-9.77l-1.12-1.78c-5.77-1.13-9-4.67-10.6-7.14-.45.8-1.15,1.95-2.04,3.13-.88,1.17-1.94,2.37-3.14,3.28h0Zm9.37,7.02c-.02-.45-.19-.84-.49-.79-.3.05-.38.49-.11.67.26.17.58.48.58.48l.02-.36h0Zm-5.88,10.07l-.19.22s-.29-.26-.29-.48.1-.66.13-1.07c.03-.4.11-.75.26-.76.14-.01.33.23.67.19.35-.04.77-.5,1.02-.5s.39.29.66.29.56-.32.9-.32.7.63,1.03.63.56-.38.77-.38.33.1.22.38c-.12.27.05.94.34,1.22.29.29.25.89.02.93-.23.04-.48-.23-.84-.48-.36-.25-.55-.25-.84-.25s-.61.11-1.11.16c-.5.05-.7-.09-1.07-.18-.38-.09-.88-.09-1.09-.09s-.39.32-.59.48h0Zm1.48,1.25h-.32s-.38-.14-.38-.41.3-.34.54-.34.61.11,1.04.07c.43-.04.73-.23,1.02-.27.29-.04.36.16.34.36-.02.2-.36.54-.84.57-.48.04-1.16.02-1.39.02Z" style="fill: #fff; fill-rule: evenodd; stroke-width: 0px;"/>
      <path d="m77.51,175.14l.62.89s-.21.43-.45.43-.62.06-.83.35c-.21.29-1.2.95-2.71.89-1.51-.06-2.96-1.34-3.66-2.31-.7-.97-.81-1.51-.37-1.55.43-.04.79.02,1.12.02s1.18-.81,1.92-.93c.74-.12,2.6-.08,2.6-.08,0,0-1.59-2.05-1.41-2.13.19-.08,1.72,1.07,2.07,1.72.35.64.68,1.65,1.51,2.02,0,0,0,.5-.41.68h0Zm7.53,13.96h-1.08c.3-.41.68-.93,1.09-1.44,0,.64-.02,1.14-.02,1.44h0Zm-1.76,0c.4-.58,1.07-1.5,1.79-2.32,0-.4,0-.83.01-1.29-1.21,1.15-2.09,2.69-2.56,3.61h.76Zm-1.38,0c.48-.98,1.59-3.02,3.18-4.36,0-.35,0-.72,0-1.1-1.73,1.4-3.19,4.03-3.91,5.46h.72Zm-1.55,0h-.76c-1.11-1.78-4.54-6.66-8.9-6.84l-.95-1.51c6.65,1.51,9.64,6.36,10.62,8.35h0Zm-1.42,0c-1.19-1.84-4.17-5.84-7.87-6.25l.71,1.14c3.41.41,5.47,3.71,6.19,5.11h.96Zm-1.59,0c-.74-1.35-2.47-3.91-5.17-4.48l.8,1.27c2.13.55,3.07,2.23,3.45,3.21h.92Zm-1.52,0c-.33-.78-1.03-1.89-2.38-2.46l1.55,2.46h.83Zm-2.95-15.3c-.23-.02-.49.2-.55.4-.06.21.17.31.38.2.21-.12.22-.4.17-.6h0Zm-1.06,2.39s1.44.93,2.68.93c1.25,0,2.19-.41,2.19-1.12,0,0-.86.54-1.89.54s-1.98-.11-2.98-.35h0Zm3.61-1.49c-.18-.89-.77-1.32-1.37-1.25-.61.07-.82.59-.82.87,0,.29.09.23.23.01.14-.22.42-.43.91-.43s.72.57.76.8c.03.23.33.18.33.18l-.03-.2h0Zm1.14,3.2c-1.43.41-2.79.37-3.98.15-.99-.18-2.42-1.45-2.76-1.43-.29.02-.15.49-.15.49.87,1.62,3.43,2.55,5.05,2.55,1.62,0,3-.79,3.39-1.29.38-.5.19-.97,0-.97s-.42.18-1.56.5h0Zm7.75-.69c.71-.05.58.5-.42.63-1,.13-1.84-.18-2.31-.74,1.06.39,1.7.18,2.73.11h0Zm-2.33-.91l-.38-.08s.59.58,1.42.58,1.68-.21,1.75-.67c.07-.47-.39-.01-.74.11-.36.12-.83.25-2.04.07h0Zm2.8-1.73l-.14.04s-.1-.05-.1-.31.26-.39.41-.39c.23,0-.01.57-.17.66h0Zm-.56-.12c0,.18-.18.16-.26.04-.06-.09-.33-.68-.63-.68s-.59.29-.65.46c-.06.17-.14.28-.26.29-.12,0-.06-.51.1-.73.16-.22.5-.4.85-.42.34-.02.85.34.86,1.05h0Zm-2.5.18s-.08-.69.18-1c0,0-.39.02-.56.32-.23.4.14.48.38.68h0Zm3.4,8.3c0-.45,0-.92,0-1.4-1.01.84-1.92,1.88-2.69,2.9-.97,1.29-1.72,2.56-2.15,3.34.2.34.37.64.5.91.81-1.6,2.42-4.4,4.33-5.75h0Zm0-2.11c0-.73,0-1.48,0-2.24-.41.27-1.31.8-2.03.85-.97.06-2.46-.62-2.66-2.7-.21-2.09.32-4.58.62-5.66.3-1.08.49-1.63.25-2.13-.25-.49-.72.13-.89.44-.17.3-1.08.23-1.42-.15-.34-.38-.65-.65-1.27-.49-.63.15-.44,1.14.1,1.35.53.21.11.61-.1.61s-.93-.72-.93-1.63.92-1.46,1.42-1.46.74.29,1.17.45c.43.16.84.04.7-.35-.14-.39-.31-.74-.14-.76.16-.02,1.52.95,1.99,1.63.47.68.06,1.57-.16,2.16-.23.6-.41,1.05-.16,1.07.25.02.84-.72,1.4-.93.55-.21.47.27-.08.66-.55.39-1.39,1.03-1.39,1.24,0,.21.6.1.82.1s.33-.25.74-.25.76.43,1.15.47c.27.03.65.05.85.06-.04-1.63-.09-3.13-.17-4.35-.41-6.41-2.48-10.05-6.3-9.91-3.79.13-8.05,2.68-11.92,9.65,1.54,5.15,1.56,9.29,1.56,9.77l1.12,1.78c5.77,1.13,9,4.67,10.6,7.14.45-.8,1.15-1.95,2.04-3.13.88-1.17,1.95-2.37,3.13-3.28h0Zm-9.37-7.02c.02.45.19.84.49.79.3-.05.38-.5.11-.67-.26-.17-.58-.48-.58-.48l-.02.36h0Zm5.88-10.07l.19-.22s.29.26.29.47-.1.66-.13,1.07c-.03.4-.11.75-.26.76-.14.01-.33-.23-.67-.19-.34.04-.77.5-1.02.5s-.39-.29-.66-.29-.56.32-.9.32-.7-.63-1.03-.63-.56.37-.77.37-.33-.1-.22-.37c.12-.27-.05-.94-.34-1.22s-.25-.89-.02-.93c.23-.04.48.23.84.48.36.25.55.25.84.25s.61-.11,1.11-.16c.5-.05.7.09,1.07.18.37.09.87.09,1.09.09s.39-.32.59-.48h0Zm-1.48-1.25h.32s.37.14.37.41-.3.34-.54.34-.61-.11-1.04-.07c-.43.04-.73.23-1.02.27-.29.04-.36-.16-.34-.36.02-.2.36-.54.84-.57.48-.04,1.16-.02,1.39-.02Z" style="fill: #fff; fill-rule: evenodd; stroke-width: 0px;"/>
      <path d="m68.61,98.08l-.7.77s6.76,6.22,20.98,5.85c0,0,11.03-.07,20.65-7.42-.32-.2-.64-.41-.94-.62-3.82,2.59-10.1,6.28-20.97,6.65-10.17.35-17.49-4.2-19.01-5.24Z" style="fill: #ffe100; fill-rule: evenodd; stroke-width: 0px;"/>
      <path d="m94.96,150.53l.7-.77s-6.76-6.22-20.98-5.85c0,0-11.03.07-20.65,7.42.32.2.64.41.94.62,3.82-2.59,10.1-6.28,20.97-6.65,10.17-.35,17.49,4.2,19.01,5.24Z" style="fill: #ffe100; fill-rule: evenodd; stroke-width: 0px;"/>
      <path d="m75.6,90.46l-6.79,7.41-.2.22c1.53,1.03,8.84,5.58,19.01,5.24,10.88-.37,17.15-4.06,20.97-6.65-.18-.12-.35-.24-.52-.37-2.83-2.03-5.04-4.42-6.75-6.91-2.59,1.51-8.18,3.2-13.86,3.4-5.16.18-10.1-1.62-11.87-2.34Z" style="fill: #112343; fill-rule: evenodd; stroke-width: 0px;"/>
      <path d="m87.98,158.16l6.79-7.41.2-.22c-1.53-1.03-8.84-5.58-19.01-5.24-10.88.37-17.15,4.06-20.97,6.65.18.12.35.24.52.37,2.83,2.03,5.03,4.42,6.75,6.91,2.59-1.51,8.18-3.2,13.86-3.4,5.16-.18,10.1,1.62,11.87,2.34Z" style="fill: #112343; fill-rule: evenodd; stroke-width: 0px;"/>
      <path d="m76.58,89.38l-.67.74-.31.33c1.77.72,6.71,2.52,11.87,2.34,5.68-.2,11.27-1.89,13.86-3.4-.12-.18-.24-.36-.36-.54-.22-.34-.43-.67-.64-1.01-.7.43-1.41.81-2.13,1.15-7.43,3.48-15.62,2.06-19.63.99-.89-.24-1.57-.46-1.99-.6Z" style="fill: #ffe100; fill-rule: evenodd; stroke-width: 0px;"/>
      <path d="m87,159.23l.67-.74.31-.33c-1.76-.72-6.71-2.52-11.87-2.34-5.68.2-11.27,1.89-13.86,3.4.12.18.24.36.36.54.22.34.43.67.64,1.01.7-.43,1.41-.81,2.13-1.15,7.43-3.48,15.62-2.06,19.63-.99.89.24,1.57.46,1.99.6Z" style="fill: #ffe100; fill-rule: evenodd; stroke-width: 0px;"/>
      <path d="m77.88,87.96l-1.11,1.22-.19.21c.42.15,1.1.37,1.99.6,4,1.07,12.2,2.49,19.63-.99.72-.34,1.43-.72,2.13-1.15-.05-.08-.09-.15-.14-.23-.15-.25-.3-.51-.44-.77-2.11,1.11-4.15,1.88-6.08,2.37-2.46.63-4.74.84-6.76.79-.46.11-.97.2-1.5.23-1.05.06-1.97-.11-2.76-.46-.26-.12-.52-.26-.75-.41-2.07-.5-3.48-1.14-4.02-1.41Z" style="fill: #112343; fill-rule: evenodd; stroke-width: 0px;"/>
      <path d="m85.69,160.65l1.11-1.22.19-.21c-.42-.15-1.1-.37-1.99-.6-4-1.07-12.2-2.49-19.63.99-.72.34-1.43.72-2.13,1.15.04.08.09.15.13.23.15.25.3.51.44.77,2.11-1.11,4.15-1.88,6.07-2.37,2.46-.63,4.74-.84,6.76-.79.46-.11.97-.2,1.5-.23,1.05-.06,1.97.11,2.77.46.26.12.52.26.75.41,2.07.5,3.48,1.14,4.02,1.41Z" style="fill: #112343; fill-rule: evenodd; stroke-width: 0px;"/>
      <path d="m78.24,87.57l-.23.26-.13.14c.54.27,1.95.91,4.02,1.41-.22-.15-.43-.31-.63-.49-.16-.15-.32-.3-.46-.47l-1.92-.63-.65-.21h0Zm21.51-.71s-.05-.08-.07-.12c-.11-.2-.21-.39-.31-.59-.18.09-.69.35-1.42.68-.8.35-1.85.78-2.99,1.15-1.67.53-3.54.93-5.1.74,0,0-.52.39-1.41.79-.43.19-.96.38-1.54.53,2.02.04,4.3-.16,6.76-.79,1.93-.5,3.97-1.26,6.08-2.37h0Zm-20.21-.71c.2.57.45,1.1.77,1.59-.61-.12-1.32-.39-1.72-.55l.96-1.04Z" style="fill: #fff; fill-rule: evenodd; stroke-width: 0px;"/>
      <path d="m85.33,161.05l.23-.26.13-.14c-.54-.27-1.95-.91-4.02-1.41.22.15.43.31.63.49.16.15.32.3.46.47l1.92.63.65.21h0Zm-21.51.71s.04.08.07.12c.11.2.21.39.31.59.18-.09.69-.35,1.42-.68.8-.35,1.85-.78,2.99-1.15,1.67-.53,3.54-.93,5.09-.74,0,0,.52-.39,1.41-.79.43-.19.96-.38,1.54-.53-2.02-.05-4.3.16-6.76.79-1.93.5-3.97,1.26-6.07,2.37h0Zm20.21.71c-.19-.57-.45-1.1-.77-1.59.61.12,1.32.39,1.72.55l-.96,1.04Z" style="fill: #fff; fill-rule: evenodd; stroke-width: 0px;"/>
      <path d="m70.91,95.57l1.56.74-1.23,2.78-2.22-1.45,1.9-2.07h0Zm3.96-4.32l-.19.21c-.08.13-.12.27-.12.43,0,.45.36.81.81.81s.81-.36.81-.81-.36-.81-.81-.81c-.18,0-.35.06-.49.17h0Zm33.13,5c-.4-.29-.79-.59-1.17-.89l.33,1.37.84-.48h0Zm-2.38-1.93c-.86-.78-1.65-1.59-2.37-2.43l-1.1.83,1.12,2.97,2.34-1.38h0Zm-29.32.58l-2.43-1.05-1.14,2.26,2.5,1.13,1.07-2.33h0Zm-3.06,2.78c-.45,0-.81.36-.81.81s.36.81.81.81.81-.36.81-.81-.36-.81-.81-.81h0Zm7.48-4.48c.45,0,.81.36.81.81s-.36.81-.81.81-.81-.36-.81-.81.36-.81.81-.81h0Zm-3.34,2.55c.45,0,.81.36.81.81s-.36.81-.81.81-.81-.36-.81-.81.36-.81.81-.81h0Zm5.84,1.24c.45,0,.81.36.81.81s-.36.81-.81.81-.81-.36-.81-.81.36-.81.81-.81h0Zm-3.57,3.03c.45,0,.81.36.81.81s-.36.81-.81.81-.81-.36-.81-.81.36-.81.81-.81h0Zm6.68-6.34c.45,0,.81.36.81.81s-.36.81-.81.81-.81-.36-.81-.81.36-.81.81-.81h0Zm2.89,3.59c.45,0,.81.36.81.81s-.36.81-.81.81-.81-.36-.81-.81.36-.81.81-.81h0Zm-3.09,3.77c.44,0,.81.36.81.81s-.36.81-.81.81-.81-.36-.81-.81.36-.81.81-.81h0Zm-6.63-8.73l-2.52-.59-.59,2.41,2.49.82.63-2.64h0Zm5.35.73l-2.52-.02-.29,2.9,2.62.14.19-3.02h0Zm5.22.12l-2.11.14.27,3.01,2.13-.1-.29-3.05h0Zm5.23-.96l-1.89.41.31,3.26,2.19-1.09-.61-2.58h0Zm-3.36,1.27c.44,0,.81.36.81.81s-.36.81-.81.81-.81-.36-.81-.81.36-.81.81-.81h0Zm5.34-1.47c.44,0,.81.36.81.81s-.36.81-.81.81-.81-.36-.81-.81.36-.81.81-.81h0Zm1.85,1.57l-.55-2.42,2.31-.98.89,2.45-2.65.95h0Zm-17.14,2.84l-2.63-.49-.69,2.32,2.84.74.48-2.58h0Zm5.94.58l-2.8-.12-.25,2.51,2.82.02.23-2.42h0Zm5.56-.67l-2.53.52.25,2.59,2.71-.61-.43-2.5h0Zm1.81-.24c.44,0,.81.36.81.81s-.36.81-.81.81-.81-.36-.81-.81.36-.81.81-.81h0Zm3.81-1.68l-2.34.95.63,2.39,2.5-.92-.79-2.41h0Zm2.05-.54c.45,0,.81.36.81.81s-.36.81-.81.81-.81-.36-.81-.81.36-.81.81-.81h0Zm-8.44,6.53c.44,0,.81.36.81.81s-.36.81-.81.81-.81-.36-.81-.81.36-.81.81-.81h0Zm6.45-1.63c.45,0,.81.36.81.81s-.36.81-.81.81-.81-.36-.81-.81.36-.81.81-.81h0Zm6.16-2.95c.44,0,.81.36.81.81s-.36.81-.81.81-.81-.36-.81-.81.36-.81.81-.81h0Zm-26.85,2.97l-3.19-1.01-.88,2.52,3.37,1.11.69-2.62h0Zm6.16,1.29l-3.21-.5-.2,2.61,3.29.44.13-2.54h0Zm6.13-.09l-2.99.09.04,2.66,3.08-.09-.13-2.66h0Zm6.63-1.53l-3.27.85.46,2.82,3.18-.89-.37-2.77h0Zm3.76,1.71l-.95-3.04,2.93-1.11.81,2.81-2.79,1.34Z" style="fill: #ffe100; fill-rule: evenodd; stroke-width: 0px;"/>
      <path d="m92.66,153.04l-1.56-.74,1.23-2.78,2.22,1.45-1.9,2.07h0Zm-3.96,4.32l.19-.21c.08-.13.12-.27.12-.43,0-.45-.36-.81-.81-.81s-.81.36-.81.81.36.81.81.81c.18,0,.35-.06.49-.17h0Zm-33.13-5c.4.29.79.59,1.17.89l-.33-1.37-.84.48h0Zm2.38,1.93c.86.78,1.65,1.59,2.37,2.43l1.1-.83-1.12-2.97-2.34,1.38h0Zm29.32-.58l2.43,1.05,1.14-2.26-2.51-1.13-1.07,2.33h0Zm3.06-2.78c.45,0,.81-.36.81-.81s-.36-.81-.81-.81-.81.36-.81.81.36.81.81.81h0Zm-7.48,4.48c-.45,0-.81-.36-.81-.81s.36-.81.81-.81.81.36.81.81-.36.81-.81.81h0Zm3.34-2.55c-.45,0-.81-.36-.81-.81s.36-.81.81-.81.81.36.81.81-.36.81-.81.81h0Zm-5.84-1.24c-.45,0-.81-.36-.81-.81s.36-.81.81-.81.81.36.81.81-.36.81-.81.81h0Zm3.57-3.03c-.45,0-.81-.36-.81-.81s.36-.81.81-.81.81.36.81.81-.36.81-.81.81h0Zm-6.68,6.34c-.44,0-.81-.36-.81-.81s.36-.81.81-.81.81.36.81.81-.36.81-.81.81h0Zm-2.89-3.59c-.45,0-.81-.36-.81-.81s.36-.81.81-.81.81.36.81.81-.36.81-.81.81h0Zm3.09-3.77c-.44,0-.81-.36-.81-.81s.36-.81.81-.81.81.36.81.81-.36.81-.81.81h0Zm6.63,8.73l2.52.59.59-2.41-2.49-.82-.62,2.64h0Zm-5.36-.73l2.52.02.3-2.9-2.62-.14-.19,3.02h0Zm-5.22-.12l2.11-.14-.27-3.01-2.13.1.29,3.05h0Zm-5.23.96l1.89-.41-.31-3.26-2.19,1.09.61,2.58h0Zm3.37-1.27c-.45,0-.81-.36-.81-.81s.36-.81.81-.81.81.36.81.81-.36.81-.81.81h0Zm-5.34,1.47c-.44,0-.81-.36-.81-.81s.36-.81.81-.81.81.36.81.81-.36.81-.81.81h0Zm-1.85-1.57l.55,2.42-2.31.98-.9-2.45,2.66-.95h0Zm17.14-2.84l2.64.49.69-2.32-2.84-.74-.49,2.58h0Zm-5.94-.58l2.8.12.25-2.51-2.82-.02-.23,2.42h0Zm-5.56.67l2.53-.52-.25-2.59-2.71.61.43,2.5h0Zm-1.81.24c-.44,0-.81-.36-.81-.81s.36-.81.81-.81.81.36.81.81-.36.81-.81.81h0Zm-3.81,1.68l2.34-.95-.63-2.39-2.5.92.79,2.41h0Zm-2.05.54c-.45,0-.81-.36-.81-.81s.36-.81.81-.81.81.36.81.81-.36.81-.81.81h0Zm8.44-6.53c-.44,0-.81-.36-.81-.81s.36-.81.81-.81.81.36.81.81-.36.81-.81.81h0Zm-6.45,1.63c-.45,0-.81-.36-.81-.81s.36-.81.81-.81.81.36.81.81-.36.81-.81.81h0Zm-6.16,2.95c-.45,0-.81-.36-.81-.81s.36-.81.81-.81.81.36.81.81-.36.81-.81.81h0Zm26.85-2.97l3.19,1.01.88-2.52-3.37-1.11-.69,2.62h0Zm-6.16-1.29l3.21.5.2-2.61-3.29-.44-.13,2.54h0Zm-6.13.09l2.99-.09-.04-2.66-3.08.09.13,2.66h0Zm-6.63,1.53l3.27-.85-.46-2.82-3.18.89.37,2.77h0Zm-3.76-1.71l.95,3.04-2.93,1.11-.81-2.81,2.79-1.34Z" style="fill: #ffe100; fill-rule: evenodd; stroke-width: 0px;"/>
      <path d="m92.25,109.95c-1.18,2.16-1.94,4.32-2.42,6.3h-4.47s.94-3.39,1.57-5.44c.09-.3.19-.59.28-.86h5.03Z" style="fill: #e60012; fill-rule: evenodd; stroke-width: 0px;"/>
      <path d="m71.33,138.66c1.18-2.16,1.94-4.32,2.42-6.3h4.47s-.94,3.39-1.57,5.44c-.09.3-.19.58-.28.86h-5.03Z" style="fill: #e60012; fill-rule: evenodd; stroke-width: 0px;"/>
      <path d="m94.08,107.09c-.56.76-1.07,1.53-1.52,2.3h-5.14c.51-1.35.99-2.3.99-2.3h5.67Z" style="fill: #fff; fill-rule: evenodd; stroke-width: 0px;"/>
      <path d="m69.49,141.53c.56-.76,1.07-1.53,1.52-2.3h5.14c-.51,1.35-.99,2.3-.99,2.3h-5.67Z" style="fill: #fff; fill-rule: evenodd; stroke-width: 0px;"/>
      <polygon points="72.79 106.2 73.24 104.36 77.45 106 76.88 107.87 72.79 106.2" style="fill: #fff; fill-rule: evenodd; stroke-width: 0px;"/>
      <polygon points="90.79 142.41 90.34 144.26 86.12 142.61 86.69 140.74 90.79 142.41" style="fill: #fff; fill-rule: evenodd; stroke-width: 0px;"/>
      <path d="m72.68,106.65l3.92,1.57-1.54,6.05-3.82-1.69s-.01-.02-.01-.02l1.45-5.92Z" style="fill: #e60012; fill-rule: evenodd; stroke-width: 0px;"/>
      <path d="m90.9,141.96l-3.92-1.57,1.54-6.05,3.82,1.69s.01.02.01.02l-1.45,5.92Z" style="fill: #e60012; fill-rule: evenodd; stroke-width: 0px;"/>
      <path d="m78.6,114.92c.95-3.24,2.03-6.57,3.33-9.85l-1.69.21.82,1.17-1.59.87.8.87-1.2.75.66.96-1.41.94.8.98-1.38.87.68,1.13-1.1.91,1.29.19h0Zm3.89-9.48c.14.47.47.68.63.47.16-.21.38-.56.68-.56s.28.19.28.19c-1.17,2.91-2.28,6.26-2.72,7.65-.45,1.38-.54,2.3-.73,2.3s-.21-.21-.21-.52-.02-.75-.28-.75-.59.8-.7.87c-.12.07-.52-.09-.42-.56.09-.47,1.27-4.65,2.13-6.83.87-2.18,1.22-2.6,1.22-2.6l.12.35h0Zm-.23,1.13l.7.23-.33,1.1-.77-.26.4-1.08h0Zm-.56,1.78l.7.23-.33,1.1-.77-.26.4-1.08h0Zm-.63,1.78l.7.23-.33,1.1-.77-.26.4-1.08h0Zm-.56,1.92l.7.23-.33,1.1-.77-.26.4-1.08h0Zm3.87-6.4l.14-.38,1.29.96-1.31.35.54,1.17-1.34.75.8,1.15-1.43.56.77,1.5-1.36.42.68,1.43-1.22.85.73,1.17-1.41-.16s1.22-5.28,3.12-9.78Z" style="fill: #ffe100; fill-rule: evenodd; stroke-width: 0px;"/>
      <path d="m84.98,133.7c-.95,3.24-2.03,6.57-3.33,9.85l1.69-.21-.82-1.17,1.59-.87-.8-.87,1.2-.75-.66-.96,1.41-.94-.8-.98,1.38-.87-.68-1.13,1.1-.91-1.29-.19h0Zm-3.89,9.48c-.14-.47-.47-.68-.63-.47s-.38.56-.68.56-.28-.19-.28-.19c1.17-2.91,2.28-6.26,2.72-7.65.45-1.38.54-2.3.73-2.3s.21.21.21.52c0,.3.02.75.28.75s.59-.8.7-.87c.12-.07.52.09.42.56-.09.47-1.27,4.64-2.13,6.83-.87,2.18-1.22,2.6-1.22,2.6l-.12-.35h0Zm.24-1.13l-.7-.23.33-1.1.77.26-.4,1.08h0Zm.56-1.78l-.7-.23.33-1.1.77.26-.4,1.08h0Zm.63-1.78l-.7-.23.33-1.1.77.26-.4,1.08h0Zm.56-1.92l-.7-.23.33-1.1.77.26-.4,1.08h0Zm-3.87,6.4l-.14.38-1.29-.96,1.31-.35-.54-1.17,1.34-.75-.8-1.15,1.43-.56-.77-1.5,1.36-.42-.68-1.43,1.22-.85-.73-1.17,1.41.16s-1.22,5.28-3.12,9.78Z" style="fill: #ffe100; fill-rule: evenodd; stroke-width: 0px;"/>
      <path d="m74.46,124.35c-.13-1.66-.34-3.14-.61-4.45,1.64.39,10.24,2.31,15.26,1.26-.08,1.36-.04,2.47.01,3.19.13,1.7.36,3.21.64,4.55-1.23-.4-3.48-1.04-6.26-1.37-3.98-.46-6.02-.33-9.04.04.08-1.37.05-2.48,0-3.23Z" style="fill: #e60012; fill-rule: evenodd; stroke-width: 0px;"/>
      <path d="m97.61,103.8c-1.53,1.5-4.65,4.95-6.36,9.59-2.33,6.31-2.27,14.72,1.38,22.13l.02.05c.15-.21.34-.45.55-.74l-.02-.04c-1.89-3.69-2.81-7.99-2.77-12.27.05-4.47,1.16-8.92,3.35-12.64,1.58-2.68,3.86-5.13,5.29-6.53-.48.16-.96.31-1.44.44h0Zm2.71-.88c.86-.32,1.73-.68,2.6-1.08-1.59,1.26-6.66,5.54-9.02,10.6-1.57,3.37-2.37,7.35-2.26,11.37.1,3.38.84,6.8,2.34,9.93h0c-.15.21-.28.4-.42.59v-.02c-1.77-3.55-2.64-7.67-2.6-11.77.05-4.37,1.13-8.73,3.28-12.36,1.95-3.3,4.99-6.25,6.07-7.25h0Zm-5.47,29.59c-.17.25-.33.48-.5.72-1.37-2.98-2.06-6.22-2.15-9.43-.11-3.94.67-7.83,2.21-11.12,2.34-5.04,7.48-9.32,8.93-10.46l.76,1.19c-4.92,2.54-8.47,6.87-10.15,12.09-1.64,5.1-1.5,11.05.9,17.01h0Zm.65-.97c-.09.14-.18.27-.28.41-2.21-5.72-2.31-11.4-.74-16.28,1.64-5.09,5.11-9.31,9.92-11.79l.52.83c-2.43.98-8.19,5.29-10,12.49-1.65,6.6.25,13.27.57,14.34Z" style="fill: #fff; fill-rule: evenodd; stroke-width: 0px;"/>
      <path d="m65.96,144.81c1.53-1.5,4.65-4.95,6.36-9.59,2.33-6.31,2.27-14.72-1.38-22.13l-.02-.05c-.15.21-.34.45-.55.74l.02.04c1.89,3.69,2.82,7.99,2.77,12.27-.05,4.47-1.16,8.92-3.36,12.64-1.58,2.68-3.87,5.13-5.29,6.53.48-.16.96-.31,1.44-.44h0Zm-2.71.88c-.86.32-1.73.68-2.6,1.08,1.59-1.26,6.66-5.54,9.02-10.6,1.57-3.37,2.37-7.34,2.26-11.37-.1-3.38-.84-6.8-2.34-9.93h0c.15-.21.28-.4.42-.59v.03c1.77,3.55,2.64,7.67,2.6,11.77-.05,4.37-1.13,8.73-3.28,12.36-1.95,3.3-4.99,6.25-6.07,7.25h0Zm5.47-29.59c.17-.25.33-.48.5-.71,1.37,2.98,2.06,6.22,2.15,9.43.11,3.94-.67,7.83-2.21,11.12-2.34,5.04-7.48,9.32-8.93,10.46l-.76-1.19c4.92-2.54,8.47-6.87,10.15-12.09,1.64-5.1,1.5-11.05-.89-17.01h0Zm-.66.97c.09-.14.18-.28.27-.41,2.21,5.72,2.32,11.4.75,16.28-1.64,5.09-5.11,9.31-9.92,11.79l-.53-.83c2.43-.98,8.19-5.29,10-12.49,1.65-6.6-.24-13.27-.57-14.34Z" style="fill: #fff; fill-rule: evenodd; stroke-width: 0px;"/>
      <path d="m104.48,107.29c-.93.57-4.96,3.23-6.61,7.31-1.78,4.38-2.13,8.42-.74,14.37.24-.4.47-.79.68-1.19,2.18-3.96,6.24-9.87,6.66-20.4,0-.03,0-.06,0-.1Z" style="fill: #e60012; fill-rule: evenodd; stroke-width: 0px;"/>
      <path d="m59.09,141.32c.93-.57,4.96-3.23,6.61-7.31,1.78-4.38,2.13-8.42.74-14.37-.24.4-.47.79-.68,1.19-2.19,3.96-6.23,9.87-6.66,20.4,0,.03,0,.06,0,.1Z" style="fill: #e60012; fill-rule: evenodd; stroke-width: 0px;"/>
      <path d="m105.14,105.99c-.07,1.38-.44,6.6-1.87,11.78-1.66,6.04-8.18,15.75-10.41,18.07,0,0,2.57,5.54,7.88,8.73l15.72-17.05v-9.6s-11.32-11.94-11.32-11.94Z" style="fill: #ffe100; fill-rule: evenodd; stroke-width: 0px;"/>
      <path d="m58.43,142.62c.07-1.38.44-6.6,1.87-11.78,1.66-6.04,8.18-15.75,10.41-18.07,0,0-2.56-5.54-7.88-8.73l-15.72,17.05v9.6s11.32,11.94,11.32,11.94Z" style="fill: #ffe100; fill-rule: evenodd; stroke-width: 0px;"/>
      <path d="m116.47,117.93l-12.12-12.78-2.06-3.02c.95-.41,1.9-.88,2.86-1.39l11.32,13.15v4.04Z" style="fill: #112343; fill-rule: evenodd; stroke-width: 0px;"/>
      <path d="m47.11,130.68l12.12,12.78,2.06,3.02c-.95.41-1.9.88-2.86,1.39l-11.32-13.15v-4.04Z" style="fill: #112343; fill-rule: evenodd; stroke-width: 0px;"/>
      <path d="m94.77,135.44l-.36.39s-.03,1.33,1.99,3.78c2.02,2.45,3.55,3.61,3.55,3.61l16.51-17.99v-4.99s-10.52-11.73-10.52-11.73c0,0-.84,9.13-2.76,13.09-1.92,3.95-3.94,7.75-8.41,13.85Z" style="fill: #112343; fill-rule: evenodd; stroke-width: 0px;"/>
      <path d="m68.81,113.18l.36-.39s.03-1.33-1.99-3.78c-2.02-2.45-3.55-3.61-3.55-3.61l-16.51,17.99v4.99s10.52,11.73,10.52,11.73c0,0,.84-9.13,2.76-13.09,1.92-3.95,3.94-7.75,8.41-13.85Z" style="fill: #112343; fill-rule: evenodd; stroke-width: 0px;"/>
      <path d="m98.93,132.47l.25.04s-.43-1.99-.24-2.07c.2-.08,1.09.66,1.48,1.11,0,0,.34-2.47,1.82-2.56,0,0,.32.06.32.86s-.14,2.6-.14,2.6c0,0,.97-.93,1.58-1.07.61-.14,1.05.42.65,1.13-.4.72-1.44,1.37-1.44,1.37,0,0,2.39.79,2.22,1.47-.18.68-2.85.28-2.85.28,0,0,.87,2.87.27,3.03-.6.16-1.46-1.22-1.78-1.81,0,0-.92,2.49-1.46,2.54-.53.05-.71-1.94-.24-2.88,0,0-2.34,1.17-2.61.31,0,0-.34-.72,2.06-2.08,0,0-1.55-.89-1.43-1.54.12-.65,1.15-.73,1.54-.73h0Zm1.96-.24c-.94,0-1.7.87-1.7,1.94,0,1.07.76,1.94,1.7,1.94s1.7-.87,1.7-1.94c0-1.07-.76-1.94-1.7-1.94h0Zm.06.83c-.6,0-1.09.56-1.09,1.24,0,.69.49,1.24,1.09,1.24s1.09-.56,1.09-1.24c0-.68-.49-1.24-1.09-1.24h0Zm5.74-1.11c.4,0,.73.35.73.77s-.33.77-.73.77-.73-.35-.73-.77.33-.77.73-.77h0Zm-.06-7.64c.47,0,.85.4.85.89,0,.49-.38.89-.85.89s-.85-.4-.85-.89c0-.49.38-.89.85-.89h0Zm6.69-3.7c.47,0,.85.4.85.89,0,.49-.38.89-.85.89s-.85-.4-.85-.89.38-.89.85-.89h0Zm-4.4,9.4s-.29-1.56.22-2.21c.51-.65,1.73-.51,1.73-.51l.31-3.33-5.38,6.31,3.12-.26h0Zm-4.03-7.26c-.09,1.49-2.03,1.42-2.03,1.42l-.1,3.14,4.28-6.03h-2.15s0,1.48,0,1.48h0Zm2.06-7.92c.47,0,.84.4.84.89,0,.49-.38.89-.84.89s-.85-.4-.85-.89c0-.49.38-.89.85-.89h0Zm2.74,1.3c-3.06,1.22-3.12,2.98-3.12,2.98,1.03.77,3.7-1.17,3.7-1.17-.35,2.1.04,4.85.04,4.85,1.81-1.22,2.24-4.45,2.24-4.45,1.44,1.63,2.29,1.38,2.29,1.12,0-.27-1.6-2.14-1.6-2.14-2.04,1.09-3.06.33-3.06-.92,0-1.25.42-1.85.42-1.85-1.15-2.28-2.75-2.07-2.75-2.07-.33,1.43,2.04,3.55,2.04,3.55l-.19.1h0Zm1.15-.4c.29-.31.8-.26,1.14.11.34.37.38.92.1,1.23-.29.31-.8.26-1.14-.11-.34-.37-.38-.92-.1-1.23Z" style="fill: #ffe100; fill-rule: evenodd; stroke-width: 0px;"/>
      <path d="m64.65,116.14l-.25-.04s.43,1.99.24,2.07c-.2.08-1.09-.66-1.48-1.11,0,0-.34,2.47-1.82,2.56,0,0-.32-.06-.32-.86s.14-2.6.14-2.6c0,0-.97.93-1.58,1.07-.61.14-1.05-.42-.65-1.13.4-.71,1.44-1.37,1.44-1.37,0,0-2.39-.79-2.22-1.47.18-.68,2.85-.28,2.85-.28,0,0-.87-2.87-.27-3.03.6-.16,1.46,1.22,1.78,1.81,0,0,.92-2.49,1.46-2.54.53-.05.71,1.94.24,2.88,0,0,2.34-1.17,2.61-.32,0,0,.34.72-2.06,2.08,0,0,1.55.89,1.43,1.54-.12.65-1.15.73-1.54.73h0Zm-1.96.24c.94,0,1.7-.87,1.7-1.94,0-1.07-.76-1.94-1.7-1.94s-1.7.87-1.7,1.94c0,1.07.76,1.94,1.7,1.94h0Zm-.06-.83c.6,0,1.09-.56,1.09-1.24,0-.69-.49-1.24-1.09-1.24s-1.09.56-1.09,1.24.49,1.24,1.09,1.24h0Zm-5.74,1.11c-.4,0-.73-.35-.73-.77,0-.42.33-.77.73-.77s.73.35.73.77c0,.42-.33.77-.73.77h0Zm.06,7.64c-.47,0-.85-.4-.85-.89,0-.49.38-.89.85-.89s.85.4.85.89c0,.49-.38.89-.85.89h0Zm-6.69,3.7c-.47,0-.85-.4-.85-.89,0-.49.38-.89.85-.89s.85.4.85.89c0,.49-.38.89-.85.89h0Zm4.4-9.4s.29,1.56-.22,2.21c-.51.65-1.73.51-1.73.51l-.31,3.33,5.38-6.31-3.12.26h0Zm4.03,7.26c.09-1.49,2.03-1.42,2.03-1.42l.1-3.14-4.28,6.03h2.15s0-1.48,0-1.48h0Zm-2.06,7.92c-.47,0-.84-.4-.84-.89s.38-.89.84-.89.85.4.85.89-.38.89-.85.89h0Zm-2.74-1.3c3.06-1.22,3.12-2.98,3.12-2.98-1.03-.77-3.7,1.17-3.7,1.17.35-2.1-.04-4.85-.04-4.85-1.81,1.22-2.24,4.45-2.24,4.45-1.44-1.63-2.29-1.38-2.29-1.12,0,.27,1.6,2.14,1.6,2.14,2.04-1.09,3.06-.33,3.06.92s-.42,1.85-.42,1.85c1.15,2.28,2.75,2.07,2.75,2.07.33-1.43-2.04-3.55-2.04-3.55l.19-.1h0Zm-1.15.4c-.29.31-.8.26-1.14-.11-.34-.37-.38-.92-.1-1.23.29-.31.8-.26,1.14.11.34.37.38.92.1,1.23Z" style="fill: #ffe100; fill-rule: evenodd; stroke-width: 0px;"/>
      <path d="m114.06,131.7h.16s.42.1.4.64c-.02.54-.46.8-.9.8s-.62-.18-.62-.18c0,0,.18-1,.96-1.25h0Zm.42,1.76c-.59.08-1.02.08-1.53-.02,0,0-.46.93-.45,2.34l1.21.57c.26-.97.51-1.93.77-2.9h0Zm-5.08,13.85l-.09-.23s3.52,1.51,3.95,1.68c.43.18.64.24.74.19.1-.05.15-.24-.32-.46-.47-.22-3.13-1.24-3.13-1.24,0,0,.53-.12,1.38-.09.86.03,2.44.43,2.93,1.17.49.74.33,1.44.16,1.49-.18.05-1.21.05-2.13-.18-.92-.23-2.72-1.17-3.5-2.34h0Zm-3.16-1.3c.11-.23-.52-.36-.6-.36-.5-.04-1.65.35-2.51.87-.87.52-1.33,1.8-1.34,3.16,0,0,1.02-.84,2.33-1.48,1.31-.64,2.67-.8,2.96-.8s.28.08.27.52c-.01.43-.1,1.62.96,1.84,0,0,.28.13.47-1.08.2-1.2-.03-1.61-.03-1.61,0,0-.94-.08-2.01-.77,0,0-2.61,1.32-2.91,1.44-.31.12-.48-.02-.48-.14s.12-.25.43-.38c.31-.13,2.3-.96,2.46-1.21h0Zm1.9,4.21c-.34-.28-1.14-.59-2.09-.43-.95.17-1.44.93-1.46,1.4-.02.47-.01,1.82.11,2.79.12.96.3,1.26.3,1.26-.3.15-.54,1.33-.42,2.57.12,1.23,1.2,1.88,2.6,1.83,1.4-.05,2.26-1.38,2.26-1.38.98.74,2.34.64,2.86.03.53-.61.77-1.38.67-2.51-.09-1.14-.99-2.1-.99-2.1.55-.38.64-1.65.44-2.8-.2-1.15-1.03-1.71-1.74-1.64-.71.08-2.18,1.11-2.18,1.11l-.37-.12h0Zm.51,2.53c.34,0,.66.13.91.35l1.49-2.16.38.26-1.56,2.26c.17.28.28.62.28.98,0,.26-.05.51-.15.73l1.87,1.83-.32.33-1.79-1.75c-.27.34-.67.55-1.11.55-.19,0-.38-.04-.54-.12l-1.53,2.22-.38-.26,1.53-2.21c-.34-.31-.56-.79-.56-1.32s.13-.78.34-1.07l-1.84-1.79.32-.33,1.84,1.79c.24-.18.53-.29.84-.29Z" style="fill: #ffe100; fill-rule: evenodd; stroke-width: 0px;"/>
      <path d="m49.52,116.91h-.16s-.42-.1-.4-.64c.02-.54.46-.8.9-.8s.62.18.62.18c0,0-.18,1-.96,1.26h0Zm-.42-1.76c.59-.08,1.02-.08,1.53.02,0,0,.46-.93.45-2.34l-1.21-.57c-.26.97-.51,1.93-.77,2.9h0Zm5.08-13.85l.09.23s-3.52-1.51-3.95-1.68c-.43-.18-.64-.24-.74-.19-.1.05-.15.24.32.46.47.22,3.13,1.24,3.13,1.24,0,0-.53.12-1.38.09-.86-.03-2.44-.43-2.93-1.17-.49-.74-.33-1.44-.16-1.49.18-.05,1.21-.05,2.13.18.92.23,2.72,1.17,3.5,2.34h0Zm3.16,1.3c-.11.23.52.36.6.36.5.04,1.65-.35,2.51-.87.87-.52,1.33-1.8,1.34-3.16,0,0-1.02.84-2.33,1.48-1.31.64-2.67.8-2.96.8s-.28-.08-.27-.52c.01-.43.1-1.62-.96-1.84,0,0-.28-.13-.47,1.08-.2,1.2.03,1.61.03,1.61,0,0,.95.08,2.01.77,0,0,2.6-1.32,2.91-1.44.31-.12.48.02.48.14s-.12.25-.43.38c-.31.13-2.3.96-2.46,1.21h0Zm-1.9-4.21c.34.28,1.14.59,2.09.42.95-.17,1.44-.93,1.46-1.4.02-.47.01-1.82-.11-2.79-.12-.96-.29-1.26-.29-1.26.29-.15.54-1.33.42-2.57-.12-1.23-1.2-1.88-2.6-1.83-1.4.05-2.26,1.38-2.26,1.38-.98-.74-2.34-.64-2.86-.03-.53.61-.77,1.38-.67,2.51.09,1.14.99,2.1.99,2.1-.55.38-.64,1.65-.44,2.8.2,1.15,1.03,1.71,1.74,1.64.71-.08,2.18-1.11,2.18-1.11l.37.12h0Zm-.51-2.53c-.34,0-.66-.13-.91-.35l-1.49,2.16-.38-.26,1.57-2.26c-.17-.28-.28-.62-.28-.98,0-.26.05-.51.15-.73l-1.87-1.83.32-.33,1.79,1.75c.27-.34.67-.55,1.11-.55.19,0,.38.04.54.12l1.54-2.22.38.26-1.53,2.21c.34.31.56.79.56,1.32,0,.41-.13.78-.34,1.07l1.84,1.79-.32.33-1.83-1.79c-.24.18-.53.29-.84.29Z" style="fill: #ffe100; fill-rule: evenodd; stroke-width: 0px;"/>
      <path d="m108.65,155.65c.58,0,1.06-.54,1.06-1.2s-.48-1.2-1.06-1.2-1.06.54-1.06,1.2.48,1.2,1.06,1.2Z" style="fill: #e60012; fill-rule: evenodd; stroke-width: 0px;"/>
      <path d="m54.92,95.36c-.58,0-1.06-.54-1.06-1.2s.47-1.2,1.06-1.2,1.06.54,1.06,1.2-.47,1.2-1.06,1.2Z" style="fill: #e60012; fill-rule: evenodd; stroke-width: 0px;"/>
      <path d="m103.36,142.19c.74,1.12,2.67,3.78,4.66,4.23,0,0,.45-.92,1.09-1.06.64-.14,1.3.24,1.31.37.01.13-.14.36-.22.36s-.32-.18-.73-.24c-.4-.06-.79.46-.85.6-.06.14.66.22,1.3.22s1.1.02,1.09-.34c-.01-.37-.29-1.24-1.42-2.12-1.13-.88-1.39-1.01-1.55-1.01s-.65.3-.65.3l.53-3.89s.5,3.6,1.07,3.65c0,0,.31-1.18.96-1.51,0,0-.19-.22-.4-.58-.22-.36-.14-1.15.64-1.58,0,0-.09-1.15.84-1.73,0,0-.33-.7.67-1.82l-1.44-1.39-6.9,7.53h0Zm11.13-3.55c-.36-.27-.67-.45-1.06-.55-.39-.1-.38-.33-.38-.59,0-.26.01-.46-.2-.46s-.09.53-.38.65c-.28.12-1,.11-.96-.35.03-.46.54-1.07.74-1.07s1.11.34,1.85.93.52,1.54.52,1.54l-.14-.09h0Zm-3.5,3.15s-.1.01-.07-.15c.02-.16.3-.17.3-.17.82-.17.77-1.35.77-1.35.39.18.82.46,1.19.83.77.76.98,1.46.99,2.11.01.64-.23,1.14-.53,1.14,0,0-.05-.41-.83-1.15-.79-.74-1.34-1.09-1.75-1.23l-.06-.02h0Zm-1-1.26l.06-.17s.36-.52.87-.52.63.18.54.51c-.08.33-.31.73-.8.85-.49.12-.82-.18-.68-.67h0Zm4.52-1.2l-.15-.12s-.79-.58-1.65-.85c-.05.56-.51,1.11-.66,1.28.04.02.09.04.13.07.75.42,1.7,1.05,2.06,1.88,0,0,.4-.17.49-.88.09-.71,0-1.06-.21-1.37h0Zm-2.38-1.11c0,.25-.07.92-.64,1.24-.42-.07-.7-.03-.69-.27.02-.35.26-1.08,1.3-.97.01,0,.02,0,.03,0h0Zm-.75,4.23l.14.07s-.3.33-.85.53c-.55.2-.97.02-.97.02,0,0,.32-.95.69-1.12,0,0,.39.23.99.5h0Zm-1.55,1.4l-.17-.2s1.23.12,2.35-.79c0,0,1.06.84,1.24,1.77.18.93-.68,1.37-1.35,1.37s-.79-.67-.79-.88c0,0,.58.01.58-.17,0-.18-.06-.38-.44-.4-.38-.01-.98-.24-1.42-.7Z" style="fill: #fff; fill-rule: evenodd; stroke-width: 0px;"/>
      <path d="m60.22,106.42c-.74-1.12-2.67-3.78-4.66-4.23,0,0-.45.92-1.09,1.06-.64.14-1.3-.24-1.31-.38,0-.13.14-.36.22-.36s.32.18.73.24c.4.06.79-.46.85-.6.06-.14-.66-.22-1.3-.22s-1.1-.02-1.09.34c.01.37.29,1.24,1.42,2.12,1.13.88,1.39,1.01,1.55,1.01s.65-.3.65-.3l-.53,3.89s-.5-3.6-1.07-3.65c0,0-.31,1.18-.96,1.51,0,0,.19.22.4.58.22.36.14,1.15-.64,1.58,0,0,.09,1.15-.84,1.73,0,0,.33.7-.67,1.82l1.44,1.39,6.9-7.53h0Zm-11.13,3.55c.36.27.67.45,1.06.55.39.11.38.33.38.59,0,.26-.01.46.2.46s.09-.53.38-.65c.28-.12,1-.1.96.35-.03.46-.54,1.07-.74,1.07s-1.11-.34-1.85-.93c-.74-.59-.52-1.54-.52-1.54l.14.09h0Zm3.5-3.15s.1-.01.07.15c-.02.16-.3.17-.3.17-.82.17-.77,1.35-.77,1.35-.39-.18-.82-.46-1.19-.82-.77-.76-.98-1.47-.99-2.11-.01-.64.23-1.14.53-1.14,0,0,.05.41.83,1.15.79.74,1.34,1.09,1.75,1.24l.06.02h0Zm1,1.26l-.06.17s-.36.52-.87.52-.63-.18-.54-.51c.09-.33.31-.73.8-.85.49-.12.82.18.68.67h0Zm-4.52,1.2l.15.12s.79.57,1.65.85c.05-.56.51-1.11.66-1.28-.04-.02-.09-.04-.13-.07-.75-.42-1.7-1.05-2.06-1.88,0,0-.4.17-.49.88-.09.71,0,1.06.22,1.37h0Zm2.37,1.11c0-.25.07-.92.64-1.24.42.07.7.03.69.27-.01.35-.26,1.08-1.3.97-.01,0-.02,0-.03,0h0Zm.75-4.23l-.14-.07s.3-.33.85-.53c.55-.2.97-.02.97-.02,0,0-.32.95-.69,1.12,0,0-.39-.23-.99-.5h0Zm1.55-1.4l.17.2s-1.23-.12-2.35.79c0,0-1.06-.84-1.24-1.77-.18-.93.68-1.37,1.35-1.37s.79.67.79.88c0,0-.58-.01-.58.17s.06.38.44.4c.38.02.98.24,1.42.7Z" style="fill: #fff; fill-rule: evenodd; stroke-width: 0px;"/>
      <path d="m68.62,74.4c-7.34-4.29-9.58-13.06-9.58-13.06,0,0-2.24,8.77-9.57,13.06,7.34,4.29,9.57,13.06,9.57,13.06,0,0,2.24-8.77,9.58-13.06Z" style="fill: #e60012; fill-rule: evenodd; stroke-width: 0px;"/>
      <path d="m94.96,174.21c7.34,4.29,9.58,13.06,9.58,13.06,0,0,2.24-8.77,9.58-13.06-7.34-4.29-9.58-13.06-9.58-13.06,0,0-2.24,8.77-9.58,13.06Z" style="fill: #e60012; fill-rule: evenodd; stroke-width: 0px;"/>
    </g>
    <path d="m47.11,62.82c0-1.61,1.08-2.93,2.39-2.93h64.57c1.32,0,2.39,1.32,2.39,2.93v122.97c0,1.61-1.08,2.93-2.39,2.93H49.5c-1.32,0-2.39-1.32-2.39-2.93V62.82Z" style="fill: none; fill-rule: evenodd; stroke: #231815; stroke-miterlimit: 22.93; stroke-width: 1.5px;"/>
    <path d="m37.18,81.89c-11.26-6.58-14.69-20.04-14.69-20.04,0,0-3.43,13.45-14.7,20.04,11.26,6.58,14.7,20.04,14.7,20.04,0,0,3.43-13.45,14.69-20.04Z" style="fill: #e60012; fill-rule: evenodd; stroke-width: 0px;"/>
    <path d="m23.22,4.6c6.94,0,12.62,5.68,12.62,12.62v25.6c0,1.53-.28,3-.78,4.36.85.61,1.73.87,2.87.81l.26,5.61c-2.8.14-4.67-.38-6.34-1.6-2.26,2.13-5.3,3.44-8.63,3.44-6.94,0-12.62-5.68-12.62-12.62v-7.52c-2.02-.17-3.41-.05-3.42-.05l-.39-5.61s1.53-.14,3.82.04v-12.46c0-6.94,5.68-12.62,12.62-12.62h0Zm0,5.61c-3.85,0-7.01,3.16-7.01,7.01v13.41c3.88,1.05,8.2,3.13,11.34,7.19,1.15,1.49,1.98,2.6,2.68,3.56v-24.16c0-3.86-3.16-7.01-7.01-7.01h0Zm-7.01,26.26v6.35c0,3.86,3.16,7.01,7.01,7.01,1.87,0,3.57-.74,4.83-1.94-.53-.7-1.08-1.46-1.69-2.3-1.02-1.4-2.19-3.01-3.24-4.36-1.88-2.43-4.42-3.9-6.91-4.77Z" style="fill: #e60012; stroke-width: 0px;"/>
  </g>
</svg>