<?xml version="1.0" encoding="UTF-8"?>
<svg id="_图层_2" data-name="图层 2" xmlns="http://www.w3.org/2000/svg" viewBox="0 0 162.16 247.2">
  <g id="_图层_1-2" data-name="图层 1">
    <path d="m1,6.57c0-3.07,2.49-5.57,5.53-5.57h149.11c3.04,0,5.52,2.51,5.52,5.57v234.05c0,3.07-2.49,5.57-5.52,5.57H6.53c-3.04,0-5.53-2.51-5.53-5.57V6.57Z" style="fill: #fff; fill-rule: evenodd; stroke: #231815; stroke-miterlimit: 22.93; stroke-width: 2px;"/>
    <path d="m125.88,165.77c11.26,6.58,14.7,20.04,14.7,20.04,0,0,3.43-13.45,14.69-20.04-11.26-6.58-14.69-20.04-14.69-20.04,0,0-3.43,13.45-14.7,20.04Z" style="fill: #e60012; fill-rule: evenodd; stroke-width: 0px;"/>
    <polygon points="156.39 243.06 142.54 243.06 142.54 237.45 146.69 237.45 146.69 218.82 135.1 237.45 138.62 237.45 138.62 243.06 124.76 243.06 124.76 237.45 128.5 237.45 138.42 221.52 127.26 197.65 125.04 197.65 125.04 192.04 138.49 192.04 138.49 197.65 133.43 197.65 141.94 215.85 146.69 208.21 146.69 197.65 142.04 197.65 142.04 192.04 155.49 192.04 155.49 197.65 152.31 197.65 152.31 237.45 156.39 237.45 156.39 243.06" style="fill: #e60012; stroke-width: 0px;"/>
    <path d="m46.4,107.59l18.64-12.58c-.38-1.99.57-3.47,2.4-3.43,1.83.04,2.17,1.74,2.17,1.74,1.85-.92,1.98-2.2,1.96-2.82-.02-.63-.3-.73-.23-.98.06-.25.36-.88.36-.88-.38-.21-.4-1.51-.4-2.28s-.44-.98-.99-1.38c-.55-.4-1.08-.68-.92-1.43.17-.75.48-1.61,1.19-3.5.71-1.89.9-2.64.78-3.7-.12-1.06-.52-1.5-.64-2.65-.12-1.16.29-1.55.29-1.55,0,0-.65-.35-.75-.8-.1-.45-.03-1.08-.03-1.08-.27-.19-.54-.62-.6-1.03-.06-.41.14-.73.14-.73l-4.51-9.32h39.07s-6.49,12.21-6.49,12.21c0,0,1.15,1.98-.25,2.62,0,0,.65,1.13-.24,1.88,0,0,1.9,7.23,2.68,11.01.78,3.78.76,4.63-.88,6.83h7.39s3.49,3.96,3.49,3.96v-29.58s5.72-6.53,5.72-6.53v78.03s-18.64,12.58-18.64,12.58c.38,1.99-.57,3.47-2.4,3.43-1.83-.04-2.17-1.74-2.17-1.74-1.85.92-1.98,2.2-1.96,2.82.02.63.3.73.23.98-.06.25-.36.88-.36.88.38.21.4,1.51.4,2.28s.44.98.99,1.38c.55.4,1.08.68.92,1.43-.17.75-.48,1.61-1.19,3.5-.71,1.89-.9,2.64-.78,3.7.12,1.06.52,1.5.64,2.65.12,1.16-.29,1.55-.29,1.55,0,0,.65.35.75.8.1.45.03,1.08.03,1.08.27.19.54.62.6,1.03.05.41-.14.73-.14.73l4.51,9.32h-39.07s6.49-12.21,6.49-12.21c0,0-1.15-1.98.25-2.62,0,0-.65-1.13.24-1.88,0,0-1.9-7.23-2.68-11.01-.78-3.78-.76-4.63.88-6.83h-7.39s-3.49-3.96-3.49-3.96v29.58s-5.72,6.53-5.72,6.53v-78.03Z" style="fill: #004ea2; fill-rule: evenodd; stroke-width: 0px;"/>
    <path d="m115.76,139.61l-18.64,12.58c.38,1.99-.57,3.47-2.4,3.43-1.83-.04-2.17-1.74-2.17-1.74-1.85.92-1.98,2.2-1.96,2.82.02.63.3.73.23.98-.06.25-.36.88-.36.88.38.21.4,1.51.4,2.28s.44.98.99,1.38c.55.4,1.08.68.92,1.43-.17.75-.48,1.61-1.19,3.5-.71,1.89-.9,2.64-.78,3.7.12,1.06.52,1.5.64,2.65.12,1.16-.29,1.55-.29,1.55,0,0,.65.35.75.8.1.45.03,1.08.03,1.08.27.19.54.62.6,1.03.05.41-.14.73-.14.73l4.51,9.32h-39.07s6.49-12.21,6.49-12.21c0,0-1.15-1.98.25-2.62,0,0-.65-1.13.24-1.88,0,0-1.9-7.23-2.68-11.01-.78-3.78-.76-4.63.88-6.83h-7.39s-3.49-3.96-3.49-3.96v29.58s-5.72,6.53-5.72,6.53v-78.03s18.64-12.58,18.64-12.58c-.38-1.99.57-3.47,2.4-3.43,1.83.04,2.17,1.74,2.17,1.74,1.85-.92,1.98-2.2,1.96-2.82-.02-.63-.3-.73-.23-.98.06-.25.36-.88.36-.88-.38-.21-.4-1.51-.4-2.28s-.44-.98-.99-1.38c-.55-.4-1.08-.68-.92-1.43.17-.75.48-1.61,1.19-3.5.71-1.89.9-2.64.78-3.7-.12-1.06-.52-1.5-.64-2.65-.12-1.16.29-1.55.29-1.55,0,0-.65-.35-.75-.8-.1-.45-.03-1.08-.03-1.08-.27-.19-.54-.62-.6-1.03-.06-.41.14-.73.14-.73l-4.51-9.32h39.07s-6.49,12.21-6.49,12.21c0,0,1.15,1.98-.25,2.62,0,0,.65,1.13-.24,1.88,0,0,1.9,7.23,2.68,11.01.78,3.78.76,4.63-.88,6.83h7.39s3.49,3.96,3.49,3.96v-29.58s5.72-6.53,5.72-6.53v78.03Z" style="fill: #112343; fill-rule: evenodd; stroke-width: 0px;"/>
    <path d="m110.71,79.41v.17s-.17.05-.17.05c-4.18,1.24-5.3,6.62-5.3,6.63l-.09.42-.3-.3s-3.59-3.5-3.88-9.98c-.3-6.5,4.48-10.54,4.49-10.55l.4-.35-.02.53c-.17,5.12,4.71,7.37,4.72,7.38l.13.06v.15s.01,5.8.01,5.8Z" style="fill: #112343; stroke-width: 0px;"/>
    <path d="m93.03,100.04h-5.52s-4.75,6.31-11.23,8.73c-.1-1.28-.25-2.49-.42-3.61.52-.24,2.12-1.03,3.72-2.15,2.01-1.4,5.43-4.95,6.12-7.07h9.66c-.32.51-1.2,1.93-2.33,4.1h0Zm2.83-4.1c-.33.52-1.26,1.99-2.4,4.1h3.55c1.68-2.73,3.03-4.1,3.03-4.1h-4.18Zm.86,4.56h-3.45c-.42.82-.82,1.66-1.19,2.49h3.29c.46-.92.92-1.75,1.36-2.49h0Zm-1.59,2.97h-3.27c-.45,1.01-.86,2.02-1.23,2.98h3.2c.42-1.08.85-2.07,1.29-2.98h0Zm-1.47,3.46h-3.21c-.38.99-.71,1.94-1,2.8h3.27c.29-.99.61-1.92.94-2.8h0Zm-1.07,3.28c-.3,1.04-.57,2.14-.81,3.29h-3.51c.2-.68.54-1.85,1.03-3.29h3.3Zm-.91,3.76c-.3,1.5-.53,3.1-.7,4.79l-2.91-4.58s.02-.07.06-.2h3.55Z" style="fill: #ffe100; fill-rule: evenodd; stroke-width: 0px;"/>
    <path d="m90.26,110.72l-1.13,1.04,1.08,1.2,1.08-.99-1.04-1.24h0Zm1.29-3.27l-1.21.75.72,1.28,1.32-.74-.83-1.29h0Zm1.02-3.53l-1.02,1.09,1.08,1.29,1-1.19-1.06-1.18h0Zm1.66-3.02l-.93.71.75,1,.84-.75-.66-.96h0Zm-17.84,6.12l.39-1.74,1.56.46-.42,1.81-1.54-.53h0Zm2.42-1.4l.39-1.65,1.54.53-.39,1.65-1.54-.53h0Zm3.09-3.52l1.19.36-.37,1.81-1.18-.4.36-1.77h0Zm1.7-2.06l1.68-.2.07,1.91-1.64.1-.1-1.8h0Zm2.06-3.24l1.8,1.05-.44,1.88-1.67-.87.31-2.05h0Zm3.47-.09l-.92,1.35,1.14,1.31.97-1.27-1.19-1.4h0Zm3.25-.13l-1.32,1.44.79,1.35,1.27-1.14-.75-1.66h0Zm3.82.44l-1.41,2.1,1.76-.26,1.23-1.83h-1.58Z" style="fill: #112343; fill-rule: evenodd; stroke-width: 0px;"/>
    <path d="m71.84,71.62c-.56.01-1.05-.28-1.07-.63-.03-.35.45-.76,1.3-.81.85-.05,3.01,0,5.1.21,2.09.21,5.09,1.17,7.75,2.26,2.66,1.09,5.35,1.97,7.14,2.28,1.78.31,3.56-.06,4.21-.19.64-.12,1.17-.26,1.17.12s-.28,1.06-1.33,1.23c-1.06.17-3.19.39-4.6,0-1.41-.39-5.78-2.11-6.92-2.55-1.14-.44-4.74-1.66-7.14-1.89-1.95-.19-3.68-.08-5.59-.04h0Zm3.6-1.87c.91,0,3.74.35,5.97,1.02,2.24.66,5.44,2.03,8.23,2.97,2.8.94,5.08.81,6.22.59,1.14-.21,1.42-.71,1.41-1.19-.01-.48-.27-.74-.73-.57-.46.17-1.31.44-3.33.42-2.02-.02-5.46-1.24-7.99-2.31-2.53-1.08-5.58-2.05-6.86-2.14-1.28-.09-5.39-.11-6.59-.02-1.2.09-1.22.56-1.22.81,0,.26.38.71,1.08.6.7-.1,3.54-.16,3.54-.16h.28Z" style="fill: #e60012; fill-rule: evenodd; stroke-width: 0px;"/>
    <path d="m66.51,59.19l4.07,8.79s5.37-.67,9.95.25c4.58.93,7.3,3.71,11.58,3.92,0,0,3.21.22,5.06-.83l5.82-12.14h-36.47Z" style="fill: #ffe100; fill-rule: evenodd; stroke-width: 0px;"/>
    <path d="m67.71,61.77c.49.07,1.37.34,1.5,1.32,0,0,1.85.02,1.73,1.23-.12,1.21-1.2,1.25-1.2,1.25,0,0,.42.83,1.87.87,1.45.04,1.65-.87,1.63-.93-.02-.06-1.39-.4-1.33-1.23.06-.83.74-1.35,1.35-1.53,0,0-.5-2.44,1.15-2.53,1.65-.1,1.43,2.5,1.43,2.5,0,0,1.57.14,1.45,1.23-.12,1.09-1.12,1.39-1.49,1.37-.38-.02,1.75,2.28,4.04.75,0,0-1.24-.67-1.16-1.62.08-.95,1.47-1.07,1.47-1.07,0,0,0-2.28,1.69-2.06,1.7.22,1.17,2.3,1.02,2.48-.14.18,1.17.31.82,1.73-.14.77-1.19,1.02-1.31,1-.12-.02,2.15,2.75,3.54.92,0,0-1.29-.9-.88-1.77.41-.88,1.45-.96,1.45-.96,0,0-.22-2.18,1.72-1.89,1.95.29,1.03,2.93,1.03,2.93,0,0,.86.57.66,1.59-.21,1.02-1.25,1.14-1.25,1.14,0,0,.43.96,1.6,1.28,1.17.33,1.95-.59,1.95-.59,0,0-1.82-.69-1.45-1.73.37-1.04,1.23-1.06,1.62-1.06,0,0-.18-2.4,1.46-2.22,1.64.18.88,2.52.88,2.52,0,0,1.13.79.72,1.85-.41,1.06-1.27,1.14-1.27,1.14,0,0,.35.67,1.7.61,1.35-.06,1.52-1.04,1.6-1.18,0,0-.49-2.24,1.56-2.02,0,0,.06-1.53,1.14-2l-2.11,4.4-.27-.21s-.77,2.1-2.83,1.64c-2.07-.46-1.67-1.75-1.38-2.52.28-.77.97-1.58-.04-1.8-1.01-.21-.68,1.28-.7,1.67-.02.38-.13,2.24-1.78,1.99-1.65-.24-3.34-1.4-3.65-2.36-.31-.97.41-1.5.71-1.75.3-.26-.06-1.17-.73-.93-.67.24-.59,1.7-.67,2.05-.08.36-1.29,1.79-2.8,1.27-1.52-.52-2.53-1.85-2.46-2.71.06-.86.6-2.1-.23-2.19-.83-.09-.29,1.96-.55,2.4-.26.44-.89,1.18-3.05,1.01-2.16-.17-2.78-1.58-2.61-2.63.17-1.04.24-1.95-.42-1.78-.66.17-.57,1.23-.24,1.77.34.54-.69,2.16-2.44,2.41-.95.13-1.62-.19-2.11-.57l-2.08-4.49h0Zm7.86,5.58c-.38-.22-.69-.43-.87-.57-.19.23-.42.44-.67.61.09,0,.19,0,.29-.01.44-.02.85-.02,1.26-.02h0Zm-5.27.04l.28.6s5.37-.67,9.95.25c4.58.93,7.3,3.71,11.58,3.92,0,0,3.21.22,5.06-.83l.18-.38c-.44.16-1.46.5-2.65.72v-.02c-.78-.02-1.68-1.31-1.69-1.31l-.13-.19-.19.13s-1.98,1.32-3.42.64c-1.49-.7-1.98-1.86-1.98-1.86l-.08-.2-.2.07s-1.5.53-2.81.25c-.36-.15-.71-.29-1.03-.43-1.1-.67-1.95-1.82-1.95-1.83l-.17-.22-.19.21c-.27.29-.73.54-1.31.67-.1.02-.2.04-.3.06-.79-.12-1.61-.21-2.51-.26-1.09-.41-1.91-1.11-1.92-1.11l-.2-.17-.15.22c-.2.31-.49.57-.83.76h0c-.34.19-.72.32-1.12.35-.59.05-1.62,0-2.2-.04h0Zm11.43.84c-.33-.32-.59-.62-.75-.81-.19.16-.42.3-.69.41.45.09.92.22,1.43.4h0Zm6.57,2.67c-.76-.54-1.17-1.15-1.34-1.46-.29.09-.86.23-1.53.28.44.18.9.38,1.39.58.55.23,1.04.42,1.48.6h0Zm5.52.9c-.47-.31-.86-.77-1.06-1.01-.4.24-1.4.75-2.44.8.96.24,1.79.31,2.91.26.2,0,.4-.02.59-.04Z" style="fill: #112343; fill-rule: evenodd; stroke-width: 0px;"/>
    <path d="m68.19,95.51l.14.02s.77-.42.74-1.59c-.02-1.16-.56-1.77-1.67-1.77s-1.71.67-1.8,1.93c-.09,1.25.43,2.6,1.89,2.89,1.46.29,3.99-1.23,5.27-2.75,1.28-1.52,1.42-2.01,1.46-2.31.05-.29.11-.38.29-.38s.29.2.18.6c-.11.4-.83,1.63-1.91,2.73-1.08,1.1-2.79,2.37-4.64,2.53,0,0,1.01.61,1.67.61,0,0,1.28-.11,2.73-1.43,1.44-1.32,2.84-3.76,3.13-4.55.29-.78.65-.27.47.22-.18.49-2.05,4.37-5.05,5.78,0,0,1.62.34,2.93-.92,1.31-1.25,2.49-3.31,3.11-5.06,0,0,.14-.61.34-.66.21-.05.34.21.14.77-.21.57-1.03,3.4-3.7,5.56,0,0,1.22.09,1.58-.21.35-.31,1.79-2.4,2.4-3.8.61-1.41,1-2.36,1.12-2.69.13-.33.43-.25.47-.09.04.16-.06.56-.3,1.11-.25.55-1.59,3.83-2.8,5.13,0,0,1.17-.27,1.95-1.67.78-1.4,1.97-4.29,2.08-4.58.11-.29.19-.27.37-.27s.15.21,0,.53c-.14.33-1.3,3.44-2.07,4.47l2.92-2.98s-.64-1.19-.35-2.52c.28-1.33,1.38-1.72,2.16-1.72s1.62.84,1.62.84c0,0-.4-3.05-1.14-5.88-.73-2.76-1.92-6.91-2.28-10.43-.54-.17-1.09-.33-1.63-.45-3.29-.74-6.17-.72-7.27-.7-.48,0-.83.11-1.07.23-.22.3-.37.69-.36,1.18.04,1.44.72,2.32.7,3.14-.02.82.09,1.11-1.01,4.09-1.1,2.98-1.05,3.1-1.05,3.33s.29.49.98.91c.68.42,1.08,1.02,1.01,2.42,0,0,1.18.34,1.83.67.65.33,1.08.59,1.33.59s.31-.4.31-.4l.19,2.08s-.41-1-1.3-1.23c-.88-.23-1.72-.11-1.99-.08-.27.03-.3.69-.28,1.08.02.39.21,1.21-.2,2.08-.41.88-1.06,1.67-2.42,2.02l-.21,1.45s1.95-.31,3.56-3.49c0,0,.11-.31.34-.31s.13.44.03.68c-.11.24-.82,1.52-2.1,2.69-1.28,1.17-2.76,1.11-3.49,1.01s-1.4-.83-1.4-1.66.55-1.41,1.24-1.49c.69-.09,1.1.28,1.16.84.06.56.06.86-.15,1.24-.21.38-.34.64-.21.64h0Zm4.88-20.69l-.1-.15s-.39-.86.84-.96c1.23-.1,5.56.1,6.74,3.44,0,0,0,.15-1.01-.66-1.01-.81-2.76-1.8-5.56-1.62,0,0-.86.32-.91-.05h0Zm1.28,1.28s1.3-.59,3.27.42c1.97,1.01,2.76,1.92,2.07,1.67-.69-.25-2.36-1.48-3.79-1.6-1.43-.12-1.55.22-1.55-.07v-.42h0Zm1.33,2.02s.18-.16.31.38c.13.54-.11.65-.43.9-.32.25-.2-.18-.14-.6.07-.43.25-.67.25-.67h0Zm-2.32-1.5s.61.52,1.56.58c.95.07,2.75.36,4.39,2.08,0,0-.25.16-1.51.16,0,0-1.98,1.03-3.09.92,0,0,.68.78,1.06,1.16.38.38-.14.49-.9-.13-.77-.63-.61-.78-.77-.83-.16-.05-.7.11-.63-.09.07-.2.43-1.23.63-1.12.2.11.43.49.47.34.05-.16.11-.47.07-.74-.04-.27-.14-.76-.14-.76,0,0-.65.54-.79.69-.14.16-.16-.78-.25-1.05-.09-.27-.11-1.21-.11-1.21h0Zm3.58,1.95s.29.18.29.4-.61.18-.61.18c-.02-.36.32-.58.32-.58h0Zm.05,6.66s-.23-.7.26-.67c.49.03,1.13.76,1.15,1.92.01,1.16-.74,1.81-2.02,1.56-1.28-.24-1.67-1.14-2.28-1.14s-1.1.1-1.08-.23c.02-.32.02-.78.03-.96.02-.18.72-.34,1.26.1.54.44,1.65,1.19,2.08,1.32.43.13.57.36,1.02-.03.44-.39.77-.98.52-1.27-.25-.29-.95-.6-.95-.6h0Zm-3.28-2.47s-.16-.31.09-.23c.25.08.3.19.3.19.77.82.85,1.68,0,2.49-.84.81-1.97-.62-2.64-.72-.67-.09-.53-.03-.45-.79.08-.76,1.78.34,2.1.58.31.23,1.08.28,1.06-.3-.02-.58-.45-1.21-.45-1.21h0Zm10.89,8.41c.17-.12.18-.16.09-.36-.15-.32-.5-.97-1-1.01-.66-.06-1.41.51-1.39,1.74.02,1.23,1.18,1.34,1.78,1.3.6-.04,1.5-.89,1.52-2.64.02-1.74-.36-3.12-1.19-6.62-.79-3.32-2.05-7.55-2.31-10.48.31.11.61.22.92.33.19.96.65,3.22,1.16,5.7.43,2.08.95,3.95,1.36,5.44.23.84.43,1.55.56,2.11.18.76.5,2.28.33,3.75-.14,1.17-.31,2.42-1.63,3.03-.41.19-.86.19-1.38.09-.59-.12-1.13-.56-1.46-1.23-.9-1.77.17-3.3,1.1-3.32.93-.02,2.07.54,2.07,1.4,0,.86-.44,1.97-1.34,2.02-.9.05-1.22-.88-1.03-1.53.19-.66.56-.64.81-.64s.54.34.59.59c.05.25.22.42.44.32h0Zm-.33-17.24c.41,1.64,1.33,5.32,2.1,8.59.51,2.17.88,3.74,1.12,4.93.24,1.17.35,1.95.35,2.56,0,.6-.03,1.16-.26,1.79-.21.56-.57,1.19-1.21,1.95h-1.08s-.03,0-.08,0c1.15-.78,1.63-2,1.77-3.25.18-1.55-.16-3.14-.34-3.93-.13-.56-.33-1.29-.57-2.14-.41-1.48-.93-3.35-1.35-5.41-.45-2.17-.87-4.24-1.09-5.35.21.08.42.17.63.25h0Zm1.53.63l2.37,9.65h0s.88,3.94,1.06,4.89c.1.53.08,1.47-.31,2.53-.26.69-.68,1.43-1.33,2.12h-.5c.51-.67.83-1.24,1.02-1.77.26-.71.3-1.33.3-1.98s-.11-1.46-.36-2.66c-.24-1.18-.61-2.77-1.12-4.95-.72-3.03-1.56-6.42-2.01-8.21.29.12.59.24.89.37h0Zm1.5.6c-.29-.11-.57-.23-.86-.34l2.27,9.26h0s.88,3.96,1.07,4.92c.12.6.1,1.66-.33,2.82-.23.63-.59,1.29-1.11,1.93h.53c1.06-.79,1.5-1.9,1.66-2.92.16-1.07.03-2.04-.04-2.42-.13-.8-1.47-6.32-1.47-6.33h0s-1.72-6.92-1.72-6.92h0Zm1.41.53c-.26-.09-.52-.19-.78-.28l1.63,6.54h0s1.34,5.57,1.48,6.37c.07.41.22,1.44.04,2.6-.15.96-.53,2-1.36,2.84h.53c.72-.65,1.14-1.41,1.38-2.18.35-1.15.27-2.3.1-3.07-.17-.75-.29-1.31-.44-2-.36-1.64-.81-3.68-1.1-4.99-.35-1.51-1.09-4.41-1.47-5.84h0Zm1.45.46l2.23,8.86h0s.72,3,.86,4.13c.07.55.13,1.35-.08,2.18-.2.82-.67,1.7-1.65,2.44h-.5c.56-.63.92-1.33,1.13-2.02.38-1.25.3-2.51.11-3.35-.04-.18-.23-1.05-.44-2-.35-1.57-.78-3.55-1.11-4.99-.32-1.41-.99-3.99-1.38-5.51.26.09.53.17.8.25,0,0,.01,0,.02,0h0Zm1.46.38c.49,1.84,1.53,5.8,1.87,7.57.21,1.09.43,2.02.61,2.8.2.88.36,1.56.42,2.08.05.48.13,1.26-.04,2.13-.16.85-.54,1.79-1.39,2.66h-.72c.76-.73,1.15-1.54,1.34-2.31.23-.92.16-1.78.09-2.38-.15-1.16-.87-4.18-.87-4.19h0s-2.16-8.56-2.16-8.56c.29.08.57.15.85.21h0Zm1.38.27c-.25-.04-.51-.08-.77-.14.51,1.94,1.47,5.63,1.8,7.33.21,1.09.42,2.01.6,2.78.21.9.37,1.6.43,2.14.06.51.14,1.34-.04,2.3-.15.82-.49,1.71-1.19,2.56h.44c.72-.59,1.14-1.2,1.38-1.82.24-.62.31-1.25.31-1.87,0-1.26-.98-5.5-.99-5.52h0s-1.98-7.76-1.98-7.76h0Zm1.39.13c-.25,0-.52-.02-.79-.05l1.93,7.56h0s1,4.33,1,5.64c0,.67-.07,1.37-.34,2.07-.21.55-.55,1.09-1.08,1.62h.55c2.22-2.14,1.78-4.01.88-7.84-.1-.43-.21-.88-.34-1.45-.74-3.28-1.43-6.04-1.81-7.56h0Zm1.37-.12l2.01,8.34h0s.79,3.31.83,4.35c.02.51.05,1.16-.16,1.89-.19.7-.59,1.5-1.4,2.4h-.61c2.01-2.19,1.54-4.16.65-7.97-.11-.48-.23-.99-.34-1.44-.73-3.22-1.4-5.92-1.78-7.45.29-.02.55-.06.8-.11h0Zm1.18-.55l.11.09s2.73,10.6,2.95,12.55c.22,1.95-.13,3.94-1.61,4.89h-.62c.67-.83,1.03-1.58,1.21-2.26.23-.82.2-1.51.18-2.06-.04-1.09-.84-4.44-.85-4.45h0s-2.02-8.38-2.02-8.38c.24-.1.46-.23.65-.38h0Zm-29.4,16.94l.18.03s.48.07.48.55-.19,1.47-.67,1.51c-.48.05-.8-.43-.82-.89-.01-.46.31-1.15.83-1.2Z" style="fill: #fff; fill-rule: evenodd; stroke-width: 0px;"/>
    <path d="m105.53,67.87c-.09-.41-.14-.85-.15-1.31-1.1,1.1-4.18,4.65-3.94,9.82.24,5.2,2.63,8.4,3.46,9.37.09-.34.26-.85.51-1.45-6.41-8.31-.64-15.53.13-16.42h0Zm4.5,5.79c-.27-.15-.67-.39-1.13-.74-.37.6-1.8,3.3.51,6.67.2-.1.4-.18.61-.26v-5.67Z" style="fill: #fff; stroke-width: 0px;"/>
    <path d="m108.54,72.63c-.34-.28-.69-.61-1.04-.99-.11.25-.29.68-.47,1.26h0s-.01.02-.01.02c-.48,1.55-.96,4.12-.09,6.84l.09.03-.05.07c.13.4.29.8.48,1.2.45-.47.97-.9,1.56-1.25-2.48-3.64-.84-6.59-.47-7.18h0Zm-1.37-1.37c-.06.13-.24.51-.44,1.07l-.86-1.67.79-.1c.16.25.34.48.51.7h0Zm-.78-1.13c-.1-.17-.19-.35-.28-.54-.09.16-.21.37-.35.62l.63-.08h0Zm-.51-1.06c-.08-.2-.15-.41-.21-.63-1.21,1.53-5.59,7.98-.05,15.38.08-.18.18-.37.28-.56-1.02-1.35-1.63-2.73-1.95-4.07h-.03s.02-.03.02-.03c-.26-1.09-.33-2.15-.28-3.15h0s0,0,0,0c.05-.93.2-1.81.4-2.62l-.05-.04.06-.02c.31-1.21.74-2.23,1.11-2.98l-.03-.05h.06c.31-.63.57-1.05.68-1.22h0Zm.26,13.75c-.18-.25-.35-.51-.51-.76l.69.46c-.06.1-.12.2-.18.3h0Zm.44-.68l-.96-.64,1-1.21c.14.38.3.76.5,1.15-.19.23-.37.46-.54.7h0Zm-1.14-11.28l.92,1.79-1.78.52c.25-.9.56-1.69.86-2.31h0Zm-1.01,2.89l1.29,1.22-1.6.79c.05-.71.16-1.38.31-2.01h0Zm-.34,2.6l1.59,1.18-1.37,1.26c-.18-.84-.24-1.66-.22-2.45h0Zm.37,3.03l1.77.64-1.04,1.26c-.32-.63-.56-1.27-.73-1.9h0Zm2.02-6.29c-.14.48-.27,1.02-.36,1.63l-1.23-1.16,1.59-.47h0Zm-.44,2.24c-.06.58-.09,1.21-.05,1.86l-1.48-1.1,1.53-.76h0Zm0,2.5c.06.57.17,1.16.34,1.75l-1.61-.58,1.27-1.17Z" style="fill: #ffe100; stroke-width: 0px;"/>
    <path d="m50.15,105.38l7.97-5.23s-.62-1.34-.64-2.08c-.03-.74.05-2.36.16-2.84.1-.48.1-.79-.98-.63-1.08.15-1.62,1.83-1.62,1.83,0,0-2.5-6.19-4.27-3.73,0,0-.87-1.01-1.62-.51,0,0-.46.33-.36,1.27,0,0-1.13-.03-1.16,1.19-.03,1.22.18,1.65.18,1.65,0,0-.89.61-.5,2.29.39,1.69,2.86,6.79,2.86,6.79Z" style="fill: #112343; fill-rule: evenodd; stroke-width: 0px;"/>
    <path d="m51.73,102.42l-.1-.49s1-.79,1.42-1.48c.43-.69,1.08-1.67,1.22-2.07.15-.39.33.42.33.42,0,0,.6-.91.15-2.02-.45-1.11-2.22-3.57-2.52-3.79-.3-.22-.82-.27-.8.59.03.86.5,1.55,1.28,2.21,0,0-.35.42-.25.64s.75,1.11.7,1.3c-.05.2-.68.71-.7.27-.03-.44-1.22-3.82-2-4.73-.77-.91-1.25-.47-1.25-.02,0,.44-.03,1.28.87,1.53,0,0-.4,1.67.78,1.8,0,0-.07,1.08.05,1.23.13.15.87,1.11.72,1.23-.15.12-.6.71-.6.47s-.18-.27-.18-.52c0-.25,0-.79-.17-.79s-.65-.02-.62-.25c.02-.22.1-1.45-.1-1.65-.2-.2-.88-1.8-1.47-1.65-.6.15-.38,1.28.05,2.29.42,1.01,1.72,3.45,1.72,3.45,0,0-.23.84-.42.47-.2-.37-.23-.66-.23-.66l-.47-.07-.02-.84-.5-.12s-.07-.98-.17-1.3c-.1-.32-.9-1.06-.83-.27.07.76,1.74,5.25,3.2,7.02l2.34-1.58c-.06-.5-.15-1.48-.12-1.63.05-.2-.82.81-1.3,1.01h0Zm-.37-1.13l-.25.25s-.07-.76.6-1.45c.67-.69,1.37-1.5,1.57-1.38.2.12.42.27-.05.76-.47.49-1.75,1.75-1.87,1.82h0Zm4.45-5.27c.15.02.7,1.6,1.2,1.75l.26,2.49-3.41,2.3c.01-.42.05-1.79.2-2.08.17-.34.77-.54.95-1.23.17-.69.65-3.25.8-3.22h0Zm.57-.62c.05.86.5,1.08.5,1.08,0,0,.17-.62.12-1.01-.05-.39-.5-.37-.5-.37l-.13.3Z" style="fill: #fff; fill-rule: evenodd; stroke-width: 0px;"/>
    <path d="m77.28,97.27c1.35-.75,3.02-1.99,4.76-4.05,0,0,.74,1,2.23.92,0,0-1.36,3.75-5.93,6.71l-1.05-3.58Z" style="fill: #e60012; fill-rule: evenodd; stroke-width: 0px;"/>
    <path d="m75.89,97.93c.32-.13.67-.29,1.06-.49l1.04,3.62c-.3.19-.63.37-.96.55l-1.14-3.68h0Zm-1.6.47c.16.51.61,1.96,1.05,4.02.41-.18.97-.44,1.34-.63l-1.13-3.74c-.47.16-1,.29-1.27.34Z" style="fill: #ffe100; fill-rule: evenodd; stroke-width: 0px;"/>
    <path d="m100.28,149.23c-8.42-13.16-8.17-24.58-7.88-29.83.3-5.36,1.91-10.87,4.06-15.34,2.15-4.46,6.9-9.75,6.9-9.75h-18.82c-.99,2.89-3.19,4.84-5.24,6.35-1.65,1.22-3.35,1.94-3.89,2.15.12.59.24,1.22.35,1.89.7-.32,2.84-1.38,4.56-2.78,2.13-1.73,4.15-4.22,5.11-6.47h15.6s-5.17,4.58-8.26,15.65c-2.9,10.68-2.26,24.41,6.39,38.87l1.09-.74Z" style="fill: #fff; fill-rule: evenodd; stroke-width: 0px;"/>
    <path d="m76.32,109.44c.79-.31,7.24-2.96,11.39-8.89h5.05c-1.6,3.13-3.63,7.65-5.31,13.11h-10.9c-.07-1.18-.14-2.39-.2-3.66,0-.19-.02-.38-.03-.57Z" style="fill: #e60012; fill-rule: evenodd; stroke-width: 0px;"/>
    <path d="m85.59,133.2c0,.1.02.2.03.3.83,8.1,1.5,12.06,3.16,16.15l1.44-.09s-.8-2.29-1.57-5.77c-.77-3.48-1.43-8.58-1.75-14.31,0,0-.03-6.87.5-9.88h-1.02c-.54,1.37-.79,3.66-.9,5.12-.19,2.77-.06,5.51.11,8.48h0Z" style="fill: #ffe100; fill-rule: evenodd; stroke-width: 0px;"/>
    <path d="m87.78,119.61c-.13,1.36-.75,8.57-.21,13.96.6,5.98,1.49,11.77,3.04,15.94h2.08s-1.9-2.85-3.44-10.26c-1.33-6.37-1.17-16.82-1.1-19.64h-.36Z" style="fill: #fff; fill-rule: evenodd; stroke-width: 0px;"/>
    <path d="m100.45,125.14l-3.13-4.16s-.21,4.48.78,8.08l2.36-3.92h0Zm2.08-.11l-4.85,9.19c-4.02-9.72-1.23-18.01-1.23-18.01l6.08,8.81Z" style="fill: #fff; fill-rule: evenodd; stroke-width: 0px;"/>
    <path d="m104.52,124.22c.2-.27.4-.54.6-.8l-8.65-13.47c-.19.54-.38,1.1-.56,1.67l8.62,12.6Z" style="fill: #ffe100; fill-rule: evenodd; stroke-width: 0px;"/>
    <path d="m105.12,123.42c1.13-1.46,2.36-2.75,3.56-3.88l-9.84-15.11c-.84,1.64-1.66,3.48-2.38,5.52l8.65,13.47Z" style="fill: #112343; fill-rule: evenodd; stroke-width: 0px;"/>
    <path d="m109.91,118.46c1.04-.88,2.04-1.64,2.94-2.26l-11.19-16.5c-.65.95-1.33,2.03-2,3.22l10.25,15.53Z" style="fill: #e60012; fill-rule: evenodd; stroke-width: 0px;"/>
    <path d="m108.69,119.54c.27-.25.53-.48.79-.71l-10.13-15.35c-.17.31-.34.63-.5.95l9.84,15.11Z" style="fill: #ffe100; fill-rule: evenodd; stroke-width: 0px;"/>
    <path d="m113.31,115.88c.43-.29.82-.54,1.19-.77l-11.63-17.08c-.28.37-.57.76-.86,1.17l11.31,16.67Z" style="fill: #fff; fill-rule: evenodd; stroke-width: 0px;"/>
    <path d="m114.5,115.12s0,0,0,0c.5-.31.92-.55,1.26-.74v-9.36s-9.54-10.73-9.54-10.73c0,0-1.39,1.22-3.25,3.63-.03.04-.06.08-.1.13l11.63,17.08Z" style="fill: #112343; fill-rule: evenodd; stroke-width: 0px;"/>
    <polygon points="112.14 100.08 112.14 69.12 115.76 65.35 115.76 104.18 112.14 100.08" style="fill: #e60012; fill-rule: evenodd; stroke-width: 0px;"/>
    <polygon points="110.71 98.45 110.71 68.2 115.76 62.44 115.76 64.68 111.68 68.93 111.68 99.55 110.71 98.45" style="fill: #ffe100; fill-rule: evenodd; stroke-width: 0px;"/>
    <path d="m97.28,107.83c.27.02.8.1,1.09.45,0,0-.51.29-.8.71-.29.42-.09,1.1.38,1.43,0,0,.32-.85.92-1.01.6-.15,1.33.84,1.33,2.04,0,1.2.09,2.76.69,3.85.59,1.09,1.16,1.59,2.23,2.1,1.07.51,2.43,1.05,2.43,1.05,0,0-.93.02-1.51.77,0,0-.2.31.08.71.28.39.62.46.62.46,0,0,.13-1.15.87-1.13.74.02,1.07,1.15,1.1,1.51,0,0,.31-.34.31-1.26s-.72-1.74-1.69-2.28c-.97-.54-2.17-.87-2.84-1.43-.67-.56-.74-1.24-.69-1.62.05-.38.46-.63.7-.63s.43.28.57.63c.14.36.74.55.9-.13.17-.67-.94-1.74-1.54-1.7-.6.04-1.08.75-1.07,1.26,0,0-.03-.61-.17-1.7-.14-1.09-.47-2.65-.87-3.3-.39-.65-.98-1.66-2.71-1.6-.12.27-.23.54-.35.82Z" style="fill: #ffe100; fill-rule: evenodd; stroke-width: 0px;"/>
    <path d="m105.38,94.4h-1.61s-2.98,3.23-5.03,6.46c-2.05,3.23-3.72,6.54-5.07,12.37-1.35,5.82-1.2,13.41-.08,18.58,1.07,4.97,3.2,11.6,7,17.21l1.44-.97c-.72-1.1-2.78-4.28-4.32-7.17-1.9-3.56-3.72-9.2-3.96-16.54-.24-7.33,1.32-13.88,4.3-19.64,1.53-2.96,4.4-7.51,7.33-10.3Z" style="fill: #ffe100; fill-rule: evenodd; stroke-width: 0px;"/>
    <path d="m98.78,142.4c.18-.93,1-4.53,3.84-10.3,0,0,4.33-10.05,13.13-14.64v6.3c-2.45,1.51-5.23,4.24-7.41,7.57-2.37,3.61-3.77,7.37-4.13,8.4l-5.44,2.67Z" style="fill: #d09515; fill-rule: evenodd; stroke-width: 0px;"/>
    <path d="m101.13,138.43s.01-1.21.01-1.77.65-1.73.99-1.77c0,0,.62,1.8,1.96,2.9,0,0-1.01.01-1.54.06-.52.04-.95.39-1.42.58h0Zm14.62-20.02v1.11s-.12.13-.12.13l.12.1v.91s-1.56-.8-1.56-.8l1.56-1.45h0Zm0,2.82c-.63-.45-1.86-.71-1.86-.71l-.11,3.33,1.8-1.42c.06-.05.12-.1.17-.15v-1.05h0Zm-8.66,5.88h.19s.19,1.79.49,3.08l-2.74-.25s.44-2.44,2.07-2.83h0Zm2.89-3.21l.64,2.68s-2.18-.23-2.55-.27c-.37-.04-.33-.9.37-1.54.46-.42.91-.78,1.53-.87h0Zm.18-1.6c.15,0,.27.14.27.32,0,.18-.12.32-.27.32s-.27-.14-.27-.32.12-.32.27-.32h0Zm-7.97,11.33c.15,0,.27.14.27.32,0,.18-.12.32-.27.32s-.27-.14-.27-.32.12-.32.27-.32h0Zm-.52,5.18l-.23.15s.6,1.16.89,1.68l.73-.36.48-1.94s-.83,0-1.87.46h0Zm10.01-12.87c.58-.56,1.07-1.12,1.03-1.55-.04-.43-1.15-.97-1.6-.94-.45.04-.56.34-.36,1.14.21.8.49,1.72.49,1.72l.43-.37h0Zm-6.26,8.41l.17-.19s-1.23-.11-1.83-.08c-.6.02-1.02.4-.65,1.37.37.97,1.37,1.61,1.37,1.61,0,0,.12-1.65.95-2.7h0Zm2.15-3.36l.22-.24-2.38-.17s-.13,1.85.87,2.58c0,0,.18-1.03,1.29-2.18h0Zm-7.42,7.33c.15,0,.27.14.27.32,0,.18-.12.32-.27.32s-.27-.14-.27-.32.12-.32.27-.32h0Zm4.41-5.48l-.2-1.12s-.28.59-.87.99l1.07.13h0Zm-.23-3.31c.15,0,.27.14.27.32,0,.18-.12.32-.27.32s-.27-.14-.27-.32c0-.18.12-.32.27-.32h0Zm-2.26,6.89c-.21,0-.39.17-.39.38s.17.38.39.38.38-.17.38-.38-.17-.38-.38-.38h0Zm8.09-9.1l-2.36-.54s-.34,1.57.81,2.82l1.55-2.28h0Zm-10.38,14.55c0-.58.11-2.06,1.15-2.57,0,0,.08.51.94,1.54l-.63.31-.37-.58s-.28.15-.48,1l-.61.3h0Zm13.62-21.21l-.38,3.08s-1.18-.73-2.14-.73c0,0-.04-.64.73-1.44.77-.8,1.79-.92,1.79-.92h0Zm-6.46,5.24c.15,0,.27.14.27.32,0,.18-.12.32-.27.32s-.27-.14-.27-.32c0-.18.12-.32.27-.32h0Zm6.62-6.6c.15,0,.27.14.27.32,0,.18-.12.32-.27.32s-.27-.14-.27-.32c0-.18.12-.32.27-.32h0Zm-8.02,14.08l.2.27h-3c.22-2.24,1.68-3.13,1.68-3.13,0,0,.18,1.63,1.12,2.86h0Zm3.11-7.42h1.22s-.29-1.17-.29-1.17l-.93,1.17Z" style="fill: #ffe100; fill-rule: evenodd; stroke-width: 0px;"/>
    <path d="m115.76,124.84c-2.56,1.85-7.66,6.34-10.48,14.36l-1.06.52c.36-1.03,1.76-4.79,4.13-8.4,2.18-3.33,4.96-6.06,7.41-7.57v1.09Z" style="fill: #ffe100; fill-rule: evenodd; stroke-width: 0px;"/>
    <path d="m105.86,138.92c.48-1.56,2.88-8.33,9.9-13.44v2.88c-1.53,1.02-4.92,3.76-6.43,8.85l-3.47,1.71Z" style="fill: #fff; fill-rule: evenodd; stroke-width: 0px;"/>
    <path d="m107.61,138.06l-.47-.23-.35.64.82-.4h0Zm8.15-11.29v.43s-.42.4-.42.4l-.72-.7.55-.61.58.49h0Zm-4.58,5.34l-.7-.41-.49.76.65.43.54-.78h0Zm.79-1.18l-.66-.47-.55.72.61.49.61-.73h0Zm.95-1.12l-.61.73-.61-.48.55-.72.66.47h0Zm1.93-1.98l-.66-.59-.55.62.61.6.61-.62h0Zm-4.43,5.48l-.7-.41-.49.76.65.43.54-.78h0Zm-.73,1.24l-.7-.41-.49.76.65.43.54-.78h0Zm-1.3,2.39l-.73-.36-.44.79.68.39.48-.82h0Zm5.39-8.2l-.66-.47-.55.72.61.48.61-.73h0Zm-4.76,6.97l-.73-.36-.44.79.68.39.48-.82Z" style="fill: #112343; fill-rule: evenodd; stroke-width: 0px;"/>
    <path d="m97.51,139.2c.38-1.49,1.62-5.57,4.85-11.02,3.5-5.9,8.94-10.75,13.41-13.24v1.85c-.93.57-2.09,1.32-3.32,2.2-2.97,2.11-6.64,6.27-8.16,8.81-1.48,2.47-4.47,8.39-5.91,13.37-.38-.81-.67-1.49-.86-1.97Z" style="fill: #e60012; fill-rule: evenodd; stroke-width: 0px;"/>
    <path d="m109.86,136.95c.5-1.24,2.41-5.54,5.9-7.98v5.09s-5.9,2.9-5.9,2.9Z" style="fill: #e60012; fill-rule: evenodd; stroke-width: 0px;"/>
    <path d="m115.76,136h0v2.73s-13.4,9.09-13.4,9.09c-.93-1.21-1.73-2.45-2.41-3.63-.01-.02-.03-.05-.04-.07l15.85-8.12Z" style="fill: #112343; fill-rule: evenodd; stroke-width: 0px;"/>
    <path d="m99.27,142.96l16.49-8.07v1.11s-15.85,8.12-15.85,8.12c-.23-.4-.44-.78-.64-1.16Z" style="fill: #fff; fill-rule: evenodd; stroke-width: 0px;"/>
    <path d="m90.55,119.4l-.59,1.07-.73-1.18.67-.89.65.99h0Zm-.13,2.9l-.92-1.34-.76,1.53,1.13,1.61.54-1.8h0Zm.27,3.86l-.86-1.58-1.11,2.09,1.32,1.42.65-1.93h0Zm.4,3.82l-.85,1.93-1.36-1.76.85-2.06,1.36,1.89h0Zm.81,3.9l-1.74-1.36-.64,2.06,1.74,1.55.64-2.25h0Zm1.13,4.33l-1.81-1.6-.84,2.34,1.9,1.68.74-2.42h0Zm1.32,4.04l-2.34-1.2-.28,2.77,2.14,1.3.48-2.87h0Zm1.95,4.48l-2.62-1.21-.27,2.88,2.55,1.16.34-2.84h0Zm1.13,4.43l-.55-.25-.06.67.61-.41Z" style="fill: #fff; fill-rule: evenodd; stroke-width: 0px;"/>
    <path d="m75.78,127.6h-4.57s3.35,5.61,3.35,5.61h11.03c-.17-2.97-.3-5.71-.11-8.48.11-1.47.37-3.76.9-5.13h4.57s-3.35-5.61-3.35-5.61h-11.03c.17,2.97.3,5.71.11,8.48-.11,1.47-.37,3.75-.9,5.12Z" style="fill: #231815; fill-rule: evenodd; stroke-width: 0px;"/>
    <path d="m80.01,122.48h2.36v2.35h-2.36v-2.35h0Zm-2.91-.27l-.17,2.89h2.75v2.67s3.02,0,3.02,0v-2.67h2.47s.17-2.89.17-2.89h-2.64v-2.59s-3.02,0-3.02,0v2.59h-2.58Z" style="fill: #ffe100; fill-rule: evenodd; stroke-width: 0px;"/>
    <path d="m51.45,167.78v-.17l.17-.05c4.18-1.24,5.3-6.62,5.3-6.63l.09-.42.3.3s3.59,3.5,3.88,9.98c.3,6.5-4.47,10.54-4.49,10.55l-.4.35.02-.53c.17-5.12-4.71-7.37-4.72-7.38l-.13-.06v-.15s-.01-5.8-.01-5.8Z" style="fill: #004ea2; stroke-width: 0px;"/>
    <path d="m69.14,147.16h5.52s4.75-6.31,11.23-8.73c.1,1.28.25,2.49.42,3.61-.52.24-2.12,1.03-3.72,2.15-2.01,1.4-5.43,4.95-6.12,7.07h-9.66c.32-.51,1.2-1.93,2.33-4.1h0Zm-2.84,4.1c.33-.52,1.26-1.99,2.4-4.1h-3.55c-1.68,2.73-3.03,4.1-3.03,4.1h4.18Zm-.86-4.56h3.45c.42-.82.82-1.66,1.19-2.49h-3.29c-.46.92-.91,1.75-1.36,2.49h0Zm1.59-2.97h3.27c.45-1.01.86-2.02,1.23-2.98h-3.21c-.42,1.08-.85,2.07-1.29,2.98h0Zm1.47-3.46h3.21c.38-1,.71-1.94,1.01-2.8h-3.27c-.29.99-.61,1.92-.94,2.8h0Zm1.08-3.28c.3-1.04.57-2.14.81-3.29h3.51c-.2.69-.54,1.85-1.03,3.29h-3.3Zm.91-3.76c.3-1.5.53-3.1.7-4.79l2.91,4.58s-.02.07-.06.2h-3.55Z" style="fill: #ffe100; fill-rule: evenodd; stroke-width: 0px;"/>
    <path d="m71.9,136.48l1.13-1.04-1.08-1.2-1.09.99,1.04,1.24h0Zm-1.29,3.27l1.21-.74-.72-1.28-1.32.74.83,1.28h0Zm-1.02,3.53l1.02-1.09-1.08-1.29-1,1.19,1.06,1.18h0Zm-1.66,3.02l.92-.71-.75-1-.84.75.66.96h0Zm17.84-6.12l-.4,1.74-1.56-.46.42-1.81,1.54.53h0Zm-2.42,1.4l-.4,1.65-1.54-.53.4-1.65,1.54.53h0Zm-3.09,3.52l-1.19-.36.37-1.81,1.18.4-.37,1.77h0Zm-1.7,2.06l-1.68.2-.07-1.91,1.64-.1.1,1.8h0Zm-2.06,3.24l-1.8-1.05.44-1.88,1.67.87-.31,2.05h0Zm-3.47.09l.92-1.36-1.14-1.31-.97,1.27,1.19,1.4h0Zm-3.25.13l1.32-1.44-.79-1.35-1.27,1.14.75,1.66h0Zm-3.82-.44l1.41-2.1-1.76.26-1.23,1.83h1.58Z" style="fill: #112343; fill-rule: evenodd; stroke-width: 0px;"/>
    <path d="m90.32,175.58c.56-.01,1.04.28,1.07.63.03.35-.45.76-1.3.81-.84.05-3.01,0-5.09-.21-2.09-.21-5.09-1.17-7.75-2.26-2.66-1.09-5.35-1.97-7.14-2.28-1.78-.31-3.56.06-4.21.19-.64.12-1.17.26-1.17-.12,0-.37.28-1.06,1.33-1.23,1.06-.17,3.19-.39,4.6,0,1.41.39,5.78,2.11,6.92,2.55,1.14.43,4.74,1.66,7.14,1.89,1.95.19,3.68.08,5.59.04h0Zm-3.6,1.87c-.91,0-3.74-.35-5.97-1.02-2.24-.66-5.43-2.03-8.23-2.97-2.8-.94-5.08-.81-6.22-.59-1.14.21-1.42.71-1.41,1.19.01.48.27.74.73.57.46-.17,1.31-.44,3.33-.42,2.02.02,5.46,1.24,7.99,2.31,2.53,1.08,5.58,2.05,6.86,2.14,1.28.09,5.39.11,6.59.02,1.2-.09,1.22-.56,1.22-.81s-.38-.71-1.08-.6c-.7.1-3.54.16-3.54.16h-.27Z" style="fill: #e60012; fill-rule: evenodd; stroke-width: 0px;"/>
    <path d="m95.65,188.01l-4.07-8.79s-5.37.67-9.95-.26c-4.58-.92-7.29-3.71-11.57-3.92,0,0-3.21-.22-5.06.83l-5.82,12.13h36.47Z" style="fill: #ffe100; fill-rule: evenodd; stroke-width: 0px;"/>
    <path d="m94.46,185.43c-.49-.07-1.37-.34-1.5-1.32,0,0-1.85-.02-1.73-1.23.12-1.21,1.2-1.25,1.2-1.25,0,0-.42-.83-1.87-.87-1.45-.04-1.65.87-1.63.93.02.06,1.39.4,1.33,1.23-.06.83-.74,1.35-1.35,1.52,0,0,.5,2.44-1.16,2.54-1.65.1-1.43-2.5-1.43-2.5,0,0-1.57-.14-1.45-1.23.12-1.09,1.12-1.39,1.49-1.37.38.02-1.75-2.28-4.04-.75,0,0,1.24.67,1.16,1.62-.08.95-1.48,1.07-1.48,1.07,0,0,0,2.28-1.69,2.06-1.7-.22-1.17-2.3-1.02-2.48.14-.18-1.17-.31-.82-1.73.14-.77,1.19-1.02,1.31-1,.12.02-2.15-2.75-3.54-.92,0,0,1.29.9.88,1.77-.41.88-1.45.96-1.45.96,0,0,.23,2.18-1.72,1.89-1.95-.29-1.02-2.93-1.02-2.93,0,0-.86-.57-.66-1.59.21-1.02,1.25-1.14,1.25-1.14,0,0-.43-.96-1.6-1.28-1.17-.33-1.95.59-1.95.59,0,0,1.82.69,1.45,1.73-.37,1.04-1.23,1.06-1.62,1.06,0,0,.18,2.4-1.45,2.22-1.64-.18-.88-2.52-.88-2.52,0,0-1.13-.79-.72-1.85.41-1.06,1.27-1.14,1.27-1.14,0,0-.35-.67-1.7-.61-1.35.06-1.51,1.04-1.6,1.18,0,0,.49,2.24-1.56,2.02,0,0-.07,1.53-1.14,2l2.11-4.4.27.21s.77-2.1,2.83-1.64c2.07.46,1.67,1.75,1.38,2.52-.28.77-.97,1.58.04,1.8,1.01.21.69-1.28.7-1.67.01-.39.13-2.24,1.78-2,1.65.24,3.34,1.4,3.65,2.36.31.97-.41,1.5-.71,1.75-.3.26.06,1.17.73.93.67-.24.59-1.7.67-2.05.09-.36,1.29-1.79,2.8-1.27,1.52.52,2.53,1.85,2.46,2.71-.06.86-.6,2.09.23,2.19.83.09.29-1.96.55-2.4.26-.44.89-1.18,3.05-1.01,2.16.17,2.78,1.58,2.61,2.62-.17,1.04-.24,1.95.42,1.78.66-.17.57-1.23.24-1.77-.34-.54.69-2.16,2.44-2.41.95-.13,1.62.19,2.11.57l2.08,4.49h0Zm-7.86-5.57c.38.22.69.43.87.57.19-.23.42-.44.67-.6-.09,0-.19,0-.29.01-.44.02-.85.02-1.26.02h0Zm5.26-.04l-.28-.6s-5.37.67-9.95-.26c-4.58-.92-7.29-3.71-11.57-3.92,0,0-3.21-.22-5.06.83l-.18.38c.44-.16,1.46-.5,2.64-.71v.02c.78.02,1.69,1.31,1.69,1.31l.13.19.19-.13s1.98-1.32,3.42-.64c1.48.7,1.98,1.86,1.98,1.86l.09.2.21-.07s1.5-.53,2.81-.25c.36.15.71.3,1.03.43,1.1.67,1.95,1.82,1.96,1.83l.17.22.19-.2c.27-.3.73-.54,1.31-.67.1-.02.2-.04.3-.06.79.12,1.61.21,2.51.26,1.09.41,1.91,1.11,1.92,1.11l.2.17.14-.22c.2-.31.49-.57.83-.76h0c.34-.19.72-.32,1.12-.35.59-.05,1.62,0,2.2.04h0Zm-11.43-.84c.33.32.59.62.75.81.19-.16.42-.3.69-.41-.45-.09-.92-.22-1.43-.4h0Zm-6.57-2.67c.76.54,1.17,1.15,1.34,1.46.28-.09.86-.23,1.53-.28-.44-.19-.9-.38-1.39-.58-.55-.23-1.04-.42-1.48-.6h0Zm-5.52-.9c.46.31.86.77,1.06,1.01.4-.24,1.4-.75,2.44-.8-.95-.24-1.79-.31-2.91-.26-.2,0-.4.02-.59.04Z" style="fill: #112343; fill-rule: evenodd; stroke-width: 0px;"/>
    <path d="m93.98,151.69l-.14-.02s-.77.43-.74,1.59c.02,1.16.56,1.77,1.67,1.77s1.71-.67,1.8-1.93c.09-1.25-.43-2.6-1.89-2.89-1.46-.29-3.99,1.23-5.27,2.75-1.28,1.52-1.42,2.02-1.46,2.31-.04.29-.11.38-.29.38s-.29-.2-.18-.6c.11-.4.83-1.64,1.91-2.73,1.08-1.1,2.79-2.37,4.64-2.53,0,0-1.01-.6-1.67-.6,0,0-1.28.11-2.73,1.43-1.44,1.32-2.84,3.76-3.13,4.55-.29.78-.65.27-.47-.22.18-.49,2.05-4.37,5.05-5.78,0,0-1.62-.34-2.93.92-1.31,1.25-2.49,3.31-3.11,5.07,0,0-.14.61-.34.66-.21.05-.34-.2-.14-.77.21-.57,1.03-3.4,3.71-5.56,0,0-1.22-.09-1.58.22-.35.31-1.79,2.4-2.4,3.8-.61,1.41-1,2.36-1.12,2.69-.12.33-.43.25-.47.09-.04-.16.06-.56.3-1.11.25-.55,1.59-3.83,2.8-5.13,0,0-1.17.27-1.95,1.67-.78,1.4-1.97,4.29-2.08,4.58-.11.29-.19.27-.37.27s-.15-.21,0-.53c.14-.33,1.3-3.44,2.06-4.47l-2.92,2.98s.64,1.19.36,2.52c-.28,1.33-1.38,1.72-2.16,1.72s-1.62-.84-1.62-.84c0,0,.4,3.05,1.15,5.88.73,2.76,1.92,6.91,2.28,10.43.54.17,1.09.33,1.63.45,3.29.74,6.17.72,7.27.7.48,0,.83-.11,1.07-.23.21-.3.37-.69.36-1.18-.04-1.44-.72-2.32-.7-3.14.02-.82-.09-1.11,1.01-4.09,1.1-2.98,1.05-3.1,1.05-3.33s-.29-.49-.98-.91c-.68-.42-1.08-1.02-1.01-2.42,0,0-1.18-.34-1.83-.67-.65-.33-1.08-.59-1.33-.59s-.31.4-.31.4l-.19-2.08s.41,1,1.3,1.23c.88.23,1.72.11,1.99.08s.3-.69.28-1.08c-.02-.39-.21-1.21.2-2.08.42-.88,1.06-1.66,2.42-2.02l.21-1.45s-1.95.31-3.56,3.49c0,0-.1.31-.34.31s-.13-.44-.03-.68c.1-.24.82-1.52,2.1-2.69,1.28-1.17,2.76-1.11,3.49-1.01.73.1,1.4.83,1.4,1.66,0,.83-.55,1.41-1.24,1.49-.69.09-1.1-.28-1.16-.84-.06-.56-.06-.86.15-1.24.21-.39.34-.64.21-.64h0Zm-4.88,20.69l.1.15s.39.86-.84.96c-1.23.1-5.56-.1-6.74-3.44,0,0,0-.15,1.01.66,1.01.81,2.76,1.79,5.56,1.62,0,0,.86-.32.91.05h0Zm-1.28-1.28s-1.3.59-3.27-.42c-1.97-1.01-2.75-1.92-2.07-1.67.69.25,2.36,1.47,3.79,1.6,1.43.12,1.55-.22,1.55.07v.42h0Zm-1.32-2.02s-.18.16-.32-.38c-.13-.54.11-.65.43-.9.32-.25.2.18.13.6-.07.43-.25.67-.25.67h0Zm2.32,1.5s-.61-.52-1.56-.58c-.94-.07-2.75-.36-4.39-2.08,0,0,.25-.16,1.51-.16,0,0,1.98-1.03,3.09-.92,0,0-.68-.78-1.06-1.16-.38-.38.13-.49.9.13.77.63.61.78.77.83s.7-.11.63.09c-.07.2-.43,1.23-.63,1.12-.2-.11-.43-.49-.47-.34-.05.16-.11.47-.07.74.04.27.13.76.13.76,0,0,.65-.54.79-.69.13-.16.16.78.25,1.05.09.27.11,1.21.11,1.21h0Zm-3.58-1.95s-.29-.18-.29-.4.61-.18.61-.18c.02.36-.32.58-.32.58h0Zm-.04-6.66s.23.7-.26.67c-.49-.03-1.13-.76-1.15-1.92-.02-1.16.74-1.81,2.02-1.56s1.67,1.14,2.28,1.14,1.1-.1,1.08.23c-.02.33-.02.78-.03.96-.02.18-.72.34-1.26-.1-.54-.44-1.66-1.19-2.08-1.32-.43-.13-.57-.36-1.02.03-.44.39-.77.98-.52,1.27.25.29.95.6.95.6h0Zm3.28,2.47s.16.31-.09.23c-.25-.08-.3-.19-.3-.19-.77-.82-.84-1.68,0-2.49.85-.81,1.97.62,2.64.72.67.09.53.03.45.79-.08.76-1.78-.34-2.09-.58-.31-.23-1.08-.28-1.06.3.02.58.45,1.21.45,1.21h0Zm-10.89-8.41c-.17.12-.18.16-.09.36.15.32.5.97,1,1.01.66.06,1.41-.51,1.39-1.74-.02-1.23-1.18-1.34-1.78-1.3-.6.04-1.5.89-1.52,2.64-.02,1.74.36,3.12,1.19,6.62.79,3.32,2.05,7.55,2.31,10.48-.3-.11-.61-.22-.92-.33-.19-.96-.65-3.22-1.16-5.7-.43-2.08-.95-3.95-1.36-5.44-.23-.84-.43-1.55-.56-2.11-.18-.76-.5-2.28-.33-3.75.14-1.17.31-2.42,1.63-3.03.41-.19.86-.19,1.38-.09.59.12,1.13.56,1.46,1.23.9,1.77-.17,3.3-1.1,3.32-.93.02-2.07-.54-2.07-1.4,0-.86.44-1.97,1.34-2.02.9-.05,1.22.88,1.03,1.53-.19.66-.56.64-.81.64s-.54-.34-.59-.59c-.05-.25-.22-.42-.44-.32h0Zm.33,17.24c-.41-1.64-1.33-5.32-2.1-8.59-.51-2.17-.88-3.74-1.12-4.93-.24-1.17-.35-1.95-.35-2.55,0-.6.03-1.16.26-1.79.21-.56.57-1.19,1.21-1.95h1.08s.03,0,.08,0c-1.15.78-1.62,2-1.77,3.25-.18,1.55.16,3.14.34,3.93.13.56.33,1.29.57,2.14.41,1.48.93,3.35,1.35,5.41.45,2.17.87,4.24,1.09,5.35-.21-.08-.42-.17-.63-.25h0Zm-1.53-.63l-2.37-9.65h0s-.88-3.94-1.07-4.89c-.1-.53-.08-1.47.31-2.53.26-.69.68-1.43,1.33-2.12h.5c-.51.67-.83,1.24-1.02,1.77-.26.71-.3,1.33-.3,1.98s.11,1.46.36,2.66c.24,1.18.61,2.77,1.12,4.95.71,3.03,1.56,6.42,2.01,8.21-.29-.12-.59-.24-.89-.37h0Zm-1.49-.6c.29.11.57.23.86.34l-2.27-9.26h0s-.88-3.96-1.07-4.92c-.11-.6-.1-1.66.34-2.82.23-.63.59-1.29,1.11-1.93h-.53c-1.06.79-1.5,1.9-1.66,2.92-.17,1.07-.03,2.03.04,2.42.13.8,1.47,6.32,1.47,6.33h0s1.72,6.92,1.72,6.92h0Zm-1.41-.52c.26.09.52.19.78.28l-1.63-6.54h0s-1.34-5.57-1.48-6.37c-.07-.41-.22-1.44-.04-2.6.15-.96.53-2,1.37-2.84h-.53c-.72.65-1.14,1.41-1.37,2.18-.35,1.15-.27,2.3-.1,3.07.17.75.29,1.31.44,2,.36,1.64.81,3.68,1.1,4.99.35,1.51,1.09,4.41,1.47,5.84h0Zm-1.45-.46l-2.23-8.86h0s-.72-3-.86-4.13c-.07-.55-.13-1.35.08-2.18.2-.82.67-1.7,1.65-2.44h.5c-.56.63-.91,1.33-1.13,2.02-.38,1.25-.3,2.51-.11,3.35.04.18.23,1.05.44,2,.34,1.57.78,3.55,1.11,4.99.32,1.41.99,3.99,1.38,5.51-.26-.09-.53-.17-.8-.25,0,0-.01,0-.02,0h0Zm-1.46-.38c-.49-1.84-1.53-5.8-1.87-7.57-.21-1.09-.43-2.02-.61-2.8-.2-.88-.36-1.56-.42-2.08-.06-.48-.13-1.26.04-2.13.16-.85.54-1.79,1.39-2.66h.72c-.76.73-1.15,1.54-1.34,2.31-.23.93-.16,1.78-.09,2.38.15,1.16.87,4.19.87,4.19h0s2.16,8.56,2.16,8.56c-.29-.08-.57-.15-.85-.21h0Zm-1.38-.27c.25.04.51.08.77.14-.51-1.94-1.48-5.63-1.81-7.33-.21-1.09-.42-2.01-.6-2.78-.21-.9-.37-1.6-.43-2.14-.06-.51-.14-1.34.04-2.3.15-.82.49-1.71,1.19-2.56h-.44c-.72.59-1.14,1.2-1.38,1.82-.24.62-.3,1.25-.3,1.87,0,1.26.98,5.51.98,5.52h0s1.98,7.76,1.98,7.76h0Zm-1.39-.13c.25,0,.52.02.79.05l-1.93-7.56h0s-1-4.33-1-5.64c0-.67.07-1.37.34-2.07.22-.55.55-1.09,1.08-1.62h-.56c-2.22,2.14-1.78,4.01-.88,7.84.1.42.21.88.34,1.45.75,3.28,1.43,6.04,1.81,7.57h0Zm-1.37.12l-2.01-8.34h0s-.79-3.31-.83-4.35c-.02-.51-.05-1.16.16-1.89.19-.7.59-1.5,1.4-2.4h.61c-2.01,2.19-1.54,4.16-.65,7.97.11.48.23.99.34,1.44.73,3.22,1.4,5.92,1.78,7.45-.28.02-.55.06-.8.11h0Zm-1.18.55l-.11-.09s-2.73-10.6-2.95-12.55c-.22-1.95.13-3.94,1.61-4.89h.62c-.67.83-1.03,1.58-1.21,2.26-.23.82-.2,1.51-.18,2.06.04,1.09.85,4.44.85,4.45h0s2.01,8.38,2.01,8.38c-.24.1-.46.23-.65.38h0Zm29.4-16.94l-.18-.03s-.48-.07-.48-.55.19-1.47.67-1.51c.48-.05.8.43.82.89.01.46-.31,1.15-.83,1.2Z" style="fill: #fff; fill-rule: evenodd; stroke-width: 0px;"/>
    <path d="m56.63,179.33c.08.41.14.85.15,1.31,1.1-1.1,4.18-4.65,3.94-9.82-.24-5.2-2.63-8.4-3.46-9.37-.09.34-.26.86-.51,1.46,6.41,8.31.64,15.53-.13,16.42h0Zm-4.5-5.79c.27.15.67.39,1.13.74.37-.6,1.8-3.3-.52-6.67-.2.1-.4.18-.61.26v5.67Z" style="fill: #fff; stroke-width: 0px;"/>
    <path d="m53.62,174.57c.34.28.69.61,1.04.99.11-.25.29-.68.48-1.26h0s.01-.02.01-.02c.48-1.55.96-4.12.09-6.84l-.08-.03.05-.07c-.13-.4-.29-.8-.49-1.2-.45.47-.97.9-1.56,1.25,2.48,3.64.84,6.59.47,7.18h0Zm1.37,1.37c.06-.13.24-.51.44-1.07l.86,1.67-.79.1c-.16-.25-.34-.48-.51-.7h0Zm.78,1.13c.1.17.19.35.28.54.09-.16.21-.37.35-.62l-.63.08h0Zm.5,1.06c.08.2.15.41.21.63,1.22-1.53,5.59-7.98.06-15.38-.08.18-.18.37-.28.56,1.02,1.35,1.63,2.73,1.95,4.08h.03s-.02.03-.02.03c.26,1.09.33,2.15.28,3.15h0s0,0,0,0c-.05.93-.2,1.82-.4,2.62l.05.04-.06.02c-.31,1.21-.74,2.23-1.11,2.98l.03.05h-.06c-.31.63-.57,1.05-.68,1.22h0Zm-.26-13.75c.18.25.35.51.51.76l-.69-.46c.06-.1.12-.2.18-.3h0Zm-.44.68l.96.64-1,1.21c-.14-.38-.3-.76-.5-1.15.19-.23.37-.46.54-.7h0Zm1.13,11.28l-.92-1.79,1.78-.52c-.25.9-.56,1.68-.86,2.31h0Zm1.01-2.9l-1.29-1.22,1.6-.79c-.05.71-.16,1.38-.31,2.01h0Zm.34-2.6l-1.59-1.18,1.37-1.26c.18.84.24,1.66.22,2.45h0Zm-.37-3.03l-1.77-.64,1.04-1.26c.32.63.56,1.27.73,1.9h0Zm-2.02,6.3c.14-.48.26-1.03.36-1.63l1.23,1.16-1.59.47h0Zm.44-2.24c.06-.58.09-1.21.05-1.86l1.48,1.1-1.53.76h0Zm0-2.5c-.06-.57-.17-1.16-.34-1.75l1.61.58-1.27,1.17Z" style="fill: #ffe100; stroke-width: 0px;"/>
    <path d="m112.01,141.82l-7.97,5.23s.62,1.34.64,2.08c.03.74-.05,2.36-.15,2.84-.1.48-.1.79.98.63,1.08-.15,1.62-1.83,1.62-1.83,0,0,2.5,6.19,4.27,3.73,0,0,.87,1.01,1.62.51,0,0,.46-.33.36-1.27,0,0,1.13.03,1.16-1.19.03-1.22-.18-1.65-.18-1.65,0,0,.89-.6.51-2.29-.39-1.69-2.86-6.79-2.86-6.79Z" style="fill: #112343; fill-rule: evenodd; stroke-width: 0px;"/>
    <path d="m110.43,144.77l.1.49s-1,.79-1.43,1.48c-.42.69-1.07,1.67-1.22,2.07s-.33-.42-.33-.42c0,0-.6.91-.15,2.02.45,1.11,2.22,3.57,2.52,3.79.3.22.83.27.8-.59-.02-.86-.5-1.55-1.27-2.21,0,0,.35-.42.25-.64-.1-.22-.75-1.11-.7-1.3.05-.2.68-.71.7-.27.02.44,1.22,3.82,2,4.73.78.91,1.25.47,1.25.02s.03-1.28-.88-1.53c0,0,.4-1.67-.78-1.8,0,0,.08-1.08-.05-1.23-.12-.15-.87-1.11-.72-1.23.15-.12.6-.71.6-.47s.17.27.17.52,0,.79.18.79.65.03.62.25c-.03.22-.1,1.45.1,1.65.2.2.88,1.8,1.47,1.65.6-.15.38-1.28-.05-2.29-.42-1.01-1.72-3.45-1.72-3.45,0,0,.23-.84.43-.47.2.37.22.66.22.66l.48.07.02.84.5.12s.07.98.17,1.3c.1.32.9,1.06.83.27-.07-.76-1.74-5.25-3.2-7.02l-2.34,1.58c.05.5.15,1.48.12,1.63-.05.2.82-.81,1.3-1.01h0Zm.37,1.13l.25-.25s.07.76-.6,1.45c-.68.69-1.37,1.5-1.57,1.38-.2-.12-.42-.27.05-.76.47-.49,1.75-1.75,1.87-1.82h0Zm-4.45,5.27c-.15-.03-.7-1.6-1.2-1.75l-.27-2.49,3.41-2.3c0,.42-.05,1.79-.2,2.08-.17.34-.77.54-.95,1.23-.17.69-.65,3.25-.8,3.22h0Zm-.57.62c-.05-.86-.5-1.08-.5-1.08,0,0-.18.62-.13,1.01.05.39.5.37.5.37l.12-.29Z" style="fill: #fff; fill-rule: evenodd; stroke-width: 0px;"/>
    <path d="m84.88,149.93c-1.35.75-3.02,1.99-4.75,4.05,0,0-.74-1-2.23-.92,0,0,1.36-3.75,5.93-6.7l1.05,3.58Z" style="fill: #e60012; fill-rule: evenodd; stroke-width: 0px;"/>
    <path d="m86.27,149.27c-.32.13-.67.28-1.06.49l-1.04-3.62c.31-.19.63-.37.96-.55l1.14,3.68h0Zm1.6-.47c-.16-.51-.61-1.96-1.05-4.02-.42.18-.97.44-1.34.63l1.13,3.74c.47-.16,1-.29,1.27-.34Z" style="fill: #ffe100; fill-rule: evenodd; stroke-width: 0px;"/>
    <path d="m61.88,97.97c8.42,13.16,8.17,24.58,7.88,29.83-.3,5.36-1.91,10.87-4.06,15.34-2.15,4.46-6.9,9.75-6.9,9.75h18.82c.99-2.89,3.19-4.83,5.24-6.35,1.65-1.22,3.35-1.94,3.89-2.15-.12-.59-.24-1.22-.35-1.89-.7.32-2.84,1.38-4.57,2.78-2.13,1.73-4.14,4.22-5.11,6.47h-15.6s5.17-4.58,8.26-15.65c2.9-10.68,2.26-24.41-6.39-38.87l-1.09.74Z" style="fill: #fff; fill-rule: evenodd; stroke-width: 0px;"/>
    <path d="m85.84,137.76c-.79.31-7.24,2.96-11.39,8.89h-5.05c1.6-3.13,3.63-7.65,5.31-13.11h10.9c.07,1.18.14,2.39.2,3.66,0,.19.02.38.03.57Z" style="fill: #e60012; fill-rule: evenodd; stroke-width: 0px;"/>
    <path d="m76.57,113.99c-.01-.1-.02-.2-.03-.3-.83-8.1-1.5-12.06-3.16-16.15l-1.44.09s.8,2.29,1.57,5.77c.77,3.48,1.43,8.58,1.75,14.31,0,0,.03,6.87-.5,9.88h1.02c.54-1.37.79-3.66.91-5.12.19-2.77.06-5.51-.11-8.48h0Z" style="fill: #ffe100; fill-rule: evenodd; stroke-width: 0px;"/>
    <path d="m74.39,127.59c.13-1.36.75-8.57.22-13.96-.6-5.98-1.49-11.77-3.04-15.94h-2.08s1.9,2.85,3.44,10.26c1.33,6.37,1.17,16.82,1.1,19.64h.35Z" style="fill: #fff; fill-rule: evenodd; stroke-width: 0px;"/>
    <path d="m61.71,122.06l3.14,4.16s.21-4.48-.78-8.07l-2.36,3.92h0Zm-2.08.11l4.85-9.19c4.02,9.72,1.23,18.01,1.23,18.01l-6.09-8.81Z" style="fill: #fff; fill-rule: evenodd; stroke-width: 0px;"/>
    <path d="m57.64,122.98c-.2.27-.4.54-.6.8l8.66,13.47c.19-.54.38-1.1.56-1.67l-8.62-12.6Z" style="fill: #ffe100; fill-rule: evenodd; stroke-width: 0px;"/>
    <path d="m57.04,123.78c-1.13,1.46-2.35,2.75-3.56,3.88l9.84,15.11c.84-1.64,1.66-3.48,2.38-5.52l-8.66-13.47Z" style="fill: #112343; fill-rule: evenodd; stroke-width: 0px;"/>
    <path d="m52.25,128.74c-1.04.88-2.04,1.64-2.95,2.26l11.19,16.5c.65-.95,1.33-2.03,2-3.22l-10.25-15.53Z" style="fill: #e60012; fill-rule: evenodd; stroke-width: 0px;"/>
    <path d="m53.47,127.66c-.27.25-.53.48-.79.71l10.13,15.35c.17-.31.34-.63.5-.95l-9.84-15.11Z" style="fill: #ffe100; fill-rule: evenodd; stroke-width: 0px;"/>
    <path d="m48.85,131.31c-.43.29-.82.54-1.19.77l11.63,17.08c.28-.37.57-.76.86-1.18l-11.31-16.67Z" style="fill: #fff; fill-rule: evenodd; stroke-width: 0px;"/>
    <path d="m47.66,132.08s0,0,0,0c-.5.31-.92.55-1.26.74v9.36s9.54,10.73,9.54,10.73c0,0,1.39-1.22,3.25-3.63.03-.04.06-.08.1-.13l-11.63-17.08Z" style="fill: #112343; fill-rule: evenodd; stroke-width: 0px;"/>
    <polygon points="50.02 147.12 50.02 178.08 46.4 181.85 46.4 143.02 50.02 147.12" style="fill: #e60012; fill-rule: evenodd; stroke-width: 0px;"/>
    <polygon points="51.46 148.75 51.46 179 46.4 184.76 46.4 182.52 50.48 178.27 50.48 147.64 51.46 148.75" style="fill: #ffe100; fill-rule: evenodd; stroke-width: 0px;"/>
    <path d="m64.88,139.37c-.27-.02-.8-.1-1.09-.45,0,0,.51-.29.8-.71.29-.42.09-1.1-.38-1.43,0,0-.32.85-.92,1.01-.6.15-1.33-.84-1.33-2.04s-.09-2.76-.69-3.85c-.59-1.09-1.16-1.59-2.23-2.1-1.07-.51-2.43-1.05-2.43-1.05,0,0,.93-.02,1.51-.77,0,0,.2-.31-.08-.71-.28-.39-.62-.46-.62-.46,0,0-.13,1.15-.87,1.13-.74-.02-1.07-1.15-1.1-1.51,0,0-.31.34-.31,1.26s.72,1.74,1.69,2.28c.97.54,2.17.87,2.84,1.43.67.56.74,1.24.69,1.62-.05.38-.46.63-.7.63s-.43-.28-.57-.63-.74-.55-.9.13c-.16.67.94,1.74,1.54,1.7.6-.04,1.08-.75,1.07-1.26,0,0,.03.61.17,1.7.14,1.09.47,2.65.87,3.3.39.65.98,1.66,2.71,1.6.12-.27.23-.54.35-.82Z" style="fill: #ffe100; fill-rule: evenodd; stroke-width: 0px;"/>
    <path d="m56.78,152.8h1.61s2.98-3.23,5.03-6.46c2.05-3.23,3.72-6.54,5.07-12.37,1.35-5.82,1.2-13.41.08-18.58-1.07-4.97-3.2-11.6-7.01-17.21l-1.44.97c.72,1.1,2.78,4.28,4.32,7.17,1.9,3.56,3.72,9.2,3.96,16.53.24,7.33-1.32,13.88-4.3,19.64-1.53,2.96-4.4,7.51-7.33,10.3Z" style="fill: #ffe100; fill-rule: evenodd; stroke-width: 0px;"/>
    <path d="m63.38,104.8c-.18.93-1,4.53-3.84,10.3,0,0-4.33,10.05-13.13,14.64v-6.3c2.45-1.51,5.23-4.24,7.41-7.57,2.37-3.61,3.77-7.37,4.13-8.4l5.44-2.67Z" style="fill: #d09515; fill-rule: evenodd; stroke-width: 0px;"/>
    <path d="m61.03,108.77s-.01,1.21-.01,1.77-.66,1.73-.99,1.77c0,0-.62-1.8-1.96-2.9,0,0,1.01-.01,1.54-.06.52-.04.95-.39,1.42-.58h0Zm-14.62,20.02v-1.11s.12-.13.12-.13l-.12-.1v-.91s1.56.8,1.56.8l-1.56,1.45h0Zm0-2.82c.63.45,1.86.71,1.86.71l.11-3.33-1.8,1.42c-.06.05-.12.1-.17.15v1.05h0Zm8.66-5.88h-.19s-.19-1.79-.49-3.08l2.75.25s-.44,2.44-2.07,2.83h0Zm-2.89,3.21l-.65-2.68s2.18.23,2.55.27c.37.04.33.9-.37,1.54-.46.42-.92.78-1.53.87h0Zm-.18,1.61c-.15,0-.27-.14-.27-.32,0-.18.12-.32.27-.32s.27.14.27.32c0,.18-.12.32-.27.32h0Zm7.97-11.33c-.15,0-.27-.14-.27-.32,0-.18.12-.32.27-.32s.27.14.27.32c0,.18-.12.32-.27.32h0Zm.52-5.18l.23-.15s-.6-1.16-.89-1.68l-.73.36-.48,1.94s.83,0,1.87-.46h0Zm-10.01,12.87c-.58.56-1.07,1.12-1.03,1.55.04.43,1.15.97,1.6.94.45-.04.56-.34.36-1.14-.21-.8-.49-1.72-.49-1.72l-.43.37h0Zm6.26-8.41l-.17.19s1.23.11,1.83.08c.6-.02,1.02-.4.65-1.37-.37-.97-1.37-1.61-1.37-1.61,0,0-.12,1.65-.95,2.7h0Zm-2.15,3.36l-.22.24,2.38.17s.13-1.85-.86-2.58c0,0-.18,1.03-1.29,2.18h0Zm7.42-7.33c-.15,0-.27-.14-.27-.32s.12-.32.27-.32.27.14.27.32c0,.18-.12.32-.27.32h0Zm-4.41,5.48l.2,1.12s.28-.59.87-.99l-1.07-.13h0Zm.23,3.31c-.15,0-.27-.14-.27-.32,0-.18.12-.32.27-.32s.27.14.27.32c0,.18-.12.32-.27.32h0Zm2.26-6.89c.21,0,.38-.17.38-.38s-.17-.38-.38-.38-.38.17-.38.38.17.38.38.38h0Zm-8.09,9.1l2.36.54s.34-1.57-.81-2.82l-1.55,2.28h0Zm10.38-14.55c0,.58-.11,2.06-1.15,2.57,0,0-.08-.51-.94-1.54l.63-.31.37.58s.28-.15.48-1l.61-.3h0Zm-13.62,21.21l.38-3.08s1.19.73,2.14.73c0,0,.04.64-.73,1.44-.77.8-1.79.92-1.79.92h0Zm6.46-5.24c-.15,0-.27-.14-.27-.32,0-.18.12-.32.27-.32s.27.14.27.32c0,.18-.12.32-.27.32h0Zm-6.62,6.6c-.15,0-.27-.14-.27-.32,0-.18.12-.32.27-.32s.27.14.27.32c0,.18-.12.32-.27.32h0Zm8.02-14.08l-.2-.28h3c-.22,2.24-1.68,3.13-1.68,3.13,0,0-.18-1.63-1.12-2.86h0Zm-3.11,7.42h-1.22s.29,1.17.29,1.17l.93-1.17Z" style="fill: #ffe100; fill-rule: evenodd; stroke-width: 0px;"/>
    <path d="m46.4,122.36c2.55-1.85,7.65-6.34,10.48-14.36l1.06-.52c-.36,1.03-1.76,4.79-4.13,8.4-2.18,3.33-4.96,6.06-7.41,7.57v-1.09Z" style="fill: #ffe100; fill-rule: evenodd; stroke-width: 0px;"/>
    <path d="m56.31,108.28c-.48,1.56-2.88,8.33-9.9,13.44v-2.88c1.53-1.02,4.92-3.76,6.43-8.85l3.47-1.71Z" style="fill: #fff; fill-rule: evenodd; stroke-width: 0px;"/>
    <path d="m54.55,109.14l.47.23.35-.64-.82.4h0Zm-8.15,11.29v-.43s.42-.4.42-.4l.72.7-.55.61-.58-.49h0Zm4.58-5.34l.7.41.49-.76-.65-.43-.54.78h0Zm-.79,1.18l.66.47.55-.72-.61-.49-.61.73h0Zm-.95,1.12l.61-.73.61.48-.55.72-.66-.47h0Zm-1.92,1.98l.66.59.55-.62-.61-.6-.6.62h0Zm4.43-5.48l.7.41.49-.76-.65-.43-.54.78h0Zm.72-1.24l.7.41.49-.76-.65-.43-.54.78h0Zm1.3-2.39l.73.36.44-.79-.68-.39-.49.82h0Zm-5.39,8.2l.66.47.55-.72-.61-.48-.61.73h0Zm4.76-6.97l.73.36.44-.79-.68-.39-.48.82Z" style="fill: #112343; fill-rule: evenodd; stroke-width: 0px;"/>
    <path d="m64.65,108c-.38,1.49-1.62,5.57-4.85,11.02-3.5,5.9-8.94,10.75-13.4,13.24v-1.85c.93-.58,2.08-1.32,3.32-2.2,2.97-2.11,6.64-6.27,8.16-8.81,1.48-2.47,4.47-8.39,5.91-13.37.38.81.67,1.49.86,1.97Z" style="fill: #e60012; fill-rule: evenodd; stroke-width: 0px;"/>
    <path d="m52.3,110.25c-.5,1.24-2.41,5.54-5.9,7.98v-5.09s5.9-2.9,5.9-2.9Z" style="fill: #e60012; fill-rule: evenodd; stroke-width: 0px;"/>
    <path d="m46.4,111.2h0v-2.73s13.39-9.09,13.39-9.09c.93,1.21,1.73,2.45,2.41,3.63.01.02.03.05.04.07l-15.85,8.12Z" style="fill: #112343; fill-rule: evenodd; stroke-width: 0px;"/>
    <path d="m62.89,104.24l-16.49,8.07v-1.11s15.85-8.12,15.85-8.12c.23.39.44.78.64,1.16Z" style="fill: #fff; fill-rule: evenodd; stroke-width: 0px;"/>
    <path d="m71.61,127.8l.59-1.07.73,1.18-.68.89-.65-.99h0Zm.13-2.9l.92,1.34.76-1.53-1.13-1.61-.54,1.8h0Zm-.27-3.86l.86,1.58,1.11-2.09-1.32-1.42-.65,1.93h0Zm-.4-3.82l.85-1.93,1.36,1.76-.85,2.06-1.36-1.89h0Zm-.81-3.9l1.74,1.36.64-2.06-1.74-1.55-.64,2.25h0Zm-1.12-4.33l1.81,1.6.84-2.34-1.9-1.68-.74,2.42h0Zm-1.32-4.04l2.34,1.2.28-2.77-2.14-1.3-.48,2.87h0Zm-1.95-4.48l2.62,1.21.27-2.88-2.55-1.16-.34,2.84h0Zm-1.13-4.43l.55.25.06-.67-.61.41Z" style="fill: #fff; fill-rule: evenodd; stroke-width: 0px;"/>
    <path d="m86.38,119.6h4.57s-3.35-5.61-3.35-5.61h-11.03c.17,2.97.3,5.71.11,8.48-.11,1.47-.37,3.76-.91,5.13h-4.57s3.35,5.61,3.35,5.61h11.03c-.17-2.97-.3-5.71-.11-8.48.11-1.47.37-3.75.9-5.12Z" style="fill: #112343; fill-rule: evenodd; stroke-width: 0px;"/>
    <path d="m82.16,124.72h-2.37v-2.35h2.37v2.35h0Zm2.91.27l.17-2.89h-2.75v-2.67s-3.02,0-3.02,0v2.67h-2.47s-.17,2.89-.17,2.89h2.64v2.59s3.02,0,3.02,0v-2.59h2.58Z" style="fill: #ffe100; fill-rule: evenodd; stroke-width: 0px;"/>
    <path d="m67.91,73.99c-7.34-4.26-9.57-12.98-9.57-12.98,0,0-2.24,8.71-9.57,12.98,7.34,4.26,9.57,12.98,9.57,12.98,0,0,2.24-8.71,9.57-12.98Z" style="fill: #e60012; fill-rule: evenodd; stroke-width: 0px;"/>
    <path d="m94.25,173.2c7.34,4.26,9.57,12.98,9.57,12.98,0,0,2.24-8.71,9.57-12.98-7.34-4.26-9.57-12.98-9.57-12.98,0,0-2.24,8.71-9.57,12.98Z" style="fill: #e60012; fill-rule: evenodd; stroke-width: 0px;"/>
    <path d="m46.4,62.12c0-1.61,1.08-2.93,2.39-2.93h64.57c1.32,0,2.39,1.32,2.39,2.93v122.97c0,1.61-1.08,2.93-2.39,2.93H48.8c-1.32,0-2.39-1.32-2.39-2.93V62.12Z" style="fill: none; fill-rule: evenodd; stroke: #231815; stroke-miterlimit: 22.93; stroke-width: 1.5px;"/>
    <path d="m36.47,81.18c-11.26-6.58-14.7-20.04-14.7-20.04,0,0-3.43,13.45-14.69,20.04,11.26,6.58,14.69,20.04,14.69,20.04,0,0,3.43-13.45,14.7-20.04Z" style="fill: #e60012; fill-rule: evenodd; stroke-width: 0px;"/>
    <polygon points="5.96 3.89 19.82 3.89 19.82 9.5 15.66 9.5 15.66 28.14 27.26 9.5 23.74 9.5 23.74 3.89 37.59 3.89 37.59 9.5 33.85 9.5 23.94 25.44 35.1 49.3 37.32 49.3 37.32 54.92 23.87 54.92 23.87 49.3 28.93 49.3 20.41 31.1 15.66 38.74 15.66 49.3 20.32 49.3 20.32 54.92 6.86 54.92 6.86 49.3 10.05 49.3 10.05 9.5 5.96 9.5 5.96 3.89" style="fill: #e60012; stroke-width: 0px;"/>
  </g>
</svg>