<?xml version="1.0" encoding="UTF-8"?>
<svg id="_图层_2" data-name="图层 2" xmlns="http://www.w3.org/2000/svg" viewBox="0 0 162.16 247.2">
  <g id="_图层_1-2" data-name="图层 1">
    <path d="m1,6.57c0-3.06,2.49-5.57,5.52-5.57h149.11c3.04,0,5.52,2.51,5.52,5.57v234.05c0,3.07-2.49,5.57-5.52,5.57H6.52c-3.04,0-5.52-2.51-5.52-5.57V6.57Z" style="fill: #fff; fill-rule: evenodd; stroke: #231815; stroke-miterlimit: 22.93; stroke-width: 2px;"/>
    <path d="m89.94,87.08c-6.79-3.97-8.86-12.08-8.86-12.08,0,0-2.07,8.11-8.86,12.08,6.79,3.97,8.86,12.08,8.86,12.08,0,0,2.07-8.11,8.86-12.08h0Zm0,73.04c-6.79-3.97-8.86-12.08-8.86-12.08,0,0-2.07,8.11-8.86,12.08,6.79,3.97,8.86,12.08,8.86,12.08,0,0,2.07-8.11,8.86-12.08Z" style="fill: #e60012; fill-rule: evenodd; stroke-width: 0px;"/>
    <path d="m125.88,165.77c11.26,6.58,14.69,20.04,14.69,20.04,0,0,3.43-13.45,14.7-20.04-11.26-6.58-14.7-20.04-14.7-20.04,0,0-3.43,13.45-14.69,20.04Z" style="fill: #e60012; fill-rule: evenodd; stroke-width: 0px;"/>
    <path d="m154.03,227.25c1.58,6.07-.56,10.49-4.28,13.13-2.3,1.63-5.19,2.53-8.12,2.66-2.88.13-5.88-.47-8.43-1.83-4.45-2.36-7.55-6.86-6.66-13.54.88-6.6,4.96-9.56,10.56-13.61,0,0,0,0,0,0h0s0,0,0,0c0,0,0,0,0,0,0,0,0,0,.01,0,.08-.06.34-.26,1.05-.77,2.74-1.99,5.86-5.49,8.16-9.32,1.27-2.12,2.27-4.31,2.77-6.32h-17.44s0,6.7,0,6.7h-5.61v-12.32h28.94s.06,2.75.06,2.75c.08,3.77-1.54,8.08-3.92,12.05-2.68,4.46-6.38,8.6-9.67,10.99-1.13.82-.01,0-1.08.77-4.48,3.24-7.75,5.6-8.31,9.81-.52,3.93,1.21,6.53,3.72,7.86,1.64.87,3.63,1.26,5.58,1.17,1.91-.09,3.73-.63,5.11-1.61,1.92-1.37,2.99-3.75,2.11-7.17l5.42-1.4Z" style="fill: #e60012; stroke-width: 0px;"/>
    <path d="m46.4,62.12c0-1.61,1.08-2.93,2.39-2.93h64.57c1.32,0,2.39,1.32,2.39,2.93v122.97c0,1.61-1.08,2.93-2.39,2.93H48.79c-1.32,0-2.39-1.32-2.39-2.93V62.12Z" style="fill: none; fill-rule: evenodd; stroke: #231815; stroke-miterlimit: 22.93; stroke-width: 1.5px;"/>
    <path d="m36.47,81.18c-11.26-6.58-14.69-20.04-14.69-20.04,0,0-3.43,13.45-14.7,20.04,11.26,6.58,14.7,20.04,14.7,20.04,0,0,3.43-13.45,14.69-20.04Z" style="fill: #e60012; fill-rule: evenodd; stroke-width: 0px;"/>
    <path d="m8.32,19.7c-1.58-6.07.56-10.49,4.28-13.13,2.3-1.63,5.19-2.53,8.12-2.66,2.88-.13,5.88.47,8.43,1.83,4.45,2.36,7.55,6.86,6.66,13.54-.88,6.6-4.96,9.56-10.56,13.61,0,0,0,0,0,0h0s0,0,0,0c0,0,0,0,0,0,0,0,0,0-.01,0-.08.06-.34.26-1.05.77-2.74,1.99-5.86,5.49-8.16,9.32-1.27,2.12-2.27,4.31-2.77,6.32h17.44s0-6.7,0-6.7h5.61v12.32H7.33s-.06-2.75-.06-2.75c-.08-3.77,1.54-8.08,3.92-12.05,2.68-4.46,6.38-8.6,9.67-10.99,1.13-.82.01,0,1.08-.77,4.48-3.24,7.75-5.6,8.31-9.81.52-3.93-1.21-6.53-3.72-7.86-1.64-.87-3.63-1.26-5.58-1.17-1.91.09-3.73.63-5.11,1.61-1.92,1.37-2.99,3.75-2.11,7.17l-5.42,1.4Z" style="fill: #e60012; stroke-width: 0px;"/>
  </g>
</svg>