<?xml version="1.0" encoding="UTF-8"?>
<svg id="_图层_2" data-name="图层 2" xmlns="http://www.w3.org/2000/svg" viewBox="0 0 163.57 248.61">
  <g id="_图层_1-2" data-name="图层 1">
    <path d="m1,6.6c0-3.08,2.51-5.6,5.57-5.6h150.43c3.06,0,5.57,2.52,5.57,5.6v235.41c0,3.08-2.51,5.6-5.57,5.6H6.57c-3.06,0-5.57-2.52-5.57-5.6V6.6Z" style="fill: #fff; fill-rule: evenodd; stroke: #231815; stroke-miterlimit: 22.93; stroke-width: 2px;"/>
    <path d="m90.64,160.82c-6.79-3.97-8.86-12.08-8.86-12.08,0,0-2.07,8.11-8.86,12.08,6.79,3.97,8.86,12.08,8.86,12.08,0,0,2.07-8.11,8.86-12.08h0Zm0-73.04c-6.79-3.97-8.86-12.08-8.86-12.08,0,0-2.07,8.11-8.86,12.08,6.79,3.97,8.86,12.08,8.86,12.08,0,0,2.07-8.11,8.86-12.08h0Zm0,36.52c-6.79-3.97-8.86-12.08-8.86-12.08,0,0-2.07,8.11-8.86,12.08,6.79,3.97,8.86,12.08,8.86,12.08,0,0,2.07-8.11,8.86-12.08Z" style="fill: #e60012; fill-rule: evenodd; stroke-width: 0px;"/>
    <path d="m126.59,165.48c11.26,6.58,14.69,20.04,14.69,20.04,0,0,3.43-13.45,14.69-20.04-11.26-6.58-14.69-20.04-14.69-20.04,0,0-3.43,13.45-14.69,20.04Z" style="fill: #e60012; fill-rule: evenodd; stroke-width: 0px;"/>
    <path d="m126.95,242.77v-5.86s11.17-10.19,11.17-10.19c-.96-.15-1.9-.4-2.8-.73-2.36-.87-4.51-2.35-6.24-4.33-1.96-2.25-3.38-5.14-3.98-8.54-1.06-6.03,1.13-11.46,4.89-15.2,1.95-1.94,4.34-3.42,6.92-4.29,2.62-.88,5.43-1.14,8.2-.61,4.86.93,9.52,4.22,12.61,10.69l-5.06,2.41c-2.22-4.65-5.38-6.98-8.6-7.6-1.8-.34-3.65-.17-5.38.41-1.76.59-3.4,1.62-4.75,2.96-2.55,2.53-4.03,6.2-3.31,10.27.41,2.34,1.37,4.31,2.68,5.82,1.11,1.27,2.46,2.21,3.93,2.75,1.46.54,3.05.7,4.65.42,1.73-.3,3.48-1.13,5.12-2.55l3.73,4.19-.05.04h0s-.06.05-.09.08l-15.62,14.26h16.1s0-6.84,0-6.84h5.61v12.45h-29.76Z" style="fill: #e60012; stroke-width: 0px;"/>
    <polygon points="81.81 112.05 91.19 118.11 91.23 130.22 81.77 136.2 72.34 130.22 72.44 118.13 81.81 112.05" style="fill: #fff; stroke: #d71618; stroke-miterlimit: 10; stroke-width: .3px;"/>
    <polygon points="73.73 118.6 81.7 113.39 83.77 114.92 77.88 118.72 81.83 121.3 85.87 118.7 84.84 117.93 81.82 120.09 79.88 118.64 84.84 115.4 89.69 118.75 81.79 123.94 73.73 118.6" style="fill: #d71618; stroke: #d71618; stroke-miterlimit: 10; stroke-width: .3px;"/>
    <polygon points="73.46 119.33 81.47 124.49 81.39 130.97 78.49 128.97 78.5 130.37 81.3 132.21 81.39 134.76 76.41 131.59 76.5 127.51 75.37 127.05 75.33 130.96 73.3 129.61 73.46 119.33" style="fill: #d71618; stroke-width: 0px;"/>
    <polyline points="90.14 127.14 84.33 131.03 84.33 129.56 90.19 125.74 90.19 123.23 84.51 127.02 84.15 126.99 84.15 125.75 90.3 121.83 90.3 119.34 82.2 124.53 82.2 134.88 90.3 129.53 90.23 127.11" style="fill: #d71618; stroke-width: 0px;"/>
    <polygon points="75.38 123.23 75.38 124.59 79.34 127.05 79.39 125.65 75.38 123.23" style="fill: #fff; stroke-width: 0px;"/>
    <path d="m47.11,62.82c0-1.61,1.08-2.93,2.39-2.93h64.57c1.32,0,2.39,1.32,2.39,2.93v122.97c0,1.61-1.08,2.93-2.39,2.93H49.5c-1.32,0-2.39-1.32-2.39-2.93V62.82Z" style="fill: none; fill-rule: evenodd; stroke: #231815; stroke-miterlimit: 22.93; stroke-width: 1.5px;"/>
    <path d="m37.18,83.89c-11.26-6.58-14.69-20.04-14.69-20.04,0,0-3.43,13.45-14.69,20.04,11.26,6.58,14.69,20.04,14.69,20.04,0,0,3.43-13.45,14.69-20.04Z" style="fill: #e60012; fill-rule: evenodd; stroke-width: 0px;"/>
    <path d="m36.81,6.6v5.86s-11.17,10.19-11.17,10.19c.96.15,1.9.4,2.8.73,2.36.87,4.51,2.35,6.24,4.33,1.96,2.25,3.38,5.14,3.98,8.54,1.06,6.03-1.13,11.46-4.89,15.2-1.95,1.94-4.34,3.42-6.92,4.29-2.62.88-5.43,1.14-8.2.61-4.86-.93-9.52-4.22-12.61-10.69l5.06-2.41c2.22,4.65,5.38,6.98,8.6,7.6,1.8.34,3.65.17,5.38-.41,1.76-.59,3.4-1.62,4.75-2.96,2.55-2.53,4.03-6.2,3.31-10.27-.41-2.34-1.37-4.31-2.68-5.82-1.11-1.27-2.46-2.21-3.93-2.75-1.46-.54-3.05-.7-4.65-.42-1.73.3-3.48,1.13-5.12,2.55l-3.73-4.19.05-.04h0s.06-.05.09-.08l15.62-14.26H12.67s0,6.84,0,6.84h-5.61V6.6h29.76Z" style="fill: #e60012; stroke-width: 0px;"/>
  </g>
</svg>