<?xml version="1.0" encoding="UTF-8"?>
<svg id="_图层_2" data-name="图层 2" xmlns="http://www.w3.org/2000/svg" viewBox="0 0 163.57 248.61">
  <g id="_图层_1-2" data-name="图层 1">
    <path d="m1,6.6c0-3.08,2.51-5.6,5.57-5.6h150.43c3.06,0,5.57,2.52,5.57,5.6v235.41c0,3.08-2.51,5.6-5.57,5.6H6.57c-3.07,0-5.57-2.52-5.57-5.6V6.6Z" style="fill: #fff; fill-rule: evenodd; stroke: #231815; stroke-miterlimit: 22.93; stroke-width: 2px;"/>
    <path d="m107.9,161.06c-6.79-3.97-8.86-12.08-8.86-12.08,0,0-2.07,8.11-8.86,12.08,6.79,3.97,8.86,12.08,8.86,12.08,0,0,2.07-8.11,8.86-12.08h0Zm-34.51,0c-6.79-3.97-8.86-12.08-8.86-12.08,0,0-2.07,8.11-8.86,12.08,6.79,3.97,8.86,12.08,8.86,12.08,0,0,2.07-8.11,8.86-12.08h0Zm34.51-73.51c-6.79-3.97-8.86-12.08-8.86-12.08,0,0-2.07,8.11-8.86,12.08,6.79,3.97,8.86,12.08,8.86,12.08,0,0,2.07-8.11,8.86-12.08h0Zm-34.51,0c-6.79-3.97-8.86-12.08-8.86-12.08,0,0-2.07,8.11-8.86,12.08,6.79,3.97,8.86,12.08,8.86,12.08,0,0,2.07-8.11,8.86-12.08Z" style="fill: #e60012; fill-rule: evenodd; stroke-width: 0px;"/>
    <path d="m126.59,166.48c11.26,6.58,14.69,20.04,14.69,20.04,0,0,3.43-13.45,14.69-20.04-11.26-6.58-14.69-20.04-14.69-20.04,0,0-3.44,13.45-14.69,20.04Z" style="fill: #e60012; fill-rule: evenodd; stroke-width: 0px;"/>
    <path d="m129.89,238.16h19.16s.16-9.37.16-9.37c-2.91,1.05-6.99,1.83-11.57.7-.92-.23-1.79-.54-2.6-.92-4.15-1.97-6.86-5.82-8.22-10.27-1.3-4.23-1.39-9.06-.35-13.29.34-1.39.81-2.72,1.39-3.95,2.01-4.22,5.31-6.95,9.02-8.2,1.86-.63,3.8-.88,5.7-.76,1.91.12,3.82.61,5.62,1.46,3.75,1.78,6.95,5.14,8.6,10.04l-5.31,1.78c-1.12-3.33-3.24-5.58-5.69-6.75-1.12-.53-2.33-.84-3.56-.91-1.24-.08-2.46.08-3.6.46-2.33.78-4.42,2.54-5.73,5.28-.43.89-.76,1.87-1.02,2.9-.81,3.28-.74,7.03.27,10.3.94,3.04,2.68,5.63,5.26,6.85.48.23,1,.41,1.54.55,6.63,1.63,10.39-1.12,14.58-4.7l1.77,1.11-.71,20.55-.05,2.76h-24.68v-5.61Z" style="fill: #e60012; stroke-width: 0px;"/>
    <polygon points="81.81 112.23 91.19 118.29 91.23 130.4 81.77 136.39 72.34 130.4 72.44 118.32 81.81 112.23" style="fill: #fff; stroke: #d71618; stroke-miterlimit: 10; stroke-width: .3px;"/>
    <polygon points="73.73 118.78 81.7 113.57 83.78 115.1 77.88 118.9 81.83 121.48 85.87 118.89 84.84 118.11 81.82 120.27 79.88 118.82 84.84 115.58 89.69 118.93 81.79 124.12 73.73 118.78" style="fill: #d71618; stroke: #d71618; stroke-miterlimit: 10; stroke-width: .3px;"/>
    <polygon points="73.47 119.52 81.48 124.67 81.39 131.16 78.49 129.15 78.5 130.56 81.3 132.39 81.39 134.94 76.41 131.77 76.5 127.7 75.37 127.23 75.33 131.14 73.3 129.79 73.47 119.52" style="fill: #d71618; stroke-width: 0px;"/>
    <polyline points="90.14 127.32 84.33 131.21 84.33 129.74 90.19 125.92 90.19 123.41 84.51 127.2 84.16 127.17 84.16 125.94 90.3 122.01 90.3 119.52 82.21 124.71 82.21 135.06 90.3 129.71 90.23 127.29" style="fill: #d71618; stroke-width: 0px;"/>
    <polygon points="75.38 123.41 75.38 124.77 79.34 127.23 79.39 125.83 75.38 123.41" style="fill: #fff; stroke-width: 0px;"/>
    <path d="m47.11,62.82c0-1.61,1.08-2.93,2.39-2.93h64.57c1.32,0,2.39,1.32,2.39,2.93v122.97c0,1.61-1.08,2.93-2.39,2.93H49.5c-1.32,0-2.39-1.32-2.39-2.93V62.82Z" style="fill: none; fill-rule: evenodd; stroke: #231815; stroke-miterlimit: 22.93; stroke-width: 1.5px;"/>
    <path d="m37.18,81.89c-11.26-6.58-14.69-20.04-14.69-20.04,0,0-3.43,13.45-14.69,20.04,11.26,6.58,14.69,20.04,14.69,20.04,0,0,3.44-13.45,14.69-20.04Z" style="fill: #e60012; fill-rule: evenodd; stroke-width: 0px;"/>
    <path d="m33.88,10.21H14.71s-.16,9.37-.16,9.37c2.91-1.05,6.99-1.83,11.57-.7.92.23,1.79.54,2.6.92,4.15,1.97,6.86,5.82,8.22,10.27,1.3,4.23,1.39,9.06.35,13.29-.34,1.39-.81,2.72-1.39,3.95-2.01,4.22-5.31,6.95-9.02,8.2-1.86.63-3.8.88-5.7.76-1.91-.12-3.82-.61-5.62-1.46-3.75-1.78-6.95-5.14-8.6-10.04l5.31-1.78c1.12,3.33,3.24,5.58,5.69,6.75,1.12.53,2.33.84,3.56.91,1.24.08,2.46-.08,3.6-.46,2.33-.78,4.42-2.54,5.73-5.28.43-.89.76-1.87,1.02-2.9.81-3.28.74-7.03-.27-10.3-.94-3.04-2.68-5.63-5.26-6.85-.48-.23-1-.41-1.54-.55-6.63-1.63-10.39,1.12-14.58,4.7l-1.77-1.11.71-20.55.05-2.76h24.68v5.61Z" style="fill: #e60012; stroke-width: 0px;"/>
  </g>
</svg>