<?xml version="1.0" encoding="UTF-8"?>
<svg id="_图层_2" data-name="图层 2" xmlns="http://www.w3.org/2000/svg" viewBox="0 0 163.57 248.61">
  <g id="_图层_1-2" data-name="图层 1">
    <path d="m1,6.6c0-3.08,2.51-5.6,5.57-5.6h150.43c3.06,0,5.57,2.52,5.57,5.6v235.41c0,3.08-2.51,5.6-5.57,5.6H6.57c-3.06,0-5.57-2.52-5.57-5.6V6.6Z" style="fill: #fff; fill-rule: evenodd; stroke: #231815; stroke-miterlimit: 22.93; stroke-width: 2px;"/>
    <path d="m107.9,124.31c-6.79-3.97-8.86-12.08-8.86-12.08,0,0-2.07,8.11-8.86,12.08,6.79,3.97,8.86,12.08,8.86,12.08,0,0,2.07-8.11,8.86-12.08h0Zm-34.51-36.76c-6.79-3.97-8.86-12.08-8.86-12.08,0,0-2.07,8.11-8.86,12.08,6.79,3.97,8.86,12.08,8.86,12.08,0,0,2.07-8.11,8.86-12.08h0Zm34.51,0c-6.79-3.97-8.86-12.08-8.86-12.08,0,0-2.07,8.11-8.86,12.08,6.79,3.97,8.86,12.08,8.86,12.08,0,0,2.07-8.11,8.86-12.08h0Zm-34.51,73.51c-6.79-3.97-8.86-12.08-8.86-12.08,0,0-2.07,8.11-8.86,12.08,6.79,3.97,8.86,12.08,8.86,12.08,0,0,2.07-8.11,8.86-12.08h0Zm34.51,0c-6.79-3.97-8.86-12.08-8.86-12.08,0,0-2.07,8.11-8.86,12.08,6.79,3.97,8.86,12.08,8.86,12.08,0,0,2.07-8.11,8.86-12.08h0Zm-34.51-36.76c-6.79-3.97-8.86-12.08-8.86-12.08,0,0-2.07,8.11-8.86,12.08,6.79,3.97,8.86,12.08,8.86,12.08,0,0,2.07-8.11,8.86-12.08Z" style="fill: #e60012; fill-rule: evenodd; stroke-width: 0px;"/>
    <path d="m126.59,166.48c11.26,6.58,14.69,20.04,14.69,20.04,0,0,3.43-13.45,14.69-20.04-11.26-6.58-14.69-20.04-14.69-20.04,0,0-3.43,13.45-14.69,20.04Z" style="fill: #e60012; fill-rule: evenodd; stroke-width: 0px;"/>
    <path d="m131.04,232.61s2.71,6.11,10.28,5.48l-.07.02c3.08-.33,5.12-2.12,6.5-4.76,1.3-2.48,2.09-5.7,2.64-9.25-.38.33-.77.63-1.17.91-2.24,1.57-4.77,2.39-7.31,2.51-2.52.12-5.06-.46-7.37-1.7-3.71-2-6.77-5.7-8.06-10.92-1.98-8.02.9-14.68,5.53-18.51,2.53-2.1,5.59-3.35,8.69-3.54,3.18-.19,6.41.73,9.16,3.01,3.49,2.88,6.16,7.99,6.77,15.82h0c.23,3.03.16,6.46-.29,10.32-.61,5.23-1.6,10.13-3.59,13.95-2.24,4.28-5.62,7.18-10.88,7.74l-.07.02c-11.53.96-15.85-8.81-15.87-8.83l5.13-2.26h0Zm19.94-21.25c-.54-5.65-2.36-9.24-4.71-11.19-1.57-1.3-3.42-1.82-5.26-1.71-1.92.11-3.84.91-5.45,2.24-3.13,2.59-5.06,7.21-3.66,12.86.88,3.56,2.88,6.03,5.28,7.33,1.39.75,2.92,1.09,4.45,1.02,1.5-.07,3.01-.56,4.35-1.5,2.34-1.63,4.23-4.6,5-9.04Z" style="fill: #e60012; stroke-width: 0px;"/>
    <path d="m47.11,62.82c0-1.61,1.08-2.93,2.39-2.93h64.57c1.32,0,2.39,1.32,2.39,2.93v122.97c0,1.61-1.08,2.93-2.39,2.93H49.5c-1.32,0-2.39-1.32-2.39-2.93V62.82Z" style="fill: none; fill-rule: evenodd; stroke: #231815; stroke-miterlimit: 22.93; stroke-width: 1.5px;"/>
    <path d="m37.18,81.89c-11.26-6.58-14.69-20.04-14.69-20.04,0,0-3.43,13.45-14.69,20.04,11.26,6.58,14.69,20.04,14.69,20.04,0,0,3.43-13.45,14.69-20.04Z" style="fill: #e60012; fill-rule: evenodd; stroke-width: 0px;"/>
    <path d="m32.73,15.76s-2.71-6.11-10.28-5.48l.07-.02c-3.08.33-5.12,2.12-6.5,4.76-1.3,2.48-2.09,5.7-2.64,9.25.38-.33.77-.63,1.17-.91,2.24-1.57,4.77-2.39,7.31-2.51,2.52-.12,5.06.46,7.37,1.7,3.71,2,6.77,5.7,8.06,10.92,1.98,8.02-.9,14.68-5.53,18.51-2.53,2.1-5.59,3.35-8.69,3.54-3.18.19-6.41-.73-9.16-3.01-3.49-2.88-6.16-7.99-6.77-15.82h0c-.23-3.03-.16-6.46.29-10.32.61-5.23,1.6-10.13,3.59-13.95,2.24-4.28,5.62-7.18,10.88-7.74l.07-.02c11.53-.96,15.85,8.81,15.87,8.83l-5.13,2.26h0Zm-19.94,21.25c.54,5.65,2.36,9.24,4.71,11.19,1.57,1.3,3.42,1.82,5.26,1.71,1.92-.11,3.84-.91,5.45-2.24,3.13-2.59,5.06-7.21,3.66-12.86-.88-3.56-2.88-6.03-5.28-7.33-1.39-.75-2.92-1.09-4.45-1.02-1.5.07-3.01.56-4.35,1.5-2.34,1.63-4.23,4.6-5,9.04Z" style="fill: #e60012; stroke-width: 0px;"/>
  </g>
</svg>