<?xml version="1.0" encoding="UTF-8"?>
<svg id="_图层_2" data-name="图层 2" xmlns="http://www.w3.org/2000/svg" viewBox="0 0 163.58 248.61">
  <g id="_图层_1-2" data-name="图层 1">
    <path d="m1,6.6c0-3.08,2.51-5.6,5.57-5.6h150.43c3.06,0,5.57,2.52,5.57,5.6v235.41c0,3.08-2.51,5.6-5.57,5.6H6.57c-3.06,0-5.57-2.52-5.57-5.6V6.6Z" style="fill: #fff; fill-rule: evenodd; stroke: #231815; stroke-miterlimit: 22.93; stroke-width: 2px;"/>
    <path d="m90.65,105.93c-6.79-3.97-8.86-12.08-8.86-12.08,0,0-2.07,8.11-8.86,12.08,6.79,3.97,8.86,12.08,8.86,12.08,0,0,2.07-8.11,8.86-12.08h0Zm-17.26-18.38c-6.79,3.97-8.86,12.08-8.86,12.08,0,0-2.07-8.11-8.86-12.08,6.79-3.97,8.86-12.08,8.86-12.08,0,0,2.07,8.11,8.86,12.08h0Zm34.51,0c-6.79,3.97-8.86,12.08-8.86,12.08,0,0-2.07-8.11-8.86-12.08,6.79-3.97,8.86-12.08,8.86-12.08,0,0,2.07,8.11,8.86,12.08h0Zm0,36.76c-6.79,3.97-8.86,12.08-8.86,12.08,0,0-2.07-8.11-8.86-12.08,6.79-3.97,8.86-12.08,8.86-12.08,0,0,2.07,8.11,8.86,12.08h0Zm-34.51,0c-6.79,3.97-8.86,12.08-8.86,12.08,0,0-2.07-8.11-8.86-12.08,6.79-3.97,8.86-12.08,8.86-12.08,0,0,2.07,8.11,8.86,12.08h0Zm34.51,36.76c-6.79-3.97-8.86-12.08-8.86-12.08,0,0-2.07,8.11-8.86,12.08,6.79,3.97,8.86,12.08,8.86,12.08,0,0,2.07-8.11,8.86-12.08h0Zm-34.51,0c-6.79-3.97-8.86-12.08-8.86-12.08,0,0-2.07,8.11-8.86,12.08,6.79,3.97,8.86,12.08,8.86,12.08,0,0,2.07-8.11,8.86-12.08Z" style="fill: #e60012; fill-rule: evenodd; stroke-width: 0px;"/>
    <path d="m126.59,166.48c11.26,6.58,14.69,20.04,14.69,20.04,0,0,3.44-13.45,14.69-20.04-11.26-6.58-14.69-20.04-14.69-20.04,0,0-3.43,13.45-14.69,20.04Z" style="fill: #e60012; fill-rule: evenodd; stroke-width: 0px;"/>
    <path d="m156.01,231.63v12.13h-25.89s-3.56-4.36-3.56-4.36c.97-1.59,14.85-24.75,16.52-46.34h5.63c-1.28,17.97-10.5,36.85-14.98,45.09h16.67s0-6.52,0-6.52h5.61Z" style="fill: #e60012; stroke-width: 0px;"/>
    <polygon points="81.81 93.67 91.19 99.73 91.23 111.84 81.77 117.82 72.34 111.84 72.44 99.76 81.81 93.67" style="fill: #fff; stroke: #d71618; stroke-miterlimit: 10; stroke-width: .3px;"/>
    <polygon points="73.73 100.22 81.7 95.01 83.77 96.54 77.88 100.34 81.83 102.92 85.87 100.33 84.84 99.55 81.82 101.71 79.88 100.26 84.84 97.02 89.69 100.37 81.79 105.56 73.73 100.22" style="fill: #d71618; stroke: #d71618; stroke-miterlimit: 10; stroke-width: .3px;"/>
    <polygon points="73.46 100.96 81.47 106.11 81.39 112.6 78.49 110.59 78.5 112 81.3 113.83 81.39 116.38 76.41 113.21 76.5 109.13 75.37 108.67 75.33 112.58 73.3 111.23 73.46 100.96" style="fill: #d71618; stroke-width: 0px;"/>
    <polyline points="90.14 108.76 84.33 112.65 84.33 111.18 90.19 107.36 90.19 104.85 84.51 108.64 84.16 108.61 84.16 107.38 90.3 103.45 90.3 100.96 82.21 106.15 82.21 116.5 90.3 111.15 90.23 108.73" style="fill: #d71618; stroke-width: 0px;"/>
    <polygon points="75.38 104.85 75.38 106.21 79.34 108.67 79.39 107.27 75.38 104.85" style="fill: #fff; stroke-width: 0px;"/>
    <path d="m47.11,62.82c0-1.61,1.08-2.93,2.39-2.93h64.57c1.32,0,2.39,1.32,2.39,2.93v122.97c0,1.61-1.08,2.93-2.39,2.93H49.5c-1.32,0-2.39-1.32-2.39-2.93V62.82Z" style="fill: none; fill-rule: evenodd; stroke: #231815; stroke-miterlimit: 22.93; stroke-width: 1.5px;"/>
    <path d="m37.18,81.89c-11.26-6.58-14.69-20.04-14.69-20.04,0,0-3.44,13.45-14.69,20.04,11.26,6.58,14.69,20.04,14.69,20.04,0,0,3.43-13.45,14.69-20.04Z" style="fill: #e60012; fill-rule: evenodd; stroke-width: 0px;"/>
    <path d="m7.76,16.73V4.6h25.89s3.56,4.36,3.56,4.36c-.97,1.59-14.85,24.75-16.52,46.34h-5.63c1.28-17.97,10.5-36.85,14.98-45.09H13.37s0,6.52,0,6.52h-5.61Z" style="fill: #e60012; stroke-width: 0px;"/>
  </g>
</svg>