<?xml version="1.0" encoding="UTF-8"?>
<svg id="_图层_2" data-name="图层 2" xmlns="http://www.w3.org/2000/svg" viewBox="0 0 163.57 248.61">
  <g id="_图层_1-2" data-name="图层 1">
    <path d="m1,6.6c0-3.08,2.51-5.6,5.57-5.6h150.43c3.06,0,5.57,2.52,5.57,5.6v235.41c0,3.08-2.51,5.6-5.57,5.6H6.57c-3.06,0-5.57-2.52-5.57-5.6V6.6Z" style="fill: #fff; fill-rule: evenodd; stroke: #231815; stroke-miterlimit: 22.93; stroke-width: 2px;"/>
    <path d="m90.64,142.68c-6.79-3.97-8.86-12.08-8.86-12.08,0,0-2.07,8.11-8.86,12.08,6.79,3.97,8.86,12.08,8.86,12.08,0,0,2.07-8.11,8.86-12.08h0Zm17.26-18.38c-6.79,3.97-8.86,12.08-8.86,12.08,0,0-2.07-8.11-8.86-12.08,6.79-3.97,8.86-12.08,8.86-12.08,0,0,2.07,8.11,8.86,12.08h0Zm-34.51,0c-6.79,3.97-8.86,12.08-8.86,12.08,0,0-2.07-8.11-8.86-12.08,6.79-3.97,8.86-12.08,8.86-12.08,0,0,2.07,8.11,8.86,12.08h0Zm0,36.76c-6.79,3.97-8.86,12.08-8.86,12.08,0,0-2.07-8.11-8.86-12.08,6.79-3.97,8.86-12.08,8.86-12.08,0,0,2.07,8.11,8.86,12.08h0Zm34.51,0c-6.79,3.97-8.86,12.08-8.86,12.08,0,0-2.07-8.11-8.86-12.08,6.79-3.97,8.86-12.08,8.86-12.08,0,0,2.07,8.11,8.86,12.08h0Zm0-73.51c-6.79-3.97-8.86-12.08-8.86-12.08,0,0-2.07,8.11-8.86,12.08,6.79,3.97,8.86,12.08,8.86,12.08,0,0,2.07-8.11,8.86-12.08h0Zm-34.51,0c-6.79-3.97-8.86-12.08-8.86-12.08,0,0-2.07,8.11-8.86,12.08,6.79,3.97,8.86,12.08,8.86,12.08,0,0,2.07-8.11,8.86-12.08h0Zm17.26,18.38c-6.79-3.97-8.86-12.08-8.86-12.08,0,0-2.07,8.11-8.86,12.08,6.79,3.97,8.86,12.08,8.86,12.08,0,0,2.07-8.11,8.86-12.08Z" style="fill: #e60012; fill-rule: evenodd; stroke-width: 0px;"/>
    <path d="m126.59,166.48c11.26,6.58,14.69,20.04,14.69,20.04,0,0,3.43-13.45,14.69-20.04-11.26-6.58-14.69-20.04-14.69-20.04,0,0-3.43,13.45-14.69,20.04Z" style="fill: #e60012; fill-rule: evenodd; stroke-width: 0px;"/>
    <path d="m133.87,219.2c-1.46-.66-2.8-1.52-3.97-2.52-3.05-2.63-4.94-6.29-4.94-10.34s1.89-7.71,4.94-10.34c2.94-2.53,6.97-4.11,11.38-4.11,4.41,0,8.44,1.57,11.38,4.11,3.05,2.63,4.94,6.29,4.94,10.34s-1.89,7.71-4.94,10.34c-1.17,1-2.5,1.86-3.97,2.52,1.02.54,1.96,1.19,2.8,1.92,2.74,2.4,4.44,5.74,4.44,9.44s-1.7,7.04-4.44,9.44c-2.64,2.31-6.26,3.75-10.22,3.75-3.96,0-7.58-1.44-10.22-3.75-2.74-2.4-4.45-5.74-4.45-9.44s1.7-7.04,4.45-9.44c.84-.74,1.79-1.38,2.81-1.92h0Zm7.42-4.03c3.04,0,5.77-1.04,7.72-2.73,1.85-1.59,2.99-3.75,2.99-6.11s-1.15-4.52-2.99-6.11c-1.95-1.68-4.68-2.73-7.72-2.73-3.04,0-5.77,1.04-7.72,2.73-1.85,1.59-2.99,3.75-2.99,6.11s1.15,4.52,2.99,6.11c1.95,1.68,4.68,2.73,7.72,2.73h0Zm0,22.98c2.57,0,4.88-.9,6.54-2.35,1.55-1.36,2.52-3.22,2.52-5.23s-.96-3.87-2.52-5.23c-1.65-1.45-3.97-2.35-6.54-2.35-2.57,0-4.89.9-6.54,2.35-1.55,1.36-2.52,3.21-2.52,5.23s.96,3.87,2.52,5.23c1.65,1.45,3.97,2.35,6.54,2.35Z" style="fill: #e60012; stroke-width: 0px;"/>
    <polygon points="81.81 93.85 91.19 99.91 91.23 112.02 81.77 118.01 72.34 112.02 72.44 99.94 81.81 93.85" style="fill: #fff; stroke: #d71618; stroke-miterlimit: 10; stroke-width: .3px;"/>
    <polygon points="73.73 100.4 81.7 95.2 83.77 96.72 77.88 100.52 81.83 103.1 85.87 100.51 84.84 99.74 81.82 101.89 79.88 100.44 84.84 97.21 89.69 100.55 81.79 105.75 73.73 100.4" style="fill: #d71618; stroke: #d71618; stroke-miterlimit: 10; stroke-width: .3px;"/>
    <polygon points="73.46 101.14 81.47 106.29 81.39 112.78 78.49 110.77 78.5 112.18 81.3 114.01 81.39 116.56 76.41 113.39 76.5 109.32 75.37 108.85 75.33 112.77 73.3 111.42 73.46 101.14" style="fill: #d71618; stroke-width: 0px;"/>
    <polyline points="90.14 108.94 84.33 112.83 84.33 111.36 90.19 107.55 90.19 105.03 84.51 108.83 84.16 108.79 84.16 107.56 90.3 103.63 90.3 101.14 82.2 106.33 82.2 116.68 90.3 111.33 90.23 108.91" style="fill: #d71618; stroke-width: 0px;"/>
    <polygon points="75.38 105.03 75.38 106.39 79.34 108.85 79.39 107.45 75.38 105.03" style="fill: #fff; stroke-width: 0px;"/>
    <polygon points="81.74 130.61 91.12 136.67 91.16 148.78 81.69 154.76 72.27 148.78 72.37 136.69 81.74 130.61" style="fill: #fff; stroke: #d71618; stroke-miterlimit: 10; stroke-width: .3px;"/>
    <polygon points="73.66 137.16 81.63 131.95 83.7 133.48 77.8 137.28 81.75 139.86 85.8 137.27 84.76 136.49 81.74 138.65 79.8 137.2 84.76 133.96 89.62 137.31 81.71 142.5 73.66 137.16" style="fill: #d71618; stroke: #d71618; stroke-miterlimit: 10; stroke-width: .3px;"/>
    <polygon points="73.39 137.89 81.4 143.05 81.32 149.53 78.42 147.53 78.43 148.93 81.22 150.77 81.32 153.32 76.33 150.15 76.43 146.07 75.3 145.61 75.26 149.52 73.22 148.17 73.39 137.89" style="fill: #d71618; stroke-width: 0px;"/>
    <polyline points="90.07 145.7 84.26 149.59 84.26 148.12 90.12 144.3 90.12 141.79 84.44 145.58 84.08 145.55 84.08 144.31 90.22 140.39 90.22 137.9 82.13 143.09 82.13 153.44 90.22 148.09 90.15 145.67" style="fill: #d71618; stroke-width: 0px;"/>
    <polygon points="75.31 141.79 75.31 143.15 79.26 145.61 79.31 144.21 75.31 141.79" style="fill: #fff; stroke-width: 0px;"/>
    <path d="m47.11,62.82c0-1.61,1.08-2.93,2.39-2.93h64.57c1.32,0,2.39,1.32,2.39,2.93v122.97c0,1.61-1.08,2.93-2.39,2.93H49.5c-1.32,0-2.39-1.32-2.39-2.93V62.82Z" style="fill: none; fill-rule: evenodd; stroke: #231815; stroke-miterlimit: 22.93; stroke-width: 1.5px;"/>
    <path d="m37.18,81.89c-11.26-6.58-14.69-20.04-14.69-20.04,0,0-3.43,13.45-14.69,20.04,11.26,6.58,14.69,20.04,14.69,20.04,0,0,3.43-13.45,14.69-20.04Z" style="fill: #e60012; fill-rule: evenodd; stroke-width: 0px;"/>
    <path d="m29.9,29.16c1.46.66,2.8,1.52,3.97,2.52,3.05,2.63,4.94,6.29,4.94,10.34s-1.89,7.71-4.94,10.34c-2.94,2.53-6.97,4.11-11.38,4.11s-8.44-1.57-11.38-4.11c-3.05-2.63-4.94-6.29-4.94-10.34s1.89-7.71,4.94-10.34c1.17-1,2.5-1.86,3.97-2.52-1.02-.54-1.96-1.19-2.8-1.92-2.74-2.4-4.44-5.74-4.44-9.44s1.7-7.04,4.44-9.44c2.64-2.31,6.26-3.75,10.22-3.75s7.58,1.44,10.22,3.75c2.74,2.4,4.45,5.74,4.45,9.44s-1.7,7.04-4.45,9.44c-.84.74-1.79,1.38-2.81,1.92h0Zm-7.42,4.03c-3.04,0-5.77,1.04-7.72,2.73-1.85,1.59-2.99,3.75-2.99,6.11s1.15,4.52,2.99,6.11c1.95,1.68,4.68,2.73,7.72,2.73,3.04,0,5.77-1.04,7.72-2.73,1.85-1.59,2.99-3.75,2.99-6.11s-1.15-4.52-2.99-6.11c-1.95-1.68-4.68-2.73-7.72-2.73h0Zm0-22.98c-2.57,0-4.88.9-6.54,2.35-1.55,1.36-2.52,3.22-2.52,5.23s.96,3.87,2.52,5.23c1.65,1.45,3.97,2.35,6.54,2.35,2.57,0,4.89-.9,6.54-2.35,1.55-1.36,2.52-3.21,2.52-5.23s-.96-3.87-2.52-5.23c-1.65-1.45-3.97-2.35-6.54-2.35Z" style="fill: #e60012; stroke-width: 0px;"/>
  </g>
</svg>