<?xml version="1.0" encoding="UTF-8"?>
<svg id="_图层_2" data-name="图层 2" xmlns="http://www.w3.org/2000/svg" viewBox="0 0 163.57 248.61">
  <g id="_图层_1-2" data-name="图层 1">
    <path d="m1,6.6c0-3.08,2.51-5.6,5.57-5.6h150.43c3.06,0,5.57,2.52,5.57,5.6v235.41c0,3.08-2.51,5.6-5.57,5.6H6.57c-3.06,0-5.57-2.52-5.57-5.6V6.6Z" style="fill: #fff; fill-rule: evenodd; stroke: #231815; stroke-miterlimit: 22.93; stroke-width: 2px;"/>
    <path d="m90.65,124.31c-6.79-3.97-8.86-12.08-8.86-12.08,0,0-2.07,8.11-8.86,12.08,6.79,3.97,8.86,12.08,8.86,12.08,0,0,2.07-8.11,8.86-12.08h0Zm17.26,12.25c-6.79,3.97-8.86,12.08-8.86,12.08,0,0-2.07-8.11-8.86-12.08,6.79-3.97,8.86-12.08,8.86-12.08,0,0,2.07,8.11,8.86,12.08h0Zm0-24.5c-6.79,3.97-8.86,12.08-8.86,12.08,0,0-2.07-8.11-8.86-12.08,6.79-3.97,8.86-12.08,8.86-12.08,0,0,2.07,8.11,8.86,12.08h0Zm0-24.5c-6.79-3.97-8.86-12.08-8.86-12.08,0,0-2.07,8.11-8.86,12.08,6.79,3.97,8.86,12.08,8.86,12.08,0,0,2.07-8.11,8.86-12.08h0Zm0,73.51c-6.79-3.97-8.86-12.08-8.86-12.08,0,0-2.07,8.11-8.86,12.08,6.79,3.97,8.86,12.08,8.86,12.08,0,0,2.07-8.11,8.86-12.08h0Zm-34.51-24.5c-6.79,3.97-8.86,12.08-8.86,12.08,0,0-2.07-8.11-8.86-12.08,6.79-3.97,8.86-12.08,8.86-12.08,0,0,2.07,8.11,8.86,12.08h0Zm0-24.5c-6.79,3.97-8.86,12.08-8.86,12.08,0,0-2.07-8.11-8.86-12.08,6.79-3.97,8.86-12.08,8.86-12.08,0,0,2.07,8.11,8.86,12.08h0Zm0-24.5c-6.79-3.97-8.86-12.08-8.86-12.08,0,0-2.07,8.11-8.86,12.08,6.79,3.97,8.86,12.08,8.86,12.08,0,0,2.07-8.11,8.86-12.08h0Zm0,73.51c-6.79-3.97-8.86-12.08-8.86-12.08,0,0-2.07,8.11-8.86,12.08,6.79,3.97,8.86,12.08,8.86,12.08,0,0,2.07-8.11,8.86-12.08Z" style="fill: #e60012; fill-rule: evenodd; stroke-width: 0px;"/>
    <g>
      <path d="m126.59,166.48c11.26,6.58,14.69,20.04,14.69,20.04,0,0,3.43-13.45,14.69-20.04-11.26-6.58-14.69-20.04-14.69-20.04,0,0-3.43,13.45-14.69,20.04Z" style="fill: #e60012; fill-rule: evenodd; stroke-width: 0px;"/>
      <path d="m151.53,203.98s-2.71-6.11-10.28-5.48l.06-.02c-3.08.33-5.12,2.12-6.5,4.76-1.3,2.48-2.09,5.7-2.64,9.25.38-.33.77-.63,1.17-.91,2.25-1.57,4.77-2.39,7.31-2.51,2.52-.12,5.06.46,7.37,1.7,3.71,2,6.77,5.7,8.06,10.92,1.98,8.02-.9,14.68-5.53,18.51-2.53,2.1-5.59,3.35-8.69,3.54-3.19.19-6.41-.73-9.16-3.01-3.49-2.88-6.16-7.99-6.77-15.82h0c-.23-3.03-.16-6.46.29-10.33.61-5.22,1.6-10.13,3.59-13.94,2.24-4.28,5.62-7.18,10.88-7.74l.06-.02c11.53-.96,15.85,8.81,15.87,8.83l-5.13,2.26h0Zm-19.94,21.25c.54,5.65,2.36,9.24,4.71,11.19,1.57,1.3,3.42,1.82,5.26,1.71,1.92-.11,3.84-.91,5.45-2.24,3.13-2.59,5.06-7.21,3.66-12.85-.88-3.56-2.88-6.04-5.28-7.33-1.39-.75-2.92-1.1-4.45-1.02-1.5.07-3.01.56-4.35,1.5-2.34,1.63-4.23,4.59-5,9.04Z" style="fill: #e60012; stroke-width: 0px;"/>
    </g>
    <polygon points="81.81 112.49 91.19 118.56 91.23 130.66 81.77 136.65 72.34 130.66 72.44 118.58 81.81 112.49" style="fill: #fff; stroke: #d71618; stroke-miterlimit: 10; stroke-width: .3px;"/>
    <polygon points="73.73 119.04 81.71 113.84 83.78 115.37 77.88 119.16 81.83 121.75 85.87 119.15 84.84 118.38 81.82 120.54 79.88 119.08 84.84 115.85 89.69 119.2 81.79 124.39 73.73 119.04" style="fill: #d71618; stroke: #d71618; stroke-miterlimit: 10; stroke-width: .3px;"/>
    <polygon points="73.47 119.78 81.48 124.94 81.39 131.42 78.49 129.41 78.5 130.82 81.3 132.66 81.39 135.21 76.41 132.03 76.5 127.96 75.37 127.49 75.33 131.41 73.3 130.06 73.47 119.78" style="fill: #d71618; stroke-width: 0px;"/>
    <polyline points="90.14 127.59 84.33 131.47 84.33 130.01 90.2 126.19 90.2 123.68 84.51 127.47 84.16 127.44 84.16 126.2 90.3 122.28 90.3 119.79 82.21 124.98 82.21 135.33 90.3 129.97 90.23 127.56" style="fill: #d71618; stroke-width: 0px;"/>
    <polygon points="75.38 123.68 75.38 125.04 79.34 127.49 79.39 126.1 75.38 123.68" style="fill: #fff; stroke-width: 0px;"/>
    <path d="m47.11,62.82c0-1.61,1.08-2.93,2.39-2.93h64.57c1.32,0,2.39,1.32,2.39,2.93v122.97c0,1.61-1.08,2.93-2.39,2.93H49.5c-1.32,0-2.39-1.32-2.39-2.93V62.82Z" style="fill: none; fill-rule: evenodd; stroke: #231815; stroke-miterlimit: 22.93; stroke-width: 1.5px;"/>
    <g>
      <path d="m37.18,81.89c-11.26-6.58-14.69-20.04-14.69-20.04,0,0-3.43,13.45-14.69,20.04,11.26,6.58,14.69,20.04,14.69,20.04,0,0,3.43-13.45,14.69-20.04Z" style="fill: #e60012; fill-rule: evenodd; stroke-width: 0px;"/>
      <path d="m12.24,44.39s2.71,6.11,10.28,5.48l-.06.02c3.08-.33,5.12-2.12,6.5-4.76,1.3-2.48,2.09-5.7,2.64-9.25-.38.33-.77.63-1.17.91-2.25,1.57-4.77,2.39-7.31,2.51-2.52.12-5.06-.46-7.37-1.7-3.71-2-6.77-5.7-8.06-10.92-1.98-8.02.9-14.68,5.53-18.51,2.53-2.1,5.59-3.35,8.69-3.54,3.19-.19,6.41.73,9.16,3.01,3.49,2.88,6.16,7.99,6.77,15.82h0c.23,3.03.16,6.46-.29,10.33-.61,5.22-1.6,10.13-3.59,13.94-2.24,4.28-5.62,7.18-10.88,7.74l-.06.02c-11.53.96-15.85-8.81-15.87-8.83l5.13-2.26h0Zm19.94-21.25c-.54-5.65-2.36-9.24-4.71-11.19-1.57-1.3-3.42-1.82-5.26-1.71-1.92.11-3.84.91-5.45,2.24-3.13,2.59-5.06,7.21-3.66,12.85.88,3.56,2.88,6.04,5.28,7.33,1.39.75,2.92,1.1,4.45,1.02,1.5-.07,3.01-.56,4.35-1.5,2.34-1.63,4.23-4.59,5-9.04Z" style="fill: #e60012; stroke-width: 0px;"/>
    </g>
  </g>
</svg>