<?xml version="1.0" encoding="UTF-8"?>
<svg id="_图层_2" data-name="图层 2" xmlns="http://www.w3.org/2000/svg" viewBox="0 0 164 258.47">
  <g id="_图层_2-2" data-name=" 图层 2">
    <g id="_图层_1-2" data-name=" 图层 1-2">
      <path d="m163.67,250.37c.07,7.22-9.32,7.77-9.32,7.77,0,0-139.96-.63-145.66-.76-5.71-.13-8.22-7.03-8.22-7.03L.33,8.1C.25.87,9.65.33,9.65.33c0,0,139.96.63,145.66.76s8.22,7.03,8.22,7.03l.15,242.37" style="fill: #fff; stroke: #231815; stroke-miterlimit: 3.51; stroke-width: .65px;"/>
      <polygon points="8.8 17.44 16.5 9.19 14 9.22 8.8 15.06 8.8 17.44" style="fill: #d5d5d4; stroke-width: 0px;"/>
      <polyline points="19.13 9.2 8.79 19.58 8.78 22.81 21.97 9.21" style="fill: #d5d5d4; stroke-width: 0px;"/>
      <polygon points="52.55 130.95 54.08 132.26 76.26 110.26 74.37 108.57 52.55 130.95" style="fill: #1c1d1d; stroke-width: 0px;"/>
      <polyline points="24.23 159.18 25.89 160.48 47.53 138.71 46.04 137.23" style="fill: #1c1d1d; stroke-width: 0px;"/>
      <polygon points="8.76 27.88 27.34 9.22 24.55 9.22 8.77 25.23 8.76 27.88" style="fill: #d5d5d4; stroke-width: 0px;"/>
      <polygon points="8.75 33.48 32.54 9.24 29.47 9.23 8.76 29.78 8.75 33.48" style="fill: #d5d5d4; stroke-width: 0px;"/>
      <polygon points="8.73 38.44 37.46 9.26 35.17 9.25 8.74 35.48 8.73 38.44" style="fill: #d5d5d4; stroke-width: 0px;"/>
      <polygon points="8.73 40.53 8.71 43.98 42.68 9.27 40.13 9.27 8.73 40.53" style="fill: #d5d5d4; stroke-width: 0px;"/>
      <polygon points="22.95 32 24.24 33.27 8.7 48.9 8.7 45.94 22.95 32" style="fill: #d5d5d4; stroke-width: 0px;"/>
      <path d="m48.08,9.29l-16.08,16.18c-.44-.44-.83-.83-1.16-1.16l15.37-15.02s1.88,0,1.88,0Z" style="fill: #d5d5d4; stroke-width: 0px;"/>
      <g>
        <polygon points="34.51 28.02 52.87 9.3 51.14 9.06 33.3 26.81 34.51 28.02" style="fill: #d5d5d4; stroke-width: 0px;"/>
        <polygon points="25.53 34.54 8.69 51.3 8.68 54.34 26.84 35.83 25.53 34.54" style="fill: #d5d5d4; stroke-width: 0px;"/>
      </g>
      <g>
        <polygon points="37.19 30.73 58.17 9.32 56.39 9.31 35.93 29.46 37.19 30.73" style="fill: #d5d5d4; stroke-width: 0px;"/>
        <polygon points="28.15 37.12 8.68 56.29 8.67 59.83 29.55 38.51 28.15 37.12" style="fill: #d5d5d4; stroke-width: 0px;"/>
      </g>
      <polygon points="8.66 61.68 8.65 65.13 63.37 9.34 61.69 9.33 8.66 61.68" style="fill: #d5d5d4; stroke-width: 0px;"/>
      <polygon points="8.73 66.99 8.63 70.03 68.59 9.35 66.79 9.35 8.73 66.99" style="fill: #d5d5d4; stroke-width: 0px;"/>
      <polygon points="8.63 72.03 8.62 75.1 74.06 9.37 72.28 9.31 8.63 72.03" style="fill: #d5d5d4; stroke-width: 0px;"/>
      <polygon points="8.61 77.5 8.65 80.91 79.24 9.39 77.42 9.38 8.61 77.5" style="fill: #d5d5d4; stroke-width: 0px;"/>
      <polygon points="8.6 82.38 8.58 85.81 84.06 9.4 83.05 9.4 8.6 82.38" style="fill: #d5d5d4; stroke-width: 0px;"/>
      <polygon points="8.58 88.08 8.57 91.42 89.68 9.36 88.68 9.36 8.58 88.08" style="fill: #d5d5d4; stroke-width: 0px;"/>
      <polygon points="8.56 93.2 8.62 96.48 94.76 9.26 93.22 9.25 8.56 93.2" style="fill: #d5d5d4; stroke-width: 0px;"/>
      <polygon points="8.55 98.54 8.54 101.61 100.24 9.27 99.18 9.2 8.55 98.54" style="fill: #d5d5d4; stroke-width: 0px;"/>
      <polygon points="102.56 9.28 106.68 9.24 8.25 106.11 8.26 104.77 102.56 9.28" style="fill: #d5d5d4; stroke-width: 0px;"/>
      <polygon points="108.55 9.56 8.24 109.56 8.24 110.74 111.4 9.57 108.55 9.56" style="fill: #d5d5d4; stroke-width: 0px;"/>
      <path d="m117.37,9.27l-.42.31-1.76,1.73-6.05,5.95-25.88,25.42-5.47,5.38c-.08-.08-.91-.81-1.48-.31-.6.53-2.1,1.92-2.1,1.92,0,0-.56.31.3,1.18l.21.22-5.83,5.73-3.44,3.38-5.07,4.98c-.38-.3-.97-.54-1.58.05-1.03.99-2.13,2.36-2.13,2.36,0,0-.26.23.28.96l-5.77,5.67-34.51,33.91-6.25,6.14-1.94,1.9v-1.37l7.41-7.4,34.27-34.2,14.15-14.13,3.51-3.51,14.16-14.13,25.47-25.42,6.04-6.03.71-.7h3.17s0,0,0,0Z" style="fill: #d5d5d4; stroke-width: 0px;"/>
      <path d="m58.34,69.98c.33.32.72.7,1.14,1.1l-5.77,5.67-34.48,33.83-5.86,5.76-3.02,2.97-1.86,1.83v-1.16l1.26-1.26,3.01-3.02,5.77-5.79,34.12-34.21,5.69-5.71h0Z" style="fill: #d5d5d4; stroke-width: 0px;"/>
      <polygon points="77.27 53.63 71.46 59.33 68.02 62.7 63 67.62 61.8 66.52 66.8 61.5 70.2 58.09 75.96 52.32 77.27 53.63" style="fill: #d5d5d4; stroke-width: 0px;"/>
      <path d="m122.46,9.27l-.77.76-3.62,3.56-5.99,5.87-26.25,25.77-5.51,5.4c-.51-.51-.96-.97-1.33-1.35l5.43-5.45,25.74-25.81,5.97-5.98,2.78-2.79h3.56s0,.01,0,.01Z" style="fill: #d5d5d4; stroke-width: 0px;"/>
      <polygon points="155.8 66.74 155.96 44.24 7.9 192.26 7.86 213.31 155.8 66.74" style="fill: #96252c; stroke-width: 0px;"/>
      <path d="m61.29,72.79c.3.29.6.58.89.85l-5.82,5.73-34.42,33.91-5.92,5.83-2.97,2.92-4.59,4.53v-.94l4.09-4.09,2.95-2.95,5.86-5.86,34.16-34.16,5.77-5.77h0Z" style="fill: #d5d5d4; stroke-width: 0px;"/>
      <polygon points="79.86 56.23 74.09 61.92 70.67 65.29 65.72 70.16 64.79 69.28 69.71 64.36 73.12 60.96 78.85 55.22 79.86 56.23" style="fill: #d5d5d4; stroke-width: 0px;"/>
      <path d="m127.52,9.29l-3.54,3.5-3.09,3.03-5.92,5.82-26.56,26.17-5.52,5.44c-.35-.36-.69-.71-1.02-1.04l5.47-5.47,26.18-26.18,5.9-5.9,3.34-3.34,1.97-1.97,2.79-.06h0Z" style="fill: #d5d5d4; stroke-width: 0px;"/>
      <polygon points="81.56 57.95 82.52 58.91 76.8 64.59 65.32 75.98 59.16 82.07 24.79 116.15 18.86 122.04 15.95 124.92 9.75 131.06 8.17 132.63 8.18 131.07 8.96 130.29 15.14 124.12 18.05 121.23 23.97 115.32 58.23 81.2 64.05 75.4 67.58 71.88 72.44 67.04 75.84 63.64 81.56 57.95" style="fill: #d5d5d4; stroke-width: 0px;"/>
      <path d="m132.55,9.33l-3.29,3.26-2.99,2.97-2.53,2.51-5.83,5.78-26.83,26.6-5.53,5.48c-.33-.33-.65-.66-.97-.98l5.51-5.49,26.62-26.53,5.84-5.82,2.75-2.74,2.63-2.62.11-.11,2.35-2.35,2.16.02h0Z" style="fill: #d5d5d4; stroke-width: 0px;"/>
      <polygon points="84.01 60.41 85.11 61.51 79.4 67.15 74.07 72.4 62.2 84.09 27.2 118.58 21.25 124.44 18.34 127.31 12.15 133.41 8.71 136.8 8.16 137.34 8.17 136.26 8.17 135.95 11.42 132.71 17.59 126.56 20.48 123.69 26.41 117.78 60.83 83.49 69.58 74.79 78.31 66.08 84.01 60.41" style="fill: #d5d5d4; stroke-width: 0px;"/>
      <path d="m138.08,9.32l-.25.25-5.48,5.39-.94.93-2.67,2.64-1.97,1.94-5.78,5.7-27.3,26.89-5.57,5.49c-.38-.38-.75-.76-1.11-1.13l5.54-5.51,26.96-26.86,5.78-5.76,2.24-2.22,2.65-2.64.64-.64,4.58-4.56,2.09.08.59.02h0Z" style="fill: #d5d5d4; stroke-width: 0px;"/>
      <path d="m86.76,63.17l.91.92-5.68,5.61-3.38,3.34-7.96,7.85-41.03,40.48-14.83,14.63-3.45,3.4-3.19,3.15v-.9l2.73-2.71,3.43-3.42,14.92-14.89,38.3-38.24s0,0,0,0l10.11-10.09,3.46-3.46,5.66-5.65h-.01Z" style="fill: #d5d5d4; stroke-width: 0px;"/>
      <path d="m143.16,9.36l-1.24,1.23-1.25,1.23-5.43,5.36-1.5,1.48-2.69,2.65-1.42,1.41-5.72,5.64-27.63,27.26-5.6,5.52c-.31-.31-.61-.62-.93-.94l5.56-5.55,27.31-27.27,5.7-5.69,1.67-1.66,2.66-2.66,1.23-1.23,5.41-5.41,1.38-1.38.05-.11h.07l2.37.12h0Z" style="fill: #d5d5d4; stroke-width: 0px;"/>
      <polygon points="70.8 84.17 71.63 84.95 66.62 89.9 23.49 132.62 17.44 138.61 13.98 142.03 8.37 147.59 8.12 147.83 8.13 146.87 13.47 141.53 16.92 138.09 23.08 131.92 65.83 89.14 70.8 84.17" style="fill: #d5d5d4; stroke-width: 0px;"/>
      <path d="m90.16,66.6l-5.65,5.59-3.4,3.37-5.63,5.57c-.11-.12-.44-.43-.99-.66l5.77-5.77,3.37-3.37,5.62-5.64.9.91Z" style="fill: #d5d5d4; stroke-width: 0px;"/>
      <path d="m147.96,9.37l-.97.97-2.87,2.84-.77.76-5.38,5.33-2.03,2-2.7,2.67-.91.91-5.64,5.58-27.92,27.65-5.62,5.56c-.3-.3-.6-.6-.91-.92l5.57-5.58,27.62-27.64,5.64-5.64,1.15-1.14,2.68-2.68,1.76-1.77,5.37-5.37,1-1,2.56-2.56h.65s1.71.02,1.71.02h0Z" style="fill: #d5d5d4; stroke-width: 0px;"/>
      <polygon points="73.39 86.6 74.34 87.49 69.27 92.47 25.98 135.05 19.91 141.03 16.42 144.46 10.77 150.02 8.12 152.63 8.12 151.79 10.34 149.58 15.94 143.98 19.4 140.52 25.42 134.52 25.42 134.52 68.38 91.61 73.39 86.6" style="fill: #d5d5d4; stroke-width: 0px;"/>
      <polygon points="92.84 69.3 87.2 74.84 83.77 78.23 78.12 83.78 77.17 82.83 82.78 77.23 86.17 73.83 91.79 68.23 92.84 69.3" style="fill: #d5d5d4; stroke-width: 0px;"/>
      <path d="m153.47,9.66l-4.01,3.95-2.73,2.68-.19.19-5.35,5.27-2.66,2.61-2.72,2.67-.32.31-5.59,5.5-28.41,27.94-5.66,5.56c-.34-.35-.7-.71-1.08-1.1l5.6-5.59,28.01-27.97,5.58-5.57.6-.61,2.7-2.7,2.33-2.32,5.33-5.33.48-.48,2.8-2.79,2.53-2.52,2.77.28h0Z" style="fill: #d5d5d4; stroke-width: 0px;"/>
      <polygon points="76.19 89.21 77.13 90.1 72.02 95.14 28.81 137.74 22.7 143.76 19.2 147.21 13.53 152.81 10.55 155.75 8.09 158.17 8.1 157.7 10.29 155.49 13.25 152.52 18.86 146.88 22.32 143.39 28.36 137.32 71.14 94.29 76.19 89.21" style="fill: #d5d5d4; stroke-width: 0px;"/>
      <path d="m95.51,71.98l-5.6,5.52-3.46,3.42-5.64,5.56h-.01s-.93-.95-.93-.95l5.58-5.62,3.42-3.44,5.56-5.59,1.1,1.1Z" style="fill: #d5d5d4; stroke-width: 0px;"/>
      <path d="m156.06,12.28l-4.35,4.28-7.56,7.45-3.23,3.18-8.01,7.91-28.75,28.35-5.66,5.58c-.31-.31-.69-.7-1.13-1.13l5.6-5.64,28.26-28.42,5.49-5.52.08-.08,2.7-2.71,2.85-2.88,7.92-7.96,4.26-4.29.28-.12.75.73.49,1.26h0Z" style="fill: #d5d5d4; stroke-width: 0px;"/>
      <path d="m46.63,249.2l.42-.31,1.76-1.73,6.05-5.95,25.88-25.42,5.47-5.38c.08.08.91.81,1.48.31.6-.53,2.1-1.92,2.1-1.92,0,0,.56-.31-.3-1.18l-.21-.22,5.83-5.73,3.44-3.38,5.07-4.98c.38.3.97.54,1.58-.05,1.03-.99,2.13-2.36,2.13-2.36,0,0,.26-.23-.28-.96l5.77-5.67,34.51-33.91,6.25-6.14,1.94-1.9v1.37l-7.41,7.4-34.27,34.2-14.15,14.13-3.51,3.51-14.16,14.13-25.47,25.42-6.04,6.03-.71.7h-3.17s0,0,0,0Z" style="fill: #d5d5d4; stroke-width: 0px;"/>
      <path d="m41.54,249.2l.77-.76,3.62-3.56,5.99-5.87,26.25-25.77,5.51-5.4c.51.51.96.97,1.33,1.35l-5.43,5.45-25.74,25.81-5.97,5.98-2.78,2.79h-3.56Z" style="fill: #d5d5d4; stroke-width: 0px;"/>
      <path d="m36.48,249.18l3.54-3.5,3.09-3.03,5.92-5.82,26.56-26.17,5.52-5.44c.35.36.69.71,1.02,1.04l-5.47,5.47-26.18,26.18-5.9,5.9-3.34,3.34-1.97,1.97-2.79.06h0Z" style="fill: #d5d5d4; stroke-width: 0px;"/>
      <path d="m31.45,249.15l3.29-3.26,2.99-2.97,2.53-2.51,5.83-5.78,26.83-26.6,5.53-5.48c.33.33.65.66.97.98l-5.51,5.49-26.62,26.53-5.84,5.82-2.75,2.74-2.63,2.62-.11.11-2.35,2.35-2.16-.02h0Z" style="fill: #d5d5d4; stroke-width: 0px;"/>
      <path d="m25.92,249.15l.25-.25,5.48-5.39.94-.93,2.67-2.64,1.97-1.94,5.78-5.7,27.3-26.89,5.57-5.49c.38.38.75.76,1.11,1.13l-5.54,5.51-26.96,26.86-5.78,5.76-2.24,2.22-2.65,2.64-.64.64-4.58,4.56-2.09-.08-.59-.02h0Z" style="fill: #d5d5d4; stroke-width: 0px;"/>
      <path d="m20.85,249.12l1.24-1.23,1.25-1.23,5.43-5.36,1.5-1.48,2.69-2.65,1.42-1.41,5.72-5.64,27.63-27.26,5.6-5.52c.31.31.61.62.93.94l-5.56,5.55-27.31,27.27-5.7,5.69-1.67,1.66-2.66,2.66-1.23,1.23-5.41,5.41-1.38,1.38-.05.11h-.07l-2.37-.12h0Z" style="fill: #d5d5d4; stroke-width: 0px;"/>
      <path d="m16.04,249.1l.97-.97,2.87-2.84.77-.76,5.38-5.33,2.03-2,2.7-2.67.91-.91,5.64-5.58,27.92-27.65,5.62-5.56c.3.3.6.6.91.92l-5.57,5.58-27.62,27.64-5.64,5.64-1.15,1.14-2.68,2.68-1.76,1.77-5.37,5.37-1,1-2.56,2.56h-.65s-1.71-.02-1.71-.02h0Z" style="fill: #d5d5d4; stroke-width: 0px;"/>
      <path d="m10.53,248.81l4.01-3.95,2.73-2.68.19-.19,5.35-5.27,2.66-2.61,2.72-2.67.32-.31,5.59-5.5,28.41-27.94,5.66-5.56c.34.35.7.71,1.08,1.1l-5.6,5.59-28.01,27.97-5.58,5.57-.6.61-2.7,2.7-2.33,2.32-5.33,5.33-.48.48-2.8,2.79-2.53,2.52-2.77-.28h0Z" style="fill: #d5d5d4; stroke-width: 0px;"/>
      <path d="m7.95,246.19l4.35-4.28,7.56-7.45,3.23-3.18,8.01-7.91,28.75-28.35,5.66-5.58c.31.31.69.7,1.13,1.13l-5.6,5.64-28.26,28.42-5.49,5.52-.08.08-2.7,2.71-2.85,2.88-7.92,7.96-4.26,4.29-.28.12-.75-.73-.49-1.26h0Z" style="fill: #d5d5d4; stroke-width: 0px;"/>
      <polygon points="156.05 14.5 8.08 162.71 8.08 163.51 156.16 18.09 156.05 14.5" style="fill: #d5d5d4; stroke-width: 0px;"/>
      <polygon points="156.15 19.86 8.07 167.73 8.07 168.49 156.09 23.3 156.15 19.86" style="fill: #d5d5d4; stroke-width: 0px;"/>
      <polygon points="156.02 24.92 8.05 173.41 8.05 174.49 156.13 27.61 156.02 24.92" style="fill: #d5d5d4; stroke-width: 0px;"/>
      <polygon points="156.08 33.83 156.12 29.59 8.04 178.41 8.04 179.45 156.08 33.83" style="fill: #d5d5d4; stroke-width: 0px;"/>
      <polygon points="156.11 35.52 8.03 183.74 8.03 185.07 156.06 38.9 156.11 35.52" style="fill: #d5d5d4; stroke-width: 0px;"/>
      <polygon points="156.09 40.79 8 188.97 8.01 190.05 156.08 43.71 156.09 40.79" style="fill: #d5d5d4; stroke-width: 0px;"/>
      <polygon points="155.21 241.04 147.5 249.28 150 249.25 155.2 243.41 155.21 241.04" style="fill: #d5d5d4; stroke-width: 0px;"/>
      <polyline points="144.87 249.27 155.22 238.89 155.22 235.66 142.04 249.26" style="fill: #d5d5d4; stroke-width: 0px;"/>
      <polygon points="155.24 230.59 136.66 249.25 139.45 249.26 155.23 233.25 155.24 230.59" style="fill: #d5d5d4; stroke-width: 0px;"/>
      <polygon points="155.26 224.99 131.46 249.23 134.53 249.24 155.25 228.7 155.26 224.99" style="fill: #d5d5d4; stroke-width: 0px;"/>
      <polygon points="155.27 220.03 126.54 249.22 128.83 249.23 155.26 222.99 155.27 220.03" style="fill: #d5d5d4; stroke-width: 0px;"/>
      <polygon points="155.28 217.94 155.29 214.49 121.32 249.2 123.87 249.21 155.28 217.94" style="fill: #d5d5d4; stroke-width: 0px;"/>
      <polygon points="141.05 226.47 139.76 225.21 155.31 209.57 155.3 212.54 141.05 226.47" style="fill: #d5d5d4; stroke-width: 0px;"/>
      <g>
        <polygon points="129.5 230.46 111.13 249.17 112.87 249.41 130.7 231.67 129.5 230.46" style="fill: #d5d5d4; stroke-width: 0px;"/>
        <polygon points="138.47 223.93 155.31 207.17 155.32 204.14 137.17 222.64 138.47 223.93" style="fill: #d5d5d4; stroke-width: 0px;"/>
      </g>
      <g>
        <polygon points="126.82 227.75 105.83 249.16 107.62 249.16 128.08 229.01 126.82 227.75" style="fill: #d5d5d4; stroke-width: 0px;"/>
        <polygon points="135.86 221.35 155.33 202.18 155.34 198.65 134.45 219.96 135.86 221.35" style="fill: #d5d5d4; stroke-width: 0px;"/>
      </g>
      <polygon points="155.34 196.79 155.35 193.34 100.63 249.14 102.31 249.14 155.34 196.79" style="fill: #d5d5d4; stroke-width: 0px;"/>
      <polygon points="155.37 186.44 155.38 183.37 89.94 249.11 91.72 249.17 155.37 186.44" style="fill: #d5d5d4; stroke-width: 0px;"/>
      <polygon points="155.39 180.97 155.35 177.56 84.77 249.09 86.58 249.1 155.39 180.97" style="fill: #d5d5d4; stroke-width: 0px;"/>
      <polygon points="155.41 176.09 155.42 172.66 79.94 249.07 80.95 249.08 155.41 176.09" style="fill: #d5d5d4; stroke-width: 0px;"/>
      <polygon points="155.42 170.4 155.43 167.05 74.32 249.11 75.32 249.12 155.42 170.4" style="fill: #d5d5d4; stroke-width: 0px;"/>
      <polygon points="155.44 165.28 155.39 162 69.25 249.22 70.78 249.22 155.44 165.28" style="fill: #d5d5d4; stroke-width: 0px;"/>
      <polygon points="155.46 159.93 155.47 156.86 63.77 249.2 64.83 249.27 155.46 159.93" style="fill: #d5d5d4; stroke-width: 0px;"/>
      <polygon points="61.44 249.19 57.32 249.24 155.75 152.36 155.74 153.7 61.44 249.19" style="fill: #d5d5d4; stroke-width: 0px;"/>
      <polygon points="55.45 248.92 155.76 148.92 155.76 147.74 52.6 248.91 55.45 248.92" style="fill: #d5d5d4; stroke-width: 0px;"/>
      <path d="m46.63,249.2l.42-.31,1.76-1.73,6.05-5.95,25.88-25.42,5.47-5.38c.08.08.91.81,1.48.31.6-.53,2.1-1.92,2.1-1.92,0,0,.56-.31-.3-1.18l-.21-.22,5.83-5.73,3.44-3.38,5.07-4.98c.38.3.97.54,1.58-.05,1.03-.99,2.13-2.36,2.13-2.36,0,0,.26-.23-.28-.96l5.77-5.67,34.51-33.91,6.25-6.14,1.94-1.9v1.37l-7.41,7.4-34.27,34.2-14.15,14.13-3.51,3.51-14.16,14.13-25.47,25.42-6.04,6.03-.71.7h-3.17s0,0,0,0Z" style="fill: #d5d5d4; stroke-width: 0px;"/>
      <path d="m105.67,188.49c-.33-.32-.72-.7-1.14-1.1l5.77-5.67,34.48-33.83,5.86-5.76,3.02-2.97,1.86-1.83v1.16l-1.26,1.26-3.01,3.02-5.77,5.79-34.12,34.21-5.69,5.71h0Z" style="fill: #d5d5d4; stroke-width: 0px;"/>
      <path d="m102.72,185.68c-.3-.29-.6-.58-.89-.85l5.82-5.73,34.42-33.91,5.92-5.83,2.97-2.92,4.59-4.53v.94l-4.09,4.09-2.95,2.95-5.86,5.86-34.16,34.16-5.77,5.77h0Z" style="fill: #d5d5d4; stroke-width: 0px;"/>
      <polygon points="82.44 200.53 81.48 199.56 87.2 193.88 98.68 182.5 104.84 176.4 139.21 142.33 145.15 136.43 148.06 133.56 154.26 127.41 155.83 125.85 155.83 127.4 155.04 128.19 148.86 134.35 145.95 137.25 140.03 143.15 105.77 177.28 99.96 183.07 96.43 186.59 91.56 191.44 88.16 194.83 82.44 200.53" style="fill: #d5d5d4; stroke-width: 0px;"/>
      <polygon points="79.99 198.06 78.89 196.96 84.6 191.32 89.93 186.07 101.8 174.39 136.8 139.9 142.76 134.03 145.67 131.16 151.86 125.06 155.29 121.68 155.85 121.13 155.83 122.22 155.83 122.52 152.58 125.77 146.41 131.91 143.53 134.78 137.59 140.69 103.17 174.98 94.43 183.69 85.69 192.39 79.99 198.06" style="fill: #d5d5d4; stroke-width: 0px;"/>
      <path d="m77.25,195.3l-.91-.92,5.68-5.61,3.38-3.34,7.96-7.85,41.03-40.48,14.83-14.63,3.45-3.4,3.19-3.15v.9l-2.73,2.71-3.43,3.42-14.92,14.89-38.3,38.24s0,0,0,0l-10.11,10.09-3.46,3.46-5.66,5.65h.01Z" style="fill: #d5d5d4; stroke-width: 0px;"/>
      <polygon points="93.21 174.3 92.37 173.52 97.38 168.57 140.51 125.86 146.56 119.87 150.02 116.44 155.63 110.89 155.88 110.64 155.87 111.6 150.53 116.95 147.09 120.38 140.93 126.55 98.17 169.34 93.21 174.3" style="fill: #d5d5d4; stroke-width: 0px;"/>
      <polygon points="90.61 171.87 89.66 170.98 94.73 166 138.02 123.42 144.09 117.44 147.58 114.01 153.23 108.45 155.89 105.84 155.88 106.68 153.67 108.9 148.06 114.5 144.6 117.95 138.59 123.96 138.58 123.96 95.62 166.86 90.61 171.87" style="fill: #d5d5d4; stroke-width: 0px;"/>
      <polygon points="87.82 169.26 86.87 168.37 91.98 163.34 135.19 120.74 141.3 114.71 144.8 111.26 150.47 105.67 153.46 102.73 155.91 100.31 155.91 100.77 153.71 102.98 150.76 105.96 145.15 111.59 141.68 115.08 135.64 121.15 92.86 164.19 87.82 169.26" style="fill: #d5d5d4; stroke-width: 0px;"/>
      <polygon points="7.96 243.98 155.92 95.77 155.92 94.97 7.84 240.39 7.96 243.98" style="fill: #d5d5d4; stroke-width: 0px;"/>
      <polygon points="7.85 238.61 155.93 90.75 155.93 89.99 7.91 235.17 7.85 238.61" style="fill: #d5d5d4; stroke-width: 0px;"/>
      <polygon points="7.99 233.55 155.95 85.06 155.96 83.98 7.87 230.86 7.99 233.55" style="fill: #d5d5d4; stroke-width: 0px;"/>
      <polygon points="7.92 224.64 7.88 228.88 155.96 80.06 155.96 79.02 7.92 224.64" style="fill: #d5d5d4; stroke-width: 0px;"/>
      <polygon points="7.9 222.96 155.97 74.73 155.98 73.4 7.94 219.57 7.9 222.96" style="fill: #d5d5d4; stroke-width: 0px;"/>
      <polygon points="7.91 217.69 156 69.5 155.99 68.42 7.92 214.76 7.91 217.69" style="fill: #d5d5d4; stroke-width: 0px;"/>
      <path d="m94.6,125.14l9.14-9.45-1.69-1.61-5.49,6.06s-.53-.65-.02-1.69c.51-1.04,2.08-5.83,2.08-5.83,0,0,.41-1.28-.72-2.28s-2.36-2.23-2.36-2.23l-7.62,7.33s-1.03.83.22,2.08,1.77.79,1.77.79l1.67-1.7-.37-1.68,3.14-3.05s1.83-.57,1.41,1.37c-.42,1.95-2.55,8.5-2.55,8.5,0,0-.95.97-.26,1.71s1.65,1.67,1.65,1.67h0Z" style="fill: #f7f8f8; stroke-width: 0px;"/>
      <path d="m113.13,104.43l-6.12-6.16c-.81-.82-1.44-.5-1.44-.5,0,0-6.29,6.29-7.34,7.45s-.54,1.53-.54,1.53c0,0,5.08,5.46,6.22,6.51s1.92.17,1.92.17c0,0,6.65-6.45,7.42-7.37.68-.82-.11-1.62-.11-1.62h0Zm-3.98,1.83s-2,1.97-2.78,2.73c-.78.76-1.33.15-1.33.15l-3.24-2.9c-.78-.7-.34-1.15-.34-1.15,0,0,2.84-2.94,3.26-3.45.42-.51.94.16.94.16,0,0,2.54,2.4,3.28,3.1s.2,1.36.2,1.36Z" style="fill: #f7f8f8; stroke-width: 0px;"/>
      <path d="m115.32,104.21l9.14-9.45-1.69-1.61-5.49,6.06s-.53-.65-.02-1.69,2.08-5.83,2.08-5.83c0,0,.41-1.28-.72-2.28s-2.36-2.23-2.36-2.23l-7.62,7.33s-1.03.83.22,2.08c1.25,1.25,1.77.79,1.77.79l1.67-1.7-.37-1.68,3.14-3.05s1.83-.57,1.41,1.37c-.42,1.95-2.55,8.5-2.55,8.5,0,0-.95.97-.26,1.71s1.65,1.67,1.65,1.67h0Z" style="fill: #f7f8f8; stroke-width: 0px;"/>
      <path d="m120.85,87.19l1.68-1.76s-.8-.8,0-1.7c.8-.89,2.17-2.28,2.17-2.28,0,0,.65-.65,1.48,0s.74,1.11.21,1.82-1.64,1.39-.84,2.33c.8.95,1.74-.13,1.74-.13l1.33-1.28s.19-.91,1.51,0,.27,1.9,0,2.15-3.16,3.36-3.16,3.36h-.83l-.99-.22-1.39,1.32s-.9.52.03,1.45c.92.93,1.23,1.09,1.23,1.09,0,0,.65.62,1.7-.4s7.81-7.76,7.81-7.76c0,0,.28-1.08-.49-1.83s-3.57-3.29-3.57-3.29l-1.51.18-2.22-2.23s-.74-.59-1.33,0-6.36,6.32-6.36,6.32c0,0-.59.77,0,1.48.59.71,1.44,1.77,1.82,1.37h0Z" style="fill: #f7f8f8; stroke-width: 0px;"/>
      <path d="m135.03,75.1l-.63.72s-.6.53-.14.97,1.81-.7,1.81-.7l19.85-20.03v-1.44l-20.89,20.47h0Z" style="fill: #fbf6f8; stroke-width: 0px;"/>
      <polygon points="63.81 111.39 42.67 95.16 59.77 115.51 52.8 122.58 20.09 98.02 26.14 91.9 52.34 112.6 31.27 87.22 37.31 81.04 62.76 101.23 41.91 76.51 45.8 72.65 69.88 104.46 63.81 111.39" style="fill: #1c1e1e; stroke-width: 0px;"/>
      <path d="m88.73,87.19s0,0,0,.01c-.1.18-.22.35-.35.52-1.45,1.7-11.81,11.83-11.81,11.83l-.11-.1-1.58-1.54-1.07-1.04-1.78-1.74-.88-.85-1.87-1.81-.89-.87-1.75-1.71-.79-.77-.04-.04,5-4.92.84.78,1.76,1.65.95.89,1.84,1.72.95.89.51.47s.69.85,1.82.63h0c.46-.08.98-.34,1.57-.89.55-.52.79-1.04.84-1.52.13-1.23-.94-2.21-1.07-2.32h-.01s-5.26-5.3-5.26-5.3c0,0-.01-.02-.05-.05-.11-.12-.44-.43-.99-.66-.78-.32-2.01-.48-3.7.35-.05.02-.09.05-.14.07h0c-1.14.57-2.21,1.07-3.12,1.5-.61.28-.61.28,0,0,.9-.43,0,0,0,0-1.57.73-2.63,1.21-2.63,1.21,0,0-1.14.83-2.68.49-.43-.09-.89-.27-1.37-.59-.12-.08-.24-.17-.37-.27-.33-.27-.78-.66-1.3-1.15-.29-.27-.6-.57-.93-.88-.58-.55-1.22-1.17-1.87-1.82-.28-.27-.56-.54-.84-.82-.61-.61-1.23-1.22-1.81-1.81-.37-.37-.72-.72-1.06-1.06-.55-.55-1.05-1.06-1.47-1.48-.44-.45-.79-.81-1.01-1.02-.16-.17-.24-.25-.24-.25,0,0-.34-1.55-.13-2.95.1-.69.33-1.35.8-1.78l11.44-11.38.59.58,1.69,1.65,1.14,1.12,1.34,1.32,1.22,1.2,1.69,1.66.95.93,1.77,1.75.2.19-4.94,4.76-.12-.11-1.85-1.73-.93-.87-1.79-1.66-1.2-1.11-.99-.92s-.16-.23-.43-.43c-.38-.3-.97-.54-1.58.05-1.03.99-2.13,2.36-2.13,2.36,0,0-.26.23.28.96.13.18.31.39.55.63.18.18.47.47.84.82.33.32.72.7,1.14,1.1.57.54,1.19,1.13,1.81,1.71.3.29.6.58.89.85.74.7,1.41,1.32,1.87,1.76.4.38.65.61.65.61l.63-.04,2.3-.15,1.95-1.04,4.49-2.39h0s.06-.04.06-.04c0,0,1.83-.93,3.49-.07.28.14.55.33.81.59.05.05.11.11.17.17.38.38.96.97,1.65,1.66.26.27.55.56.85.86.53.52,1.09,1.09,1.66,1.67l2.66,2.68c.35.35.69.7,1,1.02.66.66,1.23,1.23,1.64,1.65l.7.71s.11.3.21.75h0c.17.8.29,2.08-.28,3.15h0Z" style="fill: #1d1f1f; stroke-width: 0px;"/>
      <path d="m81.56,57.95l-1.7-1.71-1-1.01-4.13-4.15-5.83,5.73,1.3,1.29,1.26,1.23,1.65,1.63.97.96,1.75,1.73.96.95,5.72-5.67-.97-.97h0Zm.97.97l-.97-.97-1.7-1.71-1-1.01-4.13-4.15-5.83,5.73,1.3,1.29,1.26,1.23,1.65,1.63.97.96,1.75,1.73.96.95,1.51,1.49,5.7-5.67-1.49-1.5h0Zm10.02-7.01l-1.48-1.46-5.53,5.48c.47.49.97.98,1.47,1.49.37.37.74.75,1.11,1.13l5.57-5.49-1.15-1.15h0Zm-7.44,9.61l-1.1-1.1-1.49-1.5-.97-.97-1.7-1.71-1-1.01-4.13-4.15-5.83,5.73,1.3,1.29,1.26,1.23,1.65,1.63.97.96,1.75,1.73.96.95,1.51,1.49,1.08,1.07,1.7,1.67.89.88,5.68-5.61-2.56-2.58h0Zm13.66-3.43l-.95-.94-1.54-1.54-.97-.97-1.61-1.59-1.15-1.15-1.48-1.46-5.53,5.48c.47.49.97.98,1.47,1.49.37.37.74.75,1.11,1.13.53.55,1.08,1.1,1.62,1.65.31.32.62.63.93.94.53.54,1.06,1.07,1.57,1.59.31.32.61.62.91.92.56.57,1.1,1.11,1.61,1.62l5.6-5.59-1.59-1.59h0Zm-13.66,3.43l-1.1-1.1-1.49-1.5-.97-.97-1.7-1.71-1-1.01-4.13-4.15-5.83,5.73,1.3,1.29,1.26,1.23,1.65,1.63.97.96,1.75,1.73.96.95,1.51,1.49,1.08,1.07,1.7,1.67.89.88,1.65,1.63.87.86,1.66,1.64,1.03,1.01,5.64-5.54-7.73-7.78h0Zm16.38-.72l-1.13-1.12-1.59-1.59-.95-.94-1.54-1.54-.97-.97-1.61-1.59-1.15-1.15-1.48-1.46-5.53,5.48c.47.49.97.98,1.47,1.49.37.37.74.75,1.11,1.13.53.55,1.08,1.1,1.62,1.65.31.32.62.63.93.94.53.54,1.06,1.07,1.57,1.59.31.32.61.62.91.92.56.57,1.1,1.11,1.61,1.62.38.39.74.75,1.08,1.1.56.57,1.08,1.09,1.53,1.55l5.6-5.64-1.48-1.48h0Zm-7.08,10.08l-9.31-9.36-1.1-1.1-1.49-1.5-.97-.97-1.7-1.71-1-1.01-4.13-4.15-5.83,5.73,1.3,1.29,1.26,1.23,1.65,1.63.97.96,1.75,1.73.96.95,1.51,1.49,1.08,1.07,1.7,1.67.89.88,1.65,1.63.87.86,1.66,1.64,1.03,1.01,1.65,1.63,1.05,1.04,5.6-5.52-1.1-1.1h0Zm2.23,2.25l-1.13-1.14-1.1-1.1-9.31-9.36-1.1-1.1-1.49-1.5-.97-.97-1.7-1.71-1-1.01-4.13-4.15-5.83,5.73,1.3,1.29,1.26,1.23,1.65,1.63.97.96,1.75,1.73.96.95,1.51,1.49,1.08,1.07,1.7,1.67.89.88,1.65,1.63.87.86,1.66,1.64,1.03,1.01,1.65,1.63,1.05,1.04,1.63,1.61,5.82-5.83c-.41-.04-.71-.16-.71-.16h0Zm4.85-12.33l-1.13-1.12-1.59-1.59-.95-.94-1.54-1.54-.97-.97-1.61-1.59-1.15-1.15-1.48-1.46-5.53,5.48c.47.49.97.98,1.47,1.49.37.37.74.75,1.11,1.13.53.55,1.08,1.1,1.62,1.65.31.32.62.63.93.94.53.54,1.06,1.07,1.57,1.59.31.32.61.62.91.92.56.57,1.1,1.11,1.61,1.62.38.39.74.75,1.08,1.1.56.57,1.08,1.09,1.53,1.55l5.6-5.64-1.48-1.48h0Zm-4.85,12.33l-1.13-1.14-1.1-1.1-9.31-9.36-1.1-1.1-1.49-1.5-.97-.97-1.7-1.71-1-1.01-4.13-4.15-5.83,5.73,1.3,1.29,1.26,1.23,1.65,1.63.97.96,1.75,1.73.96.95,1.51,1.49,1.08,1.07,1.7,1.67.89.88,1.65,1.63.87.86,1.66,1.64,1.03,1.01,1.65,1.63,1.05,1.04,1.63,1.61,5.82-5.83c-.41-.04-.71-.16-.71-.16h0Zm4.85-12.33l-1.13-1.12-1.59-1.59-.95-.94-1.54-1.54-.97-.97-1.61-1.59-1.15-1.15-1.48-1.46-5.53,5.48c.47.49.97.98,1.47,1.49.37.37.74.75,1.11,1.13.53.55,1.08,1.1,1.62,1.65.31.32.62.63.93.94.53.54,1.06,1.07,1.57,1.59.31.32.61.62.91.92.56.57,1.1,1.11,1.61,1.62.38.39.74.75,1.08,1.1.56.57,1.08,1.09,1.53,1.55l5.6-5.64-1.48-1.48h0Zm-5.98,11.19l-1.1-1.1-9.31-9.36-1.1-1.1-1.49-1.5-.97-.97-1.7-1.71-1-1.01-4.13-4.15-5.83,5.73,1.3,1.29,1.26,1.23,1.65,1.63.97.96,1.75,1.73.96.95,1.51,1.49,1.08,1.07,1.7,1.67.89.88,1.65,1.63.87.86,1.66,1.64,1.03,1.01,1.65,1.63,1.05,1.04,1.63,1.61,5.82-5.83c-.41-.04-.71-.16-.71-.16l-1.13-1.14h0Zm-7.38-13.43c.53.55,1.08,1.1,1.62,1.65.31.32.62.63.93.94.53.54,1.06,1.07,1.57,1.59.31.32.61.62.91.92.56.57,1.1,1.11,1.61,1.62.38.39.74.75,1.08,1.1.56.57,1.08,1.09,1.53,1.55l5.6-5.64-1.48-1.48-1.13-1.12-1.59-1.59-.95-.94-1.54-1.54-.97-.97-1.61-1.59-1.15-1.15-1.48-1.46-5.53,5.48c.47.49.97.98,1.47,1.49.37.37.74.75,1.11,1.13h0Zm18.36,8.32h0c-.27-.83-.66-1.55-.85-1.88-.07-.12-.12-.2-.12-.2l-1.36-1.35-1.19-1.18-1.48-1.48-1.13-1.12-1.59-1.59-.95-.94-1.54-1.54-.97-.97-1.61-1.59-1.15-1.15-1.48-1.46-.99-.98-1.67-1.65-1.08-1.07-1.51-1.51-1.4-1.39-1.16-1.16-1.27-1.26-.39-.39c-.57-.36-1.2-.48-1.79-.48-1.06,0-1.95.39-1.95.39,0,0-8.64,8.69-10.16,10.51-.39.47-.55.99-.57,1.53h0c-.04,1,.39,1.99.71,2.56.18.32.31.51.31.51l.76.74,1.3,1.29,1.26,1.23,1.65,1.63.97.96,1.75,1.73.96.95,1.51,1.49,1.08,1.07,1.7,1.67.89.88,1.65,1.63.87.86,1.66,1.64,1.03,1.01,1.65,1.63,1.05,1.04,1.63,1.61.76.74s.22.17.65.31h0c.53.16,1.37.27,2.49-.06.2-.06.45-.19.74-.37h0c2.72-1.74,9.02-8.48,10.17-9.95.11-.14.2-.3.26-.46h0c.28-.73.14-1.64-.14-2.45h0Zm-9.84,6.25l-1.13-1.14-1.1-1.1-9.31-9.36-1.1-1.1-1.49-1.5-.97-.97-1.7-1.71-1-1.01-4.34-4.37c-.86-.87-.3-1.18-.3-1.18,0,0,1.5-1.39,2.1-1.92.57-.5,1.4.23,1.48.31h0s.44.45,1.19,1.22c.37.37.82.83,1.33,1.35.47.48.99,1.01,1.55,1.58.33.33.66.67,1.02,1.04.54.54,1.1,1.11,1.68,1.71.32.32.64.65.97.98.47.49.97.98,1.47,1.49.37.37.74.75,1.11,1.13.53.55,1.08,1.1,1.62,1.65.31.32.62.63.93.94.53.54,1.06,1.07,1.57,1.59.31.32.61.62.91.92.56.57,1.1,1.11,1.61,1.62.38.39.74.75,1.08,1.1.56.57,1.08,1.09,1.53,1.55.44.43.82.82,1.13,1.13.56.56.91.91,1,.99.24.22.35.48.37.75.04.67-.5,1.43-1.1,2.04-.43.44-.98.51-1.41.47-.41-.04-.71-.16-.71-.16h0Zm4.85-12.33l-1.13-1.12-1.59-1.59-.95-.94-1.54-1.54-.97-.97-1.61-1.59-1.15-1.15-1.48-1.46-5.53,5.48c.47.49.97.98,1.47,1.49.37.37.74.75,1.11,1.13.53.55,1.08,1.1,1.62,1.65.31.32.62.63.93.94.53.54,1.06,1.07,1.57,1.59.31.32.61.62.91.92.56.57,1.1,1.11,1.61,1.62.38.39.74.75,1.08,1.1.56.57,1.08,1.09,1.53,1.55l5.6-5.64-1.48-1.48h0Zm-4.85,12.33l-1.13-1.14-1.1-1.1-9.31-9.36-1.1-1.1-1.49-1.5-.97-.97-1.7-1.71-1-1.01-4.13-4.15-5.83,5.73,1.3,1.29,1.26,1.23,1.65,1.63.97.96,1.75,1.73.96.95,1.51,1.49,1.08,1.07,1.7,1.67.89.88,1.65,1.63.87.86,1.66,1.64,1.03,1.01,1.65,1.63,1.05,1.04,1.63,1.61,5.82-5.83c-.41-.04-.71-.16-.71-.16h0Zm4.85-12.33l-1.13-1.12-1.59-1.59-.95-.94-1.54-1.54-.97-.97-1.61-1.59-1.15-1.15-1.48-1.46-5.53,5.48c.47.49.97.98,1.47,1.49.37.37.74.75,1.11,1.13.53.55,1.08,1.1,1.62,1.65.31.32.62.63.93.94.53.54,1.06,1.07,1.57,1.59.31.32.61.62.91.92.56.57,1.1,1.11,1.61,1.62.38.39.74.75,1.08,1.1.56.57,1.08,1.09,1.53,1.55l5.6-5.64-1.48-1.48h0Zm-4.85,12.33l-1.13-1.14-1.1-1.1-9.31-9.36-1.1-1.1-1.49-1.5-.97-.97-1.7-1.71-1-1.01-4.13-4.15-5.83,5.73,1.3,1.29,1.26,1.23,1.65,1.63.97.96,1.75,1.73.96.95,1.51,1.49,1.08,1.07,1.7,1.67.89.88,1.65,1.63.87.86,1.66,1.64,1.03,1.01,1.65,1.63,1.05,1.04,1.63,1.61,5.82-5.83c-.41-.04-.71-.16-.71-.16h0Zm4.85-12.33l-1.13-1.12-1.59-1.59-.95-.94-1.54-1.54-.97-.97-1.61-1.59-1.15-1.15-1.48-1.46-5.53,5.48c.47.49.97.98,1.47,1.49.37.37.74.75,1.11,1.13.53.55,1.08,1.1,1.62,1.65.31.32.62.63.93.94.53.54,1.06,1.07,1.57,1.59.31.32.61.62.91.92.56.57,1.1,1.11,1.61,1.62.38.39.74.75,1.08,1.1.56.57,1.08,1.09,1.53,1.55l5.6-5.64-1.48-1.48h0Zm-4.85,12.33l-1.13-1.14-1.1-1.1-9.31-9.36-1.1-1.1-1.49-1.5-.97-.97-1.7-1.71-1-1.01-4.13-4.15-5.83,5.73,1.3,1.29,1.26,1.23,1.65,1.63.97.96,1.75,1.73.96.95,1.51,1.49,1.08,1.07,1.7,1.67.89.88,1.65,1.63.87.86,1.66,1.64,1.03,1.01,1.65,1.63,1.05,1.04,1.63,1.61,5.82-5.83c-.41-.04-.71-.16-.71-.16h0Zm-11.54-11.61l-1.1-1.1-1.49-1.5-.97-.97-1.7-1.71-1-1.01-4.13-4.15-5.83,5.73,1.3,1.29,1.26,1.23,1.65,1.63.97.96,1.75,1.73.96.95,1.51,1.49,1.08,1.07,1.7,1.67.89.88,1.65,1.63.87.86,1.66,1.64,1.03,1.01,1.65,1.63,5.56-5.59-9.31-9.36h0Zm15.25-1.84l-1.59-1.59-.95-.94-1.54-1.54-.97-.97-1.61-1.59-1.15-1.15-1.48-1.46-5.53,5.48c.47.49.97.98,1.47,1.49.37.37.74.75,1.11,1.13.53.55,1.08,1.1,1.62,1.65.31.32.62.63.93.94.53.54,1.06,1.07,1.57,1.59.31.32.61.62.91.92.56.57,1.1,1.11,1.61,1.62.38.39.74.75,1.08,1.1l5.66-5.56-1.13-1.12h0Zm-15.25,1.84l-1.1-1.1-1.49-1.5-.97-.97-1.7-1.71-1-1.01-4.13-4.15-5.83,5.73,1.3,1.29,1.26,1.23,1.65,1.63.97.96,1.75,1.73.96.95,1.51,1.49,1.08,1.07,1.7,1.67.89.88,1.65,1.63.87.86,1.66,1.64,5.61-5.6-6.68-6.72h0Zm12.71-4.37l-1.54-1.54-.97-.97-1.61-1.59-1.15-1.15-1.48-1.46-5.53,5.48c.47.49.97.98,1.47,1.49.37.37.74.75,1.11,1.13.53.55,1.08,1.1,1.62,1.65.31.32.62.63.93.94.53.54,1.06,1.07,1.57,1.59.31.32.61.62.91.92l5.62-5.56-.95-.94h0Zm-13.8,3.27l-1.49-1.5-.97-.97-1.7-1.71-1-1.01-4.13-4.15-5.83,5.73,1.3,1.29,1.26,1.23,1.65,1.63.97.96,1.75,1.73.96.95,1.51,1.49,1.08,1.07,5.71-5.64-1.1-1.1h0Zm-1.49-1.5l-.97-.97-1.7-1.71-1-1.01-4.13-4.15-5.83,5.73,1.3,1.29,1.26,1.23,1.65,1.63.97.96,1.75,1.73.96.95,1.51,1.49,5.7-5.67-1.49-1.5h0Z" style="fill: #1c1d1d; stroke-width: 0px;"/>
      <path d="m108.3,48.71c-1.26-1.29-.26-1.71-.26-1.71,0,0,5.43-5.42,6.38-6.63.94-1.21-.48-3.76-.48-3.76,0,0-11.99-12.19-13.83-13.7-1.84-1.5-3.71-.08-3.71-.08l-13.53,12.84,29.64,29.06,5.94-6.35s-8.88-8.37-10.14-9.66h0Zm-1.45-5.7l-2.03,2.06-11.95-11.96-.6-.65s1.09-1.13,2.1-2.01c1.02-.89,2.29.39,2.29.39,0,0,7.7,8.11,9.27,9.54,1.56,1.42.93,2.62.93,2.62h0Z" style="fill: #1c1d1d; stroke-width: 0px;"/>
      <path d="m21.24,149.52c-.2-.38-.34-.62-.34-.62l-1.7-1.69-.34-.33-2.43-2.42-5.65,5.56c.96.97,1.81,1.82,2.47,2.49.1.1.2.2.29.29.75.75,1.23,1.23,1.34,1.32.5.45.44,1.04.13,1.63l6.23-6.23h0Zm0,0c-.2-.38-.34-.62-.34-.62l-1.7-1.69-.34-.33-2.43-2.42-5.65,5.56c.96.97,1.81,1.82,2.47,2.49.1.1.2.2.29.29.75.75,1.23,1.23,1.34,1.32.5.45.44,1.04.13,1.63l6.23-6.23h0Zm0,0c-.2-.38-.34-.62-.34-.62l-1.7-1.69-.34-.33-2.43-2.42-5.65,5.56c.96.97,1.81,1.82,2.47,2.49.1.1.2.2.29.29.75.75,1.23,1.23,1.34,1.32.5.45.44,1.04.13,1.63l6.23-6.23h0Zm0,0c-.2-.38-.34-.62-.34-.62l-1.7-1.69-.34-.33-2.43-2.42-5.65,5.56c.96.97,1.81,1.82,2.47,2.49.1.1.2.2.29.29.75.75,1.23,1.23,1.34,1.32.5.45.44,1.04.13,1.63l6.23-6.23h0Zm0,0c-.2-.38-.34-.62-.34-.62l-1.7-1.69-.34-.33-2.43-2.42-5.65,5.56c.96.97,1.81,1.82,2.47,2.49.1.1.2.2.29.29.75.75,1.23,1.23,1.34,1.32.5.45.44,1.04.13,1.63l6.23-6.23h0Zm0,0c-.2-.38-.34-.62-.34-.62l-1.7-1.69-.34-.33-2.43-2.42-5.65,5.56c.96.97,1.81,1.82,2.47,2.49.1.1.2.2.29.29.75.75,1.23,1.23,1.34,1.32.5.45.44,1.04.13,1.63l6.23-6.23h0Zm0,0c-.2-.38-.34-.62-.34-.62l-1.7-1.69-.34-.33-2.43-2.42-5.65,5.56c.96.97,1.81,1.82,2.47,2.49.1.1.2.2.29.29.75.75,1.23,1.23,1.34,1.32.5.45.44,1.04.13,1.63l6.23-6.23h0Zm0,0c-.2-.38-.34-.62-.34-.62l-1.7-1.69-.34-.33-2.43-2.42-5.65,5.56c.96.97,1.81,1.82,2.47,2.49.1.1.2.2.29.29.75.75,1.23,1.23,1.34,1.32.5.45.44,1.04.13,1.63l6.23-6.23h0Zm.34.72c-.12-.27-.24-.52-.34-.72-.2-.38-.34-.62-.34-.62l-1.7-1.69-.34-.33-2.43-2.42-.48-.48-1.96-1.95-.51-.51-2.13-2.12-.47-.47-2.16-2.15-.54-.54-.04,11.1.24.24c.69.7,1.35,1.36,1.97,1.99.15.15.3.3.44.45.96.97,1.81,1.82,2.47,2.49.1.1.2.2.29.29.75.75,1.23,1.23,1.34,1.32.5.45.44,1.04.13,1.63,0,0,0,0,0,.01-.2.4-.53.8-.86,1.14-.21.21-.45.34-.68.4h0c-.71.21-1.43-.09-1.43-.09l-1.47-1.48-.25-.26-2.17-2.19c-.02,3.66-.03,7.29-.03,10.87.5.2,1.42.42,2.73.04.54-.15,1.47-.83,2.57-1.78h0s0-.01,0-.01h0s0-.01,0-.01l.02-.02h0s0-.01,0-.01h0s.02-.03.02-.03h0c2.29-1.99,5.26-5.06,7.01-7.01h0c.58-.65,1.02-1.15,1.25-1.44.76-.96.32-2.52-.16-3.64h0Zm-.34-.72c-.2-.38-.34-.62-.34-.62l-1.7-1.69-.34-.33-2.43-2.42-5.65,5.56c.96.97,1.81,1.82,2.47,2.49.1.1.2.2.29.29.75.75,1.23,1.23,1.34,1.32.5.45.44,1.04.13,1.63l6.23-6.23h0Zm0,0c-.2-.38-.34-.62-.34-.62l-1.7-1.69-.34-.33-2.43-2.42-5.65,5.56c.96.97,1.81,1.82,2.47,2.49.1.1.2.2.29.29.75.75,1.23,1.23,1.34,1.32.5.45.44,1.04.13,1.63l6.23-6.23h0Zm0,0c-.2-.38-.34-.62-.34-.62l-1.7-1.69-.34-.33-2.43-2.42-5.65,5.56c.96.97,1.81,1.82,2.47,2.49.1.1.2.2.29.29.75.75,1.23,1.23,1.34,1.32.5.45.44,1.04.13,1.63l6.23-6.23h0Zm0,0c-.2-.38-.34-.62-.34-.62l-1.7-1.69-.34-.33-2.43-2.42-5.65,5.56c.96.97,1.81,1.82,2.47,2.49.1.1.2.2.29.29.75.75,1.23,1.23,1.34,1.32.5.45.44,1.04.13,1.63l6.23-6.23h0Zm0,0c-.2-.38-.34-.62-.34-.62l-1.7-1.69-.34-.33-2.43-2.42-5.65,5.56c.96.97,1.81,1.82,2.47,2.49.1.1.2.2.29.29.75.75,1.23,1.23,1.34,1.32.5.45.44,1.04.13,1.63l6.23-6.23h0Zm0,0c-.2-.38-.34-.62-.34-.62l-1.7-1.69-.34-.33-2.43-2.42-5.65,5.56c.96.97,1.81,1.82,2.47,2.49.1.1.2.2.29.29.75.75,1.23,1.23,1.34,1.32.5.45.44,1.04.13,1.63l6.23-6.23h0Zm0,0c-.2-.38-.34-.62-.34-.62l-1.7-1.69-.34-.33-2.43-2.42-5.65,5.56c.96.97,1.81,1.82,2.47,2.49.1.1.2.2.29.29.75.75,1.23,1.23,1.34,1.32.5.45.44,1.04.13,1.63l6.23-6.23h0Z" style="fill: #1c1d1d; stroke-width: 0px;"/>
      <path d="m24.58,117.77c-.5-.51-1.05-1.06-1.62-1.63-.27-.27-.54-.54-.82-.82-.66-.67-1.35-1.36-2.03-2.04-.2-.2-.39-.39-.57-.57-.74-.74-1.46-1.46-2.14-2.13l-5.86,5.76c.6.62,1.34,1.4,2.15,2.23.17.18.34.35.52.54.68.7,1.38,1.43,2.03,2.11.27.27.54.55.8.82.61.64,1.17,1.21,1.62,1.65.32.32.58.57.77.75l5.95-5.86c-.25-.25-.51-.52-.79-.8h0Zm-1.62-1.63c-.27-.27-.54-.54-.82-.82-.66-.67-1.35-1.36-2.03-2.04-.2-.2-.39-.39-.57-.57-.74-.74-1.46-1.46-2.14-2.13l-5.86,5.76c.6.62,1.34,1.4,2.15,2.23.17.18.34.35.52.54.68.7,1.38,1.43,2.03,2.11.27.27.54.55.8.82.61.64,1.17,1.21,1.62,1.65l5.93-5.92c-.5-.51-1.05-1.06-1.62-1.63h0Zm0,0c-.27-.27-.54-.54-.82-.82-.66-.67-1.35-1.36-2.03-2.04-.2-.2-.39-.39-.57-.57-.74-.74-1.46-1.46-2.14-2.13l-5.86,5.76c.6.62,1.34,1.4,2.15,2.23.17.18.34.35.52.54.68.7,1.38,1.43,2.03,2.11.27.27.54.55.8.82.61.64,1.17,1.21,1.62,1.65l5.93-5.92c-.5-.51-1.05-1.06-1.62-1.63h0Zm0,0c-.27-.27-.54-.54-.82-.82-.66-.67-1.35-1.36-2.03-2.04-.2-.2-.39-.39-.57-.57-.74-.74-1.46-1.46-2.14-2.13l-5.86,5.76c.6.62,1.34,1.4,2.15,2.23.17.18.34.35.52.54.68.7,1.38,1.43,2.03,2.11.27.27.54.55.8.82.61.64,1.17,1.21,1.62,1.65l5.93-5.92c-.5-.51-1.05-1.06-1.62-1.63h0Zm0,0c-.27-.27-.54-.54-.82-.82-.66-.67-1.35-1.36-2.03-2.04-.2-.2-.39-.39-.57-.57-.74-.74-1.46-1.46-2.14-2.13l-5.86,5.76c.6.62,1.34,1.4,2.15,2.23.17.18.34.35.52.54.68.7,1.38,1.43,2.03,2.11.27.27.54.55.8.82.61.64,1.17,1.21,1.62,1.65l5.93-5.92c-.5-.51-1.05-1.06-1.62-1.63h0Zm0,0c-.27-.27-.54-.54-.82-.82-.66-.67-1.35-1.36-2.03-2.04-.2-.2-.39-.39-.57-.57-.74-.74-1.46-1.46-2.14-2.13l-5.86,5.76c.6.62,1.34,1.4,2.15,2.23.17.18.34.35.52.54.68.7,1.38,1.43,2.03,2.11.27.27.54.55.8.82.61.64,1.17,1.21,1.62,1.65l5.93-5.92c-.5-.51-1.05-1.06-1.62-1.63h0Zm0,0c-.27-.27-.54-.54-.82-.82-.66-.67-1.35-1.36-2.03-2.04-.2-.2-.39-.39-.57-.57-.74-.74-1.46-1.46-2.14-2.13l-5.86,5.76c.6.62,1.34,1.4,2.15,2.23.17.18.34.35.52.54.68.7,1.38,1.43,2.03,2.11.27.27.54.55.8.82.61.64,1.17,1.21,1.62,1.65l5.93-5.92c-.5-.51-1.05-1.06-1.62-1.63h0Zm0,0c-.27-.27-.54-.54-.82-.82-.66-.67-1.35-1.36-2.03-2.04-.2-.2-.39-.39-.57-.57-.74-.74-1.46-1.46-2.14-2.13l-5.86,5.76c.6.62,1.34,1.4,2.15,2.23.17.18.34.35.52.54.68.7,1.38,1.43,2.03,2.11.27.27.54.55.8.82.61.64,1.17,1.21,1.62,1.65l5.93-5.92c-.5-.51-1.05-1.06-1.62-1.63h0Zm8.79,26.12c-.34-.33-1.07-1.01-1.98-1.86-.21-.2-.43-.4-.65-.61-.67-.64-1.41-1.34-2.15-2.05-.15-.14-.3-.28-.45-.42-.84-.79-1.65-1.57-2.38-2.26-.2-.19-.39-.37-.56-.54h0c-.83-.8-1.47-1.42-1.74-1.7-.07-.07-.13-.14-.18-.2-.24-.27-.37-.51-.42-.7-.18-.6.34-.82.34-.82,0,0,5.43-5.42,6.38-6.63.64-.82.18-2.27-.17-3.11-.16-.39-.31-.65-.31-.65l-.1-.1c-.25-.26-1-1.02-2.02-2.04-.25-.25-.51-.52-.79-.8-.5-.51-1.05-1.06-1.62-1.63-.27-.27-.54-.54-.82-.82-.66-.67-1.35-1.36-2.03-2.04-.2-.2-.39-.39-.57-.57-.74-.74-1.46-1.46-2.14-2.13-.24-.24-.48-.47-.7-.68-.7-.7-1.34-1.31-1.85-1.79-.3-.29-.56-.53-.77-.73-.18-.15-.31-.28-.43-.37-1.12-.91-2.24-.74-2.96-.48h0c-.46.18-.75.4-.75.4l-1.68,1.6-.02,5.82c.12-.06.24-.09.36-.1.83-.09,1.61.7,1.61.7,0,0,.27.28.72.75.18.19.38.41.61.65.6.62,1.34,1.4,2.15,2.23.17.18.34.35.52.54.68.7,1.38,1.43,2.03,2.11.27.27.54.55.8.82.61.64,1.17,1.21,1.62,1.65.32.32.58.57.77.75.02.01.03.03.05.05,1.56,1.42.93,2.62.93,2.62l-2.03,2.06-1.87-1.86-.74-.75-1.64-1.65-.8-.79-2.09-2.09-.5-.51-2.21-2.21-.29-.29-.04,12.3,1.41,1.38.72.7,2.15,2.11.5.48,2.13,2.09.53.52,1.96,1.91.52.51,2.41,2.36.38.37,2.17,2.12.57.57,1.99,1.94.44.43,5.94-6.35s-.08-.08-.23-.22h.02Zm-8.79-26.12c-.27-.27-.54-.54-.82-.82-.66-.67-1.35-1.36-2.03-2.04-.2-.2-.39-.39-.57-.57-.74-.74-1.46-1.46-2.14-2.13l-5.86,5.76c.6.62,1.34,1.4,2.15,2.23.17.18.34.35.52.54.68.7,1.38,1.43,2.03,2.11.27.27.54.55.8.82.61.64,1.17,1.21,1.62,1.65l5.93-5.92c-.5-.51-1.05-1.06-1.62-1.63h0Zm0,0c-.27-.27-.54-.54-.82-.82-.66-.67-1.35-1.36-2.03-2.04-.2-.2-.39-.39-.57-.57-.74-.74-1.46-1.46-2.14-2.13l-5.86,5.76c.6.62,1.34,1.4,2.15,2.23.17.18.34.35.52.54.68.7,1.38,1.43,2.03,2.11.27.27.54.55.8.82.61.64,1.17,1.21,1.62,1.65l5.93-5.92c-.5-.51-1.05-1.06-1.62-1.63h0Zm0,0c-.27-.27-.54-.54-.82-.82-.66-.67-1.35-1.36-2.03-2.04-.2-.2-.39-.39-.57-.57-.74-.74-1.46-1.46-2.14-2.13l-5.86,5.76c.6.62,1.34,1.4,2.15,2.23.17.18.34.35.52.54.68.7,1.38,1.43,2.03,2.11.27.27.54.55.8.82.61.64,1.17,1.21,1.62,1.65l5.93-5.92c-.5-.51-1.05-1.06-1.62-1.63h0Zm0,0c-.27-.27-.54-.54-.82-.82-.66-.67-1.35-1.36-2.03-2.04-.2-.2-.39-.39-.57-.57-.74-.74-1.46-1.46-2.14-2.13l-5.86,5.76c.6.62,1.34,1.4,2.15,2.23.17.18.34.35.52.54.68.7,1.38,1.43,2.03,2.11.27.27.54.55.8.82.61.64,1.17,1.21,1.62,1.65l5.93-5.92c-.5-.51-1.05-1.06-1.62-1.63h0Zm0,0c-.27-.27-.54-.54-.82-.82-.66-.67-1.35-1.36-2.03-2.04-.2-.2-.39-.39-.57-.57-.74-.74-1.46-1.46-2.14-2.13l-5.86,5.76c.6.62,1.34,1.4,2.15,2.23.17.18.34.35.52.54.68.7,1.38,1.43,2.03,2.11.27.27.54.55.8.82.61.64,1.17,1.21,1.62,1.65l5.93-5.92c-.5-.51-1.05-1.06-1.62-1.63h0Zm0,0c-.27-.27-.54-.54-.82-.82-.66-.67-1.35-1.36-2.03-2.04-.2-.2-.39-.39-.57-.57-.74-.74-1.46-1.46-2.14-2.13l-5.86,5.76c.6.62,1.34,1.4,2.15,2.23.17.18.34.35.52.54.68.7,1.38,1.43,2.03,2.11.27.27.54.55.8.82.61.64,1.17,1.21,1.62,1.65l5.93-5.92c-.5-.51-1.05-1.06-1.62-1.63h0Zm0,0c-.27-.27-.54-.54-.82-.82-.66-.67-1.35-1.36-2.03-2.04-.2-.2-.39-.39-.57-.57-.74-.74-1.46-1.46-2.14-2.13l-5.86,5.76c.6.62,1.34,1.4,2.15,2.23.17.18.34.35.52.54.68.7,1.38,1.43,2.03,2.11.27.27.54.55.8.82.61.64,1.17,1.21,1.62,1.65l5.93-5.92c-.5-.51-1.05-1.06-1.62-1.63h0Z" style="fill: #1c1d1d; stroke-width: 0px;"/>
      <polygon points="148.63 27.46 127.5 11.23 144.59 31.58 137.62 38.65 104.92 14.09 109.7 9.25 112.6 9.26 137.16 28.68 121.07 9.28 137.54 9.34 147.59 17.31 140.88 9.35 146.26 9.37 154.7 20.53 148.63 27.46" style="fill: #1c1e1e; stroke-width: 0px;"/>
      <path d="m41.41,43.77c-1.33-1.43-.57-2.08-.57-2.08,0,0,.83-.81,2.16-2.23,1.32-1.42-.26-3.13-.26-3.13,0,0-11.43-11.53-12.81-12.9-1.38-1.36-2.41-.37-2.41-.37l-5.68,5.83c-.72.74.16,2.21.16,2.21l20.1,19.71,3.16-3.44s-2.51-2.17-3.84-3.61Zm-4.09-5.22c-.41.4-1.42-.33-1.42-.33l-7.66-7.78s-.98-1-.41-1.56,1.56.57,1.56.57l7.79,7.74s.55.96.14,1.36h0Z" style="fill: #a2212a; stroke-width: 0px;"/>
      <path d="m54.88,36.56l3.94,3.92,3.19-3-17.62-18.88s-1.51-1.64-3.39-.54c-1.88,1.11-6.3,4.05-6.3,4.05,0,0-.64,2.18.23,3.06l19.25,19.42,3.16-3.14-4.03-4.18s-.77-1.11-.31-1.56,1.88.85,1.88.85h0Zm-4.61-3.52c-.65.59-1.38-.42-1.38-.42l-7.89-8.12s-1.02-.96-.35-1.57,1.73.6,1.73.6l7.71,8.06s.85.85.19,1.45h0Z" style="fill: #a2212a; stroke-width: 0px;"/>
      <path d="m49.71,21.55l15.95,16.3s1.74.75,3.38-.82c1.57-1.5.73-4.46.73-4.46l2.56,1.1,1.6-1.76-7.81-8.57s-.7-.82-1.7-.02-2.97,2.38-2.97,2.38l5.35,5.14s.78.54.3,1.03-1.5-.37-1.5-.37l-10.1-10.79s-.81-.74-.34-1.17,1.5.64,1.5.64l3.22,3.12,3.31-2.21-4.84-5.31s-.92-1.05-2.74-.28-6.49,3.66-6.49,3.66c0,0-.38,1.12.59,2.39h0Z" style="fill: #a2212a; stroke-width: 0px;"/>
      <path d="m41.45,53.69s-15.85-15.92-17.7-17.57c-1.85-1.66-2.89-.01-2.89-.01l-4.11,6.08c-.94,1.39.17,2.68.17,2.68,0,0,16.16,15.44,17.72,16.8,1.56,1.37,2.45.36,2.45.36,0,0,3.58-3.63,4.8-5.01,1.22-1.38-.44-3.33-.44-3.33h0Zm-4.89,2.52c-.57.57-1.61-.58-1.61-.58l-12.63-12.49s-.72-.96-.24-1.45c.48-.5,1.44.5,1.44.5l12.52,12.47s1.08.99.51,1.56h0Z" style="fill: #a2212a; stroke-width: 0px;"/>
      <path d="m23.07,59.46l2.04-2.47s.56-1.05-.15-1.61-5.32-4.89-5.32-4.89c0,0-1.09-1.15-2.11.2s-3.16,5.91-3.16,5.91c0,0-.75,2,1.02,3.95s13.77,13.51,13.77,13.51c0,0,1.49.84,2.58-.23,1.09-1.07,4.86-5.16,4.86-5.16,0,0,.62-.92-.49-2.11s-8.21-7.93-8.21-7.93l-2.84,3.11,5.87,5.87s1.03.6.5,1.28-1.66-.59-1.66-.59l-10.91-10.63s-.8-.74-.32-1.33c.48-.59,1.56.22,1.56.22l2.97,2.92h0Z" style="fill: #a2212a; stroke-width: 0px;"/>
      <polyline points="108.63 75.21 110.29 76.52 131.93 54.74 130.44 53.26" style="fill: #1c1d1d; stroke-width: 0px;"/>
      <path id="Club" d="m103.51,79.81c-.07.08-.14.16-.2.25-.05-.32-.21-.64-.46-.88-.61-.59-1.63-.54-2.25.11s-.64,1.66-.02,2.26c.25.24.57.39.9.42-.08.06-.17.13-.24.21-.63.65-.6,1.69.01,2.29s1.63.54,2.25-.11c.44-.45.64-1.02.48-1.55,1.2,1.34.71,1.76.65,2.06-.02.1.02.14.12.24h0l.91-.94.91-.94h0c-.1-.09-.14-.13-.24-.11-.29.07-.7.58-2.08-.57.54.14,1.1-.08,1.54-.54.63-.65.64-1.66.02-2.26s-1.66-.58-2.29.08h0Z" style="fill: #040000; stroke-width: 0px;"/>
      <path d="m97.77,92l-.85-5.78s-1.55-1.45-2.51-.18-.15,2.06-.15,2.06c0,0-1.79-.45-2.41.55-.62,1,.38,2.12.38,2.12l5.53,1.23h0Z" style="fill: #1c1d1d; stroke-width: 0px;"/>
      <g>
        <path d="m85.33,94.93l.78,5.15s1.35.92,1.99,0l.51-1.78,2.06-.58s.76-1.49-.23-1.97l-5.11-.83h0Z" style="fill: #1c1d1d; stroke-width: 0px;"/>
        <path d="m88.71,98.47s.89,1.6.54,2.04,1.58-1.45,1.58-1.45c0,0-1.73-.3-2.13-.58h0Z" style="fill: #1c1d1d; stroke-width: 0px;"/>
      </g>
      <polygon points="77.47 102.06 78.36 106.42 82.42 107.64 81.68 103.71 77.47 102.06" style="fill: #1c1d1d; stroke-width: 0px;"/>
      <path id="Club-2" d="m19.05,163.98c-.07.08-.14.16-.2.25-.05-.32-.21-.64-.46-.88-.61-.59-1.63-.54-2.25.11s-.64,1.66-.02,2.26c.25.24.57.39.9.42-.08.06-.17.13-.24.21-.63.65-.6,1.69.01,2.29s1.63.54,2.25-.11c.44-.45.64-1.02.48-1.55,1.2,1.34.71,1.76.65,2.06-.02.1.02.14.12.24h0l.91-.94.91-.94h0c-.1-.09-.14-.13-.24-.11-.29.07-.7.58-2.08-.57.54.14,1.1-.08,1.54-.54.63-.65.64-1.66.02-2.26s-1.66-.58-2.29.08h0Z" style="fill: #040000; stroke-width: 0px;"/>
      <path d="m13.32,176.15l-5.26-1.17v-2.7c.77-.28,1.75-.04,1.75-.04,0,0-.8-.79.15-2.06.96-1.27,2.51.18,2.51.18l.85,5.78h0Z" style="fill: #1c1d1d; stroke-width: 0px;"/>
      <path d="m156.08,30.67l-17.24,17.1-1.53-1.31,18.77-19.26c0,1.11,0,2.26,0,3.47Z" style="fill: #1c1d1d; stroke-width: 0px;"/>
      <polygon points="111.45 127.52 109.92 126.22 87.75 148.22 89.64 149.9 111.45 127.52" style="fill: #1c1d1d; stroke-width: 0px;"/>
      <polyline points="139.77 99.3 138.11 97.99 116.47 119.77 117.96 121.24" style="fill: #1c1d1d; stroke-width: 0px;"/>
      <path d="m69.4,133.33l-9.14,9.45,1.69,1.61,5.49-6.06s.53.65.02,1.69c-.51,1.04-2.08,5.83-2.08,5.83,0,0-.41,1.28.72,2.28s2.36,2.23,2.36,2.23l7.62-7.33s1.03-.83-.22-2.08c-1.25-1.25-1.77-.79-1.77-.79l-1.67,1.7.37,1.68-3.14,3.05s-1.83.57-1.41-1.37c.42-1.95,2.55-8.5,2.55-8.5,0,0,.95-.97.26-1.71s-1.65-1.67-1.65-1.67h0Z" style="fill: #f7f8f8; stroke-width: 0px;"/>
      <path d="m50.87,154.05l6.12,6.16c.81.82,1.44.5,1.44.5,0,0,6.29-6.29,7.34-7.45s.54-1.53.54-1.53c0,0-5.08-5.46-6.22-6.51s-1.92-.17-1.92-.17c0,0-6.65,6.45-7.42,7.37-.68.82.11,1.62.11,1.62Zm3.98-1.83s2-1.97,2.78-2.73c.78-.76,1.33-.15,1.33-.15l3.24,2.9c.78.7.34,1.15.34,1.15,0,0-2.84,2.94-3.26,3.45-.42.51-.94-.16-.94-.16,0,0-2.54-2.4-3.28-3.1s-.2-1.36-.2-1.36Z" style="fill: #f7f8f8; stroke-width: 0px;"/>
      <path d="m48.68,154.27l-9.14,9.45,1.69,1.61,5.49-6.06s.53.65.02,1.69-2.08,5.83-2.08,5.83c0,0-.41,1.28.72,2.28s2.36,2.23,2.36,2.23l7.62-7.33s1.03-.83-.22-2.08c-1.25-1.25-1.77-.79-1.77-.79l-1.67,1.7.37,1.68-3.14,3.05s-1.83.57-1.41-1.37,2.55-8.5,2.55-8.5c0,0,.95-.97.26-1.71s-1.65-1.67-1.65-1.67h0Z" style="fill: #f7f8f8; stroke-width: 0px;"/>
      <path d="m43.16,171.29l-1.68,1.76s.8.8,0,1.7-2.17,2.28-2.17,2.28c0,0-.65.65-1.48,0s-.74-1.11-.21-1.82,1.64-1.39.84-2.33c-.8-.95-1.74.13-1.74.13l-1.33,1.28s-.19.91-1.51,0-.27-1.9,0-2.15,3.16-3.36,3.16-3.36h.83l.99.22,1.39-1.32s.9-.52-.03-1.45c-.92-.93-1.23-1.09-1.23-1.09,0,0-.65-.62-1.7.4-1.05,1.02-7.81,7.76-7.81,7.76,0,0-.28,1.08.49,1.83s3.57,3.29,3.57,3.29l1.51-.18,2.22,2.23s.74.59,1.33,0,6.36-6.32,6.36-6.32c0,0,.59-.77,0-1.48-.59-.71-1.44-1.77-1.82-1.37h0Z" style="fill: #f7f8f8; stroke-width: 0px;"/>
      <path d="m28.97,183.38l.63-.72s.6-.53.14-.97-1.81.7-1.81.7l-19.85,20.03v1.44l20.89-20.47h0Z" style="fill: #fbf6f8; stroke-width: 0px;"/>
      <polygon points="100.2 147.08 121.33 163.31 104.23 142.97 111.2 135.89 143.91 160.46 137.86 166.58 111.66 145.87 132.73 171.26 126.7 177.43 101.24 157.24 122.09 181.97 118.2 185.83 94.12 154.02 100.2 147.08" style="fill: #1c1e1e; stroke-width: 0px;"/>
      <path d="m75.28,171.28s0,0,0-.01c.1-.18.22-.35.35-.52,1.45-1.7,11.81-11.83,11.81-11.83l.11.1,1.58,1.54,1.07,1.04,1.78,1.74.88.85,1.87,1.81.89.87,1.75,1.71.79.77.04.04-5,4.92-.84-.78-1.76-1.65-.95-.89-1.84-1.72-.95-.89-.51-.47s-.69-.85-1.82-.63h0c-.46.08-.98.34-1.57.89-.55.52-.79,1.04-.84,1.52-.13,1.23.94,2.21,1.07,2.32h.01s5.26,5.3,5.26,5.3c0,0,.01.02.05.05.11.12.44.43.99.66.78.32,2.01.48,3.7-.35.05-.02.09-.05.14-.07h0c1.14-.57,2.21-1.07,3.12-1.5.61-.28.61-.28,0,0-.9.43,0,0,0,0,1.57-.73,2.63-1.21,2.63-1.21,0,0,1.14-.83,2.68-.49.43.09.89.27,1.37.59.12.08.24.17.37.27.33.27.78.66,1.3,1.15.29.27.6.57.93.88.58.55,1.22,1.17,1.87,1.82.28.27.56.54.84.82.61.61,1.23,1.22,1.81,1.81.37.37.72.72,1.06,1.06.55.55,1.05,1.06,1.47,1.48.44.45.79.81,1.01,1.02.16.17.24.25.24.25,0,0,.34,1.55.13,2.95-.1.69-.33,1.35-.8,1.78l-11.44,11.38-.59-.58-1.69-1.65-1.14-1.12-1.34-1.32-1.22-1.2-1.69-1.66-.95-.93-1.77-1.75-.2-.19,4.94-4.76.12.11,1.85,1.73.93.87,1.79,1.66,1.2,1.11.99.92s.16.23.43.43c.38.3.97.54,1.58-.05,1.03-.99,2.13-2.36,2.13-2.36,0,0,.26-.23-.28-.96-.13-.18-.31-.39-.55-.63-.18-.18-.47-.47-.84-.82-.33-.32-.72-.7-1.14-1.1-.57-.54-1.19-1.13-1.81-1.71-.3-.29-.6-.58-.89-.85-.74-.7-1.41-1.32-1.87-1.76-.4-.38-.65-.61-.65-.61l-.63.04-2.3.15-1.95,1.04-4.49,2.39h0s-.06.04-.06.04c0,0-1.83.93-3.49.07-.28-.14-.55-.33-.81-.59-.05-.05-.11-.11-.17-.17-.38-.38-.96-.97-1.65-1.66-.26-.27-.55-.56-.85-.86-.53-.52-1.09-1.09-1.66-1.67l-2.66-2.68c-.35-.35-.69-.7-1-1.02-.66-.66-1.23-1.23-1.64-1.65-.44-.45-.7-.71-.7-.71,0,0-.11-.3-.21-.75h0c-.17-.8-.29-2.08.28-3.15h0Z" style="fill: #1d1f1f; stroke-width: 0px;"/>
      <path d="m82.44,200.53l1.7,1.71,1,1.01,4.13,4.15,5.83-5.73-1.3-1.29-1.26-1.23-1.65-1.63-.97-.96-1.75-1.73-.96-.95-5.72,5.67.97.97h0Zm-.97-.97l.97.97,1.7,1.71,1,1.01,4.13,4.15,5.83-5.73-1.3-1.29-1.26-1.23-1.65-1.63-.97-.96-1.75-1.73-.96-.95-1.51-1.49-5.7,5.67,1.49,1.5h0Zm-10.02,7.01l1.48,1.46,5.53-5.48c-.47-.49-.97-.98-1.47-1.49-.37-.37-.74-.75-1.11-1.13l-5.57,5.49,1.15,1.15h0Zm7.44-9.61l1.1,1.1,1.49,1.5.97.97,1.7,1.71,1,1.01,4.13,4.15,5.83-5.73-1.3-1.29-1.26-1.23-1.65-1.63-.97-.96-1.75-1.73-.96-.95-1.51-1.49-1.08-1.07-1.7-1.67-.89-.88-5.68,5.61,2.56,2.58h0Zm-13.66,3.43l.95.94,1.54,1.54.97.97,1.61,1.59,1.15,1.15,1.48,1.46,5.53-5.48c-.47-.49-.97-.98-1.47-1.49-.37-.37-.74-.75-1.11-1.13-.53-.55-1.08-1.1-1.62-1.65-.31-.32-.62-.63-.93-.94-.53-.54-1.06-1.07-1.57-1.59-.31-.32-.61-.62-.91-.92-.56-.57-1.1-1.11-1.61-1.62l-5.6,5.59,1.59,1.59h0Zm13.66-3.43l1.1,1.1,1.49,1.5.97.97,1.7,1.71,1,1.01,4.13,4.15,5.83-5.73-1.3-1.29-1.26-1.23-1.65-1.63-.97-.96-1.75-1.73-.96-.95-1.51-1.49-1.08-1.07-1.7-1.67-.89-.88-1.65-1.63-.87-.86-1.66-1.64-1.03-1.01-5.64,5.54,7.73,7.78h0Zm-16.38.72l1.13,1.12,1.59,1.59.95.94,1.54,1.54.97.97,1.61,1.59,1.15,1.15,1.48,1.46,5.53-5.48c-.47-.49-.97-.98-1.47-1.49-.37-.37-.74-.75-1.11-1.13-.53-.55-1.08-1.1-1.62-1.65-.31-.32-.62-.63-.93-.94-.53-.54-1.06-1.07-1.57-1.59-.31-.32-.61-.62-.91-.92-.56-.57-1.1-1.11-1.61-1.62-.38-.39-.74-.75-1.08-1.1-.56-.57-1.08-1.09-1.53-1.55l-5.6,5.64,1.48,1.48h0Zm7.08-10.08l9.31,9.36,1.1,1.1,1.49,1.5.97.97,1.7,1.71,1,1.01,4.13,4.15,5.83-5.73-1.3-1.29-1.26-1.23-1.65-1.63-.97-.96-1.75-1.73-.96-.95-1.51-1.49-1.08-1.07-1.7-1.67-.89-.88-1.65-1.63-.87-.86-1.66-1.64-1.03-1.01-1.65-1.63-1.05-1.04-5.6,5.52,1.1,1.1h0Zm-2.23-2.25l1.13,1.14,1.1,1.1,9.31,9.36,1.1,1.1,1.49,1.5.97.97,1.7,1.71,1,1.01,4.13,4.15,5.83-5.73-1.3-1.29-1.26-1.23-1.65-1.63-.97-.96-1.75-1.73-.96-.95-1.51-1.49-1.08-1.07-1.7-1.67-.89-.88-1.65-1.63-.87-.86-1.66-1.64-1.03-1.01-1.65-1.63-1.05-1.04-1.63-1.61-5.82,5.83c.41.04.71.16.71.16h0Zm-4.85,12.33l1.13,1.12,1.59,1.59.95.94,1.54,1.54.97.97,1.61,1.59,1.15,1.15,1.48,1.46,5.53-5.48c-.47-.49-.97-.98-1.47-1.49-.37-.37-.74-.75-1.11-1.13-.53-.55-1.08-1.1-1.62-1.65-.31-.32-.62-.63-.93-.94-.53-.54-1.06-1.07-1.57-1.59-.31-.32-.61-.62-.91-.92-.56-.57-1.1-1.11-1.61-1.62-.38-.39-.74-.75-1.08-1.1-.56-.57-1.08-1.09-1.53-1.55l-5.6,5.64,1.48,1.48h0Zm4.85-12.33l1.13,1.14,1.1,1.1,9.31,9.36,1.1,1.1,1.49,1.5.97.97,1.7,1.71,1,1.01,4.13,4.15,5.83-5.73-1.3-1.29-1.26-1.23-1.65-1.63-.97-.96-1.75-1.73-.96-.95-1.51-1.49-1.08-1.07-1.7-1.67-.89-.88-1.65-1.63-.87-.86-1.66-1.64-1.03-1.01-1.65-1.63-1.05-1.04-1.63-1.61-5.82,5.83c.41.04.71.16.71.16h0Zm-4.85,12.33l1.13,1.12,1.59,1.59.95.94,1.54,1.54.97.97,1.61,1.59,1.15,1.15,1.48,1.46,5.53-5.48c-.47-.49-.97-.98-1.47-1.49-.37-.37-.74-.75-1.11-1.13-.53-.55-1.08-1.1-1.62-1.65-.31-.32-.62-.63-.93-.94-.53-.54-1.06-1.07-1.57-1.59-.31-.32-.61-.62-.91-.92-.56-.57-1.1-1.11-1.61-1.62-.38-.39-.74-.75-1.08-1.1-.56-.57-1.08-1.09-1.53-1.55l-5.6,5.64,1.48,1.48h0Zm5.98-11.19l1.1,1.1,9.31,9.36,1.1,1.1,1.49,1.5.97.97,1.7,1.71,1,1.01,4.13,4.15,5.83-5.73-1.3-1.29-1.26-1.23-1.65-1.63-.97-.96-1.75-1.73-.96-.95-1.51-1.49-1.08-1.07-1.7-1.67-.89-.88-1.65-1.63-.87-.86-1.66-1.64-1.03-1.01-1.65-1.63-1.05-1.04-1.63-1.61-5.82,5.83c.41.04.71.16.71.16l1.13,1.14h0Zm7.38,13.43c-.53-.55-1.08-1.1-1.62-1.65-.31-.32-.62-.63-.93-.94-.53-.54-1.06-1.07-1.57-1.59-.31-.32-.61-.62-.91-.92-.56-.57-1.1-1.11-1.61-1.62-.38-.39-.74-.75-1.08-1.1-.56-.57-1.08-1.09-1.53-1.55l-5.6,5.64,1.48,1.48,1.13,1.12,1.59,1.59.95.94,1.54,1.54.97.97,1.61,1.59,1.15,1.15,1.48,1.46,5.53-5.48c-.47-.49-.97-.98-1.47-1.49-.37-.37-.74-.75-1.11-1.13h0Zm-18.36-8.32h0c.27.83.66,1.55.85,1.88.07.12.12.2.12.2l1.36,1.35,1.19,1.18,1.48,1.48,1.13,1.12,1.59,1.59.95.94,1.54,1.54.97.97,1.61,1.59,1.15,1.15,1.48,1.46.99.98,1.67,1.65,1.08,1.07,1.51,1.51,1.4,1.39,1.16,1.16,1.27,1.26.39.39c.57.36,1.2.48,1.79.48,1.06,0,1.95-.39,1.95-.39,0,0,8.64-8.69,10.16-10.51.39-.47.55-.99.57-1.53h0c.04-1-.39-1.99-.71-2.56-.18-.32-.31-.51-.31-.51l-.76-.74-1.3-1.29-1.26-1.23-1.65-1.63-.97-.96-1.75-1.73-.96-.95-1.51-1.49-1.08-1.07-1.7-1.67-.89-.88-1.65-1.63-.87-.86-1.66-1.64-1.03-1.01-1.65-1.63-1.05-1.04-1.63-1.61-.76-.74s-.22-.17-.65-.31h0c-.53-.16-1.37-.27-2.49.06-.2.06-.45.19-.74.37h0c-2.72,1.74-9.02,8.48-10.17,9.95-.11.14-.2.3-.26.46h0c-.28.73-.14,1.64.14,2.45h0Zm9.84-6.25l1.13,1.14,1.1,1.1,9.31,9.36,1.1,1.1,1.49,1.5.97.97,1.7,1.71,1,1.01,4.34,4.37c.86.87.3,1.18.3,1.18,0,0-1.5,1.39-2.1,1.92-.57.5-1.4-.23-1.48-.31h0s-.44-.45-1.19-1.22c-.37-.37-.82-.83-1.33-1.35-.47-.48-.99-1.01-1.55-1.58-.33-.33-.66-.67-1.02-1.04-.54-.54-1.1-1.11-1.68-1.71-.32-.32-.64-.65-.97-.98-.47-.49-.97-.98-1.47-1.49-.37-.37-.74-.75-1.11-1.13-.53-.55-1.08-1.1-1.62-1.65-.31-.32-.62-.63-.93-.94-.53-.54-1.06-1.07-1.57-1.59-.31-.32-.61-.62-.91-.92-.56-.57-1.1-1.11-1.61-1.62-.38-.39-.74-.75-1.08-1.1-.56-.57-1.08-1.09-1.53-1.55-.44-.43-.82-.82-1.13-1.13-.56-.56-.91-.91-1-.99-.24-.22-.35-.48-.37-.75-.04-.67.5-1.43,1.1-2.04.43-.44.98-.51,1.41-.47.41.04.71.16.71.16h0Zm-4.85,12.33l1.13,1.12,1.59,1.59.95.94,1.54,1.54.97.97,1.61,1.59,1.15,1.15,1.48,1.46,5.53-5.48c-.47-.49-.97-.98-1.47-1.49-.37-.37-.74-.75-1.11-1.13-.53-.55-1.08-1.1-1.62-1.65-.31-.32-.62-.63-.93-.94-.53-.54-1.06-1.07-1.57-1.59-.31-.32-.61-.62-.91-.92-.56-.57-1.1-1.11-1.61-1.62-.38-.39-.74-.75-1.08-1.1-.56-.57-1.08-1.09-1.53-1.55l-5.6,5.64,1.48,1.48h0Zm4.85-12.33l1.13,1.14,1.1,1.1,9.31,9.36,1.1,1.1,1.49,1.5.97.97,1.7,1.71,1,1.01,4.13,4.15,5.83-5.73-1.3-1.29-1.26-1.23-1.65-1.63-.97-.96-1.75-1.73-.96-.95-1.51-1.49-1.08-1.07-1.7-1.67-.89-.88-1.65-1.63-.87-.86-1.66-1.64-1.03-1.01-1.65-1.63-1.05-1.04-1.63-1.61-5.82,5.83c.41.04.71.16.71.16h0Zm-4.85,12.33l1.13,1.12,1.59,1.59.95.94,1.54,1.54.97.97,1.61,1.59,1.15,1.15,1.48,1.46,5.53-5.48c-.47-.49-.97-.98-1.47-1.49-.37-.37-.74-.75-1.11-1.13-.53-.55-1.08-1.1-1.62-1.65-.31-.32-.62-.63-.93-.94-.53-.54-1.06-1.07-1.57-1.59-.31-.32-.61-.62-.91-.92-.56-.57-1.1-1.11-1.61-1.62-.38-.39-.74-.75-1.08-1.1-.56-.57-1.08-1.09-1.53-1.55l-5.6,5.64,1.48,1.48h0Zm4.85-12.33l1.13,1.14,1.1,1.1,9.31,9.36,1.1,1.1,1.49,1.5.97.97,1.7,1.71,1,1.01,4.13,4.15,5.83-5.73-1.3-1.29-1.26-1.23-1.65-1.63-.97-.96-1.75-1.73-.96-.95-1.51-1.49-1.08-1.07-1.7-1.67-.89-.88-1.65-1.63-.87-.86-1.66-1.64-1.03-1.01-1.65-1.63-1.05-1.04-1.63-1.61-5.82,5.83c.41.04.71.16.71.16h0Zm-4.85,12.33l1.13,1.12,1.59,1.59.95.94,1.54,1.54.97.97,1.61,1.59,1.15,1.15,1.48,1.46,5.53-5.48c-.47-.49-.97-.98-1.47-1.49-.37-.37-.74-.75-1.11-1.13-.53-.55-1.08-1.1-1.62-1.65-.31-.32-.62-.63-.93-.94-.53-.54-1.06-1.07-1.57-1.59-.31-.32-.61-.62-.91-.92-.56-.57-1.1-1.11-1.61-1.62-.38-.39-.74-.75-1.08-1.1-.56-.57-1.08-1.09-1.53-1.55l-5.6,5.64,1.48,1.48h0Zm4.85-12.33l1.13,1.14,1.1,1.1,9.31,9.36,1.1,1.1,1.49,1.5.97.97,1.7,1.71,1,1.01,4.13,4.15,5.83-5.73-1.3-1.29-1.26-1.23-1.65-1.63-.97-.96-1.75-1.73-.96-.95-1.51-1.49-1.08-1.07-1.7-1.67-.89-.88-1.65-1.63-.87-.86-1.66-1.64-1.03-1.01-1.65-1.63-1.05-1.04-1.63-1.61-5.82,5.83c.41.04.71.16.71.16h0Zm11.54,11.61l1.1,1.1,1.49,1.5.97.97,1.7,1.71,1,1.01,4.13,4.15,5.83-5.73-1.3-1.29-1.26-1.23-1.65-1.63-.97-.96-1.75-1.73-.96-.95-1.51-1.49-1.08-1.07-1.7-1.67-.89-.88-1.65-1.63-.87-.86-1.66-1.64-1.03-1.01-1.65-1.63-5.56,5.59,9.31,9.36h0Zm-15.25,1.84l1.59,1.59.95.94,1.54,1.54.97.97,1.61,1.59,1.15,1.15,1.48,1.46,5.53-5.48c-.47-.49-.97-.98-1.47-1.49-.37-.37-.74-.75-1.11-1.13-.53-.55-1.08-1.1-1.62-1.65-.31-.32-.62-.63-.93-.94-.53-.54-1.06-1.07-1.57-1.59-.31-.32-.61-.62-.91-.92-.56-.57-1.1-1.11-1.61-1.62-.38-.39-.74-.75-1.08-1.1l-5.66,5.56,1.13,1.12h0Zm15.25-1.84l1.1,1.1,1.49,1.5.97.97,1.7,1.71,1,1.01,4.13,4.15,5.83-5.73-1.3-1.29-1.26-1.23-1.65-1.63-.97-.96-1.75-1.73-.96-.95-1.51-1.49-1.08-1.07-1.7-1.67-.89-.88-1.65-1.63-.87-.86-1.66-1.64-5.61,5.6,6.68,6.72h0Zm-12.71,4.37l1.54,1.54.97.97,1.61,1.59,1.15,1.15,1.48,1.46,5.53-5.48c-.47-.49-.97-.98-1.47-1.49-.37-.37-.74-.75-1.11-1.13-.53-.55-1.08-1.1-1.62-1.65-.31-.32-.62-.63-.93-.94-.53-.54-1.06-1.07-1.57-1.59-.31-.32-.61-.62-.91-.92l-5.62,5.56.95.94h0Zm13.8-3.27l1.49,1.5.97.97,1.7,1.71,1,1.01,4.13,4.15,5.83-5.73-1.3-1.29-1.26-1.23-1.65-1.63-.97-.96-1.75-1.73-.96-.95-1.51-1.49-1.08-1.07-5.71,5.64,1.1,1.1h0Zm1.49,1.5l.97.97,1.7,1.71,1,1.01,4.13,4.15,5.83-5.73-1.3-1.29-1.26-1.23-1.65-1.63-.97-.96-1.75-1.73-.96-.95-1.51-1.49-5.7,5.67,1.49,1.5h0Z" style="fill: #1c1d1d; stroke-width: 0px;"/>
      <path d="m55.7,209.76c1.26,1.29.26,1.71.26,1.71,0,0-5.43,5.42-6.38,6.63-.94,1.21.48,3.76.48,3.76,0,0,11.99,12.19,13.83,13.7,1.84,1.5,3.71.08,3.71.08l13.53-12.84-29.64-29.06-5.94,6.35s8.88,8.37,10.14,9.66h0Zm1.45,5.7l2.03-2.06,11.95,11.96.6.65s-1.09,1.13-2.1,2.01c-1.02.89-2.29-.39-2.29-.39,0,0-7.7-8.11-9.27-9.54-1.56-1.42-.93-2.62-.93-2.62h0Z" style="fill: #1c1d1d; stroke-width: 0px;"/>
      <path d="m142.77,108.95c.2.38.34.62.34.62l1.7,1.69.34.33,2.43,2.42,5.65-5.56c-.96-.97-1.81-1.82-2.47-2.49l-.29-.29c-.75-.75-1.23-1.23-1.34-1.32-.5-.45-.44-1.04-.13-1.63l-6.23,6.23h0Zm0,0c.2.38.34.62.34.62l1.7,1.69.34.33,2.43,2.42,5.65-5.56c-.96-.97-1.81-1.82-2.47-2.49l-.29-.29c-.75-.75-1.23-1.23-1.34-1.32-.5-.45-.44-1.04-.13-1.63l-6.23,6.23h0Zm0,0c.2.38.34.62.34.62l1.7,1.69.34.33,2.43,2.42,5.65-5.56c-.96-.97-1.81-1.82-2.47-2.49l-.29-.29c-.75-.75-1.23-1.23-1.34-1.32-.5-.45-.44-1.04-.13-1.63l-6.23,6.23h0Zm0,0c.2.38.34.62.34.62l1.7,1.69.34.33,2.43,2.42,5.65-5.56c-.96-.97-1.81-1.82-2.47-2.49l-.29-.29c-.75-.75-1.23-1.23-1.34-1.32-.5-.45-.44-1.04-.13-1.63l-6.23,6.23h0Zm0,0c.2.38.34.62.34.62l1.7,1.69.34.33,2.43,2.42,5.65-5.56c-.96-.97-1.81-1.82-2.47-2.49l-.29-.29c-.75-.75-1.23-1.23-1.34-1.32-.5-.45-.44-1.04-.13-1.63l-6.23,6.23h0Zm0,0c.2.38.34.62.34.62l1.7,1.69.34.33,2.43,2.42,5.65-5.56c-.96-.97-1.81-1.82-2.47-2.49l-.29-.29c-.75-.75-1.23-1.23-1.34-1.32-.5-.45-.44-1.04-.13-1.63l-6.23,6.23h0Zm0,0c.2.38.34.62.34.62l1.7,1.69.34.33,2.43,2.42,5.65-5.56c-.96-.97-1.81-1.82-2.47-2.49l-.29-.29c-.75-.75-1.23-1.23-1.34-1.32-.5-.45-.44-1.04-.13-1.63l-6.23,6.23h0Zm0,0c.2.38.34.62.34.62l1.7,1.69.34.33,2.43,2.42,5.65-5.56c-.96-.97-1.81-1.82-2.47-2.49l-.29-.29c-.75-.75-1.23-1.23-1.34-1.32-.5-.45-.44-1.04-.13-1.63l-6.23,6.23h0Zm-.34-.72c.12.27.24.52.34.72.2.38.34.62.34.62l1.7,1.69.34.33,2.43,2.42.48.48,1.96,1.95.51.51,2.13,2.12.47.47,2.16,2.15.54.54.04-11.1-.24-.24c-.69-.7-1.35-1.36-1.97-1.99-.15-.15-.3-.3-.44-.45-.96-.97-1.81-1.82-2.47-2.49l-.29-.29c-.75-.75-1.23-1.23-1.34-1.32-.5-.45-.44-1.04-.13-1.63,0,0,0,0,0-.01.2-.4.53-.8.86-1.14.21-.21.45-.34.68-.4h0c.71-.21,1.43.09,1.43.09l1.47,1.48.25.26,2.17,2.19c.02-3.66.03-7.29.03-10.87-.5-.2-1.42-.42-2.73-.04-.54.15-1.47.83-2.57,1.78h0s0,.01,0,.01h0s0,.01,0,.01l-.02.02h0s0,.01,0,.01h0s-.02.03-.02.03h0c-2.29,1.99-5.26,5.06-7.01,7.01h0c-.58.65-1.02,1.15-1.25,1.44-.76.96-.32,2.52.16,3.64h0Zm.34.72c.2.38.34.62.34.62l1.7,1.69.34.33,2.43,2.42,5.65-5.56c-.96-.97-1.81-1.82-2.47-2.49l-.29-.29c-.75-.75-1.23-1.23-1.34-1.32-.5-.45-.44-1.04-.13-1.63l-6.23,6.23h0Zm0,0c.2.38.34.62.34.62l1.7,1.69.34.33,2.43,2.42,5.65-5.56c-.96-.97-1.81-1.82-2.47-2.49l-.29-.29c-.75-.75-1.23-1.23-1.34-1.32-.5-.45-.44-1.04-.13-1.63l-6.23,6.23h0Zm0,0c.2.38.34.62.34.62l1.7,1.69.34.33,2.43,2.42,5.65-5.56c-.96-.97-1.81-1.82-2.47-2.49l-.29-.29c-.75-.75-1.23-1.23-1.34-1.32-.5-.45-.44-1.04-.13-1.63l-6.23,6.23h0Zm0,0c.2.38.34.62.34.62l1.7,1.69.34.33,2.43,2.42,5.65-5.56c-.96-.97-1.81-1.82-2.47-2.49l-.29-.29c-.75-.75-1.23-1.23-1.34-1.32-.5-.45-.44-1.04-.13-1.63l-6.23,6.23h0Zm0,0c.2.38.34.62.34.62l1.7,1.69.34.33,2.43,2.42,5.65-5.56c-.96-.97-1.81-1.82-2.47-2.49l-.29-.29c-.75-.75-1.23-1.23-1.34-1.32-.5-.45-.44-1.04-.13-1.63l-6.23,6.23h0Zm0,0c.2.38.34.62.34.62l1.7,1.69.34.33,2.43,2.42,5.65-5.56c-.96-.97-1.81-1.82-2.47-2.49l-.29-.29c-.75-.75-1.23-1.23-1.34-1.32-.5-.45-.44-1.04-.13-1.63l-6.23,6.23h0Zm0,0c.2.38.34.62.34.62l1.7,1.69.34.33,2.43,2.42,5.65-5.56c-.96-.97-1.81-1.82-2.47-2.49l-.29-.29c-.75-.75-1.23-1.23-1.34-1.32-.5-.45-.44-1.04-.13-1.63l-6.23,6.23h0Z" style="fill: #1c1d1d; stroke-width: 0px;"/>
      <path d="m137.59,140.69c.5.51,1.05,1.06,1.62,1.63.27.27.54.54.82.82.66.67,1.35,1.36,2.03,2.04.2.2.39.39.57.57.74.74,1.46,1.46,2.14,2.13l5.86-5.76c-.6-.62-1.34-1.4-2.15-2.23-.17-.18-.34-.35-.52-.54-.68-.7-1.38-1.43-2.03-2.11-.27-.27-.54-.55-.8-.82-.61-.64-1.17-1.21-1.62-1.65-.32-.32-.58-.57-.77-.75l-5.95,5.86c.25.25.51.52.79.8h0Zm1.62,1.63c.27.27.54.54.82.82.66.67,1.35,1.36,2.03,2.04.2.2.39.39.57.57.74.74,1.46,1.46,2.14,2.13l5.86-5.76c-.6-.62-1.34-1.4-2.15-2.23-.17-.18-.34-.35-.52-.54-.68-.7-1.38-1.43-2.03-2.11-.27-.27-.54-.55-.8-.82-.61-.64-1.17-1.21-1.62-1.65l-5.93,5.92c.5.51,1.05,1.06,1.62,1.63h0Zm0,0c.27.27.54.54.82.82.66.67,1.35,1.36,2.03,2.04.2.2.39.39.57.57.74.74,1.46,1.46,2.14,2.13l5.86-5.76c-.6-.62-1.34-1.4-2.15-2.23-.17-.18-.34-.35-.52-.54-.68-.7-1.38-1.43-2.03-2.11-.27-.27-.54-.55-.8-.82-.61-.64-1.17-1.21-1.62-1.65l-5.93,5.92c.5.51,1.05,1.06,1.62,1.63h0Zm0,0c.27.27.54.54.82.82.66.67,1.35,1.36,2.03,2.04.2.2.39.39.57.57.74.74,1.46,1.46,2.14,2.13l5.86-5.76c-.6-.62-1.34-1.4-2.15-2.23-.17-.18-.34-.35-.52-.54-.68-.7-1.38-1.43-2.03-2.11-.27-.27-.54-.55-.8-.82-.61-.64-1.17-1.21-1.62-1.65l-5.93,5.92c.5.51,1.05,1.06,1.62,1.63h0Zm0,0c.27.27.54.54.82.82.66.67,1.35,1.36,2.03,2.04.2.2.39.39.57.57.74.74,1.46,1.46,2.14,2.13l5.86-5.76c-.6-.62-1.34-1.4-2.15-2.23-.17-.18-.34-.35-.52-.54-.68-.7-1.38-1.43-2.03-2.11-.27-.27-.54-.55-.8-.82-.61-.64-1.17-1.21-1.62-1.65l-5.93,5.92c.5.51,1.05,1.06,1.62,1.63h0Zm0,0c.27.27.54.54.82.82.66.67,1.35,1.36,2.03,2.04.2.2.39.39.57.57.74.74,1.46,1.46,2.14,2.13l5.86-5.76c-.6-.62-1.34-1.4-2.15-2.23-.17-.18-.34-.35-.52-.54-.68-.7-1.38-1.43-2.03-2.11-.27-.27-.54-.55-.8-.82-.61-.64-1.17-1.21-1.62-1.65l-5.93,5.92c.5.51,1.05,1.06,1.62,1.63h0Zm0,0c.27.27.54.54.82.82.66.67,1.35,1.36,2.03,2.04.2.2.39.39.57.57.74.74,1.46,1.46,2.14,2.13l5.86-5.76c-.6-.62-1.34-1.4-2.15-2.23-.17-.18-.34-.35-.52-.54-.68-.7-1.38-1.43-2.03-2.11-.27-.27-.54-.55-.8-.82-.61-.64-1.17-1.21-1.62-1.65l-5.93,5.92c.5.51,1.05,1.06,1.62,1.63h0Zm0,0c.27.27.54.54.82.82.66.67,1.35,1.36,2.03,2.04.2.2.39.39.57.57.74.74,1.46,1.46,2.14,2.13l5.86-5.76c-.6-.62-1.34-1.4-2.15-2.23-.17-.18-.34-.35-.52-.54-.68-.7-1.38-1.43-2.03-2.11-.27-.27-.54-.55-.8-.82-.61-.64-1.17-1.21-1.62-1.65l-5.93,5.92c.5.51,1.05,1.06,1.62,1.63h0Zm-8.79-26.12c.34.33,1.07,1.01,1.98,1.86.21.2.43.4.65.61.67.64,1.41,1.34,2.15,2.05.15.14.3.28.45.42.84.79,1.65,1.57,2.38,2.26.2.19.39.37.56.54h0c.83.8,1.47,1.42,1.74,1.7.07.07.13.14.18.2.24.27.37.51.42.7.18.6-.34.82-.34.82,0,0-5.43,5.42-6.38,6.63-.64.82-.18,2.27.17,3.11.16.39.31.65.31.65l.1.1c.25.26,1,1.02,2.02,2.04.25.25.51.52.79.8.5.51,1.05,1.06,1.62,1.63.27.27.54.54.82.82.66.67,1.35,1.36,2.03,2.04.2.2.39.39.57.57.74.74,1.46,1.46,2.14,2.13.24.24.48.47.7.68.7.7,1.34,1.31,1.85,1.79.3.29.56.53.77.73.18.15.31.28.43.37,1.12.91,2.24.74,2.96.48h0c.46-.18.75-.4.75-.4l3.52-3.34.02-5.71c-.08.08-.17.16-.26.25-.37.37-.82.79-1.25,1.17-.22.19-.45.29-.68.31-.83.09-1.61-.7-1.61-.7,0,0-.27-.28-.72-.75-.18-.19-.38-.41-.61-.65-.6-.62-1.34-1.4-2.15-2.23-.17-.18-.34-.35-.52-.54-.68-.7-1.38-1.43-2.03-2.11-.27-.27-.54-.55-.8-.82-.61-.64-1.17-1.21-1.62-1.65-.32-.32-.58-.57-.77-.75-.02-.01-.03-.03-.05-.05-1.56-1.42-.93-2.62-.93-2.62l2.03-2.06,1.87,1.86.74.75,1.64,1.65.8.79,2.09,2.09.5.51,2.21,2.21.6.6,1.49,1.5.02.02.04-12.33-.77-.76-.79-.77-1.68-1.65-.72-.7-2.15-2.11-.5-.48-2.13-2.09-.53-.52-1.96-1.91-.52-.51-2.41-2.36-.38-.37-2.17-2.12-.57-.57-1.99-1.94-.44-.43-5.94,6.35s.08.08.23.22h-.01Zm8.79,26.12c.27.27.54.54.82.82.66.67,1.35,1.36,2.03,2.04.2.2.39.39.57.57.74.74,1.46,1.46,2.14,2.13l5.86-5.76c-.6-.62-1.34-1.4-2.15-2.23-.17-.18-.34-.35-.52-.54-.68-.7-1.38-1.43-2.03-2.11-.27-.27-.54-.55-.8-.82-.61-.64-1.17-1.21-1.62-1.65l-5.93,5.92c.5.51,1.05,1.06,1.62,1.63h0Zm0,0c.27.27.54.54.82.82.66.67,1.35,1.36,2.03,2.04.2.2.39.39.57.57.74.74,1.46,1.46,2.14,2.13l5.86-5.76c-.6-.62-1.34-1.4-2.15-2.23-.17-.18-.34-.35-.52-.54-.68-.7-1.38-1.43-2.03-2.11-.27-.27-.54-.55-.8-.82-.61-.64-1.17-1.21-1.62-1.65l-5.93,5.92c.5.51,1.05,1.06,1.62,1.63h0Zm0,0c.27.27.54.54.82.82.66.67,1.35,1.36,2.03,2.04.2.2.39.39.57.57.74.74,1.46,1.46,2.14,2.13l5.86-5.76c-.6-.62-1.34-1.4-2.15-2.23-.17-.18-.34-.35-.52-.54-.68-.7-1.38-1.43-2.03-2.11-.27-.27-.54-.55-.8-.82-.61-.64-1.17-1.21-1.62-1.65l-5.93,5.92c.5.51,1.05,1.06,1.62,1.63h0Zm0,0c.27.27.54.54.82.82.66.67,1.35,1.36,2.03,2.04.2.2.39.39.57.57.74.74,1.46,1.46,2.14,2.13l5.86-5.76c-.6-.62-1.34-1.4-2.15-2.23-.17-.18-.34-.35-.52-.54-.68-.7-1.38-1.43-2.03-2.11-.27-.27-.54-.55-.8-.82-.61-.64-1.17-1.21-1.62-1.65l-5.93,5.92c.5.51,1.05,1.06,1.62,1.63h0Zm0,0c.27.27.54.54.82.82.66.67,1.35,1.36,2.03,2.04.2.2.39.39.57.57.74.74,1.46,1.46,2.14,2.13l5.86-5.76c-.6-.62-1.34-1.4-2.15-2.23-.17-.18-.34-.35-.52-.54-.68-.7-1.38-1.43-2.03-2.11-.27-.27-.54-.55-.8-.82-.61-.64-1.17-1.21-1.62-1.65l-5.93,5.92c.5.51,1.05,1.06,1.62,1.63h0Zm0,0c.27.27.54.54.82.82.66.67,1.35,1.36,2.03,2.04.2.2.39.39.57.57.74.74,1.46,1.46,2.14,2.13l5.86-5.76c-.6-.62-1.34-1.4-2.15-2.23-.17-.18-.34-.35-.52-.54-.68-.7-1.38-1.43-2.03-2.11-.27-.27-.54-.55-.8-.82-.61-.64-1.17-1.21-1.62-1.65l-5.93,5.92c.5.51,1.05,1.06,1.62,1.63h0Zm0,0c.27.27.54.54.82.82.66.67,1.35,1.36,2.03,2.04.2.2.39.39.57.57.74.74,1.46,1.46,2.14,2.13l5.86-5.76c-.6-.62-1.34-1.4-2.15-2.23-.17-.18-.34-.35-.52-.54-.68-.7-1.38-1.43-2.03-2.11-.27-.27-.54-.55-.8-.82-.61-.64-1.17-1.21-1.62-1.65l-5.93,5.92c.5.51,1.05,1.06,1.62,1.63h0Z" style="fill: #1c1d1d; stroke-width: 0px;"/>
      <polygon points="15.37 231.01 36.51 247.24 19.41 226.9 26.38 219.82 59.08 244.39 54.3 249.23 51.4 249.22 26.84 229.8 42.93 249.19 26.46 249.13 16.42 241.17 23.12 249.12 17.74 249.11 9.3 237.95 15.37 231.01" style="fill: #1c1e1e; stroke-width: 0px;"/>
      <path d="m122.59,214.7c1.33,1.43.57,2.08.57,2.08,0,0-.83.81-2.16,2.23-1.32,1.42.26,3.13.26,3.13,0,0,11.43,11.53,12.81,12.9,1.38,1.36,2.41.37,2.41.37l5.68-5.83c.72-.74-.16-2.21-.16-2.21l-20.1-19.71-3.16,3.44s2.51,2.17,3.84,3.61h0Zm4.09,5.22c.41-.4,1.42.33,1.42.33l7.66,7.78s.98,1,.41,1.56c-.57.57-1.56-.57-1.56-.57l-7.79-7.74s-.55-.96-.14-1.36h0Z" style="fill: #a2212a; stroke-width: 0px;"/>
      <path d="m109.12,221.91l-3.94-3.92-3.19,3,17.62,18.88s1.51,1.64,3.39.54c1.88-1.11,6.3-4.05,6.3-4.05,0,0,.64-2.18-.23-3.06l-19.25-19.42-3.16,3.14,4.03,4.18s.77,1.11.31,1.56-1.88-.85-1.88-.85h0Zm4.61,3.52c.65-.59,1.38.42,1.38.42l7.89,8.12s1.02.96.35,1.57-1.73-.6-1.73-.6l-7.71-8.06s-.85-.85-.19-1.45h0Z" style="fill: #a2212a; stroke-width: 0px;"/>
      <path d="m114.3,236.92l-15.95-16.3s-1.74-.75-3.38.82c-1.57,1.5-.73,4.46-.73,4.46l-2.56-1.1-1.6,1.76,7.81,8.57s.7.82,1.7.02,2.97-2.38,2.97-2.38l-5.35-5.14s-.78-.54-.3-1.03,1.5.37,1.5.37l10.1,10.79s.81.74.34,1.17-1.5-.64-1.5-.64l-3.22-3.12-3.31,2.21,4.84,5.31s.92,1.05,2.74.28,6.49-3.66,6.49-3.66c0,0,.38-1.12-.59-2.39h0Z" style="fill: #a2212a; stroke-width: 0px;"/>
      <path d="m122.55,204.78s15.85,15.92,17.7,17.57c1.85,1.66,2.89.01,2.89.01l4.11-6.08c.94-1.39-.17-2.68-.17-2.68,0,0-16.16-15.44-17.72-16.8-1.56-1.37-2.45-.36-2.45-.36,0,0-3.58,3.63-4.8,5.01-1.22,1.38.44,3.33.44,3.33h0Zm4.89-2.52c.57-.57,1.61.58,1.61.58l12.63,12.49s.72.96.24,1.45c-.48.5-1.44-.5-1.44-.5l-12.52-12.47s-1.08-.99-.51-1.56h0Z" style="fill: #a2212a; stroke-width: 0px;"/>
      <path d="m140.93,199.01l-2.04,2.47s-.56,1.05.15,1.61c.71.57,5.32,4.89,5.32,4.89,0,0,1.09,1.15,2.11-.2s3.16-5.91,3.16-5.91c0,0,.75-2-1.02-3.95-1.77-1.96-13.77-13.51-13.77-13.51,0,0-1.49-.84-2.58.23-1.09,1.07-4.86,5.16-4.86,5.16,0,0-.62.92.49,2.11s8.21,7.93,8.21,7.93l2.84-3.11-5.87-5.87s-1.03-.6-.5-1.28c.53-.67,1.66.59,1.66.59l10.91,10.63s.8.74.32,1.33-1.56-.22-1.56-.22l-2.97-2.92h0Z" style="fill: #a2212a; stroke-width: 0px;"/>
      <polyline points="55.37 183.27 53.71 181.96 32.07 203.74 33.56 205.21" style="fill: #1c1d1d; stroke-width: 0px;"/>
      <path id="Club-3" d="m60.5,178.66c.07-.08.14-.16.2-.25.05.32.21.64.46.88.61.59,1.63.54,2.25-.11s.64-1.66.02-2.26c-.25-.24-.57-.39-.9-.42.08-.06.17-.13.24-.21.63-.65.6-1.69-.01-2.29s-1.63-.54-2.25.11c-.44.45-.64,1.02-.48,1.55-1.2-1.34-.71-1.76-.65-2.06.02-.1-.02-.14-.12-.24h0l-.91.94-.91.94h0c.1.09.14.13.24.11.29-.07.7-.58,2.08.57-.54-.14-1.1.08-1.54.54-.63.65-.64,1.66-.02,2.26s1.66.58,2.29-.08h0Z" style="fill: #040000; stroke-width: 0px;"/>
      <path d="m66.23,166.48l.85,5.78s1.55,1.45,2.51.18c.96-1.27.15-2.06.15-2.06,0,0,1.79.45,2.41-.55s-.38-2.12-.38-2.12l-5.53-1.23h0Z" style="fill: #1c1d1d; stroke-width: 0px;"/>
      <g>
        <path d="m78.67,163.54l-.78-5.15s-1.35-.92-1.99,0l-.51,1.78-2.06.58s-.76,1.49.23,1.97l5.11.83h0Z" style="fill: #1c1d1d; stroke-width: 0px;"/>
        <path d="m75.29,160.01s-.89-1.6-.54-2.04-1.58,1.45-1.58,1.45c0,0,1.73.3,2.13.58h0Z" style="fill: #1c1d1d; stroke-width: 0px;"/>
      </g>
      <polygon points="86.53 156.41 85.64 152.06 81.58 150.84 82.33 154.76 86.53 156.41" style="fill: #1c1d1d; stroke-width: 0px;"/>
      <path id="Club-4" d="m144.95,94.5c.07-.08.14-.16.2-.25.05.32.21.64.46.88.61.59,1.63.54,2.25-.11s.64-1.66.02-2.26c-.25-.24-.57-.39-.9-.42.08-.06.17-.13.24-.21.63-.65.6-1.69-.01-2.29-.61-.59-1.63-.54-2.25.11-.44.45-.64,1.02-.48,1.55-1.2-1.34-.71-1.76-.65-2.06.02-.1-.02-.14-.12-.24h0l-.91.94-.91.94h0c.1.09.14.13.24.11.29-.07.7-.58,2.08.57-.54-.14-1.1.08-1.54.54-.63.65-.64,1.66-.02,2.26s1.66.58,2.29-.08h0Z" style="fill: #040000; stroke-width: 0px;"/>
      <path d="m150.68,82.32l5.26,1.17v2.7c-.77.28-1.75.04-1.75.04,0,0,.8.79-.15,2.06-.96,1.27-2.51-.18-2.51-.18l-.85-5.78h0Z" style="fill: #1c1d1d; stroke-width: 0px;"/>
      <path d="m7.92,227.8l17.24-17.1,1.53,1.31-18.77,19.26c0-1.11,0-2.26,0-3.47Z" style="fill: #1c1d1d; stroke-width: 0px;"/>
      <path d="m155.46,242.45s-.44,6.87-5.61,7.08l-137.18-.44s-4.63.16-4.75-3.23c-.04-1.24.02-32.13.13-70.88l.03-10.81c0-3.58.01-7.22.03-10.87,0-1.97,0-3.96.01-5.95l.12-38.83c.14-49.09.29-92.5.29-92.5,0,0,.44-6.88,5.61-7.08l95.55.31,11.37.04,16.47.06,13.78.04s4.64-.17,4.76,3.23c.02.5.02,5.85,0,14.6,0,1.11,0,2.26,0,3.47-.09,54.25-.61,211.78-.61,211.78h0Z" style="fill: none; stroke: #231815; stroke-miterlimit: 3.51; stroke-width: .61px;"/>
    </g>
  </g>
</svg>